%TF.GenerationSoftware,KiCad,Pcbnew,(6.0.0)*%
%TF.CreationDate,2022-05-26T17:50:24+02:00*%
%TF.ProjectId,slider,736c6964-6572-42e6-9b69-6361645f7063,rev?*%
%TF.SameCoordinates,Original*%
%TF.FileFunction,Profile,NP*%
%FSLAX46Y46*%
G04 Gerber Fmt 4.6, Leading zero omitted, Abs format (unit mm)*
G04 Created by KiCad (PCBNEW (6.0.0)) date 2022-05-26 17:50:24*
%MOMM*%
%LPD*%
G01*
G04 APERTURE LIST*
%TA.AperFunction,Profile*%
%ADD10C,0.100000*%
%TD*%
G04 APERTURE END LIST*
D10*
X134999999Y-82000001D02*
X135000000Y-81000000D01*
X145499999Y-80499999D02*
G75*
G03*
X144999999Y-80999999I1J-500001D01*
G01*
X144999999Y-119000001D02*
G75*
G03*
X145499999Y-119500001I500001J1D01*
G01*
X117999999Y-82999999D02*
X117999999Y-117000001D01*
X145000001Y-117999999D02*
G75*
G03*
X144500001Y-117499999I-500001J-1D01*
G01*
X122000001Y-82500001D02*
G75*
G03*
X122500001Y-82000001I-1J500001D01*
G01*
X135499999Y-117499999D02*
X144500001Y-117499999D01*
X122999999Y-119500001D02*
X134500001Y-119500001D01*
X157999999Y-117499999D02*
X161500001Y-117500002D01*
X117999999Y-117000001D02*
G75*
G03*
X118499999Y-117500001I500001J1D01*
G01*
X157000001Y-119500001D02*
G75*
G03*
X157500001Y-119000001I-1J500001D01*
G01*
X145000001Y-117999999D02*
X145000000Y-119000000D01*
X162000001Y-83000000D02*
X162000001Y-117000002D01*
X122500001Y-117999999D02*
G75*
G03*
X122000001Y-117499999I-500001J-1D01*
G01*
X162000001Y-82999999D02*
G75*
G03*
X161500001Y-82499999I-500001J-1D01*
G01*
X157000001Y-119500001D02*
X145499999Y-119500001D01*
X145000001Y-82000001D02*
X145000000Y-81000000D01*
X144500001Y-82500001D02*
X135499999Y-82500001D01*
X157500001Y-80999999D02*
G75*
G03*
X157000001Y-80499999I-500001J-1D01*
G01*
X122500001Y-117999999D02*
X122499999Y-119000001D01*
X157000001Y-80499999D02*
X145499999Y-80499999D01*
X118499999Y-82500003D02*
X122000001Y-82500001D01*
X134999999Y-82000001D02*
G75*
G03*
X135499999Y-82500001I500001J1D01*
G01*
X144500001Y-82500001D02*
G75*
G03*
X145000001Y-82000001I-1J500001D01*
G01*
X122999999Y-80499999D02*
X134500001Y-80499999D01*
X157499999Y-82000001D02*
X157500001Y-80999999D01*
X134999999Y-117999999D02*
X135000000Y-119000000D01*
X122500001Y-82000001D02*
X122499999Y-80999999D01*
X134500001Y-119500001D02*
G75*
G03*
X135000001Y-119000001I-1J500001D01*
G01*
X118499999Y-82499999D02*
G75*
G03*
X117999999Y-82999999I1J-500001D01*
G01*
X157499999Y-82000001D02*
G75*
G03*
X157999999Y-82500001I500001J1D01*
G01*
X157999999Y-82500001D02*
X161500001Y-82499999D01*
X161500001Y-117500002D02*
G75*
G03*
X162000001Y-117000002I-1J500001D01*
G01*
X135499999Y-117499999D02*
G75*
G03*
X134999999Y-117999999I1J-500001D01*
G01*
X157499999Y-117999999D02*
X157500001Y-119000001D01*
X122499999Y-119000001D02*
G75*
G03*
X122999999Y-119500001I500001J1D01*
G01*
X135000001Y-80999999D02*
G75*
G03*
X134500001Y-80499999I-500001J-1D01*
G01*
X122999999Y-80499999D02*
G75*
G03*
X122499999Y-80999999I1J-500001D01*
G01*
X157999999Y-117499999D02*
G75*
G03*
X157499999Y-117999999I1J-500001D01*
G01*
X122000001Y-117499999D02*
X118499999Y-117500001D01*
M02*
