%TF.GenerationSoftware,KiCad,Pcbnew,(6.0.0)*%
%TF.CreationDate,2022-05-26T17:50:24+02:00*%
%TF.ProjectId,slider,736c6964-6572-42e6-9b69-6361645f7063,rev?*%
%TF.SameCoordinates,Original*%
%TF.FileFunction,Legend,Bot*%
%TF.FilePolarity,Positive*%
%FSLAX46Y46*%
G04 Gerber Fmt 4.6, Leading zero omitted, Abs format (unit mm)*
G04 Created by KiCad (PCBNEW (6.0.0)) date 2022-05-26 17:50:24*
%MOMM*%
%LPD*%
G01*
G04 APERTURE LIST*
%ADD10C,0.150000*%
%ADD11C,0.120000*%
G04 APERTURE END LIST*
D10*
X131083333Y-119202380D02*
X131559523Y-119202380D01*
X131559523Y-118202380D01*
X130750000Y-119202380D02*
X130750000Y-118202380D01*
X129750000Y-118250000D02*
X129845238Y-118202380D01*
X129988095Y-118202380D01*
X130130952Y-118250000D01*
X130226190Y-118345238D01*
X130273809Y-118440476D01*
X130321428Y-118630952D01*
X130321428Y-118773809D01*
X130273809Y-118964285D01*
X130226190Y-119059523D01*
X130130952Y-119154761D01*
X129988095Y-119202380D01*
X129892857Y-119202380D01*
X129750000Y-119154761D01*
X129702380Y-119107142D01*
X129702380Y-118773809D01*
X129892857Y-118773809D01*
X129273809Y-119202380D02*
X129273809Y-118202380D01*
X129273809Y-118678571D02*
X128702380Y-118678571D01*
X128702380Y-119202380D02*
X128702380Y-118202380D01*
X128369047Y-118202380D02*
X127797619Y-118202380D01*
X128083333Y-119202380D02*
X128083333Y-118202380D01*
X126702380Y-118821428D02*
X125940476Y-118821428D01*
X153178571Y-80952380D02*
X152940476Y-81952380D01*
X152750000Y-81238095D01*
X152559523Y-81952380D01*
X152321428Y-80952380D01*
X151988095Y-81666666D02*
X151511904Y-81666666D01*
X152083333Y-81952380D02*
X151750000Y-80952380D01*
X151416666Y-81952380D01*
X150511904Y-81952380D02*
X150845238Y-81476190D01*
X151083333Y-81952380D02*
X151083333Y-80952380D01*
X150702380Y-80952380D01*
X150607142Y-81000000D01*
X150559523Y-81047619D01*
X150511904Y-81142857D01*
X150511904Y-81285714D01*
X150559523Y-81380952D01*
X150607142Y-81428571D01*
X150702380Y-81476190D01*
X151083333Y-81476190D01*
X150083333Y-81952380D02*
X150083333Y-80952380D01*
X149750000Y-81666666D01*
X149416666Y-80952380D01*
X149416666Y-81952380D01*
X145452380Y-109857142D02*
X145500000Y-109904761D01*
X145642857Y-109952380D01*
X145738095Y-109952380D01*
X145880952Y-109904761D01*
X145976190Y-109809523D01*
X146023809Y-109714285D01*
X146071428Y-109523809D01*
X146071428Y-109380952D01*
X146023809Y-109190476D01*
X145976190Y-109095238D01*
X145880952Y-109000000D01*
X145738095Y-108952380D01*
X145642857Y-108952380D01*
X145500000Y-109000000D01*
X145452380Y-109047619D01*
X144452380Y-109857142D02*
X144500000Y-109904761D01*
X144642857Y-109952380D01*
X144738095Y-109952380D01*
X144880952Y-109904761D01*
X144976190Y-109809523D01*
X145023809Y-109714285D01*
X145071428Y-109523809D01*
X145071428Y-109380952D01*
X145023809Y-109190476D01*
X144976190Y-109095238D01*
X144880952Y-109000000D01*
X144738095Y-108952380D01*
X144642857Y-108952380D01*
X144500000Y-109000000D01*
X144452380Y-109047619D01*
X144166666Y-108952380D02*
X143595238Y-108952380D01*
X143880952Y-109952380D02*
X143880952Y-108952380D01*
X142023809Y-109952380D02*
X142500000Y-109952380D01*
X142500000Y-108952380D01*
X141690476Y-109428571D02*
X141357142Y-109428571D01*
X141214285Y-109952380D02*
X141690476Y-109952380D01*
X141690476Y-108952380D01*
X141214285Y-108952380D01*
X140785714Y-109952380D02*
X140785714Y-108952380D01*
X140547619Y-108952380D01*
X140404761Y-109000000D01*
X140309523Y-109095238D01*
X140261904Y-109190476D01*
X140214285Y-109380952D01*
X140214285Y-109523809D01*
X140261904Y-109714285D01*
X140309523Y-109809523D01*
X140404761Y-109904761D01*
X140547619Y-109952380D01*
X140785714Y-109952380D01*
X138595238Y-109952380D02*
X138595238Y-108952380D01*
X138595238Y-109904761D02*
X138690476Y-109952380D01*
X138880952Y-109952380D01*
X138976190Y-109904761D01*
X139023809Y-109857142D01*
X139071428Y-109761904D01*
X139071428Y-109476190D01*
X139023809Y-109380952D01*
X138976190Y-109333333D01*
X138880952Y-109285714D01*
X138690476Y-109285714D01*
X138595238Y-109333333D01*
X138119047Y-109952380D02*
X138119047Y-109285714D01*
X138119047Y-108952380D02*
X138166666Y-109000000D01*
X138119047Y-109047619D01*
X138071428Y-109000000D01*
X138119047Y-108952380D01*
X138119047Y-109047619D01*
X137642857Y-109952380D02*
X137642857Y-109285714D01*
X137642857Y-109380952D02*
X137595238Y-109333333D01*
X137500000Y-109285714D01*
X137357142Y-109285714D01*
X137261904Y-109333333D01*
X137214285Y-109428571D01*
X137214285Y-109952380D01*
X137214285Y-109428571D02*
X137166666Y-109333333D01*
X137071428Y-109285714D01*
X136928571Y-109285714D01*
X136833333Y-109333333D01*
X136785714Y-109428571D01*
X136785714Y-109952380D01*
X136309523Y-109952380D02*
X136309523Y-109285714D01*
X136309523Y-109380952D02*
X136261904Y-109333333D01*
X136166666Y-109285714D01*
X136023809Y-109285714D01*
X135928571Y-109333333D01*
X135880952Y-109428571D01*
X135880952Y-109952380D01*
X135880952Y-109428571D02*
X135833333Y-109333333D01*
X135738095Y-109285714D01*
X135595238Y-109285714D01*
X135500000Y-109333333D01*
X135452380Y-109428571D01*
X135452380Y-109952380D01*
X134595238Y-109904761D02*
X134690476Y-109952380D01*
X134880952Y-109952380D01*
X134976190Y-109904761D01*
X135023809Y-109809523D01*
X135023809Y-109428571D01*
X134976190Y-109333333D01*
X134880952Y-109285714D01*
X134690476Y-109285714D01*
X134595238Y-109333333D01*
X134547619Y-109428571D01*
X134547619Y-109523809D01*
X135023809Y-109619047D01*
X134119047Y-109952380D02*
X134119047Y-109285714D01*
X134119047Y-109476190D02*
X134071428Y-109380952D01*
X134023809Y-109333333D01*
X133928571Y-109285714D01*
X133833333Y-109285714D01*
X130833333Y-81952380D02*
X131309523Y-81952380D01*
X131309523Y-80952380D01*
X130500000Y-81952380D02*
X130500000Y-80952380D01*
X129500000Y-81000000D02*
X129595238Y-80952380D01*
X129738095Y-80952380D01*
X129880952Y-81000000D01*
X129976190Y-81095238D01*
X130023809Y-81190476D01*
X130071428Y-81380952D01*
X130071428Y-81523809D01*
X130023809Y-81714285D01*
X129976190Y-81809523D01*
X129880952Y-81904761D01*
X129738095Y-81952380D01*
X129642857Y-81952380D01*
X129500000Y-81904761D01*
X129452380Y-81857142D01*
X129452380Y-81523809D01*
X129642857Y-81523809D01*
X129023809Y-81952380D02*
X129023809Y-80952380D01*
X129023809Y-81428571D02*
X128452380Y-81428571D01*
X128452380Y-81952380D02*
X128452380Y-80952380D01*
X128119047Y-80952380D02*
X127547619Y-80952380D01*
X127833333Y-81952380D02*
X127833333Y-80952380D01*
X126452380Y-81571428D02*
X125690476Y-81571428D01*
X126071428Y-81952380D02*
X126071428Y-81190476D01*
X152369047Y-119107142D02*
X152416666Y-119154761D01*
X152559523Y-119202380D01*
X152654761Y-119202380D01*
X152797619Y-119154761D01*
X152892857Y-119059523D01*
X152940476Y-118964285D01*
X152988095Y-118773809D01*
X152988095Y-118630952D01*
X152940476Y-118440476D01*
X152892857Y-118345238D01*
X152797619Y-118250000D01*
X152654761Y-118202380D01*
X152559523Y-118202380D01*
X152416666Y-118250000D01*
X152369047Y-118297619D01*
X151750000Y-118202380D02*
X151559523Y-118202380D01*
X151464285Y-118250000D01*
X151369047Y-118345238D01*
X151321428Y-118535714D01*
X151321428Y-118869047D01*
X151369047Y-119059523D01*
X151464285Y-119154761D01*
X151559523Y-119202380D01*
X151750000Y-119202380D01*
X151845238Y-119154761D01*
X151940476Y-119059523D01*
X151988095Y-118869047D01*
X151988095Y-118535714D01*
X151940476Y-118345238D01*
X151845238Y-118250000D01*
X151750000Y-118202380D01*
X150416666Y-119202380D02*
X150892857Y-119202380D01*
X150892857Y-118202380D01*
X150083333Y-119202380D02*
X150083333Y-118202380D01*
X149845238Y-118202380D01*
X149702380Y-118250000D01*
X149607142Y-118345238D01*
X149559523Y-118440476D01*
X149511904Y-118630952D01*
X149511904Y-118773809D01*
X149559523Y-118964285D01*
X149607142Y-119059523D01*
X149702380Y-119154761D01*
X149845238Y-119202380D01*
X150083333Y-119202380D01*
X145070863Y-111702380D02*
X145547053Y-111702380D01*
X145422053Y-110702380D01*
X144225625Y-111035714D02*
X144308958Y-111702380D01*
X144654196Y-111035714D02*
X144719672Y-111559523D01*
X144683958Y-111654761D01*
X144594672Y-111702380D01*
X144451815Y-111702380D01*
X144350625Y-111654761D01*
X144297053Y-111607142D01*
X143398244Y-111654761D02*
X143499434Y-111702380D01*
X143689910Y-111702380D01*
X143779196Y-111654761D01*
X143820863Y-111607142D01*
X143856577Y-111511904D01*
X143820863Y-111226190D01*
X143761339Y-111130952D01*
X143707767Y-111083333D01*
X143606577Y-111035714D01*
X143416101Y-111035714D01*
X143326815Y-111083333D01*
X142547053Y-111702380D02*
X142481577Y-111178571D01*
X142517291Y-111083333D01*
X142606577Y-111035714D01*
X142797053Y-111035714D01*
X142898244Y-111083333D01*
X142541101Y-111654761D02*
X142642291Y-111702380D01*
X142880386Y-111702380D01*
X142969672Y-111654761D01*
X143005386Y-111559523D01*
X142993482Y-111464285D01*
X142933958Y-111369047D01*
X142832767Y-111321428D01*
X142594672Y-111321428D01*
X142493482Y-111273809D01*
X141320863Y-111416666D02*
X140844672Y-111416666D01*
X141451815Y-111702380D02*
X140993482Y-110702380D01*
X140785148Y-111702380D01*
X140368482Y-111035714D02*
X140451815Y-111702380D01*
X140380386Y-111130952D02*
X140326815Y-111083333D01*
X140225625Y-111035714D01*
X140082767Y-111035714D01*
X139993482Y-111083333D01*
X139957767Y-111178571D01*
X140023244Y-111702380D01*
X139118482Y-111702380D02*
X139053005Y-111178571D01*
X139088720Y-111083333D01*
X139178005Y-111035714D01*
X139368482Y-111035714D01*
X139469672Y-111083333D01*
X139112529Y-111654761D02*
X139213720Y-111702380D01*
X139451815Y-111702380D01*
X139541101Y-111654761D01*
X139576815Y-111559523D01*
X139564910Y-111464285D01*
X139505386Y-111369047D01*
X139404196Y-111321428D01*
X139166101Y-111321428D01*
X139064910Y-111273809D01*
X138683958Y-111654761D02*
X138594672Y-111702380D01*
X138404196Y-111702380D01*
X138303005Y-111654761D01*
X138243482Y-111559523D01*
X138237529Y-111511904D01*
X138273244Y-111416666D01*
X138362529Y-111369047D01*
X138505386Y-111369047D01*
X138594672Y-111321428D01*
X138630386Y-111226190D01*
X138624434Y-111178571D01*
X138564910Y-111083333D01*
X138463720Y-111035714D01*
X138320863Y-111035714D01*
X138231577Y-111083333D01*
X137892291Y-111035714D02*
X137511339Y-111035714D01*
X137707767Y-110702380D02*
X137814910Y-111559523D01*
X137779196Y-111654761D01*
X137689910Y-111702380D01*
X137594672Y-111702380D01*
X136832767Y-111702380D02*
X136767291Y-111178571D01*
X136803005Y-111083333D01*
X136892291Y-111035714D01*
X137082767Y-111035714D01*
X137183958Y-111083333D01*
X136826815Y-111654761D02*
X136928005Y-111702380D01*
X137166101Y-111702380D01*
X137255386Y-111654761D01*
X137291101Y-111559523D01*
X137279196Y-111464285D01*
X137219672Y-111369047D01*
X137118482Y-111321428D01*
X136880386Y-111321428D01*
X136779196Y-111273809D01*
X136398244Y-111654761D02*
X136308958Y-111702380D01*
X136118482Y-111702380D01*
X136017291Y-111654761D01*
X135957767Y-111559523D01*
X135951815Y-111511904D01*
X135987529Y-111416666D01*
X136076815Y-111369047D01*
X136219672Y-111369047D01*
X136308958Y-111321428D01*
X136344672Y-111226190D01*
X136338720Y-111178571D01*
X136279196Y-111083333D01*
X136178005Y-111035714D01*
X136035148Y-111035714D01*
X135945863Y-111083333D01*
X135547053Y-111702380D02*
X135463720Y-111035714D01*
X135422053Y-110702380D02*
X135475625Y-110750000D01*
X135433958Y-110797619D01*
X135380386Y-110750000D01*
X135422053Y-110702380D01*
X135433958Y-110797619D01*
X134928005Y-111702380D02*
X135017291Y-111654761D01*
X135058958Y-111607142D01*
X135094672Y-111511904D01*
X135058958Y-111226190D01*
X134999434Y-111130952D01*
X134945863Y-111083333D01*
X134844672Y-111035714D01*
X134701815Y-111035714D01*
X134612529Y-111083333D01*
X134570863Y-111130952D01*
X134535148Y-111226190D01*
X134570863Y-111511904D01*
X134630386Y-111607142D01*
X134683958Y-111654761D01*
X134785148Y-111702380D01*
X134928005Y-111702380D01*
%TO.C,RV1*%
X128797619Y-100595238D02*
X129273809Y-100928571D01*
X128797619Y-101166666D02*
X129797619Y-101166666D01*
X129797619Y-100785714D01*
X129750000Y-100690476D01*
X129702380Y-100642857D01*
X129607142Y-100595238D01*
X129464285Y-100595238D01*
X129369047Y-100642857D01*
X129321428Y-100690476D01*
X129273809Y-100785714D01*
X129273809Y-101166666D01*
X129797619Y-100309523D02*
X128797619Y-99976190D01*
X129797619Y-99642857D01*
X128797619Y-98785714D02*
X128797619Y-99357142D01*
X128797619Y-99071428D02*
X129797619Y-99071428D01*
X129654761Y-99166666D01*
X129559523Y-99261904D01*
X129511904Y-99357142D01*
%TO.C,D1*%
X140743095Y-96492380D02*
X140743095Y-95492380D01*
X140505000Y-95492380D01*
X140362142Y-95540000D01*
X140266904Y-95635238D01*
X140219285Y-95730476D01*
X140171666Y-95920952D01*
X140171666Y-96063809D01*
X140219285Y-96254285D01*
X140266904Y-96349523D01*
X140362142Y-96444761D01*
X140505000Y-96492380D01*
X140743095Y-96492380D01*
X139219285Y-96492380D02*
X139790714Y-96492380D01*
X139505000Y-96492380D02*
X139505000Y-95492380D01*
X139600238Y-95635238D01*
X139695476Y-95730476D01*
X139790714Y-95778095D01*
%TO.C,RV2*%
X151297619Y-100595238D02*
X151773809Y-100928571D01*
X151297619Y-101166666D02*
X152297619Y-101166666D01*
X152297619Y-100785714D01*
X152250000Y-100690476D01*
X152202380Y-100642857D01*
X152107142Y-100595238D01*
X151964285Y-100595238D01*
X151869047Y-100642857D01*
X151821428Y-100690476D01*
X151773809Y-100785714D01*
X151773809Y-101166666D01*
X152297619Y-100309523D02*
X151297619Y-99976190D01*
X152297619Y-99642857D01*
X152202380Y-99357142D02*
X152250000Y-99309523D01*
X152297619Y-99214285D01*
X152297619Y-98976190D01*
X152250000Y-98880952D01*
X152202380Y-98833333D01*
X152107142Y-98785714D01*
X152011904Y-98785714D01*
X151869047Y-98833333D01*
X151297619Y-99404761D01*
X151297619Y-98785714D01*
%TO.C,SW1*%
X136083333Y-93404761D02*
X135940476Y-93452380D01*
X135702380Y-93452380D01*
X135607142Y-93404761D01*
X135559523Y-93357142D01*
X135511904Y-93261904D01*
X135511904Y-93166666D01*
X135559523Y-93071428D01*
X135607142Y-93023809D01*
X135702380Y-92976190D01*
X135892857Y-92928571D01*
X135988095Y-92880952D01*
X136035714Y-92833333D01*
X136083333Y-92738095D01*
X136083333Y-92642857D01*
X136035714Y-92547619D01*
X135988095Y-92500000D01*
X135892857Y-92452380D01*
X135654761Y-92452380D01*
X135511904Y-92500000D01*
X135178571Y-92452380D02*
X134940476Y-93452380D01*
X134750000Y-92738095D01*
X134559523Y-93452380D01*
X134321428Y-92452380D01*
X133416666Y-93452380D02*
X133988095Y-93452380D01*
X133702380Y-93452380D02*
X133702380Y-92452380D01*
X133797619Y-92595238D01*
X133892857Y-92690476D01*
X133988095Y-92738095D01*
%TO.C,RV1*%
X133000000Y-117750000D02*
X124500000Y-117750000D01*
X124500000Y-117750000D02*
X124500000Y-82250000D01*
X124500000Y-82250000D02*
X133000000Y-82250000D01*
X133000000Y-82250000D02*
X133000000Y-117750000D01*
D11*
%TO.C,D1*%
X142565000Y-98455000D02*
X142565000Y-101545000D01*
X137015000Y-99999538D02*
G75*
G03*
X142565000Y-101544830I2990000J-462D01*
G01*
X142565000Y-98455170D02*
G75*
G03*
X137015000Y-100000462I-2560000J-1544830D01*
G01*
X142505000Y-100000000D02*
G75*
G03*
X142505000Y-100000000I-2500000J0D01*
G01*
D10*
%TO.C,RV2*%
X155500000Y-117750000D02*
X147000000Y-117750000D01*
X147000000Y-117750000D02*
X147000000Y-82250000D01*
X147000000Y-82250000D02*
X155500000Y-82250000D01*
X155500000Y-82250000D02*
X155500000Y-117750000D01*
D11*
%TO.C,SW1*%
X143430000Y-106150000D02*
X146150000Y-106150000D01*
X133850000Y-106150000D02*
X136570000Y-106150000D01*
X138430000Y-106150000D02*
X141570000Y-106150000D01*
X133850000Y-93850000D02*
X133850000Y-106150000D01*
X146150000Y-93850000D02*
X143430000Y-93850000D01*
X136570000Y-93850000D02*
X133850000Y-93850000D01*
X146150000Y-106150000D02*
X146150000Y-93850000D01*
X141570000Y-93850000D02*
X138430000Y-93850000D01*
X144579050Y-100000000D02*
G75*
G03*
X144579050Y-100000000I-4579050J0D01*
G01*
%TD*%
M02*
