M48
; DRILL file {KiCad (6.0.0)} date Thu May 26 17:50:26 2022
; FORMAT={-:-/ absolute / metric / decimal}
; #@! TF.CreationDate,2022-05-26T17:50:26+02:00
; #@! TF.GenerationSoftware,Kicad,Pcbnew,(6.0.0)
; #@! TF.FileFunction,MixedPlating,1,2
FMAT,2
METRIC
; #@! TA.AperFunction,Plated,PTH,ViaDrill
T1C0.300
; #@! TA.AperFunction,Plated,PTH,ViaDrill
T2C0.400
; #@! TA.AperFunction,Plated,PTH,ComponentDrill
T3C0.800
; #@! TA.AperFunction,Plated,PTH,ComponentDrill
T4C0.900
; #@! TA.AperFunction,Plated,PTH,ComponentDrill
T5C1.000
; #@! TA.AperFunction,Plated,PTH,ComponentDrill
T6C1.200
; #@! TA.AperFunction,Plated,PTH,ComponentDrill
T7C1.300
; #@! TA.AperFunction,Plated,PTH,ComponentDrill
T8C1.500
; #@! TA.AperFunction,NonPlated,NPTH,ComponentDrill
T9C1.800
; #@! TA.AperFunction,NonPlated,NPTH,ComponentDrill
T10C2.100
%
G90
G05
T1
X119.175Y-83.25
X119.175Y-84.5
X119.175Y-85.75
X119.175Y-87.0
X119.175Y-88.25
X119.175Y-89.5
X119.175Y-90.75
X119.175Y-92.0
X119.175Y-93.25
X119.175Y-94.5
X119.175Y-95.75
X119.175Y-97.0
X119.175Y-98.25
X119.175Y-99.5
X119.175Y-105.75
X119.175Y-107.0
X119.175Y-108.25
X119.175Y-109.5
X119.175Y-110.75
X119.175Y-112.0
X119.175Y-113.25
X119.175Y-114.5
X119.175Y-115.75
X120.425Y-83.25
X120.425Y-84.5
X120.425Y-88.25
X120.425Y-93.25
X120.425Y-109.5
X120.425Y-110.75
X120.425Y-112.0
X120.425Y-115.75
X121.675Y-83.25
X121.675Y-84.5
X121.675Y-88.25
X121.675Y-109.5
X121.675Y-110.75
X121.675Y-112.0
X121.675Y-115.75
X122.0Y-106.0
X122.925Y-83.25
X122.925Y-84.5
X122.925Y-88.25
X122.925Y-89.5
X122.925Y-90.75
X122.925Y-92.0
X122.925Y-109.5
X122.925Y-110.75
X122.925Y-112.0
X122.925Y-115.75
X122.925Y-117.0
X124.175Y-82.0
X124.175Y-83.25
X124.175Y-84.5
X124.175Y-85.75
X124.175Y-87.0
X124.175Y-88.25
X124.175Y-89.5
X124.175Y-90.75
X124.175Y-92.0
X124.175Y-95.75
X124.175Y-100.75
X124.175Y-109.5
X124.175Y-110.75
X124.175Y-112.0
X124.175Y-113.25
X124.175Y-114.5
X124.175Y-115.75
X124.175Y-117.0
X124.175Y-118.25
X125.425Y-82.0
X125.425Y-83.25
X125.425Y-84.5
X125.425Y-85.75
X125.425Y-89.5
X125.425Y-90.75
X125.425Y-92.0
X125.425Y-95.75
X125.425Y-115.75
X125.425Y-117.0
X125.425Y-118.25
X126.0Y-110.75
X126.675Y-82.0
X126.675Y-83.25
X126.675Y-84.5
X126.675Y-89.5
X126.675Y-90.75
X126.675Y-95.75
X126.675Y-104.5
X126.675Y-105.75
X126.675Y-107.0
X126.675Y-109.5
X126.675Y-118.25
X127.925Y-82.0
X127.925Y-83.25
X127.925Y-84.5
X127.925Y-85.75
X127.925Y-89.5
X127.925Y-95.75
X127.925Y-102.0
X127.925Y-115.75
X127.925Y-117.0
X127.925Y-118.25
X128.095Y-107.25
X128.25Y-90.75
X128.25Y-92.0
X128.75Y-113.75
X129.175Y-82.0
X129.175Y-83.25
X129.175Y-84.5
X129.175Y-88.25
X129.175Y-89.5
X129.175Y-102.0
X129.175Y-115.75
X129.175Y-117.0
X129.175Y-118.25
X129.225Y-85.775
X129.225Y-87.025
X129.365Y-96.75
X130.0Y-95.5
X130.425Y-82.0
X130.425Y-83.25
X130.425Y-84.5
X130.425Y-88.25
X130.425Y-89.5
X130.425Y-102.0
X130.425Y-115.75
X130.425Y-117.0
X130.425Y-118.25
X130.475Y-85.775
X130.475Y-87.025
X130.635Y-96.75
X131.675Y-82.0
X131.675Y-83.25
X131.675Y-84.5
X131.675Y-88.25
X131.675Y-89.5
X131.675Y-90.75
X131.675Y-92.0
X131.675Y-115.75
X131.675Y-117.0
X131.675Y-118.25
X131.725Y-85.775
X131.725Y-87.025
X131.75Y-102.5
X131.75Y-107.887
X131.905Y-96.75
X132.0Y-114.0
X132.925Y-98.25
X132.925Y-99.5
X132.925Y-100.75
X132.925Y-105.75
X132.925Y-107.0
X132.925Y-108.25
X132.925Y-115.75
X132.925Y-117.0
X132.925Y-118.25
X133.5Y-114.0
X133.725Y-85.775
X134.175Y-98.25
X134.175Y-102.0
X134.175Y-107.0
X134.175Y-108.25
X134.175Y-115.75
X134.175Y-117.0
X134.175Y-118.25
X135.425Y-83.25
X135.425Y-84.5
X135.425Y-97.0
X135.425Y-98.25
X135.425Y-102.0
X135.425Y-115.75
X135.75Y-105.25
X136.25Y-108.75
X136.25Y-113.75
X136.475Y-86.775
X136.5Y-90.5
X136.675Y-83.25
X136.675Y-97.0
X136.675Y-98.25
X136.675Y-115.75
X137.5Y-108.75
X137.75Y-113.75
X137.925Y-83.25
X137.925Y-103.25
X137.925Y-115.75
X138.0Y-85.0
X138.5Y-89.25
X139.175Y-83.25
X139.175Y-95.75
X139.175Y-102.0
X139.175Y-103.25
X139.175Y-104.5
X139.175Y-105.75
X139.175Y-107.0
X139.175Y-108.25
X139.175Y-115.75
X139.25Y-85.0
X139.25Y-113.75
X139.75Y-89.75
X139.75Y-98.5
X140.425Y-83.25
X140.425Y-102.0
X140.425Y-103.25
X140.425Y-104.5
X140.425Y-105.75
X140.425Y-107.0
X140.425Y-108.25
X140.425Y-115.75
X140.5Y-85.0
X140.75Y-113.75
X141.0Y-92.0
X141.57Y-91.0
X141.675Y-98.25
X141.675Y-102.0
X141.675Y-112.0
X141.675Y-115.75
X142.84Y-83.16
X142.925Y-112.0
X142.925Y-115.75
X144.175Y-93.25
X144.175Y-94.5
X144.175Y-104.5
X144.175Y-105.75
X144.175Y-107.0
X144.175Y-108.25
X144.175Y-109.5
X144.175Y-110.75
X144.175Y-112.0
X144.175Y-113.25
X144.175Y-115.75
X144.725Y-87.525
X145.425Y-94.5
X145.425Y-104.5
X145.425Y-112.0
X145.425Y-113.25
X145.425Y-115.75
X145.425Y-117.0
X145.725Y-86.775
X146.675Y-84.5
X146.675Y-90.75
X146.675Y-92.0
X146.675Y-97.0
X146.675Y-98.25
X146.675Y-112.0
X146.675Y-113.25
X146.675Y-115.75
X146.675Y-117.0
X146.675Y-118.25
X146.725Y-89.5
X147.5Y-94.75
X147.75Y-82.5
X147.925Y-84.5
X147.925Y-89.5
X147.925Y-90.75
X147.925Y-92.0
X147.925Y-97.0
X147.925Y-98.25
X147.925Y-115.75
X147.925Y-117.0
X147.925Y-118.25
X148.475Y-85.525
X148.75Y-94.75
X149.0Y-82.5
X149.175Y-84.5
X149.175Y-89.5
X149.175Y-90.75
X149.175Y-92.0
X149.175Y-97.0
X149.175Y-98.25
X149.175Y-99.5
X149.175Y-118.25
X150.425Y-89.5
X150.425Y-115.75
X150.425Y-117.0
X150.425Y-118.25
X150.75Y-81.25
X150.75Y-83.75
X150.75Y-85.0
X150.75Y-91.0
X150.75Y-92.25
X150.75Y-93.5
X150.75Y-96.0
X150.75Y-97.25
X150.75Y-98.5
X151.675Y-89.5
X151.675Y-110.75
X151.675Y-115.75
X151.675Y-117.0
X151.675Y-118.25
X152.0Y-81.25
X152.0Y-83.75
X152.0Y-85.0
X152.0Y-86.25
X152.0Y-87.5
X152.0Y-91.0
X152.0Y-92.25
X152.0Y-93.5
X152.0Y-96.0
X152.0Y-97.25
X152.0Y-98.5
X152.925Y-89.5
X152.925Y-114.5
X152.925Y-115.75
X152.925Y-117.0
X152.925Y-118.25
X153.0Y-110.25
X153.25Y-81.25
X153.25Y-82.5
X153.25Y-83.75
X153.25Y-85.0
X153.25Y-86.25
X153.25Y-87.5
X153.25Y-91.0
X153.25Y-92.25
X153.25Y-93.5
X153.25Y-94.75
X153.25Y-96.0
X153.25Y-97.25
X153.25Y-98.5
X154.175Y-89.5
X154.175Y-104.5
X154.175Y-105.75
X154.175Y-107.0
X154.175Y-108.25
X154.175Y-109.5
X154.175Y-110.75
X154.175Y-114.5
X154.175Y-115.75
X154.175Y-117.0
X154.175Y-118.25
X154.5Y-81.25
X154.5Y-82.5
X154.5Y-83.75
X154.5Y-85.0
X154.5Y-86.25
X154.5Y-87.5
X154.5Y-91.0
X154.5Y-92.25
X154.5Y-93.5
X154.5Y-94.75
X154.5Y-96.0
X154.5Y-97.25
X154.5Y-98.5
X155.425Y-89.5
X155.425Y-104.5
X155.425Y-105.75
X155.425Y-107.0
X155.425Y-108.25
X155.425Y-109.5
X155.425Y-110.75
X155.425Y-112.0
X155.425Y-113.25
X155.425Y-114.5
X155.425Y-115.75
X155.425Y-117.0
X155.425Y-118.25
X155.75Y-81.25
X155.75Y-82.5
X155.75Y-83.75
X155.75Y-85.0
X155.75Y-86.25
X155.75Y-87.5
X156.675Y-89.5
X156.675Y-90.75
X156.675Y-92.0
X156.675Y-108.25
X156.675Y-109.5
X156.675Y-110.75
X156.675Y-112.0
X156.675Y-115.75
X156.675Y-117.0
X156.675Y-118.25
X157.925Y-84.5
X157.925Y-88.25
X157.925Y-89.5
X157.925Y-90.75
X157.925Y-92.0
X157.925Y-108.25
X157.925Y-109.5
X157.925Y-110.75
X157.925Y-112.0
X157.925Y-115.75
X159.175Y-88.25
X159.175Y-89.5
X159.175Y-90.75
X159.175Y-92.0
X159.175Y-108.25
X159.175Y-109.5
X159.175Y-110.75
X159.175Y-112.0
X159.175Y-115.75
X160.425Y-108.25
X160.425Y-109.5
X160.425Y-110.75
X160.425Y-112.0
X160.425Y-113.25
X160.425Y-114.5
X160.425Y-115.75
T2
X147.725Y-106.275
X147.725Y-108.775
T3
X134.92Y-103.81
X145.08Y-96.19
T4
X138.735Y-100.0
X141.275Y-100.0
T5
X120.725Y-102.25
X120.725Y-104.79
X120.725Y-107.33
X123.265Y-102.25
X123.265Y-104.79
X123.265Y-107.33
T6
X158.142Y-94.267
X158.142Y-98.078
X158.142Y-101.887
X158.142Y-105.697
T7
X137.5Y-93.75
X137.5Y-106.25
X142.5Y-93.75
X142.5Y-106.25
T8
X126.875Y-87.5
X126.875Y-112.5
X130.625Y-112.5
X149.375Y-87.5
X149.375Y-112.5
X153.125Y-112.5
T9
X135.5Y-100.0
T10
X122.0Y-86.25
X122.0Y-113.75
X158.0Y-86.25
X158.0Y-113.75
T0
M30
