  0
SECTION
  2
HEADER
  9
$ANGBASE
  50
0.0
  9
$ANGDIR
  70
1
  9
$MEASUREMENT
  70
0
  0
ENDSEC
  0
SECTION
  2
TABLES
  0
TABLE
  2
LTYPE
  70
4
  0
LTYPE
  5
40F
  2
CONTINUOUS
  70
0
  3
Solid line
  72
65
  73
0
  40
0.0
  0
LTYPE
  5
410
  2
DASHDOT
 70
0
  3
Dash Dot ____ _ ____ _
 72
65
 73
4
 40
2.0
 49
1.25
 49
-0.25
 49
0.25
 49
-0.25
  0
LTYPE
  5
411
  2
DASHED
 70
0
  3
Dashed __ __ __ __ __
 72
65
 73
2
 40
0.75
 49
0.5
 49
-0.25
  0
LTYPE
  5
43B
  2
DOTTED
 70
0
  3
Dotted .  .  .  .
 72
65
 73
2
 40
0.2
 49
0.0
 49
-0.2
  0
ENDTAB
  0
TABLE
  2
STYLE
  70
4
  0
STYLE
  2
KICAD
  70
0
  40
0
  41
1
  42
1
  50
0
  71
0
  3
isocp.shx
  0
STYLE
  2
KICADB
  70
0
  40
0
  41
1
  42
1
  50
0
  71
0
  3
isocp.shx
  0
STYLE
  2
KICADI
  70
0
  40
0
  41
1
  42
1
  50
15
  71
0
  3
isocp.shx
  0
STYLE
  2
KICADBI
  70
0
  40
0
  41
1
  42
1
  50
15
  71
0
  3
isocp.shx
  0
ENDTAB
  0
TABLE
  2
LAYER
  70
1
  0
LAYER
  2
BLACK
  70
0
  62
7
  6
CONTINUOUS
  0
ENDTAB
  0
ENDSEC
  0
SECTION
  2
ENTITIES
0
LINE
8
BLACK
6
CONTINUOUS
10
4.57058
20
-3.98483
11
4.57387
21
-3.98651
0
LINE
8
BLACK
6
CONTINUOUS
10
4.57387
20
-3.98651
11
4.57648
21
-3.98912
0
LINE
8
BLACK
6
CONTINUOUS
10
4.57648
20
-3.98912
11
4.57816
21
-3.99241
0
LINE
8
BLACK
6
CONTINUOUS
10
4.57816
20
-3.99241
11
4.57874
21
-3.99606
0
LINE
8
BLACK
6
CONTINUOUS
10
4.57874
20
-3.99606
11
4.57874
21
-4.0748
0
LINE
8
BLACK
6
CONTINUOUS
10
4.57874
20
-4.0748
11
4.57816
21
-4.07845
0
LINE
8
BLACK
6
CONTINUOUS
10
4.57816
20
-4.07845
11
4.57648
21
-4.08175
0
LINE
8
BLACK
6
CONTINUOUS
10
4.57648
20
-4.08175
11
4.57387
21
-4.08436
0
LINE
8
BLACK
6
CONTINUOUS
10
4.57387
20
-4.08436
11
4.57058
21
-4.08604
0
LINE
8
BLACK
6
CONTINUOUS
10
4.57058
20
-4.08604
11
4.56693
21
-4.08661
0
LINE
8
BLACK
6
CONTINUOUS
10
4.56693
20
-4.08661
11
4.56328
21
-4.08604
0
LINE
8
BLACK
6
CONTINUOUS
10
4.56328
20
-4.08604
11
4.55999
21
-4.08436
0
LINE
8
BLACK
6
CONTINUOUS
10
4.55999
20
-4.08436
11
4.55737
21
-4.08175
0
LINE
8
BLACK
6
CONTINUOUS
10
4.55737
20
-4.08175
11
4.5557
21
-4.07845
0
LINE
8
BLACK
6
CONTINUOUS
10
4.5557
20
-4.07845
11
4.55512
21
-4.0748
0
LINE
8
BLACK
6
CONTINUOUS
10
4.55512
20
-4.0748
11
4.55512
21
-3.99606
0
LINE
8
BLACK
6
CONTINUOUS
10
4.55512
20
-3.99606
11
4.5557
21
-3.99241
0
LINE
8
BLACK
6
CONTINUOUS
10
4.5557
20
-3.99241
11
4.55737
21
-3.98912
0
LINE
8
BLACK
6
CONTINUOUS
10
4.55737
20
-3.98912
11
4.55999
21
-3.98651
0
LINE
8
BLACK
6
CONTINUOUS
10
4.55999
20
-3.98651
11
4.56328
21
-3.98483
0
LINE
8
BLACK
6
CONTINUOUS
10
4.56328
20
-3.98483
11
4.56693
21
-3.98425
0
LINE
8
BLACK
6
CONTINUOUS
10
4.56693
20
-3.98425
11
4.57058
21
-3.98483
0
LINE
8
BLACK
6
CONTINUOUS
10
4.56247
20
-3.98939
11
4.56025
21
-3.9916
0
LINE
8
BLACK
6
CONTINUOUS
10
4.56025
20
-3.9916
11
4.55906
21
-3.9945
0
LINE
8
BLACK
6
CONTINUOUS
10
4.55906
20
-3.9945
11
4.55906
21
-3.99606
0
LINE
8
BLACK
6
CONTINUOUS
10
4.55906
20
-3.99606
11
4.55906
21
-4.0748
0
LINE
8
BLACK
6
CONTINUOUS
10
4.55906
20
-4.0748
11
4.55906
21
-4.07637
0
LINE
8
BLACK
6
CONTINUOUS
10
4.55906
20
-4.07637
11
4.56025
21
-4.07926
0
LINE
8
BLACK
6
CONTINUOUS
10
4.56025
20
-4.07926
11
4.56247
21
-4.08148
0
LINE
8
BLACK
6
CONTINUOUS
10
4.56247
20
-4.08148
11
4.56536
21
-4.08268
0
LINE
8
BLACK
6
CONTINUOUS
10
4.56536
20
-4.08268
11
4.5685
21
-4.08268
0
LINE
8
BLACK
6
CONTINUOUS
10
4.5685
20
-4.08268
11
4.57139
21
-4.08148
0
LINE
8
BLACK
6
CONTINUOUS
10
4.57139
20
-4.08148
11
4.5736
21
-4.07926
0
LINE
8
BLACK
6
CONTINUOUS
10
4.5736
20
-4.07926
11
4.5748
21
-4.07637
0
LINE
8
BLACK
6
CONTINUOUS
10
4.5748
20
-4.07637
11
4.5748
21
-4.0748
0
LINE
8
BLACK
6
CONTINUOUS
10
4.5748
20
-4.0748
11
4.5748
21
-3.99606
0
LINE
8
BLACK
6
CONTINUOUS
10
4.5748
20
-3.99606
11
4.5748
21
-3.9945
0
LINE
8
BLACK
6
CONTINUOUS
10
4.5748
20
-3.9945
11
4.5736
21
-3.9916
0
LINE
8
BLACK
6
CONTINUOUS
10
4.5736
20
-3.9916
11
4.57139
21
-3.98939
0
LINE
8
BLACK
6
CONTINUOUS
10
4.57139
20
-3.98939
11
4.5685
21
-3.98819
0
LINE
8
BLACK
6
CONTINUOUS
10
4.5685
20
-3.98819
11
4.56536
21
-3.98819
0
LINE
8
BLACK
6
CONTINUOUS
10
4.56536
20
-3.98819
11
4.56247
21
-3.98939
0
LINE
8
BLACK
6
CONTINUOUS
10
4.57058
20
-3.82735
11
4.57387
21
-3.82903
0
LINE
8
BLACK
6
CONTINUOUS
10
4.57387
20
-3.82903
11
4.57648
21
-3.83164
0
LINE
8
BLACK
6
CONTINUOUS
10
4.57648
20
-3.83164
11
4.57816
21
-3.83493
0
LINE
8
BLACK
6
CONTINUOUS
10
4.57816
20
-3.83493
11
4.57874
21
-3.83858
0
LINE
8
BLACK
6
CONTINUOUS
10
4.57874
20
-3.83858
11
4.57874
21
-3.91732
0
LINE
8
BLACK
6
CONTINUOUS
10
4.57874
20
-3.91732
11
4.57816
21
-3.92097
0
LINE
8
BLACK
6
CONTINUOUS
10
4.57816
20
-3.92097
11
4.57648
21
-3.92427
0
LINE
8
BLACK
6
CONTINUOUS
10
4.57648
20
-3.92427
11
4.57387
21
-3.92688
0
LINE
8
BLACK
6
CONTINUOUS
10
4.57387
20
-3.92688
11
4.57058
21
-3.92856
0
LINE
8
BLACK
6
CONTINUOUS
10
4.57058
20
-3.92856
11
4.56693
21
-3.92913
0
LINE
8
BLACK
6
CONTINUOUS
10
4.56693
20
-3.92913
11
4.56328
21
-3.92856
0
LINE
8
BLACK
6
CONTINUOUS
10
4.56328
20
-3.92856
11
4.55999
21
-3.92688
0
LINE
8
BLACK
6
CONTINUOUS
10
4.55999
20
-3.92688
11
4.55737
21
-3.92427
0
LINE
8
BLACK
6
CONTINUOUS
10
4.55737
20
-3.92427
11
4.5557
21
-3.92097
0
LINE
8
BLACK
6
CONTINUOUS
10
4.5557
20
-3.92097
11
4.55512
21
-3.91732
0
LINE
8
BLACK
6
CONTINUOUS
10
4.55512
20
-3.91732
11
4.55512
21
-3.83858
0
LINE
8
BLACK
6
CONTINUOUS
10
4.55512
20
-3.83858
11
4.5557
21
-3.83493
0
LINE
8
BLACK
6
CONTINUOUS
10
4.5557
20
-3.83493
11
4.55737
21
-3.83164
0
LINE
8
BLACK
6
CONTINUOUS
10
4.55737
20
-3.83164
11
4.55999
21
-3.82903
0
LINE
8
BLACK
6
CONTINUOUS
10
4.55999
20
-3.82903
11
4.56328
21
-3.82735
0
LINE
8
BLACK
6
CONTINUOUS
10
4.56328
20
-3.82735
11
4.56693
21
-3.82677
0
LINE
8
BLACK
6
CONTINUOUS
10
4.56693
20
-3.82677
11
4.57058
21
-3.82735
0
LINE
8
BLACK
6
CONTINUOUS
10
4.56247
20
-3.83191
11
4.56025
21
-3.83412
0
LINE
8
BLACK
6
CONTINUOUS
10
4.56025
20
-3.83412
11
4.55906
21
-3.83702
0
LINE
8
BLACK
6
CONTINUOUS
10
4.55906
20
-3.83702
11
4.55906
21
-3.83858
0
LINE
8
BLACK
6
CONTINUOUS
10
4.55906
20
-3.83858
11
4.55906
21
-3.91732
0
LINE
8
BLACK
6
CONTINUOUS
10
4.55906
20
-3.91732
11
4.55906
21
-3.91889
0
LINE
8
BLACK
6
CONTINUOUS
10
4.55906
20
-3.91889
11
4.56025
21
-3.92178
0
LINE
8
BLACK
6
CONTINUOUS
10
4.56025
20
-3.92178
11
4.56247
21
-3.924
0
LINE
8
BLACK
6
CONTINUOUS
10
4.56247
20
-3.924
11
4.56536
21
-3.9252
0
LINE
8
BLACK
6
CONTINUOUS
10
4.56536
20
-3.9252
11
4.5685
21
-3.9252
0
LINE
8
BLACK
6
CONTINUOUS
10
4.5685
20
-3.9252
11
4.57139
21
-3.924
0
LINE
8
BLACK
6
CONTINUOUS
10
4.57139
20
-3.924
11
4.5736
21
-3.92178
0
LINE
8
BLACK
6
CONTINUOUS
10
4.5736
20
-3.92178
11
4.5748
21
-3.91889
0
LINE
8
BLACK
6
CONTINUOUS
10
4.5748
20
-3.91889
11
4.5748
21
-3.91732
0
LINE
8
BLACK
6
CONTINUOUS
10
4.5748
20
-3.91732
11
4.5748
21
-3.83858
0
LINE
8
BLACK
6
CONTINUOUS
10
4.5748
20
-3.83858
11
4.5748
21
-3.83702
0
LINE
8
BLACK
6
CONTINUOUS
10
4.5748
20
-3.83702
11
4.5736
21
-3.83412
0
LINE
8
BLACK
6
CONTINUOUS
10
4.5736
20
-3.83412
11
4.57139
21
-3.83191
0
LINE
8
BLACK
6
CONTINUOUS
10
4.57139
20
-3.83191
11
4.5685
21
-3.83071
0
LINE
8
BLACK
6
CONTINUOUS
10
4.5685
20
-3.83071
11
4.56536
21
-3.83071
0
LINE
8
BLACK
6
CONTINUOUS
10
4.56536
20
-3.83071
11
4.56247
21
-3.83191
0
LINE
8
BLACK
6
CONTINUOUS
10
4.57058
20
-3.66987
11
4.57387
21
-3.67155
0
LINE
8
BLACK
6
CONTINUOUS
10
4.57387
20
-3.67155
11
4.57648
21
-3.67416
0
LINE
8
BLACK
6
CONTINUOUS
10
4.57648
20
-3.67416
11
4.57816
21
-3.67745
0
LINE
8
BLACK
6
CONTINUOUS
10
4.57816
20
-3.67745
11
4.57874
21
-3.6811
0
LINE
8
BLACK
6
CONTINUOUS
10
4.57874
20
-3.6811
11
4.57874
21
-3.75984
0
LINE
8
BLACK
6
CONTINUOUS
10
4.57874
20
-3.75984
11
4.57816
21
-3.76349
0
LINE
8
BLACK
6
CONTINUOUS
10
4.57816
20
-3.76349
11
4.57648
21
-3.76678
0
LINE
8
BLACK
6
CONTINUOUS
10
4.57648
20
-3.76678
11
4.57387
21
-3.7694
0
LINE
8
BLACK
6
CONTINUOUS
10
4.57387
20
-3.7694
11
4.57058
21
-3.77108
0
LINE
8
BLACK
6
CONTINUOUS
10
4.57058
20
-3.77108
11
4.56693
21
-3.77165
0
LINE
8
BLACK
6
CONTINUOUS
10
4.56693
20
-3.77165
11
4.56328
21
-3.77108
0
LINE
8
BLACK
6
CONTINUOUS
10
4.56328
20
-3.77108
11
4.55999
21
-3.7694
0
LINE
8
BLACK
6
CONTINUOUS
10
4.55999
20
-3.7694
11
4.55737
21
-3.76678
0
LINE
8
BLACK
6
CONTINUOUS
10
4.55737
20
-3.76678
11
4.5557
21
-3.76349
0
LINE
8
BLACK
6
CONTINUOUS
10
4.5557
20
-3.76349
11
4.55512
21
-3.75984
0
LINE
8
BLACK
6
CONTINUOUS
10
4.55512
20
-3.75984
11
4.55512
21
-3.6811
0
LINE
8
BLACK
6
CONTINUOUS
10
4.55512
20
-3.6811
11
4.5557
21
-3.67745
0
LINE
8
BLACK
6
CONTINUOUS
10
4.5557
20
-3.67745
11
4.55737
21
-3.67416
0
LINE
8
BLACK
6
CONTINUOUS
10
4.55737
20
-3.67416
11
4.55999
21
-3.67155
0
LINE
8
BLACK
6
CONTINUOUS
10
4.55999
20
-3.67155
11
4.56328
21
-3.66987
0
LINE
8
BLACK
6
CONTINUOUS
10
4.56328
20
-3.66987
11
4.56693
21
-3.66929
0
LINE
8
BLACK
6
CONTINUOUS
10
4.56693
20
-3.66929
11
4.57058
21
-3.66987
0
LINE
8
BLACK
6
CONTINUOUS
10
4.56247
20
-3.67443
11
4.56025
21
-3.67664
0
LINE
8
BLACK
6
CONTINUOUS
10
4.56025
20
-3.67664
11
4.55906
21
-3.67954
0
LINE
8
BLACK
6
CONTINUOUS
10
4.55906
20
-3.67954
11
4.55906
21
-3.6811
0
LINE
8
BLACK
6
CONTINUOUS
10
4.55906
20
-3.6811
11
4.55906
21
-3.75984
0
LINE
8
BLACK
6
CONTINUOUS
10
4.55906
20
-3.75984
11
4.55906
21
-3.76141
0
LINE
8
BLACK
6
CONTINUOUS
10
4.55906
20
-3.76141
11
4.56025
21
-3.7643
0
LINE
8
BLACK
6
CONTINUOUS
10
4.56025
20
-3.7643
11
4.56247
21
-3.76652
0
LINE
8
BLACK
6
CONTINUOUS
10
4.56247
20
-3.76652
11
4.56536
21
-3.76772
0
LINE
8
BLACK
6
CONTINUOUS
10
4.56536
20
-3.76772
11
4.5685
21
-3.76772
0
LINE
8
BLACK
6
CONTINUOUS
10
4.5685
20
-3.76772
11
4.57139
21
-3.76652
0
LINE
8
BLACK
6
CONTINUOUS
10
4.57139
20
-3.76652
11
4.5736
21
-3.7643
0
LINE
8
BLACK
6
CONTINUOUS
10
4.5736
20
-3.7643
11
4.5748
21
-3.76141
0
LINE
8
BLACK
6
CONTINUOUS
10
4.5748
20
-3.76141
11
4.5748
21
-3.75984
0
LINE
8
BLACK
6
CONTINUOUS
10
4.5748
20
-3.75984
11
4.5748
21
-3.6811
0
LINE
8
BLACK
6
CONTINUOUS
10
4.5748
20
-3.6811
11
4.5748
21
-3.67954
0
LINE
8
BLACK
6
CONTINUOUS
10
4.5748
20
-3.67954
11
4.5736
21
-3.67664
0
LINE
8
BLACK
6
CONTINUOUS
10
4.5736
20
-3.67664
11
4.57139
21
-3.67443
0
LINE
8
BLACK
6
CONTINUOUS
10
4.57139
20
-3.67443
11
4.5685
21
-3.67323
0
LINE
8
BLACK
6
CONTINUOUS
10
4.5685
20
-3.67323
11
4.56536
21
-3.67323
0
LINE
8
BLACK
6
CONTINUOUS
10
4.56536
20
-3.67323
11
4.56247
21
-3.67443
0
LINE
8
BLACK
6
CONTINUOUS
10
4.57058
20
-3.51239
11
4.57387
21
-3.51407
0
LINE
8
BLACK
6
CONTINUOUS
10
4.57387
20
-3.51407
11
4.57648
21
-3.51668
0
LINE
8
BLACK
6
CONTINUOUS
10
4.57648
20
-3.51668
11
4.57816
21
-3.51997
0
LINE
8
BLACK
6
CONTINUOUS
10
4.57816
20
-3.51997
11
4.57874
21
-3.52362
0
LINE
8
BLACK
6
CONTINUOUS
10
4.57874
20
-3.52362
11
4.57874
21
-3.60236
0
LINE
8
BLACK
6
CONTINUOUS
10
4.57874
20
-3.60236
11
4.57816
21
-3.60601
0
LINE
8
BLACK
6
CONTINUOUS
10
4.57816
20
-3.60601
11
4.57648
21
-3.6093
0
LINE
8
BLACK
6
CONTINUOUS
10
4.57648
20
-3.6093
11
4.57387
21
-3.61192
0
LINE
8
BLACK
6
CONTINUOUS
10
4.57387
20
-3.61192
11
4.57058
21
-3.6136
0
LINE
8
BLACK
6
CONTINUOUS
10
4.57058
20
-3.6136
11
4.56693
21
-3.61417
0
LINE
8
BLACK
6
CONTINUOUS
10
4.56693
20
-3.61417
11
4.56328
21
-3.6136
0
LINE
8
BLACK
6
CONTINUOUS
10
4.56328
20
-3.6136
11
4.55999
21
-3.61192
0
LINE
8
BLACK
6
CONTINUOUS
10
4.55999
20
-3.61192
11
4.55737
21
-3.6093
0
LINE
8
BLACK
6
CONTINUOUS
10
4.55737
20
-3.6093
11
4.5557
21
-3.60601
0
LINE
8
BLACK
6
CONTINUOUS
10
4.5557
20
-3.60601
11
4.55512
21
-3.60236
0
LINE
8
BLACK
6
CONTINUOUS
10
4.55512
20
-3.60236
11
4.55512
21
-3.52362
0
LINE
8
BLACK
6
CONTINUOUS
10
4.55512
20
-3.52362
11
4.5557
21
-3.51997
0
LINE
8
BLACK
6
CONTINUOUS
10
4.5557
20
-3.51997
11
4.55737
21
-3.51668
0
LINE
8
BLACK
6
CONTINUOUS
10
4.55737
20
-3.51668
11
4.55999
21
-3.51407
0
LINE
8
BLACK
6
CONTINUOUS
10
4.55999
20
-3.51407
11
4.56328
21
-3.51239
0
LINE
8
BLACK
6
CONTINUOUS
10
4.56328
20
-3.51239
11
4.56693
21
-3.51181
0
LINE
8
BLACK
6
CONTINUOUS
10
4.56693
20
-3.51181
11
4.57058
21
-3.51239
0
LINE
8
BLACK
6
CONTINUOUS
10
4.56247
20
-3.51695
11
4.56025
21
-3.51916
0
LINE
8
BLACK
6
CONTINUOUS
10
4.56025
20
-3.51916
11
4.55906
21
-3.52206
0
LINE
8
BLACK
6
CONTINUOUS
10
4.55906
20
-3.52206
11
4.55906
21
-3.52362
0
LINE
8
BLACK
6
CONTINUOUS
10
4.55906
20
-3.52362
11
4.55906
21
-3.60236
0
LINE
8
BLACK
6
CONTINUOUS
10
4.55906
20
-3.60236
11
4.55906
21
-3.60393
0
LINE
8
BLACK
6
CONTINUOUS
10
4.55906
20
-3.60393
11
4.56025
21
-3.60682
0
LINE
8
BLACK
6
CONTINUOUS
10
4.56025
20
-3.60682
11
4.56247
21
-3.60904
0
LINE
8
BLACK
6
CONTINUOUS
10
4.56247
20
-3.60904
11
4.56536
21
-3.61024
0
LINE
8
BLACK
6
CONTINUOUS
10
4.56536
20
-3.61024
11
4.5685
21
-3.61024
0
LINE
8
BLACK
6
CONTINUOUS
10
4.5685
20
-3.61024
11
4.57139
21
-3.60904
0
LINE
8
BLACK
6
CONTINUOUS
10
4.57139
20
-3.60904
11
4.5736
21
-3.60682
0
LINE
8
BLACK
6
CONTINUOUS
10
4.5736
20
-3.60682
11
4.5748
21
-3.60393
0
LINE
8
BLACK
6
CONTINUOUS
10
4.5748
20
-3.60393
11
4.5748
21
-3.60236
0
LINE
8
BLACK
6
CONTINUOUS
10
4.5748
20
-3.60236
11
4.5748
21
-3.52362
0
LINE
8
BLACK
6
CONTINUOUS
10
4.5748
20
-3.52362
11
4.5748
21
-3.52206
0
LINE
8
BLACK
6
CONTINUOUS
10
4.5748
20
-3.52206
11
4.5736
21
-3.51916
0
LINE
8
BLACK
6
CONTINUOUS
10
4.5736
20
-3.51916
11
4.57139
21
-3.51695
0
LINE
8
BLACK
6
CONTINUOUS
10
4.57139
20
-3.51695
11
4.5685
21
-3.51575
0
LINE
8
BLACK
6
CONTINUOUS
10
4.5685
20
-3.51575
11
4.56536
21
-3.51575
0
LINE
8
BLACK
6
CONTINUOUS
10
4.56536
20
-3.51575
11
4.56247
21
-3.51695
0
LINE
8
BLACK
6
CONTINUOUS
10
4.57058
20
-3.35491
11
4.57387
21
-3.35659
0
LINE
8
BLACK
6
CONTINUOUS
10
4.57387
20
-3.35659
11
4.57648
21
-3.3592
0
LINE
8
BLACK
6
CONTINUOUS
10
4.57648
20
-3.3592
11
4.57816
21
-3.36249
0
LINE
8
BLACK
6
CONTINUOUS
10
4.57816
20
-3.36249
11
4.57874
21
-3.36614
0
LINE
8
BLACK
6
CONTINUOUS
10
4.57874
20
-3.36614
11
4.57874
21
-3.44488
0
LINE
8
BLACK
6
CONTINUOUS
10
4.57874
20
-3.44488
11
4.57816
21
-3.44853
0
LINE
8
BLACK
6
CONTINUOUS
10
4.57816
20
-3.44853
11
4.57648
21
-3.45182
0
LINE
8
BLACK
6
CONTINUOUS
10
4.57648
20
-3.45182
11
4.57387
21
-3.45444
0
LINE
8
BLACK
6
CONTINUOUS
10
4.57387
20
-3.45444
11
4.57058
21
-3.45611
0
LINE
8
BLACK
6
CONTINUOUS
10
4.57058
20
-3.45611
11
4.56693
21
-3.45669
0
LINE
8
BLACK
6
CONTINUOUS
10
4.56693
20
-3.45669
11
4.56328
21
-3.45611
0
LINE
8
BLACK
6
CONTINUOUS
10
4.56328
20
-3.45611
11
4.55999
21
-3.45444
0
LINE
8
BLACK
6
CONTINUOUS
10
4.55999
20
-3.45444
11
4.55737
21
-3.45182
0
LINE
8
BLACK
6
CONTINUOUS
10
4.55737
20
-3.45182
11
4.5557
21
-3.44853
0
LINE
8
BLACK
6
CONTINUOUS
10
4.5557
20
-3.44853
11
4.55512
21
-3.44488
0
LINE
8
BLACK
6
CONTINUOUS
10
4.55512
20
-3.44488
11
4.55512
21
-3.36614
0
LINE
8
BLACK
6
CONTINUOUS
10
4.55512
20
-3.36614
11
4.5557
21
-3.36249
0
LINE
8
BLACK
6
CONTINUOUS
10
4.5557
20
-3.36249
11
4.55737
21
-3.3592
0
LINE
8
BLACK
6
CONTINUOUS
10
4.55737
20
-3.3592
11
4.55999
21
-3.35659
0
LINE
8
BLACK
6
CONTINUOUS
10
4.55999
20
-3.35659
11
4.56328
21
-3.35491
0
LINE
8
BLACK
6
CONTINUOUS
10
4.56328
20
-3.35491
11
4.56693
21
-3.35433
0
LINE
8
BLACK
6
CONTINUOUS
10
4.56693
20
-3.35433
11
4.57058
21
-3.35491
0
LINE
8
BLACK
6
CONTINUOUS
10
4.56247
20
-3.35947
11
4.56025
21
-3.36168
0
LINE
8
BLACK
6
CONTINUOUS
10
4.56025
20
-3.36168
11
4.55906
21
-3.36458
0
LINE
8
BLACK
6
CONTINUOUS
10
4.55906
20
-3.36458
11
4.55906
21
-3.36614
0
LINE
8
BLACK
6
CONTINUOUS
10
4.55906
20
-3.36614
11
4.55906
21
-3.44488
0
LINE
8
BLACK
6
CONTINUOUS
10
4.55906
20
-3.44488
11
4.55906
21
-3.44645
0
LINE
8
BLACK
6
CONTINUOUS
10
4.55906
20
-3.44645
11
4.56025
21
-3.44934
0
LINE
8
BLACK
6
CONTINUOUS
10
4.56025
20
-3.44934
11
4.56247
21
-3.45156
0
LINE
8
BLACK
6
CONTINUOUS
10
4.56247
20
-3.45156
11
4.56536
21
-3.45276
0
LINE
8
BLACK
6
CONTINUOUS
10
4.56536
20
-3.45276
11
4.5685
21
-3.45276
0
LINE
8
BLACK
6
CONTINUOUS
10
4.5685
20
-3.45276
11
4.57139
21
-3.45156
0
LINE
8
BLACK
6
CONTINUOUS
10
4.57139
20
-3.45156
11
4.5736
21
-3.44934
0
LINE
8
BLACK
6
CONTINUOUS
10
4.5736
20
-3.44934
11
4.5748
21
-3.44645
0
LINE
8
BLACK
6
CONTINUOUS
10
4.5748
20
-3.44645
11
4.5748
21
-3.44488
0
LINE
8
BLACK
6
CONTINUOUS
10
4.5748
20
-3.44488
11
4.5748
21
-3.36614
0
LINE
8
BLACK
6
CONTINUOUS
10
4.5748
20
-3.36614
11
4.5748
21
-3.36458
0
LINE
8
BLACK
6
CONTINUOUS
10
4.5748
20
-3.36458
11
4.5736
21
-3.36168
0
LINE
8
BLACK
6
CONTINUOUS
10
4.5736
20
-3.36168
11
4.57139
21
-3.35947
0
LINE
8
BLACK
6
CONTINUOUS
10
4.57139
20
-3.35947
11
4.5685
21
-3.35827
0
LINE
8
BLACK
6
CONTINUOUS
10
4.5685
20
-3.35827
11
4.56536
21
-3.35827
0
LINE
8
BLACK
6
CONTINUOUS
10
4.56536
20
-3.35827
11
4.56247
21
-3.35947
0
LINE
8
BLACK
6
CONTINUOUS
10
4.57058
20
-3.19743
11
4.57387
21
-3.19911
0
LINE
8
BLACK
6
CONTINUOUS
10
4.57387
20
-3.19911
11
4.57648
21
-3.20172
0
LINE
8
BLACK
6
CONTINUOUS
10
4.57648
20
-3.20172
11
4.57816
21
-3.20501
0
LINE
8
BLACK
6
CONTINUOUS
10
4.57816
20
-3.20501
11
4.57874
21
-3.20866
0
LINE
8
BLACK
6
CONTINUOUS
10
4.57874
20
-3.20866
11
4.57874
21
-3.2874
0
LINE
8
BLACK
6
CONTINUOUS
10
4.57874
20
-3.2874
11
4.57816
21
-3.29105
0
LINE
8
BLACK
6
CONTINUOUS
10
4.57816
20
-3.29105
11
4.57648
21
-3.29434
0
LINE
8
BLACK
6
CONTINUOUS
10
4.57648
20
-3.29434
11
4.57387
21
-3.29696
0
LINE
8
BLACK
6
CONTINUOUS
10
4.57387
20
-3.29696
11
4.57058
21
-3.29863
0
LINE
8
BLACK
6
CONTINUOUS
10
4.57058
20
-3.29863
11
4.56693
21
-3.29921
0
LINE
8
BLACK
6
CONTINUOUS
10
4.56693
20
-3.29921
11
4.56328
21
-3.29863
0
LINE
8
BLACK
6
CONTINUOUS
10
4.56328
20
-3.29863
11
4.55999
21
-3.29696
0
LINE
8
BLACK
6
CONTINUOUS
10
4.55999
20
-3.29696
11
4.55737
21
-3.29434
0
LINE
8
BLACK
6
CONTINUOUS
10
4.55737
20
-3.29434
11
4.5557
21
-3.29105
0
LINE
8
BLACK
6
CONTINUOUS
10
4.5557
20
-3.29105
11
4.55512
21
-3.2874
0
LINE
8
BLACK
6
CONTINUOUS
10
4.55512
20
-3.2874
11
4.55512
21
-3.20866
0
LINE
8
BLACK
6
CONTINUOUS
10
4.55512
20
-3.20866
11
4.5557
21
-3.20501
0
LINE
8
BLACK
6
CONTINUOUS
10
4.5557
20
-3.20501
11
4.55737
21
-3.20172
0
LINE
8
BLACK
6
CONTINUOUS
10
4.55737
20
-3.20172
11
4.55999
21
-3.19911
0
LINE
8
BLACK
6
CONTINUOUS
10
4.55999
20
-3.19911
11
4.56328
21
-3.19743
0
LINE
8
BLACK
6
CONTINUOUS
10
4.56328
20
-3.19743
11
4.56693
21
-3.19685
0
LINE
8
BLACK
6
CONTINUOUS
10
4.56693
20
-3.19685
11
4.57058
21
-3.19743
0
LINE
8
BLACK
6
CONTINUOUS
10
4.56247
20
-3.20199
11
4.56025
21
-3.2042
0
LINE
8
BLACK
6
CONTINUOUS
10
4.56025
20
-3.2042
11
4.55906
21
-3.2071
0
LINE
8
BLACK
6
CONTINUOUS
10
4.55906
20
-3.2071
11
4.55906
21
-3.20866
0
LINE
8
BLACK
6
CONTINUOUS
10
4.55906
20
-3.20866
11
4.55906
21
-3.2874
0
LINE
8
BLACK
6
CONTINUOUS
10
4.55906
20
-3.2874
11
4.55906
21
-3.28897
0
LINE
8
BLACK
6
CONTINUOUS
10
4.55906
20
-3.28897
11
4.56025
21
-3.29186
0
LINE
8
BLACK
6
CONTINUOUS
10
4.56025
20
-3.29186
11
4.56247
21
-3.29408
0
LINE
8
BLACK
6
CONTINUOUS
10
4.56247
20
-3.29408
11
4.56536
21
-3.29528
0
LINE
8
BLACK
6
CONTINUOUS
10
4.56536
20
-3.29528
11
4.5685
21
-3.29528
0
LINE
8
BLACK
6
CONTINUOUS
10
4.5685
20
-3.29528
11
4.57139
21
-3.29408
0
LINE
8
BLACK
6
CONTINUOUS
10
4.57139
20
-3.29408
11
4.5736
21
-3.29186
0
LINE
8
BLACK
6
CONTINUOUS
10
4.5736
20
-3.29186
11
4.5748
21
-3.28897
0
LINE
8
BLACK
6
CONTINUOUS
10
4.5748
20
-3.28897
11
4.5748
21
-3.2874
0
LINE
8
BLACK
6
CONTINUOUS
10
4.5748
20
-3.2874
11
4.5748
21
-3.20866
0
LINE
8
BLACK
6
CONTINUOUS
10
4.5748
20
-3.20866
11
4.5748
21
-3.2071
0
LINE
8
BLACK
6
CONTINUOUS
10
4.5748
20
-3.2071
11
4.5736
21
-3.2042
0
LINE
8
BLACK
6
CONTINUOUS
10
4.5736
20
-3.2042
11
4.57139
21
-3.20199
0
LINE
8
BLACK
6
CONTINUOUS
10
4.57139
20
-3.20199
11
4.5685
21
-3.20079
0
LINE
8
BLACK
6
CONTINUOUS
10
4.5685
20
-3.20079
11
4.56536
21
-3.20079
0
LINE
8
BLACK
6
CONTINUOUS
10
4.56536
20
-3.20079
11
4.56247
21
-3.20199
0
LINE
8
BLACK
6
CONTINUOUS
10
4.57058
20
-3.03995
11
4.57387
21
-3.04163
0
LINE
8
BLACK
6
CONTINUOUS
10
4.57387
20
-3.04163
11
4.57648
21
-3.04424
0
LINE
8
BLACK
6
CONTINUOUS
10
4.57648
20
-3.04424
11
4.57816
21
-3.04753
0
LINE
8
BLACK
6
CONTINUOUS
10
4.57816
20
-3.04753
11
4.57874
21
-3.05118
0
LINE
8
BLACK
6
CONTINUOUS
10
4.57874
20
-3.05118
11
4.57874
21
-3.12992
0
LINE
8
BLACK
6
CONTINUOUS
10
4.57874
20
-3.12992
11
4.57816
21
-3.13357
0
LINE
8
BLACK
6
CONTINUOUS
10
4.57816
20
-3.13357
11
4.57648
21
-3.13686
0
LINE
8
BLACK
6
CONTINUOUS
10
4.57648
20
-3.13686
11
4.57387
21
-3.13948
0
LINE
8
BLACK
6
CONTINUOUS
10
4.57387
20
-3.13948
11
4.57058
21
-3.14115
0
LINE
8
BLACK
6
CONTINUOUS
10
4.57058
20
-3.14115
11
4.56693
21
-3.14173
0
LINE
8
BLACK
6
CONTINUOUS
10
4.56693
20
-3.14173
11
4.56328
21
-3.14115
0
LINE
8
BLACK
6
CONTINUOUS
10
4.56328
20
-3.14115
11
4.55999
21
-3.13948
0
LINE
8
BLACK
6
CONTINUOUS
10
4.55999
20
-3.13948
11
4.55737
21
-3.13686
0
LINE
8
BLACK
6
CONTINUOUS
10
4.55737
20
-3.13686
11
4.5557
21
-3.13357
0
LINE
8
BLACK
6
CONTINUOUS
10
4.5557
20
-3.13357
11
4.55512
21
-3.12992
0
LINE
8
BLACK
6
CONTINUOUS
10
4.55512
20
-3.12992
11
4.55512
21
-3.05118
0
LINE
8
BLACK
6
CONTINUOUS
10
4.55512
20
-3.05118
11
4.5557
21
-3.04753
0
LINE
8
BLACK
6
CONTINUOUS
10
4.5557
20
-3.04753
11
4.55737
21
-3.04424
0
LINE
8
BLACK
6
CONTINUOUS
10
4.55737
20
-3.04424
11
4.55999
21
-3.04163
0
LINE
8
BLACK
6
CONTINUOUS
10
4.55999
20
-3.04163
11
4.56328
21
-3.03995
0
LINE
8
BLACK
6
CONTINUOUS
10
4.56328
20
-3.03995
11
4.56693
21
-3.03937
0
LINE
8
BLACK
6
CONTINUOUS
10
4.56693
20
-3.03937
11
4.57058
21
-3.03995
0
LINE
8
BLACK
6
CONTINUOUS
10
4.56247
20
-3.04451
11
4.56025
21
-3.04672
0
LINE
8
BLACK
6
CONTINUOUS
10
4.56025
20
-3.04672
11
4.55906
21
-3.04961
0
LINE
8
BLACK
6
CONTINUOUS
10
4.55906
20
-3.04961
11
4.55906
21
-3.05118
0
LINE
8
BLACK
6
CONTINUOUS
10
4.55906
20
-3.05118
11
4.55906
21
-3.12992
0
LINE
8
BLACK
6
CONTINUOUS
10
4.55906
20
-3.12992
11
4.55906
21
-3.13149
0
LINE
8
BLACK
6
CONTINUOUS
10
4.55906
20
-3.13149
11
4.56025
21
-3.13438
0
LINE
8
BLACK
6
CONTINUOUS
10
4.56025
20
-3.13438
11
4.56247
21
-3.1366
0
LINE
8
BLACK
6
CONTINUOUS
10
4.56247
20
-3.1366
11
4.56536
21
-3.1378
0
LINE
8
BLACK
6
CONTINUOUS
10
4.56536
20
-3.1378
11
4.5685
21
-3.1378
0
LINE
8
BLACK
6
CONTINUOUS
10
4.5685
20
-3.1378
11
4.57139
21
-3.1366
0
LINE
8
BLACK
6
CONTINUOUS
10
4.57139
20
-3.1366
11
4.5736
21
-3.13438
0
LINE
8
BLACK
6
CONTINUOUS
10
4.5736
20
-3.13438
11
4.5748
21
-3.13149
0
LINE
8
BLACK
6
CONTINUOUS
10
4.5748
20
-3.13149
11
4.5748
21
-3.12992
0
LINE
8
BLACK
6
CONTINUOUS
10
4.5748
20
-3.12992
11
4.5748
21
-3.05118
0
LINE
8
BLACK
6
CONTINUOUS
10
4.5748
20
-3.05118
11
4.5748
21
-3.04961
0
LINE
8
BLACK
6
CONTINUOUS
10
4.5748
20
-3.04961
11
4.5736
21
-3.04672
0
LINE
8
BLACK
6
CONTINUOUS
10
4.5736
20
-3.04672
11
4.57139
21
-3.04451
0
LINE
8
BLACK
6
CONTINUOUS
10
4.57139
20
-3.04451
11
4.5685
21
-3.04331
0
LINE
8
BLACK
6
CONTINUOUS
10
4.5685
20
-3.04331
11
4.56536
21
-3.04331
0
LINE
8
BLACK
6
CONTINUOUS
10
4.56536
20
-3.04331
11
4.56247
21
-3.04451
0
LINE
8
BLACK
6
CONTINUOUS
10
4.57058
20
-2.88247
11
4.57387
21
-2.88415
0
LINE
8
BLACK
6
CONTINUOUS
10
4.57387
20
-2.88415
11
4.57648
21
-2.88676
0
LINE
8
BLACK
6
CONTINUOUS
10
4.57648
20
-2.88676
11
4.57816
21
-2.89005
0
LINE
8
BLACK
6
CONTINUOUS
10
4.57816
20
-2.89005
11
4.57874
21
-2.8937
0
LINE
8
BLACK
6
CONTINUOUS
10
4.57874
20
-2.8937
11
4.57874
21
-2.97244
0
LINE
8
BLACK
6
CONTINUOUS
10
4.57874
20
-2.97244
11
4.57816
21
-2.97609
0
LINE
8
BLACK
6
CONTINUOUS
10
4.57816
20
-2.97609
11
4.57648
21
-2.97938
0
LINE
8
BLACK
6
CONTINUOUS
10
4.57648
20
-2.97938
11
4.57387
21
-2.982
0
LINE
8
BLACK
6
CONTINUOUS
10
4.57387
20
-2.982
11
4.57058
21
-2.98367
0
LINE
8
BLACK
6
CONTINUOUS
10
4.57058
20
-2.98367
11
4.56693
21
-2.98425
0
LINE
8
BLACK
6
CONTINUOUS
10
4.56693
20
-2.98425
11
4.56328
21
-2.98367
0
LINE
8
BLACK
6
CONTINUOUS
10
4.56328
20
-2.98367
11
4.55999
21
-2.982
0
LINE
8
BLACK
6
CONTINUOUS
10
4.55999
20
-2.982
11
4.55737
21
-2.97938
0
LINE
8
BLACK
6
CONTINUOUS
10
4.55737
20
-2.97938
11
4.5557
21
-2.97609
0
LINE
8
BLACK
6
CONTINUOUS
10
4.5557
20
-2.97609
11
4.55512
21
-2.97244
0
LINE
8
BLACK
6
CONTINUOUS
10
4.55512
20
-2.97244
11
4.55512
21
-2.8937
0
LINE
8
BLACK
6
CONTINUOUS
10
4.55512
20
-2.8937
11
4.5557
21
-2.89005
0
LINE
8
BLACK
6
CONTINUOUS
10
4.5557
20
-2.89005
11
4.55737
21
-2.88676
0
LINE
8
BLACK
6
CONTINUOUS
10
4.55737
20
-2.88676
11
4.55999
21
-2.88415
0
LINE
8
BLACK
6
CONTINUOUS
10
4.55999
20
-2.88415
11
4.56328
21
-2.88247
0
LINE
8
BLACK
6
CONTINUOUS
10
4.56328
20
-2.88247
11
4.56693
21
-2.88189
0
LINE
8
BLACK
6
CONTINUOUS
10
4.56693
20
-2.88189
11
4.57058
21
-2.88247
0
LINE
8
BLACK
6
CONTINUOUS
10
4.56247
20
-2.88703
11
4.56025
21
-2.88924
0
LINE
8
BLACK
6
CONTINUOUS
10
4.56025
20
-2.88924
11
4.55906
21
-2.89213
0
LINE
8
BLACK
6
CONTINUOUS
10
4.55906
20
-2.89213
11
4.55906
21
-2.8937
0
LINE
8
BLACK
6
CONTINUOUS
10
4.55906
20
-2.8937
11
4.55906
21
-2.97244
0
LINE
8
BLACK
6
CONTINUOUS
10
4.55906
20
-2.97244
11
4.55906
21
-2.97401
0
LINE
8
BLACK
6
CONTINUOUS
10
4.55906
20
-2.97401
11
4.56025
21
-2.9769
0
LINE
8
BLACK
6
CONTINUOUS
10
4.56025
20
-2.9769
11
4.56247
21
-2.97912
0
LINE
8
BLACK
6
CONTINUOUS
10
4.56247
20
-2.97912
11
4.56536
21
-2.98031
0
LINE
8
BLACK
6
CONTINUOUS
10
4.56536
20
-2.98031
11
4.5685
21
-2.98031
0
LINE
8
BLACK
6
CONTINUOUS
10
4.5685
20
-2.98031
11
4.57139
21
-2.97912
0
LINE
8
BLACK
6
CONTINUOUS
10
4.57139
20
-2.97912
11
4.5736
21
-2.9769
0
LINE
8
BLACK
6
CONTINUOUS
10
4.5736
20
-2.9769
11
4.5748
21
-2.97401
0
LINE
8
BLACK
6
CONTINUOUS
10
4.5748
20
-2.97401
11
4.5748
21
-2.97244
0
LINE
8
BLACK
6
CONTINUOUS
10
4.5748
20
-2.97244
11
4.5748
21
-2.8937
0
LINE
8
BLACK
6
CONTINUOUS
10
4.5748
20
-2.8937
11
4.5748
21
-2.89213
0
LINE
8
BLACK
6
CONTINUOUS
10
4.5748
20
-2.89213
11
4.5736
21
-2.88924
0
LINE
8
BLACK
6
CONTINUOUS
10
4.5736
20
-2.88924
11
4.57139
21
-2.88703
0
LINE
8
BLACK
6
CONTINUOUS
10
4.57139
20
-2.88703
11
4.5685
21
-2.88583
0
LINE
8
BLACK
6
CONTINUOUS
10
4.5685
20
-2.88583
11
4.56536
21
-2.88583
0
LINE
8
BLACK
6
CONTINUOUS
10
4.56536
20
-2.88583
11
4.56247
21
-2.88703
0
LINE
8
BLACK
6
CONTINUOUS
10
4.57058
20
-2.72499
11
4.57387
21
-2.72667
0
LINE
8
BLACK
6
CONTINUOUS
10
4.57387
20
-2.72667
11
4.57648
21
-2.72928
0
LINE
8
BLACK
6
CONTINUOUS
10
4.57648
20
-2.72928
11
4.57816
21
-2.73257
0
LINE
8
BLACK
6
CONTINUOUS
10
4.57816
20
-2.73257
11
4.57874
21
-2.73622
0
LINE
8
BLACK
6
CONTINUOUS
10
4.57874
20
-2.73622
11
4.57874
21
-2.81496
0
LINE
8
BLACK
6
CONTINUOUS
10
4.57874
20
-2.81496
11
4.57816
21
-2.81861
0
LINE
8
BLACK
6
CONTINUOUS
10
4.57816
20
-2.81861
11
4.57648
21
-2.8219
0
LINE
8
BLACK
6
CONTINUOUS
10
4.57648
20
-2.8219
11
4.57387
21
-2.82452
0
LINE
8
BLACK
6
CONTINUOUS
10
4.57387
20
-2.82452
11
4.57058
21
-2.82619
0
LINE
8
BLACK
6
CONTINUOUS
10
4.57058
20
-2.82619
11
4.56693
21
-2.82677
0
LINE
8
BLACK
6
CONTINUOUS
10
4.56693
20
-2.82677
11
4.56328
21
-2.82619
0
LINE
8
BLACK
6
CONTINUOUS
10
4.56328
20
-2.82619
11
4.55999
21
-2.82452
0
LINE
8
BLACK
6
CONTINUOUS
10
4.55999
20
-2.82452
11
4.55737
21
-2.8219
0
LINE
8
BLACK
6
CONTINUOUS
10
4.55737
20
-2.8219
11
4.5557
21
-2.81861
0
LINE
8
BLACK
6
CONTINUOUS
10
4.5557
20
-2.81861
11
4.55512
21
-2.81496
0
LINE
8
BLACK
6
CONTINUOUS
10
4.55512
20
-2.81496
11
4.55512
21
-2.73622
0
LINE
8
BLACK
6
CONTINUOUS
10
4.55512
20
-2.73622
11
4.5557
21
-2.73257
0
LINE
8
BLACK
6
CONTINUOUS
10
4.5557
20
-2.73257
11
4.55737
21
-2.72928
0
LINE
8
BLACK
6
CONTINUOUS
10
4.55737
20
-2.72928
11
4.55999
21
-2.72667
0
LINE
8
BLACK
6
CONTINUOUS
10
4.55999
20
-2.72667
11
4.56328
21
-2.72499
0
LINE
8
BLACK
6
CONTINUOUS
10
4.56328
20
-2.72499
11
4.56693
21
-2.72441
0
LINE
8
BLACK
6
CONTINUOUS
10
4.56693
20
-2.72441
11
4.57058
21
-2.72499
0
LINE
8
BLACK
6
CONTINUOUS
10
4.56247
20
-2.72955
11
4.56025
21
-2.73176
0
LINE
8
BLACK
6
CONTINUOUS
10
4.56025
20
-2.73176
11
4.55906
21
-2.73465
0
LINE
8
BLACK
6
CONTINUOUS
10
4.55906
20
-2.73465
11
4.55906
21
-2.73622
0
LINE
8
BLACK
6
CONTINUOUS
10
4.55906
20
-2.73622
11
4.55906
21
-2.81496
0
LINE
8
BLACK
6
CONTINUOUS
10
4.55906
20
-2.81496
11
4.55906
21
-2.81653
0
LINE
8
BLACK
6
CONTINUOUS
10
4.55906
20
-2.81653
11
4.56025
21
-2.81942
0
LINE
8
BLACK
6
CONTINUOUS
10
4.56025
20
-2.81942
11
4.56247
21
-2.82164
0
LINE
8
BLACK
6
CONTINUOUS
10
4.56247
20
-2.82164
11
4.56536
21
-2.82283
0
LINE
8
BLACK
6
CONTINUOUS
10
4.56536
20
-2.82283
11
4.5685
21
-2.82283
0
LINE
8
BLACK
6
CONTINUOUS
10
4.5685
20
-2.82283
11
4.57139
21
-2.82164
0
LINE
8
BLACK
6
CONTINUOUS
10
4.57139
20
-2.82164
11
4.5736
21
-2.81942
0
LINE
8
BLACK
6
CONTINUOUS
10
4.5736
20
-2.81942
11
4.5748
21
-2.81653
0
LINE
8
BLACK
6
CONTINUOUS
10
4.5748
20
-2.81653
11
4.5748
21
-2.81496
0
LINE
8
BLACK
6
CONTINUOUS
10
4.5748
20
-2.81496
11
4.5748
21
-2.73622
0
LINE
8
BLACK
6
CONTINUOUS
10
4.5748
20
-2.73622
11
4.5748
21
-2.73465
0
LINE
8
BLACK
6
CONTINUOUS
10
4.5748
20
-2.73465
11
4.5736
21
-2.73176
0
LINE
8
BLACK
6
CONTINUOUS
10
4.5736
20
-2.73176
11
4.57139
21
-2.72955
0
LINE
8
BLACK
6
CONTINUOUS
10
4.57139
20
-2.72955
11
4.5685
21
-2.72835
0
LINE
8
BLACK
6
CONTINUOUS
10
4.5685
20
-2.72835
11
4.56536
21
-2.72835
0
LINE
8
BLACK
6
CONTINUOUS
10
4.56536
20
-2.72835
11
4.56247
21
-2.72955
0
LINE
8
BLACK
6
CONTINUOUS
10
4.57058
20
-2.56751
11
4.57387
21
-2.56918
0
LINE
8
BLACK
6
CONTINUOUS
10
4.57387
20
-2.56918
11
4.57648
21
-2.5718
0
LINE
8
BLACK
6
CONTINUOUS
10
4.57648
20
-2.5718
11
4.57816
21
-2.57509
0
LINE
8
BLACK
6
CONTINUOUS
10
4.57816
20
-2.57509
11
4.57874
21
-2.57874
0
LINE
8
BLACK
6
CONTINUOUS
10
4.57874
20
-2.57874
11
4.57874
21
-2.65748
0
LINE
8
BLACK
6
CONTINUOUS
10
4.57874
20
-2.65748
11
4.57816
21
-2.66113
0
LINE
8
BLACK
6
CONTINUOUS
10
4.57816
20
-2.66113
11
4.57648
21
-2.66442
0
LINE
8
BLACK
6
CONTINUOUS
10
4.57648
20
-2.66442
11
4.57387
21
-2.66704
0
LINE
8
BLACK
6
CONTINUOUS
10
4.57387
20
-2.66704
11
4.57058
21
-2.66871
0
LINE
8
BLACK
6
CONTINUOUS
10
4.57058
20
-2.66871
11
4.56693
21
-2.66929
0
LINE
8
BLACK
6
CONTINUOUS
10
4.56693
20
-2.66929
11
4.56328
21
-2.66871
0
LINE
8
BLACK
6
CONTINUOUS
10
4.56328
20
-2.66871
11
4.55999
21
-2.66704
0
LINE
8
BLACK
6
CONTINUOUS
10
4.55999
20
-2.66704
11
4.55737
21
-2.66442
0
LINE
8
BLACK
6
CONTINUOUS
10
4.55737
20
-2.66442
11
4.5557
21
-2.66113
0
LINE
8
BLACK
6
CONTINUOUS
10
4.5557
20
-2.66113
11
4.55512
21
-2.65748
0
LINE
8
BLACK
6
CONTINUOUS
10
4.55512
20
-2.65748
11
4.55512
21
-2.57874
0
LINE
8
BLACK
6
CONTINUOUS
10
4.55512
20
-2.57874
11
4.5557
21
-2.57509
0
LINE
8
BLACK
6
CONTINUOUS
10
4.5557
20
-2.57509
11
4.55737
21
-2.5718
0
LINE
8
BLACK
6
CONTINUOUS
10
4.55737
20
-2.5718
11
4.55999
21
-2.56918
0
LINE
8
BLACK
6
CONTINUOUS
10
4.55999
20
-2.56918
11
4.56328
21
-2.56751
0
LINE
8
BLACK
6
CONTINUOUS
10
4.56328
20
-2.56751
11
4.56693
21
-2.56693
0
LINE
8
BLACK
6
CONTINUOUS
10
4.56693
20
-2.56693
11
4.57058
21
-2.56751
0
LINE
8
BLACK
6
CONTINUOUS
10
4.56247
20
-2.57206
11
4.56025
21
-2.57428
0
LINE
8
BLACK
6
CONTINUOUS
10
4.56025
20
-2.57428
11
4.55906
21
-2.57717
0
LINE
8
BLACK
6
CONTINUOUS
10
4.55906
20
-2.57717
11
4.55906
21
-2.57874
0
LINE
8
BLACK
6
CONTINUOUS
10
4.55906
20
-2.57874
11
4.55906
21
-2.65748
0
LINE
8
BLACK
6
CONTINUOUS
10
4.55906
20
-2.65748
11
4.55906
21
-2.65905
0
LINE
8
BLACK
6
CONTINUOUS
10
4.55906
20
-2.65905
11
4.56025
21
-2.66194
0
LINE
8
BLACK
6
CONTINUOUS
10
4.56025
20
-2.66194
11
4.56247
21
-2.66416
0
LINE
8
BLACK
6
CONTINUOUS
10
4.56247
20
-2.66416
11
4.56536
21
-2.66535
0
LINE
8
BLACK
6
CONTINUOUS
10
4.56536
20
-2.66535
11
4.5685
21
-2.66535
0
LINE
8
BLACK
6
CONTINUOUS
10
4.5685
20
-2.66535
11
4.57139
21
-2.66416
0
LINE
8
BLACK
6
CONTINUOUS
10
4.57139
20
-2.66416
11
4.5736
21
-2.66194
0
LINE
8
BLACK
6
CONTINUOUS
10
4.5736
20
-2.66194
11
4.5748
21
-2.65905
0
LINE
8
BLACK
6
CONTINUOUS
10
4.5748
20
-2.65905
11
4.5748
21
-2.65748
0
LINE
8
BLACK
6
CONTINUOUS
10
4.5748
20
-2.65748
11
4.5748
21
-2.57874
0
LINE
8
BLACK
6
CONTINUOUS
10
4.5748
20
-2.57874
11
4.5748
21
-2.57717
0
LINE
8
BLACK
6
CONTINUOUS
10
4.5748
20
-2.57717
11
4.5736
21
-2.57428
0
LINE
8
BLACK
6
CONTINUOUS
10
4.5736
20
-2.57428
11
4.57139
21
-2.57206
0
LINE
8
BLACK
6
CONTINUOUS
10
4.57139
20
-2.57206
11
4.5685
21
-2.57087
0
LINE
8
BLACK
6
CONTINUOUS
10
4.5685
20
-2.57087
11
4.56536
21
-2.57087
0
LINE
8
BLACK
6
CONTINUOUS
10
4.56536
20
-2.57087
11
4.56247
21
-2.57206
0
LINE
8
BLACK
6
CONTINUOUS
10
4.57058
20
-2.41003
11
4.57387
21
-2.4117
0
LINE
8
BLACK
6
CONTINUOUS
10
4.57387
20
-2.4117
11
4.57648
21
-2.41432
0
LINE
8
BLACK
6
CONTINUOUS
10
4.57648
20
-2.41432
11
4.57816
21
-2.41761
0
LINE
8
BLACK
6
CONTINUOUS
10
4.57816
20
-2.41761
11
4.57874
21
-2.42126
0
LINE
8
BLACK
6
CONTINUOUS
10
4.57874
20
-2.42126
11
4.57874
21
-2.5
0
LINE
8
BLACK
6
CONTINUOUS
10
4.57874
20
-2.5
11
4.57816
21
-2.50365
0
LINE
8
BLACK
6
CONTINUOUS
10
4.57816
20
-2.50365
11
4.57648
21
-2.50694
0
LINE
8
BLACK
6
CONTINUOUS
10
4.57648
20
-2.50694
11
4.57387
21
-2.50956
0
LINE
8
BLACK
6
CONTINUOUS
10
4.57387
20
-2.50956
11
4.57058
21
-2.51123
0
LINE
8
BLACK
6
CONTINUOUS
10
4.57058
20
-2.51123
11
4.56693
21
-2.51181
0
LINE
8
BLACK
6
CONTINUOUS
10
4.56693
20
-2.51181
11
4.56328
21
-2.51123
0
LINE
8
BLACK
6
CONTINUOUS
10
4.56328
20
-2.51123
11
4.55999
21
-2.50956
0
LINE
8
BLACK
6
CONTINUOUS
10
4.55999
20
-2.50956
11
4.55737
21
-2.50694
0
LINE
8
BLACK
6
CONTINUOUS
10
4.55737
20
-2.50694
11
4.5557
21
-2.50365
0
LINE
8
BLACK
6
CONTINUOUS
10
4.5557
20
-2.50365
11
4.55512
21
-2.5
0
LINE
8
BLACK
6
CONTINUOUS
10
4.55512
20
-2.5
11
4.55512
21
-2.42126
0
LINE
8
BLACK
6
CONTINUOUS
10
4.55512
20
-2.42126
11
4.5557
21
-2.41761
0
LINE
8
BLACK
6
CONTINUOUS
10
4.5557
20
-2.41761
11
4.55737
21
-2.41432
0
LINE
8
BLACK
6
CONTINUOUS
10
4.55737
20
-2.41432
11
4.55999
21
-2.4117
0
LINE
8
BLACK
6
CONTINUOUS
10
4.55999
20
-2.4117
11
4.56328
21
-2.41003
0
LINE
8
BLACK
6
CONTINUOUS
10
4.56328
20
-2.41003
11
4.56693
21
-2.40945
0
LINE
8
BLACK
6
CONTINUOUS
10
4.56693
20
-2.40945
11
4.57058
21
-2.41003
0
LINE
8
BLACK
6
CONTINUOUS
10
4.56247
20
-2.41458
11
4.56025
21
-2.4168
0
LINE
8
BLACK
6
CONTINUOUS
10
4.56025
20
-2.4168
11
4.55906
21
-2.41969
0
LINE
8
BLACK
6
CONTINUOUS
10
4.55906
20
-2.41969
11
4.55906
21
-2.42126
0
LINE
8
BLACK
6
CONTINUOUS
10
4.55906
20
-2.42126
11
4.55906
21
-2.5
0
LINE
8
BLACK
6
CONTINUOUS
10
4.55906
20
-2.5
11
4.55906
21
-2.50157
0
LINE
8
BLACK
6
CONTINUOUS
10
4.55906
20
-2.50157
11
4.56025
21
-2.50446
0
LINE
8
BLACK
6
CONTINUOUS
10
4.56025
20
-2.50446
11
4.56247
21
-2.50668
0
LINE
8
BLACK
6
CONTINUOUS
10
4.56247
20
-2.50668
11
4.56536
21
-2.50787
0
LINE
8
BLACK
6
CONTINUOUS
10
4.56536
20
-2.50787
11
4.5685
21
-2.50787
0
LINE
8
BLACK
6
CONTINUOUS
10
4.5685
20
-2.50787
11
4.57139
21
-2.50668
0
LINE
8
BLACK
6
CONTINUOUS
10
4.57139
20
-2.50668
11
4.5736
21
-2.50446
0
LINE
8
BLACK
6
CONTINUOUS
10
4.5736
20
-2.50446
11
4.5748
21
-2.50157
0
LINE
8
BLACK
6
CONTINUOUS
10
4.5748
20
-2.50157
11
4.5748
21
-2.5
0
LINE
8
BLACK
6
CONTINUOUS
10
4.5748
20
-2.5
11
4.5748
21
-2.42126
0
LINE
8
BLACK
6
CONTINUOUS
10
4.5748
20
-2.42126
11
4.5748
21
-2.41969
0
LINE
8
BLACK
6
CONTINUOUS
10
4.5748
20
-2.41969
11
4.5736
21
-2.4168
0
LINE
8
BLACK
6
CONTINUOUS
10
4.5736
20
-2.4168
11
4.57139
21
-2.41458
0
LINE
8
BLACK
6
CONTINUOUS
10
4.57139
20
-2.41458
11
4.5685
21
-2.41339
0
LINE
8
BLACK
6
CONTINUOUS
10
4.5685
20
-2.41339
11
4.56536
21
-2.41339
0
LINE
8
BLACK
6
CONTINUOUS
10
4.56536
20
-2.41339
11
4.56247
21
-2.41458
0
LINE
8
BLACK
6
CONTINUOUS
10
4.57058
20
-2.25255
11
4.57387
21
-2.25422
0
LINE
8
BLACK
6
CONTINUOUS
10
4.57387
20
-2.25422
11
4.57648
21
-2.25684
0
LINE
8
BLACK
6
CONTINUOUS
10
4.57648
20
-2.25684
11
4.57816
21
-2.26013
0
LINE
8
BLACK
6
CONTINUOUS
10
4.57816
20
-2.26013
11
4.57874
21
-2.26378
0
LINE
8
BLACK
6
CONTINUOUS
10
4.57874
20
-2.26378
11
4.57874
21
-2.34252
0
LINE
8
BLACK
6
CONTINUOUS
10
4.57874
20
-2.34252
11
4.57816
21
-2.34617
0
LINE
8
BLACK
6
CONTINUOUS
10
4.57816
20
-2.34617
11
4.57648
21
-2.34946
0
LINE
8
BLACK
6
CONTINUOUS
10
4.57648
20
-2.34946
11
4.57387
21
-2.35208
0
LINE
8
BLACK
6
CONTINUOUS
10
4.57387
20
-2.35208
11
4.57058
21
-2.35375
0
LINE
8
BLACK
6
CONTINUOUS
10
4.57058
20
-2.35375
11
4.56693
21
-2.35433
0
LINE
8
BLACK
6
CONTINUOUS
10
4.56693
20
-2.35433
11
4.56328
21
-2.35375
0
LINE
8
BLACK
6
CONTINUOUS
10
4.56328
20
-2.35375
11
4.55999
21
-2.35208
0
LINE
8
BLACK
6
CONTINUOUS
10
4.55999
20
-2.35208
11
4.55737
21
-2.34946
0
LINE
8
BLACK
6
CONTINUOUS
10
4.55737
20
-2.34946
11
4.5557
21
-2.34617
0
LINE
8
BLACK
6
CONTINUOUS
10
4.5557
20
-2.34617
11
4.55512
21
-2.34252
0
LINE
8
BLACK
6
CONTINUOUS
10
4.55512
20
-2.34252
11
4.55512
21
-2.26378
0
LINE
8
BLACK
6
CONTINUOUS
10
4.55512
20
-2.26378
11
4.5557
21
-2.26013
0
LINE
8
BLACK
6
CONTINUOUS
10
4.5557
20
-2.26013
11
4.55737
21
-2.25684
0
LINE
8
BLACK
6
CONTINUOUS
10
4.55737
20
-2.25684
11
4.55999
21
-2.25422
0
LINE
8
BLACK
6
CONTINUOUS
10
4.55999
20
-2.25422
11
4.56328
21
-2.25255
0
LINE
8
BLACK
6
CONTINUOUS
10
4.56328
20
-2.25255
11
4.56693
21
-2.25197
0
LINE
8
BLACK
6
CONTINUOUS
10
4.56693
20
-2.25197
11
4.57058
21
-2.25255
0
LINE
8
BLACK
6
CONTINUOUS
10
4.56247
20
-2.2571
11
4.56025
21
-2.25932
0
LINE
8
BLACK
6
CONTINUOUS
10
4.56025
20
-2.25932
11
4.55906
21
-2.26221
0
LINE
8
BLACK
6
CONTINUOUS
10
4.55906
20
-2.26221
11
4.55906
21
-2.26378
0
LINE
8
BLACK
6
CONTINUOUS
10
4.55906
20
-2.26378
11
4.55906
21
-2.34252
0
LINE
8
BLACK
6
CONTINUOUS
10
4.55906
20
-2.34252
11
4.55906
21
-2.34409
0
LINE
8
BLACK
6
CONTINUOUS
10
4.55906
20
-2.34409
11
4.56025
21
-2.34698
0
LINE
8
BLACK
6
CONTINUOUS
10
4.56025
20
-2.34698
11
4.56247
21
-2.34919
0
LINE
8
BLACK
6
CONTINUOUS
10
4.56247
20
-2.34919
11
4.56536
21
-2.35039
0
LINE
8
BLACK
6
CONTINUOUS
10
4.56536
20
-2.35039
11
4.5685
21
-2.35039
0
LINE
8
BLACK
6
CONTINUOUS
10
4.5685
20
-2.35039
11
4.57139
21
-2.34919
0
LINE
8
BLACK
6
CONTINUOUS
10
4.57139
20
-2.34919
11
4.5736
21
-2.34698
0
LINE
8
BLACK
6
CONTINUOUS
10
4.5736
20
-2.34698
11
4.5748
21
-2.34409
0
LINE
8
BLACK
6
CONTINUOUS
10
4.5748
20
-2.34409
11
4.5748
21
-2.34252
0
LINE
8
BLACK
6
CONTINUOUS
10
4.5748
20
-2.34252
11
4.5748
21
-2.26378
0
LINE
8
BLACK
6
CONTINUOUS
10
4.5748
20
-2.26378
11
4.5748
21
-2.26221
0
LINE
8
BLACK
6
CONTINUOUS
10
4.5748
20
-2.26221
11
4.5736
21
-2.25932
0
LINE
8
BLACK
6
CONTINUOUS
10
4.5736
20
-2.25932
11
4.57139
21
-2.2571
0
LINE
8
BLACK
6
CONTINUOUS
10
4.57139
20
-2.2571
11
4.5685
21
-2.25591
0
LINE
8
BLACK
6
CONTINUOUS
10
4.5685
20
-2.25591
11
4.56536
21
-2.25591
0
LINE
8
BLACK
6
CONTINUOUS
10
4.56536
20
-2.25591
11
4.56247
21
-2.2571
0
LINE
8
BLACK
6
CONTINUOUS
10
4.57058
20
-2.09507
11
4.57387
21
-2.09674
0
LINE
8
BLACK
6
CONTINUOUS
10
4.57387
20
-2.09674
11
4.57648
21
-2.09936
0
LINE
8
BLACK
6
CONTINUOUS
10
4.57648
20
-2.09936
11
4.57816
21
-2.10265
0
LINE
8
BLACK
6
CONTINUOUS
10
4.57816
20
-2.10265
11
4.57874
21
-2.1063
0
LINE
8
BLACK
6
CONTINUOUS
10
4.57874
20
-2.1063
11
4.57874
21
-2.18504
0
LINE
8
BLACK
6
CONTINUOUS
10
4.57874
20
-2.18504
11
4.57816
21
-2.18869
0
LINE
8
BLACK
6
CONTINUOUS
10
4.57816
20
-2.18869
11
4.57648
21
-2.19198
0
LINE
8
BLACK
6
CONTINUOUS
10
4.57648
20
-2.19198
11
4.57387
21
-2.19459
0
LINE
8
BLACK
6
CONTINUOUS
10
4.57387
20
-2.19459
11
4.57058
21
-2.19627
0
LINE
8
BLACK
6
CONTINUOUS
10
4.57058
20
-2.19627
11
4.56693
21
-2.19685
0
LINE
8
BLACK
6
CONTINUOUS
10
4.56693
20
-2.19685
11
4.56328
21
-2.19627
0
LINE
8
BLACK
6
CONTINUOUS
10
4.56328
20
-2.19627
11
4.55999
21
-2.19459
0
LINE
8
BLACK
6
CONTINUOUS
10
4.55999
20
-2.19459
11
4.55737
21
-2.19198
0
LINE
8
BLACK
6
CONTINUOUS
10
4.55737
20
-2.19198
11
4.5557
21
-2.18869
0
LINE
8
BLACK
6
CONTINUOUS
10
4.5557
20
-2.18869
11
4.55512
21
-2.18504
0
LINE
8
BLACK
6
CONTINUOUS
10
4.55512
20
-2.18504
11
4.55512
21
-2.1063
0
LINE
8
BLACK
6
CONTINUOUS
10
4.55512
20
-2.1063
11
4.5557
21
-2.10265
0
LINE
8
BLACK
6
CONTINUOUS
10
4.5557
20
-2.10265
11
4.55737
21
-2.09936
0
LINE
8
BLACK
6
CONTINUOUS
10
4.55737
20
-2.09936
11
4.55999
21
-2.09674
0
LINE
8
BLACK
6
CONTINUOUS
10
4.55999
20
-2.09674
11
4.56328
21
-2.09507
0
LINE
8
BLACK
6
CONTINUOUS
10
4.56328
20
-2.09507
11
4.56693
21
-2.09449
0
LINE
8
BLACK
6
CONTINUOUS
10
4.56693
20
-2.09449
11
4.57058
21
-2.09507
0
LINE
8
BLACK
6
CONTINUOUS
10
4.56247
20
-2.09962
11
4.56025
21
-2.10184
0
LINE
8
BLACK
6
CONTINUOUS
10
4.56025
20
-2.10184
11
4.55906
21
-2.10473
0
LINE
8
BLACK
6
CONTINUOUS
10
4.55906
20
-2.10473
11
4.55906
21
-2.1063
0
LINE
8
BLACK
6
CONTINUOUS
10
4.55906
20
-2.1063
11
4.55906
21
-2.18504
0
LINE
8
BLACK
6
CONTINUOUS
10
4.55906
20
-2.18504
11
4.55906
21
-2.18661
0
LINE
8
BLACK
6
CONTINUOUS
10
4.55906
20
-2.18661
11
4.56025
21
-2.1895
0
LINE
8
BLACK
6
CONTINUOUS
10
4.56025
20
-2.1895
11
4.56247
21
-2.19171
0
LINE
8
BLACK
6
CONTINUOUS
10
4.56247
20
-2.19171
11
4.56536
21
-2.19291
0
LINE
8
BLACK
6
CONTINUOUS
10
4.56536
20
-2.19291
11
4.5685
21
-2.19291
0
LINE
8
BLACK
6
CONTINUOUS
10
4.5685
20
-2.19291
11
4.57139
21
-2.19171
0
LINE
8
BLACK
6
CONTINUOUS
10
4.57139
20
-2.19171
11
4.5736
21
-2.1895
0
LINE
8
BLACK
6
CONTINUOUS
10
4.5736
20
-2.1895
11
4.5748
21
-2.18661
0
LINE
8
BLACK
6
CONTINUOUS
10
4.5748
20
-2.18661
11
4.5748
21
-2.18504
0
LINE
8
BLACK
6
CONTINUOUS
10
4.5748
20
-2.18504
11
4.5748
21
-2.1063
0
LINE
8
BLACK
6
CONTINUOUS
10
4.5748
20
-2.1063
11
4.5748
21
-2.10473
0
LINE
8
BLACK
6
CONTINUOUS
10
4.5748
20
-2.10473
11
4.5736
21
-2.10184
0
LINE
8
BLACK
6
CONTINUOUS
10
4.5736
20
-2.10184
11
4.57139
21
-2.09962
0
LINE
8
BLACK
6
CONTINUOUS
10
4.57139
20
-2.09962
11
4.5685
21
-2.09843
0
LINE
8
BLACK
6
CONTINUOUS
10
4.5685
20
-2.09843
11
4.56536
21
-2.09843
0
LINE
8
BLACK
6
CONTINUOUS
10
4.56536
20
-2.09843
11
4.56247
21
-2.09962
0
LINE
8
BLACK
6
CONTINUOUS
10
4.43898
20
-1.90748
11
4.45169
21
-1.9081
0
LINE
8
BLACK
6
CONTINUOUS
10
4.45169
20
-1.9081
11
4.46428
21
-1.90997
0
LINE
8
BLACK
6
CONTINUOUS
10
4.46428
20
-1.90997
11
4.47663
21
-1.91305
0
LINE
8
BLACK
6
CONTINUOUS
10
4.47663
20
-1.91305
11
4.48861
21
-1.91734
0
LINE
8
BLACK
6
CONTINUOUS
10
4.48861
20
-1.91734
11
4.50012
21
-1.92277
0
LINE
8
BLACK
6
CONTINUOUS
10
4.50012
20
-1.92277
11
4.51104
21
-1.9293
0
LINE
8
BLACK
6
CONTINUOUS
10
4.51104
20
-1.9293
11
4.52127
21
-1.93687
0
LINE
8
BLACK
6
CONTINUOUS
10
4.52127
20
-1.93687
11
4.53072
21
-1.94541
0
LINE
8
BLACK
6
CONTINUOUS
10
4.53072
20
-1.94541
11
4.53928
21
-1.95482
0
LINE
8
BLACK
6
CONTINUOUS
10
4.53928
20
-1.95482
11
4.54688
21
-1.96503
0
LINE
8
BLACK
6
CONTINUOUS
10
4.54688
20
-1.96503
11
4.55344
21
-1.97594
0
LINE
8
BLACK
6
CONTINUOUS
10
4.55344
20
-1.97594
11
4.5589
21
-1.98743
0
LINE
8
BLACK
6
CONTINUOUS
10
4.5589
20
-1.98743
11
4.55893
21
-1.98782
0
LINE
8
BLACK
6
CONTINUOUS
10
4.55893
20
-1.98782
11
4.55906
21
-1.98819
0
LINE
8
BLACK
6
CONTINUOUS
10
4.55906
20
-1.98819
11
4.55906
21
-1.98976
0
LINE
8
BLACK
6
CONTINUOUS
10
4.55906
20
-1.98976
11
4.56025
21
-1.99265
0
LINE
8
BLACK
6
CONTINUOUS
10
4.56025
20
-1.99265
11
4.56247
21
-1.99486
0
LINE
8
BLACK
6
CONTINUOUS
10
4.56247
20
-1.99486
11
4.56536
21
-1.99606
0
LINE
8
BLACK
6
CONTINUOUS
10
4.56536
20
-1.99606
11
4.5685
21
-1.99606
0
LINE
8
BLACK
6
CONTINUOUS
10
4.5685
20
-1.99606
11
4.57139
21
-1.99486
0
LINE
8
BLACK
6
CONTINUOUS
10
4.57139
20
-1.99486
11
4.5736
21
-1.99265
0
LINE
8
BLACK
6
CONTINUOUS
10
4.5736
20
-1.99265
11
4.5748
21
-1.98976
0
LINE
8
BLACK
6
CONTINUOUS
10
4.5748
20
-1.98976
11
4.5748
21
-1.98819
0
LINE
8
BLACK
6
CONTINUOUS
10
4.5748
20
-1.98819
11
4.57492
21
-1.98782
0
LINE
8
BLACK
6
CONTINUOUS
10
4.57492
20
-1.98782
11
4.57495
21
-1.98743
0
LINE
8
BLACK
6
CONTINUOUS
10
4.57495
20
-1.98743
11
4.58042
21
-1.97594
0
LINE
8
BLACK
6
CONTINUOUS
10
4.58042
20
-1.97594
11
4.58698
21
-1.96503
0
LINE
8
BLACK
6
CONTINUOUS
10
4.58698
20
-1.96503
11
4.59458
21
-1.95482
0
LINE
8
BLACK
6
CONTINUOUS
10
4.59458
20
-1.95482
11
4.60314
21
-1.94541
0
LINE
8
BLACK
6
CONTINUOUS
10
4.60314
20
-1.94541
11
4.61258
21
-1.93687
0
LINE
8
BLACK
6
CONTINUOUS
10
4.61258
20
-1.93687
11
4.62281
21
-1.9293
0
LINE
8
BLACK
6
CONTINUOUS
10
4.62281
20
-1.9293
11
4.63374
21
-1.92277
0
LINE
8
BLACK
6
CONTINUOUS
10
4.63374
20
-1.92277
11
4.64525
21
-1.91734
0
LINE
8
BLACK
6
CONTINUOUS
10
4.64525
20
-1.91734
11
4.65723
21
-1.91305
0
LINE
8
BLACK
6
CONTINUOUS
10
4.65723
20
-1.91305
11
4.66958
21
-1.90997
0
LINE
8
BLACK
6
CONTINUOUS
10
4.66958
20
-1.90997
11
4.68217
21
-1.9081
0
LINE
8
BLACK
6
CONTINUOUS
10
4.68217
20
-1.9081
11
4.69488
21
-1.90748
0
LINE
8
BLACK
6
CONTINUOUS
10
4.69488
20
-1.90748
11
6.40748
21
-1.90748
0
LINE
8
BLACK
6
CONTINUOUS
10
6.40748
20
-1.90748
11
6.42106
21
-1.90819
0
LINE
8
BLACK
6
CONTINUOUS
10
6.42106
20
-1.90819
11
6.43449
21
-1.91032
0
LINE
8
BLACK
6
CONTINUOUS
10
6.43449
20
-1.91032
11
6.44763
21
-1.91384
0
LINE
8
BLACK
6
CONTINUOUS
10
6.44763
20
-1.91384
11
6.46032
21
-1.91871
0
LINE
8
BLACK
6
CONTINUOUS
10
6.46032
20
-1.91871
11
6.47244
21
-1.92489
0
LINE
8
BLACK
6
CONTINUOUS
10
6.47244
20
-1.92489
11
6.48385
21
-1.93229
0
LINE
8
BLACK
6
CONTINUOUS
10
6.48385
20
-1.93229
11
6.49441
21
-1.94085
0
LINE
8
BLACK
6
CONTINUOUS
10
6.49441
20
-1.94085
11
6.50403
21
-1.95047
0
LINE
8
BLACK
6
CONTINUOUS
10
6.50403
20
-1.95047
11
6.51259
21
-1.96104
0
LINE
8
BLACK
6
CONTINUOUS
10
6.51259
20
-1.96104
11
6.52
21
-1.97244
0
LINE
8
BLACK
6
CONTINUOUS
10
6.52
20
-1.97244
11
6.52617
21
-1.98456
0
LINE
8
BLACK
6
CONTINUOUS
10
6.52617
20
-1.98456
11
6.53104
21
-1.99725
0
LINE
8
BLACK
6
CONTINUOUS
10
6.53104
20
-1.99725
11
6.53456
21
-2.01039
0
LINE
8
BLACK
6
CONTINUOUS
10
6.53456
20
-2.01039
11
6.53669
21
-2.02382
0
LINE
8
BLACK
6
CONTINUOUS
10
6.53669
20
-2.02382
11
6.5374
21
-2.0374
0
LINE
8
BLACK
6
CONTINUOUS
10
6.5374
20
-2.0374
11
6.5374
21
-4.1437
0
LINE
8
BLACK
6
CONTINUOUS
10
6.5374
20
-4.1437
11
6.53669
21
-4.15728
0
LINE
8
BLACK
6
CONTINUOUS
10
6.53669
20
-4.15728
11
6.53456
21
-4.17071
0
LINE
8
BLACK
6
CONTINUOUS
10
6.53456
20
-4.17071
11
6.53104
21
-4.18385
0
LINE
8
BLACK
6
CONTINUOUS
10
6.53104
20
-4.18385
11
6.52617
21
-4.19654
0
LINE
8
BLACK
6
CONTINUOUS
10
6.52617
20
-4.19654
11
6.52
21
-4.20866
0
LINE
8
BLACK
6
CONTINUOUS
10
6.52
20
-4.20866
11
6.51259
21
-4.22007
0
LINE
8
BLACK
6
CONTINUOUS
10
6.51259
20
-4.22007
11
6.50403
21
-4.23064
0
LINE
8
BLACK
6
CONTINUOUS
10
6.50403
20
-4.23064
11
6.49441
21
-4.24025
0
LINE
8
BLACK
6
CONTINUOUS
10
6.49441
20
-4.24025
11
6.48385
21
-4.24881
0
LINE
8
BLACK
6
CONTINUOUS
10
6.48385
20
-4.24881
11
6.47244
21
-4.25622
0
LINE
8
BLACK
6
CONTINUOUS
10
6.47244
20
-4.25622
11
6.46032
21
-4.26239
0
LINE
8
BLACK
6
CONTINUOUS
10
6.46032
20
-4.26239
11
6.44763
21
-4.26726
0
LINE
8
BLACK
6
CONTINUOUS
10
6.44763
20
-4.26726
11
6.43449
21
-4.27078
0
LINE
8
BLACK
6
CONTINUOUS
10
6.43449
20
-4.27078
11
6.42106
21
-4.27291
0
LINE
8
BLACK
6
CONTINUOUS
10
6.42106
20
-4.27291
11
6.40748
21
-4.27362
0
LINE
8
BLACK
6
CONTINUOUS
10
6.40748
20
-4.27362
11
4.69488
21
-4.27362
0
LINE
8
BLACK
6
CONTINUOUS
10
4.69488
20
-4.27362
11
4.68217
21
-4.273
0
LINE
8
BLACK
6
CONTINUOUS
10
4.68217
20
-4.273
11
4.66958
21
-4.27113
0
LINE
8
BLACK
6
CONTINUOUS
10
4.66958
20
-4.27113
11
4.65723
21
-4.26805
0
LINE
8
BLACK
6
CONTINUOUS
10
4.65723
20
-4.26805
11
4.64525
21
-4.26377
0
LINE
8
BLACK
6
CONTINUOUS
10
4.64525
20
-4.26377
11
4.63374
21
-4.25833
0
LINE
8
BLACK
6
CONTINUOUS
10
4.63374
20
-4.25833
11
4.62281
21
-4.2518
0
LINE
8
BLACK
6
CONTINUOUS
10
4.62281
20
-4.2518
11
4.61258
21
-4.24423
0
LINE
8
BLACK
6
CONTINUOUS
10
4.61258
20
-4.24423
11
4.60314
21
-4.2357
0
LINE
8
BLACK
6
CONTINUOUS
10
4.60314
20
-4.2357
11
4.59458
21
-4.22628
0
LINE
8
BLACK
6
CONTINUOUS
10
4.59458
20
-4.22628
11
4.58698
21
-4.21607
0
LINE
8
BLACK
6
CONTINUOUS
10
4.58698
20
-4.21607
11
4.58042
21
-4.20516
0
LINE
8
BLACK
6
CONTINUOUS
10
4.58042
20
-4.20516
11
4.57495
21
-4.19367
0
LINE
8
BLACK
6
CONTINUOUS
10
4.57495
20
-4.19367
11
4.57492
21
-4.19328
0
LINE
8
BLACK
6
CONTINUOUS
10
4.57492
20
-4.19328
11
4.5748
21
-4.19291
0
LINE
8
BLACK
6
CONTINUOUS
10
4.5748
20
-4.19291
11
4.5748
21
-4.19135
0
LINE
8
BLACK
6
CONTINUOUS
10
4.5748
20
-4.19135
11
4.5736
21
-4.18845
0
LINE
8
BLACK
6
CONTINUOUS
10
4.5736
20
-4.18845
11
4.57139
21
-4.18624
0
LINE
8
BLACK
6
CONTINUOUS
10
4.57139
20
-4.18624
11
4.5685
21
-4.18504
0
LINE
8
BLACK
6
CONTINUOUS
10
4.5685
20
-4.18504
11
4.56536
21
-4.18504
0
LINE
8
BLACK
6
CONTINUOUS
10
4.56536
20
-4.18504
11
4.56247
21
-4.18624
0
LINE
8
BLACK
6
CONTINUOUS
10
4.56247
20
-4.18624
11
4.56025
21
-4.18845
0
LINE
8
BLACK
6
CONTINUOUS
10
4.56025
20
-4.18845
11
4.55906
21
-4.19135
0
LINE
8
BLACK
6
CONTINUOUS
10
4.55906
20
-4.19135
11
4.55906
21
-4.19291
0
LINE
8
BLACK
6
CONTINUOUS
10
4.55906
20
-4.19291
11
4.55893
21
-4.19328
0
LINE
8
BLACK
6
CONTINUOUS
10
4.55893
20
-4.19328
11
4.5589
21
-4.19367
0
LINE
8
BLACK
6
CONTINUOUS
10
4.5589
20
-4.19367
11
4.55344
21
-4.20516
0
LINE
8
BLACK
6
CONTINUOUS
10
4.55344
20
-4.20516
11
4.54688
21
-4.21607
0
LINE
8
BLACK
6
CONTINUOUS
10
4.54688
20
-4.21607
11
4.53928
21
-4.22628
0
LINE
8
BLACK
6
CONTINUOUS
10
4.53928
20
-4.22628
11
4.53072
21
-4.2357
0
LINE
8
BLACK
6
CONTINUOUS
10
4.53072
20
-4.2357
11
4.52127
21
-4.24423
0
LINE
8
BLACK
6
CONTINUOUS
10
4.52127
20
-4.24423
11
4.51104
21
-4.2518
0
LINE
8
BLACK
6
CONTINUOUS
10
4.51104
20
-4.2518
11
4.50012
21
-4.25833
0
LINE
8
BLACK
6
CONTINUOUS
10
4.50012
20
-4.25833
11
4.48861
21
-4.26377
0
LINE
8
BLACK
6
CONTINUOUS
10
4.48861
20
-4.26377
11
4.47663
21
-4.26805
0
LINE
8
BLACK
6
CONTINUOUS
10
4.47663
20
-4.26805
11
4.46428
21
-4.27113
0
LINE
8
BLACK
6
CONTINUOUS
10
4.46428
20
-4.27113
11
4.45169
21
-4.273
0
LINE
8
BLACK
6
CONTINUOUS
10
4.45169
20
-4.273
11
4.43898
21
-4.27362
0
LINE
8
BLACK
6
CONTINUOUS
10
4.43898
20
-4.27362
11
2.72638
21
-4.27362
0
LINE
8
BLACK
6
CONTINUOUS
10
2.72638
20
-4.27362
11
2.7128
21
-4.27291
0
LINE
8
BLACK
6
CONTINUOUS
10
2.7128
20
-4.27291
11
2.69937
21
-4.27078
0
LINE
8
BLACK
6
CONTINUOUS
10
2.69937
20
-4.27078
11
2.68623
21
-4.26726
0
LINE
8
BLACK
6
CONTINUOUS
10
2.68623
20
-4.26726
11
2.67353
21
-4.26239
0
LINE
8
BLACK
6
CONTINUOUS
10
2.67353
20
-4.26239
11
2.66142
21
-4.25622
0
LINE
8
BLACK
6
CONTINUOUS
10
2.66142
20
-4.25622
11
2.65001
21
-4.24881
0
LINE
8
BLACK
6
CONTINUOUS
10
2.65001
20
-4.24881
11
2.63944
21
-4.24025
0
LINE
8
BLACK
6
CONTINUOUS
10
2.63944
20
-4.24025
11
2.62983
21
-4.23064
0
LINE
8
BLACK
6
CONTINUOUS
10
2.62983
20
-4.23064
11
2.62127
21
-4.22007
0
LINE
8
BLACK
6
CONTINUOUS
10
2.62127
20
-4.22007
11
2.61386
21
-4.20866
0
LINE
8
BLACK
6
CONTINUOUS
10
2.61386
20
-4.20866
11
2.60769
21
-4.19654
0
LINE
8
BLACK
6
CONTINUOUS
10
2.60769
20
-4.19654
11
2.60282
21
-4.18385
0
LINE
8
BLACK
6
CONTINUOUS
10
2.60282
20
-4.18385
11
2.5993
21
-4.17071
0
LINE
8
BLACK
6
CONTINUOUS
10
2.5993
20
-4.17071
11
2.59717
21
-4.15728
0
LINE
8
BLACK
6
CONTINUOUS
10
2.59717
20
-4.15728
11
2.59646
21
-4.1437
0
LINE
8
BLACK
6
CONTINUOUS
10
2.59646
20
-4.1437
11
2.59646
21
-2.0374
0
LINE
8
BLACK
6
CONTINUOUS
10
2.59646
20
-2.0374
11
2.59717
21
-2.02382
0
LINE
8
BLACK
6
CONTINUOUS
10
2.59717
20
-2.02382
11
2.5993
21
-2.01039
0
LINE
8
BLACK
6
CONTINUOUS
10
2.5993
20
-2.01039
11
2.60282
21
-1.99725
0
LINE
8
BLACK
6
CONTINUOUS
10
2.60282
20
-1.99725
11
2.60769
21
-1.98456
0
LINE
8
BLACK
6
CONTINUOUS
10
2.60769
20
-1.98456
11
2.61386
21
-1.97244
0
LINE
8
BLACK
6
CONTINUOUS
10
2.61386
20
-1.97244
11
2.62127
21
-1.96104
0
LINE
8
BLACK
6
CONTINUOUS
10
2.62127
20
-1.96104
11
2.62983
21
-1.95047
0
LINE
8
BLACK
6
CONTINUOUS
10
2.62983
20
-1.95047
11
2.63944
21
-1.94085
0
LINE
8
BLACK
6
CONTINUOUS
10
2.63944
20
-1.94085
11
2.65001
21
-1.93229
0
LINE
8
BLACK
6
CONTINUOUS
10
2.65001
20
-1.93229
11
2.66142
21
-1.92489
0
LINE
8
BLACK
6
CONTINUOUS
10
2.66142
20
-1.92489
11
2.67353
21
-1.91871
0
LINE
8
BLACK
6
CONTINUOUS
10
2.67353
20
-1.91871
11
2.68623
21
-1.91384
0
LINE
8
BLACK
6
CONTINUOUS
10
2.68623
20
-1.91384
11
2.69937
21
-1.91032
0
LINE
8
BLACK
6
CONTINUOUS
10
2.69937
20
-1.91032
11
2.7128
21
-1.90819
0
LINE
8
BLACK
6
CONTINUOUS
10
2.7128
20
-1.90819
11
2.72638
21
-1.90748
0
LINE
8
BLACK
6
CONTINUOUS
10
2.72638
20
-1.90748
11
4.43898
21
-1.90748
0
LINE
8
BLACK
6
CONTINUOUS
10
4.67641
20
-1.91263
11
4.66429
21
-1.91503
0
LINE
8
BLACK
6
CONTINUOUS
10
4.66429
20
-1.91503
11
4.65246
21
-1.91861
0
LINE
8
BLACK
6
CONTINUOUS
10
4.65246
20
-1.91861
11
4.64104
21
-1.92333
0
LINE
8
BLACK
6
CONTINUOUS
10
4.64104
20
-1.92333
11
4.63014
21
-1.92915
0
LINE
8
BLACK
6
CONTINUOUS
10
4.63014
20
-1.92915
11
4.61986
21
-1.936
0
LINE
8
BLACK
6
CONTINUOUS
10
4.61986
20
-1.936
11
4.6103
21
-1.94383
0
LINE
8
BLACK
6
CONTINUOUS
10
4.6103
20
-1.94383
11
4.60155
21
-1.95256
0
LINE
8
BLACK
6
CONTINUOUS
10
4.60155
20
-1.95256
11
4.59369
21
-1.96209
0
LINE
8
BLACK
6
CONTINUOUS
10
4.59369
20
-1.96209
11
4.58681
21
-1.97236
0
LINE
8
BLACK
6
CONTINUOUS
10
4.58681
20
-1.97236
11
4.58096
21
-1.98324
0
LINE
8
BLACK
6
CONTINUOUS
10
4.58096
20
-1.98324
11
4.57864
21
-1.98882
0
LINE
8
BLACK
6
CONTINUOUS
10
4.57864
20
-1.98882
11
4.57816
21
-1.99184
0
LINE
8
BLACK
6
CONTINUOUS
10
4.57816
20
-1.99184
11
4.57648
21
-1.99513
0
LINE
8
BLACK
6
CONTINUOUS
10
4.57648
20
-1.99513
11
4.57387
21
-1.99774
0
LINE
8
BLACK
6
CONTINUOUS
10
4.57387
20
-1.99774
11
4.57058
21
-1.99942
0
LINE
8
BLACK
6
CONTINUOUS
10
4.57058
20
-1.99942
11
4.56693
21
-2
0
LINE
8
BLACK
6
CONTINUOUS
10
4.56693
20
-2
11
4.56328
21
-1.99942
0
LINE
8
BLACK
6
CONTINUOUS
10
4.56328
20
-1.99942
11
4.55999
21
-1.99774
0
LINE
8
BLACK
6
CONTINUOUS
10
4.55999
20
-1.99774
11
4.55737
21
-1.99513
0
LINE
8
BLACK
6
CONTINUOUS
10
4.55737
20
-1.99513
11
4.5557
21
-1.99184
0
LINE
8
BLACK
6
CONTINUOUS
10
4.5557
20
-1.99184
11
4.55522
21
-1.98882
0
LINE
8
BLACK
6
CONTINUOUS
10
4.55522
20
-1.98882
11
4.55289
21
-1.98324
0
LINE
8
BLACK
6
CONTINUOUS
10
4.55289
20
-1.98324
11
4.54705
21
-1.97236
0
LINE
8
BLACK
6
CONTINUOUS
10
4.54705
20
-1.97236
11
4.54017
21
-1.96209
0
LINE
8
BLACK
6
CONTINUOUS
10
4.54017
20
-1.96209
11
4.53231
21
-1.95256
0
LINE
8
BLACK
6
CONTINUOUS
10
4.53231
20
-1.95256
11
4.52356
21
-1.94383
0
LINE
8
BLACK
6
CONTINUOUS
10
4.52356
20
-1.94383
11
4.514
21
-1.936
0
LINE
8
BLACK
6
CONTINUOUS
10
4.514
20
-1.936
11
4.50372
21
-1.92915
0
LINE
8
BLACK
6
CONTINUOUS
10
4.50372
20
-1.92915
11
4.49282
21
-1.92333
0
LINE
8
BLACK
6
CONTINUOUS
10
4.49282
20
-1.92333
11
4.4814
21
-1.91861
0
LINE
8
BLACK
6
CONTINUOUS
10
4.4814
20
-1.91861
11
4.46957
21
-1.91503
0
LINE
8
BLACK
6
CONTINUOUS
10
4.46957
20
-1.91503
11
4.45745
21
-1.91263
0
LINE
8
BLACK
6
CONTINUOUS
10
4.45745
20
-1.91263
11
4.44515
21
-1.91142
0
LINE
8
BLACK
6
CONTINUOUS
10
4.44515
20
-1.91142
11
4.43898
21
-1.91142
0
LINE
8
BLACK
6
CONTINUOUS
10
4.43898
20
-1.91142
11
2.72638
21
-1.91142
0
LINE
8
BLACK
6
CONTINUOUS
10
2.72638
20
-1.91142
11
2.71978
21
-1.91142
0
LINE
8
BLACK
6
CONTINUOUS
10
2.71978
20
-1.91142
11
2.70664
21
-1.9128
0
LINE
8
BLACK
6
CONTINUOUS
10
2.70664
20
-1.9128
11
2.69373
21
-1.91554
0
LINE
8
BLACK
6
CONTINUOUS
10
2.69373
20
-1.91554
11
2.68117
21
-1.91962
0
LINE
8
BLACK
6
CONTINUOUS
10
2.68117
20
-1.91962
11
2.6691
21
-1.92499
0
LINE
8
BLACK
6
CONTINUOUS
10
2.6691
20
-1.92499
11
2.65767
21
-1.9316
0
LINE
8
BLACK
6
CONTINUOUS
10
2.65767
20
-1.9316
11
2.64698
21
-1.93936
0
LINE
8
BLACK
6
CONTINUOUS
10
2.64698
20
-1.93936
11
2.63717
21
-1.94819
0
LINE
8
BLACK
6
CONTINUOUS
10
2.63717
20
-1.94819
11
2.62834
21
-1.95801
0
LINE
8
BLACK
6
CONTINUOUS
10
2.62834
20
-1.95801
11
2.62057
21
-1.96869
0
LINE
8
BLACK
6
CONTINUOUS
10
2.62057
20
-1.96869
11
2.61397
21
-1.98013
0
LINE
8
BLACK
6
CONTINUOUS
10
2.61397
20
-1.98013
11
2.6086
21
-1.99219
0
LINE
8
BLACK
6
CONTINUOUS
10
2.6086
20
-1.99219
11
2.60452
21
-2.00475
0
LINE
8
BLACK
6
CONTINUOUS
10
2.60452
20
-2.00475
11
2.60177
21
-2.01767
0
LINE
8
BLACK
6
CONTINUOUS
10
2.60177
20
-2.01767
11
2.60039
21
-2.0308
0
LINE
8
BLACK
6
CONTINUOUS
10
2.60039
20
-2.0308
11
2.60039
21
-2.0374
0
LINE
8
BLACK
6
CONTINUOUS
10
2.60039
20
-2.0374
11
2.60039
21
-4.1437
0
LINE
8
BLACK
6
CONTINUOUS
10
2.60039
20
-4.1437
11
2.60039
21
-4.1503
0
LINE
8
BLACK
6
CONTINUOUS
10
2.60039
20
-4.1503
11
2.60177
21
-4.16344
0
LINE
8
BLACK
6
CONTINUOUS
10
2.60177
20
-4.16344
11
2.60452
21
-4.17635
0
LINE
8
BLACK
6
CONTINUOUS
10
2.60452
20
-4.17635
11
2.6086
21
-4.18891
0
LINE
8
BLACK
6
CONTINUOUS
10
2.6086
20
-4.18891
11
2.61397
21
-4.20097
0
LINE
8
BLACK
6
CONTINUOUS
10
2.61397
20
-4.20097
11
2.62057
21
-4.21241
0
LINE
8
BLACK
6
CONTINUOUS
10
2.62057
20
-4.21241
11
2.62834
21
-4.22309
0
LINE
8
BLACK
6
CONTINUOUS
10
2.62834
20
-4.22309
11
2.63717
21
-4.23291
0
LINE
8
BLACK
6
CONTINUOUS
10
2.63717
20
-4.23291
11
2.64698
21
-4.24174
0
LINE
8
BLACK
6
CONTINUOUS
10
2.64698
20
-4.24174
11
2.65767
21
-4.24951
0
LINE
8
BLACK
6
CONTINUOUS
10
2.65767
20
-4.24951
11
2.6691
21
-4.25611
0
LINE
8
BLACK
6
CONTINUOUS
10
2.6691
20
-4.25611
11
2.68117
21
-4.26148
0
LINE
8
BLACK
6
CONTINUOUS
10
2.68117
20
-4.26148
11
2.69373
21
-4.26556
0
LINE
8
BLACK
6
CONTINUOUS
10
2.69373
20
-4.26556
11
2.70664
21
-4.2683
0
LINE
8
BLACK
6
CONTINUOUS
10
2.70664
20
-4.2683
11
2.71978
21
-4.26969
0
LINE
8
BLACK
6
CONTINUOUS
10
2.71978
20
-4.26969
11
2.72638
21
-4.26969
0
LINE
8
BLACK
6
CONTINUOUS
10
2.72638
20
-4.26969
11
4.43898
21
-4.26969
0
LINE
8
BLACK
6
CONTINUOUS
10
4.43898
20
-4.26969
11
4.44515
21
-4.26969
0
LINE
8
BLACK
6
CONTINUOUS
10
4.44515
20
-4.26969
11
4.45745
21
-4.26848
0
LINE
8
BLACK
6
CONTINUOUS
10
4.45745
20
-4.26848
11
4.46957
21
-4.26607
0
LINE
8
BLACK
6
CONTINUOUS
10
4.46957
20
-4.26607
11
4.4814
21
-4.26249
0
LINE
8
BLACK
6
CONTINUOUS
10
4.4814
20
-4.26249
11
4.49282
21
-4.25777
0
LINE
8
BLACK
6
CONTINUOUS
10
4.49282
20
-4.25777
11
4.50372
21
-4.25195
0
LINE
8
BLACK
6
CONTINUOUS
10
4.50372
20
-4.25195
11
4.514
21
-4.2451
0
LINE
8
BLACK
6
CONTINUOUS
10
4.514
20
-4.2451
11
4.52356
21
-4.23727
0
LINE
8
BLACK
6
CONTINUOUS
10
4.52356
20
-4.23727
11
4.53231
21
-4.22855
0
LINE
8
BLACK
6
CONTINUOUS
10
4.53231
20
-4.22855
11
4.54017
21
-4.21901
0
LINE
8
BLACK
6
CONTINUOUS
10
4.54017
20
-4.21901
11
4.54705
21
-4.20875
0
LINE
8
BLACK
6
CONTINUOUS
10
4.54705
20
-4.20875
11
4.55289
21
-4.19786
0
LINE
8
BLACK
6
CONTINUOUS
10
4.55289
20
-4.19786
11
4.55522
21
-4.19228
0
LINE
8
BLACK
6
CONTINUOUS
10
4.55522
20
-4.19228
11
4.5557
21
-4.18926
0
LINE
8
BLACK
6
CONTINUOUS
10
4.5557
20
-4.18926
11
4.55737
21
-4.18597
0
LINE
8
BLACK
6
CONTINUOUS
10
4.55737
20
-4.18597
11
4.55999
21
-4.18336
0
LINE
8
BLACK
6
CONTINUOUS
10
4.55999
20
-4.18336
11
4.56328
21
-4.18168
0
LINE
8
BLACK
6
CONTINUOUS
10
4.56328
20
-4.18168
11
4.56693
21
-4.1811
0
LINE
8
BLACK
6
CONTINUOUS
10
4.56693
20
-4.1811
11
4.57058
21
-4.18168
0
LINE
8
BLACK
6
CONTINUOUS
10
4.57058
20
-4.18168
11
4.57387
21
-4.18336
0
LINE
8
BLACK
6
CONTINUOUS
10
4.57387
20
-4.18336
11
4.57648
21
-4.18597
0
LINE
8
BLACK
6
CONTINUOUS
10
4.57648
20
-4.18597
11
4.57816
21
-4.18926
0
LINE
8
BLACK
6
CONTINUOUS
10
4.57816
20
-4.18926
11
4.57864
21
-4.19228
0
LINE
8
BLACK
6
CONTINUOUS
10
4.57864
20
-4.19228
11
4.58096
21
-4.19786
0
LINE
8
BLACK
6
CONTINUOUS
10
4.58096
20
-4.19786
11
4.58681
21
-4.20875
0
LINE
8
BLACK
6
CONTINUOUS
10
4.58681
20
-4.20875
11
4.59369
21
-4.21901
0
LINE
8
BLACK
6
CONTINUOUS
10
4.59369
20
-4.21901
11
4.60155
21
-4.22855
0
LINE
8
BLACK
6
CONTINUOUS
10
4.60155
20
-4.22855
11
4.6103
21
-4.23727
0
LINE
8
BLACK
6
CONTINUOUS
10
4.6103
20
-4.23727
11
4.61986
21
-4.2451
0
LINE
8
BLACK
6
CONTINUOUS
10
4.61986
20
-4.2451
11
4.63014
21
-4.25195
0
LINE
8
BLACK
6
CONTINUOUS
10
4.63014
20
-4.25195
11
4.64104
21
-4.25777
0
LINE
8
BLACK
6
CONTINUOUS
10
4.64104
20
-4.25777
11
4.65246
21
-4.26249
0
LINE
8
BLACK
6
CONTINUOUS
10
4.65246
20
-4.26249
11
4.66429
21
-4.26607
0
LINE
8
BLACK
6
CONTINUOUS
10
4.66429
20
-4.26607
11
4.67641
21
-4.26848
0
LINE
8
BLACK
6
CONTINUOUS
10
4.67641
20
-4.26848
11
4.6887
21
-4.26969
0
LINE
8
BLACK
6
CONTINUOUS
10
4.6887
20
-4.26969
11
4.69488
21
-4.26969
0
LINE
8
BLACK
6
CONTINUOUS
10
4.69488
20
-4.26969
11
6.40748
21
-4.26969
0
LINE
8
BLACK
6
CONTINUOUS
10
6.40748
20
-4.26969
11
6.41408
21
-4.26969
0
LINE
8
BLACK
6
CONTINUOUS
10
6.41408
20
-4.26969
11
6.42722
21
-4.2683
0
LINE
8
BLACK
6
CONTINUOUS
10
6.42722
20
-4.2683
11
6.44013
21
-4.26556
0
LINE
8
BLACK
6
CONTINUOUS
10
6.44013
20
-4.26556
11
6.45269
21
-4.26148
0
LINE
8
BLACK
6
CONTINUOUS
10
6.45269
20
-4.26148
11
6.46475
21
-4.25611
0
LINE
8
BLACK
6
CONTINUOUS
10
6.46475
20
-4.25611
11
6.47619
21
-4.24951
0
LINE
8
BLACK
6
CONTINUOUS
10
6.47619
20
-4.24951
11
6.48687
21
-4.24174
0
LINE
8
BLACK
6
CONTINUOUS
10
6.48687
20
-4.24174
11
6.49669
21
-4.23291
0
LINE
8
BLACK
6
CONTINUOUS
10
6.49669
20
-4.23291
11
6.50552
21
-4.22309
0
LINE
8
BLACK
6
CONTINUOUS
10
6.50552
20
-4.22309
11
6.51328
21
-4.21241
0
LINE
8
BLACK
6
CONTINUOUS
10
6.51328
20
-4.21241
11
6.51989
21
-4.20097
0
LINE
8
BLACK
6
CONTINUOUS
10
6.51989
20
-4.20097
11
6.52526
21
-4.18891
0
LINE
8
BLACK
6
CONTINUOUS
10
6.52526
20
-4.18891
11
6.52934
21
-4.17635
0
LINE
8
BLACK
6
CONTINUOUS
10
6.52934
20
-4.17635
11
6.53208
21
-4.16344
0
LINE
8
BLACK
6
CONTINUOUS
10
6.53208
20
-4.16344
11
6.53346
21
-4.1503
0
LINE
8
BLACK
6
CONTINUOUS
10
6.53346
20
-4.1503
11
6.53346
21
-4.1437
0
LINE
8
BLACK
6
CONTINUOUS
10
6.53346
20
-4.1437
11
6.53346
21
-2.0374
0
LINE
8
BLACK
6
CONTINUOUS
10
6.53346
20
-2.0374
11
6.53346
21
-2.0308
0
LINE
8
BLACK
6
CONTINUOUS
10
6.53346
20
-2.0308
11
6.53208
21
-2.01767
0
LINE
8
BLACK
6
CONTINUOUS
10
6.53208
20
-2.01767
11
6.52934
21
-2.00475
0
LINE
8
BLACK
6
CONTINUOUS
10
6.52934
20
-2.00475
11
6.52526
21
-1.99219
0
LINE
8
BLACK
6
CONTINUOUS
10
6.52526
20
-1.99219
11
6.51989
21
-1.98013
0
LINE
8
BLACK
6
CONTINUOUS
10
6.51989
20
-1.98013
11
6.51328
21
-1.96869
0
LINE
8
BLACK
6
CONTINUOUS
10
6.51328
20
-1.96869
11
6.50552
21
-1.95801
0
LINE
8
BLACK
6
CONTINUOUS
10
6.50552
20
-1.95801
11
6.49669
21
-1.94819
0
LINE
8
BLACK
6
CONTINUOUS
10
6.49669
20
-1.94819
11
6.48687
21
-1.93936
0
LINE
8
BLACK
6
CONTINUOUS
10
6.48687
20
-1.93936
11
6.47619
21
-1.9316
0
LINE
8
BLACK
6
CONTINUOUS
10
6.47619
20
-1.9316
11
6.46475
21
-1.92499
0
LINE
8
BLACK
6
CONTINUOUS
10
6.46475
20
-1.92499
11
6.45269
21
-1.91962
0
LINE
8
BLACK
6
CONTINUOUS
10
6.45269
20
-1.91962
11
6.44013
21
-1.91554
0
LINE
8
BLACK
6
CONTINUOUS
10
6.44013
20
-1.91554
11
6.42722
21
-1.9128
0
LINE
8
BLACK
6
CONTINUOUS
10
6.42722
20
-1.9128
11
6.41408
21
-1.91142
0
LINE
8
BLACK
6
CONTINUOUS
10
6.41408
20
-1.91142
11
6.40748
21
-1.91142
0
LINE
8
BLACK
6
CONTINUOUS
10
6.40748
20
-1.91142
11
4.69488
21
-1.91142
0
LINE
8
BLACK
6
CONTINUOUS
10
4.69488
20
-1.91142
11
4.6887
21
-1.91142
0
LINE
8
BLACK
6
CONTINUOUS
10
4.6887
20
-1.91142
11
4.67641
21
-1.91263
  0
ENDSEC
  0
EOF
