  0
SECTION
  2
HEADER
  9
$ANGBASE
  50
0.0
  9
$ANGDIR
  70
1
  9
$MEASUREMENT
  70
1
  0
ENDSEC
  0
SECTION
  2
TABLES
  0
TABLE
  2
LTYPE
  70
4
  0
LTYPE
  5
40F
  2
CONTINUOUS
  70
0
  3
Solid line
  72
65
  73
0
  40
0.0
  0
LTYPE
  5
410
  2
DASHDOT
 70
0
  3
Dash Dot ____ _ ____ _
 72
65
 73
4
 40
2.0
 49
1.25
 49
-0.25
 49
0.25
 49
-0.25
  0
LTYPE
  5
411
  2
DASHED
 70
0
  3
Dashed __ __ __ __ __
 72
65
 73
2
 40
0.75
 49
0.5
 49
-0.25
  0
LTYPE
  5
43B
  2
DOTTED
 70
0
  3
Dotted .  .  .  .
 72
65
 73
2
 40
0.2
 49
0.0
 49
-0.2
  0
ENDTAB
  0
TABLE
  2
STYLE
  70
4
  0
STYLE
  2
KICAD
  70
0
  40
0
  41
1
  42
1
  50
0
  71
0
  3
isocp.shx
  0
STYLE
  2
KICADB
  70
0
  40
0
  41
1
  42
1
  50
0
  71
0
  3
isocp.shx
  0
STYLE
  2
KICADI
  70
0
  40
0
  41
1
  42
1
  50
15
  71
0
  3
isocp.shx
  0
STYLE
  2
KICADBI
  70
0
  40
0
  41
1
  42
1
  50
15
  71
0
  3
isocp.shx
  0
ENDTAB
  0
TABLE
  2
LAYER
  70
1
  0
LAYER
  2
BLACK
  70
0
  62
7
  6
CONTINUOUS
  0
ENDTAB
  0
ENDSEC
  0
SECTION
  2
ENTITIES
0
LINE
8
BLACK
6
CONTINUOUS
10
66
20
-48.5
11
166
21
-48.5
0
LINE
8
BLACK
6
CONTINUOUS
10
166
20
-48.5
11
166
21
-108.5
0
LINE
8
BLACK
6
CONTINUOUS
10
166
20
-108.5
11
66
21
-108.5
0
LINE
8
BLACK
6
CONTINUOUS
10
66
20
-108.5
11
66
21
-48.5
0
LINE
8
BLACK
6
CONTINUOUS
10
122.25
20
-87.965
11
122.25
21
-82.965
0
LINE
8
BLACK
6
CONTINUOUS
10
119.75
20
-85.465
11
124.75
21
-85.465
0
LINE
8
BLACK
6
CONTINUOUS
10
91
20
-56.5
11
91
21
-51.5
0
LINE
8
BLACK
6
CONTINUOUS
10
88.5
20
-54
11
93.5
21
-54
0
LINE
8
BLACK
6
CONTINUOUS
10
84.75
20
-74.035
11
84.75
21
-69.035
0
LINE
8
BLACK
6
CONTINUOUS
10
82.25
20
-71.535
11
87.25
21
-71.535
0
LINE
8
BLACK
6
CONTINUOUS
10
72.25
20
-87.965
11
72.25
21
-82.965
0
LINE
8
BLACK
6
CONTINUOUS
10
69.75
20
-85.465
11
74.75
21
-85.465
0
LINE
8
BLACK
6
CONTINUOUS
10
97.25
20
-87.965
11
97.25
21
-82.965
0
LINE
8
BLACK
6
CONTINUOUS
10
94.75
20
-85.465
11
99.75
21
-85.465
0
LINE
8
BLACK
6
CONTINUOUS
10
87.93
20
-97.25
11
87.93
21
-92.25
0
LINE
8
BLACK
6
CONTINUOUS
10
85.43
20
-94.75
11
90.43
21
-94.75
0
LINE
8
BLACK
6
CONTINUOUS
10
91
20
-105.5
11
91
21
-100.5
0
LINE
8
BLACK
6
CONTINUOUS
10
88.5
20
-103
11
93.5
21
-103
0
LINE
8
BLACK
6
CONTINUOUS
10
112.93
20
-97.25
11
112.93
21
-92.25
0
LINE
8
BLACK
6
CONTINUOUS
10
110.43
20
-94.75
11
115.43
21
-94.75
0
LINE
8
BLACK
6
CONTINUOUS
10
109.75
20
-74.035
11
109.75
21
-69.035
0
LINE
8
BLACK
6
CONTINUOUS
10
107.25
20
-71.535
11
112.25
21
-71.535
0
LINE
8
BLACK
6
CONTINUOUS
10
141
20
-56.5
11
141
21
-51.5
0
LINE
8
BLACK
6
CONTINUOUS
10
138.5
20
-54
11
143.5
21
-54
0
LINE
8
BLACK
6
CONTINUOUS
10
134.75
20
-74.035
11
134.75
21
-69.035
0
LINE
8
BLACK
6
CONTINUOUS
10
132.25
20
-71.535
11
137.25
21
-71.535
0
LINE
8
BLACK
6
CONTINUOUS
10
137.93
20
-97.25
11
137.93
21
-92.25
0
LINE
8
BLACK
6
CONTINUOUS
10
135.43
20
-94.75
11
140.43
21
-94.75
0
LINE
8
BLACK
6
CONTINUOUS
10
141
20
-105.5
11
141
21
-100.5
0
LINE
8
BLACK
6
CONTINUOUS
10
138.5
20
-103
11
143.5
21
-103
0
LINE
8
BLACK
6
CONTINUOUS
10
162.93
20
-97.25
11
162.93
21
-92.25
0
LINE
8
BLACK
6
CONTINUOUS
10
160.43
20
-94.75
11
165.43
21
-94.75
0
LINE
8
BLACK
6
CONTINUOUS
10
147.25
20
-87.965
11
147.25
21
-82.965
0
LINE
8
BLACK
6
CONTINUOUS
10
144.75
20
-85.465
11
149.75
21
-85.465
0
LINE
8
BLACK
6
CONTINUOUS
10
159.75
20
-74.035
11
159.75
21
-69.035
0
LINE
8
BLACK
6
CONTINUOUS
10
157.25
20
-71.535
11
162.25
21
-71.535
  0
ENDSEC
  0
EOF
