<?xml version="1.0" encoding="UTF-8" standalone="no"?>
<svg
   version="1.1"
   width="108.276mm"
   height="40.526001mm"
   viewBox="0 0 108.276 40.526"
   id="svg209"
   sodipodi:docname="led_balance-F_Paste.svg"
   inkscape:version="1.3.2 (091e20ef0f, 2023-11-25, custom)"
   xmlns:inkscape="http://www.inkscape.org/namespaces/inkscape"
   xmlns:sodipodi="http://sodipodi.sourceforge.net/DTD/sodipodi-0.dtd"
   xmlns="http://www.w3.org/2000/svg"
   xmlns:svg="http://www.w3.org/2000/svg"
   xmlns:rdf="http://www.w3.org/1999/02/22-rdf-syntax-ns#"
   xmlns:cc="http://creativecommons.org/ns#"
   xmlns:dc="http://purl.org/dc/elements/1.1/">
  <defs
     id="defs209" />
  <sodipodi:namedview
     id="namedview209"
     pagecolor="#ffffff"
     bordercolor="#000000"
     borderopacity="0.25"
     inkscape:showpageshadow="2"
     inkscape:pageopacity="0.0"
     inkscape:pagecheckerboard="0"
     inkscape:deskcolor="#d1d1d1"
     inkscape:document-units="mm"
     inkscape:zoom="1.8612958"
     inkscape:cx="199.86076"
     inkscape:cy="94.289149"
     inkscape:window-width="1920"
     inkscape:window-height="1025"
     inkscape:window-x="0"
     inkscape:window-y="0"
     inkscape:window-maximized="1"
     inkscape:current-layer="g209" />
  <title
     id="title1">SVG Image created as led_balance-F_Paste.svg date 2023/12/16 10:52:37 </title>
  <desc
     id="desc1">Image generated by PCBNEW </desc>
  <g
     style="fill:#000000;fill-opacity:1;stroke:#000000;stroke-linecap:round;stroke-linejoin:round;stroke-opacity:1"
     id="g1"
     transform="translate(-67.361771,-63.236771)" />
  <g
     style="fill:#000000;fill-opacity:0;stroke:#000000;stroke-width:0;stroke-linecap:round;stroke-linejoin:round;stroke-opacity:1"
     id="g209"
     transform="translate(-67.361771,-63.236771)">
    <path
       style="fill:none;fill-opacity:1;fill-rule:evenodd;stroke:#000000;stroke-width:0.0264583;stroke-linecap:round;stroke-linejoin:round;stroke-dasharray:none;stroke-opacity:1"
       d="m 90.359299,98.689223 -0.01903,0.09567 -0.05419,0.08111 -0.08111,0.05419 -0.09567,0.01903 h -0.5 l -0.09567,-0.01903 -0.08111,-0.05419 -0.05419,-0.08111 -0.01903,-0.09567 v -0.5 l 0.01903,-0.09567 0.05419,-0.08111 0.08111,-0.05419 0.09567,-0.01903 h 0.5 l 0.09567,0.01903 0.08111,0.05419 0.05419,0.08111 0.01903,0.09567 z"
       id="path16" />
    <path
       style="fill:none;fill-opacity:1;fill-rule:evenodd;stroke:#000000;stroke-width:0.0264583;stroke-linecap:round;stroke-linejoin:round;stroke-dasharray:none;stroke-opacity:1"
       d="m 87.859299,98.689223 -0.01903,0.09567 -0.05419,0.08111 -0.08111,0.05419 -0.09567,0.01903 h -0.5 l -0.09567,-0.01903 -0.08111,-0.05419 -0.05419,-0.08111 -0.01903,-0.09567 v -0.5 l 0.01903,-0.09567 0.05419,-0.08111 0.08111,-0.05419 0.09567,-0.01903 h 0.5 l 0.09567,0.01903 0.08111,0.05419 0.05419,0.08111 0.01903,0.09567 z"
       id="path17" />
    <path
       style="fill:none;fill-opacity:1;fill-rule:evenodd;stroke:#000000;stroke-width:0.0264583;stroke-linecap:round;stroke-linejoin:round;stroke-dasharray:none;stroke-opacity:1"
       d="m 152.15929,80.239223 h 0.8 v 1.9 h -0.8 z"
       id="path18" />
    <path
       style="fill:none;fill-opacity:1;fill-rule:evenodd;stroke:#000000;stroke-width:0.0264583;stroke-linecap:round;stroke-linejoin:round;stroke-dasharray:none;stroke-opacity:1"
       d="m 150.25929,80.239223 h 0.8 v 1.9 h -0.8 z"
       id="path19" />
    <path
       style="fill:none;fill-opacity:1;fill-rule:evenodd;stroke:#000000;stroke-width:0.0264583;stroke-linecap:round;stroke-linejoin:round;stroke-dasharray:none;stroke-opacity:1"
       d="m 151.20929,83.239223 h 0.8 v 1.9 h -0.8 z"
       id="path20" />
    <path
       style="fill:none;fill-opacity:1;fill-rule:evenodd;stroke:#000000;stroke-width:0.0264583;stroke-linecap:round;stroke-linejoin:round;stroke-dasharray:none;stroke-opacity:1"
       d="m 148.98429,77.989223 0.0957,0.01903 0.0811,0.05419 0.0542,0.08111 0.019,0.09567 v 0.8 l -0.019,0.09567 -0.0542,0.08111 -0.0811,0.05419 -0.0957,0.01903 h -1.25 l -0.0957,-0.01903 -0.0811,-0.05419 -0.0542,-0.08111 -0.019,-0.09567 v -0.8 l 0.019,-0.09567 0.0542,-0.08111 0.0811,-0.05419 0.0957,-0.01903 z"
       id="path22" />
    <path
       style="fill:none;fill-opacity:1;fill-rule:evenodd;stroke:#000000;stroke-width:0.0264583;stroke-linecap:round;stroke-linejoin:round;stroke-dasharray:none;stroke-opacity:1"
       d="m 148.98429,81.089223 0.0957,0.01903 0.0811,0.05419 0.0542,0.08111 0.019,0.09567 v 0.8 l -0.019,0.09567 -0.0542,0.08111 -0.0811,0.05419 -0.0957,0.01903 h -1.25 l -0.0957,-0.01903 -0.0811,-0.05419 -0.0542,-0.08111 -0.019,-0.09567 v -0.8 l 0.019,-0.09567 0.0542,-0.08111 0.0811,-0.05419 0.0957,-0.01903 z"
       id="path23" />
    <path
       style="fill:none;fill-opacity:1;fill-rule:evenodd;stroke:#000000;stroke-width:0.0264583;stroke-linecap:round;stroke-linejoin:round;stroke-dasharray:none;stroke-opacity:1"
       d="m 140.45929,96.639223 -0.019,0.09567 -0.0542,0.08111 -0.0811,0.05419 -0.0957,0.01903 h -0.7 l -0.0957,-0.01903 -0.0811,-0.05419 -0.0542,-0.08111 -0.019,-0.09567 v -0.9 l 0.019,-0.09567 0.0542,-0.08111 0.0811,-0.05419 0.0957,-0.01903 h 0.7 l 0.0957,0.01903 0.0811,0.05419 0.0542,0.08111 0.019,0.09567 z"
       id="path25" />
    <path
       style="fill:none;fill-opacity:1;fill-rule:evenodd;stroke:#000000;stroke-width:0.0264583;stroke-linecap:round;stroke-linejoin:round;stroke-dasharray:none;stroke-opacity:1"
       d="m 138.45929,96.639223 -0.019,0.09567 -0.0542,0.08111 -0.0811,0.05419 -0.0957,0.01903 h -0.7 l -0.0957,-0.01903 -0.0811,-0.05419 -0.0542,-0.08111 -0.019,-0.09567 v -0.9 l 0.019,-0.09567 0.0542,-0.08111 0.0811,-0.05419 0.0957,-0.01903 h 0.7 l 0.0957,0.01903 0.0811,0.05419 0.0542,0.08111 0.019,0.09567 z"
       id="path26" />
    <path
       style="fill:none;fill-opacity:1;fill-rule:evenodd;stroke:#000000;stroke-width:0.0264583;stroke-linecap:round;stroke-linejoin:round;stroke-dasharray:none;stroke-opacity:1"
       d="m 80.059299,82.889223 h -0.8 v -1.9 h 0.8 z"
       id="path29" />
    <path
       style="fill:none;fill-opacity:1;fill-rule:evenodd;stroke:#000000;stroke-width:0.0264583;stroke-linecap:round;stroke-linejoin:round;stroke-dasharray:none;stroke-opacity:1"
       d="m 81.959299,82.889223 h -0.8 v -1.9 h 0.8 z"
       id="path30" />
    <path
       style="fill:none;fill-opacity:1;fill-rule:evenodd;stroke:#000000;stroke-width:0.0264583;stroke-linecap:round;stroke-linejoin:round;stroke-dasharray:none;stroke-opacity:1"
       d="m 81.009299,79.889223 h -0.8 v -1.9 h 0.8 z"
       id="path31" />
    <path
       style="fill:none;fill-opacity:1;fill-rule:evenodd;stroke:#000000;stroke-width:0.0264583;stroke-linecap:round;stroke-linejoin:round;stroke-dasharray:none;stroke-opacity:1"
       d="m 167.20929,89.139223 -0.019,0.09567 -0.0542,0.08111 -0.0811,0.05419 -0.0957,0.01903 h -0.7 l -0.0957,-0.01903 -0.0811,-0.05419 -0.0542,-0.08111 -0.019,-0.09567 v -0.9 l 0.019,-0.09567 0.0542,-0.08111 0.0811,-0.05419 0.0957,-0.01903 h 0.7 l 0.0957,0.01903 0.0811,0.05419 0.0542,0.08111 0.019,0.09567 z"
       id="path32" />
    <path
       style="fill:none;fill-opacity:1;fill-rule:evenodd;stroke:#000000;stroke-width:0.0264583;stroke-linecap:round;stroke-linejoin:round;stroke-dasharray:none;stroke-opacity:1"
       d="m 165.20929,89.139223 -0.019,0.09567 -0.0542,0.08111 -0.0811,0.05419 -0.0957,0.01903 h -0.7 l -0.0957,-0.01903 -0.0811,-0.05419 -0.0542,-0.08111 -0.019,-0.09567 v -0.9 l 0.019,-0.09567 0.0542,-0.08111 0.0811,-0.05419 0.0957,-0.01903 h 0.7 l 0.0957,0.01903 0.0811,0.05419 0.0542,0.08111 0.019,0.09567 z"
       id="path33" />
    <path
       style="fill:none;fill-opacity:1;fill-rule:evenodd;stroke:#000000;stroke-width:0.0264583;stroke-linecap:round;stroke-linejoin:round;stroke-dasharray:none;stroke-opacity:1"
       d="m 142.20929,89.139223 -0.019,0.09567 -0.0542,0.08111 -0.0811,0.05419 -0.0957,0.01903 h -0.7 l -0.0957,-0.01903 -0.0811,-0.05419 -0.0542,-0.08111 -0.019,-0.09567 v -0.9 l 0.019,-0.09567 0.0542,-0.08111 0.0811,-0.05419 0.0957,-0.01903 h 0.7 l 0.0957,0.01903 0.0811,0.05419 0.0542,0.08111 0.019,0.09567 z"
       id="path35" />
    <path
       style="fill:none;fill-opacity:1;fill-rule:evenodd;stroke:#000000;stroke-width:0.0264583;stroke-linecap:round;stroke-linejoin:round;stroke-dasharray:none;stroke-opacity:1"
       d="m 140.20929,89.139223 -0.019,0.09567 -0.0542,0.08111 -0.0811,0.05419 -0.0957,0.01903 h -0.7 l -0.0957,-0.01903 -0.0811,-0.05419 -0.0542,-0.08111 -0.019,-0.09567 v -0.9 l 0.019,-0.09567 0.0542,-0.08111 0.0811,-0.05419 0.0957,-0.01903 h 0.7 l 0.0957,0.01903 0.0811,0.05419 0.0542,0.08111 0.019,0.09567 z"
       id="path36" />
    <path
       style="fill:none;fill-opacity:1;fill-rule:evenodd;stroke:#000000;stroke-width:0.0264583;stroke-linecap:round;stroke-linejoin:round;stroke-dasharray:none;stroke-opacity:1"
       d="m 115.45929,96.639223 -0.019,0.09567 -0.0542,0.08111 -0.0811,0.05419 -0.0957,0.01903 h -0.7 l -0.0957,-0.01903 -0.0811,-0.05419 -0.0542,-0.08111 -0.019,-0.09567 v -0.9 l 0.019,-0.09567 0.0542,-0.08111 0.0811,-0.05419 0.0957,-0.01903 h 0.7 l 0.0957,0.01903 0.0811,0.05419 0.0542,0.08111 0.019,0.09567 z"
       id="path37" />
    <path
       style="fill:none;fill-opacity:1;fill-rule:evenodd;stroke:#000000;stroke-width:0.0264583;stroke-linecap:round;stroke-linejoin:round;stroke-dasharray:none;stroke-opacity:1"
       d="m 113.45929,96.639223 -0.019,0.09567 -0.0542,0.08111 -0.0811,0.05419 -0.0957,0.01903 h -0.7 l -0.0957,-0.01903 -0.0811,-0.05419 -0.0542,-0.08111 -0.019,-0.09567 v -0.9 l 0.019,-0.09567 0.0542,-0.08111 0.0811,-0.05419 0.0957,-0.01903 h 0.7 l 0.0957,0.01903 0.0811,0.05419 0.0542,0.08111 0.019,0.09567 z"
       id="path38" />
    <path
       style="fill:none;fill-opacity:1;fill-rule:evenodd;stroke:#000000;stroke-width:0.0264583;stroke-linecap:round;stroke-linejoin:round;stroke-dasharray:none;stroke-opacity:1"
       d="m 165.05929,87.139223 h -0.8 v -1.9 h 0.8 z"
       id="path39" />
    <path
       style="fill:none;fill-opacity:1;fill-rule:evenodd;stroke:#000000;stroke-width:0.0264583;stroke-linecap:round;stroke-linejoin:round;stroke-dasharray:none;stroke-opacity:1"
       d="m 166.95929,87.139223 h -0.8 v -1.9 h 0.8 z"
       id="path40" />
    <path
       style="fill:none;fill-opacity:1;fill-rule:evenodd;stroke:#000000;stroke-width:0.0264583;stroke-linecap:round;stroke-linejoin:round;stroke-dasharray:none;stroke-opacity:1"
       d="m 166.00929,84.139223 h -0.8 v -1.9 h 0.8 z"
       id="path41" />
    <path
       style="fill:none;fill-opacity:1;fill-rule:evenodd;stroke:#000000;stroke-width:0.0264583;stroke-linecap:round;stroke-linejoin:round;stroke-dasharray:none;stroke-opacity:1"
       d="m 123.98429,77.989223 0.0957,0.01903 0.0811,0.05419 0.0542,0.08111 0.019,0.09567 v 0.8 l -0.019,0.09567 -0.0542,0.08111 -0.0811,0.05419 -0.0957,0.01903 h -1.25 l -0.0957,-0.01903 -0.0811,-0.05419 -0.0542,-0.08111 -0.019,-0.09567 v -0.8 l 0.019,-0.09567 0.0542,-0.08111 0.0811,-0.05419 0.0957,-0.01903 z"
       id="path42" />
    <path
       style="fill:none;fill-opacity:1;fill-rule:evenodd;stroke:#000000;stroke-width:0.0264583;stroke-linecap:round;stroke-linejoin:round;stroke-dasharray:none;stroke-opacity:1"
       d="m 123.98429,81.089223 0.0957,0.01903 0.0811,0.05419 0.0542,0.08111 0.019,0.09567 v 0.8 l -0.019,0.09567 -0.0542,0.08111 -0.0811,0.05419 -0.0957,0.01903 h -1.25 l -0.0957,-0.01903 -0.0811,-0.05419 -0.0542,-0.08111 -0.019,-0.09567 v -0.8 l 0.019,-0.09567 0.0542,-0.08111 0.0811,-0.05419 0.0957,-0.01903 z"
       id="path43" />
    <path
       style="fill:none;fill-opacity:1;fill-rule:evenodd;stroke:#000000;stroke-width:0.0264583;stroke-linecap:round;stroke-linejoin:round;stroke-dasharray:none;stroke-opacity:1"
       d="m 90.059299,87.139223 h -0.8 v -1.9 h 0.8 z"
       id="path44" />
    <path
       style="fill:none;fill-opacity:1;fill-rule:evenodd;stroke:#000000;stroke-width:0.0264583;stroke-linecap:round;stroke-linejoin:round;stroke-dasharray:none;stroke-opacity:1"
       d="m 91.959299,87.139223 h -0.8 v -1.9 h 0.8 z"
       id="path45" />
    <path
       style="fill:none;fill-opacity:1;fill-rule:evenodd;stroke:#000000;stroke-width:0.0264583;stroke-linecap:round;stroke-linejoin:round;stroke-dasharray:none;stroke-opacity:1"
       d="m 91.009299,84.139223 h -0.8 v -1.9 h 0.8 z"
       id="path46" />
    <path
       style="fill:none;fill-opacity:1;fill-rule:evenodd;stroke:#000000;stroke-width:0.0264583;stroke-linecap:round;stroke-linejoin:round;stroke-dasharray:none;stroke-opacity:1"
       d="m 118.23429,89.389223 -0.0957,-0.01903 -0.0811,-0.05419 -0.0542,-0.08111 -0.019,-0.09567 v -0.8 l 0.019,-0.09567 0.0542,-0.08111 0.0811,-0.05419 0.0957,-0.01903 h 1.25 l 0.0957,0.01903 0.0811,0.05419 0.0542,0.08111 0.019,0.09567 v 0.8 l -0.019,0.09567 -0.0542,0.08111 -0.0811,0.05419 -0.0957,0.01903 z"
       id="path47" />
    <path
       style="fill:none;fill-opacity:1;fill-rule:evenodd;stroke:#000000;stroke-width:0.0264583;stroke-linecap:round;stroke-linejoin:round;stroke-dasharray:none;stroke-opacity:1"
       d="m 118.23429,86.289223 -0.0957,-0.01903 -0.0811,-0.05419 -0.0542,-0.08111 -0.019,-0.09567 v -0.8 l 0.019,-0.09567 0.0542,-0.08111 0.0811,-0.05419 0.0957,-0.01903 h 1.25 l 0.0957,0.01903 0.0811,0.05419 0.0542,0.08111 0.019,0.09567 v 0.8 l -0.019,0.09567 -0.0542,0.08111 -0.0811,0.05419 -0.0957,0.01903 z"
       id="path48" />
    <path
       style="fill:none;fill-opacity:1;fill-rule:evenodd;stroke:#000000;stroke-width:0.0264583;stroke-linecap:round;stroke-linejoin:round;stroke-dasharray:none;stroke-opacity:1"
       d="m 110.00929,82.489223 0.019,-0.09567 0.0542,-0.08111 0.0811,-0.05419 0.0957,-0.01903 h 0.7 l 0.0957,0.01903 0.0811,0.05419 0.0542,0.08111 0.019,0.09567 v 0.9 l -0.019,0.09567 -0.0542,0.08111 -0.0811,0.05419 -0.0957,0.01903 h -0.7 l -0.0957,-0.01903 -0.0811,-0.05419 -0.0542,-0.08111 -0.019,-0.09567 z"
       id="path50" />
    <path
       style="fill:none;fill-opacity:1;fill-rule:evenodd;stroke:#000000;stroke-width:0.0264583;stroke-linecap:round;stroke-linejoin:round;stroke-dasharray:none;stroke-opacity:1"
       d="m 112.00929,82.489223 0.019,-0.09567 0.0542,-0.08111 0.0811,-0.05419 0.0957,-0.01903 h 0.7 l 0.0957,0.01903 0.0811,0.05419 0.0542,0.08111 0.019,0.09567 v 0.9 l -0.019,0.09567 -0.0542,0.08111 -0.0811,0.05419 -0.0957,0.01903 h -0.7 l -0.0957,-0.01903 -0.0811,-0.05419 -0.0542,-0.08111 -0.019,-0.09567 z"
       id="path51" />
    <path
       style="fill:none;fill-opacity:1;fill-rule:evenodd;stroke:#000000;stroke-width:0.0264583;stroke-linecap:round;stroke-linejoin:round;stroke-dasharray:none;stroke-opacity:1"
       d="m 90.459299,96.639223 -0.01903,0.09567 -0.05419,0.08111 -0.08111,0.05419 -0.09567,0.01903 h -0.7 l -0.09567,-0.01903 -0.08111,-0.05419 -0.05419,-0.08111 -0.01903,-0.09567 v -0.9 l 0.01903,-0.09567 0.05419,-0.08111 0.08111,-0.05419 0.09567,-0.01903 h 0.7 l 0.09567,0.01903 0.08111,0.05419 0.05419,0.08111 0.01903,0.09567 z"
       id="path53" />
    <path
       style="fill:none;fill-opacity:1;fill-rule:evenodd;stroke:#000000;stroke-width:0.0264583;stroke-linecap:round;stroke-linejoin:round;stroke-dasharray:none;stroke-opacity:1"
       d="m 88.459299,96.639223 -0.01903,0.09567 -0.05419,0.08111 -0.08111,0.05419 -0.09567,0.01903 h -0.7 l -0.09567,-0.01903 -0.08111,-0.05419 -0.05419,-0.08111 -0.01903,-0.09567 v -0.9 l 0.01903,-0.09567 0.05419,-0.08111 0.08111,-0.05419 0.09567,-0.01903 h 0.7 l 0.09567,0.01903 0.08111,0.05419 0.05419,0.08111 0.01903,0.09567 z"
       id="path54" />
    <path
       style="fill:none;fill-opacity:1;fill-rule:evenodd;stroke:#000000;stroke-width:0.0264583;stroke-linecap:round;stroke-linejoin:round;stroke-dasharray:none;stroke-opacity:1"
       d="m 148.10929,86.689223 -0.0957,-0.01903 -0.0811,-0.05419 -0.0542,-0.08111 -0.019,-0.09567 v -0.5 l 0.019,-0.09567 0.0542,-0.08111 0.0811,-0.05419 0.0957,-0.01903 h 0.5 l 0.0957,0.01903 0.0811,0.05419 0.0542,0.08111 0.019,0.09567 v 0.5 l -0.019,0.09567 -0.0542,0.08111 -0.0811,0.05419 -0.0957,0.01903 z"
       id="path55" />
    <path
       style="fill:none;fill-opacity:1;fill-rule:evenodd;stroke:#000000;stroke-width:0.0264583;stroke-linecap:round;stroke-linejoin:round;stroke-dasharray:none;stroke-opacity:1"
       d="m 148.10929,84.189223 -0.0957,-0.01903 -0.0811,-0.05419 -0.0542,-0.08111 -0.019,-0.09567 v -0.5 l 0.019,-0.09567 0.0542,-0.08111 0.0811,-0.05419 0.0957,-0.01903 h 0.5 l 0.0957,0.01903 0.0811,0.05419 0.0542,0.08111 0.019,0.09567 v 0.5 l -0.019,0.09567 -0.0542,0.08111 -0.0811,0.05419 -0.0957,0.01903 z"
       id="path56" />
    <path
       style="fill:none;fill-opacity:1;fill-rule:evenodd;stroke:#000000;stroke-width:0.0264583;stroke-linecap:round;stroke-linejoin:round;stroke-dasharray:none;stroke-opacity:1"
       d="m 125.00929,78.239223 0.019,-0.09567 0.0542,-0.08111 0.0811,-0.05419 0.0957,-0.01903 h 0.7 l 0.0957,0.01903 0.0811,0.05419 0.0542,0.08111 0.019,0.09567 v 0.9 l -0.019,0.09567 -0.0542,0.08111 -0.0811,0.05419 -0.0957,0.01903 h -0.7 l -0.0957,-0.01903 -0.0811,-0.05419 -0.0542,-0.08111 -0.019,-0.09567 z"
       id="path60" />
    <path
       style="fill:none;fill-opacity:1;fill-rule:evenodd;stroke:#000000;stroke-width:0.0264583;stroke-linecap:round;stroke-linejoin:round;stroke-dasharray:none;stroke-opacity:1"
       d="m 127.00929,78.239223 0.019,-0.09567 0.0542,-0.08111 0.0811,-0.05419 0.0957,-0.01903 h 0.7 l 0.0957,0.01903 0.0811,0.05419 0.0542,0.08111 0.019,0.09567 v 0.9 l -0.019,0.09567 -0.0542,0.08111 -0.0811,0.05419 -0.0957,0.01903 h -0.7 l -0.0957,-0.01903 -0.0811,-0.05419 -0.0542,-0.08111 -0.019,-0.09567 z"
       id="path61" />
    <path
       style="fill:none;fill-opacity:1;fill-rule:evenodd;stroke:#000000;stroke-width:0.0264583;stroke-linecap:round;stroke-linejoin:round;stroke-dasharray:none;stroke-opacity:1"
       d="m 140.05929,87.139223 h -0.8 v -1.9 h 0.8 z"
       id="path62" />
    <path
       style="fill:none;fill-opacity:1;fill-rule:evenodd;stroke:#000000;stroke-width:0.0264583;stroke-linecap:round;stroke-linejoin:round;stroke-dasharray:none;stroke-opacity:1"
       d="m 141.95929,87.139223 h -0.8 v -1.9 h 0.8 z"
       id="path63" />
    <path
       style="fill:none;fill-opacity:1;fill-rule:evenodd;stroke:#000000;stroke-width:0.0264583;stroke-linecap:round;stroke-linejoin:round;stroke-dasharray:none;stroke-opacity:1"
       d="m 141.00929,84.139223 h -0.8 v -1.9 h 0.8 z"
       id="path64" />
    <path
       style="fill:none;fill-opacity:1;fill-rule:evenodd;stroke:#000000;stroke-width:0.0264583;stroke-linecap:round;stroke-linejoin:round;stroke-dasharray:none;stroke-opacity:1"
       d="m 144.10929,80.689223 0.0957,0.01903 0.0811,0.05419 0.0542,0.08111 0.019,0.09567 v 0.5 l -0.019,0.09567 -0.0542,0.08111 -0.0811,0.05419 -0.0957,0.01903 h -0.5 l -0.0957,-0.01903 -0.0811,-0.05419 -0.0542,-0.08111 -0.019,-0.09567 v -0.5 l 0.019,-0.09567 0.0542,-0.08111 0.0811,-0.05419 0.0957,-0.01903 z"
       id="path65" />
    <path
       style="fill:none;fill-opacity:1;fill-rule:evenodd;stroke:#000000;stroke-width:0.0264583;stroke-linecap:round;stroke-linejoin:round;stroke-dasharray:none;stroke-opacity:1"
       d="m 144.10929,83.189223 0.0957,0.01903 0.0811,0.05419 0.0542,0.08111 0.019,0.09567 v 0.5 l -0.019,0.09567 -0.0542,0.08111 -0.0811,0.05419 -0.0957,0.01903 h -0.5 l -0.0957,-0.01903 -0.0811,-0.05419 -0.0542,-0.08111 -0.019,-0.09567 v -0.5 l 0.019,-0.09567 0.0542,-0.08111 0.0811,-0.05419 0.0957,-0.01903 z"
       id="path66" />
    <path
       style="fill:none;fill-opacity:1;fill-rule:evenodd;stroke:#000000;stroke-width:0.0264583;stroke-linecap:round;stroke-linejoin:round;stroke-dasharray:none;stroke-opacity:1"
       d="m 115.05929,87.139223 h -0.8 v -1.9 h 0.8 z"
       id="path70" />
    <path
       style="fill:none;fill-opacity:1;fill-rule:evenodd;stroke:#000000;stroke-width:0.0264583;stroke-linecap:round;stroke-linejoin:round;stroke-dasharray:none;stroke-opacity:1"
       d="m 116.95929,87.139223 h -0.8 v -1.9 h 0.8 z"
       id="path71" />
    <path
       style="fill:none;fill-opacity:1;fill-rule:evenodd;stroke:#000000;stroke-width:0.0264583;stroke-linecap:round;stroke-linejoin:round;stroke-dasharray:none;stroke-opacity:1"
       d="m 116.00929,84.139223 h -0.8 v -1.9 h 0.8 z"
       id="path72" />
    <path
       style="fill:none;fill-opacity:1;fill-rule:evenodd;stroke:#000000;stroke-width:0.0264583;stroke-linecap:round;stroke-linejoin:round;stroke-dasharray:none;stroke-opacity:1"
       d="m 107.20929,84.889223 -0.019,0.09567 -0.0542,0.08111 -0.0811,0.05419 -0.0957,0.01903 h -0.7 l -0.0957,-0.01903 -0.0811,-0.05419 -0.0542,-0.08111 -0.019,-0.09567 v -0.9 l 0.019,-0.09567 0.0542,-0.08111 0.0811,-0.05419 0.0957,-0.01903 h 0.7 l 0.0957,0.01903 0.0811,0.05419 0.0542,0.08111 0.019,0.09567 z"
       id="path73" />
    <path
       style="fill:none;fill-opacity:1;fill-rule:evenodd;stroke:#000000;stroke-width:0.0264583;stroke-linecap:round;stroke-linejoin:round;stroke-dasharray:none;stroke-opacity:1"
       d="m 105.20929,84.889223 -0.019,0.09567 -0.0542,0.08111 -0.0811,0.05419 -0.0957,0.01903 h -0.7 l -0.0957,-0.01903 -0.0811,-0.05419 -0.0542,-0.08111 -0.019,-0.09567 v -0.9 l 0.019,-0.09567 0.0542,-0.08111 0.0811,-0.05419 0.0957,-0.01903 h 0.7 l 0.0957,0.01903 0.0811,0.05419 0.0542,0.08111 0.019,0.09567 z"
       id="path74" />
    <path
       style="fill:none;fill-opacity:1;fill-rule:evenodd;stroke:#000000;stroke-width:0.0264583;stroke-linecap:round;stroke-linejoin:round;stroke-dasharray:none;stroke-opacity:1"
       d="m 155.05929,82.889223 h -0.8 v -1.9 h 0.8 z"
       id="path75" />
    <path
       style="fill:none;fill-opacity:1;fill-rule:evenodd;stroke:#000000;stroke-width:0.0264583;stroke-linecap:round;stroke-linejoin:round;stroke-dasharray:none;stroke-opacity:1"
       d="m 156.95929,82.889223 h -0.8 v -1.9 h 0.8 z"
       id="path76" />
    <path
       style="fill:none;fill-opacity:1;fill-rule:evenodd;stroke:#000000;stroke-width:0.0264583;stroke-linecap:round;stroke-linejoin:round;stroke-dasharray:none;stroke-opacity:1"
       d="m 156.00929,79.889223 h -0.8 v -1.9 h 0.8 z"
       id="path77" />
    <path
       style="fill:none;fill-opacity:1;fill-rule:evenodd;stroke:#000000;stroke-width:0.0264583;stroke-linecap:round;stroke-linejoin:round;stroke-dasharray:none;stroke-opacity:1"
       d="m 82.209299,84.889223 -0.01903,0.09567 -0.05419,0.08111 -0.08111,0.05419 -0.09567,0.01903 h -0.7 l -0.09567,-0.01903 -0.08111,-0.05419 -0.05419,-0.08111 -0.01903,-0.09567 v -0.9 l 0.01903,-0.09567 0.05419,-0.08111 0.08111,-0.05419 0.09567,-0.01903 h 0.7 l 0.09567,0.01903 0.08111,0.05419 0.05419,0.08111 0.01903,0.09567 z"
       id="path79" />
    <path
       style="fill:none;fill-opacity:1;fill-rule:evenodd;stroke:#000000;stroke-width:0.0264583;stroke-linecap:round;stroke-linejoin:round;stroke-dasharray:none;stroke-opacity:1"
       d="m 80.209299,84.889223 -0.01903,0.09567 -0.05419,0.08111 -0.08111,0.05419 -0.09567,0.01903 h -0.7 l -0.09567,-0.01903 -0.08111,-0.05419 -0.05419,-0.08111 -0.01903,-0.09567 v -0.9 l 0.01903,-0.09567 0.05419,-0.08111 0.08111,-0.05419 0.09567,-0.01903 h 0.7 l 0.09567,0.01903 0.08111,0.05419 0.05419,0.08111 0.01903,0.09567 z"
       id="path80" />
    <path
       style="fill:none;fill-opacity:1;fill-rule:evenodd;stroke:#000000;stroke-width:0.0264583;stroke-linecap:round;stroke-linejoin:round;stroke-dasharray:none;stroke-opacity:1"
       d="m 126.85929,68.689223 0.019,-0.09567 0.0542,-0.08111 0.0811,-0.05419 0.0957,-0.01903 h 0.5 l 0.0957,0.01903 0.0811,0.05419 0.0542,0.08111 0.019,0.09567 v 0.5 l -0.019,0.09567 -0.0542,0.08111 -0.0811,0.05419 -0.0957,0.01903 h -0.5 l -0.0957,-0.01903 -0.0811,-0.05419 -0.0542,-0.08111 -0.019,-0.09567 z"
       id="path81" />
    <path
       style="fill:none;fill-opacity:1;fill-rule:evenodd;stroke:#000000;stroke-width:0.0264583;stroke-linecap:round;stroke-linejoin:round;stroke-dasharray:none;stroke-opacity:1"
       d="m 129.35929,68.689223 0.019,-0.09567 0.0542,-0.08111 0.0811,-0.05419 0.0957,-0.01903 h 0.5 l 0.0957,0.01903 0.0811,0.05419 0.0542,0.08111 0.019,0.09567 v 0.5 l -0.019,0.09567 -0.0542,0.08111 -0.0811,0.05419 -0.0957,0.01903 h -0.5 l -0.0957,-0.01903 -0.0811,-0.05419 -0.0542,-0.08111 -0.019,-0.09567 z"
       id="path82" />
    <path
       style="fill:none;fill-opacity:1;fill-rule:evenodd;stroke:#000000;stroke-width:0.0264583;stroke-linecap:round;stroke-linejoin:round;stroke-dasharray:none;stroke-opacity:1"
       d="m 135.00929,82.489223 0.019,-0.09567 0.0542,-0.08111 0.0811,-0.05419 0.0957,-0.01903 h 0.7 l 0.0957,0.01903 0.0811,0.05419 0.0542,0.08111 0.019,0.09567 v 0.9 l -0.019,0.09567 -0.0542,0.08111 -0.0811,0.05419 -0.0957,0.01903 h -0.7 l -0.0957,-0.01903 -0.0811,-0.05419 -0.0542,-0.08111 -0.019,-0.09567 z"
       id="path84" />
    <path
       style="fill:none;fill-opacity:1;fill-rule:evenodd;stroke:#000000;stroke-width:0.0264583;stroke-linecap:round;stroke-linejoin:round;stroke-dasharray:none;stroke-opacity:1"
       d="m 137.00929,82.489223 0.019,-0.09567 0.0542,-0.08111 0.0811,-0.05419 0.0957,-0.01903 h 0.7 l 0.0957,0.01903 0.0811,0.05419 0.0542,0.08111 0.019,0.09567 v 0.9 l -0.019,0.09567 -0.0542,0.08111 -0.0811,0.05419 -0.0957,0.01903 h -0.7 l -0.0957,-0.01903 -0.0811,-0.05419 -0.0542,-0.08111 -0.019,-0.09567 z"
       id="path85" />
    <path
       style="fill:none;fill-opacity:1;fill-rule:evenodd;stroke:#000000;stroke-width:0.0264583;stroke-linecap:round;stroke-linejoin:round;stroke-dasharray:none;stroke-opacity:1"
       d="m 105.05929,82.889223 h -0.8 v -1.9 h 0.8 z"
       id="path87" />
    <path
       style="fill:none;fill-opacity:1;fill-rule:evenodd;stroke:#000000;stroke-width:0.0264583;stroke-linecap:round;stroke-linejoin:round;stroke-dasharray:none;stroke-opacity:1"
       d="m 106.95929,82.889223 h -0.8 v -1.9 h 0.8 z"
       id="path88" />
    <path
       style="fill:none;fill-opacity:1;fill-rule:evenodd;stroke:#000000;stroke-width:0.0264583;stroke-linecap:round;stroke-linejoin:round;stroke-dasharray:none;stroke-opacity:1"
       d="m 106.00929,79.889223 h -0.8 v -1.9 h 0.8 z"
       id="path89" />
    <path
       style="fill:none;fill-opacity:1;fill-rule:evenodd;stroke:#000000;stroke-width:0.0264583;stroke-linecap:round;stroke-linejoin:round;stroke-dasharray:none;stroke-opacity:1"
       d="m 127.15929,80.239223 h 0.8 v 1.9 h -0.8 z"
       id="path90" />
    <path
       style="fill:none;fill-opacity:1;fill-rule:evenodd;stroke:#000000;stroke-width:0.0264583;stroke-linecap:round;stroke-linejoin:round;stroke-dasharray:none;stroke-opacity:1"
       d="m 125.25929,80.239223 h 0.8 v 1.9 h -0.8 z"
       id="path91" />
    <path
       style="fill:none;fill-opacity:1;fill-rule:evenodd;stroke:#000000;stroke-width:0.0264583;stroke-linecap:round;stroke-linejoin:round;stroke-dasharray:none;stroke-opacity:1"
       d="m 126.20929,83.239223 h 0.8 v 1.9 h -0.8 z"
       id="path92" />
    <path
       style="fill:none;fill-opacity:1;fill-rule:evenodd;stroke:#000000;stroke-width:0.0264583;stroke-linecap:round;stroke-linejoin:round;stroke-dasharray:none;stroke-opacity:1"
       d="m 157.20929,84.889223 -0.019,0.09567 -0.0542,0.08111 -0.0811,0.05419 -0.0957,0.01903 h -0.7 l -0.0957,-0.01903 -0.0811,-0.05419 -0.0542,-0.08111 -0.019,-0.09567 v -0.9 l 0.019,-0.09567 0.0542,-0.08111 0.0811,-0.05419 0.0957,-0.01903 h 0.7 l 0.0957,0.01903 0.0811,0.05419 0.0542,0.08111 0.019,0.09567 z"
       id="path94" />
    <path
       style="fill:none;fill-opacity:1;fill-rule:evenodd;stroke:#000000;stroke-width:0.0264583;stroke-linecap:round;stroke-linejoin:round;stroke-dasharray:none;stroke-opacity:1"
       d="m 155.20929,84.889223 -0.019,0.09567 -0.0542,0.08111 -0.0811,0.05419 -0.0957,0.01903 h -0.7 l -0.0957,-0.01903 -0.0811,-0.05419 -0.0542,-0.08111 -0.019,-0.09567 v -0.9 l 0.019,-0.09567 0.0542,-0.08111 0.0811,-0.05419 0.0957,-0.01903 h 0.7 l 0.0957,0.01903 0.0811,0.05419 0.0542,0.08111 0.019,0.09567 z"
       id="path95" />
    <path
       style="fill:none;fill-opacity:1;fill-rule:evenodd;stroke:#000000;stroke-width:0.0264583;stroke-linecap:round;stroke-linejoin:round;stroke-dasharray:none;stroke-opacity:1"
       d="m 94.109299,80.689223 0.09567,0.01903 0.08111,0.05419 0.05419,0.08111 0.01903,0.09567 v 0.5 l -0.01903,0.09567 -0.05419,0.08111 -0.08111,0.05419 -0.09567,0.01903 h -0.5 l -0.09567,-0.01903 -0.08111,-0.05419 -0.05419,-0.08111 -0.01903,-0.09567 v -0.5 l 0.01903,-0.09567 0.05419,-0.08111 0.08111,-0.05419 0.09567,-0.01903 z"
       id="path96" />
    <path
       style="fill:none;fill-opacity:1;fill-rule:evenodd;stroke:#000000;stroke-width:0.0264583;stroke-linecap:round;stroke-linejoin:round;stroke-dasharray:none;stroke-opacity:1"
       d="m 94.109299,83.189223 0.09567,0.01903 0.08111,0.05419 0.05419,0.08111 0.01903,0.09567 v 0.5 l -0.01903,0.09567 -0.05419,0.08111 -0.08111,0.05419 -0.09567,0.01903 h -0.5 l -0.09567,-0.01903 -0.08111,-0.05419 -0.05419,-0.08111 -0.01903,-0.09567 v -0.5 l 0.01903,-0.09567 0.05419,-0.08111 0.08111,-0.05419 0.09567,-0.01903 z"
       id="path97" />
    <path
       style="fill:none;fill-opacity:1;fill-rule:evenodd;stroke:#000000;stroke-width:0.0264583;stroke-linecap:round;stroke-linejoin:round;stroke-dasharray:none;stroke-opacity:1"
       d="m 160.00929,82.489223 0.019,-0.09567 0.0542,-0.08111 0.0811,-0.05419 0.0957,-0.01903 h 0.7 l 0.0957,0.01903 0.0811,0.05419 0.0542,0.08111 0.019,0.09567 v 0.9 l -0.019,0.09567 -0.0542,0.08111 -0.0811,0.05419 -0.0957,0.01903 h -0.7 l -0.0957,-0.01903 -0.0811,-0.05419 -0.0542,-0.08111 -0.019,-0.09567 z"
       id="path100" />
    <path
       style="fill:none;fill-opacity:1;fill-rule:evenodd;stroke:#000000;stroke-width:0.0264583;stroke-linecap:round;stroke-linejoin:round;stroke-dasharray:none;stroke-opacity:1"
       d="m 162.00929,82.489223 0.019,-0.09567 0.0542,-0.08111 0.0811,-0.05419 0.0957,-0.01903 h 0.7 l 0.0957,0.01903 0.0811,0.05419 0.0542,0.08111 0.019,0.09567 v 0.9 l -0.019,0.09567 -0.0542,0.08111 -0.0811,0.05419 -0.0957,0.01903 h -0.7 l -0.0957,-0.01903 -0.0811,-0.05419 -0.0542,-0.08111 -0.019,-0.09567 z"
       id="path101" />
    <path
       style="fill:none;fill-opacity:1;fill-rule:evenodd;stroke:#000000;stroke-width:0.0264583;stroke-linecap:round;stroke-linejoin:round;stroke-dasharray:none;stroke-opacity:1"
       d="m 115.35929,98.689223 -0.019,0.09567 -0.0542,0.08111 -0.0811,0.05419 -0.0957,0.01903 h -0.5 l -0.0957,-0.01903 -0.0811,-0.05419 -0.0542,-0.08111 -0.019,-0.09567 v -0.5 l 0.019,-0.09567 0.0542,-0.08111 0.0811,-0.05419 0.0957,-0.01903 h 0.5 l 0.0957,0.01903 0.0811,0.05419 0.0542,0.08111 0.019,0.09567 z"
       id="path104" />
    <path
       style="fill:none;fill-opacity:1;fill-rule:evenodd;stroke:#000000;stroke-width:0.0264583;stroke-linecap:round;stroke-linejoin:round;stroke-dasharray:none;stroke-opacity:1"
       d="m 112.85929,98.689223 -0.019,0.09567 -0.0542,0.08111 -0.0811,0.05419 -0.0957,0.01903 h -0.5 l -0.0957,-0.01903 -0.0811,-0.05419 -0.0542,-0.08111 -0.019,-0.09567 v -0.5 l 0.019,-0.09567 0.0542,-0.08111 0.0811,-0.05419 0.0957,-0.01903 h 0.5 l 0.0957,0.01903 0.0811,0.05419 0.0542,0.08111 0.019,0.09567 z"
       id="path105" />
    <path
       style="fill:none;fill-opacity:1;fill-rule:evenodd;stroke:#000000;stroke-width:0.0264583;stroke-linecap:round;stroke-linejoin:round;stroke-dasharray:none;stroke-opacity:1"
       d="m 98.984299,77.989223 0.09567,0.01903 0.08111,0.05419 0.05419,0.08111 0.01903,0.09567 v 0.8 l -0.01903,0.09567 -0.05419,0.08111 -0.08111,0.05419 -0.09567,0.01903 h -1.25 l -0.09567,-0.01903 -0.08111,-0.05419 -0.05419,-0.08111 -0.01903,-0.09567 v -0.8 l 0.01903,-0.09567 0.05419,-0.08111 0.08111,-0.05419 0.09567,-0.01903 z"
       id="path106" />
    <path
       style="fill:none;fill-opacity:1;fill-rule:evenodd;stroke:#000000;stroke-width:0.0264583;stroke-linecap:round;stroke-linejoin:round;stroke-dasharray:none;stroke-opacity:1"
       d="m 98.984299,81.089223 0.09567,0.01903 0.08111,0.05419 0.05419,0.08111 0.01903,0.09567 v 0.8 l -0.01903,0.09567 -0.05419,0.08111 -0.08111,0.05419 -0.09567,0.01903 h -1.25 l -0.09567,-0.01903 -0.08111,-0.05419 -0.05419,-0.08111 -0.01903,-0.09567 v -0.8 l 0.01903,-0.09567 0.05419,-0.08111 0.08111,-0.05419 0.09567,-0.01903 z"
       id="path107" />
    <path
       style="fill:none;fill-opacity:1;fill-rule:evenodd;stroke:#000000;stroke-width:0.0264583;stroke-linecap:round;stroke-linejoin:round;stroke-dasharray:none;stroke-opacity:1"
       d="m 132.20929,84.889223 -0.019,0.09567 -0.0542,0.08111 -0.0811,0.05419 -0.0957,0.01903 h -0.7 l -0.0957,-0.01903 -0.0811,-0.05419 -0.0542,-0.08111 -0.019,-0.09567 v -0.9 l 0.019,-0.09567 0.0542,-0.08111 0.0811,-0.05419 0.0957,-0.01903 h 0.7 l 0.0957,0.01903 0.0811,0.05419 0.0542,0.08111 0.019,0.09567 z"
       id="path108" />
    <path
       style="fill:none;fill-opacity:1;fill-rule:evenodd;stroke:#000000;stroke-width:0.0264583;stroke-linecap:round;stroke-linejoin:round;stroke-dasharray:none;stroke-opacity:1"
       d="m 130.20929,84.889223 -0.019,0.09567 -0.0542,0.08111 -0.0811,0.05419 -0.0957,0.01903 h -0.7 l -0.0957,-0.01903 -0.0811,-0.05419 -0.0542,-0.08111 -0.019,-0.09567 v -0.9 l 0.019,-0.09567 0.0542,-0.08111 0.0811,-0.05419 0.0957,-0.01903 h 0.7 l 0.0957,0.01903 0.0811,0.05419 0.0542,0.08111 0.019,0.09567 z"
       id="path109" />
    <path
       style="fill:none;fill-opacity:1;fill-rule:evenodd;stroke:#000000;stroke-width:0.0264583;stroke-linecap:round;stroke-linejoin:round;stroke-dasharray:none;stroke-opacity:1"
       d="m 76.759299,70.739223 0.01903,-0.09567 0.05419,-0.08111 0.08111,-0.05419 0.09567,-0.01903 h 0.7 l 0.09567,0.01903 0.08111,0.05419 0.05419,0.08111 0.01903,0.09567 v 0.9 l -0.01903,0.09567 -0.05419,0.08111 -0.08111,0.05419 -0.09567,0.01903 h -0.7 l -0.09567,-0.01903 -0.08111,-0.05419 -0.05419,-0.08111 -0.01903,-0.09567 z"
       id="path111" />
    <path
       style="fill:none;fill-opacity:1;fill-rule:evenodd;stroke:#000000;stroke-width:0.0264583;stroke-linecap:round;stroke-linejoin:round;stroke-dasharray:none;stroke-opacity:1"
       d="m 78.759299,70.739223 0.01903,-0.09567 0.05419,-0.08111 0.08111,-0.05419 0.09567,-0.01903 h 0.7 l 0.09567,0.01903 0.08111,0.05419 0.05419,0.08111 0.01903,0.09567 v 0.9 l -0.01903,0.09567 -0.05419,0.08111 -0.08111,0.05419 -0.09567,0.01903 h -0.7 l -0.09567,-0.01903 -0.08111,-0.05419 -0.05419,-0.08111 -0.01903,-0.09567 z"
       id="path112" />
    <path
       style="fill:none;fill-opacity:1;fill-rule:evenodd;stroke:#000000;stroke-width:0.0264583;stroke-linecap:round;stroke-linejoin:round;stroke-dasharray:none;stroke-opacity:1"
       d="m 143.23429,89.389223 -0.0957,-0.01903 -0.0811,-0.05419 -0.0542,-0.08111 -0.019,-0.09567 v -0.8 l 0.019,-0.09567 0.0542,-0.08111 0.0811,-0.05419 0.0957,-0.01903 h 1.25 l 0.0957,0.01903 0.0811,0.05419 0.0542,0.08111 0.019,0.09567 v 0.8 l -0.019,0.09567 -0.0542,0.08111 -0.0811,0.05419 -0.0957,0.01903 z"
       id="path113" />
    <path
       style="fill:none;fill-opacity:1;fill-rule:evenodd;stroke:#000000;stroke-width:0.0264583;stroke-linecap:round;stroke-linejoin:round;stroke-dasharray:none;stroke-opacity:1"
       d="m 143.23429,86.289223 -0.0957,-0.01903 -0.0811,-0.05419 -0.0542,-0.08111 -0.019,-0.09567 v -0.8 l 0.019,-0.09567 0.0542,-0.08111 0.0811,-0.05419 0.0957,-0.01903 h 1.25 l 0.0957,0.01903 0.0811,0.05419 0.0542,0.08111 0.019,0.09567 v 0.8 l -0.019,0.09567 -0.0542,0.08111 -0.0811,0.05419 -0.0957,0.01903 z"
       id="path114" />
    <path
       style="fill:none;fill-opacity:1;fill-rule:evenodd;stroke:#000000;stroke-width:0.0264583;stroke-linecap:round;stroke-linejoin:round;stroke-dasharray:none;stroke-opacity:1"
       d="m 150.00929,78.239223 0.019,-0.09567 0.0542,-0.08111 0.0811,-0.05419 0.0957,-0.01903 h 0.7 l 0.0957,0.01903 0.0811,0.05419 0.0542,0.08111 0.019,0.09567 v 0.9 l -0.019,0.09567 -0.0542,0.08111 -0.0811,0.05419 -0.0957,0.01903 h -0.7 l -0.0957,-0.01903 -0.0811,-0.05419 -0.0542,-0.08111 -0.019,-0.09567 z"
       id="path115" />
    <path
       style="fill:none;fill-opacity:1;fill-rule:evenodd;stroke:#000000;stroke-width:0.0264583;stroke-linecap:round;stroke-linejoin:round;stroke-dasharray:none;stroke-opacity:1"
       d="m 152.00929,78.239223 0.019,-0.09567 0.0542,-0.08111 0.0811,-0.05419 0.0957,-0.01903 h 0.7 l 0.0957,0.01903 0.0811,0.05419 0.0542,0.08111 0.019,0.09567 v 0.9 l -0.019,0.09567 -0.0542,0.08111 -0.0811,0.05419 -0.0957,0.01903 h -0.7 l -0.0957,-0.01903 -0.0811,-0.05419 -0.0542,-0.08111 -0.019,-0.09567 z"
       id="path116" />
    <path
       style="fill:none;fill-opacity:1;fill-rule:evenodd;stroke:#000000;stroke-width:0.0264583;stroke-linecap:round;stroke-linejoin:round;stroke-dasharray:none;stroke-opacity:1"
       d="m 77.159299,80.239223 h 0.8 v 1.9 h -0.8 z"
       id="path117" />
    <path
       style="fill:none;fill-opacity:1;fill-rule:evenodd;stroke:#000000;stroke-width:0.0264583;stroke-linecap:round;stroke-linejoin:round;stroke-dasharray:none;stroke-opacity:1"
       d="m 75.259299,80.239223 h 0.8 v 1.9 h -0.8 z"
       id="path118" />
    <path
       style="fill:none;fill-opacity:1;fill-rule:evenodd;stroke:#000000;stroke-width:0.0264583;stroke-linecap:round;stroke-linejoin:round;stroke-dasharray:none;stroke-opacity:1"
       d="m 76.209299,83.239223 h 0.8 v 1.9 h -0.8 z"
       id="path119" />
    <path
       style="fill:none;fill-opacity:1;fill-rule:evenodd;stroke:#000000;stroke-width:0.0264583;stroke-linecap:round;stroke-linejoin:round;stroke-dasharray:none;stroke-opacity:1"
       d="m 75.009299,78.239223 0.01903,-0.09567 0.05419,-0.08111 0.08111,-0.05419 0.09567,-0.01903 h 0.7 l 0.09567,0.01903 0.08111,0.05419 0.05419,0.08111 0.01903,0.09567 v 0.9 l -0.01903,0.09567 -0.05419,0.08111 -0.08111,0.05419 -0.09567,0.01903 h -0.7 l -0.09567,-0.01903 -0.08111,-0.05419 -0.05419,-0.08111 -0.01903,-0.09567 z"
       id="path120" />
    <path
       style="fill:none;fill-opacity:1;fill-rule:evenodd;stroke:#000000;stroke-width:0.0264583;stroke-linecap:round;stroke-linejoin:round;stroke-dasharray:none;stroke-opacity:1"
       d="m 77.009299,78.239223 0.01903,-0.09567 0.05419,-0.08111 0.08111,-0.05419 0.09567,-0.01903 h 0.7 l 0.09567,0.01903 0.08111,0.05419 0.05419,0.08111 0.01903,0.09567 v 0.9 l -0.01903,0.09567 -0.05419,0.08111 -0.08111,0.05419 -0.09567,0.01903 h -0.7 l -0.09567,-0.01903 -0.08111,-0.05419 -0.05419,-0.08111 -0.01903,-0.09567 z"
       id="path121" />
    <path
       style="fill:none;fill-opacity:1;fill-rule:evenodd;stroke:#000000;stroke-width:0.0264583;stroke-linecap:round;stroke-linejoin:round;stroke-dasharray:none;stroke-opacity:1"
       d="m 168.23429,89.389223 -0.0957,-0.01903 -0.0811,-0.05419 -0.0542,-0.08111 -0.019,-0.09567 v -0.8 l 0.019,-0.09567 0.0542,-0.08111 0.0811,-0.05419 0.0957,-0.01903 h 1.25 l 0.0957,0.01903 0.0811,0.05419 0.0542,0.08111 0.019,0.09567 v 0.8 l -0.019,0.09567 -0.0542,0.08111 -0.0811,0.05419 -0.0957,0.01903 z"
       id="path122" />
    <path
       style="fill:none;fill-opacity:1;fill-rule:evenodd;stroke:#000000;stroke-width:0.0264583;stroke-linecap:round;stroke-linejoin:round;stroke-dasharray:none;stroke-opacity:1"
       d="m 168.23429,86.289223 -0.0957,-0.01903 -0.0811,-0.05419 -0.0542,-0.08111 -0.019,-0.09567 v -0.8 l 0.019,-0.09567 0.0542,-0.08111 0.0811,-0.05419 0.0957,-0.01903 h 1.25 l 0.0957,0.01903 0.0811,0.05419 0.0542,0.08111 0.019,0.09567 v 0.8 l -0.019,0.09567 -0.0542,0.08111 -0.0811,0.05419 -0.0957,0.01903 z"
       id="path123" />
    <path
       style="fill:none;fill-opacity:1;fill-rule:evenodd;stroke:#000000;stroke-width:0.0264583;stroke-linecap:round;stroke-linejoin:round;stroke-dasharray:none;stroke-opacity:1"
       d="m 98.109299,86.689223 -0.09567,-0.01903 -0.08111,-0.05419 -0.05419,-0.08111 -0.01903,-0.09567 v -0.5 l 0.01903,-0.09567 0.05419,-0.08111 0.08111,-0.05419 0.09567,-0.01903 h 0.5 l 0.09567,0.01903 0.08111,0.05419 0.05419,0.08111 0.01903,0.09567 v 0.5 l -0.01903,0.09567 -0.05419,0.08111 -0.08111,0.05419 -0.09567,0.01903 z"
       id="path124" />
    <path
       style="fill:none;fill-opacity:1;fill-rule:evenodd;stroke:#000000;stroke-width:0.0264583;stroke-linecap:round;stroke-linejoin:round;stroke-dasharray:none;stroke-opacity:1"
       d="m 98.109299,84.189223 -0.09567,-0.01903 -0.08111,-0.05419 -0.05419,-0.08111 -0.01903,-0.09567 v -0.5 l 0.01903,-0.09567 0.05419,-0.08111 0.08111,-0.05419 0.09567,-0.01903 h 0.5 l 0.09567,0.01903 0.08111,0.05419 0.05419,0.08111 0.01903,0.09567 v 0.5 l -0.01903,0.09567 -0.05419,0.08111 -0.08111,0.05419 -0.09567,0.01903 z"
       id="path125" />
    <path
       style="fill:none;fill-opacity:1;fill-rule:evenodd;stroke:#000000;stroke-width:0.0264583;stroke-linecap:round;stroke-linejoin:round;stroke-dasharray:none;stroke-opacity:1"
       d="m 76.859299,68.689223 0.01903,-0.09567 0.05419,-0.08111 0.08111,-0.05419 0.09567,-0.01903 h 0.5 l 0.09567,0.01903 0.08111,0.05419 0.05419,0.08111 0.01903,0.09567 v 0.5 l -0.01903,0.09567 -0.05419,0.08111 -0.08111,0.05419 -0.09567,0.01903 h -0.5 l -0.09567,-0.01903 -0.08111,-0.05419 -0.05419,-0.08111 -0.01903,-0.09567 z"
       id="path126" />
    <path
       style="fill:none;fill-opacity:1;fill-rule:evenodd;stroke:#000000;stroke-width:0.0264583;stroke-linecap:round;stroke-linejoin:round;stroke-dasharray:none;stroke-opacity:1"
       d="m 79.359299,68.689223 0.01903,-0.09567 0.05419,-0.08111 0.08111,-0.05419 0.09567,-0.01903 h 0.5 l 0.09567,0.01903 0.08111,0.05419 0.05419,0.08111 0.01903,0.09567 v 0.5 l -0.01903,0.09567 -0.05419,0.08111 -0.08111,0.05419 -0.09567,0.01903 h -0.5 l -0.09567,-0.01903 -0.08111,-0.05419 -0.05419,-0.08111 -0.01903,-0.09567 z"
       id="path127" />
    <path
       style="fill:none;fill-opacity:1;fill-rule:evenodd;stroke:#000000;stroke-width:0.0264583;stroke-linecap:round;stroke-linejoin:round;stroke-dasharray:none;stroke-opacity:1"
       d="m 102.1593,80.239223 h 0.8 v 1.9 h -0.8 z"
       id="path133" />
    <path
       style="fill:none;fill-opacity:1;fill-rule:evenodd;stroke:#000000;stroke-width:0.0264583;stroke-linecap:round;stroke-linejoin:round;stroke-dasharray:none;stroke-opacity:1"
       d="m 100.2593,80.239223 h 0.8 v 1.9 h -0.8 z"
       id="path134" />
    <path
       style="fill:none;fill-opacity:1;fill-rule:evenodd;stroke:#000000;stroke-width:0.0264583;stroke-linecap:round;stroke-linejoin:round;stroke-dasharray:none;stroke-opacity:1"
       d="m 101.2093,83.239223 h 0.8 v 1.9 h -0.8 z"
       id="path135" />
    <path
       style="fill:none;fill-opacity:1;fill-rule:evenodd;stroke:#000000;stroke-width:0.0264583;stroke-linecap:round;stroke-linejoin:round;stroke-dasharray:none;stroke-opacity:1"
       d="m 87.159299,84.489223 h 0.8 v 1.9 h -0.8 z"
       id="path137" />
    <path
       style="fill:none;fill-opacity:1;fill-rule:evenodd;stroke:#000000;stroke-width:0.0264583;stroke-linecap:round;stroke-linejoin:round;stroke-dasharray:none;stroke-opacity:1"
       d="m 85.259299,84.489223 h 0.8 v 1.9 h -0.8 z"
       id="path138" />
    <path
       style="fill:none;fill-opacity:1;fill-rule:evenodd;stroke:#000000;stroke-width:0.0264583;stroke-linecap:round;stroke-linejoin:round;stroke-dasharray:none;stroke-opacity:1"
       d="m 86.209299,87.489223 h 0.8 v 1.9 h -0.8 z"
       id="path139" />
    <path
       style="fill:none;fill-opacity:1;fill-rule:evenodd;stroke:#000000;stroke-width:0.0264583;stroke-linecap:round;stroke-linejoin:round;stroke-dasharray:none;stroke-opacity:1"
       d="m 137.15929,84.489223 h 0.8 v 1.9 h -0.8 z"
       id="path141" />
    <path
       style="fill:none;fill-opacity:1;fill-rule:evenodd;stroke:#000000;stroke-width:0.0264583;stroke-linecap:round;stroke-linejoin:round;stroke-dasharray:none;stroke-opacity:1"
       d="m 135.25929,84.489223 h 0.8 v 1.9 h -0.8 z"
       id="path142" />
    <path
       style="fill:none;fill-opacity:1;fill-rule:evenodd;stroke:#000000;stroke-width:0.0264583;stroke-linecap:round;stroke-linejoin:round;stroke-dasharray:none;stroke-opacity:1"
       d="m 136.20929,87.489223 h 0.8 v 1.9 h -0.8 z"
       id="path143" />
    <path
       style="fill:none;fill-opacity:1;fill-rule:evenodd;stroke:#000000;stroke-width:0.0264583;stroke-linecap:round;stroke-linejoin:round;stroke-dasharray:none;stroke-opacity:1"
       d="m 117.20929,89.139223 -0.019,0.09567 -0.0542,0.08111 -0.0811,0.05419 -0.0957,0.01903 h -0.7 l -0.0957,-0.01903 -0.0811,-0.05419 -0.0542,-0.08111 -0.019,-0.09567 v -0.9 l 0.019,-0.09567 0.0542,-0.08111 0.0811,-0.05419 0.0957,-0.01903 h 0.7 l 0.0957,0.01903 0.0811,0.05419 0.0542,0.08111 0.019,0.09567 z"
       id="path147" />
    <path
       style="fill:none;fill-opacity:1;fill-rule:evenodd;stroke:#000000;stroke-width:0.0264583;stroke-linecap:round;stroke-linejoin:round;stroke-dasharray:none;stroke-opacity:1"
       d="m 115.20929,89.139223 -0.019,0.09567 -0.0542,0.08111 -0.0811,0.05419 -0.0957,0.01903 h -0.7 l -0.0957,-0.01903 -0.0811,-0.05419 -0.0542,-0.08111 -0.019,-0.09567 v -0.9 l 0.019,-0.09567 0.0542,-0.08111 0.0811,-0.05419 0.0957,-0.01903 h 0.7 l 0.0957,0.01903 0.0811,0.05419 0.0542,0.08111 0.019,0.09567 z"
       id="path148" />
    <path
       style="fill:none;fill-opacity:1;fill-rule:evenodd;stroke:#000000;stroke-width:0.0264583;stroke-linecap:round;stroke-linejoin:round;stroke-dasharray:none;stroke-opacity:1"
       d="m 130.05929,82.889223 h -0.8 v -1.9 h 0.8 z"
       id="path150" />
    <path
       style="fill:none;fill-opacity:1;fill-rule:evenodd;stroke:#000000;stroke-width:0.0264583;stroke-linecap:round;stroke-linejoin:round;stroke-dasharray:none;stroke-opacity:1"
       d="m 131.95929,82.889223 h -0.8 v -1.9 h 0.8 z"
       id="path151" />
    <path
       style="fill:none;fill-opacity:1;fill-rule:evenodd;stroke:#000000;stroke-width:0.0264583;stroke-linecap:round;stroke-linejoin:round;stroke-dasharray:none;stroke-opacity:1"
       d="m 131.00929,79.889223 h -0.8 v -1.9 h 0.8 z"
       id="path152" />
    <path
       style="fill:none;fill-opacity:1;fill-rule:evenodd;stroke:#000000;stroke-width:0.0264583;stroke-linecap:round;stroke-linejoin:round;stroke-dasharray:none;stroke-opacity:1"
       d="m 112.15929,84.489223 h 0.8 v 1.9 h -0.8 z"
       id="path154" />
    <path
       style="fill:none;fill-opacity:1;fill-rule:evenodd;stroke:#000000;stroke-width:0.0264583;stroke-linecap:round;stroke-linejoin:round;stroke-dasharray:none;stroke-opacity:1"
       d="m 110.25929,84.489223 h 0.8 v 1.9 h -0.8 z"
       id="path155" />
    <path
       style="fill:none;fill-opacity:1;fill-rule:evenodd;stroke:#000000;stroke-width:0.0264583;stroke-linecap:round;stroke-linejoin:round;stroke-dasharray:none;stroke-opacity:1"
       d="m 111.20929,87.489223 h 0.8 v 1.9 h -0.8 z"
       id="path156" />
    <path
       style="fill:none;fill-opacity:1;fill-rule:evenodd;stroke:#000000;stroke-width:0.0264583;stroke-linecap:round;stroke-linejoin:round;stroke-dasharray:none;stroke-opacity:1"
       d="m 140.35929,98.689223 -0.019,0.09567 -0.0542,0.08111 -0.0811,0.05419 -0.0957,0.01903 h -0.5 l -0.0957,-0.01903 -0.0811,-0.05419 -0.0542,-0.08111 -0.019,-0.09567 v -0.5 l 0.019,-0.09567 0.0542,-0.08111 0.0811,-0.05419 0.0957,-0.01903 h 0.5 l 0.0957,0.01903 0.0811,0.05419 0.0542,0.08111 0.019,0.09567 z"
       id="path157" />
    <path
       style="fill:none;fill-opacity:1;fill-rule:evenodd;stroke:#000000;stroke-width:0.0264583;stroke-linecap:round;stroke-linejoin:round;stroke-dasharray:none;stroke-opacity:1"
       d="m 137.85929,98.689223 -0.019,0.09567 -0.0542,0.08111 -0.0811,0.05419 -0.0957,0.01903 h -0.5 l -0.0957,-0.01903 -0.0811,-0.05419 -0.0542,-0.08111 -0.019,-0.09567 v -0.5 l 0.019,-0.09567 0.0542,-0.08111 0.0811,-0.05419 0.0957,-0.01903 h 0.5 l 0.0957,0.01903 0.0811,0.05419 0.0542,0.08111 0.019,0.09567 z"
       id="path158" />
    <path
       style="fill:none;fill-opacity:1;fill-rule:evenodd;stroke:#000000;stroke-width:0.0264583;stroke-linecap:round;stroke-linejoin:round;stroke-dasharray:none;stroke-opacity:1"
       d="m 85.009299,82.489223 0.01903,-0.09567 0.05419,-0.08111 0.08111,-0.05419 0.09567,-0.01903 h 0.7 l 0.09567,0.01903 0.08111,0.05419 0.05419,0.08111 0.01903,0.09567 v 0.9 l -0.01903,0.09567 -0.05419,0.08111 -0.08111,0.05419 -0.09567,0.01903 h -0.7 l -0.09567,-0.01903 -0.08111,-0.05419 -0.05419,-0.08111 -0.01903,-0.09567 z"
       id="path161" />
    <path
       style="fill:none;fill-opacity:1;fill-rule:evenodd;stroke:#000000;stroke-width:0.0264583;stroke-linecap:round;stroke-linejoin:round;stroke-dasharray:none;stroke-opacity:1"
       d="m 87.009299,82.489223 0.01903,-0.09567 0.05419,-0.08111 0.08111,-0.05419 0.09567,-0.01903 h 0.7 l 0.09567,0.01903 0.08111,0.05419 0.05419,0.08111 0.01903,0.09567 v 0.9 l -0.01903,0.09567 -0.05419,0.08111 -0.08111,0.05419 -0.09567,0.01903 h -0.7 l -0.09567,-0.01903 -0.08111,-0.05419 -0.05419,-0.08111 -0.01903,-0.09567 z"
       id="path162" />
    <path
       style="fill:none;fill-opacity:1;fill-rule:evenodd;stroke:#000000;stroke-width:0.0264583;stroke-linecap:round;stroke-linejoin:round;stroke-dasharray:none;stroke-opacity:1"
       d="m 151.75929,70.739223 0.019,-0.09567 0.0542,-0.08111 0.0811,-0.05419 0.0957,-0.01903 h 0.7 l 0.0957,0.01903 0.0811,0.05419 0.0542,0.08111 0.019,0.09567 v 0.9 l -0.019,0.09567 -0.0542,0.08111 -0.0811,0.05419 -0.0957,0.01903 h -0.7 l -0.0957,-0.01903 -0.0811,-0.05419 -0.0542,-0.08111 -0.019,-0.09567 z"
       id="path163" />
    <path
       style="fill:none;fill-opacity:1;fill-rule:evenodd;stroke:#000000;stroke-width:0.0264583;stroke-linecap:round;stroke-linejoin:round;stroke-dasharray:none;stroke-opacity:1"
       d="m 153.75929,70.739223 0.019,-0.09567 0.0542,-0.08111 0.0811,-0.05419 0.0957,-0.01903 h 0.7 l 0.0957,0.01903 0.0811,0.05419 0.0542,0.08111 0.019,0.09567 v 0.9 l -0.019,0.09567 -0.0542,0.08111 -0.0811,0.05419 -0.0957,0.01903 h -0.7 l -0.0957,-0.01903 -0.0811,-0.05419 -0.0542,-0.08111 -0.019,-0.09567 z"
       id="path164" />
    <path
       style="fill:none;fill-opacity:1;fill-rule:evenodd;stroke:#000000;stroke-width:0.0264583;stroke-linecap:round;stroke-linejoin:round;stroke-dasharray:none;stroke-opacity:1"
       d="m 162.15929,84.489223 h 0.8 v 1.9 h -0.8 z"
       id="path165" />
    <path
       style="fill:none;fill-opacity:1;fill-rule:evenodd;stroke:#000000;stroke-width:0.0264583;stroke-linecap:round;stroke-linejoin:round;stroke-dasharray:none;stroke-opacity:1"
       d="m 160.25929,84.489223 h 0.8 v 1.9 h -0.8 z"
       id="path166" />
    <path
       style="fill:none;fill-opacity:1;fill-rule:evenodd;stroke:#000000;stroke-width:0.0264583;stroke-linecap:round;stroke-linejoin:round;stroke-dasharray:none;stroke-opacity:1"
       d="m 161.20929,87.489223 h 0.8 v 1.9 h -0.8 z"
       id="path167" />
    <path
       style="fill:none;fill-opacity:1;fill-rule:evenodd;stroke:#000000;stroke-width:0.0264583;stroke-linecap:round;stroke-linejoin:round;stroke-dasharray:none;stroke-opacity:1"
       d="m 100.0093,78.239223 0.019,-0.09567 0.0542,-0.08111 0.0811,-0.05419 0.0957,-0.01903 h 0.7 l 0.0957,0.01903 0.0811,0.05419 0.0542,0.08111 0.019,0.09567 v 0.9 l -0.019,0.09567 -0.0542,0.08111 -0.0811,0.05419 -0.0957,0.01903 h -0.7 l -0.0957,-0.01903 -0.0811,-0.05419 -0.0542,-0.08111 -0.019,-0.09567 z"
       id="path169" />
    <path
       style="fill:none;fill-opacity:1;fill-rule:evenodd;stroke:#000000;stroke-width:0.0264583;stroke-linecap:round;stroke-linejoin:round;stroke-dasharray:none;stroke-opacity:1"
       d="m 102.0093,78.239223 0.019,-0.09567 0.0542,-0.08111 0.0811,-0.05419 0.0957,-0.01903 h 0.7 l 0.0957,0.01903 0.0811,0.05419 0.0542,0.08111 0.019,0.09567 v 0.9 l -0.019,0.09567 -0.0542,0.08111 -0.0811,0.05419 -0.0957,0.01903 h -0.7 l -0.0957,-0.01903 -0.0811,-0.05419 -0.0542,-0.08111 -0.019,-0.09567 z"
       id="path170" />
    <path
       style="fill:none;fill-opacity:1;fill-rule:evenodd;stroke:#000000;stroke-width:0.0264583;stroke-linecap:round;stroke-linejoin:round;stroke-dasharray:none;stroke-opacity:1"
       d="m 165.35929,98.689223 -0.019,0.09567 -0.0542,0.08111 -0.0811,0.05419 -0.0957,0.01903 h -0.5 l -0.0957,-0.01903 -0.0811,-0.05419 -0.0542,-0.08111 -0.019,-0.09567 v -0.5 l 0.019,-0.09567 0.0542,-0.08111 0.0811,-0.05419 0.0957,-0.01903 h 0.5 l 0.0957,0.01903 0.0811,0.05419 0.0542,0.08111 0.019,0.09567 z"
       id="path172" />
    <path
       style="fill:none;fill-opacity:1;fill-rule:evenodd;stroke:#000000;stroke-width:0.0264583;stroke-linecap:round;stroke-linejoin:round;stroke-dasharray:none;stroke-opacity:1"
       d="m 162.85929,98.689223 -0.019,0.09567 -0.0542,0.08111 -0.0811,0.05419 -0.0957,0.01903 h -0.5 l -0.0957,-0.01903 -0.0811,-0.05419 -0.0542,-0.08111 -0.019,-0.09567 v -0.5 l 0.019,-0.09567 0.0542,-0.08111 0.0811,-0.05419 0.0957,-0.01903 h 0.5 l 0.0957,0.01903 0.0811,0.05419 0.0542,0.08111 0.019,0.09567 z"
       id="path173" />
    <path
       style="fill:none;fill-opacity:1;fill-rule:evenodd;stroke:#000000;stroke-width:0.0264583;stroke-linecap:round;stroke-linejoin:round;stroke-dasharray:none;stroke-opacity:1"
       d="m 73.984299,77.989223 0.09567,0.01903 0.08111,0.05419 0.05419,0.08111 0.01903,0.09567 v 0.8 l -0.01903,0.09567 -0.05419,0.08111 -0.08111,0.05419 -0.09567,0.01903 h -1.25 l -0.09567,-0.01903 -0.08111,-0.05419 -0.05419,-0.08111 -0.01903,-0.09567 v -0.8 l 0.01903,-0.09567 0.05419,-0.08111 0.08111,-0.05419 0.09567,-0.01903 z"
       id="path175" />
    <path
       style="fill:none;fill-opacity:1;fill-rule:evenodd;stroke:#000000;stroke-width:0.0264583;stroke-linecap:round;stroke-linejoin:round;stroke-dasharray:none;stroke-opacity:1"
       d="m 73.984299,81.089223 0.09567,0.01903 0.08111,0.05419 0.05419,0.08111 0.01903,0.09567 v 0.8 l -0.01903,0.09567 -0.05419,0.08111 -0.08111,0.05419 -0.09567,0.01903 h -1.25 l -0.09567,-0.01903 -0.08111,-0.05419 -0.05419,-0.08111 -0.01903,-0.09567 v -0.8 l 0.01903,-0.09567 0.05419,-0.08111 0.08111,-0.05419 0.09567,-0.01903 z"
       id="path176" />
    <path
       style="fill:none;fill-opacity:1;fill-rule:evenodd;stroke:#000000;stroke-width:0.0264583;stroke-linecap:round;stroke-linejoin:round;stroke-dasharray:none;stroke-opacity:1"
       d="m 93.234299,89.389223 -0.09567,-0.01903 -0.08111,-0.05419 -0.05419,-0.08111 -0.01903,-0.09567 v -0.8 l 0.01903,-0.09567 0.05419,-0.08111 0.08111,-0.05419 0.09567,-0.01903 h 1.25 l 0.09567,0.01903 0.08111,0.05419 0.05419,0.08111 0.01903,0.09567 v 0.8 l -0.01903,0.09567 -0.05419,0.08111 -0.08111,0.05419 -0.09567,0.01903 z"
       id="path177" />
    <path
       style="fill:none;fill-opacity:1;fill-rule:evenodd;stroke:#000000;stroke-width:0.0264583;stroke-linecap:round;stroke-linejoin:round;stroke-dasharray:none;stroke-opacity:1"
       d="m 93.234299,86.289223 -0.09567,-0.01903 -0.08111,-0.05419 -0.05419,-0.08111 -0.01903,-0.09567 v -0.8 l 0.01903,-0.09567 0.05419,-0.08111 0.08111,-0.05419 0.09567,-0.01903 h 1.25 l 0.09567,0.01903 0.08111,0.05419 0.05419,0.08111 0.01903,0.09567 v 0.8 l -0.01903,0.09567 -0.05419,0.08111 -0.08111,0.05419 -0.09567,0.01903 z"
       id="path178" />
    <path
       style="fill:none;fill-opacity:1;fill-rule:evenodd;stroke:#000000;stroke-width:0.0264583;stroke-linecap:round;stroke-linejoin:round;stroke-dasharray:none;stroke-opacity:1"
       d="m 165.45929,96.639223 -0.019,0.09567 -0.0542,0.08111 -0.0811,0.05419 -0.0957,0.01903 h -0.7 l -0.0957,-0.01903 -0.0811,-0.05419 -0.0542,-0.08111 -0.019,-0.09567 v -0.9 l 0.019,-0.09567 0.0542,-0.08111 0.0811,-0.05419 0.0957,-0.01903 h 0.7 l 0.0957,0.01903 0.0811,0.05419 0.0542,0.08111 0.019,0.09567 z"
       id="path179" />
    <path
       style="fill:none;fill-opacity:1;fill-rule:evenodd;stroke:#000000;stroke-width:0.0264583;stroke-linecap:round;stroke-linejoin:round;stroke-dasharray:none;stroke-opacity:1"
       d="m 163.45929,96.639223 -0.019,0.09567 -0.0542,0.08111 -0.0811,0.05419 -0.0957,0.01903 h -0.7 l -0.0957,-0.01903 -0.0811,-0.05419 -0.0542,-0.08111 -0.019,-0.09567 v -0.9 l 0.019,-0.09567 0.0542,-0.08111 0.0811,-0.05419 0.0957,-0.01903 h 0.7 l 0.0957,0.01903 0.0811,0.05419 0.0542,0.08111 0.019,0.09567 z"
       id="path180" />
    <path
       style="fill:none;fill-opacity:1;fill-rule:evenodd;stroke:#000000;stroke-width:0.0264583;stroke-linecap:round;stroke-linejoin:round;stroke-dasharray:none;stroke-opacity:1"
       d="m 101.8593,68.689223 0.019,-0.09567 0.0542,-0.08111 0.0811,-0.05419 0.0957,-0.01903 h 0.5 l 0.0957,0.01903 0.0811,0.05419 0.0542,0.08111 0.019,0.09567 v 0.5 l -0.019,0.09567 -0.0542,0.08111 -0.0811,0.05419 -0.0957,0.01903 h -0.5 l -0.0957,-0.01903 -0.0811,-0.05419 -0.0542,-0.08111 -0.019,-0.09567 z"
       id="path182" />
    <path
       style="fill:none;fill-opacity:1;fill-rule:evenodd;stroke:#000000;stroke-width:0.0264583;stroke-linecap:round;stroke-linejoin:round;stroke-dasharray:none;stroke-opacity:1"
       d="m 104.35929,68.689223 0.019,-0.09567 0.0542,-0.08111 0.0811,-0.05419 0.0957,-0.01903 h 0.5 l 0.0957,0.01903 0.0811,0.05419 0.0542,0.08111 0.019,0.09567 v 0.5 l -0.019,0.09567 -0.0542,0.08111 -0.0811,0.05419 -0.0957,0.01903 h -0.5 l -0.0957,-0.01903 -0.0811,-0.05419 -0.0542,-0.08111 -0.019,-0.09567 z"
       id="path183" />
    <path
       style="fill:none;fill-opacity:1;fill-rule:evenodd;stroke:#000000;stroke-width:0.0264583;stroke-linecap:round;stroke-linejoin:round;stroke-dasharray:none;stroke-opacity:1"
       d="m 126.75929,70.739223 0.019,-0.09567 0.0542,-0.08111 0.0811,-0.05419 0.0957,-0.01903 h 0.7 l 0.0957,0.01903 0.0811,0.05419 0.0542,0.08111 0.019,0.09567 v 0.9 l -0.019,0.09567 -0.0542,0.08111 -0.0811,0.05419 -0.0957,0.01903 h -0.7 l -0.0957,-0.01903 -0.0811,-0.05419 -0.0542,-0.08111 -0.019,-0.09567 z"
       id="path185" />
    <path
       style="fill:none;fill-opacity:1;fill-rule:evenodd;stroke:#000000;stroke-width:0.0264583;stroke-linecap:round;stroke-linejoin:round;stroke-dasharray:none;stroke-opacity:1"
       d="m 128.75929,70.739223 0.019,-0.09567 0.0542,-0.08111 0.0811,-0.05419 0.0957,-0.01903 h 0.7 l 0.0957,0.01903 0.0811,0.05419 0.0542,0.08111 0.019,0.09567 v 0.9 l -0.019,0.09567 -0.0542,0.08111 -0.0811,0.05419 -0.0957,0.01903 h -0.7 l -0.0957,-0.01903 -0.0811,-0.05419 -0.0542,-0.08111 -0.019,-0.09567 z"
       id="path186" />
    <path
       style="fill:none;fill-opacity:1;fill-rule:evenodd;stroke:#000000;stroke-width:0.0264583;stroke-linecap:round;stroke-linejoin:round;stroke-dasharray:none;stroke-opacity:1"
       d="m 151.85929,68.689223 0.019,-0.09567 0.0542,-0.08111 0.0811,-0.05419 0.0957,-0.01903 h 0.5 l 0.0957,0.01903 0.0811,0.05419 0.0542,0.08111 0.019,0.09567 v 0.5 l -0.019,0.09567 -0.0542,0.08111 -0.0811,0.05419 -0.0957,0.01903 h -0.5 l -0.0957,-0.01903 -0.0811,-0.05419 -0.0542,-0.08111 -0.019,-0.09567 z"
       id="path187" />
    <path
       style="fill:none;fill-opacity:1;fill-rule:evenodd;stroke:#000000;stroke-width:0.0264583;stroke-linecap:round;stroke-linejoin:round;stroke-dasharray:none;stroke-opacity:1"
       d="m 154.35929,68.689223 0.019,-0.09567 0.0542,-0.08111 0.0811,-0.05419 0.0957,-0.01903 h 0.5 l 0.0957,0.01903 0.0811,0.05419 0.0542,0.08111 0.019,0.09567 v 0.5 l -0.019,0.09567 -0.0542,0.08111 -0.0811,0.05419 -0.0957,0.01903 h -0.5 l -0.0957,-0.01903 -0.0811,-0.05419 -0.0542,-0.08111 -0.019,-0.09567 z"
       id="path188" />
    <path
       style="fill:none;fill-opacity:1;fill-rule:evenodd;stroke:#000000;stroke-width:0.0264583;stroke-linecap:round;stroke-linejoin:round;stroke-dasharray:none;stroke-opacity:1"
       d="m 92.209299,89.139223 -0.01903,0.09567 -0.05419,0.08111 -0.08111,0.05419 -0.09567,0.01903 h -0.7 l -0.09567,-0.01903 -0.08111,-0.05419 -0.05419,-0.08111 -0.01903,-0.09567 v -0.9 l 0.01903,-0.09567 0.05419,-0.08111 0.08111,-0.05419 0.09567,-0.01903 h 0.7 l 0.09567,0.01903 0.08111,0.05419 0.05419,0.08111 0.01903,0.09567 z"
       id="path191" />
    <path
       style="fill:none;fill-opacity:1;fill-rule:evenodd;stroke:#000000;stroke-width:0.0264583;stroke-linecap:round;stroke-linejoin:round;stroke-dasharray:none;stroke-opacity:1"
       d="m 90.209299,89.139223 -0.01903,0.09567 -0.05419,0.08111 -0.08111,0.05419 -0.09567,0.01903 h -0.7 l -0.09567,-0.01903 -0.08111,-0.05419 -0.05419,-0.08111 -0.01903,-0.09567 v -0.9 l 0.01903,-0.09567 0.05419,-0.08111 0.08111,-0.05419 0.09567,-0.01903 h 0.7 l 0.09567,0.01903 0.08111,0.05419 0.05419,0.08111 0.01903,0.09567 z"
       id="path192" />
    <path
       style="fill:none;fill-opacity:1;fill-rule:evenodd;stroke:#000000;stroke-width:0.0264583;stroke-linecap:round;stroke-linejoin:round;stroke-dasharray:none;stroke-opacity:1"
       d="m 101.7593,70.739223 0.019,-0.09567 0.0542,-0.08111 0.0811,-0.05419 0.0957,-0.01903 h 0.7 l 0.0957,0.01903 0.0811,0.05419 0.0542,0.08111 0.019,0.09567 v 0.9 l -0.019,0.09567 -0.0542,0.08111 -0.0811,0.05419 -0.0957,0.01903 h -0.7 l -0.0957,-0.01903 -0.0811,-0.05419 -0.0542,-0.08111 -0.019,-0.09567 z"
       id="path194" />
    <path
       style="fill:none;fill-opacity:1;fill-rule:evenodd;stroke:#000000;stroke-width:0.0264583;stroke-linecap:round;stroke-linejoin:round;stroke-dasharray:none;stroke-opacity:1"
       d="m 103.7593,70.739223 0.019,-0.09567 0.0542,-0.08111 0.0811,-0.05419 0.0957,-0.01903 h 0.69999 l 0.0957,0.01903 0.0811,0.05419 0.0542,0.08111 0.019,0.09567 v 0.9 l -0.019,0.09567 -0.0542,0.08111 -0.0811,0.05419 -0.0957,0.01903 h -0.69999 l -0.0957,-0.01903 -0.0811,-0.05419 -0.0542,-0.08111 -0.019,-0.09567 z"
       id="path195" />
  </g>
  <metadata
     id="metadata1">
    <rdf:RDF>
      <cc:Work
         rdf:about="">
        <dc:title>SVG Image created as led_balance-F_Paste.svg date 2023/12/16 10:52:37 </dc:title>
      </cc:Work>
    </rdf:RDF>
  </metadata>
</svg>
