<?xml version="1.0" encoding="UTF-8" standalone="no"?>
<svg
   version="1.1"
   width="297.002200mm"
   height="210.007200mm"
   viewBox="0.000000 0.000000 297.002200 210.007200"
   id="svg209"
   sodipodi:docname="led_balance-F_Paste.svg"
   inkscape:version="1.3 (0e150ed6c4, 2023-07-21)"
   xmlns:inkscape="http://www.inkscape.org/namespaces/inkscape"
   xmlns:sodipodi="http://sodipodi.sourceforge.net/DTD/sodipodi-0.dtd"
   xmlns="http://www.w3.org/2000/svg"
   xmlns:svg="http://www.w3.org/2000/svg">
  <defs
     id="defs209" />
  <sodipodi:namedview
     id="namedview209"
     pagecolor="#ffffff"
     bordercolor="#000000"
     borderopacity="0.25"
     inkscape:showpageshadow="2"
     inkscape:pageopacity="0.0"
     inkscape:pagecheckerboard="0"
     inkscape:deskcolor="#d1d1d1"
     inkscape:document-units="mm"
     inkscape:zoom="7.0518582"
     inkscape:cx="401.24176"
     inkscape:cy="288.0801"
     inkscape:window-width="3440"
     inkscape:window-height="1385"
     inkscape:window-x="0"
     inkscape:window-y="0"
     inkscape:window-maximized="1"
     inkscape:current-layer="g209" />
  <title
     id="title1">SVG Image created as led_balance-F_Paste.svg date 2023/12/16 10:52:37 </title>
  <desc
     id="desc1">Image generated by PCBNEW </desc>
  <g
     style="fill:#000000; fill-opacity:1.000000;stroke:#000000; stroke-opacity:1.000000; stroke-linecap:round; stroke-linejoin:round;"
     transform="translate(0 0) scale(1 1)"
     id="g1" />
  <g
     style="fill:#000000; fill-opacity:0.0;  stroke:#000000; stroke-width:0.000000; stroke-opacity:1;  stroke-linecap:round; stroke-linejoin:round;"
     id="g209">
    <path
       style="fill:none;fill-opacity:1;fill-rule:evenodd;stroke:#000000;stroke-width:0.02645833;stroke-linecap:round;stroke-linejoin:round;stroke-opacity:1;stroke-dasharray:none"
       d="m 85.25,93.5 -0.01903,0.09567 -0.05419,0.08111 -0.08111,0.05419 L 85,93.75 H 84.5 L 84.40433,93.73097 84.32322,93.67678 84.26903,93.59567 84.25,93.5 V 93 l 0.01903,-0.09567 0.05419,-0.08111 0.08111,-0.05419 L 84.5,92.75 H 85 l 0.09567,0.01903 0.08111,0.05419 0.05419,0.08111 L 85.25,93 Z"
       id="path16" />
    <path
       style="fill:none;fill-opacity:1;fill-rule:evenodd;stroke:#000000;stroke-width:0.02645833;stroke-linecap:round;stroke-linejoin:round;stroke-opacity:1;stroke-dasharray:none"
       d="m 82.75,93.5 -0.01903,0.09567 -0.05419,0.08111 -0.08111,0.05419 L 82.5,93.75 H 82 L 81.90433,93.73097 81.82322,93.67678 81.76903,93.59567 81.75,93.5 V 93 l 0.01903,-0.09567 0.05419,-0.08111 0.08111,-0.05419 L 82,92.75 h 0.5 l 0.09567,0.01903 0.08111,0.05419 0.05419,0.08111 L 82.75,93 Z"
       id="path17" />
    <path
       style="fill:none;fill-opacity:1;fill-rule:evenodd;stroke:#000000;stroke-width:0.02645833;stroke-linecap:round;stroke-linejoin:round;stroke-opacity:1;stroke-dasharray:none"
       d="m 147.05,75.05 h 0.8 v 1.9 h -0.8 z"
       id="path18" />
    <path
       style="fill:none;fill-opacity:1;fill-rule:evenodd;stroke:#000000;stroke-width:0.02645833;stroke-linecap:round;stroke-linejoin:round;stroke-opacity:1;stroke-dasharray:none"
       d="m 145.15,75.05 h 0.8 v 1.9 h -0.8 z"
       id="path19" />
    <path
       style="fill:none;fill-opacity:1;fill-rule:evenodd;stroke:#000000;stroke-width:0.02645833;stroke-linecap:round;stroke-linejoin:round;stroke-opacity:1;stroke-dasharray:none"
       d="m 146.1,78.05 h 0.8 v 1.9 h -0.8 z"
       id="path20" />
    <path
       style="fill:none;fill-opacity:1;fill-rule:evenodd;stroke:#000000;stroke-width:0.02645833;stroke-linecap:round;stroke-linejoin:round;stroke-opacity:1;stroke-dasharray:none"
       d="m 143.875,72.8 0.0957,0.01903 0.0811,0.05419 0.0542,0.08111 0.019,0.09567 v 0.8 l -0.019,0.09567 -0.0542,0.08111 -0.0811,0.05419 L 143.875,74.1 h -1.25 l -0.0957,-0.01903 -0.0811,-0.05419 -0.0542,-0.08111 -0.019,-0.09567 v -0.8 l 0.019,-0.09567 0.0542,-0.08111 0.0811,-0.05419 L 142.625,72.8 Z"
       id="path22" />
    <path
       style="fill:none;fill-opacity:1;fill-rule:evenodd;stroke:#000000;stroke-width:0.02645833;stroke-linecap:round;stroke-linejoin:round;stroke-opacity:1;stroke-dasharray:none"
       d="m 143.875,75.9 0.0957,0.01903 0.0811,0.05419 0.0542,0.08111 0.019,0.09567 v 0.8 l -0.019,0.09567 -0.0542,0.08111 -0.0811,0.05419 L 143.875,77.2 h -1.25 l -0.0957,-0.01903 -0.0811,-0.05419 -0.0542,-0.08111 -0.019,-0.09567 v -0.8 l 0.019,-0.09567 0.0542,-0.08111 0.0811,-0.05419 L 142.625,75.9 Z"
       id="path23" />
    <path
       style="fill:none;fill-opacity:1;fill-rule:evenodd;stroke:#000000;stroke-width:0.02645833;stroke-linecap:round;stroke-linejoin:round;stroke-opacity:1;stroke-dasharray:none"
       d="m 135.35,91.45 -0.019,0.09567 -0.0542,0.08111 -0.0811,0.05419 L 135.1,91.7 h -0.7 L 134.3043,91.68097 134.2232,91.62678 134.169,91.54567 134.15,91.45 v -0.9 l 0.019,-0.09567 0.0542,-0.08111 0.0811,-0.05419 L 134.4,90.3 h 0.7 l 0.0957,0.01903 0.0811,0.05419 0.0542,0.08111 0.019,0.09567 z"
       id="path25" />
    <path
       style="fill:none;fill-opacity:1;fill-rule:evenodd;stroke:#000000;stroke-width:0.02645833;stroke-linecap:round;stroke-linejoin:round;stroke-opacity:1;stroke-dasharray:none"
       d="m 133.35,91.45 -0.019,0.09567 -0.0542,0.08111 -0.0811,0.05419 L 133.1,91.7 h -0.7 L 132.3043,91.68097 132.2232,91.62678 132.169,91.54567 132.15,91.45 v -0.9 l 0.019,-0.09567 0.0542,-0.08111 0.0811,-0.05419 L 132.4,90.3 h 0.7 l 0.0957,0.01903 0.0811,0.05419 0.0542,0.08111 0.019,0.09567 z"
       id="path26" />
    <path
       style="fill:none;fill-opacity:1;fill-rule:evenodd;stroke:#000000;stroke-width:0.02645833;stroke-linecap:round;stroke-linejoin:round;stroke-opacity:1;stroke-dasharray:none"
       d="m 74.95,77.7 h -0.8 v -1.9 h 0.8 z"
       id="path29" />
    <path
       style="fill:none;fill-opacity:1;fill-rule:evenodd;stroke:#000000;stroke-width:0.02645833;stroke-linecap:round;stroke-linejoin:round;stroke-opacity:1;stroke-dasharray:none"
       d="m 76.85,77.7 h -0.8 v -1.9 h 0.8 z"
       id="path30" />
    <path
       style="fill:none;fill-opacity:1;fill-rule:evenodd;stroke:#000000;stroke-width:0.02645833;stroke-linecap:round;stroke-linejoin:round;stroke-opacity:1;stroke-dasharray:none"
       d="m 75.9,74.7 h -0.8 v -1.9 h 0.8 z"
       id="path31" />
    <path
       style="fill:none;fill-opacity:1;fill-rule:evenodd;stroke:#000000;stroke-width:0.02645833;stroke-linecap:round;stroke-linejoin:round;stroke-opacity:1;stroke-dasharray:none"
       d="m 162.1,83.95 -0.019,0.09567 -0.0542,0.08111 -0.0811,0.05419 L 161.85,84.2 h -0.7 L 161.0543,84.18097 160.9732,84.12678 160.919,84.04567 160.9,83.95 v -0.9 l 0.019,-0.09567 0.0542,-0.08111 0.0811,-0.05419 L 161.15,82.8 h 0.7 l 0.0957,0.01903 0.0811,0.05419 0.0542,0.08111 0.019,0.09567 z"
       id="path32" />
    <path
       style="fill:none;fill-opacity:1;fill-rule:evenodd;stroke:#000000;stroke-width:0.02645833;stroke-linecap:round;stroke-linejoin:round;stroke-opacity:1;stroke-dasharray:none"
       d="m 160.1,83.95 -0.019,0.09567 -0.0542,0.08111 -0.0811,0.05419 L 159.85,84.2 h -0.7 L 159.0543,84.18097 158.9732,84.12678 158.919,84.04567 158.9,83.95 v -0.9 l 0.019,-0.09567 0.0542,-0.08111 0.0811,-0.05419 L 159.15,82.8 h 0.7 l 0.0957,0.01903 0.0811,0.05419 0.0542,0.08111 0.019,0.09567 z"
       id="path33" />
    <path
       style="fill:none;fill-opacity:1;fill-rule:evenodd;stroke:#000000;stroke-width:0.02645833;stroke-linecap:round;stroke-linejoin:round;stroke-opacity:1;stroke-dasharray:none"
       d="m 137.1,83.95 -0.019,0.09567 -0.0542,0.08111 -0.0811,0.05419 L 136.85,84.2 h -0.7 L 136.0543,84.18097 135.9732,84.12678 135.919,84.04567 135.9,83.95 v -0.9 l 0.019,-0.09567 0.0542,-0.08111 0.0811,-0.05419 L 136.15,82.8 h 0.7 l 0.0957,0.01903 0.0811,0.05419 0.0542,0.08111 0.019,0.09567 z"
       id="path35" />
    <path
       style="fill:none;fill-opacity:1;fill-rule:evenodd;stroke:#000000;stroke-width:0.02645833;stroke-linecap:round;stroke-linejoin:round;stroke-opacity:1;stroke-dasharray:none"
       d="m 135.1,83.95 -0.019,0.09567 -0.0542,0.08111 -0.0811,0.05419 L 134.85,84.2 h -0.7 L 134.0543,84.18097 133.9732,84.12678 133.919,84.04567 133.9,83.95 v -0.9 l 0.019,-0.09567 0.0542,-0.08111 0.0811,-0.05419 L 134.15,82.8 h 0.7 l 0.0957,0.01903 0.0811,0.05419 0.0542,0.08111 0.019,0.09567 z"
       id="path36" />
    <path
       style="fill:none;fill-opacity:1;fill-rule:evenodd;stroke:#000000;stroke-width:0.02645833;stroke-linecap:round;stroke-linejoin:round;stroke-opacity:1;stroke-dasharray:none"
       d="m 110.35,91.45 -0.019,0.09567 -0.0542,0.08111 -0.0811,0.05419 L 110.1,91.7 h -0.7 L 109.3043,91.68097 109.2232,91.62678 109.169,91.54567 109.15,91.45 v -0.9 l 0.019,-0.09567 0.0542,-0.08111 0.0811,-0.05419 L 109.4,90.3 h 0.7 l 0.0957,0.01903 0.0811,0.05419 0.0542,0.08111 0.019,0.09567 z"
       id="path37" />
    <path
       style="fill:none;fill-opacity:1;fill-rule:evenodd;stroke:#000000;stroke-width:0.02645833;stroke-linecap:round;stroke-linejoin:round;stroke-opacity:1;stroke-dasharray:none"
       d="m 108.35,91.45 -0.019,0.09567 -0.0542,0.08111 -0.0811,0.05419 L 108.1,91.7 h -0.7 L 107.3043,91.68097 107.2232,91.62678 107.169,91.54567 107.15,91.45 v -0.9 l 0.019,-0.09567 0.0542,-0.08111 0.0811,-0.05419 L 107.4,90.3 h 0.7 l 0.0957,0.01903 0.0811,0.05419 0.0542,0.08111 0.019,0.09567 z"
       id="path38" />
    <path
       style="fill:none;fill-opacity:1;fill-rule:evenodd;stroke:#000000;stroke-width:0.02645833;stroke-linecap:round;stroke-linejoin:round;stroke-opacity:1;stroke-dasharray:none"
       d="m 159.95,81.95 h -0.8 v -1.9 h 0.8 z"
       id="path39" />
    <path
       style="fill:none;fill-opacity:1;fill-rule:evenodd;stroke:#000000;stroke-width:0.02645833;stroke-linecap:round;stroke-linejoin:round;stroke-opacity:1;stroke-dasharray:none"
       d="m 161.85,81.95 h -0.8 v -1.9 h 0.8 z"
       id="path40" />
    <path
       style="fill:none;fill-opacity:1;fill-rule:evenodd;stroke:#000000;stroke-width:0.02645833;stroke-linecap:round;stroke-linejoin:round;stroke-opacity:1;stroke-dasharray:none"
       d="m 160.9,78.95 h -0.8 v -1.9 h 0.8 z"
       id="path41" />
    <path
       style="fill:none;fill-opacity:1;fill-rule:evenodd;stroke:#000000;stroke-width:0.02645833;stroke-linecap:round;stroke-linejoin:round;stroke-opacity:1;stroke-dasharray:none"
       d="m 118.875,72.8 0.0957,0.01903 0.0811,0.05419 0.0542,0.08111 0.019,0.09567 v 0.8 l -0.019,0.09567 -0.0542,0.08111 -0.0811,0.05419 L 118.875,74.1 h -1.25 l -0.0957,-0.01903 -0.0811,-0.05419 -0.0542,-0.08111 -0.019,-0.09567 v -0.8 l 0.019,-0.09567 0.0542,-0.08111 0.0811,-0.05419 L 117.625,72.8 Z"
       id="path42" />
    <path
       style="fill:none;fill-opacity:1;fill-rule:evenodd;stroke:#000000;stroke-width:0.02645833;stroke-linecap:round;stroke-linejoin:round;stroke-opacity:1;stroke-dasharray:none"
       d="m 118.875,75.9 0.0957,0.01903 0.0811,0.05419 0.0542,0.08111 0.019,0.09567 v 0.8 l -0.019,0.09567 -0.0542,0.08111 -0.0811,0.05419 L 118.875,77.2 h -1.25 l -0.0957,-0.01903 -0.0811,-0.05419 -0.0542,-0.08111 -0.019,-0.09567 v -0.8 l 0.019,-0.09567 0.0542,-0.08111 0.0811,-0.05419 L 117.625,75.9 Z"
       id="path43" />
    <path
       style="fill:none;fill-opacity:1;fill-rule:evenodd;stroke:#000000;stroke-width:0.02645833;stroke-linecap:round;stroke-linejoin:round;stroke-opacity:1;stroke-dasharray:none"
       d="m 84.95,81.95 h -0.8 v -1.9 h 0.8 z"
       id="path44" />
    <path
       style="fill:none;fill-opacity:1;fill-rule:evenodd;stroke:#000000;stroke-width:0.02645833;stroke-linecap:round;stroke-linejoin:round;stroke-opacity:1;stroke-dasharray:none"
       d="m 86.85,81.95 h -0.8 v -1.9 h 0.8 z"
       id="path45" />
    <path
       style="fill:none;fill-opacity:1;fill-rule:evenodd;stroke:#000000;stroke-width:0.02645833;stroke-linecap:round;stroke-linejoin:round;stroke-opacity:1;stroke-dasharray:none"
       d="m 85.9,78.95 h -0.8 v -1.9 h 0.8 z"
       id="path46" />
    <path
       style="fill:none;fill-opacity:1;fill-rule:evenodd;stroke:#000000;stroke-width:0.02645833;stroke-linecap:round;stroke-linejoin:round;stroke-opacity:1;stroke-dasharray:none"
       d="m 113.125,84.2 -0.0957,-0.01903 -0.0811,-0.05419 -0.0542,-0.08111 -0.019,-0.09567 v -0.8 l 0.019,-0.09567 0.0542,-0.08111 0.0811,-0.05419 L 113.125,82.9 h 1.25 l 0.0957,0.01903 0.0811,0.05419 0.0542,0.08111 0.019,0.09567 v 0.8 l -0.019,0.09567 -0.0542,0.08111 -0.0811,0.05419 L 114.375,84.2 Z"
       id="path47" />
    <path
       style="fill:none;fill-opacity:1;fill-rule:evenodd;stroke:#000000;stroke-width:0.02645833;stroke-linecap:round;stroke-linejoin:round;stroke-opacity:1;stroke-dasharray:none"
       d="m 113.125,81.1 -0.0957,-0.01903 -0.0811,-0.05419 -0.0542,-0.08111 -0.019,-0.09567 v -0.8 l 0.019,-0.09567 0.0542,-0.08111 0.0811,-0.05419 L 113.125,79.8 h 1.25 l 0.0957,0.01903 0.0811,0.05419 0.0542,0.08111 0.019,0.09567 v 0.8 l -0.019,0.09567 -0.0542,0.08111 -0.0811,0.05419 L 114.375,81.1 Z"
       id="path48" />
    <path
       style="fill:none;fill-opacity:1;fill-rule:evenodd;stroke:#000000;stroke-width:0.02645833;stroke-linecap:round;stroke-linejoin:round;stroke-opacity:1;stroke-dasharray:none"
       d="m 104.9,77.3 0.019,-0.09567 0.0542,-0.08111 0.0811,-0.05419 L 105.15,77.05 h 0.7 l 0.0957,0.01903 0.0811,0.05419 0.0542,0.08111 L 106.1,77.3 v 0.9 l -0.019,0.09567 -0.0542,0.08111 -0.0811,0.05419 L 105.85,78.45 h -0.7 L 105.0543,78.43097 104.9732,78.37678 104.919,78.29567 104.9,78.2 Z"
       id="path50" />
    <path
       style="fill:none;fill-opacity:1;fill-rule:evenodd;stroke:#000000;stroke-width:0.02645833;stroke-linecap:round;stroke-linejoin:round;stroke-opacity:1;stroke-dasharray:none"
       d="m 106.9,77.3 0.019,-0.09567 0.0542,-0.08111 0.0811,-0.05419 L 107.15,77.05 h 0.7 l 0.0957,0.01903 0.0811,0.05419 0.0542,0.08111 L 108.1,77.3 v 0.9 l -0.019,0.09567 -0.0542,0.08111 -0.0811,0.05419 L 107.85,78.45 h -0.7 L 107.0543,78.43097 106.9732,78.37678 106.919,78.29567 106.9,78.2 Z"
       id="path51" />
    <path
       style="fill:none;fill-opacity:1;fill-rule:evenodd;stroke:#000000;stroke-width:0.02645833;stroke-linecap:round;stroke-linejoin:round;stroke-opacity:1;stroke-dasharray:none"
       d="m 85.35,91.45 -0.01903,0.09567 -0.05419,0.08111 -0.08111,0.05419 L 85.1,91.7 H 84.4 L 84.30433,91.68097 84.22322,91.62678 84.16903,91.54567 84.15,91.45 v -0.9 l 0.01903,-0.09567 0.05419,-0.08111 0.08111,-0.05419 L 84.4,90.3 h 0.7 l 0.09567,0.01903 0.08111,0.05419 0.05419,0.08111 L 85.35,90.55 Z"
       id="path53" />
    <path
       style="fill:none;fill-opacity:1;fill-rule:evenodd;stroke:#000000;stroke-width:0.02645833;stroke-linecap:round;stroke-linejoin:round;stroke-opacity:1;stroke-dasharray:none"
       d="m 83.35,91.45 -0.01903,0.09567 -0.05419,0.08111 -0.08111,0.05419 L 83.1,91.7 H 82.4 L 82.30433,91.68097 82.22322,91.62678 82.16903,91.54567 82.15,91.45 v -0.9 l 0.01903,-0.09567 0.05419,-0.08111 0.08111,-0.05419 L 82.4,90.3 h 0.7 l 0.09567,0.01903 0.08111,0.05419 0.05419,0.08111 L 83.35,90.55 Z"
       id="path54" />
    <path
       style="fill:none;fill-opacity:1;fill-rule:evenodd;stroke:#000000;stroke-width:0.02645833;stroke-linecap:round;stroke-linejoin:round;stroke-opacity:1;stroke-dasharray:none"
       d="M 143,81.5 142.9043,81.48097 142.8232,81.42678 142.769,81.34567 142.75,81.25 v -0.5 l 0.019,-0.09567 0.0542,-0.08111 0.0811,-0.05419 L 143,80.5 h 0.5 l 0.0957,0.01903 0.0811,0.05419 0.0542,0.08111 0.019,0.09567 v 0.5 l -0.019,0.09567 -0.0542,0.08111 -0.0811,0.05419 L 143.5,81.5 Z"
       id="path55" />
    <path
       style="fill:none;fill-opacity:1;fill-rule:evenodd;stroke:#000000;stroke-width:0.02645833;stroke-linecap:round;stroke-linejoin:round;stroke-opacity:1;stroke-dasharray:none"
       d="M 143,79 142.9043,78.98097 142.8232,78.92678 142.769,78.84567 142.75,78.75 v -0.5 l 0.019,-0.09567 0.0542,-0.08111 0.0811,-0.05419 L 143,78 h 0.5 l 0.0957,0.01903 0.0811,0.05419 0.0542,0.08111 0.019,0.09567 v 0.5 l -0.019,0.09567 -0.0542,0.08111 -0.0811,0.05419 L 143.5,79 Z"
       id="path56" />
    <path
       style="fill:none;fill-opacity:1;fill-rule:evenodd;stroke:#000000;stroke-width:0.02645833;stroke-linecap:round;stroke-linejoin:round;stroke-opacity:1;stroke-dasharray:none"
       d="m 119.9,73.05 0.019,-0.09567 0.0542,-0.08111 0.0811,-0.05419 L 120.15,72.8 h 0.7 l 0.0957,0.01903 0.0811,0.05419 0.0542,0.08111 0.019,0.09567 v 0.9 l -0.019,0.09567 -0.0542,0.08111 -0.0811,0.05419 L 120.85,74.2 h -0.7 L 120.0543,74.18097 119.9732,74.12678 119.919,74.04567 119.9,73.95 Z"
       id="path60" />
    <path
       style="fill:none;fill-opacity:1;fill-rule:evenodd;stroke:#000000;stroke-width:0.02645833;stroke-linecap:round;stroke-linejoin:round;stroke-opacity:1;stroke-dasharray:none"
       d="m 121.9,73.05 0.019,-0.09567 0.0542,-0.08111 0.0811,-0.05419 L 122.15,72.8 h 0.7 l 0.0957,0.01903 0.0811,0.05419 0.0542,0.08111 0.019,0.09567 v 0.9 l -0.019,0.09567 -0.0542,0.08111 -0.0811,0.05419 L 122.85,74.2 h -0.7 L 122.0543,74.18097 121.9732,74.12678 121.919,74.04567 121.9,73.95 Z"
       id="path61" />
    <path
       style="fill:none;fill-opacity:1;fill-rule:evenodd;stroke:#000000;stroke-width:0.02645833;stroke-linecap:round;stroke-linejoin:round;stroke-opacity:1;stroke-dasharray:none"
       d="m 134.95,81.95 h -0.8 v -1.9 h 0.8 z"
       id="path62" />
    <path
       style="fill:none;fill-opacity:1;fill-rule:evenodd;stroke:#000000;stroke-width:0.02645833;stroke-linecap:round;stroke-linejoin:round;stroke-opacity:1;stroke-dasharray:none"
       d="m 136.85,81.95 h -0.8 v -1.9 h 0.8 z"
       id="path63" />
    <path
       style="fill:none;fill-opacity:1;fill-rule:evenodd;stroke:#000000;stroke-width:0.02645833;stroke-linecap:round;stroke-linejoin:round;stroke-opacity:1;stroke-dasharray:none"
       d="m 135.9,78.95 h -0.8 v -1.9 h 0.8 z"
       id="path64" />
    <path
       style="fill:none;fill-opacity:1;fill-rule:evenodd;stroke:#000000;stroke-width:0.02645833;stroke-linecap:round;stroke-linejoin:round;stroke-opacity:1;stroke-dasharray:none"
       d="m 139,75.5 0.0957,0.01903 0.0811,0.05419 0.0542,0.08111 0.019,0.09567 v 0.5 l -0.019,0.09567 -0.0542,0.08111 -0.0811,0.05419 L 139,76.5 h -0.5 L 138.4043,76.48097 138.3232,76.42678 138.269,76.34567 138.25,76.25 v -0.5 l 0.019,-0.09567 0.0542,-0.08111 0.0811,-0.05419 L 138.5,75.5 Z"
       id="path65" />
    <path
       style="fill:none;fill-opacity:1;fill-rule:evenodd;stroke:#000000;stroke-width:0.02645833;stroke-linecap:round;stroke-linejoin:round;stroke-opacity:1;stroke-dasharray:none"
       d="m 139,78 0.0957,0.01903 0.0811,0.05419 0.0542,0.08111 0.019,0.09567 v 0.5 l -0.019,0.09567 -0.0542,0.08111 -0.0811,0.05419 L 139,79 h -0.5 L 138.4043,78.98097 138.3232,78.92678 138.269,78.84567 138.25,78.75 v -0.5 l 0.019,-0.09567 0.0542,-0.08111 0.0811,-0.05419 L 138.5,78 Z"
       id="path66" />
    <path
       style="fill:none;fill-opacity:1;fill-rule:evenodd;stroke:#000000;stroke-width:0.02645833;stroke-linecap:round;stroke-linejoin:round;stroke-opacity:1;stroke-dasharray:none"
       d="m 109.95,81.95 h -0.8 v -1.9 h 0.8 z"
       id="path70" />
    <path
       style="fill:none;fill-opacity:1;fill-rule:evenodd;stroke:#000000;stroke-width:0.02645833;stroke-linecap:round;stroke-linejoin:round;stroke-opacity:1;stroke-dasharray:none"
       d="m 111.85,81.95 h -0.8 v -1.9 h 0.8 z"
       id="path71" />
    <path
       style="fill:none;fill-opacity:1;fill-rule:evenodd;stroke:#000000;stroke-width:0.02645833;stroke-linecap:round;stroke-linejoin:round;stroke-opacity:1;stroke-dasharray:none"
       d="m 110.9,78.95 h -0.8 v -1.9 h 0.8 z"
       id="path72" />
    <path
       style="fill:none;fill-opacity:1;fill-rule:evenodd;stroke:#000000;stroke-width:0.02645833;stroke-linecap:round;stroke-linejoin:round;stroke-opacity:1;stroke-dasharray:none"
       d="m 102.1,79.7 -0.019,0.09567 -0.0542,0.08111 -0.0811,0.05419 L 101.85,79.95 h -0.7 L 101.0543,79.93097 100.9732,79.87678 100.919,79.79567 100.9,79.7 v -0.9 l 0.019,-0.09567 0.0542,-0.08111 0.0811,-0.05419 L 101.15,78.55 h 0.7 l 0.0957,0.01903 0.0811,0.05419 0.0542,0.08111 L 102.1,78.8 Z"
       id="path73" />
    <path
       style="fill:none;fill-opacity:1;fill-rule:evenodd;stroke:#000000;stroke-width:0.02645833;stroke-linecap:round;stroke-linejoin:round;stroke-opacity:1;stroke-dasharray:none"
       d="m 100.1,79.7 -0.019,0.09567 -0.0542,0.08111 -0.08111,0.05419 L 99.85,79.95 h -0.7 L 99.05433,79.93097 98.97322,79.87678 98.91903,79.79567 98.9,79.7 v -0.9 l 0.01903,-0.09567 0.05419,-0.08111 0.08111,-0.05419 L 99.15,78.55 h 0.7 l 0.09567,0.01903 0.08111,0.05419 0.0542,0.08111 L 100.1,78.8 Z"
       id="path74" />
    <path
       style="fill:none;fill-opacity:1;fill-rule:evenodd;stroke:#000000;stroke-width:0.02645833;stroke-linecap:round;stroke-linejoin:round;stroke-opacity:1;stroke-dasharray:none"
       d="m 149.95,77.7 h -0.8 v -1.9 h 0.8 z"
       id="path75" />
    <path
       style="fill:none;fill-opacity:1;fill-rule:evenodd;stroke:#000000;stroke-width:0.02645833;stroke-linecap:round;stroke-linejoin:round;stroke-opacity:1;stroke-dasharray:none"
       d="m 151.85,77.7 h -0.8 v -1.9 h 0.8 z"
       id="path76" />
    <path
       style="fill:none;fill-opacity:1;fill-rule:evenodd;stroke:#000000;stroke-width:0.02645833;stroke-linecap:round;stroke-linejoin:round;stroke-opacity:1;stroke-dasharray:none"
       d="m 150.9,74.7 h -0.8 v -1.9 h 0.8 z"
       id="path77" />
    <path
       style="fill:none;fill-opacity:1;fill-rule:evenodd;stroke:#000000;stroke-width:0.02645833;stroke-linecap:round;stroke-linejoin:round;stroke-opacity:1;stroke-dasharray:none"
       d="m 77.1,79.7 -0.01903,0.09567 -0.05419,0.08111 -0.08111,0.05419 L 76.85,79.95 h -0.7 L 76.05433,79.93097 75.97322,79.87678 75.91903,79.79567 75.9,79.7 v -0.9 l 0.01903,-0.09567 0.05419,-0.08111 0.08111,-0.05419 L 76.15,78.55 h 0.7 l 0.09567,0.01903 0.08111,0.05419 0.05419,0.08111 L 77.1,78.8 Z"
       id="path79" />
    <path
       style="fill:none;fill-opacity:1;fill-rule:evenodd;stroke:#000000;stroke-width:0.02645833;stroke-linecap:round;stroke-linejoin:round;stroke-opacity:1;stroke-dasharray:none"
       d="m 75.1,79.7 -0.01903,0.09567 -0.05419,0.08111 -0.08111,0.05419 L 74.85,79.95 h -0.7 L 74.05433,79.93097 73.97322,79.87678 73.91903,79.79567 73.9,79.7 v -0.9 l 0.01903,-0.09567 0.05419,-0.08111 0.08111,-0.05419 L 74.15,78.55 h 0.7 l 0.09567,0.01903 0.08111,0.05419 0.05419,0.08111 L 75.1,78.8 Z"
       id="path80" />
    <path
       style="fill:none;fill-opacity:1;fill-rule:evenodd;stroke:#000000;stroke-width:0.02645833;stroke-linecap:round;stroke-linejoin:round;stroke-opacity:1;stroke-dasharray:none"
       d="m 121.75,63.5 0.019,-0.09567 0.0542,-0.08111 0.0811,-0.05419 L 122,63.25 h 0.5 l 0.0957,0.01903 0.0811,0.05419 0.0542,0.08111 L 122.75,63.5 V 64 l -0.019,0.09567 -0.0542,0.08111 -0.0811,0.05419 L 122.5,64.25 H 122 L 121.9043,64.23097 121.8232,64.17678 121.769,64.09567 121.75,64 Z"
       id="path81" />
    <path
       style="fill:none;fill-opacity:1;fill-rule:evenodd;stroke:#000000;stroke-width:0.02645833;stroke-linecap:round;stroke-linejoin:round;stroke-opacity:1;stroke-dasharray:none"
       d="m 124.25,63.5 0.019,-0.09567 0.0542,-0.08111 0.0811,-0.05419 L 124.5,63.25 h 0.5 l 0.0957,0.01903 0.0811,0.05419 0.0542,0.08111 L 125.25,63.5 V 64 l -0.019,0.09567 -0.0542,0.08111 -0.0811,0.05419 L 125,64.25 h -0.5 L 124.4043,64.23097 124.3232,64.17678 124.269,64.09567 124.25,64 Z"
       id="path82" />
    <path
       style="fill:none;fill-opacity:1;fill-rule:evenodd;stroke:#000000;stroke-width:0.02645833;stroke-linecap:round;stroke-linejoin:round;stroke-opacity:1;stroke-dasharray:none"
       d="m 129.9,77.3 0.019,-0.09567 0.0542,-0.08111 0.0811,-0.05419 L 130.15,77.05 h 0.7 l 0.0957,0.01903 0.0811,0.05419 0.0542,0.08111 L 131.1,77.3 v 0.9 l -0.019,0.09567 -0.0542,0.08111 -0.0811,0.05419 L 130.85,78.45 h -0.7 L 130.0543,78.43097 129.9732,78.37678 129.919,78.29567 129.9,78.2 Z"
       id="path84" />
    <path
       style="fill:none;fill-opacity:1;fill-rule:evenodd;stroke:#000000;stroke-width:0.02645833;stroke-linecap:round;stroke-linejoin:round;stroke-opacity:1;stroke-dasharray:none"
       d="m 131.9,77.3 0.019,-0.09567 0.0542,-0.08111 0.0811,-0.05419 L 132.15,77.05 h 0.7 l 0.0957,0.01903 0.0811,0.05419 0.0542,0.08111 L 133.1,77.3 v 0.9 l -0.019,0.09567 -0.0542,0.08111 -0.0811,0.05419 L 132.85,78.45 h -0.7 L 132.0543,78.43097 131.9732,78.37678 131.919,78.29567 131.9,78.2 Z"
       id="path85" />
    <path
       style="fill:none;fill-opacity:1;fill-rule:evenodd;stroke:#000000;stroke-width:0.02645833;stroke-linecap:round;stroke-linejoin:round;stroke-opacity:1;stroke-dasharray:none"
       d="m 99.95,77.7 h -0.8 v -1.9 h 0.8 z"
       id="path87" />
    <path
       style="fill:none;fill-opacity:1;fill-rule:evenodd;stroke:#000000;stroke-width:0.02645833;stroke-linecap:round;stroke-linejoin:round;stroke-opacity:1;stroke-dasharray:none"
       d="m 101.85,77.7 h -0.8 v -1.9 h 0.8 z"
       id="path88" />
    <path
       style="fill:none;fill-opacity:1;fill-rule:evenodd;stroke:#000000;stroke-width:0.02645833;stroke-linecap:round;stroke-linejoin:round;stroke-opacity:1;stroke-dasharray:none"
       d="m 100.9,74.7 h -0.8 v -1.9 h 0.8 z"
       id="path89" />
    <path
       style="fill:none;fill-opacity:1;fill-rule:evenodd;stroke:#000000;stroke-width:0.02645833;stroke-linecap:round;stroke-linejoin:round;stroke-opacity:1;stroke-dasharray:none"
       d="m 122.05,75.05 h 0.8 v 1.9 h -0.8 z"
       id="path90" />
    <path
       style="fill:none;fill-opacity:1;fill-rule:evenodd;stroke:#000000;stroke-width:0.02645833;stroke-linecap:round;stroke-linejoin:round;stroke-opacity:1;stroke-dasharray:none"
       d="m 120.15,75.05 h 0.8 v 1.9 h -0.8 z"
       id="path91" />
    <path
       style="fill:none;fill-opacity:1;fill-rule:evenodd;stroke:#000000;stroke-width:0.02645833;stroke-linecap:round;stroke-linejoin:round;stroke-opacity:1;stroke-dasharray:none"
       d="m 121.1,78.05 h 0.8 v 1.9 h -0.8 z"
       id="path92" />
    <path
       style="fill:none;fill-opacity:1;fill-rule:evenodd;stroke:#000000;stroke-width:0.02645833;stroke-linecap:round;stroke-linejoin:round;stroke-opacity:1;stroke-dasharray:none"
       d="m 152.1,79.7 -0.019,0.09567 -0.0542,0.08111 -0.0811,0.05419 L 151.85,79.95 h -0.7 L 151.0543,79.93097 150.9732,79.87678 150.919,79.79567 150.9,79.7 v -0.9 l 0.019,-0.09567 0.0542,-0.08111 0.0811,-0.05419 L 151.15,78.55 h 0.7 l 0.0957,0.01903 0.0811,0.05419 0.0542,0.08111 L 152.1,78.8 Z"
       id="path94" />
    <path
       style="fill:none;fill-opacity:1;fill-rule:evenodd;stroke:#000000;stroke-width:0.02645833;stroke-linecap:round;stroke-linejoin:round;stroke-opacity:1;stroke-dasharray:none"
       d="m 150.1,79.7 -0.019,0.09567 -0.0542,0.08111 -0.0811,0.05419 L 149.85,79.95 h -0.7 L 149.0543,79.93097 148.9732,79.87678 148.919,79.79567 148.9,79.7 v -0.9 l 0.019,-0.09567 0.0542,-0.08111 0.0811,-0.05419 L 149.15,78.55 h 0.7 l 0.0957,0.01903 0.0811,0.05419 0.0542,0.08111 L 150.1,78.8 Z"
       id="path95" />
    <path
       style="fill:none;fill-opacity:1;fill-rule:evenodd;stroke:#000000;stroke-width:0.02645833;stroke-linecap:round;stroke-linejoin:round;stroke-opacity:1;stroke-dasharray:none"
       d="m 89,75.5 0.09567,0.01903 0.08111,0.05419 0.05419,0.08111 L 89.25,75.75 v 0.5 l -0.01903,0.09567 -0.05419,0.08111 -0.08111,0.05419 L 89,76.5 H 88.5 L 88.40433,76.48097 88.32322,76.42678 88.26903,76.34567 88.25,76.25 v -0.5 l 0.01903,-0.09567 0.05419,-0.08111 0.08111,-0.05419 L 88.5,75.5 Z"
       id="path96" />
    <path
       style="fill:none;fill-opacity:1;fill-rule:evenodd;stroke:#000000;stroke-width:0.02645833;stroke-linecap:round;stroke-linejoin:round;stroke-opacity:1;stroke-dasharray:none"
       d="m 89,78 0.09567,0.01903 0.08111,0.05419 0.05419,0.08111 L 89.25,78.25 v 0.5 l -0.01903,0.09567 -0.05419,0.08111 -0.08111,0.05419 L 89,79 H 88.5 L 88.40433,78.98097 88.32322,78.92678 88.26903,78.84567 88.25,78.75 v -0.5 l 0.01903,-0.09567 0.05419,-0.08111 0.08111,-0.05419 L 88.5,78 Z"
       id="path97" />
    <path
       style="fill:none;fill-opacity:1;fill-rule:evenodd;stroke:#000000;stroke-width:0.02645833;stroke-linecap:round;stroke-linejoin:round;stroke-opacity:1;stroke-dasharray:none"
       d="m 154.9,77.3 0.019,-0.09567 0.0542,-0.08111 0.0811,-0.05419 L 155.15,77.05 h 0.7 l 0.0957,0.01903 0.0811,0.05419 0.0542,0.08111 L 156.1,77.3 v 0.9 l -0.019,0.09567 -0.0542,0.08111 -0.0811,0.05419 L 155.85,78.45 h -0.7 L 155.0543,78.43097 154.9732,78.37678 154.919,78.29567 154.9,78.2 Z"
       id="path100" />
    <path
       style="fill:none;fill-opacity:1;fill-rule:evenodd;stroke:#000000;stroke-width:0.02645833;stroke-linecap:round;stroke-linejoin:round;stroke-opacity:1;stroke-dasharray:none"
       d="m 156.9,77.3 0.019,-0.09567 0.0542,-0.08111 0.0811,-0.05419 L 157.15,77.05 h 0.7 l 0.0957,0.01903 0.0811,0.05419 0.0542,0.08111 L 158.1,77.3 v 0.9 l -0.019,0.09567 -0.0542,0.08111 -0.0811,0.05419 L 157.85,78.45 h -0.7 L 157.0543,78.43097 156.9732,78.37678 156.919,78.29567 156.9,78.2 Z"
       id="path101" />
    <path
       style="fill:none;fill-opacity:1;fill-rule:evenodd;stroke:#000000;stroke-width:0.02645833;stroke-linecap:round;stroke-linejoin:round;stroke-opacity:1;stroke-dasharray:none"
       d="m 110.25,93.5 -0.019,0.09567 -0.0542,0.08111 -0.0811,0.05419 L 110,93.75 h -0.5 L 109.4043,93.73097 109.3232,93.67678 109.269,93.59567 109.25,93.5 V 93 l 0.019,-0.09567 0.0542,-0.08111 0.0811,-0.05419 L 109.5,92.75 h 0.5 l 0.0957,0.01903 0.0811,0.05419 0.0542,0.08111 L 110.25,93 Z"
       id="path104" />
    <path
       style="fill:none;fill-opacity:1;fill-rule:evenodd;stroke:#000000;stroke-width:0.02645833;stroke-linecap:round;stroke-linejoin:round;stroke-opacity:1;stroke-dasharray:none"
       d="m 107.75,93.5 -0.019,0.09567 -0.0542,0.08111 -0.0811,0.05419 L 107.5,93.75 H 107 L 106.9043,93.73097 106.8232,93.67678 106.769,93.59567 106.75,93.5 V 93 l 0.019,-0.09567 0.0542,-0.08111 0.0811,-0.05419 L 107,92.75 h 0.5 l 0.0957,0.01903 0.0811,0.05419 0.0542,0.08111 L 107.75,93 Z"
       id="path105" />
    <path
       style="fill:none;fill-opacity:1;fill-rule:evenodd;stroke:#000000;stroke-width:0.02645833;stroke-linecap:round;stroke-linejoin:round;stroke-opacity:1;stroke-dasharray:none"
       d="m 93.875,72.8 0.09567,0.01903 0.08111,0.05419 0.05419,0.08111 L 94.125,73.05 v 0.8 l -0.01903,0.09567 -0.05419,0.08111 -0.08111,0.05419 L 93.875,74.1 h -1.25 L 92.52933,74.08097 92.44822,74.02678 92.39403,73.94567 92.375,73.85 v -0.8 l 0.01903,-0.09567 0.05419,-0.08111 0.08111,-0.05419 L 92.625,72.8 Z"
       id="path106" />
    <path
       style="fill:none;fill-opacity:1;fill-rule:evenodd;stroke:#000000;stroke-width:0.02645833;stroke-linecap:round;stroke-linejoin:round;stroke-opacity:1;stroke-dasharray:none"
       d="m 93.875,75.9 0.09567,0.01903 0.08111,0.05419 0.05419,0.08111 L 94.125,76.15 v 0.8 l -0.01903,0.09567 -0.05419,0.08111 -0.08111,0.05419 L 93.875,77.2 h -1.25 L 92.52933,77.18097 92.44822,77.12678 92.39403,77.04567 92.375,76.95 v -0.8 l 0.01903,-0.09567 0.05419,-0.08111 0.08111,-0.05419 L 92.625,75.9 Z"
       id="path107" />
    <path
       style="fill:none;fill-opacity:1;fill-rule:evenodd;stroke:#000000;stroke-width:0.02645833;stroke-linecap:round;stroke-linejoin:round;stroke-opacity:1;stroke-dasharray:none"
       d="m 127.1,79.7 -0.019,0.09567 -0.0542,0.08111 -0.0811,0.05419 L 126.85,79.95 h -0.7 L 126.0543,79.93097 125.9732,79.87678 125.919,79.79567 125.9,79.7 v -0.9 l 0.019,-0.09567 0.0542,-0.08111 0.0811,-0.05419 L 126.15,78.55 h 0.7 l 0.0957,0.01903 0.0811,0.05419 0.0542,0.08111 L 127.1,78.8 Z"
       id="path108" />
    <path
       style="fill:none;fill-opacity:1;fill-rule:evenodd;stroke:#000000;stroke-width:0.02645833;stroke-linecap:round;stroke-linejoin:round;stroke-opacity:1;stroke-dasharray:none"
       d="m 125.1,79.7 -0.019,0.09567 -0.0542,0.08111 -0.0811,0.05419 L 124.85,79.95 h -0.7 L 124.0543,79.93097 123.9732,79.87678 123.919,79.79567 123.9,79.7 v -0.9 l 0.019,-0.09567 0.0542,-0.08111 0.0811,-0.05419 L 124.15,78.55 h 0.7 l 0.0957,0.01903 0.0811,0.05419 0.0542,0.08111 L 125.1,78.8 Z"
       id="path109" />
    <path
       style="fill:none;fill-opacity:1;fill-rule:evenodd;stroke:#000000;stroke-width:0.02645833;stroke-linecap:round;stroke-linejoin:round;stroke-opacity:1;stroke-dasharray:none"
       d="m 71.65,65.55 0.01903,-0.09567 0.05419,-0.08111 0.08111,-0.05419 L 71.9,65.3 h 0.7 l 0.09567,0.01903 0.08111,0.05419 0.05419,0.08111 L 72.85,65.55 v 0.9 l -0.01903,0.09567 -0.05419,0.08111 -0.08111,0.05419 L 72.6,66.7 H 71.9 L 71.80433,66.68097 71.72322,66.62678 71.66903,66.54567 71.65,66.45 Z"
       id="path111" />
    <path
       style="fill:none;fill-opacity:1;fill-rule:evenodd;stroke:#000000;stroke-width:0.02645833;stroke-linecap:round;stroke-linejoin:round;stroke-opacity:1;stroke-dasharray:none"
       d="m 73.65,65.55 0.01903,-0.09567 0.05419,-0.08111 0.08111,-0.05419 L 73.9,65.3 h 0.7 l 0.09567,0.01903 0.08111,0.05419 0.05419,0.08111 L 74.85,65.55 v 0.9 l -0.01903,0.09567 -0.05419,0.08111 -0.08111,0.05419 L 74.6,66.7 H 73.9 L 73.80433,66.68097 73.72322,66.62678 73.66903,66.54567 73.65,66.45 Z"
       id="path112" />
    <path
       style="fill:none;fill-opacity:1;fill-rule:evenodd;stroke:#000000;stroke-width:0.02645833;stroke-linecap:round;stroke-linejoin:round;stroke-opacity:1;stroke-dasharray:none"
       d="m 138.125,84.2 -0.0957,-0.01903 -0.0811,-0.05419 -0.0542,-0.08111 -0.019,-0.09567 v -0.8 l 0.019,-0.09567 0.0542,-0.08111 0.0811,-0.05419 L 138.125,82.9 h 1.25 l 0.0957,0.01903 0.0811,0.05419 0.0542,0.08111 0.019,0.09567 v 0.8 l -0.019,0.09567 -0.0542,0.08111 -0.0811,0.05419 L 139.375,84.2 Z"
       id="path113" />
    <path
       style="fill:none;fill-opacity:1;fill-rule:evenodd;stroke:#000000;stroke-width:0.02645833;stroke-linecap:round;stroke-linejoin:round;stroke-opacity:1;stroke-dasharray:none"
       d="m 138.125,81.1 -0.0957,-0.01903 -0.0811,-0.05419 -0.0542,-0.08111 -0.019,-0.09567 v -0.8 l 0.019,-0.09567 0.0542,-0.08111 0.0811,-0.05419 L 138.125,79.8 h 1.25 l 0.0957,0.01903 0.0811,0.05419 0.0542,0.08111 0.019,0.09567 v 0.8 l -0.019,0.09567 -0.0542,0.08111 -0.0811,0.05419 L 139.375,81.1 Z"
       id="path114" />
    <path
       style="fill:none;fill-opacity:1;fill-rule:evenodd;stroke:#000000;stroke-width:0.02645833;stroke-linecap:round;stroke-linejoin:round;stroke-opacity:1;stroke-dasharray:none"
       d="m 144.9,73.05 0.019,-0.09567 0.0542,-0.08111 0.0811,-0.05419 L 145.15,72.8 h 0.7 l 0.0957,0.01903 0.0811,0.05419 0.0542,0.08111 0.019,0.09567 v 0.9 l -0.019,0.09567 -0.0542,0.08111 -0.0811,0.05419 L 145.85,74.2 h -0.7 L 145.0543,74.18097 144.9732,74.12678 144.919,74.04567 144.9,73.95 Z"
       id="path115" />
    <path
       style="fill:none;fill-opacity:1;fill-rule:evenodd;stroke:#000000;stroke-width:0.02645833;stroke-linecap:round;stroke-linejoin:round;stroke-opacity:1;stroke-dasharray:none"
       d="m 146.9,73.05 0.019,-0.09567 0.0542,-0.08111 0.0811,-0.05419 L 147.15,72.8 h 0.7 l 0.0957,0.01903 0.0811,0.05419 0.0542,0.08111 0.019,0.09567 v 0.9 l -0.019,0.09567 -0.0542,0.08111 -0.0811,0.05419 L 147.85,74.2 h -0.7 L 147.0543,74.18097 146.9732,74.12678 146.919,74.04567 146.9,73.95 Z"
       id="path116" />
    <path
       style="fill:none;fill-opacity:1;fill-rule:evenodd;stroke:#000000;stroke-width:0.02645833;stroke-linecap:round;stroke-linejoin:round;stroke-opacity:1;stroke-dasharray:none"
       d="m 72.05,75.05 h 0.8 v 1.9 h -0.8 z"
       id="path117" />
    <path
       style="fill:none;fill-opacity:1;fill-rule:evenodd;stroke:#000000;stroke-width:0.02645833;stroke-linecap:round;stroke-linejoin:round;stroke-opacity:1;stroke-dasharray:none"
       d="m 70.15,75.05 h 0.8 v 1.9 h -0.8 z"
       id="path118" />
    <path
       style="fill:none;fill-opacity:1;fill-rule:evenodd;stroke:#000000;stroke-width:0.02645833;stroke-linecap:round;stroke-linejoin:round;stroke-opacity:1;stroke-dasharray:none"
       d="m 71.1,78.05 h 0.8 v 1.9 h -0.8 z"
       id="path119" />
    <path
       style="fill:none;fill-opacity:1;fill-rule:evenodd;stroke:#000000;stroke-width:0.02645833;stroke-linecap:round;stroke-linejoin:round;stroke-opacity:1;stroke-dasharray:none"
       d="m 69.9,73.05 0.01903,-0.09567 0.05419,-0.08111 0.08111,-0.05419 L 70.15,72.8 h 0.7 l 0.09567,0.01903 0.08111,0.05419 0.05419,0.08111 L 71.1,73.05 v 0.9 l -0.01903,0.09567 -0.05419,0.08111 -0.08111,0.05419 L 70.85,74.2 h -0.7 L 70.05433,74.18097 69.97322,74.12678 69.91903,74.04567 69.9,73.95 Z"
       id="path120" />
    <path
       style="fill:none;fill-opacity:1;fill-rule:evenodd;stroke:#000000;stroke-width:0.02645833;stroke-linecap:round;stroke-linejoin:round;stroke-opacity:1;stroke-dasharray:none"
       d="m 71.9,73.05 0.01903,-0.09567 0.05419,-0.08111 0.08111,-0.05419 L 72.15,72.8 h 0.7 l 0.09567,0.01903 0.08111,0.05419 0.05419,0.08111 L 73.1,73.05 v 0.9 l -0.01903,0.09567 -0.05419,0.08111 -0.08111,0.05419 L 72.85,74.2 h -0.7 L 72.05433,74.18097 71.97322,74.12678 71.91903,74.04567 71.9,73.95 Z"
       id="path121" />
    <path
       style="fill:none;fill-opacity:1;fill-rule:evenodd;stroke:#000000;stroke-width:0.02645833;stroke-linecap:round;stroke-linejoin:round;stroke-opacity:1;stroke-dasharray:none"
       d="m 163.125,84.2 -0.0957,-0.01903 -0.0811,-0.05419 -0.0542,-0.08111 -0.019,-0.09567 v -0.8 l 0.019,-0.09567 0.0542,-0.08111 0.0811,-0.05419 L 163.125,82.9 h 1.25 l 0.0957,0.01903 0.0811,0.05419 0.0542,0.08111 0.019,0.09567 v 0.8 l -0.019,0.09567 -0.0542,0.08111 -0.0811,0.05419 L 164.375,84.2 Z"
       id="path122" />
    <path
       style="fill:none;fill-opacity:1;fill-rule:evenodd;stroke:#000000;stroke-width:0.02645833;stroke-linecap:round;stroke-linejoin:round;stroke-opacity:1;stroke-dasharray:none"
       d="m 163.125,81.1 -0.0957,-0.01903 -0.0811,-0.05419 -0.0542,-0.08111 -0.019,-0.09567 v -0.8 l 0.019,-0.09567 0.0542,-0.08111 0.0811,-0.05419 L 163.125,79.8 h 1.25 l 0.0957,0.01903 0.0811,0.05419 0.0542,0.08111 0.019,0.09567 v 0.8 l -0.019,0.09567 -0.0542,0.08111 -0.0811,0.05419 L 164.375,81.1 Z"
       id="path123" />
    <path
       style="fill:none;fill-opacity:1;fill-rule:evenodd;stroke:#000000;stroke-width:0.02645833;stroke-linecap:round;stroke-linejoin:round;stroke-opacity:1;stroke-dasharray:none"
       d="M 93,81.5 92.90433,81.48097 92.82322,81.42678 92.76903,81.34567 92.75,81.25 v -0.5 l 0.01903,-0.09567 0.05419,-0.08111 0.08111,-0.05419 L 93,80.5 h 0.5 l 0.09567,0.01903 0.08111,0.05419 0.05419,0.08111 L 93.75,80.75 v 0.5 l -0.01903,0.09567 -0.05419,0.08111 -0.08111,0.05419 L 93.5,81.5 Z"
       id="path124" />
    <path
       style="fill:none;fill-opacity:1;fill-rule:evenodd;stroke:#000000;stroke-width:0.02645833;stroke-linecap:round;stroke-linejoin:round;stroke-opacity:1;stroke-dasharray:none"
       d="M 93,79 92.90433,78.98097 92.82322,78.92678 92.76903,78.84567 92.75,78.75 v -0.5 l 0.01903,-0.09567 0.05419,-0.08111 0.08111,-0.05419 L 93,78 h 0.5 l 0.09567,0.01903 0.08111,0.05419 0.05419,0.08111 L 93.75,78.25 v 0.5 l -0.01903,0.09567 -0.05419,0.08111 -0.08111,0.05419 L 93.5,79 Z"
       id="path125" />
    <path
       style="fill:none;fill-opacity:1;fill-rule:evenodd;stroke:#000000;stroke-width:0.02645833;stroke-linecap:round;stroke-linejoin:round;stroke-opacity:1;stroke-dasharray:none"
       d="m 71.75,63.5 0.01903,-0.09567 0.05419,-0.08111 0.08111,-0.05419 L 72,63.25 h 0.5 l 0.09567,0.01903 0.08111,0.05419 0.05419,0.08111 L 72.75,63.5 V 64 l -0.01903,0.09567 -0.05419,0.08111 -0.08111,0.05419 L 72.5,64.25 H 72 L 71.90433,64.23097 71.82322,64.17678 71.76903,64.09567 71.75,64 Z"
       id="path126" />
    <path
       style="fill:none;fill-opacity:1;fill-rule:evenodd;stroke:#000000;stroke-width:0.02645833;stroke-linecap:round;stroke-linejoin:round;stroke-opacity:1;stroke-dasharray:none"
       d="m 74.25,63.5 0.01903,-0.09567 0.05419,-0.08111 0.08111,-0.05419 L 74.5,63.25 H 75 l 0.09567,0.01903 0.08111,0.05419 0.05419,0.08111 L 75.25,63.5 V 64 l -0.01903,0.09567 -0.05419,0.08111 -0.08111,0.05419 L 75,64.25 H 74.5 L 74.40433,64.23097 74.32322,64.17678 74.26903,64.09567 74.25,64 Z"
       id="path127" />
    <path
       style="fill:none;fill-opacity:1;fill-rule:evenodd;stroke:#000000;stroke-width:0.02645833;stroke-linecap:round;stroke-linejoin:round;stroke-opacity:1;stroke-dasharray:none"
       d="m 97.05,75.05 h 0.8 v 1.9 h -0.8 z"
       id="path133" />
    <path
       style="fill:none;fill-opacity:1;fill-rule:evenodd;stroke:#000000;stroke-width:0.02645833;stroke-linecap:round;stroke-linejoin:round;stroke-opacity:1;stroke-dasharray:none"
       d="m 95.15,75.05 h 0.8 v 1.9 h -0.8 z"
       id="path134" />
    <path
       style="fill:none;fill-opacity:1;fill-rule:evenodd;stroke:#000000;stroke-width:0.02645833;stroke-linecap:round;stroke-linejoin:round;stroke-opacity:1;stroke-dasharray:none"
       d="m 96.1,78.05 h 0.8 v 1.9 h -0.8 z"
       id="path135" />
    <path
       style="fill:none;fill-opacity:1;fill-rule:evenodd;stroke:#000000;stroke-width:0.02645833;stroke-linecap:round;stroke-linejoin:round;stroke-opacity:1;stroke-dasharray:none"
       d="m 82.05,79.3 h 0.8 v 1.9 h -0.8 z"
       id="path137" />
    <path
       style="fill:none;fill-opacity:1;fill-rule:evenodd;stroke:#000000;stroke-width:0.02645833;stroke-linecap:round;stroke-linejoin:round;stroke-opacity:1;stroke-dasharray:none"
       d="m 80.15,79.3 h 0.8 v 1.9 h -0.8 z"
       id="path138" />
    <path
       style="fill:none;fill-opacity:1;fill-rule:evenodd;stroke:#000000;stroke-width:0.02645833;stroke-linecap:round;stroke-linejoin:round;stroke-opacity:1;stroke-dasharray:none"
       d="m 81.1,82.3 h 0.8 v 1.9 h -0.8 z"
       id="path139" />
    <path
       style="fill:none;fill-opacity:1;fill-rule:evenodd;stroke:#000000;stroke-width:0.02645833;stroke-linecap:round;stroke-linejoin:round;stroke-opacity:1;stroke-dasharray:none"
       d="m 132.05,79.3 h 0.8 v 1.9 h -0.8 z"
       id="path141" />
    <path
       style="fill:none;fill-opacity:1;fill-rule:evenodd;stroke:#000000;stroke-width:0.02645833;stroke-linecap:round;stroke-linejoin:round;stroke-opacity:1;stroke-dasharray:none"
       d="m 130.15,79.3 h 0.8 v 1.9 h -0.8 z"
       id="path142" />
    <path
       style="fill:none;fill-opacity:1;fill-rule:evenodd;stroke:#000000;stroke-width:0.02645833;stroke-linecap:round;stroke-linejoin:round;stroke-opacity:1;stroke-dasharray:none"
       d="m 131.1,82.3 h 0.8 v 1.9 h -0.8 z"
       id="path143" />
    <path
       style="fill:none;fill-opacity:1;fill-rule:evenodd;stroke:#000000;stroke-width:0.02645833;stroke-linecap:round;stroke-linejoin:round;stroke-opacity:1;stroke-dasharray:none"
       d="m 112.1,83.95 -0.019,0.09567 -0.0542,0.08111 -0.0811,0.05419 L 111.85,84.2 h -0.7 L 111.0543,84.18097 110.9732,84.12678 110.919,84.04567 110.9,83.95 v -0.9 l 0.019,-0.09567 0.0542,-0.08111 0.0811,-0.05419 L 111.15,82.8 h 0.7 l 0.0957,0.01903 0.0811,0.05419 0.0542,0.08111 0.019,0.09567 z"
       id="path147" />
    <path
       style="fill:none;fill-opacity:1;fill-rule:evenodd;stroke:#000000;stroke-width:0.02645833;stroke-linecap:round;stroke-linejoin:round;stroke-opacity:1;stroke-dasharray:none"
       d="m 110.1,83.95 -0.019,0.09567 -0.0542,0.08111 -0.0811,0.05419 L 109.85,84.2 h -0.7 L 109.0543,84.18097 108.9732,84.12678 108.919,84.04567 108.9,83.95 v -0.9 l 0.019,-0.09567 0.0542,-0.08111 0.0811,-0.05419 L 109.15,82.8 h 0.7 l 0.0957,0.01903 0.0811,0.05419 0.0542,0.08111 0.019,0.09567 z"
       id="path148" />
    <path
       style="fill:none;fill-opacity:1;fill-rule:evenodd;stroke:#000000;stroke-width:0.02645833;stroke-linecap:round;stroke-linejoin:round;stroke-opacity:1;stroke-dasharray:none"
       d="m 124.95,77.7 h -0.8 v -1.9 h 0.8 z"
       id="path150" />
    <path
       style="fill:none;fill-opacity:1;fill-rule:evenodd;stroke:#000000;stroke-width:0.02645833;stroke-linecap:round;stroke-linejoin:round;stroke-opacity:1;stroke-dasharray:none"
       d="m 126.85,77.7 h -0.8 v -1.9 h 0.8 z"
       id="path151" />
    <path
       style="fill:none;fill-opacity:1;fill-rule:evenodd;stroke:#000000;stroke-width:0.02645833;stroke-linecap:round;stroke-linejoin:round;stroke-opacity:1;stroke-dasharray:none"
       d="m 125.9,74.7 h -0.8 v -1.9 h 0.8 z"
       id="path152" />
    <path
       style="fill:none;fill-opacity:1;fill-rule:evenodd;stroke:#000000;stroke-width:0.02645833;stroke-linecap:round;stroke-linejoin:round;stroke-opacity:1;stroke-dasharray:none"
       d="m 107.05,79.3 h 0.8 v 1.9 h -0.8 z"
       id="path154" />
    <path
       style="fill:none;fill-opacity:1;fill-rule:evenodd;stroke:#000000;stroke-width:0.02645833;stroke-linecap:round;stroke-linejoin:round;stroke-opacity:1;stroke-dasharray:none"
       d="m 105.15,79.3 h 0.8 v 1.9 h -0.8 z"
       id="path155" />
    <path
       style="fill:none;fill-opacity:1;fill-rule:evenodd;stroke:#000000;stroke-width:0.02645833;stroke-linecap:round;stroke-linejoin:round;stroke-opacity:1;stroke-dasharray:none"
       d="m 106.1,82.3 h 0.8 v 1.9 h -0.8 z"
       id="path156" />
    <path
       style="fill:none;fill-opacity:1;fill-rule:evenodd;stroke:#000000;stroke-width:0.02645833;stroke-linecap:round;stroke-linejoin:round;stroke-opacity:1;stroke-dasharray:none"
       d="m 135.25,93.5 -0.019,0.09567 -0.0542,0.08111 -0.0811,0.05419 L 135,93.75 h -0.5 L 134.4043,93.73097 134.3232,93.67678 134.269,93.59567 134.25,93.5 V 93 l 0.019,-0.09567 0.0542,-0.08111 0.0811,-0.05419 L 134.5,92.75 h 0.5 l 0.0957,0.01903 0.0811,0.05419 0.0542,0.08111 L 135.25,93 Z"
       id="path157" />
    <path
       style="fill:none;fill-opacity:1;fill-rule:evenodd;stroke:#000000;stroke-width:0.02645833;stroke-linecap:round;stroke-linejoin:round;stroke-opacity:1;stroke-dasharray:none"
       d="m 132.75,93.5 -0.019,0.09567 -0.0542,0.08111 -0.0811,0.05419 L 132.5,93.75 H 132 L 131.9043,93.73097 131.8232,93.67678 131.769,93.59567 131.75,93.5 V 93 l 0.019,-0.09567 0.0542,-0.08111 0.0811,-0.05419 L 132,92.75 h 0.5 l 0.0957,0.01903 0.0811,0.05419 0.0542,0.08111 L 132.75,93 Z"
       id="path158" />
    <path
       style="fill:none;fill-opacity:1;fill-rule:evenodd;stroke:#000000;stroke-width:0.02645833;stroke-linecap:round;stroke-linejoin:round;stroke-opacity:1;stroke-dasharray:none"
       d="m 79.9,77.3 0.01903,-0.09567 0.05419,-0.08111 0.08111,-0.05419 L 80.15,77.05 h 0.7 l 0.09567,0.01903 0.08111,0.05419 0.05419,0.08111 L 81.1,77.3 v 0.9 l -0.01903,0.09567 -0.05419,0.08111 -0.08111,0.05419 L 80.85,78.45 h -0.7 L 80.05433,78.43097 79.97322,78.37678 79.91903,78.29567 79.9,78.2 Z"
       id="path161" />
    <path
       style="fill:none;fill-opacity:1;fill-rule:evenodd;stroke:#000000;stroke-width:0.02645833;stroke-linecap:round;stroke-linejoin:round;stroke-opacity:1;stroke-dasharray:none"
       d="m 81.9,77.3 0.01903,-0.09567 0.05419,-0.08111 0.08111,-0.05419 L 82.15,77.05 h 0.7 l 0.09567,0.01903 0.08111,0.05419 0.05419,0.08111 L 83.1,77.3 v 0.9 l -0.01903,0.09567 -0.05419,0.08111 -0.08111,0.05419 L 82.85,78.45 h -0.7 L 82.05433,78.43097 81.97322,78.37678 81.91903,78.29567 81.9,78.2 Z"
       id="path162" />
    <path
       style="fill:none;fill-opacity:1;fill-rule:evenodd;stroke:#000000;stroke-width:0.02645833;stroke-linecap:round;stroke-linejoin:round;stroke-opacity:1;stroke-dasharray:none"
       d="m 146.65,65.55 0.019,-0.09567 0.0542,-0.08111 0.0811,-0.05419 L 146.9,65.3 h 0.7 l 0.0957,0.01903 0.0811,0.05419 0.0542,0.08111 0.019,0.09567 v 0.9 l -0.019,0.09567 -0.0542,0.08111 -0.0811,0.05419 L 147.6,66.7 h -0.7 L 146.8043,66.68097 146.7232,66.62678 146.669,66.54567 146.65,66.45 Z"
       id="path163" />
    <path
       style="fill:none;fill-opacity:1;fill-rule:evenodd;stroke:#000000;stroke-width:0.02645833;stroke-linecap:round;stroke-linejoin:round;stroke-opacity:1;stroke-dasharray:none"
       d="m 148.65,65.55 0.019,-0.09567 0.0542,-0.08111 0.0811,-0.05419 L 148.9,65.3 h 0.7 l 0.0957,0.01903 0.0811,0.05419 0.0542,0.08111 0.019,0.09567 v 0.9 l -0.019,0.09567 -0.0542,0.08111 -0.0811,0.05419 L 149.6,66.7 h -0.7 L 148.8043,66.68097 148.7232,66.62678 148.669,66.54567 148.65,66.45 Z"
       id="path164" />
    <path
       style="fill:none;fill-opacity:1;fill-rule:evenodd;stroke:#000000;stroke-width:0.02645833;stroke-linecap:round;stroke-linejoin:round;stroke-opacity:1;stroke-dasharray:none"
       d="m 157.05,79.3 h 0.8 v 1.9 h -0.8 z"
       id="path165" />
    <path
       style="fill:none;fill-opacity:1;fill-rule:evenodd;stroke:#000000;stroke-width:0.02645833;stroke-linecap:round;stroke-linejoin:round;stroke-opacity:1;stroke-dasharray:none"
       d="m 155.15,79.3 h 0.8 v 1.9 h -0.8 z"
       id="path166" />
    <path
       style="fill:none;fill-opacity:1;fill-rule:evenodd;stroke:#000000;stroke-width:0.02645833;stroke-linecap:round;stroke-linejoin:round;stroke-opacity:1;stroke-dasharray:none"
       d="m 156.1,82.3 h 0.8 v 1.9 h -0.8 z"
       id="path167" />
    <path
       style="fill:none;fill-opacity:1;fill-rule:evenodd;stroke:#000000;stroke-width:0.02645833;stroke-linecap:round;stroke-linejoin:round;stroke-opacity:1;stroke-dasharray:none"
       d="m 94.9,73.05 0.01903,-0.09567 0.05419,-0.08111 0.08111,-0.05419 L 95.15,72.8 h 0.7 l 0.09567,0.01903 0.08111,0.05419 0.05419,0.08111 L 96.1,73.05 v 0.9 l -0.01903,0.09567 -0.05419,0.08111 -0.08111,0.05419 L 95.85,74.2 h -0.7 L 95.05433,74.18097 94.97322,74.12678 94.91903,74.04567 94.9,73.95 Z"
       id="path169" />
    <path
       style="fill:none;fill-opacity:1;fill-rule:evenodd;stroke:#000000;stroke-width:0.02645833;stroke-linecap:round;stroke-linejoin:round;stroke-opacity:1;stroke-dasharray:none"
       d="m 96.9,73.05 0.01903,-0.09567 0.05419,-0.08111 0.08111,-0.05419 L 97.15,72.8 h 0.7 l 0.09567,0.01903 0.08111,0.05419 0.05419,0.08111 L 98.1,73.05 v 0.9 l -0.01903,0.09567 -0.05419,0.08111 -0.08111,0.05419 L 97.85,74.2 h -0.7 L 97.05433,74.18097 96.97322,74.12678 96.91903,74.04567 96.9,73.95 Z"
       id="path170" />
    <path
       style="fill:none;fill-opacity:1;fill-rule:evenodd;stroke:#000000;stroke-width:0.02645833;stroke-linecap:round;stroke-linejoin:round;stroke-opacity:1;stroke-dasharray:none"
       d="m 160.25,93.5 -0.019,0.09567 -0.0542,0.08111 -0.0811,0.05419 L 160,93.75 h -0.5 L 159.4043,93.73097 159.3232,93.67678 159.269,93.59567 159.25,93.5 V 93 l 0.019,-0.09567 0.0542,-0.08111 0.0811,-0.05419 L 159.5,92.75 h 0.5 l 0.0957,0.01903 0.0811,0.05419 0.0542,0.08111 L 160.25,93 Z"
       id="path172" />
    <path
       style="fill:none;fill-opacity:1;fill-rule:evenodd;stroke:#000000;stroke-width:0.02645833;stroke-linecap:round;stroke-linejoin:round;stroke-opacity:1;stroke-dasharray:none"
       d="m 157.75,93.5 -0.019,0.09567 -0.0542,0.08111 -0.0811,0.05419 L 157.5,93.75 H 157 L 156.9043,93.73097 156.8232,93.67678 156.769,93.59567 156.75,93.5 V 93 l 0.019,-0.09567 0.0542,-0.08111 0.0811,-0.05419 L 157,92.75 h 0.5 l 0.0957,0.01903 0.0811,0.05419 0.0542,0.08111 L 157.75,93 Z"
       id="path173" />
    <path
       style="fill:none;fill-opacity:1;fill-rule:evenodd;stroke:#000000;stroke-width:0.02645833;stroke-linecap:round;stroke-linejoin:round;stroke-opacity:1;stroke-dasharray:none"
       d="m 68.875,72.8 0.09567,0.01903 0.08111,0.05419 0.05419,0.08111 L 69.125,73.05 v 0.8 l -0.01903,0.09567 -0.05419,0.08111 -0.08111,0.05419 L 68.875,74.1 h -1.25 L 67.52933,74.08097 67.44822,74.02678 67.39403,73.94567 67.375,73.85 v -0.8 l 0.01903,-0.09567 0.05419,-0.08111 0.08111,-0.05419 L 67.625,72.8 Z"
       id="path175" />
    <path
       style="fill:none;fill-opacity:1;fill-rule:evenodd;stroke:#000000;stroke-width:0.02645833;stroke-linecap:round;stroke-linejoin:round;stroke-opacity:1;stroke-dasharray:none"
       d="m 68.875,75.9 0.09567,0.01903 0.08111,0.05419 0.05419,0.08111 L 69.125,76.15 v 0.8 l -0.01903,0.09567 -0.05419,0.08111 -0.08111,0.05419 L 68.875,77.2 h -1.25 L 67.52933,77.18097 67.44822,77.12678 67.39403,77.04567 67.375,76.95 v -0.8 l 0.01903,-0.09567 0.05419,-0.08111 0.08111,-0.05419 L 67.625,75.9 Z"
       id="path176" />
    <path
       style="fill:none;fill-opacity:1;fill-rule:evenodd;stroke:#000000;stroke-width:0.02645833;stroke-linecap:round;stroke-linejoin:round;stroke-opacity:1;stroke-dasharray:none"
       d="M 88.125,84.2 88.02933,84.18097 87.94822,84.12678 87.89403,84.04567 87.875,83.95 v -0.8 l 0.01903,-0.09567 0.05419,-0.08111 0.08111,-0.05419 L 88.125,82.9 h 1.25 l 0.09567,0.01903 0.08111,0.05419 0.05419,0.08111 L 89.625,83.15 v 0.8 l -0.01903,0.09567 -0.05419,0.08111 -0.08111,0.05419 L 89.375,84.2 Z"
       id="path177" />
    <path
       style="fill:none;fill-opacity:1;fill-rule:evenodd;stroke:#000000;stroke-width:0.02645833;stroke-linecap:round;stroke-linejoin:round;stroke-opacity:1;stroke-dasharray:none"
       d="M 88.125,81.1 88.02933,81.08097 87.94822,81.02678 87.89403,80.94567 87.875,80.85 v -0.8 l 0.01903,-0.09567 0.05419,-0.08111 0.08111,-0.05419 L 88.125,79.8 h 1.25 l 0.09567,0.01903 0.08111,0.05419 0.05419,0.08111 L 89.625,80.05 v 0.8 l -0.01903,0.09567 -0.05419,0.08111 -0.08111,0.05419 L 89.375,81.1 Z"
       id="path178" />
    <path
       style="fill:none;fill-opacity:1;fill-rule:evenodd;stroke:#000000;stroke-width:0.02645833;stroke-linecap:round;stroke-linejoin:round;stroke-opacity:1;stroke-dasharray:none"
       d="m 160.35,91.45 -0.019,0.09567 -0.0542,0.08111 -0.0811,0.05419 L 160.1,91.7 h -0.7 L 159.3043,91.68097 159.2232,91.62678 159.169,91.54567 159.15,91.45 v -0.9 l 0.019,-0.09567 0.0542,-0.08111 0.0811,-0.05419 L 159.4,90.3 h 0.7 l 0.0957,0.01903 0.0811,0.05419 0.0542,0.08111 0.019,0.09567 z"
       id="path179" />
    <path
       style="fill:none;fill-opacity:1;fill-rule:evenodd;stroke:#000000;stroke-width:0.02645833;stroke-linecap:round;stroke-linejoin:round;stroke-opacity:1;stroke-dasharray:none"
       d="m 158.35,91.45 -0.019,0.09567 -0.0542,0.08111 -0.0811,0.05419 L 158.1,91.7 h -0.7 L 157.3043,91.68097 157.2232,91.62678 157.169,91.54567 157.15,91.45 v -0.9 l 0.019,-0.09567 0.0542,-0.08111 0.0811,-0.05419 L 157.4,90.3 h 0.7 l 0.0957,0.01903 0.0811,0.05419 0.0542,0.08111 0.019,0.09567 z"
       id="path180" />
    <path
       style="fill:none;fill-opacity:1;fill-rule:evenodd;stroke:#000000;stroke-width:0.02645833;stroke-linecap:round;stroke-linejoin:round;stroke-opacity:1;stroke-dasharray:none"
       d="m 96.75,63.5 0.01903,-0.09567 0.05419,-0.08111 0.08111,-0.05419 L 97,63.25 h 0.5 l 0.09567,0.01903 0.08111,0.05419 0.05419,0.08111 L 97.75,63.5 V 64 l -0.01903,0.09567 -0.05419,0.08111 -0.08111,0.05419 L 97.5,64.25 H 97 L 96.90433,64.23097 96.82322,64.17678 96.76903,64.09567 96.75,64 Z"
       id="path182" />
    <path
       style="fill:none;fill-opacity:1;fill-rule:evenodd;stroke:#000000;stroke-width:0.02645833;stroke-linecap:round;stroke-linejoin:round;stroke-opacity:1;stroke-dasharray:none"
       d="m 99.25,63.5 0.01903,-0.09567 0.05419,-0.08111 0.08111,-0.05419 L 99.5,63.25 h 0.5 l 0.0957,0.01903 0.0811,0.05419 0.0542,0.08111 L 100.25,63.5 V 64 l -0.019,0.09567 -0.0542,0.08111 -0.0811,0.05419 L 100,64.25 H 99.5 L 99.40433,64.23097 99.32322,64.17678 99.26903,64.09567 99.25,64 Z"
       id="path183" />
    <path
       style="fill:none;fill-opacity:1;fill-rule:evenodd;stroke:#000000;stroke-width:0.02645833;stroke-linecap:round;stroke-linejoin:round;stroke-opacity:1;stroke-dasharray:none"
       d="m 121.65,65.55 0.019,-0.09567 0.0542,-0.08111 0.0811,-0.05419 L 121.9,65.3 h 0.7 l 0.0957,0.01903 0.0811,0.05419 0.0542,0.08111 0.019,0.09567 v 0.9 l -0.019,0.09567 -0.0542,0.08111 -0.0811,0.05419 L 122.6,66.7 h -0.7 L 121.8043,66.68097 121.7232,66.62678 121.669,66.54567 121.65,66.45 Z"
       id="path185" />
    <path
       style="fill:none;fill-opacity:1;fill-rule:evenodd;stroke:#000000;stroke-width:0.02645833;stroke-linecap:round;stroke-linejoin:round;stroke-opacity:1;stroke-dasharray:none"
       d="m 123.65,65.55 0.019,-0.09567 0.0542,-0.08111 0.0811,-0.05419 L 123.9,65.3 h 0.7 l 0.0957,0.01903 0.0811,0.05419 0.0542,0.08111 0.019,0.09567 v 0.9 l -0.019,0.09567 -0.0542,0.08111 -0.0811,0.05419 L 124.6,66.7 h -0.7 L 123.8043,66.68097 123.7232,66.62678 123.669,66.54567 123.65,66.45 Z"
       id="path186" />
    <path
       style="fill:none;fill-opacity:1;fill-rule:evenodd;stroke:#000000;stroke-width:0.02645833;stroke-linecap:round;stroke-linejoin:round;stroke-opacity:1;stroke-dasharray:none"
       d="m 146.75,63.5 0.019,-0.09567 0.0542,-0.08111 0.0811,-0.05419 L 147,63.25 h 0.5 l 0.0957,0.01903 0.0811,0.05419 0.0542,0.08111 L 147.75,63.5 V 64 l -0.019,0.09567 -0.0542,0.08111 -0.0811,0.05419 L 147.5,64.25 H 147 L 146.9043,64.23097 146.8232,64.17678 146.769,64.09567 146.75,64 Z"
       id="path187" />
    <path
       style="fill:none;fill-opacity:1;fill-rule:evenodd;stroke:#000000;stroke-width:0.02645833;stroke-linecap:round;stroke-linejoin:round;stroke-opacity:1;stroke-dasharray:none"
       d="m 149.25,63.5 0.019,-0.09567 0.0542,-0.08111 0.0811,-0.05419 L 149.5,63.25 h 0.5 l 0.0957,0.01903 0.0811,0.05419 0.0542,0.08111 L 150.25,63.5 V 64 l -0.019,0.09567 -0.0542,0.08111 -0.0811,0.05419 L 150,64.25 h -0.5 L 149.4043,64.23097 149.3232,64.17678 149.269,64.09567 149.25,64 Z"
       id="path188" />
    <path
       style="fill:none;fill-opacity:1;fill-rule:evenodd;stroke:#000000;stroke-width:0.02645833;stroke-linecap:round;stroke-linejoin:round;stroke-opacity:1;stroke-dasharray:none"
       d="m 87.1,83.95 -0.01903,0.09567 -0.05419,0.08111 -0.08111,0.05419 L 86.85,84.2 h -0.7 L 86.05433,84.18097 85.97322,84.12678 85.91903,84.04567 85.9,83.95 v -0.9 l 0.01903,-0.09567 0.05419,-0.08111 0.08111,-0.05419 L 86.15,82.8 h 0.7 l 0.09567,0.01903 0.08111,0.05419 0.05419,0.08111 L 87.1,83.05 Z"
       id="path191" />
    <path
       style="fill:none;fill-opacity:1;fill-rule:evenodd;stroke:#000000;stroke-width:0.02645833;stroke-linecap:round;stroke-linejoin:round;stroke-opacity:1;stroke-dasharray:none"
       d="m 85.1,83.95 -0.01903,0.09567 -0.05419,0.08111 -0.08111,0.05419 L 84.85,84.2 h -0.7 L 84.05433,84.18097 83.97322,84.12678 83.91903,84.04567 83.9,83.95 v -0.9 l 0.01903,-0.09567 0.05419,-0.08111 0.08111,-0.05419 L 84.15,82.8 h 0.7 l 0.09567,0.01903 0.08111,0.05419 0.05419,0.08111 L 85.1,83.05 Z"
       id="path192" />
    <path
       style="fill:none;fill-opacity:1;fill-rule:evenodd;stroke:#000000;stroke-width:0.02645833;stroke-linecap:round;stroke-linejoin:round;stroke-opacity:1;stroke-dasharray:none"
       d="m 96.65,65.55 0.01903,-0.09567 0.05419,-0.08111 0.08111,-0.05419 L 96.9,65.3 h 0.7 l 0.09567,0.01903 0.08111,0.05419 0.05419,0.08111 L 97.85,65.55 v 0.9 l -0.01903,0.09567 -0.05419,0.08111 -0.08111,0.05419 L 97.6,66.7 H 96.9 L 96.80433,66.68097 96.72322,66.62678 96.66903,66.54567 96.65,66.45 Z"
       id="path194" />
    <path
       style="fill:none;fill-opacity:1;fill-rule:evenodd;stroke:#000000;stroke-width:0.02645833;stroke-linecap:round;stroke-linejoin:round;stroke-opacity:1;stroke-dasharray:none"
       d="m 98.65,65.55 0.01903,-0.09567 0.05419,-0.08111 0.08111,-0.05419 L 98.9,65.3 h 0.7 l 0.09567,0.01903 0.08111,0.05419 0.05419,0.08111 L 99.85,65.55 v 0.9 l -0.01903,0.09567 -0.05419,0.08111 -0.08111,0.05419 L 99.6,66.7 H 98.9 L 98.80433,66.68097 98.72322,66.62678 98.66903,66.54567 98.65,66.45 Z"
       id="path195" />
  </g>
</svg>
