%TF.GenerationSoftware,KiCad,Pcbnew,9.0.6*%
%TF.CreationDate,2025-12-21T18:24:03+01:00*%
%TF.ProjectId,repeater,72657065-6174-4657-922e-6b696361645f,rev?*%
%TF.SameCoordinates,Original*%
%TF.FileFunction,Soldermask,Bot*%
%TF.FilePolarity,Negative*%
%FSLAX46Y46*%
G04 Gerber Fmt 4.6, Leading zero omitted, Abs format (unit mm)*
G04 Created by KiCad (PCBNEW 9.0.6) date 2025-12-21 18:24:03*
%MOMM*%
%LPD*%
G01*
G04 APERTURE LIST*
G04 Aperture macros list*
%AMRoundRect*
0 Rectangle with rounded corners*
0 $1 Rounding radius*
0 $2 $3 $4 $5 $6 $7 $8 $9 X,Y pos of 4 corners*
0 Add a 4 corners polygon primitive as box body*
4,1,4,$2,$3,$4,$5,$6,$7,$8,$9,$2,$3,0*
0 Add four circle primitives for the rounded corners*
1,1,$1+$1,$2,$3*
1,1,$1+$1,$4,$5*
1,1,$1+$1,$6,$7*
1,1,$1+$1,$8,$9*
0 Add four rect primitives between the rounded corners*
20,1,$1+$1,$2,$3,$4,$5,0*
20,1,$1+$1,$4,$5,$6,$7,0*
20,1,$1+$1,$6,$7,$8,$9,0*
20,1,$1+$1,$8,$9,$2,$3,0*%
%AMFreePoly0*
4,1,23,0.000000,0.745722,0.065263,0.745722,0.191342,0.711940,0.304381,0.646677,0.396677,0.554381,0.461940,0.441342,0.495722,0.315263,0.495722,0.250000,0.500000,0.250000,0.500000,-0.250000,0.495722,-0.250000,0.495722,-0.315263,0.461940,-0.441342,0.396677,-0.554381,0.304381,-0.646677,0.191342,-0.711940,0.065263,-0.745722,0.000000,-0.745722,0.000000,-0.750000,-0.500000,-0.750000,
-0.500000,0.750000,0.000000,0.750000,0.000000,0.745722,0.000000,0.745722,$1*%
%AMFreePoly1*
4,1,23,0.500000,-0.750000,0.000000,-0.750000,0.000000,-0.745722,-0.065263,-0.745722,-0.191342,-0.711940,-0.304381,-0.646677,-0.396677,-0.554381,-0.461940,-0.441342,-0.495722,-0.315263,-0.495722,-0.250000,-0.500000,-0.250000,-0.500000,0.250000,-0.495722,0.250000,-0.495722,0.315263,-0.461940,0.441342,-0.396677,0.554381,-0.304381,0.646677,-0.191342,0.711940,-0.065263,0.745722,0.000000,0.745722,
0.000000,0.750000,0.500000,0.750000,0.500000,-0.750000,0.500000,-0.750000,$1*%
G04 Aperture macros list end*
%ADD10C,1.000000*%
%ADD11C,2.000000*%
%ADD12C,0.000000*%
%ADD13RoundRect,0.237500X-0.287500X-0.237500X0.287500X-0.237500X0.287500X0.237500X-0.287500X0.237500X0*%
%ADD14RoundRect,0.237500X0.287500X0.237500X-0.287500X0.237500X-0.287500X-0.237500X0.287500X-0.237500X0*%
%ADD15FreePoly0,0.000000*%
%ADD16FreePoly1,0.000000*%
%ADD17FreePoly0,180.000000*%
%ADD18FreePoly1,180.000000*%
%ADD19R,1.700000X1.700000*%
%ADD20C,1.700000*%
%ADD21C,1.300000*%
%ADD22C,1.600000*%
%ADD23C,2.000000*%
%ADD24O,3.600000X2.000000*%
%ADD25RoundRect,0.250000X-1.550000X0.750000X-1.550000X-0.750000X1.550000X-0.750000X1.550000X0.750000X0*%
%ADD26O,3.600000X1.800000*%
%ADD27RoundRect,0.250000X-1.550000X0.650000X-1.550000X-0.650000X1.550000X-0.650000X1.550000X0.650000X0*%
G04 APERTURE END LIST*
D10*
X102750000Y-59750000D02*
X147750000Y-59750000D01*
X102750000Y-63750000D02*
X145250000Y-63750000D01*
D11*
X144500000Y-61802500D02*
X150250000Y-61802500D01*
X132500000Y-61802500D02*
X137250000Y-61802500D01*
X120500000Y-61802500D02*
X125250000Y-61802500D01*
X108500000Y-61802500D02*
X113250000Y-61802500D01*
X144500000Y-73250000D02*
X150250000Y-73250000D01*
X132500000Y-73250000D02*
X137250000Y-73250000D01*
X120500000Y-73250000D02*
X125250000Y-73250000D01*
X108500000Y-73250000D02*
X113250000Y-73250000D01*
D10*
X102750000Y-71250000D02*
X145250000Y-71250000D01*
X102750000Y-75250000D02*
X150750000Y-75250000D01*
D12*
%TO.C,JP3*%
G36*
X124400000Y-58000000D02*
G01*
X124100000Y-58000000D01*
X124100000Y-56500000D01*
X124400000Y-56500000D01*
X124400000Y-58000000D01*
G37*
%TO.C,JP2*%
G36*
X124400000Y-55500000D02*
G01*
X124100000Y-55500000D01*
X124100000Y-54000000D01*
X124400000Y-54000000D01*
X124400000Y-55500000D01*
G37*
%TD*%
D13*
%TO.C,D3*%
X111125000Y-54500000D03*
X109375000Y-54500000D03*
%TD*%
D14*
%TO.C,D2*%
X133375001Y-54500000D03*
X135124999Y-54500000D03*
%TD*%
%TO.C,D4*%
X151125000Y-80500000D03*
X149375000Y-80500000D03*
%TD*%
D15*
%TO.C,JP3*%
X124899999Y-57250000D03*
D16*
X123600001Y-57250000D03*
%TD*%
D17*
%TO.C,JP2*%
X123600001Y-54750000D03*
D18*
X124899999Y-54750000D03*
%TD*%
D19*
%TO.C,J6*%
X128040000Y-83000000D03*
D20*
X125500000Y-83000000D03*
X122960001Y-83000000D03*
X120420000Y-83000000D03*
X117880000Y-83000000D03*
X115340000Y-83000000D03*
X112800000Y-83000000D03*
X110259999Y-83000000D03*
X107720000Y-83000000D03*
%TD*%
D21*
%TO.C,H1*%
X101250000Y-83750000D03*
%TD*%
%TO.C,H2*%
X153750000Y-83750000D03*
%TD*%
%TO.C,H3*%
X101250000Y-51250000D03*
%TD*%
%TO.C,H4*%
X153750000Y-51250000D03*
%TD*%
D22*
%TO.C,C3*%
X152000000Y-59750000D03*
X149500000Y-59750000D03*
%TD*%
D23*
%TO.C,TP1*%
X124250000Y-52000000D03*
%TD*%
D24*
%TO.C,J1*%
X148222500Y-70000000D03*
D25*
X148222500Y-65000000D03*
%TD*%
D26*
%TO.C,J3*%
X116892500Y-73232501D03*
X116892500Y-69422500D03*
X116892500Y-65612500D03*
D27*
X116892500Y-61802500D03*
%TD*%
%TO.C,J4*%
X140892500Y-61802500D03*
D26*
X140892500Y-65612500D03*
X140892500Y-69422500D03*
X140892500Y-73232501D03*
%TD*%
%TO.C,J2*%
X128892500Y-73232501D03*
X128892500Y-69422500D03*
X128892500Y-65612500D03*
D27*
X128892500Y-61802500D03*
%TD*%
%TO.C,J5*%
X104892500Y-61802500D03*
D26*
X104892500Y-65612500D03*
X104892500Y-69422500D03*
X104892500Y-73232501D03*
%TD*%
M02*
