%TF.GenerationSoftware,KiCad,Pcbnew,9.0.6*%
%TF.CreationDate,2025-12-21T18:24:03+01:00*%
%TF.ProjectId,repeater,72657065-6174-4657-922e-6b696361645f,rev?*%
%TF.SameCoordinates,Original*%
%TF.FileFunction,Legend,Top*%
%TF.FilePolarity,Positive*%
%FSLAX46Y46*%
G04 Gerber Fmt 4.6, Leading zero omitted, Abs format (unit mm)*
G04 Created by KiCad (PCBNEW 9.0.6) date 2025-12-21 18:24:03*
%MOMM*%
%LPD*%
G01*
G04 APERTURE LIST*
G04 Aperture macros list*
%AMRoundRect*
0 Rectangle with rounded corners*
0 $1 Rounding radius*
0 $2 $3 $4 $5 $6 $7 $8 $9 X,Y pos of 4 corners*
0 Add a 4 corners polygon primitive as box body*
4,1,4,$2,$3,$4,$5,$6,$7,$8,$9,$2,$3,0*
0 Add four circle primitives for the rounded corners*
1,1,$1+$1,$2,$3*
1,1,$1+$1,$4,$5*
1,1,$1+$1,$6,$7*
1,1,$1+$1,$8,$9*
0 Add four rect primitives between the rounded corners*
20,1,$1+$1,$2,$3,$4,$5,0*
20,1,$1+$1,$4,$5,$6,$7,0*
20,1,$1+$1,$6,$7,$8,$9,0*
20,1,$1+$1,$8,$9,$2,$3,0*%
%AMFreePoly0*
4,1,23,0.500000,-0.750000,0.000000,-0.750000,0.000000,-0.745722,-0.065263,-0.745722,-0.191342,-0.711940,-0.304381,-0.646677,-0.396677,-0.554381,-0.461940,-0.441342,-0.495722,-0.315263,-0.495722,-0.250000,-0.500000,-0.250000,-0.500000,0.250000,-0.495722,0.250000,-0.495722,0.315263,-0.461940,0.441342,-0.396677,0.554381,-0.304381,0.646677,-0.191342,0.711940,-0.065263,0.745722,0.000000,0.745722,
0.000000,0.750000,0.500000,0.750000,0.500000,-0.750000,0.500000,-0.750000,$1*%
%AMFreePoly1*
4,1,23,0.000000,0.745722,0.065263,0.745722,0.191342,0.711940,0.304381,0.646677,0.396677,0.554381,0.461940,0.441342,0.495722,0.315263,0.495722,0.250000,0.500000,0.250000,0.500000,-0.250000,0.495722,-0.250000,0.495722,-0.315263,0.461940,-0.441342,0.396677,-0.554381,0.304381,-0.646677,0.191342,-0.711940,0.065263,-0.745722,0.000000,-0.745722,0.000000,-0.750000,-0.500000,-0.750000,
-0.500000,0.750000,0.000000,0.750000,0.000000,0.745722,0.000000,0.745722,$1*%
G04 Aperture macros list end*
%ADD10C,0.150000*%
%ADD11C,0.120000*%
%ADD12C,0.000000*%
%ADD13RoundRect,0.250000X-0.337500X-0.475000X0.337500X-0.475000X0.337500X0.475000X-0.337500X0.475000X0*%
%ADD14RoundRect,0.237500X0.250000X0.237500X-0.250000X0.237500X-0.250000X-0.237500X0.250000X-0.237500X0*%
%ADD15RoundRect,0.237500X0.300000X0.237500X-0.300000X0.237500X-0.300000X-0.237500X0.300000X-0.237500X0*%
%ADD16RoundRect,0.200000X0.200000X0.275000X-0.200000X0.275000X-0.200000X-0.275000X0.200000X-0.275000X0*%
%ADD17R,0.400000X0.650000*%
%ADD18FreePoly0,90.000000*%
%ADD19FreePoly1,90.000000*%
%ADD20R,1.700000X1.700000*%
%ADD21C,1.700000*%
%ADD22RoundRect,0.225000X0.225000X0.250000X-0.225000X0.250000X-0.225000X-0.250000X0.225000X-0.250000X0*%
%ADD23C,1.300000*%
%ADD24FreePoly0,0.000000*%
%ADD25FreePoly1,0.000000*%
%ADD26FreePoly0,270.000000*%
%ADD27FreePoly1,270.000000*%
%ADD28C,1.600000*%
%ADD29C,2.000000*%
%ADD30O,3.600000X2.000000*%
%ADD31RoundRect,0.250000X-1.550000X0.750000X-1.550000X-0.750000X1.550000X-0.750000X1.550000X0.750000X0*%
%ADD32O,3.600000X1.800000*%
%ADD33RoundRect,0.250000X-1.550000X0.650000X-1.550000X-0.650000X1.550000X-0.650000X1.550000X0.650000X0*%
%ADD34RoundRect,0.225000X0.250000X-0.225000X0.250000X0.225000X-0.250000X0.225000X-0.250000X-0.225000X0*%
%ADD35R,2.500000X1.800000*%
%ADD36RoundRect,0.225000X-0.250000X0.225000X-0.250000X-0.225000X0.250000X-0.225000X0.250000X0.225000X0*%
%ADD37RoundRect,0.225000X-0.225000X-0.250000X0.225000X-0.250000X0.225000X0.250000X-0.225000X0.250000X0*%
%ADD38RoundRect,0.150000X-0.825000X-0.150000X0.825000X-0.150000X0.825000X0.150000X-0.825000X0.150000X0*%
%ADD39RoundRect,0.200000X-0.200000X-0.275000X0.200000X-0.275000X0.200000X0.275000X-0.200000X0.275000X0*%
%ADD40R,1.100000X0.400000*%
%ADD41RoundRect,0.150000X0.587500X0.150000X-0.587500X0.150000X-0.587500X-0.150000X0.587500X-0.150000X0*%
%ADD42RoundRect,0.250000X0.650000X-0.325000X0.650000X0.325000X-0.650000X0.325000X-0.650000X-0.325000X0*%
%ADD43RoundRect,0.250000X-1.075000X0.375000X-1.075000X-0.375000X1.075000X-0.375000X1.075000X0.375000X0*%
%ADD44RoundRect,0.200000X-0.275000X0.200000X-0.275000X-0.200000X0.275000X-0.200000X0.275000X0.200000X0*%
%ADD45RoundRect,0.150000X0.150000X-0.512500X0.150000X0.512500X-0.150000X0.512500X-0.150000X-0.512500X0*%
%ADD46RoundRect,0.250000X0.250000X0.475000X-0.250000X0.475000X-0.250000X-0.475000X0.250000X-0.475000X0*%
%ADD47RoundRect,0.250000X-0.262500X-0.450000X0.262500X-0.450000X0.262500X0.450000X-0.262500X0.450000X0*%
%ADD48RoundRect,0.250000X-0.350000X-0.450000X0.350000X-0.450000X0.350000X0.450000X-0.350000X0.450000X0*%
%ADD49RoundRect,0.250000X0.350000X0.450000X-0.350000X0.450000X-0.350000X-0.450000X0.350000X-0.450000X0*%
%ADD50FreePoly0,180.000000*%
%ADD51FreePoly1,180.000000*%
%ADD52RoundRect,0.250000X-0.325000X-0.450000X0.325000X-0.450000X0.325000X0.450000X-0.325000X0.450000X0*%
G04 APERTURE END LIST*
D10*
X100619819Y-72119048D02*
X101334104Y-72119048D01*
X101334104Y-72119048D02*
X101476961Y-72166667D01*
X101476961Y-72166667D02*
X101572200Y-72261905D01*
X101572200Y-72261905D02*
X101619819Y-72404762D01*
X101619819Y-72404762D02*
X101619819Y-72500000D01*
X101619819Y-71166667D02*
X101619819Y-71642857D01*
X101619819Y-71642857D02*
X100619819Y-71642857D01*
X101524580Y-70261905D02*
X101572200Y-70309524D01*
X101572200Y-70309524D02*
X101619819Y-70452381D01*
X101619819Y-70452381D02*
X101619819Y-70547619D01*
X101619819Y-70547619D02*
X101572200Y-70690476D01*
X101572200Y-70690476D02*
X101476961Y-70785714D01*
X101476961Y-70785714D02*
X101381723Y-70833333D01*
X101381723Y-70833333D02*
X101191247Y-70880952D01*
X101191247Y-70880952D02*
X101048390Y-70880952D01*
X101048390Y-70880952D02*
X100857914Y-70833333D01*
X100857914Y-70833333D02*
X100762676Y-70785714D01*
X100762676Y-70785714D02*
X100667438Y-70690476D01*
X100667438Y-70690476D02*
X100619819Y-70547619D01*
X100619819Y-70547619D02*
X100619819Y-70452381D01*
X100619819Y-70452381D02*
X100667438Y-70309524D01*
X100667438Y-70309524D02*
X100715057Y-70261905D01*
X100619819Y-69547619D02*
X101334104Y-69547619D01*
X101334104Y-69547619D02*
X101476961Y-69595238D01*
X101476961Y-69595238D02*
X101572200Y-69690476D01*
X101572200Y-69690476D02*
X101619819Y-69833333D01*
X101619819Y-69833333D02*
X101619819Y-69928571D01*
X101619819Y-68595238D02*
X101619819Y-69071428D01*
X101619819Y-69071428D02*
X100619819Y-69071428D01*
X101524580Y-67690476D02*
X101572200Y-67738095D01*
X101572200Y-67738095D02*
X101619819Y-67880952D01*
X101619819Y-67880952D02*
X101619819Y-67976190D01*
X101619819Y-67976190D02*
X101572200Y-68119047D01*
X101572200Y-68119047D02*
X101476961Y-68214285D01*
X101476961Y-68214285D02*
X101381723Y-68261904D01*
X101381723Y-68261904D02*
X101191247Y-68309523D01*
X101191247Y-68309523D02*
X101048390Y-68309523D01*
X101048390Y-68309523D02*
X100857914Y-68261904D01*
X100857914Y-68261904D02*
X100762676Y-68214285D01*
X100762676Y-68214285D02*
X100667438Y-68119047D01*
X100667438Y-68119047D02*
X100619819Y-67976190D01*
X100619819Y-67976190D02*
X100619819Y-67880952D01*
X100619819Y-67880952D02*
X100667438Y-67738095D01*
X100667438Y-67738095D02*
X100715057Y-67690476D01*
X100619819Y-66976190D02*
X101334104Y-66976190D01*
X101334104Y-66976190D02*
X101476961Y-67023809D01*
X101476961Y-67023809D02*
X101572200Y-67119047D01*
X101572200Y-67119047D02*
X101619819Y-67261904D01*
X101619819Y-67261904D02*
X101619819Y-67357142D01*
X101619819Y-66023809D02*
X101619819Y-66499999D01*
X101619819Y-66499999D02*
X100619819Y-66499999D01*
X101524580Y-65119047D02*
X101572200Y-65166666D01*
X101572200Y-65166666D02*
X101619819Y-65309523D01*
X101619819Y-65309523D02*
X101619819Y-65404761D01*
X101619819Y-65404761D02*
X101572200Y-65547618D01*
X101572200Y-65547618D02*
X101476961Y-65642856D01*
X101476961Y-65642856D02*
X101381723Y-65690475D01*
X101381723Y-65690475D02*
X101191247Y-65738094D01*
X101191247Y-65738094D02*
X101048390Y-65738094D01*
X101048390Y-65738094D02*
X100857914Y-65690475D01*
X100857914Y-65690475D02*
X100762676Y-65642856D01*
X100762676Y-65642856D02*
X100667438Y-65547618D01*
X100667438Y-65547618D02*
X100619819Y-65404761D01*
X100619819Y-65404761D02*
X100619819Y-65309523D01*
X100619819Y-65309523D02*
X100667438Y-65166666D01*
X100667438Y-65166666D02*
X100715057Y-65119047D01*
X100619819Y-64404761D02*
X101334104Y-64404761D01*
X101334104Y-64404761D02*
X101476961Y-64452380D01*
X101476961Y-64452380D02*
X101572200Y-64547618D01*
X101572200Y-64547618D02*
X101619819Y-64690475D01*
X101619819Y-64690475D02*
X101619819Y-64785713D01*
X101619819Y-63452380D02*
X101619819Y-63928570D01*
X101619819Y-63928570D02*
X100619819Y-63928570D01*
X101524580Y-62547618D02*
X101572200Y-62595237D01*
X101572200Y-62595237D02*
X101619819Y-62738094D01*
X101619819Y-62738094D02*
X101619819Y-62833332D01*
X101619819Y-62833332D02*
X101572200Y-62976189D01*
X101572200Y-62976189D02*
X101476961Y-63071427D01*
X101476961Y-63071427D02*
X101381723Y-63119046D01*
X101381723Y-63119046D02*
X101191247Y-63166665D01*
X101191247Y-63166665D02*
X101048390Y-63166665D01*
X101048390Y-63166665D02*
X100857914Y-63119046D01*
X100857914Y-63119046D02*
X100762676Y-63071427D01*
X100762676Y-63071427D02*
X100667438Y-62976189D01*
X100667438Y-62976189D02*
X100619819Y-62833332D01*
X100619819Y-62833332D02*
X100619819Y-62738094D01*
X100619819Y-62738094D02*
X100667438Y-62595237D01*
X100667438Y-62595237D02*
X100715057Y-62547618D01*
X148120833Y-73679580D02*
X148073214Y-73727200D01*
X148073214Y-73727200D02*
X147930357Y-73774819D01*
X147930357Y-73774819D02*
X147835119Y-73774819D01*
X147835119Y-73774819D02*
X147692262Y-73727200D01*
X147692262Y-73727200D02*
X147597024Y-73631961D01*
X147597024Y-73631961D02*
X147549405Y-73536723D01*
X147549405Y-73536723D02*
X147501786Y-73346247D01*
X147501786Y-73346247D02*
X147501786Y-73203390D01*
X147501786Y-73203390D02*
X147549405Y-73012914D01*
X147549405Y-73012914D02*
X147597024Y-72917676D01*
X147597024Y-72917676D02*
X147692262Y-72822438D01*
X147692262Y-72822438D02*
X147835119Y-72774819D01*
X147835119Y-72774819D02*
X147930357Y-72774819D01*
X147930357Y-72774819D02*
X148073214Y-72822438D01*
X148073214Y-72822438D02*
X148120833Y-72870057D01*
X149073214Y-73774819D02*
X148501786Y-73774819D01*
X148787500Y-73774819D02*
X148787500Y-72774819D01*
X148787500Y-72774819D02*
X148692262Y-72917676D01*
X148692262Y-72917676D02*
X148597024Y-73012914D01*
X148597024Y-73012914D02*
X148501786Y-73060533D01*
X131083333Y-52204819D02*
X130750000Y-51728628D01*
X130511905Y-52204819D02*
X130511905Y-51204819D01*
X130511905Y-51204819D02*
X130892857Y-51204819D01*
X130892857Y-51204819D02*
X130988095Y-51252438D01*
X130988095Y-51252438D02*
X131035714Y-51300057D01*
X131035714Y-51300057D02*
X131083333Y-51395295D01*
X131083333Y-51395295D02*
X131083333Y-51538152D01*
X131083333Y-51538152D02*
X131035714Y-51633390D01*
X131035714Y-51633390D02*
X130988095Y-51681009D01*
X130988095Y-51681009D02*
X130892857Y-51728628D01*
X130892857Y-51728628D02*
X130511905Y-51728628D01*
X131940476Y-51538152D02*
X131940476Y-52204819D01*
X131702381Y-51157200D02*
X131464286Y-51871485D01*
X131464286Y-51871485D02*
X132083333Y-51871485D01*
X116583333Y-57039580D02*
X116535714Y-57087200D01*
X116535714Y-57087200D02*
X116392857Y-57134819D01*
X116392857Y-57134819D02*
X116297619Y-57134819D01*
X116297619Y-57134819D02*
X116154762Y-57087200D01*
X116154762Y-57087200D02*
X116059524Y-56991961D01*
X116059524Y-56991961D02*
X116011905Y-56896723D01*
X116011905Y-56896723D02*
X115964286Y-56706247D01*
X115964286Y-56706247D02*
X115964286Y-56563390D01*
X115964286Y-56563390D02*
X116011905Y-56372914D01*
X116011905Y-56372914D02*
X116059524Y-56277676D01*
X116059524Y-56277676D02*
X116154762Y-56182438D01*
X116154762Y-56182438D02*
X116297619Y-56134819D01*
X116297619Y-56134819D02*
X116392857Y-56134819D01*
X116392857Y-56134819D02*
X116535714Y-56182438D01*
X116535714Y-56182438D02*
X116583333Y-56230057D01*
X117440476Y-56134819D02*
X117250000Y-56134819D01*
X117250000Y-56134819D02*
X117154762Y-56182438D01*
X117154762Y-56182438D02*
X117107143Y-56230057D01*
X117107143Y-56230057D02*
X117011905Y-56372914D01*
X117011905Y-56372914D02*
X116964286Y-56563390D01*
X116964286Y-56563390D02*
X116964286Y-56944342D01*
X116964286Y-56944342D02*
X117011905Y-57039580D01*
X117011905Y-57039580D02*
X117059524Y-57087200D01*
X117059524Y-57087200D02*
X117154762Y-57134819D01*
X117154762Y-57134819D02*
X117345238Y-57134819D01*
X117345238Y-57134819D02*
X117440476Y-57087200D01*
X117440476Y-57087200D02*
X117488095Y-57039580D01*
X117488095Y-57039580D02*
X117535714Y-56944342D01*
X117535714Y-56944342D02*
X117535714Y-56706247D01*
X117535714Y-56706247D02*
X117488095Y-56611009D01*
X117488095Y-56611009D02*
X117440476Y-56563390D01*
X117440476Y-56563390D02*
X117345238Y-56515771D01*
X117345238Y-56515771D02*
X117154762Y-56515771D01*
X117154762Y-56515771D02*
X117059524Y-56563390D01*
X117059524Y-56563390D02*
X117011905Y-56611009D01*
X117011905Y-56611009D02*
X116964286Y-56706247D01*
X110083333Y-58454819D02*
X109750000Y-57978628D01*
X109511905Y-58454819D02*
X109511905Y-57454819D01*
X109511905Y-57454819D02*
X109892857Y-57454819D01*
X109892857Y-57454819D02*
X109988095Y-57502438D01*
X109988095Y-57502438D02*
X110035714Y-57550057D01*
X110035714Y-57550057D02*
X110083333Y-57645295D01*
X110083333Y-57645295D02*
X110083333Y-57788152D01*
X110083333Y-57788152D02*
X110035714Y-57883390D01*
X110035714Y-57883390D02*
X109988095Y-57931009D01*
X109988095Y-57931009D02*
X109892857Y-57978628D01*
X109892857Y-57978628D02*
X109511905Y-57978628D01*
X110940476Y-57454819D02*
X110750000Y-57454819D01*
X110750000Y-57454819D02*
X110654762Y-57502438D01*
X110654762Y-57502438D02*
X110607143Y-57550057D01*
X110607143Y-57550057D02*
X110511905Y-57692914D01*
X110511905Y-57692914D02*
X110464286Y-57883390D01*
X110464286Y-57883390D02*
X110464286Y-58264342D01*
X110464286Y-58264342D02*
X110511905Y-58359580D01*
X110511905Y-58359580D02*
X110559524Y-58407200D01*
X110559524Y-58407200D02*
X110654762Y-58454819D01*
X110654762Y-58454819D02*
X110845238Y-58454819D01*
X110845238Y-58454819D02*
X110940476Y-58407200D01*
X110940476Y-58407200D02*
X110988095Y-58359580D01*
X110988095Y-58359580D02*
X111035714Y-58264342D01*
X111035714Y-58264342D02*
X111035714Y-58026247D01*
X111035714Y-58026247D02*
X110988095Y-57931009D01*
X110988095Y-57931009D02*
X110940476Y-57883390D01*
X110940476Y-57883390D02*
X110845238Y-57835771D01*
X110845238Y-57835771D02*
X110654762Y-57835771D01*
X110654762Y-57835771D02*
X110559524Y-57883390D01*
X110559524Y-57883390D02*
X110511905Y-57931009D01*
X110511905Y-57931009D02*
X110464286Y-58026247D01*
X132454819Y-55011904D02*
X133264342Y-55011904D01*
X133264342Y-55011904D02*
X133359580Y-54964285D01*
X133359580Y-54964285D02*
X133407200Y-54916666D01*
X133407200Y-54916666D02*
X133454819Y-54821428D01*
X133454819Y-54821428D02*
X133454819Y-54630952D01*
X133454819Y-54630952D02*
X133407200Y-54535714D01*
X133407200Y-54535714D02*
X133359580Y-54488095D01*
X133359580Y-54488095D02*
X133264342Y-54440476D01*
X133264342Y-54440476D02*
X132454819Y-54440476D01*
X133454819Y-53440476D02*
X133454819Y-54011904D01*
X133454819Y-53726190D02*
X132454819Y-53726190D01*
X132454819Y-53726190D02*
X132597676Y-53821428D01*
X132597676Y-53821428D02*
X132692914Y-53916666D01*
X132692914Y-53916666D02*
X132740533Y-54011904D01*
X148583333Y-84634819D02*
X148250000Y-84158628D01*
X148011905Y-84634819D02*
X148011905Y-83634819D01*
X148011905Y-83634819D02*
X148392857Y-83634819D01*
X148392857Y-83634819D02*
X148488095Y-83682438D01*
X148488095Y-83682438D02*
X148535714Y-83730057D01*
X148535714Y-83730057D02*
X148583333Y-83825295D01*
X148583333Y-83825295D02*
X148583333Y-83968152D01*
X148583333Y-83968152D02*
X148535714Y-84063390D01*
X148535714Y-84063390D02*
X148488095Y-84111009D01*
X148488095Y-84111009D02*
X148392857Y-84158628D01*
X148392857Y-84158628D02*
X148011905Y-84158628D01*
X148916667Y-83634819D02*
X149583333Y-83634819D01*
X149583333Y-83634819D02*
X149154762Y-84634819D01*
X132204819Y-83333333D02*
X132919104Y-83333333D01*
X132919104Y-83333333D02*
X133061961Y-83380952D01*
X133061961Y-83380952D02*
X133157200Y-83476190D01*
X133157200Y-83476190D02*
X133204819Y-83619047D01*
X133204819Y-83619047D02*
X133204819Y-83714285D01*
X133204819Y-82857142D02*
X132204819Y-82857142D01*
X132204819Y-82857142D02*
X132204819Y-82476190D01*
X132204819Y-82476190D02*
X132252438Y-82380952D01*
X132252438Y-82380952D02*
X132300057Y-82333333D01*
X132300057Y-82333333D02*
X132395295Y-82285714D01*
X132395295Y-82285714D02*
X132538152Y-82285714D01*
X132538152Y-82285714D02*
X132633390Y-82333333D01*
X132633390Y-82333333D02*
X132681009Y-82380952D01*
X132681009Y-82380952D02*
X132728628Y-82476190D01*
X132728628Y-82476190D02*
X132728628Y-82857142D01*
X133204819Y-81333333D02*
X133204819Y-81904761D01*
X133204819Y-81619047D02*
X132204819Y-81619047D01*
X132204819Y-81619047D02*
X132347676Y-81714285D01*
X132347676Y-81714285D02*
X132442914Y-81809523D01*
X132442914Y-81809523D02*
X132490533Y-81904761D01*
X133857142Y-81609580D02*
X133809523Y-81657200D01*
X133809523Y-81657200D02*
X133666666Y-81704819D01*
X133666666Y-81704819D02*
X133571428Y-81704819D01*
X133571428Y-81704819D02*
X133428571Y-81657200D01*
X133428571Y-81657200D02*
X133333333Y-81561961D01*
X133333333Y-81561961D02*
X133285714Y-81466723D01*
X133285714Y-81466723D02*
X133238095Y-81276247D01*
X133238095Y-81276247D02*
X133238095Y-81133390D01*
X133238095Y-81133390D02*
X133285714Y-80942914D01*
X133285714Y-80942914D02*
X133333333Y-80847676D01*
X133333333Y-80847676D02*
X133428571Y-80752438D01*
X133428571Y-80752438D02*
X133571428Y-80704819D01*
X133571428Y-80704819D02*
X133666666Y-80704819D01*
X133666666Y-80704819D02*
X133809523Y-80752438D01*
X133809523Y-80752438D02*
X133857142Y-80800057D01*
X134809523Y-81704819D02*
X134238095Y-81704819D01*
X134523809Y-81704819D02*
X134523809Y-80704819D01*
X134523809Y-80704819D02*
X134428571Y-80847676D01*
X134428571Y-80847676D02*
X134333333Y-80942914D01*
X134333333Y-80942914D02*
X134238095Y-80990533D01*
X135142857Y-80704819D02*
X135761904Y-80704819D01*
X135761904Y-80704819D02*
X135428571Y-81085771D01*
X135428571Y-81085771D02*
X135571428Y-81085771D01*
X135571428Y-81085771D02*
X135666666Y-81133390D01*
X135666666Y-81133390D02*
X135714285Y-81181009D01*
X135714285Y-81181009D02*
X135761904Y-81276247D01*
X135761904Y-81276247D02*
X135761904Y-81514342D01*
X135761904Y-81514342D02*
X135714285Y-81609580D01*
X135714285Y-81609580D02*
X135666666Y-81657200D01*
X135666666Y-81657200D02*
X135571428Y-81704819D01*
X135571428Y-81704819D02*
X135285714Y-81704819D01*
X135285714Y-81704819D02*
X135190476Y-81657200D01*
X135190476Y-81657200D02*
X135142857Y-81609580D01*
X110333333Y-81539580D02*
X110285714Y-81587200D01*
X110285714Y-81587200D02*
X110142857Y-81634819D01*
X110142857Y-81634819D02*
X110047619Y-81634819D01*
X110047619Y-81634819D02*
X109904762Y-81587200D01*
X109904762Y-81587200D02*
X109809524Y-81491961D01*
X109809524Y-81491961D02*
X109761905Y-81396723D01*
X109761905Y-81396723D02*
X109714286Y-81206247D01*
X109714286Y-81206247D02*
X109714286Y-81063390D01*
X109714286Y-81063390D02*
X109761905Y-80872914D01*
X109761905Y-80872914D02*
X109809524Y-80777676D01*
X109809524Y-80777676D02*
X109904762Y-80682438D01*
X109904762Y-80682438D02*
X110047619Y-80634819D01*
X110047619Y-80634819D02*
X110142857Y-80634819D01*
X110142857Y-80634819D02*
X110285714Y-80682438D01*
X110285714Y-80682438D02*
X110333333Y-80730057D01*
X110904762Y-81063390D02*
X110809524Y-81015771D01*
X110809524Y-81015771D02*
X110761905Y-80968152D01*
X110761905Y-80968152D02*
X110714286Y-80872914D01*
X110714286Y-80872914D02*
X110714286Y-80825295D01*
X110714286Y-80825295D02*
X110761905Y-80730057D01*
X110761905Y-80730057D02*
X110809524Y-80682438D01*
X110809524Y-80682438D02*
X110904762Y-80634819D01*
X110904762Y-80634819D02*
X111095238Y-80634819D01*
X111095238Y-80634819D02*
X111190476Y-80682438D01*
X111190476Y-80682438D02*
X111238095Y-80730057D01*
X111238095Y-80730057D02*
X111285714Y-80825295D01*
X111285714Y-80825295D02*
X111285714Y-80872914D01*
X111285714Y-80872914D02*
X111238095Y-80968152D01*
X111238095Y-80968152D02*
X111190476Y-81015771D01*
X111190476Y-81015771D02*
X111095238Y-81063390D01*
X111095238Y-81063390D02*
X110904762Y-81063390D01*
X110904762Y-81063390D02*
X110809524Y-81111009D01*
X110809524Y-81111009D02*
X110761905Y-81158628D01*
X110761905Y-81158628D02*
X110714286Y-81253866D01*
X110714286Y-81253866D02*
X110714286Y-81444342D01*
X110714286Y-81444342D02*
X110761905Y-81539580D01*
X110761905Y-81539580D02*
X110809524Y-81587200D01*
X110809524Y-81587200D02*
X110904762Y-81634819D01*
X110904762Y-81634819D02*
X111095238Y-81634819D01*
X111095238Y-81634819D02*
X111190476Y-81587200D01*
X111190476Y-81587200D02*
X111238095Y-81539580D01*
X111238095Y-81539580D02*
X111285714Y-81444342D01*
X111285714Y-81444342D02*
X111285714Y-81253866D01*
X111285714Y-81253866D02*
X111238095Y-81158628D01*
X111238095Y-81158628D02*
X111190476Y-81111009D01*
X111190476Y-81111009D02*
X111095238Y-81063390D01*
X102238095Y-84204819D02*
X102238095Y-83204819D01*
X102238095Y-83681009D02*
X102809523Y-83681009D01*
X102809523Y-84204819D02*
X102809523Y-83204819D01*
X103809523Y-84204819D02*
X103238095Y-84204819D01*
X103523809Y-84204819D02*
X103523809Y-83204819D01*
X103523809Y-83204819D02*
X103428571Y-83347676D01*
X103428571Y-83347676D02*
X103333333Y-83442914D01*
X103333333Y-83442914D02*
X103238095Y-83490533D01*
X151238095Y-84204819D02*
X151238095Y-83204819D01*
X151238095Y-83681009D02*
X151809523Y-83681009D01*
X151809523Y-84204819D02*
X151809523Y-83204819D01*
X152238095Y-83300057D02*
X152285714Y-83252438D01*
X152285714Y-83252438D02*
X152380952Y-83204819D01*
X152380952Y-83204819D02*
X152619047Y-83204819D01*
X152619047Y-83204819D02*
X152714285Y-83252438D01*
X152714285Y-83252438D02*
X152761904Y-83300057D01*
X152761904Y-83300057D02*
X152809523Y-83395295D01*
X152809523Y-83395295D02*
X152809523Y-83490533D01*
X152809523Y-83490533D02*
X152761904Y-83633390D01*
X152761904Y-83633390D02*
X152190476Y-84204819D01*
X152190476Y-84204819D02*
X152809523Y-84204819D01*
X100488095Y-53204819D02*
X100488095Y-52204819D01*
X100488095Y-52681009D02*
X101059523Y-52681009D01*
X101059523Y-53204819D02*
X101059523Y-52204819D01*
X101440476Y-52204819D02*
X102059523Y-52204819D01*
X102059523Y-52204819D02*
X101726190Y-52585771D01*
X101726190Y-52585771D02*
X101869047Y-52585771D01*
X101869047Y-52585771D02*
X101964285Y-52633390D01*
X101964285Y-52633390D02*
X102011904Y-52681009D01*
X102011904Y-52681009D02*
X102059523Y-52776247D01*
X102059523Y-52776247D02*
X102059523Y-53014342D01*
X102059523Y-53014342D02*
X102011904Y-53109580D01*
X102011904Y-53109580D02*
X101964285Y-53157200D01*
X101964285Y-53157200D02*
X101869047Y-53204819D01*
X101869047Y-53204819D02*
X101583333Y-53204819D01*
X101583333Y-53204819D02*
X101488095Y-53157200D01*
X101488095Y-53157200D02*
X101440476Y-53109580D01*
X151238095Y-51454819D02*
X151238095Y-50454819D01*
X151238095Y-50931009D02*
X151809523Y-50931009D01*
X151809523Y-51454819D02*
X151809523Y-50454819D01*
X152714285Y-50788152D02*
X152714285Y-51454819D01*
X152476190Y-50407200D02*
X152238095Y-51121485D01*
X152238095Y-51121485D02*
X152857142Y-51121485D01*
X119166666Y-53204819D02*
X119166666Y-53919104D01*
X119166666Y-53919104D02*
X119119047Y-54061961D01*
X119119047Y-54061961D02*
X119023809Y-54157200D01*
X119023809Y-54157200D02*
X118880952Y-54204819D01*
X118880952Y-54204819D02*
X118785714Y-54204819D01*
X119642857Y-54204819D02*
X119642857Y-53204819D01*
X119642857Y-53204819D02*
X120023809Y-53204819D01*
X120023809Y-53204819D02*
X120119047Y-53252438D01*
X120119047Y-53252438D02*
X120166666Y-53300057D01*
X120166666Y-53300057D02*
X120214285Y-53395295D01*
X120214285Y-53395295D02*
X120214285Y-53538152D01*
X120214285Y-53538152D02*
X120166666Y-53633390D01*
X120166666Y-53633390D02*
X120119047Y-53681009D01*
X120119047Y-53681009D02*
X120023809Y-53728628D01*
X120023809Y-53728628D02*
X119642857Y-53728628D01*
X121119047Y-53204819D02*
X120642857Y-53204819D01*
X120642857Y-53204819D02*
X120595238Y-53681009D01*
X120595238Y-53681009D02*
X120642857Y-53633390D01*
X120642857Y-53633390D02*
X120738095Y-53585771D01*
X120738095Y-53585771D02*
X120976190Y-53585771D01*
X120976190Y-53585771D02*
X121071428Y-53633390D01*
X121071428Y-53633390D02*
X121119047Y-53681009D01*
X121119047Y-53681009D02*
X121166666Y-53776247D01*
X121166666Y-53776247D02*
X121166666Y-54014342D01*
X121166666Y-54014342D02*
X121119047Y-54109580D01*
X121119047Y-54109580D02*
X121071428Y-54157200D01*
X121071428Y-54157200D02*
X120976190Y-54204819D01*
X120976190Y-54204819D02*
X120738095Y-54204819D01*
X120738095Y-54204819D02*
X120642857Y-54157200D01*
X120642857Y-54157200D02*
X120595238Y-54109580D01*
X107704819Y-54333333D02*
X108419104Y-54333333D01*
X108419104Y-54333333D02*
X108561961Y-54380952D01*
X108561961Y-54380952D02*
X108657200Y-54476190D01*
X108657200Y-54476190D02*
X108704819Y-54619047D01*
X108704819Y-54619047D02*
X108704819Y-54714285D01*
X108704819Y-53857142D02*
X107704819Y-53857142D01*
X107704819Y-53857142D02*
X107704819Y-53476190D01*
X107704819Y-53476190D02*
X107752438Y-53380952D01*
X107752438Y-53380952D02*
X107800057Y-53333333D01*
X107800057Y-53333333D02*
X107895295Y-53285714D01*
X107895295Y-53285714D02*
X108038152Y-53285714D01*
X108038152Y-53285714D02*
X108133390Y-53333333D01*
X108133390Y-53333333D02*
X108181009Y-53380952D01*
X108181009Y-53380952D02*
X108228628Y-53476190D01*
X108228628Y-53476190D02*
X108228628Y-53857142D01*
X108038152Y-52428571D02*
X108704819Y-52428571D01*
X107657200Y-52666666D02*
X108371485Y-52904761D01*
X108371485Y-52904761D02*
X108371485Y-52285714D01*
X128859580Y-56666666D02*
X128907200Y-56714285D01*
X128907200Y-56714285D02*
X128954819Y-56857142D01*
X128954819Y-56857142D02*
X128954819Y-56952380D01*
X128954819Y-56952380D02*
X128907200Y-57095237D01*
X128907200Y-57095237D02*
X128811961Y-57190475D01*
X128811961Y-57190475D02*
X128716723Y-57238094D01*
X128716723Y-57238094D02*
X128526247Y-57285713D01*
X128526247Y-57285713D02*
X128383390Y-57285713D01*
X128383390Y-57285713D02*
X128192914Y-57238094D01*
X128192914Y-57238094D02*
X128097676Y-57190475D01*
X128097676Y-57190475D02*
X128002438Y-57095237D01*
X128002438Y-57095237D02*
X127954819Y-56952380D01*
X127954819Y-56952380D02*
X127954819Y-56857142D01*
X127954819Y-56857142D02*
X128002438Y-56714285D01*
X128002438Y-56714285D02*
X128050057Y-56666666D01*
X128288152Y-55809523D02*
X128954819Y-55809523D01*
X127907200Y-56047618D02*
X128621485Y-56285713D01*
X128621485Y-56285713D02*
X128621485Y-55666666D01*
X146204819Y-78488094D02*
X145204819Y-78488094D01*
X145204819Y-78488094D02*
X145204819Y-78249999D01*
X145204819Y-78249999D02*
X145252438Y-78107142D01*
X145252438Y-78107142D02*
X145347676Y-78011904D01*
X145347676Y-78011904D02*
X145442914Y-77964285D01*
X145442914Y-77964285D02*
X145633390Y-77916666D01*
X145633390Y-77916666D02*
X145776247Y-77916666D01*
X145776247Y-77916666D02*
X145966723Y-77964285D01*
X145966723Y-77964285D02*
X146061961Y-78011904D01*
X146061961Y-78011904D02*
X146157200Y-78107142D01*
X146157200Y-78107142D02*
X146204819Y-78249999D01*
X146204819Y-78249999D02*
X146204819Y-78488094D01*
X146204819Y-76964285D02*
X146204819Y-77535713D01*
X146204819Y-77249999D02*
X145204819Y-77249999D01*
X145204819Y-77249999D02*
X145347676Y-77345237D01*
X145347676Y-77345237D02*
X145442914Y-77440475D01*
X145442914Y-77440475D02*
X145490533Y-77535713D01*
X123609580Y-78142857D02*
X123657200Y-78190476D01*
X123657200Y-78190476D02*
X123704819Y-78333333D01*
X123704819Y-78333333D02*
X123704819Y-78428571D01*
X123704819Y-78428571D02*
X123657200Y-78571428D01*
X123657200Y-78571428D02*
X123561961Y-78666666D01*
X123561961Y-78666666D02*
X123466723Y-78714285D01*
X123466723Y-78714285D02*
X123276247Y-78761904D01*
X123276247Y-78761904D02*
X123133390Y-78761904D01*
X123133390Y-78761904D02*
X122942914Y-78714285D01*
X122942914Y-78714285D02*
X122847676Y-78666666D01*
X122847676Y-78666666D02*
X122752438Y-78571428D01*
X122752438Y-78571428D02*
X122704819Y-78428571D01*
X122704819Y-78428571D02*
X122704819Y-78333333D01*
X122704819Y-78333333D02*
X122752438Y-78190476D01*
X122752438Y-78190476D02*
X122800057Y-78142857D01*
X123704819Y-77190476D02*
X123704819Y-77761904D01*
X123704819Y-77476190D02*
X122704819Y-77476190D01*
X122704819Y-77476190D02*
X122847676Y-77571428D01*
X122847676Y-77571428D02*
X122942914Y-77666666D01*
X122942914Y-77666666D02*
X122990533Y-77761904D01*
X123038152Y-76333333D02*
X123704819Y-76333333D01*
X122657200Y-76571428D02*
X123371485Y-76809523D01*
X123371485Y-76809523D02*
X123371485Y-76190476D01*
X136857142Y-80109580D02*
X136809523Y-80157200D01*
X136809523Y-80157200D02*
X136666666Y-80204819D01*
X136666666Y-80204819D02*
X136571428Y-80204819D01*
X136571428Y-80204819D02*
X136428571Y-80157200D01*
X136428571Y-80157200D02*
X136333333Y-80061961D01*
X136333333Y-80061961D02*
X136285714Y-79966723D01*
X136285714Y-79966723D02*
X136238095Y-79776247D01*
X136238095Y-79776247D02*
X136238095Y-79633390D01*
X136238095Y-79633390D02*
X136285714Y-79442914D01*
X136285714Y-79442914D02*
X136333333Y-79347676D01*
X136333333Y-79347676D02*
X136428571Y-79252438D01*
X136428571Y-79252438D02*
X136571428Y-79204819D01*
X136571428Y-79204819D02*
X136666666Y-79204819D01*
X136666666Y-79204819D02*
X136809523Y-79252438D01*
X136809523Y-79252438D02*
X136857142Y-79300057D01*
X137809523Y-80204819D02*
X137238095Y-80204819D01*
X137523809Y-80204819D02*
X137523809Y-79204819D01*
X137523809Y-79204819D02*
X137428571Y-79347676D01*
X137428571Y-79347676D02*
X137333333Y-79442914D01*
X137333333Y-79442914D02*
X137238095Y-79490533D01*
X138190476Y-79300057D02*
X138238095Y-79252438D01*
X138238095Y-79252438D02*
X138333333Y-79204819D01*
X138333333Y-79204819D02*
X138571428Y-79204819D01*
X138571428Y-79204819D02*
X138666666Y-79252438D01*
X138666666Y-79252438D02*
X138714285Y-79300057D01*
X138714285Y-79300057D02*
X138761904Y-79395295D01*
X138761904Y-79395295D02*
X138761904Y-79490533D01*
X138761904Y-79490533D02*
X138714285Y-79633390D01*
X138714285Y-79633390D02*
X138142857Y-80204819D01*
X138142857Y-80204819D02*
X138761904Y-80204819D01*
X148204819Y-60642857D02*
X147728628Y-60976190D01*
X148204819Y-61214285D02*
X147204819Y-61214285D01*
X147204819Y-61214285D02*
X147204819Y-60833333D01*
X147204819Y-60833333D02*
X147252438Y-60738095D01*
X147252438Y-60738095D02*
X147300057Y-60690476D01*
X147300057Y-60690476D02*
X147395295Y-60642857D01*
X147395295Y-60642857D02*
X147538152Y-60642857D01*
X147538152Y-60642857D02*
X147633390Y-60690476D01*
X147633390Y-60690476D02*
X147681009Y-60738095D01*
X147681009Y-60738095D02*
X147728628Y-60833333D01*
X147728628Y-60833333D02*
X147728628Y-61214285D01*
X148204819Y-59690476D02*
X148204819Y-60261904D01*
X148204819Y-59976190D02*
X147204819Y-59976190D01*
X147204819Y-59976190D02*
X147347676Y-60071428D01*
X147347676Y-60071428D02*
X147442914Y-60166666D01*
X147442914Y-60166666D02*
X147490533Y-60261904D01*
X147633390Y-59119047D02*
X147585771Y-59214285D01*
X147585771Y-59214285D02*
X147538152Y-59261904D01*
X147538152Y-59261904D02*
X147442914Y-59309523D01*
X147442914Y-59309523D02*
X147395295Y-59309523D01*
X147395295Y-59309523D02*
X147300057Y-59261904D01*
X147300057Y-59261904D02*
X147252438Y-59214285D01*
X147252438Y-59214285D02*
X147204819Y-59119047D01*
X147204819Y-59119047D02*
X147204819Y-58928571D01*
X147204819Y-58928571D02*
X147252438Y-58833333D01*
X147252438Y-58833333D02*
X147300057Y-58785714D01*
X147300057Y-58785714D02*
X147395295Y-58738095D01*
X147395295Y-58738095D02*
X147442914Y-58738095D01*
X147442914Y-58738095D02*
X147538152Y-58785714D01*
X147538152Y-58785714D02*
X147585771Y-58833333D01*
X147585771Y-58833333D02*
X147633390Y-58928571D01*
X147633390Y-58928571D02*
X147633390Y-59119047D01*
X147633390Y-59119047D02*
X147681009Y-59214285D01*
X147681009Y-59214285D02*
X147728628Y-59261904D01*
X147728628Y-59261904D02*
X147823866Y-59309523D01*
X147823866Y-59309523D02*
X148014342Y-59309523D01*
X148014342Y-59309523D02*
X148109580Y-59261904D01*
X148109580Y-59261904D02*
X148157200Y-59214285D01*
X148157200Y-59214285D02*
X148204819Y-59119047D01*
X148204819Y-59119047D02*
X148204819Y-58928571D01*
X148204819Y-58928571D02*
X148157200Y-58833333D01*
X148157200Y-58833333D02*
X148109580Y-58785714D01*
X148109580Y-58785714D02*
X148014342Y-58738095D01*
X148014342Y-58738095D02*
X147823866Y-58738095D01*
X147823866Y-58738095D02*
X147728628Y-58785714D01*
X147728628Y-58785714D02*
X147681009Y-58833333D01*
X147681009Y-58833333D02*
X147633390Y-58928571D01*
X131333333Y-58609580D02*
X131285714Y-58657200D01*
X131285714Y-58657200D02*
X131142857Y-58704819D01*
X131142857Y-58704819D02*
X131047619Y-58704819D01*
X131047619Y-58704819D02*
X130904762Y-58657200D01*
X130904762Y-58657200D02*
X130809524Y-58561961D01*
X130809524Y-58561961D02*
X130761905Y-58466723D01*
X130761905Y-58466723D02*
X130714286Y-58276247D01*
X130714286Y-58276247D02*
X130714286Y-58133390D01*
X130714286Y-58133390D02*
X130761905Y-57942914D01*
X130761905Y-57942914D02*
X130809524Y-57847676D01*
X130809524Y-57847676D02*
X130904762Y-57752438D01*
X130904762Y-57752438D02*
X131047619Y-57704819D01*
X131047619Y-57704819D02*
X131142857Y-57704819D01*
X131142857Y-57704819D02*
X131285714Y-57752438D01*
X131285714Y-57752438D02*
X131333333Y-57800057D01*
X132238095Y-57704819D02*
X131761905Y-57704819D01*
X131761905Y-57704819D02*
X131714286Y-58181009D01*
X131714286Y-58181009D02*
X131761905Y-58133390D01*
X131761905Y-58133390D02*
X131857143Y-58085771D01*
X131857143Y-58085771D02*
X132095238Y-58085771D01*
X132095238Y-58085771D02*
X132190476Y-58133390D01*
X132190476Y-58133390D02*
X132238095Y-58181009D01*
X132238095Y-58181009D02*
X132285714Y-58276247D01*
X132285714Y-58276247D02*
X132285714Y-58514342D01*
X132285714Y-58514342D02*
X132238095Y-58609580D01*
X132238095Y-58609580D02*
X132190476Y-58657200D01*
X132190476Y-58657200D02*
X132095238Y-58704819D01*
X132095238Y-58704819D02*
X131857143Y-58704819D01*
X131857143Y-58704819D02*
X131761905Y-58657200D01*
X131761905Y-58657200D02*
X131714286Y-58609580D01*
X123738095Y-74704819D02*
X123738095Y-75514342D01*
X123738095Y-75514342D02*
X123785714Y-75609580D01*
X123785714Y-75609580D02*
X123833333Y-75657200D01*
X123833333Y-75657200D02*
X123928571Y-75704819D01*
X123928571Y-75704819D02*
X124119047Y-75704819D01*
X124119047Y-75704819D02*
X124214285Y-75657200D01*
X124214285Y-75657200D02*
X124261904Y-75609580D01*
X124261904Y-75609580D02*
X124309523Y-75514342D01*
X124309523Y-75514342D02*
X124309523Y-74704819D01*
X125214285Y-75038152D02*
X125214285Y-75704819D01*
X124976190Y-74657200D02*
X124738095Y-75371485D01*
X124738095Y-75371485D02*
X125357142Y-75371485D01*
X110333333Y-74204819D02*
X110000000Y-73728628D01*
X109761905Y-74204819D02*
X109761905Y-73204819D01*
X109761905Y-73204819D02*
X110142857Y-73204819D01*
X110142857Y-73204819D02*
X110238095Y-73252438D01*
X110238095Y-73252438D02*
X110285714Y-73300057D01*
X110285714Y-73300057D02*
X110333333Y-73395295D01*
X110333333Y-73395295D02*
X110333333Y-73538152D01*
X110333333Y-73538152D02*
X110285714Y-73633390D01*
X110285714Y-73633390D02*
X110238095Y-73681009D01*
X110238095Y-73681009D02*
X110142857Y-73728628D01*
X110142857Y-73728628D02*
X109761905Y-73728628D01*
X110809524Y-74204819D02*
X111000000Y-74204819D01*
X111000000Y-74204819D02*
X111095238Y-74157200D01*
X111095238Y-74157200D02*
X111142857Y-74109580D01*
X111142857Y-74109580D02*
X111238095Y-73966723D01*
X111238095Y-73966723D02*
X111285714Y-73776247D01*
X111285714Y-73776247D02*
X111285714Y-73395295D01*
X111285714Y-73395295D02*
X111238095Y-73300057D01*
X111238095Y-73300057D02*
X111190476Y-73252438D01*
X111190476Y-73252438D02*
X111095238Y-73204819D01*
X111095238Y-73204819D02*
X110904762Y-73204819D01*
X110904762Y-73204819D02*
X110809524Y-73252438D01*
X110809524Y-73252438D02*
X110761905Y-73300057D01*
X110761905Y-73300057D02*
X110714286Y-73395295D01*
X110714286Y-73395295D02*
X110714286Y-73633390D01*
X110714286Y-73633390D02*
X110761905Y-73728628D01*
X110761905Y-73728628D02*
X110809524Y-73776247D01*
X110809524Y-73776247D02*
X110904762Y-73823866D01*
X110904762Y-73823866D02*
X111095238Y-73823866D01*
X111095238Y-73823866D02*
X111190476Y-73776247D01*
X111190476Y-73776247D02*
X111238095Y-73728628D01*
X111238095Y-73728628D02*
X111285714Y-73633390D01*
X100204819Y-75761904D02*
X101014342Y-75761904D01*
X101014342Y-75761904D02*
X101109580Y-75714285D01*
X101109580Y-75714285D02*
X101157200Y-75666666D01*
X101157200Y-75666666D02*
X101204819Y-75571428D01*
X101204819Y-75571428D02*
X101204819Y-75380952D01*
X101204819Y-75380952D02*
X101157200Y-75285714D01*
X101157200Y-75285714D02*
X101109580Y-75238095D01*
X101109580Y-75238095D02*
X101014342Y-75190476D01*
X101014342Y-75190476D02*
X100204819Y-75190476D01*
X100204819Y-74809523D02*
X100204819Y-74190476D01*
X100204819Y-74190476D02*
X100585771Y-74523809D01*
X100585771Y-74523809D02*
X100585771Y-74380952D01*
X100585771Y-74380952D02*
X100633390Y-74285714D01*
X100633390Y-74285714D02*
X100681009Y-74238095D01*
X100681009Y-74238095D02*
X100776247Y-74190476D01*
X100776247Y-74190476D02*
X101014342Y-74190476D01*
X101014342Y-74190476D02*
X101109580Y-74238095D01*
X101109580Y-74238095D02*
X101157200Y-74285714D01*
X101157200Y-74285714D02*
X101204819Y-74380952D01*
X101204819Y-74380952D02*
X101204819Y-74666666D01*
X101204819Y-74666666D02*
X101157200Y-74761904D01*
X101157200Y-74761904D02*
X101109580Y-74809523D01*
X153954819Y-58392857D02*
X153478628Y-58726190D01*
X153954819Y-58964285D02*
X152954819Y-58964285D01*
X152954819Y-58964285D02*
X152954819Y-58583333D01*
X152954819Y-58583333D02*
X153002438Y-58488095D01*
X153002438Y-58488095D02*
X153050057Y-58440476D01*
X153050057Y-58440476D02*
X153145295Y-58392857D01*
X153145295Y-58392857D02*
X153288152Y-58392857D01*
X153288152Y-58392857D02*
X153383390Y-58440476D01*
X153383390Y-58440476D02*
X153431009Y-58488095D01*
X153431009Y-58488095D02*
X153478628Y-58583333D01*
X153478628Y-58583333D02*
X153478628Y-58964285D01*
X153954819Y-57440476D02*
X153954819Y-58011904D01*
X153954819Y-57726190D02*
X152954819Y-57726190D01*
X152954819Y-57726190D02*
X153097676Y-57821428D01*
X153097676Y-57821428D02*
X153192914Y-57916666D01*
X153192914Y-57916666D02*
X153240533Y-58011904D01*
X152954819Y-56583333D02*
X152954819Y-56773809D01*
X152954819Y-56773809D02*
X153002438Y-56869047D01*
X153002438Y-56869047D02*
X153050057Y-56916666D01*
X153050057Y-56916666D02*
X153192914Y-57011904D01*
X153192914Y-57011904D02*
X153383390Y-57059523D01*
X153383390Y-57059523D02*
X153764342Y-57059523D01*
X153764342Y-57059523D02*
X153859580Y-57011904D01*
X153859580Y-57011904D02*
X153907200Y-56964285D01*
X153907200Y-56964285D02*
X153954819Y-56869047D01*
X153954819Y-56869047D02*
X153954819Y-56678571D01*
X153954819Y-56678571D02*
X153907200Y-56583333D01*
X153907200Y-56583333D02*
X153859580Y-56535714D01*
X153859580Y-56535714D02*
X153764342Y-56488095D01*
X153764342Y-56488095D02*
X153526247Y-56488095D01*
X153526247Y-56488095D02*
X153431009Y-56535714D01*
X153431009Y-56535714D02*
X153383390Y-56583333D01*
X153383390Y-56583333D02*
X153335771Y-56678571D01*
X153335771Y-56678571D02*
X153335771Y-56869047D01*
X153335771Y-56869047D02*
X153383390Y-56964285D01*
X153383390Y-56964285D02*
X153431009Y-57011904D01*
X153431009Y-57011904D02*
X153526247Y-57059523D01*
X110238095Y-50454819D02*
X110238095Y-51264342D01*
X110238095Y-51264342D02*
X110285714Y-51359580D01*
X110285714Y-51359580D02*
X110333333Y-51407200D01*
X110333333Y-51407200D02*
X110428571Y-51454819D01*
X110428571Y-51454819D02*
X110619047Y-51454819D01*
X110619047Y-51454819D02*
X110714285Y-51407200D01*
X110714285Y-51407200D02*
X110761904Y-51359580D01*
X110761904Y-51359580D02*
X110809523Y-51264342D01*
X110809523Y-51264342D02*
X110809523Y-50454819D01*
X111238095Y-50550057D02*
X111285714Y-50502438D01*
X111285714Y-50502438D02*
X111380952Y-50454819D01*
X111380952Y-50454819D02*
X111619047Y-50454819D01*
X111619047Y-50454819D02*
X111714285Y-50502438D01*
X111714285Y-50502438D02*
X111761904Y-50550057D01*
X111761904Y-50550057D02*
X111809523Y-50645295D01*
X111809523Y-50645295D02*
X111809523Y-50740533D01*
X111809523Y-50740533D02*
X111761904Y-50883390D01*
X111761904Y-50883390D02*
X111190476Y-51454819D01*
X111190476Y-51454819D02*
X111809523Y-51454819D01*
X140261905Y-80354819D02*
X140261905Y-79354819D01*
X140261905Y-79354819D02*
X140500000Y-79354819D01*
X140500000Y-79354819D02*
X140642857Y-79402438D01*
X140642857Y-79402438D02*
X140738095Y-79497676D01*
X140738095Y-79497676D02*
X140785714Y-79592914D01*
X140785714Y-79592914D02*
X140833333Y-79783390D01*
X140833333Y-79783390D02*
X140833333Y-79926247D01*
X140833333Y-79926247D02*
X140785714Y-80116723D01*
X140785714Y-80116723D02*
X140738095Y-80211961D01*
X140738095Y-80211961D02*
X140642857Y-80307200D01*
X140642857Y-80307200D02*
X140500000Y-80354819D01*
X140500000Y-80354819D02*
X140261905Y-80354819D01*
X141690476Y-79354819D02*
X141500000Y-79354819D01*
X141500000Y-79354819D02*
X141404762Y-79402438D01*
X141404762Y-79402438D02*
X141357143Y-79450057D01*
X141357143Y-79450057D02*
X141261905Y-79592914D01*
X141261905Y-79592914D02*
X141214286Y-79783390D01*
X141214286Y-79783390D02*
X141214286Y-80164342D01*
X141214286Y-80164342D02*
X141261905Y-80259580D01*
X141261905Y-80259580D02*
X141309524Y-80307200D01*
X141309524Y-80307200D02*
X141404762Y-80354819D01*
X141404762Y-80354819D02*
X141595238Y-80354819D01*
X141595238Y-80354819D02*
X141690476Y-80307200D01*
X141690476Y-80307200D02*
X141738095Y-80259580D01*
X141738095Y-80259580D02*
X141785714Y-80164342D01*
X141785714Y-80164342D02*
X141785714Y-79926247D01*
X141785714Y-79926247D02*
X141738095Y-79831009D01*
X141738095Y-79831009D02*
X141690476Y-79783390D01*
X141690476Y-79783390D02*
X141595238Y-79735771D01*
X141595238Y-79735771D02*
X141404762Y-79735771D01*
X141404762Y-79735771D02*
X141309524Y-79783390D01*
X141309524Y-79783390D02*
X141261905Y-79831009D01*
X141261905Y-79831009D02*
X141214286Y-79926247D01*
X116261905Y-80354819D02*
X116261905Y-79354819D01*
X116261905Y-79354819D02*
X116500000Y-79354819D01*
X116500000Y-79354819D02*
X116642857Y-79402438D01*
X116642857Y-79402438D02*
X116738095Y-79497676D01*
X116738095Y-79497676D02*
X116785714Y-79592914D01*
X116785714Y-79592914D02*
X116833333Y-79783390D01*
X116833333Y-79783390D02*
X116833333Y-79926247D01*
X116833333Y-79926247D02*
X116785714Y-80116723D01*
X116785714Y-80116723D02*
X116738095Y-80211961D01*
X116738095Y-80211961D02*
X116642857Y-80307200D01*
X116642857Y-80307200D02*
X116500000Y-80354819D01*
X116500000Y-80354819D02*
X116261905Y-80354819D01*
X117738095Y-79354819D02*
X117261905Y-79354819D01*
X117261905Y-79354819D02*
X117214286Y-79831009D01*
X117214286Y-79831009D02*
X117261905Y-79783390D01*
X117261905Y-79783390D02*
X117357143Y-79735771D01*
X117357143Y-79735771D02*
X117595238Y-79735771D01*
X117595238Y-79735771D02*
X117690476Y-79783390D01*
X117690476Y-79783390D02*
X117738095Y-79831009D01*
X117738095Y-79831009D02*
X117785714Y-79926247D01*
X117785714Y-79926247D02*
X117785714Y-80164342D01*
X117785714Y-80164342D02*
X117738095Y-80259580D01*
X117738095Y-80259580D02*
X117690476Y-80307200D01*
X117690476Y-80307200D02*
X117595238Y-80354819D01*
X117595238Y-80354819D02*
X117357143Y-80354819D01*
X117357143Y-80354819D02*
X117261905Y-80307200D01*
X117261905Y-80307200D02*
X117214286Y-80259580D01*
X112857142Y-75679580D02*
X112809523Y-75727200D01*
X112809523Y-75727200D02*
X112666666Y-75774819D01*
X112666666Y-75774819D02*
X112571428Y-75774819D01*
X112571428Y-75774819D02*
X112428571Y-75727200D01*
X112428571Y-75727200D02*
X112333333Y-75631961D01*
X112333333Y-75631961D02*
X112285714Y-75536723D01*
X112285714Y-75536723D02*
X112238095Y-75346247D01*
X112238095Y-75346247D02*
X112238095Y-75203390D01*
X112238095Y-75203390D02*
X112285714Y-75012914D01*
X112285714Y-75012914D02*
X112333333Y-74917676D01*
X112333333Y-74917676D02*
X112428571Y-74822438D01*
X112428571Y-74822438D02*
X112571428Y-74774819D01*
X112571428Y-74774819D02*
X112666666Y-74774819D01*
X112666666Y-74774819D02*
X112809523Y-74822438D01*
X112809523Y-74822438D02*
X112857142Y-74870057D01*
X113809523Y-75774819D02*
X113238095Y-75774819D01*
X113523809Y-75774819D02*
X113523809Y-74774819D01*
X113523809Y-74774819D02*
X113428571Y-74917676D01*
X113428571Y-74917676D02*
X113333333Y-75012914D01*
X113333333Y-75012914D02*
X113238095Y-75060533D01*
X114428571Y-74774819D02*
X114523809Y-74774819D01*
X114523809Y-74774819D02*
X114619047Y-74822438D01*
X114619047Y-74822438D02*
X114666666Y-74870057D01*
X114666666Y-74870057D02*
X114714285Y-74965295D01*
X114714285Y-74965295D02*
X114761904Y-75155771D01*
X114761904Y-75155771D02*
X114761904Y-75393866D01*
X114761904Y-75393866D02*
X114714285Y-75584342D01*
X114714285Y-75584342D02*
X114666666Y-75679580D01*
X114666666Y-75679580D02*
X114619047Y-75727200D01*
X114619047Y-75727200D02*
X114523809Y-75774819D01*
X114523809Y-75774819D02*
X114428571Y-75774819D01*
X114428571Y-75774819D02*
X114333333Y-75727200D01*
X114333333Y-75727200D02*
X114285714Y-75679580D01*
X114285714Y-75679580D02*
X114238095Y-75584342D01*
X114238095Y-75584342D02*
X114190476Y-75393866D01*
X114190476Y-75393866D02*
X114190476Y-75155771D01*
X114190476Y-75155771D02*
X114238095Y-74965295D01*
X114238095Y-74965295D02*
X114285714Y-74870057D01*
X114285714Y-74870057D02*
X114333333Y-74822438D01*
X114333333Y-74822438D02*
X114428571Y-74774819D01*
X133857142Y-74204819D02*
X133523809Y-73728628D01*
X133285714Y-74204819D02*
X133285714Y-73204819D01*
X133285714Y-73204819D02*
X133666666Y-73204819D01*
X133666666Y-73204819D02*
X133761904Y-73252438D01*
X133761904Y-73252438D02*
X133809523Y-73300057D01*
X133809523Y-73300057D02*
X133857142Y-73395295D01*
X133857142Y-73395295D02*
X133857142Y-73538152D01*
X133857142Y-73538152D02*
X133809523Y-73633390D01*
X133809523Y-73633390D02*
X133761904Y-73681009D01*
X133761904Y-73681009D02*
X133666666Y-73728628D01*
X133666666Y-73728628D02*
X133285714Y-73728628D01*
X134809523Y-74204819D02*
X134238095Y-74204819D01*
X134523809Y-74204819D02*
X134523809Y-73204819D01*
X134523809Y-73204819D02*
X134428571Y-73347676D01*
X134428571Y-73347676D02*
X134333333Y-73442914D01*
X134333333Y-73442914D02*
X134238095Y-73490533D01*
X135142857Y-73204819D02*
X135761904Y-73204819D01*
X135761904Y-73204819D02*
X135428571Y-73585771D01*
X135428571Y-73585771D02*
X135571428Y-73585771D01*
X135571428Y-73585771D02*
X135666666Y-73633390D01*
X135666666Y-73633390D02*
X135714285Y-73681009D01*
X135714285Y-73681009D02*
X135761904Y-73776247D01*
X135761904Y-73776247D02*
X135761904Y-74014342D01*
X135761904Y-74014342D02*
X135714285Y-74109580D01*
X135714285Y-74109580D02*
X135666666Y-74157200D01*
X135666666Y-74157200D02*
X135571428Y-74204819D01*
X135571428Y-74204819D02*
X135285714Y-74204819D01*
X135285714Y-74204819D02*
X135190476Y-74157200D01*
X135190476Y-74157200D02*
X135142857Y-74109580D01*
X136857142Y-75679580D02*
X136809523Y-75727200D01*
X136809523Y-75727200D02*
X136666666Y-75774819D01*
X136666666Y-75774819D02*
X136571428Y-75774819D01*
X136571428Y-75774819D02*
X136428571Y-75727200D01*
X136428571Y-75727200D02*
X136333333Y-75631961D01*
X136333333Y-75631961D02*
X136285714Y-75536723D01*
X136285714Y-75536723D02*
X136238095Y-75346247D01*
X136238095Y-75346247D02*
X136238095Y-75203390D01*
X136238095Y-75203390D02*
X136285714Y-75012914D01*
X136285714Y-75012914D02*
X136333333Y-74917676D01*
X136333333Y-74917676D02*
X136428571Y-74822438D01*
X136428571Y-74822438D02*
X136571428Y-74774819D01*
X136571428Y-74774819D02*
X136666666Y-74774819D01*
X136666666Y-74774819D02*
X136809523Y-74822438D01*
X136809523Y-74822438D02*
X136857142Y-74870057D01*
X137809523Y-75774819D02*
X137238095Y-75774819D01*
X137523809Y-75774819D02*
X137523809Y-74774819D01*
X137523809Y-74774819D02*
X137428571Y-74917676D01*
X137428571Y-74917676D02*
X137333333Y-75012914D01*
X137333333Y-75012914D02*
X137238095Y-75060533D01*
X138714285Y-74774819D02*
X138238095Y-74774819D01*
X138238095Y-74774819D02*
X138190476Y-75251009D01*
X138190476Y-75251009D02*
X138238095Y-75203390D01*
X138238095Y-75203390D02*
X138333333Y-75155771D01*
X138333333Y-75155771D02*
X138571428Y-75155771D01*
X138571428Y-75155771D02*
X138666666Y-75203390D01*
X138666666Y-75203390D02*
X138714285Y-75251009D01*
X138714285Y-75251009D02*
X138761904Y-75346247D01*
X138761904Y-75346247D02*
X138761904Y-75584342D01*
X138761904Y-75584342D02*
X138714285Y-75679580D01*
X138714285Y-75679580D02*
X138666666Y-75727200D01*
X138666666Y-75727200D02*
X138571428Y-75774819D01*
X138571428Y-75774819D02*
X138333333Y-75774819D01*
X138333333Y-75774819D02*
X138238095Y-75727200D01*
X138238095Y-75727200D02*
X138190476Y-75679580D01*
X153859580Y-54642857D02*
X153907200Y-54690476D01*
X153907200Y-54690476D02*
X153954819Y-54833333D01*
X153954819Y-54833333D02*
X153954819Y-54928571D01*
X153954819Y-54928571D02*
X153907200Y-55071428D01*
X153907200Y-55071428D02*
X153811961Y-55166666D01*
X153811961Y-55166666D02*
X153716723Y-55214285D01*
X153716723Y-55214285D02*
X153526247Y-55261904D01*
X153526247Y-55261904D02*
X153383390Y-55261904D01*
X153383390Y-55261904D02*
X153192914Y-55214285D01*
X153192914Y-55214285D02*
X153097676Y-55166666D01*
X153097676Y-55166666D02*
X153002438Y-55071428D01*
X153002438Y-55071428D02*
X152954819Y-54928571D01*
X152954819Y-54928571D02*
X152954819Y-54833333D01*
X152954819Y-54833333D02*
X153002438Y-54690476D01*
X153002438Y-54690476D02*
X153050057Y-54642857D01*
X153954819Y-53690476D02*
X153954819Y-54261904D01*
X153954819Y-53976190D02*
X152954819Y-53976190D01*
X152954819Y-53976190D02*
X153097676Y-54071428D01*
X153097676Y-54071428D02*
X153192914Y-54166666D01*
X153192914Y-54166666D02*
X153240533Y-54261904D01*
X152954819Y-53357142D02*
X152954819Y-52690476D01*
X152954819Y-52690476D02*
X153954819Y-53119047D01*
X145357142Y-51359580D02*
X145309523Y-51407200D01*
X145309523Y-51407200D02*
X145166666Y-51454819D01*
X145166666Y-51454819D02*
X145071428Y-51454819D01*
X145071428Y-51454819D02*
X144928571Y-51407200D01*
X144928571Y-51407200D02*
X144833333Y-51311961D01*
X144833333Y-51311961D02*
X144785714Y-51216723D01*
X144785714Y-51216723D02*
X144738095Y-51026247D01*
X144738095Y-51026247D02*
X144738095Y-50883390D01*
X144738095Y-50883390D02*
X144785714Y-50692914D01*
X144785714Y-50692914D02*
X144833333Y-50597676D01*
X144833333Y-50597676D02*
X144928571Y-50502438D01*
X144928571Y-50502438D02*
X145071428Y-50454819D01*
X145071428Y-50454819D02*
X145166666Y-50454819D01*
X145166666Y-50454819D02*
X145309523Y-50502438D01*
X145309523Y-50502438D02*
X145357142Y-50550057D01*
X146309523Y-51454819D02*
X145738095Y-51454819D01*
X146023809Y-51454819D02*
X146023809Y-50454819D01*
X146023809Y-50454819D02*
X145928571Y-50597676D01*
X145928571Y-50597676D02*
X145833333Y-50692914D01*
X145833333Y-50692914D02*
X145738095Y-50740533D01*
X146880952Y-50883390D02*
X146785714Y-50835771D01*
X146785714Y-50835771D02*
X146738095Y-50788152D01*
X146738095Y-50788152D02*
X146690476Y-50692914D01*
X146690476Y-50692914D02*
X146690476Y-50645295D01*
X146690476Y-50645295D02*
X146738095Y-50550057D01*
X146738095Y-50550057D02*
X146785714Y-50502438D01*
X146785714Y-50502438D02*
X146880952Y-50454819D01*
X146880952Y-50454819D02*
X147071428Y-50454819D01*
X147071428Y-50454819D02*
X147166666Y-50502438D01*
X147166666Y-50502438D02*
X147214285Y-50550057D01*
X147214285Y-50550057D02*
X147261904Y-50645295D01*
X147261904Y-50645295D02*
X147261904Y-50692914D01*
X147261904Y-50692914D02*
X147214285Y-50788152D01*
X147214285Y-50788152D02*
X147166666Y-50835771D01*
X147166666Y-50835771D02*
X147071428Y-50883390D01*
X147071428Y-50883390D02*
X146880952Y-50883390D01*
X146880952Y-50883390D02*
X146785714Y-50931009D01*
X146785714Y-50931009D02*
X146738095Y-50978628D01*
X146738095Y-50978628D02*
X146690476Y-51073866D01*
X146690476Y-51073866D02*
X146690476Y-51264342D01*
X146690476Y-51264342D02*
X146738095Y-51359580D01*
X146738095Y-51359580D02*
X146785714Y-51407200D01*
X146785714Y-51407200D02*
X146880952Y-51454819D01*
X146880952Y-51454819D02*
X147071428Y-51454819D01*
X147071428Y-51454819D02*
X147166666Y-51407200D01*
X147166666Y-51407200D02*
X147214285Y-51359580D01*
X147214285Y-51359580D02*
X147261904Y-51264342D01*
X147261904Y-51264342D02*
X147261904Y-51073866D01*
X147261904Y-51073866D02*
X147214285Y-50978628D01*
X147214285Y-50978628D02*
X147166666Y-50931009D01*
X147166666Y-50931009D02*
X147071428Y-50883390D01*
X113333333Y-80109580D02*
X113285714Y-80157200D01*
X113285714Y-80157200D02*
X113142857Y-80204819D01*
X113142857Y-80204819D02*
X113047619Y-80204819D01*
X113047619Y-80204819D02*
X112904762Y-80157200D01*
X112904762Y-80157200D02*
X112809524Y-80061961D01*
X112809524Y-80061961D02*
X112761905Y-79966723D01*
X112761905Y-79966723D02*
X112714286Y-79776247D01*
X112714286Y-79776247D02*
X112714286Y-79633390D01*
X112714286Y-79633390D02*
X112761905Y-79442914D01*
X112761905Y-79442914D02*
X112809524Y-79347676D01*
X112809524Y-79347676D02*
X112904762Y-79252438D01*
X112904762Y-79252438D02*
X113047619Y-79204819D01*
X113047619Y-79204819D02*
X113142857Y-79204819D01*
X113142857Y-79204819D02*
X113285714Y-79252438D01*
X113285714Y-79252438D02*
X113333333Y-79300057D01*
X113666667Y-79204819D02*
X114333333Y-79204819D01*
X114333333Y-79204819D02*
X113904762Y-80204819D01*
X106083333Y-81454819D02*
X105750000Y-80978628D01*
X105511905Y-81454819D02*
X105511905Y-80454819D01*
X105511905Y-80454819D02*
X105892857Y-80454819D01*
X105892857Y-80454819D02*
X105988095Y-80502438D01*
X105988095Y-80502438D02*
X106035714Y-80550057D01*
X106035714Y-80550057D02*
X106083333Y-80645295D01*
X106083333Y-80645295D02*
X106083333Y-80788152D01*
X106083333Y-80788152D02*
X106035714Y-80883390D01*
X106035714Y-80883390D02*
X105988095Y-80931009D01*
X105988095Y-80931009D02*
X105892857Y-80978628D01*
X105892857Y-80978628D02*
X105511905Y-80978628D01*
X106464286Y-80550057D02*
X106511905Y-80502438D01*
X106511905Y-80502438D02*
X106607143Y-80454819D01*
X106607143Y-80454819D02*
X106845238Y-80454819D01*
X106845238Y-80454819D02*
X106940476Y-80502438D01*
X106940476Y-80502438D02*
X106988095Y-80550057D01*
X106988095Y-80550057D02*
X107035714Y-80645295D01*
X107035714Y-80645295D02*
X107035714Y-80740533D01*
X107035714Y-80740533D02*
X106988095Y-80883390D01*
X106988095Y-80883390D02*
X106416667Y-81454819D01*
X106416667Y-81454819D02*
X107035714Y-81454819D01*
X122083333Y-81454819D02*
X121750000Y-80978628D01*
X121511905Y-81454819D02*
X121511905Y-80454819D01*
X121511905Y-80454819D02*
X121892857Y-80454819D01*
X121892857Y-80454819D02*
X121988095Y-80502438D01*
X121988095Y-80502438D02*
X122035714Y-80550057D01*
X122035714Y-80550057D02*
X122083333Y-80645295D01*
X122083333Y-80645295D02*
X122083333Y-80788152D01*
X122083333Y-80788152D02*
X122035714Y-80883390D01*
X122035714Y-80883390D02*
X121988095Y-80931009D01*
X121988095Y-80931009D02*
X121892857Y-80978628D01*
X121892857Y-80978628D02*
X121511905Y-80978628D01*
X123035714Y-81454819D02*
X122464286Y-81454819D01*
X122750000Y-81454819D02*
X122750000Y-80454819D01*
X122750000Y-80454819D02*
X122654762Y-80597676D01*
X122654762Y-80597676D02*
X122559524Y-80692914D01*
X122559524Y-80692914D02*
X122464286Y-80740533D01*
X142583333Y-51454819D02*
X142107143Y-51454819D01*
X142107143Y-51454819D02*
X142107143Y-50454819D01*
X142821429Y-50454819D02*
X143440476Y-50454819D01*
X143440476Y-50454819D02*
X143107143Y-50835771D01*
X143107143Y-50835771D02*
X143250000Y-50835771D01*
X143250000Y-50835771D02*
X143345238Y-50883390D01*
X143345238Y-50883390D02*
X143392857Y-50931009D01*
X143392857Y-50931009D02*
X143440476Y-51026247D01*
X143440476Y-51026247D02*
X143440476Y-51264342D01*
X143440476Y-51264342D02*
X143392857Y-51359580D01*
X143392857Y-51359580D02*
X143345238Y-51407200D01*
X143345238Y-51407200D02*
X143250000Y-51454819D01*
X143250000Y-51454819D02*
X142964286Y-51454819D01*
X142964286Y-51454819D02*
X142869048Y-51407200D01*
X142869048Y-51407200D02*
X142821429Y-51359580D01*
X146454819Y-60642857D02*
X145978628Y-60976190D01*
X146454819Y-61214285D02*
X145454819Y-61214285D01*
X145454819Y-61214285D02*
X145454819Y-60833333D01*
X145454819Y-60833333D02*
X145502438Y-60738095D01*
X145502438Y-60738095D02*
X145550057Y-60690476D01*
X145550057Y-60690476D02*
X145645295Y-60642857D01*
X145645295Y-60642857D02*
X145788152Y-60642857D01*
X145788152Y-60642857D02*
X145883390Y-60690476D01*
X145883390Y-60690476D02*
X145931009Y-60738095D01*
X145931009Y-60738095D02*
X145978628Y-60833333D01*
X145978628Y-60833333D02*
X145978628Y-61214285D01*
X146454819Y-59690476D02*
X146454819Y-60261904D01*
X146454819Y-59976190D02*
X145454819Y-59976190D01*
X145454819Y-59976190D02*
X145597676Y-60071428D01*
X145597676Y-60071428D02*
X145692914Y-60166666D01*
X145692914Y-60166666D02*
X145740533Y-60261904D01*
X145454819Y-59357142D02*
X145454819Y-58690476D01*
X145454819Y-58690476D02*
X146454819Y-59119047D01*
X113458333Y-57039580D02*
X113410714Y-57087200D01*
X113410714Y-57087200D02*
X113267857Y-57134819D01*
X113267857Y-57134819D02*
X113172619Y-57134819D01*
X113172619Y-57134819D02*
X113029762Y-57087200D01*
X113029762Y-57087200D02*
X112934524Y-56991961D01*
X112934524Y-56991961D02*
X112886905Y-56896723D01*
X112886905Y-56896723D02*
X112839286Y-56706247D01*
X112839286Y-56706247D02*
X112839286Y-56563390D01*
X112839286Y-56563390D02*
X112886905Y-56372914D01*
X112886905Y-56372914D02*
X112934524Y-56277676D01*
X112934524Y-56277676D02*
X113029762Y-56182438D01*
X113029762Y-56182438D02*
X113172619Y-56134819D01*
X113172619Y-56134819D02*
X113267857Y-56134819D01*
X113267857Y-56134819D02*
X113410714Y-56182438D01*
X113410714Y-56182438D02*
X113458333Y-56230057D01*
X113839286Y-56230057D02*
X113886905Y-56182438D01*
X113886905Y-56182438D02*
X113982143Y-56134819D01*
X113982143Y-56134819D02*
X114220238Y-56134819D01*
X114220238Y-56134819D02*
X114315476Y-56182438D01*
X114315476Y-56182438D02*
X114363095Y-56230057D01*
X114363095Y-56230057D02*
X114410714Y-56325295D01*
X114410714Y-56325295D02*
X114410714Y-56420533D01*
X114410714Y-56420533D02*
X114363095Y-56563390D01*
X114363095Y-56563390D02*
X113791667Y-57134819D01*
X113791667Y-57134819D02*
X114410714Y-57134819D01*
X148738095Y-50454819D02*
X148738095Y-51264342D01*
X148738095Y-51264342D02*
X148785714Y-51359580D01*
X148785714Y-51359580D02*
X148833333Y-51407200D01*
X148833333Y-51407200D02*
X148928571Y-51454819D01*
X148928571Y-51454819D02*
X149119047Y-51454819D01*
X149119047Y-51454819D02*
X149214285Y-51407200D01*
X149214285Y-51407200D02*
X149261904Y-51359580D01*
X149261904Y-51359580D02*
X149309523Y-51264342D01*
X149309523Y-51264342D02*
X149309523Y-50454819D01*
X150261904Y-50454819D02*
X149785714Y-50454819D01*
X149785714Y-50454819D02*
X149738095Y-50931009D01*
X149738095Y-50931009D02*
X149785714Y-50883390D01*
X149785714Y-50883390D02*
X149880952Y-50835771D01*
X149880952Y-50835771D02*
X150119047Y-50835771D01*
X150119047Y-50835771D02*
X150214285Y-50883390D01*
X150214285Y-50883390D02*
X150261904Y-50931009D01*
X150261904Y-50931009D02*
X150309523Y-51026247D01*
X150309523Y-51026247D02*
X150309523Y-51264342D01*
X150309523Y-51264342D02*
X150261904Y-51359580D01*
X150261904Y-51359580D02*
X150214285Y-51407200D01*
X150214285Y-51407200D02*
X150119047Y-51454819D01*
X150119047Y-51454819D02*
X149880952Y-51454819D01*
X149880952Y-51454819D02*
X149785714Y-51407200D01*
X149785714Y-51407200D02*
X149738095Y-51359580D01*
X142857142Y-59539579D02*
X142809523Y-59587199D01*
X142809523Y-59587199D02*
X142666666Y-59634818D01*
X142666666Y-59634818D02*
X142571428Y-59634818D01*
X142571428Y-59634818D02*
X142428571Y-59587199D01*
X142428571Y-59587199D02*
X142333333Y-59491960D01*
X142333333Y-59491960D02*
X142285714Y-59396722D01*
X142285714Y-59396722D02*
X142238095Y-59206246D01*
X142238095Y-59206246D02*
X142238095Y-59063389D01*
X142238095Y-59063389D02*
X142285714Y-58872913D01*
X142285714Y-58872913D02*
X142333333Y-58777675D01*
X142333333Y-58777675D02*
X142428571Y-58682437D01*
X142428571Y-58682437D02*
X142571428Y-58634818D01*
X142571428Y-58634818D02*
X142666666Y-58634818D01*
X142666666Y-58634818D02*
X142809523Y-58682437D01*
X142809523Y-58682437D02*
X142857142Y-58730056D01*
X143809523Y-59634818D02*
X143238095Y-59634818D01*
X143523809Y-59634818D02*
X143523809Y-58634818D01*
X143523809Y-58634818D02*
X143428571Y-58777675D01*
X143428571Y-58777675D02*
X143333333Y-58872913D01*
X143333333Y-58872913D02*
X143238095Y-58920532D01*
X144285714Y-59634818D02*
X144476190Y-59634818D01*
X144476190Y-59634818D02*
X144571428Y-59587199D01*
X144571428Y-59587199D02*
X144619047Y-59539579D01*
X144619047Y-59539579D02*
X144714285Y-59396722D01*
X144714285Y-59396722D02*
X144761904Y-59206246D01*
X144761904Y-59206246D02*
X144761904Y-58825294D01*
X144761904Y-58825294D02*
X144714285Y-58730056D01*
X144714285Y-58730056D02*
X144666666Y-58682437D01*
X144666666Y-58682437D02*
X144571428Y-58634818D01*
X144571428Y-58634818D02*
X144380952Y-58634818D01*
X144380952Y-58634818D02*
X144285714Y-58682437D01*
X144285714Y-58682437D02*
X144238095Y-58730056D01*
X144238095Y-58730056D02*
X144190476Y-58825294D01*
X144190476Y-58825294D02*
X144190476Y-59063389D01*
X144190476Y-59063389D02*
X144238095Y-59158627D01*
X144238095Y-59158627D02*
X144285714Y-59206246D01*
X144285714Y-59206246D02*
X144380952Y-59253865D01*
X144380952Y-59253865D02*
X144571428Y-59253865D01*
X144571428Y-59253865D02*
X144666666Y-59206246D01*
X144666666Y-59206246D02*
X144714285Y-59158627D01*
X144714285Y-59158627D02*
X144761904Y-59063389D01*
X136204819Y-57166666D02*
X135728628Y-57499999D01*
X136204819Y-57738094D02*
X135204819Y-57738094D01*
X135204819Y-57738094D02*
X135204819Y-57357142D01*
X135204819Y-57357142D02*
X135252438Y-57261904D01*
X135252438Y-57261904D02*
X135300057Y-57214285D01*
X135300057Y-57214285D02*
X135395295Y-57166666D01*
X135395295Y-57166666D02*
X135538152Y-57166666D01*
X135538152Y-57166666D02*
X135633390Y-57214285D01*
X135633390Y-57214285D02*
X135681009Y-57261904D01*
X135681009Y-57261904D02*
X135728628Y-57357142D01*
X135728628Y-57357142D02*
X135728628Y-57738094D01*
X135204819Y-56261904D02*
X135204819Y-56738094D01*
X135204819Y-56738094D02*
X135681009Y-56785713D01*
X135681009Y-56785713D02*
X135633390Y-56738094D01*
X135633390Y-56738094D02*
X135585771Y-56642856D01*
X135585771Y-56642856D02*
X135585771Y-56404761D01*
X135585771Y-56404761D02*
X135633390Y-56309523D01*
X135633390Y-56309523D02*
X135681009Y-56261904D01*
X135681009Y-56261904D02*
X135776247Y-56214285D01*
X135776247Y-56214285D02*
X136014342Y-56214285D01*
X136014342Y-56214285D02*
X136109580Y-56261904D01*
X136109580Y-56261904D02*
X136157200Y-56309523D01*
X136157200Y-56309523D02*
X136204819Y-56404761D01*
X136204819Y-56404761D02*
X136204819Y-56642856D01*
X136204819Y-56642856D02*
X136157200Y-56738094D01*
X136157200Y-56738094D02*
X136109580Y-56785713D01*
X133857142Y-75704819D02*
X133523809Y-75228628D01*
X133285714Y-75704819D02*
X133285714Y-74704819D01*
X133285714Y-74704819D02*
X133666666Y-74704819D01*
X133666666Y-74704819D02*
X133761904Y-74752438D01*
X133761904Y-74752438D02*
X133809523Y-74800057D01*
X133809523Y-74800057D02*
X133857142Y-74895295D01*
X133857142Y-74895295D02*
X133857142Y-75038152D01*
X133857142Y-75038152D02*
X133809523Y-75133390D01*
X133809523Y-75133390D02*
X133761904Y-75181009D01*
X133761904Y-75181009D02*
X133666666Y-75228628D01*
X133666666Y-75228628D02*
X133285714Y-75228628D01*
X134809523Y-75704819D02*
X134238095Y-75704819D01*
X134523809Y-75704819D02*
X134523809Y-74704819D01*
X134523809Y-74704819D02*
X134428571Y-74847676D01*
X134428571Y-74847676D02*
X134333333Y-74942914D01*
X134333333Y-74942914D02*
X134238095Y-74990533D01*
X135190476Y-74800057D02*
X135238095Y-74752438D01*
X135238095Y-74752438D02*
X135333333Y-74704819D01*
X135333333Y-74704819D02*
X135571428Y-74704819D01*
X135571428Y-74704819D02*
X135666666Y-74752438D01*
X135666666Y-74752438D02*
X135714285Y-74800057D01*
X135714285Y-74800057D02*
X135761904Y-74895295D01*
X135761904Y-74895295D02*
X135761904Y-74990533D01*
X135761904Y-74990533D02*
X135714285Y-75133390D01*
X135714285Y-75133390D02*
X135142857Y-75704819D01*
X135142857Y-75704819D02*
X135761904Y-75704819D01*
X110333333Y-75704819D02*
X110000000Y-75228628D01*
X109761905Y-75704819D02*
X109761905Y-74704819D01*
X109761905Y-74704819D02*
X110142857Y-74704819D01*
X110142857Y-74704819D02*
X110238095Y-74752438D01*
X110238095Y-74752438D02*
X110285714Y-74800057D01*
X110285714Y-74800057D02*
X110333333Y-74895295D01*
X110333333Y-74895295D02*
X110333333Y-75038152D01*
X110333333Y-75038152D02*
X110285714Y-75133390D01*
X110285714Y-75133390D02*
X110238095Y-75181009D01*
X110238095Y-75181009D02*
X110142857Y-75228628D01*
X110142857Y-75228628D02*
X109761905Y-75228628D01*
X110904762Y-75133390D02*
X110809524Y-75085771D01*
X110809524Y-75085771D02*
X110761905Y-75038152D01*
X110761905Y-75038152D02*
X110714286Y-74942914D01*
X110714286Y-74942914D02*
X110714286Y-74895295D01*
X110714286Y-74895295D02*
X110761905Y-74800057D01*
X110761905Y-74800057D02*
X110809524Y-74752438D01*
X110809524Y-74752438D02*
X110904762Y-74704819D01*
X110904762Y-74704819D02*
X111095238Y-74704819D01*
X111095238Y-74704819D02*
X111190476Y-74752438D01*
X111190476Y-74752438D02*
X111238095Y-74800057D01*
X111238095Y-74800057D02*
X111285714Y-74895295D01*
X111285714Y-74895295D02*
X111285714Y-74942914D01*
X111285714Y-74942914D02*
X111238095Y-75038152D01*
X111238095Y-75038152D02*
X111190476Y-75085771D01*
X111190476Y-75085771D02*
X111095238Y-75133390D01*
X111095238Y-75133390D02*
X110904762Y-75133390D01*
X110904762Y-75133390D02*
X110809524Y-75181009D01*
X110809524Y-75181009D02*
X110761905Y-75228628D01*
X110761905Y-75228628D02*
X110714286Y-75323866D01*
X110714286Y-75323866D02*
X110714286Y-75514342D01*
X110714286Y-75514342D02*
X110761905Y-75609580D01*
X110761905Y-75609580D02*
X110809524Y-75657200D01*
X110809524Y-75657200D02*
X110904762Y-75704819D01*
X110904762Y-75704819D02*
X111095238Y-75704819D01*
X111095238Y-75704819D02*
X111190476Y-75657200D01*
X111190476Y-75657200D02*
X111238095Y-75609580D01*
X111238095Y-75609580D02*
X111285714Y-75514342D01*
X111285714Y-75514342D02*
X111285714Y-75323866D01*
X111285714Y-75323866D02*
X111238095Y-75228628D01*
X111238095Y-75228628D02*
X111190476Y-75181009D01*
X111190476Y-75181009D02*
X111095238Y-75133390D01*
X101109580Y-80166666D02*
X101157200Y-80214285D01*
X101157200Y-80214285D02*
X101204819Y-80357142D01*
X101204819Y-80357142D02*
X101204819Y-80452380D01*
X101204819Y-80452380D02*
X101157200Y-80595237D01*
X101157200Y-80595237D02*
X101061961Y-80690475D01*
X101061961Y-80690475D02*
X100966723Y-80738094D01*
X100966723Y-80738094D02*
X100776247Y-80785713D01*
X100776247Y-80785713D02*
X100633390Y-80785713D01*
X100633390Y-80785713D02*
X100442914Y-80738094D01*
X100442914Y-80738094D02*
X100347676Y-80690475D01*
X100347676Y-80690475D02*
X100252438Y-80595237D01*
X100252438Y-80595237D02*
X100204819Y-80452380D01*
X100204819Y-80452380D02*
X100204819Y-80357142D01*
X100204819Y-80357142D02*
X100252438Y-80214285D01*
X100252438Y-80214285D02*
X100300057Y-80166666D01*
X101204819Y-79690475D02*
X101204819Y-79499999D01*
X101204819Y-79499999D02*
X101157200Y-79404761D01*
X101157200Y-79404761D02*
X101109580Y-79357142D01*
X101109580Y-79357142D02*
X100966723Y-79261904D01*
X100966723Y-79261904D02*
X100776247Y-79214285D01*
X100776247Y-79214285D02*
X100395295Y-79214285D01*
X100395295Y-79214285D02*
X100300057Y-79261904D01*
X100300057Y-79261904D02*
X100252438Y-79309523D01*
X100252438Y-79309523D02*
X100204819Y-79404761D01*
X100204819Y-79404761D02*
X100204819Y-79595237D01*
X100204819Y-79595237D02*
X100252438Y-79690475D01*
X100252438Y-79690475D02*
X100300057Y-79738094D01*
X100300057Y-79738094D02*
X100395295Y-79785713D01*
X100395295Y-79785713D02*
X100633390Y-79785713D01*
X100633390Y-79785713D02*
X100728628Y-79738094D01*
X100728628Y-79738094D02*
X100776247Y-79690475D01*
X100776247Y-79690475D02*
X100823866Y-79595237D01*
X100823866Y-79595237D02*
X100823866Y-79404761D01*
X100823866Y-79404761D02*
X100776247Y-79309523D01*
X100776247Y-79309523D02*
X100728628Y-79261904D01*
X100728628Y-79261904D02*
X100633390Y-79214285D01*
X154704819Y-80666666D02*
X154228628Y-80999999D01*
X154704819Y-81238094D02*
X153704819Y-81238094D01*
X153704819Y-81238094D02*
X153704819Y-80857142D01*
X153704819Y-80857142D02*
X153752438Y-80761904D01*
X153752438Y-80761904D02*
X153800057Y-80714285D01*
X153800057Y-80714285D02*
X153895295Y-80666666D01*
X153895295Y-80666666D02*
X154038152Y-80666666D01*
X154038152Y-80666666D02*
X154133390Y-80714285D01*
X154133390Y-80714285D02*
X154181009Y-80761904D01*
X154181009Y-80761904D02*
X154228628Y-80857142D01*
X154228628Y-80857142D02*
X154228628Y-81238094D01*
X153704819Y-80333332D02*
X153704819Y-79714285D01*
X153704819Y-79714285D02*
X154085771Y-80047618D01*
X154085771Y-80047618D02*
X154085771Y-79904761D01*
X154085771Y-79904761D02*
X154133390Y-79809523D01*
X154133390Y-79809523D02*
X154181009Y-79761904D01*
X154181009Y-79761904D02*
X154276247Y-79714285D01*
X154276247Y-79714285D02*
X154514342Y-79714285D01*
X154514342Y-79714285D02*
X154609580Y-79761904D01*
X154609580Y-79761904D02*
X154657200Y-79809523D01*
X154657200Y-79809523D02*
X154704819Y-79904761D01*
X154704819Y-79904761D02*
X154704819Y-80190475D01*
X154704819Y-80190475D02*
X154657200Y-80285713D01*
X154657200Y-80285713D02*
X154609580Y-80333332D01*
X112416666Y-70954819D02*
X112416666Y-71669104D01*
X112416666Y-71669104D02*
X112369047Y-71811961D01*
X112369047Y-71811961D02*
X112273809Y-71907200D01*
X112273809Y-71907200D02*
X112130952Y-71954819D01*
X112130952Y-71954819D02*
X112035714Y-71954819D01*
X112892857Y-71954819D02*
X112892857Y-70954819D01*
X112892857Y-70954819D02*
X113273809Y-70954819D01*
X113273809Y-70954819D02*
X113369047Y-71002438D01*
X113369047Y-71002438D02*
X113416666Y-71050057D01*
X113416666Y-71050057D02*
X113464285Y-71145295D01*
X113464285Y-71145295D02*
X113464285Y-71288152D01*
X113464285Y-71288152D02*
X113416666Y-71383390D01*
X113416666Y-71383390D02*
X113369047Y-71431009D01*
X113369047Y-71431009D02*
X113273809Y-71478628D01*
X113273809Y-71478628D02*
X112892857Y-71478628D01*
X113797619Y-70954819D02*
X114464285Y-70954819D01*
X114464285Y-70954819D02*
X114035714Y-71954819D01*
X108819642Y-71454819D02*
X108486309Y-70978628D01*
X108248214Y-71454819D02*
X108248214Y-70454819D01*
X108248214Y-70454819D02*
X108629166Y-70454819D01*
X108629166Y-70454819D02*
X108724404Y-70502438D01*
X108724404Y-70502438D02*
X108772023Y-70550057D01*
X108772023Y-70550057D02*
X108819642Y-70645295D01*
X108819642Y-70645295D02*
X108819642Y-70788152D01*
X108819642Y-70788152D02*
X108772023Y-70883390D01*
X108772023Y-70883390D02*
X108724404Y-70931009D01*
X108724404Y-70931009D02*
X108629166Y-70978628D01*
X108629166Y-70978628D02*
X108248214Y-70978628D01*
X109772023Y-71454819D02*
X109200595Y-71454819D01*
X109486309Y-71454819D02*
X109486309Y-70454819D01*
X109486309Y-70454819D02*
X109391071Y-70597676D01*
X109391071Y-70597676D02*
X109295833Y-70692914D01*
X109295833Y-70692914D02*
X109200595Y-70740533D01*
X110724404Y-71454819D02*
X110152976Y-71454819D01*
X110438690Y-71454819D02*
X110438690Y-70454819D01*
X110438690Y-70454819D02*
X110343452Y-70597676D01*
X110343452Y-70597676D02*
X110248214Y-70692914D01*
X110248214Y-70692914D02*
X110152976Y-70740533D01*
X105607142Y-67859580D02*
X105559523Y-67907200D01*
X105559523Y-67907200D02*
X105416666Y-67954819D01*
X105416666Y-67954819D02*
X105321428Y-67954819D01*
X105321428Y-67954819D02*
X105178571Y-67907200D01*
X105178571Y-67907200D02*
X105083333Y-67811961D01*
X105083333Y-67811961D02*
X105035714Y-67716723D01*
X105035714Y-67716723D02*
X104988095Y-67526247D01*
X104988095Y-67526247D02*
X104988095Y-67383390D01*
X104988095Y-67383390D02*
X105035714Y-67192914D01*
X105035714Y-67192914D02*
X105083333Y-67097676D01*
X105083333Y-67097676D02*
X105178571Y-67002438D01*
X105178571Y-67002438D02*
X105321428Y-66954819D01*
X105321428Y-66954819D02*
X105416666Y-66954819D01*
X105416666Y-66954819D02*
X105559523Y-67002438D01*
X105559523Y-67002438D02*
X105607142Y-67050057D01*
X106559523Y-67954819D02*
X105988095Y-67954819D01*
X106273809Y-67954819D02*
X106273809Y-66954819D01*
X106273809Y-66954819D02*
X106178571Y-67097676D01*
X106178571Y-67097676D02*
X106083333Y-67192914D01*
X106083333Y-67192914D02*
X105988095Y-67240533D01*
X107511904Y-67954819D02*
X106940476Y-67954819D01*
X107226190Y-67954819D02*
X107226190Y-66954819D01*
X107226190Y-66954819D02*
X107130952Y-67097676D01*
X107130952Y-67097676D02*
X107035714Y-67192914D01*
X107035714Y-67192914D02*
X106940476Y-67240533D01*
X108857142Y-64454819D02*
X108523809Y-63978628D01*
X108285714Y-64454819D02*
X108285714Y-63454819D01*
X108285714Y-63454819D02*
X108666666Y-63454819D01*
X108666666Y-63454819D02*
X108761904Y-63502438D01*
X108761904Y-63502438D02*
X108809523Y-63550057D01*
X108809523Y-63550057D02*
X108857142Y-63645295D01*
X108857142Y-63645295D02*
X108857142Y-63788152D01*
X108857142Y-63788152D02*
X108809523Y-63883390D01*
X108809523Y-63883390D02*
X108761904Y-63931009D01*
X108761904Y-63931009D02*
X108666666Y-63978628D01*
X108666666Y-63978628D02*
X108285714Y-63978628D01*
X109809523Y-64454819D02*
X109238095Y-64454819D01*
X109523809Y-64454819D02*
X109523809Y-63454819D01*
X109523809Y-63454819D02*
X109428571Y-63597676D01*
X109428571Y-63597676D02*
X109333333Y-63692914D01*
X109333333Y-63692914D02*
X109238095Y-63740533D01*
X110428571Y-63454819D02*
X110523809Y-63454819D01*
X110523809Y-63454819D02*
X110619047Y-63502438D01*
X110619047Y-63502438D02*
X110666666Y-63550057D01*
X110666666Y-63550057D02*
X110714285Y-63645295D01*
X110714285Y-63645295D02*
X110761904Y-63835771D01*
X110761904Y-63835771D02*
X110761904Y-64073866D01*
X110761904Y-64073866D02*
X110714285Y-64264342D01*
X110714285Y-64264342D02*
X110666666Y-64359580D01*
X110666666Y-64359580D02*
X110619047Y-64407200D01*
X110619047Y-64407200D02*
X110523809Y-64454819D01*
X110523809Y-64454819D02*
X110428571Y-64454819D01*
X110428571Y-64454819D02*
X110333333Y-64407200D01*
X110333333Y-64407200D02*
X110285714Y-64359580D01*
X110285714Y-64359580D02*
X110238095Y-64264342D01*
X110238095Y-64264342D02*
X110190476Y-64073866D01*
X110190476Y-64073866D02*
X110190476Y-63835771D01*
X110190476Y-63835771D02*
X110238095Y-63645295D01*
X110238095Y-63645295D02*
X110285714Y-63550057D01*
X110285714Y-63550057D02*
X110333333Y-63502438D01*
X110333333Y-63502438D02*
X110428571Y-63454819D01*
X132857142Y-64454819D02*
X132523809Y-63978628D01*
X132285714Y-64454819D02*
X132285714Y-63454819D01*
X132285714Y-63454819D02*
X132666666Y-63454819D01*
X132666666Y-63454819D02*
X132761904Y-63502438D01*
X132761904Y-63502438D02*
X132809523Y-63550057D01*
X132809523Y-63550057D02*
X132857142Y-63645295D01*
X132857142Y-63645295D02*
X132857142Y-63788152D01*
X132857142Y-63788152D02*
X132809523Y-63883390D01*
X132809523Y-63883390D02*
X132761904Y-63931009D01*
X132761904Y-63931009D02*
X132666666Y-63978628D01*
X132666666Y-63978628D02*
X132285714Y-63978628D01*
X133809523Y-64454819D02*
X133238095Y-64454819D01*
X133523809Y-64454819D02*
X133523809Y-63454819D01*
X133523809Y-63454819D02*
X133428571Y-63597676D01*
X133428571Y-63597676D02*
X133333333Y-63692914D01*
X133333333Y-63692914D02*
X133238095Y-63740533D01*
X134666666Y-63788152D02*
X134666666Y-64454819D01*
X134428571Y-63407200D02*
X134190476Y-64121485D01*
X134190476Y-64121485D02*
X134809523Y-64121485D01*
X132819642Y-71454819D02*
X132486309Y-70978628D01*
X132248214Y-71454819D02*
X132248214Y-70454819D01*
X132248214Y-70454819D02*
X132629166Y-70454819D01*
X132629166Y-70454819D02*
X132724404Y-70502438D01*
X132724404Y-70502438D02*
X132772023Y-70550057D01*
X132772023Y-70550057D02*
X132819642Y-70645295D01*
X132819642Y-70645295D02*
X132819642Y-70788152D01*
X132819642Y-70788152D02*
X132772023Y-70883390D01*
X132772023Y-70883390D02*
X132724404Y-70931009D01*
X132724404Y-70931009D02*
X132629166Y-70978628D01*
X132629166Y-70978628D02*
X132248214Y-70978628D01*
X133772023Y-71454819D02*
X133200595Y-71454819D01*
X133486309Y-71454819D02*
X133486309Y-70454819D01*
X133486309Y-70454819D02*
X133391071Y-70597676D01*
X133391071Y-70597676D02*
X133295833Y-70692914D01*
X133295833Y-70692914D02*
X133200595Y-70740533D01*
X134676785Y-70454819D02*
X134200595Y-70454819D01*
X134200595Y-70454819D02*
X134152976Y-70931009D01*
X134152976Y-70931009D02*
X134200595Y-70883390D01*
X134200595Y-70883390D02*
X134295833Y-70835771D01*
X134295833Y-70835771D02*
X134533928Y-70835771D01*
X134533928Y-70835771D02*
X134629166Y-70883390D01*
X134629166Y-70883390D02*
X134676785Y-70931009D01*
X134676785Y-70931009D02*
X134724404Y-71026247D01*
X134724404Y-71026247D02*
X134724404Y-71264342D01*
X134724404Y-71264342D02*
X134676785Y-71359580D01*
X134676785Y-71359580D02*
X134629166Y-71407200D01*
X134629166Y-71407200D02*
X134533928Y-71454819D01*
X134533928Y-71454819D02*
X134295833Y-71454819D01*
X134295833Y-71454819D02*
X134200595Y-71407200D01*
X134200595Y-71407200D02*
X134152976Y-71359580D01*
X136416666Y-62954819D02*
X136416666Y-63669104D01*
X136416666Y-63669104D02*
X136369047Y-63811961D01*
X136369047Y-63811961D02*
X136273809Y-63907200D01*
X136273809Y-63907200D02*
X136130952Y-63954819D01*
X136130952Y-63954819D02*
X136035714Y-63954819D01*
X136892857Y-63954819D02*
X136892857Y-62954819D01*
X136892857Y-62954819D02*
X137273809Y-62954819D01*
X137273809Y-62954819D02*
X137369047Y-63002438D01*
X137369047Y-63002438D02*
X137416666Y-63050057D01*
X137416666Y-63050057D02*
X137464285Y-63145295D01*
X137464285Y-63145295D02*
X137464285Y-63288152D01*
X137464285Y-63288152D02*
X137416666Y-63383390D01*
X137416666Y-63383390D02*
X137369047Y-63431009D01*
X137369047Y-63431009D02*
X137273809Y-63478628D01*
X137273809Y-63478628D02*
X136892857Y-63478628D01*
X138035714Y-63383390D02*
X137940476Y-63335771D01*
X137940476Y-63335771D02*
X137892857Y-63288152D01*
X137892857Y-63288152D02*
X137845238Y-63192914D01*
X137845238Y-63192914D02*
X137845238Y-63145295D01*
X137845238Y-63145295D02*
X137892857Y-63050057D01*
X137892857Y-63050057D02*
X137940476Y-63002438D01*
X137940476Y-63002438D02*
X138035714Y-62954819D01*
X138035714Y-62954819D02*
X138226190Y-62954819D01*
X138226190Y-62954819D02*
X138321428Y-63002438D01*
X138321428Y-63002438D02*
X138369047Y-63050057D01*
X138369047Y-63050057D02*
X138416666Y-63145295D01*
X138416666Y-63145295D02*
X138416666Y-63192914D01*
X138416666Y-63192914D02*
X138369047Y-63288152D01*
X138369047Y-63288152D02*
X138321428Y-63335771D01*
X138321428Y-63335771D02*
X138226190Y-63383390D01*
X138226190Y-63383390D02*
X138035714Y-63383390D01*
X138035714Y-63383390D02*
X137940476Y-63431009D01*
X137940476Y-63431009D02*
X137892857Y-63478628D01*
X137892857Y-63478628D02*
X137845238Y-63573866D01*
X137845238Y-63573866D02*
X137845238Y-63764342D01*
X137845238Y-63764342D02*
X137892857Y-63859580D01*
X137892857Y-63859580D02*
X137940476Y-63907200D01*
X137940476Y-63907200D02*
X138035714Y-63954819D01*
X138035714Y-63954819D02*
X138226190Y-63954819D01*
X138226190Y-63954819D02*
X138321428Y-63907200D01*
X138321428Y-63907200D02*
X138369047Y-63859580D01*
X138369047Y-63859580D02*
X138416666Y-63764342D01*
X138416666Y-63764342D02*
X138416666Y-63573866D01*
X138416666Y-63573866D02*
X138369047Y-63478628D01*
X138369047Y-63478628D02*
X138321428Y-63431009D01*
X138321428Y-63431009D02*
X138226190Y-63383390D01*
X136416666Y-70954819D02*
X136416666Y-71669104D01*
X136416666Y-71669104D02*
X136369047Y-71811961D01*
X136369047Y-71811961D02*
X136273809Y-71907200D01*
X136273809Y-71907200D02*
X136130952Y-71954819D01*
X136130952Y-71954819D02*
X136035714Y-71954819D01*
X136892857Y-71954819D02*
X136892857Y-70954819D01*
X136892857Y-70954819D02*
X137273809Y-70954819D01*
X137273809Y-70954819D02*
X137369047Y-71002438D01*
X137369047Y-71002438D02*
X137416666Y-71050057D01*
X137416666Y-71050057D02*
X137464285Y-71145295D01*
X137464285Y-71145295D02*
X137464285Y-71288152D01*
X137464285Y-71288152D02*
X137416666Y-71383390D01*
X137416666Y-71383390D02*
X137369047Y-71431009D01*
X137369047Y-71431009D02*
X137273809Y-71478628D01*
X137273809Y-71478628D02*
X136892857Y-71478628D01*
X137940476Y-71954819D02*
X138130952Y-71954819D01*
X138130952Y-71954819D02*
X138226190Y-71907200D01*
X138226190Y-71907200D02*
X138273809Y-71859580D01*
X138273809Y-71859580D02*
X138369047Y-71716723D01*
X138369047Y-71716723D02*
X138416666Y-71526247D01*
X138416666Y-71526247D02*
X138416666Y-71145295D01*
X138416666Y-71145295D02*
X138369047Y-71050057D01*
X138369047Y-71050057D02*
X138321428Y-71002438D01*
X138321428Y-71002438D02*
X138226190Y-70954819D01*
X138226190Y-70954819D02*
X138035714Y-70954819D01*
X138035714Y-70954819D02*
X137940476Y-71002438D01*
X137940476Y-71002438D02*
X137892857Y-71050057D01*
X137892857Y-71050057D02*
X137845238Y-71145295D01*
X137845238Y-71145295D02*
X137845238Y-71383390D01*
X137845238Y-71383390D02*
X137892857Y-71478628D01*
X137892857Y-71478628D02*
X137940476Y-71526247D01*
X137940476Y-71526247D02*
X138035714Y-71573866D01*
X138035714Y-71573866D02*
X138226190Y-71573866D01*
X138226190Y-71573866D02*
X138321428Y-71526247D01*
X138321428Y-71526247D02*
X138369047Y-71478628D01*
X138369047Y-71478628D02*
X138416666Y-71383390D01*
X129607142Y-67859580D02*
X129559523Y-67907200D01*
X129559523Y-67907200D02*
X129416666Y-67954819D01*
X129416666Y-67954819D02*
X129321428Y-67954819D01*
X129321428Y-67954819D02*
X129178571Y-67907200D01*
X129178571Y-67907200D02*
X129083333Y-67811961D01*
X129083333Y-67811961D02*
X129035714Y-67716723D01*
X129035714Y-67716723D02*
X128988095Y-67526247D01*
X128988095Y-67526247D02*
X128988095Y-67383390D01*
X128988095Y-67383390D02*
X129035714Y-67192914D01*
X129035714Y-67192914D02*
X129083333Y-67097676D01*
X129083333Y-67097676D02*
X129178571Y-67002438D01*
X129178571Y-67002438D02*
X129321428Y-66954819D01*
X129321428Y-66954819D02*
X129416666Y-66954819D01*
X129416666Y-66954819D02*
X129559523Y-67002438D01*
X129559523Y-67002438D02*
X129607142Y-67050057D01*
X130559523Y-67954819D02*
X129988095Y-67954819D01*
X130273809Y-67954819D02*
X130273809Y-66954819D01*
X130273809Y-66954819D02*
X130178571Y-67097676D01*
X130178571Y-67097676D02*
X130083333Y-67192914D01*
X130083333Y-67192914D02*
X129988095Y-67240533D01*
X131416666Y-66954819D02*
X131226190Y-66954819D01*
X131226190Y-66954819D02*
X131130952Y-67002438D01*
X131130952Y-67002438D02*
X131083333Y-67050057D01*
X131083333Y-67050057D02*
X130988095Y-67192914D01*
X130988095Y-67192914D02*
X130940476Y-67383390D01*
X130940476Y-67383390D02*
X130940476Y-67764342D01*
X130940476Y-67764342D02*
X130988095Y-67859580D01*
X130988095Y-67859580D02*
X131035714Y-67907200D01*
X131035714Y-67907200D02*
X131130952Y-67954819D01*
X131130952Y-67954819D02*
X131321428Y-67954819D01*
X131321428Y-67954819D02*
X131416666Y-67907200D01*
X131416666Y-67907200D02*
X131464285Y-67859580D01*
X131464285Y-67859580D02*
X131511904Y-67764342D01*
X131511904Y-67764342D02*
X131511904Y-67526247D01*
X131511904Y-67526247D02*
X131464285Y-67431009D01*
X131464285Y-67431009D02*
X131416666Y-67383390D01*
X131416666Y-67383390D02*
X131321428Y-67335771D01*
X131321428Y-67335771D02*
X131130952Y-67335771D01*
X131130952Y-67335771D02*
X131035714Y-67383390D01*
X131035714Y-67383390D02*
X130988095Y-67431009D01*
X130988095Y-67431009D02*
X130940476Y-67526247D01*
X112416666Y-62954819D02*
X112416666Y-63669104D01*
X112416666Y-63669104D02*
X112369047Y-63811961D01*
X112369047Y-63811961D02*
X112273809Y-63907200D01*
X112273809Y-63907200D02*
X112130952Y-63954819D01*
X112130952Y-63954819D02*
X112035714Y-63954819D01*
X112892857Y-63954819D02*
X112892857Y-62954819D01*
X112892857Y-62954819D02*
X113273809Y-62954819D01*
X113273809Y-62954819D02*
X113369047Y-63002438D01*
X113369047Y-63002438D02*
X113416666Y-63050057D01*
X113416666Y-63050057D02*
X113464285Y-63145295D01*
X113464285Y-63145295D02*
X113464285Y-63288152D01*
X113464285Y-63288152D02*
X113416666Y-63383390D01*
X113416666Y-63383390D02*
X113369047Y-63431009D01*
X113369047Y-63431009D02*
X113273809Y-63478628D01*
X113273809Y-63478628D02*
X112892857Y-63478628D01*
X114321428Y-62954819D02*
X114130952Y-62954819D01*
X114130952Y-62954819D02*
X114035714Y-63002438D01*
X114035714Y-63002438D02*
X113988095Y-63050057D01*
X113988095Y-63050057D02*
X113892857Y-63192914D01*
X113892857Y-63192914D02*
X113845238Y-63383390D01*
X113845238Y-63383390D02*
X113845238Y-63764342D01*
X113845238Y-63764342D02*
X113892857Y-63859580D01*
X113892857Y-63859580D02*
X113940476Y-63907200D01*
X113940476Y-63907200D02*
X114035714Y-63954819D01*
X114035714Y-63954819D02*
X114226190Y-63954819D01*
X114226190Y-63954819D02*
X114321428Y-63907200D01*
X114321428Y-63907200D02*
X114369047Y-63859580D01*
X114369047Y-63859580D02*
X114416666Y-63764342D01*
X114416666Y-63764342D02*
X114416666Y-63526247D01*
X114416666Y-63526247D02*
X114369047Y-63431009D01*
X114369047Y-63431009D02*
X114321428Y-63383390D01*
X114321428Y-63383390D02*
X114226190Y-63335771D01*
X114226190Y-63335771D02*
X114035714Y-63335771D01*
X114035714Y-63335771D02*
X113940476Y-63383390D01*
X113940476Y-63383390D02*
X113892857Y-63431009D01*
X113892857Y-63431009D02*
X113845238Y-63526247D01*
X145931009Y-80833333D02*
X145931009Y-81166666D01*
X146454819Y-81166666D02*
X145454819Y-81166666D01*
X145454819Y-81166666D02*
X145454819Y-80690476D01*
X146454819Y-79785714D02*
X146454819Y-80357142D01*
X146454819Y-80071428D02*
X145454819Y-80071428D01*
X145454819Y-80071428D02*
X145597676Y-80166666D01*
X145597676Y-80166666D02*
X145692914Y-80261904D01*
X145692914Y-80261904D02*
X145740533Y-80357142D01*
D11*
%TO.C,C1*%
X148026248Y-74265000D02*
X148548752Y-74265000D01*
X148026248Y-75735000D02*
X148548752Y-75735000D01*
%TO.C,R4*%
X128754724Y-52272500D02*
X128245276Y-52272500D01*
X128754724Y-51227500D02*
X128245276Y-51227500D01*
%TO.C,C6*%
X116896267Y-55760000D02*
X116603733Y-55760000D01*
X116896267Y-54740000D02*
X116603733Y-54740000D01*
%TO.C,R6*%
X110487258Y-57022500D02*
X110012742Y-57022500D01*
X110487258Y-55977500D02*
X110012742Y-55977500D01*
%TO.C,U1*%
X129590000Y-53550000D02*
X129590000Y-55450000D01*
X131910000Y-54950000D02*
X131910000Y-53550000D01*
%TO.C,R7*%
X148987258Y-83272500D02*
X148512742Y-83272500D01*
X148987258Y-82227500D02*
X148512742Y-82227500D01*
%TO.C,JP1*%
X131050001Y-83900000D02*
X130449999Y-83900000D01*
X129750000Y-83200000D02*
X129750000Y-81800000D01*
X131750000Y-81800000D02*
X131750000Y-83200000D01*
X130449999Y-81100000D02*
X131050001Y-81100000D01*
X130449999Y-83900000D02*
G75*
G02*
X129750000Y-83200000I0J699999D01*
G01*
X131750000Y-83200000D02*
G75*
G02*
X131050001Y-83900000I-699999J-1D01*
G01*
X129750000Y-81800000D02*
G75*
G02*
X130449999Y-81100000I700000J0D01*
G01*
X131050001Y-81100000D02*
G75*
G02*
X131750000Y-81800000I-1J-700000D01*
G01*
%TO.C,C13*%
X134640581Y-80260000D02*
X134359419Y-80260000D01*
X134640581Y-79240000D02*
X134359419Y-79240000D01*
%TO.C,C8*%
X110640581Y-80260000D02*
X110359419Y-80260000D01*
X110640581Y-79240000D02*
X110359419Y-79240000D01*
%TO.C,JP5*%
X118600000Y-52050000D02*
X118600000Y-51450000D01*
X119300000Y-50750000D02*
X120700000Y-50750000D01*
X120700000Y-52750000D02*
X119300000Y-52750000D01*
X121400000Y-51450000D02*
X121400000Y-52050000D01*
X118600000Y-51450000D02*
G75*
G02*
X119300000Y-50750000I699999J1D01*
G01*
X119300000Y-52750000D02*
G75*
G02*
X118600000Y-52050000I-1J699999D01*
G01*
X120700000Y-50750000D02*
G75*
G02*
X121400000Y-51450000I0J-700000D01*
G01*
X121400000Y-52050000D02*
G75*
G02*
X120700000Y-52750000I-700000J0D01*
G01*
%TO.C,JP4*%
X109949999Y-52100000D02*
X110550001Y-52100000D01*
X111250000Y-52800000D02*
X111250000Y-54200000D01*
X109250000Y-54200000D02*
X109250000Y-52800000D01*
X110550001Y-54900000D02*
X109949999Y-54900000D01*
X110550001Y-52100000D02*
G75*
G02*
X111250000Y-52800000I0J-699999D01*
G01*
X109250000Y-52800000D02*
G75*
G02*
X109949999Y-52100000I699999J1D01*
G01*
X111250000Y-54200000D02*
G75*
G02*
X110550001Y-54900000I-700000J0D01*
G01*
X109949999Y-54900000D02*
G75*
G02*
X109250000Y-54200000I1J700000D01*
G01*
%TO.C,C4*%
X129010000Y-54215581D02*
X129010000Y-53934419D01*
X127990000Y-54215581D02*
X127990000Y-53934419D01*
%TO.C,D1*%
X146600000Y-79400000D02*
X152000000Y-79400000D01*
X146600000Y-76100000D02*
X152000000Y-76100000D01*
X146600000Y-76100000D02*
X146600000Y-79400000D01*
%TO.C,C14*%
X125259999Y-77359419D02*
X125259999Y-77640581D01*
X124239999Y-77359419D02*
X124239999Y-77640581D01*
%TO.C,C12*%
X137359419Y-78760000D02*
X137640581Y-78760000D01*
X137359419Y-77740000D02*
X137640581Y-77740000D01*
%TO.C,R18*%
X148487258Y-58272499D02*
X148012742Y-58272499D01*
X148487258Y-57227499D02*
X148012742Y-57227499D01*
%TO.C,C5*%
X131359419Y-56240000D02*
X131640581Y-56240000D01*
X131359419Y-57260000D02*
X131640581Y-57260000D01*
%TO.C,U4*%
X129250000Y-80059999D02*
X131200000Y-80060000D01*
X129250000Y-80059999D02*
X127300000Y-80060000D01*
X129250000Y-74940001D02*
X131200000Y-74940000D01*
X129250000Y-74940001D02*
X125800000Y-74940000D01*
%TO.C,R9*%
X110737258Y-77272500D02*
X110262742Y-77272500D01*
X110737258Y-76227500D02*
X110262742Y-76227500D01*
%TO.C,U3*%
X105250000Y-80059999D02*
X107200000Y-80060000D01*
X105250000Y-80059999D02*
X103300000Y-80060000D01*
X105250000Y-74940001D02*
X107200000Y-74940000D01*
X105250000Y-74940001D02*
X101800000Y-74940000D01*
%TO.C,R16*%
X151012742Y-58272500D02*
X151487258Y-58272500D01*
X151012742Y-57227500D02*
X151487258Y-57227500D01*
D10*
%TO.C,U2*%
X113375000Y-50875000D02*
X113375000Y-51100000D01*
X113375000Y-54125000D02*
X113375000Y-53900000D01*
X116625000Y-50875000D02*
X113375000Y-50875000D01*
X116625000Y-50875000D02*
X116625000Y-51100000D01*
X116625000Y-54000000D02*
X117700000Y-54000000D01*
X116625000Y-54125000D02*
X113375000Y-54125000D01*
X116625000Y-54125000D02*
X116625000Y-54000000D01*
D11*
%TO.C,D6*%
X141000000Y-79060001D02*
X142674999Y-79060000D01*
X141000000Y-79060001D02*
X140350000Y-79060000D01*
X141000000Y-75939999D02*
X141650000Y-75940000D01*
X141000000Y-75939999D02*
X140350000Y-75940000D01*
%TO.C,D5*%
X117000000Y-79060001D02*
X118674999Y-79060000D01*
X117000000Y-79060001D02*
X116350000Y-79060000D01*
X117000000Y-75939999D02*
X117650000Y-75940000D01*
X117000000Y-75939999D02*
X116350000Y-75940000D01*
%TO.C,C10*%
X113359419Y-77260000D02*
X113640581Y-77260000D01*
X113359419Y-76240000D02*
X113640581Y-76240000D01*
%TO.C,R13*%
X134737258Y-77272500D02*
X134262742Y-77272500D01*
X134737258Y-76227500D02*
X134262742Y-76227500D01*
%TO.C,C15*%
X137359419Y-77260000D02*
X137640581Y-77260000D01*
X137359419Y-76240000D02*
X137640581Y-76240000D01*
%TO.C,C17*%
X150590000Y-54711252D02*
X150590000Y-53288748D01*
X152410000Y-54711252D02*
X152410000Y-53288748D01*
%TO.C,C18*%
X145490000Y-53528081D02*
X145490000Y-53246919D01*
X146510000Y-53528081D02*
X146510000Y-53246919D01*
%TO.C,C7*%
X113359419Y-78760000D02*
X113640581Y-78760000D01*
X113359419Y-77740000D02*
X113640581Y-77740000D01*
%TO.C,R2*%
X103512742Y-80477500D02*
X103987258Y-80477500D01*
X103512742Y-81522500D02*
X103987258Y-81522500D01*
%TO.C,R1*%
X124987258Y-80477500D02*
X124512742Y-80477500D01*
X124987258Y-81522500D02*
X124512742Y-81522500D01*
%TO.C,L3*%
X142140000Y-53397936D02*
X142140000Y-54602064D01*
X144860000Y-53397936D02*
X144860000Y-54602064D01*
%TO.C,R17*%
X145477500Y-56762742D02*
X145477500Y-57237258D01*
X146522500Y-56762742D02*
X146522500Y-57237258D01*
%TO.C,C2*%
X113765581Y-54740000D02*
X113484419Y-54740000D01*
X113765581Y-55760000D02*
X113484419Y-55760000D01*
%TO.C,U5*%
X146939999Y-53750000D02*
X146940000Y-55550000D01*
X146939999Y-53750000D02*
X146940000Y-52950000D01*
X150060001Y-53750000D02*
X150060000Y-54550000D01*
X150060001Y-53750000D02*
X150060000Y-52950000D01*
%TO.C,C19*%
X143761253Y-58235000D02*
X143238747Y-58235000D01*
X143761253Y-56765000D02*
X143238747Y-56765000D01*
%TO.C,R5*%
X134772500Y-56762742D02*
X134772500Y-57237258D01*
X133727500Y-56762742D02*
X133727500Y-57237258D01*
%TO.C,R12*%
X134737258Y-77727500D02*
X134262742Y-77727500D01*
X134737258Y-78772500D02*
X134262742Y-78772500D01*
%TO.C,R8*%
X110737258Y-77727500D02*
X110262742Y-77727500D01*
X110737258Y-78772500D02*
X110262742Y-78772500D01*
%TO.C,C9*%
X101259999Y-77359419D02*
X101259999Y-77640581D01*
X100239999Y-77359419D02*
X100239999Y-77640581D01*
%TO.C,R3*%
X151772936Y-81235000D02*
X152227064Y-81235000D01*
X151772936Y-79765000D02*
X152227064Y-79765000D01*
%TO.C,JP7*%
X111850000Y-69687500D02*
X111850000Y-69087500D01*
X112550000Y-68387500D02*
X113950000Y-68387500D01*
X113950000Y-70387500D02*
X112550000Y-70387500D01*
X114650000Y-69087500D02*
X114650000Y-69687500D01*
X112550000Y-70387500D02*
G75*
G02*
X111850000Y-69687500I-1J699999D01*
G01*
X111850000Y-69087500D02*
G75*
G02*
X112550000Y-68387500I699999J1D01*
G01*
X114650000Y-69687500D02*
G75*
G02*
X113950000Y-70387500I-700000J0D01*
G01*
X113950000Y-68387500D02*
G75*
G02*
X114650000Y-69087500I0J-700000D01*
G01*
%TO.C,R11*%
X109235436Y-70122500D02*
X109689564Y-70122500D01*
X109235436Y-68652500D02*
X109689564Y-68652500D01*
%TO.C,C11*%
X109238747Y-68200000D02*
X109761253Y-68200000D01*
X109238747Y-66730000D02*
X109761253Y-66730000D01*
%TO.C,R10*%
X109689564Y-66312500D02*
X109235436Y-66312500D01*
X109689564Y-64842500D02*
X109235436Y-64842500D01*
%TO.C,R14*%
X133689564Y-66312500D02*
X133235436Y-66312500D01*
X133689564Y-64842500D02*
X133235436Y-64842500D01*
%TO.C,R15*%
X133235436Y-70122500D02*
X133689564Y-70122500D01*
X133235436Y-68652500D02*
X133689564Y-68652500D01*
%TO.C,JP8*%
X135850000Y-65877501D02*
X135850000Y-65277499D01*
X136550000Y-64577500D02*
X137950000Y-64577500D01*
X137950000Y-66577500D02*
X136550000Y-66577500D01*
X138650000Y-65277499D02*
X138650000Y-65877501D01*
X136550000Y-66577500D02*
G75*
G02*
X135850000Y-65877501I0J700000D01*
G01*
X135850000Y-65277499D02*
G75*
G02*
X136550000Y-64577500I700000J-1D01*
G01*
X138650000Y-65877501D02*
G75*
G02*
X137950000Y-66577500I-699999J0D01*
G01*
X137950000Y-64577500D02*
G75*
G02*
X138650000Y-65277499I1J-699999D01*
G01*
%TO.C,JP9*%
X135850000Y-69687500D02*
X135850000Y-69087500D01*
X136550000Y-68387500D02*
X137950000Y-68387500D01*
X137950000Y-70387500D02*
X136550000Y-70387500D01*
X138650000Y-69087500D02*
X138650000Y-69687500D01*
X136550000Y-70387500D02*
G75*
G02*
X135850000Y-69687500I-1J699999D01*
G01*
X135850000Y-69087500D02*
G75*
G02*
X136550000Y-68387500I699999J1D01*
G01*
X138650000Y-69687500D02*
G75*
G02*
X137950000Y-70387500I-700000J0D01*
G01*
X137950000Y-68387500D02*
G75*
G02*
X138650000Y-69087500I0J-700000D01*
G01*
%TO.C,C16*%
X133238747Y-68200000D02*
X133761253Y-68200000D01*
X133238747Y-66730000D02*
X133761253Y-66730000D01*
%TO.C,JP6*%
X111850000Y-65877501D02*
X111850000Y-65277499D01*
X112550000Y-64577500D02*
X113950000Y-64577500D01*
X113950000Y-66577500D02*
X112550000Y-66577500D01*
X114650000Y-65277499D02*
X114650000Y-65877501D01*
X112550000Y-66577500D02*
G75*
G02*
X111850000Y-65877501I0J700000D01*
G01*
X111850000Y-65277499D02*
G75*
G02*
X112550000Y-64577500I700000J-1D01*
G01*
X114650000Y-65877501D02*
G75*
G02*
X113950000Y-66577500I-699999J0D01*
G01*
X113950000Y-64577500D02*
G75*
G02*
X114650000Y-65277499I1J-699999D01*
G01*
%TO.C,F1*%
X148013747Y-81210000D02*
X148536251Y-81210000D01*
X148013747Y-79790000D02*
X148536251Y-79790000D01*
%TD*%
%LPC*%
D12*
%TO.C,JP1*%
G36*
X131500000Y-82650000D02*
G01*
X130000000Y-82650000D01*
X130000000Y-82350000D01*
X131500000Y-82350000D01*
X131500000Y-82650000D01*
G37*
%TO.C,JP5*%
G36*
X119850000Y-51000000D02*
G01*
X120150000Y-51000000D01*
X120150000Y-52500000D01*
X119850000Y-52500000D01*
X119850000Y-51000000D01*
G37*
%TO.C,JP4*%
G36*
X111000000Y-53650000D02*
G01*
X109500000Y-53650000D01*
X109500000Y-53350000D01*
X111000000Y-53350000D01*
X111000000Y-53650000D01*
G37*
%TO.C,JP7*%
G36*
X113100000Y-68637500D02*
G01*
X113400000Y-68637500D01*
X113400000Y-70137500D01*
X113100000Y-70137500D01*
X113100000Y-68637500D01*
G37*
%TO.C,JP8*%
G36*
X137400000Y-66327500D02*
G01*
X137100000Y-66327500D01*
X137100000Y-64827500D01*
X137400000Y-64827500D01*
X137400000Y-66327500D01*
G37*
%TO.C,JP9*%
G36*
X137100000Y-68637500D02*
G01*
X137400000Y-68637500D01*
X137400000Y-70137500D01*
X137100000Y-70137500D01*
X137100000Y-68637500D01*
G37*
%TO.C,JP6*%
G36*
X113400000Y-66327500D02*
G01*
X113100000Y-66327500D01*
X113100000Y-64827500D01*
X113400000Y-64827500D01*
X113400000Y-66327500D01*
G37*
%TD*%
D13*
%TO.C,C1*%
X147250000Y-75000000D03*
X149325000Y-75000000D03*
%TD*%
D14*
%TO.C,R4*%
X129412500Y-51750000D03*
X127587500Y-51750000D03*
%TD*%
D15*
%TO.C,C6*%
X117612500Y-55250000D03*
X115887500Y-55250000D03*
%TD*%
D16*
%TO.C,R6*%
X109425000Y-56500000D03*
X111075000Y-56500000D03*
%TD*%
D17*
%TO.C,U1*%
X130100000Y-55200000D03*
X130750000Y-55199999D03*
X131400000Y-55200000D03*
X131400000Y-53300000D03*
X130100000Y-53300000D03*
%TD*%
D16*
%TO.C,R7*%
X149575000Y-82750000D03*
X147925000Y-82750000D03*
%TD*%
D18*
%TO.C,JP1*%
X130750000Y-83149999D03*
D19*
X130750000Y-81850001D03*
%TD*%
D20*
%TO.C,J6*%
X128040000Y-83000000D03*
D21*
X125500000Y-83000000D03*
X122960001Y-83000000D03*
X120420000Y-83000000D03*
X117880000Y-83000000D03*
X115340000Y-83000000D03*
X112800000Y-83000000D03*
X110259999Y-83000000D03*
X107720000Y-83000000D03*
%TD*%
D22*
%TO.C,C13*%
X135275000Y-79750000D03*
X133725000Y-79750000D03*
%TD*%
%TO.C,C8*%
X111275000Y-79750000D03*
X109725000Y-79750000D03*
%TD*%
D23*
%TO.C,H1*%
X101250000Y-83750000D03*
%TD*%
%TO.C,H2*%
X153750000Y-83750000D03*
%TD*%
%TO.C,H3*%
X101250000Y-51250000D03*
%TD*%
%TO.C,H4*%
X153750000Y-51250000D03*
%TD*%
D24*
%TO.C,JP5*%
X119350000Y-51750000D03*
D25*
X120650000Y-51750000D03*
%TD*%
D26*
%TO.C,JP4*%
X110250000Y-52850001D03*
D27*
X110250000Y-54149999D03*
%TD*%
D28*
%TO.C,C3*%
X152000000Y-59750000D03*
X149500000Y-59750000D03*
%TD*%
D29*
%TO.C,TP1*%
X124250000Y-52000000D03*
%TD*%
D30*
%TO.C,J1*%
X148222500Y-70000000D03*
D31*
X148222500Y-65000000D03*
%TD*%
D32*
%TO.C,J3*%
X116892500Y-73232501D03*
X116892500Y-69422500D03*
X116892500Y-65612500D03*
D33*
X116892500Y-61802500D03*
%TD*%
%TO.C,J4*%
X140892500Y-61802500D03*
D32*
X140892500Y-65612500D03*
X140892500Y-69422500D03*
X140892500Y-73232501D03*
%TD*%
D34*
%TO.C,C4*%
X128500000Y-54850000D03*
X128500000Y-53300000D03*
%TD*%
D35*
%TO.C,D1*%
X147999999Y-77750000D03*
X152000001Y-77750000D03*
%TD*%
D32*
%TO.C,J2*%
X128892500Y-73232501D03*
X128892500Y-69422500D03*
X128892500Y-65612500D03*
D33*
X128892500Y-61802500D03*
%TD*%
%TO.C,J5*%
X104892500Y-61802500D03*
D32*
X104892500Y-65612500D03*
X104892500Y-69422500D03*
X104892500Y-73232501D03*
%TD*%
D36*
%TO.C,C14*%
X124749999Y-76725000D03*
X124749999Y-78275000D03*
%TD*%
D37*
%TO.C,C12*%
X136725000Y-78250000D03*
X138275000Y-78250000D03*
%TD*%
D16*
%TO.C,R18*%
X149075000Y-57749999D03*
X147425000Y-57749999D03*
%TD*%
D37*
%TO.C,C5*%
X132275000Y-56750000D03*
X130725000Y-56750000D03*
%TD*%
D38*
%TO.C,U4*%
X126775000Y-75595000D03*
X126775000Y-76865000D03*
X126775000Y-78135000D03*
X126775000Y-79405000D03*
X131725000Y-79405000D03*
X131725000Y-78135000D03*
X131725000Y-76865000D03*
X131725000Y-75595000D03*
%TD*%
D16*
%TO.C,R9*%
X111325000Y-76750000D03*
X109675000Y-76750000D03*
%TD*%
D38*
%TO.C,U3*%
X102775000Y-75595000D03*
X102775000Y-76865000D03*
X102775000Y-78135000D03*
X102775000Y-79405000D03*
X107725000Y-79405000D03*
X107725000Y-78135000D03*
X107725000Y-76865000D03*
X107725000Y-75595000D03*
%TD*%
D39*
%TO.C,R16*%
X150425000Y-57750000D03*
X152075000Y-57750000D03*
%TD*%
D40*
%TO.C,U2*%
X117150000Y-53475001D03*
X117150000Y-52825000D03*
X117150000Y-52175000D03*
X117150000Y-51524999D03*
X112850000Y-51524999D03*
X112850000Y-52175000D03*
X112850000Y-52825000D03*
X112850000Y-53475001D03*
%TD*%
D41*
%TO.C,D6*%
X141937500Y-78450000D03*
X141937500Y-76550000D03*
X140062499Y-77500000D03*
%TD*%
%TO.C,D5*%
X117937500Y-78450000D03*
X117937500Y-76550000D03*
X116062499Y-77500000D03*
%TD*%
D37*
%TO.C,C10*%
X112725000Y-76750000D03*
X114275000Y-76750000D03*
%TD*%
D16*
%TO.C,R13*%
X135325000Y-76750000D03*
X133675000Y-76750000D03*
%TD*%
D37*
%TO.C,C15*%
X136725000Y-76750000D03*
X138275000Y-76750000D03*
%TD*%
D42*
%TO.C,C17*%
X151500000Y-55475001D03*
X151500000Y-52524999D03*
%TD*%
D34*
%TO.C,C18*%
X146000000Y-54162500D03*
X146000000Y-52612500D03*
%TD*%
D37*
%TO.C,C7*%
X112725000Y-78250000D03*
X114275000Y-78250000D03*
%TD*%
D39*
%TO.C,R2*%
X102925000Y-81000000D03*
X104575000Y-81000000D03*
%TD*%
D16*
%TO.C,R1*%
X125575000Y-81000000D03*
X123925000Y-81000000D03*
%TD*%
D43*
%TO.C,L3*%
X143500000Y-52600001D03*
X143500000Y-55399999D03*
%TD*%
D44*
%TO.C,R17*%
X146000000Y-56175000D03*
X146000000Y-57825000D03*
%TD*%
D22*
%TO.C,C2*%
X114400000Y-55250000D03*
X112850000Y-55250000D03*
%TD*%
D45*
%TO.C,U5*%
X147550001Y-54887500D03*
X148500000Y-54887500D03*
X149449999Y-54887500D03*
X149449999Y-52612500D03*
X148500000Y-52612500D03*
X147550001Y-52612500D03*
%TD*%
D46*
%TO.C,C19*%
X144449999Y-57500000D03*
X142550001Y-57500000D03*
%TD*%
D44*
%TO.C,R5*%
X134250000Y-56175000D03*
X134250000Y-57825000D03*
%TD*%
D16*
%TO.C,R12*%
X135325000Y-78250000D03*
X133675000Y-78250000D03*
%TD*%
%TO.C,R8*%
X111325000Y-78250000D03*
X109675000Y-78250000D03*
%TD*%
D36*
%TO.C,C9*%
X100749999Y-76725000D03*
X100749999Y-78275000D03*
%TD*%
D47*
%TO.C,R3*%
X151087500Y-80500000D03*
X152912500Y-80500000D03*
%TD*%
D24*
%TO.C,JP7*%
X112600000Y-69387500D03*
D25*
X113900000Y-69387500D03*
%TD*%
D48*
%TO.C,R11*%
X108462500Y-69387500D03*
X110462500Y-69387500D03*
%TD*%
D13*
%TO.C,C11*%
X108462500Y-67465000D03*
X110537500Y-67465000D03*
%TD*%
D49*
%TO.C,R10*%
X110462500Y-65577500D03*
X108462500Y-65577500D03*
%TD*%
%TO.C,R14*%
X134462500Y-65577500D03*
X132462500Y-65577500D03*
%TD*%
D48*
%TO.C,R15*%
X132462500Y-69387500D03*
X134462500Y-69387500D03*
%TD*%
D50*
%TO.C,JP8*%
X137899999Y-65577500D03*
D51*
X136600001Y-65577500D03*
%TD*%
D24*
%TO.C,JP9*%
X136600000Y-69387500D03*
D25*
X137900000Y-69387500D03*
%TD*%
D13*
%TO.C,C16*%
X132462500Y-67465000D03*
X134537500Y-67465000D03*
%TD*%
D50*
%TO.C,JP6*%
X113899999Y-65577500D03*
D51*
X112600001Y-65577500D03*
%TD*%
D52*
%TO.C,F1*%
X147250000Y-80500000D03*
X149299998Y-80500000D03*
%TD*%
%LPD*%
M02*
