M48
; DRILL file {KiCad 9.0.6} date 2025-12-21T18:24:03+0100
; FORMAT={-:-/ absolute / inch / decimal}
; #@! TF.CreationDate,2025-12-21T18:24:03+01:00
; #@! TF.GenerationSoftware,Kicad,Pcbnew,9.0.6
; #@! TF.FileFunction,Plated,1,2,PTH
FMAT,2
INCH
; #@! TA.AperFunction,Plated,PTH,ViaDrill
T1C0.0118
; #@! TA.AperFunction,Plated,PTH,ViaDrill
T2C0.0197
; #@! TA.AperFunction,Plated,PTH,ComponentDrill
T3C0.0315
; #@! TA.AperFunction,Plated,PTH,ComponentDrill
T4C0.0394
; #@! TA.AperFunction,Plated,PTH,ComponentDrill
T5C0.0472
; #@! TA.AperFunction,Plated,PTH,ComponentDrill
T6C0.0551
%
G90
G05
T1
X3.9567Y-2.9823
X3.9961Y-3.002
X3.9961Y-3.0512
X4.0316Y-2.0631
X4.0316Y-2.1615
X4.0316Y-2.2599
X4.0316Y-2.5552
X4.0316Y-2.6536
X4.0316Y-2.752
X4.1043Y-3.0217
X4.1043Y-3.0512
X4.13Y-2.0631
X4.13Y-2.1615
X4.13Y-2.2599
X4.13Y-2.6536
X4.13Y-3.1457
X4.2284Y-2.0631
X4.2284Y-2.1615
X4.2284Y-2.2599
X4.2284Y-2.6536
X4.3081Y-2.185
X4.3504Y-3.1102
X4.3504Y-3.1693
X4.3504Y-3.1988
X4.3898Y-2.628
X4.3898Y-2.6575
X4.3898Y-2.687
X4.3996Y-2.1752
X4.4193Y-3.1398
X4.4685Y-3.0512
X4.4783Y-2.2047
X4.5237Y-2.6536
X4.5237Y-3.1457
X4.5276Y-2.2047
X4.5276Y-3.0512
X4.5325Y-2.1407
X4.5374Y-3.0217
X4.5374Y-3.0807
X4.5719Y-2.0423
X4.5768Y-3.0217
X4.5768Y-3.0807
X4.6161Y-3.0512
X4.6221Y-2.2599
X4.6221Y-2.6536
X4.6555Y-2.0177
X4.6555Y-3.0512
X4.7047Y-3.1102
X4.7205Y-2.2599
X4.7205Y-2.5552
X4.7343Y-3.0807
X4.8031Y-2.1063
X4.8327Y-2.1555
X4.8842Y-3.0513
X4.8917Y-2.313
X4.9409Y-3.0118
X4.9409Y-3.0512
X4.9508Y-2.313
X4.9803Y-2.2539
X4.9803Y-2.313
X5.0Y-2.2343
X5.0Y-2.2933
X5.0158Y-2.6536
X5.0492Y-2.1949
X5.0492Y-3.0217
X5.0492Y-3.0512
X5.0689Y-3.1791
X5.0886Y-2.185
X5.1142Y-2.6536
X5.1476Y-3.1791
X5.1732Y-2.1417
X5.1772Y-2.2047
X5.2127Y-3.2442
X5.2461Y-2.2343
X5.251Y-2.0915
X5.2854Y-2.1752
X5.2953Y-3.1102
X5.2953Y-3.1693
X5.3111Y-2.0631
X5.3111Y-3.2442
X5.3346Y-2.628
X5.3346Y-2.6575
X5.3346Y-2.687
X5.3642Y-3.1398
X5.4095Y-2.0631
X5.4095Y-2.1615
X5.4095Y-2.6536
X5.4095Y-3.1457
X5.4095Y-3.2442
X5.4134Y-3.0512
X5.4724Y-3.0512
X5.4823Y-3.0217
X5.4823Y-3.0807
X5.5079Y-2.0631
X5.5079Y-2.1615
X5.5079Y-2.6536
X5.5079Y-3.1457
X5.5079Y-3.2442
X5.5217Y-3.0217
X5.5217Y-3.0807
X5.561Y-3.0512
X5.6004Y-3.0512
X5.6064Y-2.6536
X5.6064Y-3.1457
X5.6594Y-2.2441
X5.6594Y-2.2835
X5.6594Y-3.1693
X5.689Y-2.3031
X5.7048Y-3.2442
X5.7185Y-2.2441
X5.7185Y-2.3031
X5.8071Y-2.1161
X5.8071Y-2.2343
X5.8071Y-2.2047
X5.8465Y-2.2047
X5.8465Y-2.1161
X5.8465Y-2.2343
X5.8858Y-2.1161
X5.9055Y-3.0315
X5.9055Y-3.061
X5.9055Y-3.0906
X5.9055Y-3.1201
X5.935Y-3.1201
X5.935Y-3.2579
X5.9449Y-2.1457
X5.9449Y-2.1161
X5.9449Y-2.2244
X5.9646Y-3.1201
X5.9843Y-2.1161
X5.9843Y-2.1457
X5.9843Y-2.2244
X5.9941Y-2.9429
X5.9941Y-2.9724
X5.9941Y-3.002
X5.9941Y-3.1201
X6.0001Y-2.4568
X6.0001Y-2.5552
X6.0001Y-2.6536
X6.0001Y-2.752
X6.0001Y-2.8505
X6.0001Y-3.2442
X6.0236Y-2.9429
X6.0236Y-2.9724
X6.0236Y-3.002
X6.0236Y-3.1201
X6.0531Y-2.9429
X6.0531Y-2.9724
X6.0531Y-3.002
X6.0531Y-3.0315
X6.0531Y-3.061
X6.0531Y-3.0906
X6.0531Y-3.1201
T2
X4.1437Y-3.3268
X5.1476Y-3.3268
T3
X5.8858Y-2.3524
X5.9843Y-2.3524
T4
X4.2409Y-3.2677
X4.3409Y-3.2677
X4.4409Y-3.2677
X4.5409Y-3.2677
X4.6409Y-3.2677
X4.7409Y-3.2677
X4.8409Y-3.2677
X4.8917Y-2.0472
X4.9409Y-3.2677
X5.0409Y-3.2677
T5
X4.1296Y-2.4332
X4.1296Y-2.5832
X4.1296Y-2.7332
X4.1296Y-2.8832
X4.6021Y-2.4332
X4.6021Y-2.5832
X4.6021Y-2.7332
X4.6021Y-2.8832
X5.0745Y-2.4332
X5.0745Y-2.5832
X5.0745Y-2.7332
X5.0745Y-2.8832
X5.5469Y-2.4332
X5.5469Y-2.5832
X5.5469Y-2.7332
X5.5469Y-2.8832
T6
X5.8355Y-2.5591
X5.8355Y-2.7559
M30
