%TF.GenerationSoftware,KiCad,Pcbnew,9.0.6*%
%TF.CreationDate,2025-12-21T18:24:03+01:00*%
%TF.ProjectId,repeater,72657065-6174-4657-922e-6b696361645f,rev?*%
%TF.SameCoordinates,Original*%
%TF.FileFunction,Legend,Bot*%
%TF.FilePolarity,Positive*%
%FSLAX46Y46*%
G04 Gerber Fmt 4.6, Leading zero omitted, Abs format (unit mm)*
G04 Created by KiCad (PCBNEW 9.0.6) date 2025-12-21 18:24:03*
%MOMM*%
%LPD*%
G01*
G04 APERTURE LIST*
G04 Aperture macros list*
%AMRoundRect*
0 Rectangle with rounded corners*
0 $1 Rounding radius*
0 $2 $3 $4 $5 $6 $7 $8 $9 X,Y pos of 4 corners*
0 Add a 4 corners polygon primitive as box body*
4,1,4,$2,$3,$4,$5,$6,$7,$8,$9,$2,$3,0*
0 Add four circle primitives for the rounded corners*
1,1,$1+$1,$2,$3*
1,1,$1+$1,$4,$5*
1,1,$1+$1,$6,$7*
1,1,$1+$1,$8,$9*
0 Add four rect primitives between the rounded corners*
20,1,$1+$1,$2,$3,$4,$5,0*
20,1,$1+$1,$4,$5,$6,$7,0*
20,1,$1+$1,$6,$7,$8,$9,0*
20,1,$1+$1,$8,$9,$2,$3,0*%
%AMFreePoly0*
4,1,23,0.000000,0.745722,0.065263,0.745722,0.191342,0.711940,0.304381,0.646677,0.396677,0.554381,0.461940,0.441342,0.495722,0.315263,0.495722,0.250000,0.500000,0.250000,0.500000,-0.250000,0.495722,-0.250000,0.495722,-0.315263,0.461940,-0.441342,0.396677,-0.554381,0.304381,-0.646677,0.191342,-0.711940,0.065263,-0.745722,0.000000,-0.745722,0.000000,-0.750000,-0.500000,-0.750000,
-0.500000,0.750000,0.000000,0.750000,0.000000,0.745722,0.000000,0.745722,$1*%
%AMFreePoly1*
4,1,23,0.500000,-0.750000,0.000000,-0.750000,0.000000,-0.745722,-0.065263,-0.745722,-0.191342,-0.711940,-0.304381,-0.646677,-0.396677,-0.554381,-0.461940,-0.441342,-0.495722,-0.315263,-0.495722,-0.250000,-0.500000,-0.250000,-0.500000,0.250000,-0.495722,0.250000,-0.495722,0.315263,-0.461940,0.441342,-0.396677,0.554381,-0.304381,0.646677,-0.191342,0.711940,-0.065263,0.745722,0.000000,0.745722,
0.000000,0.750000,0.500000,0.750000,0.500000,-0.750000,0.500000,-0.750000,$1*%
G04 Aperture macros list end*
%ADD10C,0.300000*%
%ADD11C,0.150000*%
%ADD12C,0.200000*%
%ADD13C,0.250000*%
%ADD14C,0.120000*%
%ADD15C,1.000000*%
%ADD16C,2.000000*%
%ADD17C,0.000000*%
%ADD18RoundRect,0.237500X-0.287500X-0.237500X0.287500X-0.237500X0.287500X0.237500X-0.287500X0.237500X0*%
%ADD19RoundRect,0.237500X0.287500X0.237500X-0.287500X0.237500X-0.287500X-0.237500X0.287500X-0.237500X0*%
%ADD20FreePoly0,0.000000*%
%ADD21FreePoly1,0.000000*%
%ADD22FreePoly0,180.000000*%
%ADD23FreePoly1,180.000000*%
%ADD24R,1.700000X1.700000*%
%ADD25C,1.700000*%
%ADD26C,1.300000*%
%ADD27C,1.600000*%
%ADD28C,2.000000*%
%ADD29O,3.600000X2.000000*%
%ADD30RoundRect,0.250000X-1.550000X0.750000X-1.550000X-0.750000X1.550000X-0.750000X1.550000X0.750000X0*%
%ADD31O,3.600000X1.800000*%
%ADD32RoundRect,0.250000X-1.550000X0.650000X-1.550000X-0.650000X1.550000X-0.650000X1.550000X0.650000X0*%
G04 APERTURE END LIST*
D10*
G36*
X111244995Y-69995238D02*
G01*
X109114543Y-69995238D01*
X109114543Y-68792164D01*
X109281210Y-68792164D01*
X109281210Y-68850692D01*
X109303608Y-68904764D01*
X109344992Y-68946148D01*
X109399064Y-68968546D01*
X109428328Y-68971428D01*
X109992614Y-68971428D01*
X109992614Y-69528571D01*
X109428328Y-69528571D01*
X109399064Y-69531453D01*
X109344992Y-69553851D01*
X109303608Y-69595235D01*
X109281210Y-69649307D01*
X109281210Y-69707835D01*
X109303608Y-69761907D01*
X109344992Y-69803291D01*
X109399064Y-69825689D01*
X109428328Y-69828571D01*
X110928328Y-69828571D01*
X110957592Y-69825689D01*
X111011664Y-69803291D01*
X111053048Y-69761907D01*
X111075446Y-69707835D01*
X111075446Y-69649307D01*
X111053048Y-69595235D01*
X111011664Y-69553851D01*
X110957592Y-69531453D01*
X110928328Y-69528571D01*
X110292614Y-69528571D01*
X110292614Y-68971428D01*
X110928328Y-68971428D01*
X110957592Y-68968546D01*
X111011664Y-68946148D01*
X111053048Y-68904764D01*
X111075446Y-68850692D01*
X111075446Y-68792164D01*
X111053048Y-68738092D01*
X111011664Y-68696708D01*
X110957592Y-68674310D01*
X110928328Y-68671428D01*
X109428328Y-68671428D01*
X109399064Y-68674310D01*
X109344992Y-68696708D01*
X109303608Y-68738092D01*
X109281210Y-68792164D01*
X109114543Y-68792164D01*
X109114543Y-65292164D01*
X109281210Y-65292164D01*
X109281210Y-65350692D01*
X109303608Y-65404764D01*
X109344992Y-65446148D01*
X109399064Y-65468546D01*
X109428328Y-65471428D01*
X110778328Y-65471428D01*
X110778328Y-66035714D01*
X110781210Y-66064978D01*
X110803608Y-66119050D01*
X110844992Y-66160434D01*
X110899064Y-66182832D01*
X110957592Y-66182832D01*
X111011664Y-66160434D01*
X111053048Y-66119050D01*
X111075446Y-66064978D01*
X111078328Y-66035714D01*
X111078328Y-65321428D01*
X111075446Y-65292164D01*
X111053048Y-65238092D01*
X111011664Y-65196708D01*
X110957592Y-65174310D01*
X110928328Y-65171428D01*
X109428328Y-65171428D01*
X109399064Y-65174310D01*
X109344992Y-65196708D01*
X109303608Y-65238092D01*
X109281210Y-65292164D01*
X109114543Y-65292164D01*
X109114543Y-65004761D01*
X111244995Y-65004761D01*
X111244995Y-69995238D01*
G37*
G36*
X135244995Y-69995238D02*
G01*
X133114543Y-69995238D01*
X133114543Y-68792164D01*
X133281210Y-68792164D01*
X133281210Y-68850692D01*
X133303608Y-68904764D01*
X133344992Y-68946148D01*
X133399064Y-68968546D01*
X133428328Y-68971428D01*
X133992614Y-68971428D01*
X133992614Y-69528571D01*
X133428328Y-69528571D01*
X133399064Y-69531453D01*
X133344992Y-69553851D01*
X133303608Y-69595235D01*
X133281210Y-69649307D01*
X133281210Y-69707835D01*
X133303608Y-69761907D01*
X133344992Y-69803291D01*
X133399064Y-69825689D01*
X133428328Y-69828571D01*
X134928328Y-69828571D01*
X134957592Y-69825689D01*
X135011664Y-69803291D01*
X135053048Y-69761907D01*
X135075446Y-69707835D01*
X135075446Y-69649307D01*
X135053048Y-69595235D01*
X135011664Y-69553851D01*
X134957592Y-69531453D01*
X134928328Y-69528571D01*
X134292614Y-69528571D01*
X134292614Y-68971428D01*
X134928328Y-68971428D01*
X134957592Y-68968546D01*
X135011664Y-68946148D01*
X135053048Y-68904764D01*
X135075446Y-68850692D01*
X135075446Y-68792164D01*
X135053048Y-68738092D01*
X135011664Y-68696708D01*
X134957592Y-68674310D01*
X134928328Y-68671428D01*
X133428328Y-68671428D01*
X133399064Y-68674310D01*
X133344992Y-68696708D01*
X133303608Y-68738092D01*
X133281210Y-68792164D01*
X133114543Y-68792164D01*
X133114543Y-65292164D01*
X133281210Y-65292164D01*
X133281210Y-65350692D01*
X133303608Y-65404764D01*
X133344992Y-65446148D01*
X133399064Y-65468546D01*
X133428328Y-65471428D01*
X134778328Y-65471428D01*
X134778328Y-66035714D01*
X134781210Y-66064978D01*
X134803608Y-66119050D01*
X134844992Y-66160434D01*
X134899064Y-66182832D01*
X134957592Y-66182832D01*
X135011664Y-66160434D01*
X135053048Y-66119050D01*
X135075446Y-66064978D01*
X135078328Y-66035714D01*
X135078328Y-65321428D01*
X135075446Y-65292164D01*
X135053048Y-65238092D01*
X135011664Y-65196708D01*
X134957592Y-65174310D01*
X134928328Y-65171428D01*
X133428328Y-65171428D01*
X133399064Y-65174310D01*
X133344992Y-65196708D01*
X133303608Y-65238092D01*
X133281210Y-65292164D01*
X133114543Y-65292164D01*
X133114543Y-65004761D01*
X135244995Y-65004761D01*
X135244995Y-69995238D01*
G37*
G36*
X154742113Y-75563785D02*
G01*
X152971686Y-75563785D01*
X152971686Y-74649307D01*
X153138353Y-74649307D01*
X153138353Y-74707835D01*
X153160751Y-74761907D01*
X153202135Y-74803291D01*
X153256207Y-74825689D01*
X153285471Y-74828571D01*
X153706900Y-74828571D01*
X153706900Y-75250000D01*
X153709782Y-75279264D01*
X153732180Y-75333336D01*
X153773564Y-75374720D01*
X153827636Y-75397118D01*
X153886164Y-75397118D01*
X153940236Y-75374720D01*
X153981620Y-75333336D01*
X154004018Y-75279264D01*
X154006900Y-75250000D01*
X154006900Y-74828571D01*
X154428328Y-74828571D01*
X154457592Y-74825689D01*
X154511664Y-74803291D01*
X154553048Y-74761907D01*
X154575446Y-74707835D01*
X154575446Y-74649307D01*
X154553048Y-74595235D01*
X154511664Y-74553851D01*
X154457592Y-74531453D01*
X154428328Y-74528571D01*
X154006900Y-74528571D01*
X154006900Y-74107142D01*
X154004018Y-74077878D01*
X153981620Y-74023806D01*
X153940236Y-73982422D01*
X153886164Y-73960024D01*
X153827636Y-73960024D01*
X153773564Y-73982422D01*
X153732180Y-74023806D01*
X153709782Y-74077878D01*
X153706900Y-74107142D01*
X153706900Y-74528571D01*
X153285471Y-74528571D01*
X153256207Y-74531453D01*
X153202135Y-74553851D01*
X153160751Y-74595235D01*
X153138353Y-74649307D01*
X152971686Y-74649307D01*
X152971686Y-72249999D01*
X153706900Y-72249999D01*
X153706900Y-73392857D01*
X153709782Y-73422121D01*
X153732180Y-73476193D01*
X153773564Y-73517577D01*
X153827636Y-73539975D01*
X153886164Y-73539975D01*
X153940236Y-73517577D01*
X153981620Y-73476193D01*
X154004018Y-73422121D01*
X154006900Y-73392857D01*
X154006900Y-72249999D01*
X154004018Y-72220735D01*
X153981620Y-72166663D01*
X153940236Y-72125279D01*
X153886164Y-72102881D01*
X153827636Y-72102881D01*
X153773564Y-72125279D01*
X153732180Y-72166663D01*
X153709782Y-72220735D01*
X153706900Y-72249999D01*
X152971686Y-72249999D01*
X152971686Y-71936214D01*
X154742113Y-71936214D01*
X154742113Y-75563785D01*
G37*
G36*
X154742113Y-63063785D02*
G01*
X152971686Y-63063785D01*
X152971686Y-62149307D01*
X153138353Y-62149307D01*
X153138353Y-62207835D01*
X153160751Y-62261907D01*
X153202135Y-62303291D01*
X153256207Y-62325689D01*
X153285471Y-62328571D01*
X153706900Y-62328571D01*
X153706900Y-62750000D01*
X153709782Y-62779264D01*
X153732180Y-62833336D01*
X153773564Y-62874720D01*
X153827636Y-62897118D01*
X153886164Y-62897118D01*
X153940236Y-62874720D01*
X153981620Y-62833336D01*
X154004018Y-62779264D01*
X154006900Y-62750000D01*
X154006900Y-62328571D01*
X154428328Y-62328571D01*
X154457592Y-62325689D01*
X154511664Y-62303291D01*
X154553048Y-62261907D01*
X154575446Y-62207835D01*
X154575446Y-62149307D01*
X154553048Y-62095235D01*
X154511664Y-62053851D01*
X154457592Y-62031453D01*
X154428328Y-62028571D01*
X154006900Y-62028571D01*
X154006900Y-61607142D01*
X154004018Y-61577878D01*
X153981620Y-61523806D01*
X153940236Y-61482422D01*
X153886164Y-61460024D01*
X153827636Y-61460024D01*
X153773564Y-61482422D01*
X153732180Y-61523806D01*
X153709782Y-61577878D01*
X153706900Y-61607142D01*
X153706900Y-62028571D01*
X153285471Y-62028571D01*
X153256207Y-62031453D01*
X153202135Y-62053851D01*
X153160751Y-62095235D01*
X153138353Y-62149307D01*
X152971686Y-62149307D01*
X152971686Y-59749999D01*
X153706900Y-59749999D01*
X153706900Y-60892857D01*
X153709782Y-60922121D01*
X153732180Y-60976193D01*
X153773564Y-61017577D01*
X153827636Y-61039975D01*
X153886164Y-61039975D01*
X153940236Y-61017577D01*
X153981620Y-60976193D01*
X154004018Y-60922121D01*
X154006900Y-60892857D01*
X154006900Y-59749999D01*
X154004018Y-59720735D01*
X153981620Y-59666663D01*
X153940236Y-59625279D01*
X153886164Y-59602881D01*
X153827636Y-59602881D01*
X153773564Y-59625279D01*
X153732180Y-59666663D01*
X153709782Y-59720735D01*
X153706900Y-59749999D01*
X152971686Y-59749999D01*
X152971686Y-59436214D01*
X154742113Y-59436214D01*
X154742113Y-63063785D01*
G37*
D11*
X113250000Y-52750000D02*
X116250000Y-52750000D01*
X104250000Y-52750000D02*
X104250000Y-59092501D01*
X116250000Y-52750000D02*
X116250000Y-59092501D01*
X107250000Y-52750000D02*
X104250000Y-52750000D01*
D12*
G36*
X107746891Y-52657707D02*
G01*
X107769046Y-52702016D01*
X107769046Y-52746904D01*
X107497560Y-52692607D01*
X107515011Y-52657706D01*
X107559320Y-52635552D01*
X107702582Y-52635552D01*
X107746891Y-52657707D01*
G37*
G36*
X111254114Y-52816504D02*
G01*
X111055409Y-52816504D01*
X111154761Y-52518446D01*
X111254114Y-52816504D01*
G37*
G36*
X113317467Y-53413330D02*
G01*
X107181745Y-53413330D01*
X107181745Y-52678409D01*
X107292856Y-52678409D01*
X107292856Y-52773647D01*
X107294777Y-52793156D01*
X107298526Y-52802208D01*
X107300428Y-52811819D01*
X107305920Y-52820057D01*
X107309709Y-52829204D01*
X107316635Y-52836130D01*
X107322071Y-52844284D01*
X107330299Y-52849794D01*
X107337299Y-52856794D01*
X107346350Y-52860543D01*
X107354491Y-52865995D01*
X107373244Y-52871705D01*
X107373345Y-52871725D01*
X107373347Y-52871726D01*
X107373349Y-52871726D01*
X107769046Y-52950865D01*
X107769046Y-53035754D01*
X107746891Y-53080063D01*
X107702582Y-53102219D01*
X107559320Y-53102219D01*
X107485196Y-53065157D01*
X107466888Y-53058151D01*
X107427968Y-53055385D01*
X107390952Y-53067724D01*
X107361475Y-53093288D01*
X107344026Y-53128187D01*
X107341260Y-53167107D01*
X107353599Y-53204123D01*
X107379163Y-53233600D01*
X107395754Y-53244043D01*
X107490991Y-53291662D01*
X107509300Y-53298668D01*
X107512883Y-53298922D01*
X107516204Y-53300298D01*
X107535713Y-53302219D01*
X107726189Y-53302219D01*
X107745698Y-53300298D01*
X107749018Y-53298922D01*
X107752602Y-53298668D01*
X107770910Y-53291662D01*
X107866148Y-53244043D01*
X107869410Y-53241989D01*
X107870950Y-53241476D01*
X107872866Y-53239813D01*
X107882738Y-53233600D01*
X107890953Y-53224126D01*
X107900427Y-53215911D01*
X107906640Y-53206039D01*
X107908303Y-53204123D01*
X107908815Y-53202584D01*
X107910870Y-53199321D01*
X107958489Y-53104082D01*
X107965495Y-53085774D01*
X107965749Y-53082190D01*
X107967125Y-53078870D01*
X107969046Y-53059361D01*
X107969046Y-52678409D01*
X107967125Y-52658900D01*
X107965749Y-52655579D01*
X107965495Y-52651996D01*
X107958489Y-52633687D01*
X107916729Y-52550167D01*
X108103453Y-52550167D01*
X108108206Y-52569186D01*
X108346301Y-53235852D01*
X108354671Y-53253579D01*
X108358041Y-53257301D01*
X108360189Y-53261836D01*
X108371040Y-53271659D01*
X108380858Y-53282504D01*
X108385390Y-53284651D01*
X108389115Y-53288023D01*
X108402905Y-53292947D01*
X108416120Y-53299208D01*
X108421130Y-53299457D01*
X108425860Y-53301146D01*
X108440481Y-53300418D01*
X108455090Y-53301145D01*
X108459815Y-53299457D01*
X108464830Y-53299208D01*
X108478056Y-53292942D01*
X108491835Y-53288022D01*
X108495555Y-53284653D01*
X108500092Y-53282505D01*
X108509914Y-53271654D01*
X108520761Y-53261836D01*
X108522908Y-53257301D01*
X108526279Y-53253579D01*
X108534649Y-53235853D01*
X108772744Y-52569186D01*
X108777497Y-52550167D01*
X108776770Y-52535552D01*
X108959522Y-52535552D01*
X108959522Y-53202219D01*
X108961443Y-53221728D01*
X108976375Y-53257776D01*
X109003965Y-53285366D01*
X109040013Y-53300298D01*
X109079031Y-53300298D01*
X109115079Y-53285366D01*
X109142669Y-53257776D01*
X109157601Y-53221728D01*
X109159522Y-53202219D01*
X109159522Y-52535552D01*
X109157601Y-52516043D01*
X109294777Y-52516043D01*
X109294777Y-52555061D01*
X109309709Y-52591109D01*
X109337299Y-52618699D01*
X109373347Y-52633631D01*
X109392856Y-52635552D01*
X109530951Y-52635552D01*
X109530951Y-53035754D01*
X109508796Y-53080063D01*
X109464487Y-53102219D01*
X109392856Y-53102219D01*
X109373347Y-53104140D01*
X109337299Y-53119072D01*
X109309709Y-53146662D01*
X109294777Y-53182710D01*
X109294777Y-53221728D01*
X109309709Y-53257776D01*
X109337299Y-53285366D01*
X109373347Y-53300298D01*
X109392856Y-53302219D01*
X109488094Y-53302219D01*
X109507603Y-53300298D01*
X109510923Y-53298922D01*
X109514507Y-53298668D01*
X109532815Y-53291662D01*
X109628053Y-53244043D01*
X109631315Y-53241989D01*
X109632855Y-53241476D01*
X109634771Y-53239813D01*
X109644643Y-53233600D01*
X109652858Y-53224126D01*
X109662332Y-53215911D01*
X109668545Y-53206039D01*
X109670208Y-53204123D01*
X109670720Y-53202584D01*
X109672775Y-53199321D01*
X109720394Y-53104082D01*
X109727400Y-53085774D01*
X109727654Y-53082190D01*
X109729030Y-53078870D01*
X109730951Y-53059361D01*
X109730951Y-52635552D01*
X109773808Y-52635552D01*
X109793317Y-52633631D01*
X109829365Y-52618699D01*
X109856955Y-52591109D01*
X109865424Y-52570664D01*
X109960308Y-52570664D01*
X109963074Y-52609584D01*
X109980523Y-52644483D01*
X110010000Y-52670047D01*
X110047016Y-52682386D01*
X110085936Y-52679620D01*
X110104244Y-52672614D01*
X110178368Y-52635552D01*
X110321630Y-52635552D01*
X110381239Y-52665357D01*
X110405908Y-52690025D01*
X110435713Y-52749635D01*
X110435713Y-52988135D01*
X110405908Y-53047743D01*
X110381239Y-53072413D01*
X110321630Y-53102219D01*
X110178368Y-53102219D01*
X110104244Y-53065157D01*
X110085936Y-53058151D01*
X110047016Y-53055385D01*
X110010000Y-53067724D01*
X109980523Y-53093288D01*
X109963074Y-53128187D01*
X109960308Y-53167107D01*
X109972647Y-53204123D01*
X109998211Y-53233600D01*
X110014802Y-53244043D01*
X110110039Y-53291662D01*
X110128348Y-53298668D01*
X110131931Y-53298922D01*
X110135252Y-53300298D01*
X110154761Y-53302219D01*
X110345237Y-53302219D01*
X110364746Y-53300298D01*
X110368066Y-53298922D01*
X110371650Y-53298668D01*
X110389958Y-53291662D01*
X110485196Y-53244043D01*
X110493591Y-53238758D01*
X110496033Y-53237747D01*
X110498780Y-53235491D01*
X110501786Y-53233600D01*
X110503516Y-53231605D01*
X110511186Y-53225310D01*
X110546783Y-53189712D01*
X110722213Y-53189712D01*
X110724979Y-53228632D01*
X110742429Y-53263531D01*
X110771905Y-53289096D01*
X110808921Y-53301434D01*
X110847841Y-53298668D01*
X110882740Y-53281218D01*
X110908305Y-53251742D01*
X110916296Y-53233842D01*
X110988742Y-53016504D01*
X111320780Y-53016504D01*
X111393226Y-53233841D01*
X111401217Y-53251742D01*
X111426782Y-53281218D01*
X111461681Y-53298667D01*
X111500601Y-53301434D01*
X111537617Y-53289095D01*
X111567093Y-53263530D01*
X111584543Y-53228631D01*
X111587309Y-53189711D01*
X111585717Y-53182710D01*
X112437635Y-53182710D01*
X112437635Y-53221728D01*
X112452567Y-53257776D01*
X112480157Y-53285366D01*
X112516205Y-53300298D01*
X112535714Y-53302219D01*
X113107142Y-53302219D01*
X113126651Y-53300298D01*
X113162699Y-53285366D01*
X113190289Y-53257776D01*
X113205221Y-53221728D01*
X113205221Y-53182710D01*
X113190289Y-53146662D01*
X113162699Y-53119072D01*
X113126651Y-53104140D01*
X113107142Y-53102219D01*
X112921428Y-53102219D01*
X112921428Y-52491260D01*
X112941193Y-52511025D01*
X112948859Y-52517316D01*
X112950592Y-52519314D01*
X112953603Y-52521209D01*
X112956347Y-52523461D01*
X112958784Y-52524470D01*
X112967183Y-52529757D01*
X113062420Y-52577376D01*
X113080729Y-52584382D01*
X113119649Y-52587148D01*
X113156665Y-52574809D01*
X113186142Y-52549244D01*
X113203591Y-52514346D01*
X113206356Y-52475426D01*
X113194018Y-52438410D01*
X113168453Y-52408933D01*
X113151863Y-52398490D01*
X113071141Y-52358129D01*
X112994377Y-52281365D01*
X112904633Y-52146749D01*
X112904588Y-52146694D01*
X112904575Y-52146662D01*
X112904501Y-52146588D01*
X112892213Y-52131582D01*
X112883984Y-52126071D01*
X112876985Y-52119072D01*
X112867933Y-52115322D01*
X112859793Y-52109871D01*
X112850085Y-52107929D01*
X112840937Y-52104140D01*
X112831138Y-52104140D01*
X112821533Y-52102219D01*
X112811822Y-52104140D01*
X112801919Y-52104140D01*
X112792866Y-52107889D01*
X112783256Y-52109791D01*
X112775017Y-52115283D01*
X112765871Y-52119072D01*
X112758944Y-52125998D01*
X112750791Y-52131434D01*
X112745280Y-52139662D01*
X112738281Y-52146662D01*
X112734531Y-52155713D01*
X112729080Y-52163854D01*
X112727138Y-52173561D01*
X112723349Y-52182710D01*
X112721448Y-52202012D01*
X112721428Y-52202114D01*
X112721434Y-52202148D01*
X112721428Y-52202219D01*
X112721428Y-53102219D01*
X112535714Y-53102219D01*
X112516205Y-53104140D01*
X112480157Y-53119072D01*
X112452567Y-53146662D01*
X112437635Y-53182710D01*
X111585717Y-53182710D01*
X111582962Y-53170596D01*
X111249629Y-52170596D01*
X111241638Y-52152696D01*
X111236953Y-52147294D01*
X111233760Y-52140908D01*
X111224291Y-52132695D01*
X111216073Y-52123220D01*
X111209681Y-52120023D01*
X111204284Y-52115343D01*
X111192390Y-52111378D01*
X111181174Y-52105770D01*
X111174046Y-52105263D01*
X111167268Y-52103004D01*
X111154763Y-52103893D01*
X111142254Y-52103004D01*
X111135472Y-52105264D01*
X111128348Y-52105771D01*
X111117139Y-52111374D01*
X111105238Y-52115342D01*
X111099837Y-52120025D01*
X111093449Y-52123220D01*
X111085233Y-52132691D01*
X111075762Y-52140907D01*
X111072567Y-52147296D01*
X111067884Y-52152696D01*
X111059893Y-52170597D01*
X110726560Y-53170596D01*
X110722213Y-53189712D01*
X110546783Y-53189712D01*
X110558805Y-53177690D01*
X110565097Y-53170023D01*
X110567094Y-53168292D01*
X110568987Y-53165284D01*
X110571242Y-53162537D01*
X110572253Y-53160095D01*
X110577537Y-53151701D01*
X110625156Y-53056464D01*
X110632162Y-53038155D01*
X110632416Y-53034571D01*
X110633792Y-53031251D01*
X110635713Y-53011742D01*
X110635713Y-52726028D01*
X110633792Y-52706519D01*
X110632416Y-52703198D01*
X110632162Y-52699615D01*
X110625156Y-52681306D01*
X110577537Y-52586069D01*
X110572251Y-52577672D01*
X110571241Y-52575232D01*
X110568987Y-52572486D01*
X110567094Y-52569478D01*
X110565096Y-52567745D01*
X110558804Y-52560079D01*
X110511186Y-52512460D01*
X110503515Y-52506165D01*
X110501786Y-52504171D01*
X110498778Y-52502277D01*
X110496032Y-52500024D01*
X110493592Y-52499013D01*
X110485196Y-52493728D01*
X110389958Y-52446109D01*
X110371650Y-52439103D01*
X110368066Y-52438848D01*
X110364746Y-52437473D01*
X110345237Y-52435552D01*
X110154761Y-52435552D01*
X110135252Y-52437473D01*
X110131931Y-52438848D01*
X110128348Y-52439103D01*
X110110039Y-52446109D01*
X110014802Y-52493728D01*
X109998211Y-52504171D01*
X109972647Y-52533648D01*
X109960308Y-52570664D01*
X109865424Y-52570664D01*
X109871887Y-52555061D01*
X109871887Y-52516043D01*
X109856955Y-52479995D01*
X109829365Y-52452405D01*
X109793317Y-52437473D01*
X109773808Y-52435552D01*
X109730951Y-52435552D01*
X109730951Y-52202219D01*
X109729030Y-52182710D01*
X109714098Y-52146662D01*
X109686508Y-52119072D01*
X109650460Y-52104140D01*
X109611442Y-52104140D01*
X109575394Y-52119072D01*
X109547804Y-52146662D01*
X109532872Y-52182710D01*
X109530951Y-52202219D01*
X109530951Y-52435552D01*
X109392856Y-52435552D01*
X109373347Y-52437473D01*
X109337299Y-52452405D01*
X109309709Y-52479995D01*
X109294777Y-52516043D01*
X109157601Y-52516043D01*
X109142669Y-52479995D01*
X109115079Y-52452405D01*
X109079031Y-52437473D01*
X109040013Y-52437473D01*
X109003965Y-52452405D01*
X108976375Y-52479995D01*
X108961443Y-52516043D01*
X108959522Y-52535552D01*
X108776770Y-52535552D01*
X108775559Y-52511197D01*
X108758856Y-52475935D01*
X108729930Y-52449749D01*
X108693185Y-52436626D01*
X108654215Y-52438563D01*
X108618953Y-52455267D01*
X108592766Y-52484192D01*
X108584396Y-52501919D01*
X108440475Y-52904897D01*
X108296554Y-52501918D01*
X108288184Y-52484192D01*
X108261997Y-52455266D01*
X108226735Y-52438563D01*
X108187765Y-52436625D01*
X108151020Y-52449748D01*
X108122094Y-52475935D01*
X108105391Y-52511197D01*
X108103453Y-52550167D01*
X107916729Y-52550167D01*
X107910870Y-52538450D01*
X107908815Y-52535186D01*
X107908303Y-52533648D01*
X107906641Y-52531732D01*
X107900427Y-52521859D01*
X107890951Y-52513641D01*
X107882738Y-52504171D01*
X107872866Y-52497957D01*
X107870950Y-52496295D01*
X107869411Y-52495781D01*
X107866148Y-52493728D01*
X107770910Y-52446109D01*
X107752602Y-52439103D01*
X107749018Y-52438848D01*
X107745698Y-52437473D01*
X107726189Y-52435552D01*
X107535713Y-52435552D01*
X107516204Y-52437473D01*
X107512883Y-52438848D01*
X107509300Y-52439103D01*
X107490991Y-52446109D01*
X107395754Y-52493728D01*
X107392490Y-52495782D01*
X107390952Y-52496295D01*
X107389036Y-52497956D01*
X107379163Y-52504171D01*
X107370945Y-52513646D01*
X107361475Y-52521860D01*
X107355261Y-52531731D01*
X107353599Y-52533648D01*
X107353085Y-52535186D01*
X107351032Y-52538450D01*
X107303413Y-52633688D01*
X107296407Y-52651996D01*
X107296152Y-52655579D01*
X107294777Y-52658900D01*
X107292856Y-52678409D01*
X107181745Y-52678409D01*
X107181745Y-52230329D01*
X108913824Y-52230329D01*
X108913824Y-52269347D01*
X108928756Y-52305395D01*
X108941192Y-52320549D01*
X108988811Y-52368167D01*
X109003964Y-52380604D01*
X109010814Y-52383441D01*
X109040013Y-52395536D01*
X109079031Y-52395536D01*
X109115079Y-52380604D01*
X109130233Y-52368168D01*
X109177851Y-52320549D01*
X109190288Y-52305396D01*
X109205219Y-52269347D01*
X109205219Y-52230329D01*
X109203735Y-52226746D01*
X109190288Y-52194280D01*
X109177851Y-52179127D01*
X109130233Y-52131508D01*
X109115079Y-52119072D01*
X109079031Y-52104140D01*
X109040013Y-52104140D01*
X109014522Y-52114698D01*
X109003964Y-52119072D01*
X108988811Y-52131509D01*
X108941192Y-52179127D01*
X108928757Y-52194280D01*
X108928756Y-52194281D01*
X108913824Y-52230329D01*
X107181745Y-52230329D01*
X107181745Y-51991108D01*
X113317467Y-51991108D01*
X113317467Y-53413330D01*
G37*
D11*
X128267500Y-52750000D02*
X128267500Y-59092501D01*
X131250000Y-52750000D02*
X128267500Y-52750000D01*
X140267500Y-52750000D02*
X140267500Y-59092501D01*
X137250000Y-52750000D02*
X140267500Y-52750000D01*
D12*
G36*
X131746891Y-52657707D02*
G01*
X131769046Y-52702016D01*
X131769046Y-52746904D01*
X131497560Y-52692607D01*
X131515011Y-52657706D01*
X131559320Y-52635552D01*
X131702582Y-52635552D01*
X131746891Y-52657707D01*
G37*
G36*
X136905049Y-52332024D02*
G01*
X136929718Y-52356692D01*
X136965171Y-52427599D01*
X137007142Y-52595480D01*
X137007142Y-52808956D01*
X136965171Y-52976837D01*
X136929718Y-53047743D01*
X136905049Y-53072413D01*
X136845440Y-53102219D01*
X136797416Y-53102219D01*
X136737806Y-53072414D01*
X136713139Y-53047746D01*
X136677684Y-52976837D01*
X136635714Y-52808956D01*
X136635714Y-52595481D01*
X136677684Y-52427599D01*
X136713138Y-52356692D01*
X136737806Y-52332023D01*
X136797416Y-52302219D01*
X136845440Y-52302219D01*
X136905049Y-52332024D01*
G37*
G36*
X135254114Y-52816504D02*
G01*
X135055409Y-52816504D01*
X135154761Y-52518446D01*
X135254114Y-52816504D01*
G37*
G36*
X137318253Y-53413330D02*
G01*
X131181745Y-53413330D01*
X131181745Y-52678409D01*
X131292856Y-52678409D01*
X131292856Y-52773647D01*
X131294777Y-52793156D01*
X131298526Y-52802208D01*
X131300428Y-52811819D01*
X131305920Y-52820057D01*
X131309709Y-52829204D01*
X131316635Y-52836130D01*
X131322071Y-52844284D01*
X131330299Y-52849794D01*
X131337299Y-52856794D01*
X131346350Y-52860543D01*
X131354491Y-52865995D01*
X131373244Y-52871705D01*
X131373345Y-52871725D01*
X131373347Y-52871726D01*
X131373349Y-52871726D01*
X131769046Y-52950865D01*
X131769046Y-53035754D01*
X131746891Y-53080063D01*
X131702582Y-53102219D01*
X131559320Y-53102219D01*
X131485196Y-53065157D01*
X131466888Y-53058151D01*
X131427968Y-53055385D01*
X131390952Y-53067724D01*
X131361475Y-53093288D01*
X131344026Y-53128187D01*
X131341260Y-53167107D01*
X131353599Y-53204123D01*
X131379163Y-53233600D01*
X131395754Y-53244043D01*
X131490991Y-53291662D01*
X131509300Y-53298668D01*
X131512883Y-53298922D01*
X131516204Y-53300298D01*
X131535713Y-53302219D01*
X131726189Y-53302219D01*
X131745698Y-53300298D01*
X131749018Y-53298922D01*
X131752602Y-53298668D01*
X131770910Y-53291662D01*
X131866148Y-53244043D01*
X131869410Y-53241989D01*
X131870950Y-53241476D01*
X131872866Y-53239813D01*
X131882738Y-53233600D01*
X131890953Y-53224126D01*
X131900427Y-53215911D01*
X131906640Y-53206039D01*
X131908303Y-53204123D01*
X131908815Y-53202584D01*
X131910870Y-53199321D01*
X131958489Y-53104082D01*
X131965495Y-53085774D01*
X131965749Y-53082190D01*
X131967125Y-53078870D01*
X131969046Y-53059361D01*
X131969046Y-52678409D01*
X131967125Y-52658900D01*
X131965749Y-52655579D01*
X131965495Y-52651996D01*
X131958489Y-52633687D01*
X131916729Y-52550167D01*
X132103453Y-52550167D01*
X132108206Y-52569186D01*
X132346301Y-53235852D01*
X132354671Y-53253579D01*
X132358041Y-53257301D01*
X132360189Y-53261836D01*
X132371040Y-53271659D01*
X132380858Y-53282504D01*
X132385390Y-53284651D01*
X132389115Y-53288023D01*
X132402905Y-53292947D01*
X132416120Y-53299208D01*
X132421130Y-53299457D01*
X132425860Y-53301146D01*
X132440481Y-53300418D01*
X132455090Y-53301145D01*
X132459815Y-53299457D01*
X132464830Y-53299208D01*
X132478056Y-53292942D01*
X132491835Y-53288022D01*
X132495555Y-53284653D01*
X132500092Y-53282505D01*
X132509914Y-53271654D01*
X132520761Y-53261836D01*
X132522908Y-53257301D01*
X132526279Y-53253579D01*
X132534649Y-53235853D01*
X132772744Y-52569186D01*
X132777497Y-52550167D01*
X132776770Y-52535552D01*
X132959522Y-52535552D01*
X132959522Y-53202219D01*
X132961443Y-53221728D01*
X132976375Y-53257776D01*
X133003965Y-53285366D01*
X133040013Y-53300298D01*
X133079031Y-53300298D01*
X133115079Y-53285366D01*
X133142669Y-53257776D01*
X133157601Y-53221728D01*
X133159522Y-53202219D01*
X133159522Y-52535552D01*
X133157601Y-52516043D01*
X133294777Y-52516043D01*
X133294777Y-52555061D01*
X133309709Y-52591109D01*
X133337299Y-52618699D01*
X133373347Y-52633631D01*
X133392856Y-52635552D01*
X133530951Y-52635552D01*
X133530951Y-53035754D01*
X133508796Y-53080063D01*
X133464487Y-53102219D01*
X133392856Y-53102219D01*
X133373347Y-53104140D01*
X133337299Y-53119072D01*
X133309709Y-53146662D01*
X133294777Y-53182710D01*
X133294777Y-53221728D01*
X133309709Y-53257776D01*
X133337299Y-53285366D01*
X133373347Y-53300298D01*
X133392856Y-53302219D01*
X133488094Y-53302219D01*
X133507603Y-53300298D01*
X133510923Y-53298922D01*
X133514507Y-53298668D01*
X133532815Y-53291662D01*
X133628053Y-53244043D01*
X133631315Y-53241989D01*
X133632855Y-53241476D01*
X133634771Y-53239813D01*
X133644643Y-53233600D01*
X133652858Y-53224126D01*
X133662332Y-53215911D01*
X133668545Y-53206039D01*
X133670208Y-53204123D01*
X133670720Y-53202584D01*
X133672775Y-53199321D01*
X133720394Y-53104082D01*
X133727400Y-53085774D01*
X133727654Y-53082190D01*
X133729030Y-53078870D01*
X133730951Y-53059361D01*
X133730951Y-52635552D01*
X133773808Y-52635552D01*
X133793317Y-52633631D01*
X133829365Y-52618699D01*
X133856955Y-52591109D01*
X133865424Y-52570664D01*
X133960308Y-52570664D01*
X133963074Y-52609584D01*
X133980523Y-52644483D01*
X134010000Y-52670047D01*
X134047016Y-52682386D01*
X134085936Y-52679620D01*
X134104244Y-52672614D01*
X134178368Y-52635552D01*
X134321630Y-52635552D01*
X134381239Y-52665357D01*
X134405908Y-52690025D01*
X134435713Y-52749635D01*
X134435713Y-52988135D01*
X134405908Y-53047743D01*
X134381239Y-53072413D01*
X134321630Y-53102219D01*
X134178368Y-53102219D01*
X134104244Y-53065157D01*
X134085936Y-53058151D01*
X134047016Y-53055385D01*
X134010000Y-53067724D01*
X133980523Y-53093288D01*
X133963074Y-53128187D01*
X133960308Y-53167107D01*
X133972647Y-53204123D01*
X133998211Y-53233600D01*
X134014802Y-53244043D01*
X134110039Y-53291662D01*
X134128348Y-53298668D01*
X134131931Y-53298922D01*
X134135252Y-53300298D01*
X134154761Y-53302219D01*
X134345237Y-53302219D01*
X134364746Y-53300298D01*
X134368066Y-53298922D01*
X134371650Y-53298668D01*
X134389958Y-53291662D01*
X134485196Y-53244043D01*
X134493591Y-53238758D01*
X134496033Y-53237747D01*
X134498780Y-53235491D01*
X134501786Y-53233600D01*
X134503516Y-53231605D01*
X134511186Y-53225310D01*
X134546783Y-53189712D01*
X134722213Y-53189712D01*
X134724979Y-53228632D01*
X134742429Y-53263531D01*
X134771905Y-53289096D01*
X134808921Y-53301434D01*
X134847841Y-53298668D01*
X134882740Y-53281218D01*
X134908305Y-53251742D01*
X134916296Y-53233842D01*
X134988742Y-53016504D01*
X135320780Y-53016504D01*
X135393226Y-53233841D01*
X135401217Y-53251742D01*
X135426782Y-53281218D01*
X135461681Y-53298667D01*
X135500601Y-53301434D01*
X135537617Y-53289095D01*
X135567093Y-53263530D01*
X135584543Y-53228631D01*
X135587309Y-53189711D01*
X135582962Y-53170596D01*
X135387154Y-52583171D01*
X136435714Y-52583171D01*
X136435714Y-52821266D01*
X136436049Y-52824668D01*
X136435832Y-52826127D01*
X136436911Y-52833424D01*
X136437635Y-52840775D01*
X136438199Y-52842138D01*
X136438700Y-52845520D01*
X136486319Y-53035995D01*
X136486832Y-53037432D01*
X136486884Y-53038155D01*
X136489992Y-53046279D01*
X136492914Y-53054456D01*
X136493344Y-53055036D01*
X136493890Y-53056463D01*
X136541509Y-53151701D01*
X136546792Y-53160093D01*
X136547804Y-53162537D01*
X136550060Y-53165286D01*
X136551952Y-53168291D01*
X136553946Y-53170020D01*
X136560241Y-53177690D01*
X136607859Y-53225310D01*
X136615527Y-53231603D01*
X136617259Y-53233600D01*
X136620267Y-53235493D01*
X136623013Y-53237747D01*
X136625453Y-53238757D01*
X136633850Y-53244043D01*
X136729087Y-53291662D01*
X136747396Y-53298668D01*
X136750979Y-53298922D01*
X136754300Y-53300298D01*
X136773809Y-53302219D01*
X136869047Y-53302219D01*
X136888556Y-53300298D01*
X136891876Y-53298922D01*
X136895460Y-53298668D01*
X136913768Y-53291662D01*
X137009006Y-53244043D01*
X137017401Y-53238758D01*
X137019843Y-53237747D01*
X137022590Y-53235491D01*
X137025596Y-53233600D01*
X137027326Y-53231605D01*
X137034996Y-53225310D01*
X137082615Y-53177690D01*
X137088907Y-53170023D01*
X137090904Y-53168292D01*
X137092797Y-53165284D01*
X137095052Y-53162537D01*
X137096063Y-53160095D01*
X137101347Y-53151701D01*
X137148966Y-53056464D01*
X137149512Y-53055035D01*
X137149942Y-53054456D01*
X137152863Y-53046279D01*
X137155972Y-53038155D01*
X137156023Y-53037434D01*
X137156537Y-53035996D01*
X137204156Y-52845520D01*
X137204656Y-52842138D01*
X137205221Y-52840775D01*
X137205944Y-52833424D01*
X137207024Y-52826127D01*
X137206806Y-52824668D01*
X137207142Y-52821266D01*
X137207142Y-52583171D01*
X137206806Y-52579768D01*
X137207024Y-52578310D01*
X137205944Y-52571012D01*
X137205221Y-52563662D01*
X137204656Y-52562298D01*
X137204156Y-52558917D01*
X137156537Y-52368441D01*
X137156023Y-52367002D01*
X137155972Y-52366282D01*
X137152863Y-52358157D01*
X137149942Y-52349981D01*
X137149512Y-52349401D01*
X137148966Y-52347973D01*
X137101347Y-52252736D01*
X137096061Y-52244339D01*
X137095051Y-52241899D01*
X137092797Y-52239153D01*
X137090904Y-52236145D01*
X137088906Y-52234412D01*
X137082614Y-52226746D01*
X137034996Y-52179127D01*
X137027325Y-52172832D01*
X137025596Y-52170838D01*
X137022588Y-52168944D01*
X137019842Y-52166691D01*
X137017402Y-52165680D01*
X137009006Y-52160395D01*
X136913768Y-52112776D01*
X136895460Y-52105770D01*
X136891876Y-52105515D01*
X136888556Y-52104140D01*
X136869047Y-52102219D01*
X136773809Y-52102219D01*
X136754300Y-52104140D01*
X136750979Y-52105515D01*
X136747396Y-52105770D01*
X136729087Y-52112776D01*
X136633850Y-52160395D01*
X136625453Y-52165680D01*
X136623013Y-52166691D01*
X136620267Y-52168944D01*
X136617259Y-52170838D01*
X136615526Y-52172835D01*
X136607860Y-52179128D01*
X136560241Y-52226746D01*
X136553946Y-52234416D01*
X136551952Y-52236146D01*
X136550058Y-52239153D01*
X136547805Y-52241900D01*
X136546794Y-52244339D01*
X136541509Y-52252736D01*
X136493890Y-52347974D01*
X136493344Y-52349400D01*
X136492914Y-52349981D01*
X136489992Y-52358157D01*
X136486884Y-52366282D01*
X136486832Y-52367004D01*
X136486319Y-52368442D01*
X136438700Y-52558917D01*
X136438199Y-52562298D01*
X136437635Y-52563662D01*
X136436911Y-52571012D01*
X136435832Y-52578310D01*
X136436049Y-52579768D01*
X136435714Y-52583171D01*
X135387154Y-52583171D01*
X135249629Y-52170596D01*
X135241638Y-52152696D01*
X135236953Y-52147294D01*
X135233760Y-52140908D01*
X135224291Y-52132695D01*
X135216073Y-52123220D01*
X135209681Y-52120023D01*
X135204284Y-52115343D01*
X135192390Y-52111378D01*
X135181174Y-52105770D01*
X135174046Y-52105263D01*
X135167268Y-52103004D01*
X135154763Y-52103893D01*
X135142254Y-52103004D01*
X135135472Y-52105264D01*
X135128348Y-52105771D01*
X135117139Y-52111374D01*
X135105238Y-52115342D01*
X135099837Y-52120025D01*
X135093449Y-52123220D01*
X135085233Y-52132691D01*
X135075762Y-52140907D01*
X135072567Y-52147296D01*
X135067884Y-52152696D01*
X135059893Y-52170597D01*
X134726560Y-53170596D01*
X134722213Y-53189712D01*
X134546783Y-53189712D01*
X134558805Y-53177690D01*
X134565097Y-53170023D01*
X134567094Y-53168292D01*
X134568987Y-53165284D01*
X134571242Y-53162537D01*
X134572253Y-53160095D01*
X134577537Y-53151701D01*
X134625156Y-53056464D01*
X134632162Y-53038155D01*
X134632416Y-53034571D01*
X134633792Y-53031251D01*
X134635713Y-53011742D01*
X134635713Y-52726028D01*
X134633792Y-52706519D01*
X134632416Y-52703198D01*
X134632162Y-52699615D01*
X134625156Y-52681306D01*
X134577537Y-52586069D01*
X134572251Y-52577672D01*
X134571241Y-52575232D01*
X134568987Y-52572486D01*
X134567094Y-52569478D01*
X134565096Y-52567745D01*
X134558804Y-52560079D01*
X134511186Y-52512460D01*
X134503515Y-52506165D01*
X134501786Y-52504171D01*
X134498778Y-52502277D01*
X134496032Y-52500024D01*
X134493592Y-52499013D01*
X134485196Y-52493728D01*
X134389958Y-52446109D01*
X134371650Y-52439103D01*
X134368066Y-52438848D01*
X134364746Y-52437473D01*
X134345237Y-52435552D01*
X134154761Y-52435552D01*
X134135252Y-52437473D01*
X134131931Y-52438848D01*
X134128348Y-52439103D01*
X134110039Y-52446109D01*
X134014802Y-52493728D01*
X133998211Y-52504171D01*
X133972647Y-52533648D01*
X133960308Y-52570664D01*
X133865424Y-52570664D01*
X133871887Y-52555061D01*
X133871887Y-52516043D01*
X133856955Y-52479995D01*
X133829365Y-52452405D01*
X133793317Y-52437473D01*
X133773808Y-52435552D01*
X133730951Y-52435552D01*
X133730951Y-52202219D01*
X133729030Y-52182710D01*
X133714098Y-52146662D01*
X133686508Y-52119072D01*
X133650460Y-52104140D01*
X133611442Y-52104140D01*
X133575394Y-52119072D01*
X133547804Y-52146662D01*
X133532872Y-52182710D01*
X133530951Y-52202219D01*
X133530951Y-52435552D01*
X133392856Y-52435552D01*
X133373347Y-52437473D01*
X133337299Y-52452405D01*
X133309709Y-52479995D01*
X133294777Y-52516043D01*
X133157601Y-52516043D01*
X133142669Y-52479995D01*
X133115079Y-52452405D01*
X133079031Y-52437473D01*
X133040013Y-52437473D01*
X133003965Y-52452405D01*
X132976375Y-52479995D01*
X132961443Y-52516043D01*
X132959522Y-52535552D01*
X132776770Y-52535552D01*
X132775559Y-52511197D01*
X132758856Y-52475935D01*
X132729930Y-52449749D01*
X132693185Y-52436626D01*
X132654215Y-52438563D01*
X132618953Y-52455267D01*
X132592766Y-52484192D01*
X132584396Y-52501919D01*
X132440475Y-52904897D01*
X132296554Y-52501918D01*
X132288184Y-52484192D01*
X132261997Y-52455266D01*
X132226735Y-52438563D01*
X132187765Y-52436625D01*
X132151020Y-52449748D01*
X132122094Y-52475935D01*
X132105391Y-52511197D01*
X132103453Y-52550167D01*
X131916729Y-52550167D01*
X131910870Y-52538450D01*
X131908815Y-52535186D01*
X131908303Y-52533648D01*
X131906641Y-52531732D01*
X131900427Y-52521859D01*
X131890951Y-52513641D01*
X131882738Y-52504171D01*
X131872866Y-52497957D01*
X131870950Y-52496295D01*
X131869411Y-52495781D01*
X131866148Y-52493728D01*
X131770910Y-52446109D01*
X131752602Y-52439103D01*
X131749018Y-52438848D01*
X131745698Y-52437473D01*
X131726189Y-52435552D01*
X131535713Y-52435552D01*
X131516204Y-52437473D01*
X131512883Y-52438848D01*
X131509300Y-52439103D01*
X131490991Y-52446109D01*
X131395754Y-52493728D01*
X131392490Y-52495782D01*
X131390952Y-52496295D01*
X131389036Y-52497956D01*
X131379163Y-52504171D01*
X131370945Y-52513646D01*
X131361475Y-52521860D01*
X131355261Y-52531731D01*
X131353599Y-52533648D01*
X131353085Y-52535186D01*
X131351032Y-52538450D01*
X131303413Y-52633688D01*
X131296407Y-52651996D01*
X131296152Y-52655579D01*
X131294777Y-52658900D01*
X131292856Y-52678409D01*
X131181745Y-52678409D01*
X131181745Y-52230329D01*
X132913824Y-52230329D01*
X132913824Y-52269347D01*
X132928756Y-52305395D01*
X132941192Y-52320549D01*
X132988811Y-52368167D01*
X133003964Y-52380604D01*
X133014522Y-52384977D01*
X133040013Y-52395536D01*
X133079031Y-52395536D01*
X133115079Y-52380604D01*
X133130233Y-52368168D01*
X133177851Y-52320549D01*
X133190288Y-52305396D01*
X133205219Y-52269347D01*
X133205219Y-52230329D01*
X133203735Y-52226746D01*
X133190288Y-52194280D01*
X133177851Y-52179127D01*
X133130233Y-52131508D01*
X133115079Y-52119072D01*
X133079031Y-52104140D01*
X133040013Y-52104140D01*
X133014522Y-52114698D01*
X133003964Y-52119072D01*
X132988811Y-52131509D01*
X132941192Y-52179127D01*
X132928757Y-52194280D01*
X132928756Y-52194281D01*
X132913824Y-52230329D01*
X131181745Y-52230329D01*
X131181745Y-51991108D01*
X137318253Y-51991108D01*
X137318253Y-53413330D01*
G37*
G36*
X147692607Y-81800056D02*
G01*
X147657707Y-81782606D01*
X147635552Y-81738296D01*
X147635552Y-81595035D01*
X147657707Y-81550725D01*
X147702016Y-81528571D01*
X147746905Y-81528571D01*
X147692607Y-81800056D01*
G37*
G36*
X148047746Y-79605996D02*
G01*
X148072414Y-79630663D01*
X148102219Y-79690273D01*
X148102219Y-79785916D01*
X148072414Y-79845525D01*
X148047746Y-79870192D01*
X147988135Y-79899999D01*
X147749635Y-79899999D01*
X147690025Y-79870194D01*
X147665357Y-79845525D01*
X147635552Y-79785915D01*
X147635552Y-79690273D01*
X147665357Y-79630663D01*
X147690025Y-79605994D01*
X147749635Y-79576190D01*
X147988135Y-79576190D01*
X148047746Y-79605996D01*
G37*
G36*
X147626028Y-78881154D02*
G01*
X147596223Y-78940763D01*
X147571554Y-78965431D01*
X147511945Y-78995237D01*
X147416302Y-78995237D01*
X147356692Y-78965432D01*
X147332024Y-78940763D01*
X147302219Y-78881153D01*
X147302219Y-78623809D01*
X147626028Y-78623809D01*
X147626028Y-78881154D01*
G37*
G36*
X148413330Y-82828237D02*
G01*
X146991108Y-82828237D01*
X146991108Y-82523809D01*
X147435552Y-82523809D01*
X147435552Y-82619047D01*
X147437473Y-82638556D01*
X147452405Y-82674604D01*
X147479995Y-82702194D01*
X147516043Y-82717126D01*
X147555061Y-82717126D01*
X147591109Y-82702194D01*
X147618699Y-82674604D01*
X147633631Y-82638556D01*
X147635552Y-82619047D01*
X147635552Y-82547416D01*
X147665357Y-82487806D01*
X147690025Y-82463137D01*
X147749635Y-82433333D01*
X148202219Y-82433333D01*
X148221728Y-82431412D01*
X148257776Y-82416480D01*
X148285366Y-82388890D01*
X148300298Y-82352842D01*
X148300298Y-82313824D01*
X148285366Y-82277776D01*
X148257776Y-82250186D01*
X148221728Y-82235254D01*
X148202219Y-82233333D01*
X147535552Y-82233333D01*
X147516043Y-82235254D01*
X147479995Y-82250186D01*
X147452405Y-82277776D01*
X147437473Y-82313824D01*
X147437473Y-82352842D01*
X147452405Y-82388890D01*
X147478273Y-82414758D01*
X147446109Y-82479088D01*
X147439103Y-82497396D01*
X147438848Y-82500979D01*
X147437473Y-82504300D01*
X147435552Y-82523809D01*
X146991108Y-82523809D01*
X146991108Y-81571428D01*
X147435552Y-81571428D01*
X147435552Y-81761904D01*
X147437473Y-81781413D01*
X147438848Y-81784733D01*
X147439103Y-81788317D01*
X147446109Y-81806625D01*
X147493728Y-81901863D01*
X147495781Y-81905126D01*
X147496295Y-81906665D01*
X147497957Y-81908581D01*
X147504171Y-81918453D01*
X147513641Y-81926666D01*
X147521859Y-81936142D01*
X147531732Y-81942356D01*
X147533648Y-81944018D01*
X147535186Y-81944530D01*
X147538450Y-81946585D01*
X147633687Y-81994204D01*
X147651996Y-82001210D01*
X147655579Y-82001464D01*
X147658900Y-82002840D01*
X147678409Y-82004761D01*
X147773542Y-82004761D01*
X147773647Y-82004761D01*
X147793156Y-82002840D01*
X147802208Y-81999090D01*
X147811819Y-81997189D01*
X147820057Y-81991696D01*
X147829204Y-81987908D01*
X147836130Y-81980981D01*
X147844284Y-81975546D01*
X147849794Y-81967317D01*
X147856794Y-81960318D01*
X147860543Y-81951266D01*
X147865995Y-81943126D01*
X147871705Y-81924373D01*
X147950865Y-81528571D01*
X148035754Y-81528571D01*
X148080064Y-81550725D01*
X148102219Y-81595035D01*
X148102219Y-81738297D01*
X148065157Y-81812421D01*
X148058151Y-81830729D01*
X148055385Y-81869649D01*
X148067724Y-81906665D01*
X148093288Y-81936142D01*
X148128187Y-81953591D01*
X148167107Y-81956357D01*
X148204123Y-81944018D01*
X148233600Y-81918454D01*
X148244043Y-81901863D01*
X148291662Y-81806626D01*
X148298668Y-81788317D01*
X148298922Y-81784733D01*
X148300298Y-81781413D01*
X148302219Y-81761904D01*
X148302219Y-81571428D01*
X148300298Y-81551919D01*
X148298922Y-81548598D01*
X148298668Y-81545015D01*
X148291662Y-81526706D01*
X148244043Y-81431469D01*
X148241989Y-81428206D01*
X148241476Y-81426666D01*
X148239812Y-81424748D01*
X148233600Y-81414878D01*
X148224125Y-81406661D01*
X148215911Y-81397190D01*
X148206039Y-81390976D01*
X148204123Y-81389314D01*
X148202584Y-81388800D01*
X148199321Y-81386747D01*
X148104082Y-81339128D01*
X148085773Y-81332122D01*
X148082190Y-81331867D01*
X148078870Y-81330492D01*
X148059361Y-81328571D01*
X147678409Y-81328571D01*
X147658900Y-81330492D01*
X147655579Y-81331867D01*
X147651996Y-81332122D01*
X147633687Y-81339128D01*
X147538450Y-81386747D01*
X147535186Y-81388801D01*
X147533648Y-81389314D01*
X147531732Y-81390975D01*
X147521859Y-81397190D01*
X147513641Y-81406665D01*
X147504171Y-81414879D01*
X147497957Y-81424750D01*
X147496295Y-81426667D01*
X147495781Y-81428205D01*
X147493728Y-81431469D01*
X147446109Y-81526707D01*
X147439103Y-81545015D01*
X147438848Y-81548598D01*
X147437473Y-81551919D01*
X147435552Y-81571428D01*
X146991108Y-81571428D01*
X146991108Y-80325147D01*
X147435887Y-80325147D01*
X147440341Y-80363910D01*
X147459290Y-80398018D01*
X147489849Y-80422279D01*
X147508080Y-80429485D01*
X147893482Y-80539599D01*
X147688889Y-80621437D01*
X147671489Y-80630466D01*
X147670599Y-80631334D01*
X147669461Y-80631822D01*
X147656670Y-80644927D01*
X147643565Y-80657718D01*
X147643077Y-80658856D01*
X147642209Y-80659746D01*
X147635389Y-80676794D01*
X147628195Y-80693582D01*
X147628179Y-80694818D01*
X147627718Y-80695973D01*
X147627941Y-80714285D01*
X147627718Y-80732597D01*
X147628179Y-80733751D01*
X147628195Y-80734988D01*
X147635389Y-80751775D01*
X147642209Y-80768824D01*
X147643077Y-80769713D01*
X147643565Y-80770852D01*
X147656670Y-80783642D01*
X147669461Y-80796748D01*
X147670599Y-80797235D01*
X147671489Y-80798104D01*
X147688889Y-80807133D01*
X147893482Y-80888970D01*
X147508080Y-80999085D01*
X147489849Y-81006291D01*
X147459290Y-81030552D01*
X147440341Y-81064660D01*
X147435887Y-81103423D01*
X147446606Y-81140940D01*
X147470867Y-81171499D01*
X147504975Y-81190448D01*
X147543738Y-81194902D01*
X147563024Y-81191389D01*
X148229691Y-81000913D01*
X148247922Y-80993707D01*
X148252923Y-80989736D01*
X148258786Y-80987224D01*
X148268067Y-80977713D01*
X148278481Y-80969446D01*
X148281580Y-80963866D01*
X148286037Y-80959300D01*
X148290974Y-80946957D01*
X148297429Y-80935338D01*
X148298157Y-80928999D01*
X148300528Y-80923073D01*
X148300365Y-80909784D01*
X148301884Y-80896575D01*
X148300129Y-80890435D01*
X148300052Y-80884057D01*
X148294818Y-80871845D01*
X148291165Y-80859058D01*
X148287194Y-80854057D01*
X148284682Y-80848194D01*
X148275170Y-80838911D01*
X148266904Y-80828499D01*
X148261326Y-80825400D01*
X148256758Y-80820942D01*
X148239358Y-80811913D01*
X147995287Y-80714285D01*
X148239358Y-80616657D01*
X148256758Y-80607628D01*
X148261326Y-80603169D01*
X148266904Y-80600071D01*
X148275170Y-80589658D01*
X148284682Y-80580376D01*
X148287194Y-80574512D01*
X148291165Y-80569512D01*
X148294818Y-80556724D01*
X148300052Y-80544513D01*
X148300129Y-80538134D01*
X148301884Y-80531995D01*
X148300365Y-80518785D01*
X148300528Y-80505497D01*
X148298157Y-80499570D01*
X148297429Y-80493232D01*
X148290974Y-80481612D01*
X148286037Y-80469270D01*
X148281580Y-80464703D01*
X148278481Y-80459124D01*
X148268067Y-80450856D01*
X148258786Y-80441346D01*
X148252923Y-80438833D01*
X148247922Y-80434863D01*
X148229691Y-80427657D01*
X147563024Y-80237181D01*
X147543738Y-80233668D01*
X147504975Y-80238122D01*
X147470867Y-80257071D01*
X147446606Y-80287630D01*
X147435887Y-80325147D01*
X146991108Y-80325147D01*
X146991108Y-79666666D01*
X147435552Y-79666666D01*
X147435552Y-79809523D01*
X147437473Y-79829032D01*
X147438848Y-79832352D01*
X147439103Y-79835936D01*
X147446109Y-79854244D01*
X147493728Y-79949482D01*
X147499013Y-79957878D01*
X147500024Y-79960318D01*
X147502277Y-79963064D01*
X147504171Y-79966072D01*
X147506165Y-79967801D01*
X147512460Y-79975472D01*
X147560079Y-80023090D01*
X147567745Y-80029382D01*
X147569478Y-80031380D01*
X147572486Y-80033273D01*
X147575232Y-80035527D01*
X147577672Y-80036537D01*
X147586069Y-80041823D01*
X147681306Y-80089442D01*
X147699615Y-80096448D01*
X147703198Y-80096702D01*
X147706519Y-80098078D01*
X147726028Y-80099999D01*
X148011742Y-80099999D01*
X148031251Y-80098078D01*
X148034571Y-80096702D01*
X148038155Y-80096448D01*
X148056463Y-80089442D01*
X148151701Y-80041823D01*
X148160093Y-80036539D01*
X148162537Y-80035528D01*
X148165286Y-80033271D01*
X148168291Y-80031380D01*
X148170020Y-80029385D01*
X148177690Y-80023091D01*
X148225310Y-79975473D01*
X148231603Y-79967804D01*
X148233600Y-79966073D01*
X148235493Y-79963064D01*
X148237747Y-79960319D01*
X148238757Y-79957878D01*
X148244043Y-79949482D01*
X148291662Y-79854245D01*
X148298668Y-79835936D01*
X148298922Y-79832352D01*
X148300298Y-79829032D01*
X148302219Y-79809523D01*
X148302219Y-79666666D01*
X148300298Y-79647157D01*
X148298922Y-79643836D01*
X148298668Y-79640253D01*
X148291662Y-79621944D01*
X148244043Y-79526707D01*
X148238757Y-79518310D01*
X148237747Y-79515870D01*
X148235493Y-79513124D01*
X148233600Y-79510116D01*
X148231603Y-79508384D01*
X148225310Y-79500716D01*
X148177690Y-79453098D01*
X148170020Y-79446803D01*
X148168291Y-79444809D01*
X148165286Y-79442917D01*
X148162537Y-79440661D01*
X148160093Y-79439649D01*
X148151701Y-79434366D01*
X148056463Y-79386747D01*
X148038155Y-79379741D01*
X148034571Y-79379486D01*
X148031251Y-79378111D01*
X148011742Y-79376190D01*
X147726028Y-79376190D01*
X147706519Y-79378111D01*
X147703198Y-79379486D01*
X147699615Y-79379741D01*
X147681306Y-79386747D01*
X147586069Y-79434366D01*
X147577672Y-79439651D01*
X147575232Y-79440662D01*
X147572486Y-79442915D01*
X147569478Y-79444809D01*
X147567745Y-79446806D01*
X147560079Y-79453099D01*
X147512460Y-79500717D01*
X147506165Y-79508387D01*
X147504171Y-79510117D01*
X147502277Y-79513124D01*
X147500024Y-79515871D01*
X147499013Y-79518310D01*
X147493728Y-79526707D01*
X147446109Y-79621945D01*
X147439103Y-79640253D01*
X147438848Y-79643836D01*
X147437473Y-79647157D01*
X147435552Y-79666666D01*
X146991108Y-79666666D01*
X146991108Y-78523809D01*
X147102219Y-78523809D01*
X147102219Y-78904761D01*
X147104140Y-78924270D01*
X147105515Y-78927590D01*
X147105770Y-78931174D01*
X147112776Y-78949482D01*
X147160395Y-79044720D01*
X147165680Y-79053116D01*
X147166691Y-79055556D01*
X147168944Y-79058302D01*
X147170838Y-79061310D01*
X147172832Y-79063039D01*
X147179127Y-79070710D01*
X147226746Y-79118328D01*
X147234412Y-79124620D01*
X147236145Y-79126618D01*
X147239153Y-79128511D01*
X147241899Y-79130765D01*
X147244339Y-79131775D01*
X147252736Y-79137061D01*
X147347973Y-79184680D01*
X147366282Y-79191686D01*
X147369865Y-79191940D01*
X147373186Y-79193316D01*
X147392695Y-79195237D01*
X147535552Y-79195237D01*
X147555061Y-79193316D01*
X147558381Y-79191940D01*
X147561965Y-79191686D01*
X147580273Y-79184680D01*
X147675511Y-79137061D01*
X147683907Y-79131775D01*
X147686347Y-79130765D01*
X147689093Y-79128511D01*
X147692101Y-79126618D01*
X147693830Y-79124623D01*
X147701501Y-79118329D01*
X147749119Y-79070710D01*
X147755411Y-79063043D01*
X147757409Y-79061311D01*
X147759302Y-79058302D01*
X147761556Y-79055557D01*
X147762566Y-79053116D01*
X147767852Y-79044720D01*
X147815471Y-78949483D01*
X147822477Y-78931174D01*
X147822731Y-78927590D01*
X147824107Y-78924270D01*
X147826028Y-78904761D01*
X147826028Y-78623809D01*
X148202219Y-78623809D01*
X148221728Y-78621888D01*
X148257776Y-78606956D01*
X148285366Y-78579366D01*
X148300298Y-78543318D01*
X148300298Y-78504300D01*
X148285366Y-78468252D01*
X148257776Y-78440662D01*
X148221728Y-78425730D01*
X148202219Y-78423809D01*
X147202219Y-78423809D01*
X147182710Y-78425730D01*
X147146662Y-78440662D01*
X147119072Y-78468252D01*
X147104140Y-78504300D01*
X147102219Y-78523809D01*
X146991108Y-78523809D01*
X146991108Y-78312698D01*
X148413330Y-78312698D01*
X148413330Y-82828237D01*
G37*
G36*
X128468311Y-80533773D02*
G01*
X128407099Y-80717408D01*
X128287646Y-80836861D01*
X128164357Y-80898505D01*
X127891716Y-80966666D01*
X127694906Y-80966666D01*
X127422264Y-80898506D01*
X127298976Y-80836861D01*
X127179523Y-80717408D01*
X127118311Y-80533772D01*
X127118311Y-80280952D01*
X128468311Y-80280952D01*
X128468311Y-80533773D01*
G37*
G36*
X120751928Y-80238398D02*
G01*
X120875217Y-80300042D01*
X120926077Y-80350901D01*
X120982072Y-80462891D01*
X120982072Y-80563297D01*
X120926077Y-80675286D01*
X120875216Y-80726147D01*
X120751930Y-80787790D01*
X120479286Y-80855952D01*
X120134857Y-80855952D01*
X119862213Y-80787790D01*
X119738926Y-80726147D01*
X119688067Y-80675287D01*
X119632072Y-80563296D01*
X119632072Y-80462892D01*
X119688066Y-80350903D01*
X119738925Y-80300043D01*
X119862215Y-80238397D01*
X120134857Y-80170238D01*
X120479287Y-80170238D01*
X120751928Y-80238398D01*
G37*
G36*
X115761102Y-80053874D02*
G01*
X115884391Y-80115518D01*
X115935251Y-80166377D01*
X115991246Y-80278367D01*
X115991246Y-80378773D01*
X115935251Y-80490762D01*
X115884390Y-80541623D01*
X115761104Y-80603266D01*
X115488460Y-80671428D01*
X115144031Y-80671428D01*
X114871387Y-80603266D01*
X114748100Y-80541623D01*
X114697241Y-80490763D01*
X114641246Y-80378772D01*
X114641246Y-80278368D01*
X114697240Y-80166379D01*
X114748099Y-80115519D01*
X114871389Y-80053873D01*
X115144031Y-79985714D01*
X115488461Y-79985714D01*
X115761102Y-80053874D01*
G37*
G36*
X118256515Y-80053874D02*
G01*
X118379804Y-80115518D01*
X118430664Y-80166377D01*
X118486659Y-80278367D01*
X118486659Y-80378773D01*
X118430664Y-80490762D01*
X118379803Y-80541623D01*
X118256517Y-80603266D01*
X117983873Y-80671428D01*
X117639444Y-80671428D01*
X117366800Y-80603266D01*
X117243513Y-80541623D01*
X117192654Y-80490763D01*
X117136659Y-80378772D01*
X117136659Y-80278368D01*
X117192653Y-80166379D01*
X117243512Y-80115519D01*
X117366802Y-80053873D01*
X117639444Y-79985714D01*
X117983874Y-79985714D01*
X118256515Y-80053874D01*
G37*
G36*
X125800344Y-79680771D02*
G01*
X125916903Y-79797330D01*
X125972898Y-79909319D01*
X125972898Y-80157344D01*
X125916903Y-80269333D01*
X125800344Y-80385892D01*
X125543921Y-80449999D01*
X125051874Y-80449999D01*
X124795453Y-80385893D01*
X124678892Y-80269332D01*
X124622898Y-80157343D01*
X124622898Y-79909320D01*
X124678892Y-79797331D01*
X124795453Y-79680770D01*
X125051874Y-79616666D01*
X125543922Y-79616666D01*
X125800344Y-79680771D01*
G37*
G36*
X112757738Y-77684725D02*
G01*
X112701741Y-77796718D01*
X112650883Y-77847576D01*
X112538893Y-77903571D01*
X112364678Y-77903571D01*
X112252687Y-77847576D01*
X112201828Y-77796716D01*
X112145833Y-77684725D01*
X112145833Y-77217857D01*
X112757738Y-77217857D01*
X112757738Y-77684725D01*
G37*
G36*
X120243977Y-77684725D02*
G01*
X120187980Y-77796718D01*
X120137122Y-77847576D01*
X120025132Y-77903571D01*
X119850917Y-77903571D01*
X119738926Y-77847576D01*
X119688067Y-77796716D01*
X119632072Y-77684725D01*
X119632072Y-77217857D01*
X120243977Y-77217857D01*
X120243977Y-77684725D01*
G37*
G36*
X128840533Y-81485723D02*
G01*
X106782785Y-81485723D01*
X106782785Y-80328466D01*
X106955007Y-80328466D01*
X106956928Y-80338176D01*
X106956928Y-80348080D01*
X106960677Y-80357132D01*
X106962579Y-80366743D01*
X106968071Y-80374981D01*
X106971860Y-80384128D01*
X106978786Y-80391054D01*
X106984222Y-80399208D01*
X106992450Y-80404718D01*
X106999450Y-80411718D01*
X107008501Y-80415467D01*
X107016642Y-80420919D01*
X107026349Y-80422860D01*
X107035498Y-80426650D01*
X107054800Y-80428550D01*
X107054902Y-80428571D01*
X107054936Y-80428564D01*
X107055007Y-80428571D01*
X108505007Y-80428571D01*
X108505007Y-80771428D01*
X108506928Y-80790937D01*
X108521860Y-80826985D01*
X108549450Y-80854575D01*
X108585498Y-80869507D01*
X108624516Y-80869507D01*
X108660564Y-80854575D01*
X108688154Y-80826985D01*
X108703086Y-80790937D01*
X108705007Y-80771428D01*
X108705007Y-80328466D01*
X109450420Y-80328466D01*
X109452341Y-80338176D01*
X109452341Y-80348080D01*
X109456090Y-80357132D01*
X109457992Y-80366743D01*
X109463484Y-80374981D01*
X109467273Y-80384128D01*
X109474199Y-80391054D01*
X109479635Y-80399208D01*
X109487863Y-80404718D01*
X109494863Y-80411718D01*
X109503914Y-80415467D01*
X109512055Y-80420919D01*
X109521762Y-80422860D01*
X109530911Y-80426650D01*
X109550213Y-80428550D01*
X109550315Y-80428571D01*
X109550349Y-80428564D01*
X109550420Y-80428571D01*
X111000420Y-80428571D01*
X111000420Y-80771428D01*
X111002341Y-80790937D01*
X111017273Y-80826985D01*
X111044863Y-80854575D01*
X111080911Y-80869507D01*
X111119929Y-80869507D01*
X111155977Y-80854575D01*
X111183567Y-80826985D01*
X111198499Y-80790937D01*
X111200420Y-80771428D01*
X111200420Y-80512990D01*
X111945833Y-80512990D01*
X111947754Y-80522700D01*
X111947754Y-80532604D01*
X111951503Y-80541656D01*
X111953405Y-80551267D01*
X111958897Y-80559505D01*
X111962686Y-80568652D01*
X111969612Y-80575578D01*
X111975048Y-80583732D01*
X111983276Y-80589242D01*
X111990276Y-80596242D01*
X111999327Y-80599991D01*
X112007468Y-80605443D01*
X112017175Y-80607384D01*
X112026324Y-80611174D01*
X112045626Y-80613074D01*
X112045728Y-80613095D01*
X112045762Y-80613088D01*
X112045833Y-80613095D01*
X113495833Y-80613095D01*
X113495833Y-80955952D01*
X113497754Y-80975461D01*
X113512686Y-81011509D01*
X113540276Y-81039099D01*
X113576324Y-81054031D01*
X113615342Y-81054031D01*
X113651390Y-81039099D01*
X113678980Y-81011509D01*
X113693912Y-80975461D01*
X113695833Y-80955952D01*
X113695833Y-80254761D01*
X114441246Y-80254761D01*
X114441246Y-80402380D01*
X114443167Y-80421889D01*
X114444542Y-80425209D01*
X114444797Y-80428793D01*
X114451803Y-80447102D01*
X114525613Y-80594720D01*
X114530896Y-80603114D01*
X114531908Y-80605556D01*
X114534162Y-80608303D01*
X114536056Y-80611311D01*
X114538052Y-80613042D01*
X114544345Y-80620709D01*
X114618154Y-80694519D01*
X114625823Y-80700814D01*
X114627554Y-80702809D01*
X114630559Y-80704700D01*
X114633307Y-80706956D01*
X114635748Y-80707967D01*
X114644144Y-80713252D01*
X114791763Y-80787061D01*
X114793189Y-80787606D01*
X114793770Y-80788037D01*
X114801961Y-80790963D01*
X114810072Y-80794067D01*
X114810791Y-80794118D01*
X114812230Y-80794632D01*
X115107468Y-80868442D01*
X115110849Y-80868942D01*
X115112213Y-80869507D01*
X115119561Y-80870230D01*
X115126860Y-80871310D01*
X115128318Y-80871092D01*
X115131722Y-80871428D01*
X115500770Y-80871428D01*
X115504172Y-80871092D01*
X115505631Y-80871310D01*
X115512928Y-80870230D01*
X115520279Y-80869507D01*
X115521642Y-80868942D01*
X115525024Y-80868442D01*
X115820261Y-80794632D01*
X115821698Y-80794118D01*
X115822421Y-80794067D01*
X115830545Y-80790958D01*
X115838722Y-80788037D01*
X115839302Y-80787606D01*
X115840729Y-80787061D01*
X115988348Y-80713252D01*
X115996746Y-80707965D01*
X115999184Y-80706956D01*
X116001927Y-80704704D01*
X116004939Y-80702809D01*
X116006671Y-80700811D01*
X116014338Y-80694520D01*
X116088148Y-80620710D01*
X116094442Y-80613039D01*
X116096437Y-80611310D01*
X116098330Y-80608302D01*
X116100584Y-80605556D01*
X116101594Y-80603117D01*
X116106880Y-80594720D01*
X116180689Y-80447101D01*
X116187695Y-80428792D01*
X116187949Y-80425209D01*
X116189325Y-80421889D01*
X116191246Y-80402380D01*
X116191246Y-80254761D01*
X116936659Y-80254761D01*
X116936659Y-80402380D01*
X116938580Y-80421889D01*
X116939955Y-80425209D01*
X116940210Y-80428793D01*
X116947216Y-80447102D01*
X117021026Y-80594720D01*
X117026309Y-80603114D01*
X117027321Y-80605556D01*
X117029575Y-80608303D01*
X117031469Y-80611311D01*
X117033465Y-80613042D01*
X117039758Y-80620709D01*
X117113567Y-80694519D01*
X117121236Y-80700814D01*
X117122967Y-80702809D01*
X117125972Y-80704700D01*
X117128720Y-80706956D01*
X117131161Y-80707967D01*
X117139557Y-80713252D01*
X117287176Y-80787061D01*
X117288602Y-80787606D01*
X117289183Y-80788037D01*
X117297374Y-80790963D01*
X117305485Y-80794067D01*
X117306204Y-80794118D01*
X117307643Y-80794632D01*
X117602881Y-80868442D01*
X117606262Y-80868942D01*
X117607626Y-80869507D01*
X117614974Y-80870230D01*
X117622273Y-80871310D01*
X117623731Y-80871092D01*
X117627135Y-80871428D01*
X117996183Y-80871428D01*
X117999585Y-80871092D01*
X118001044Y-80871310D01*
X118008341Y-80870230D01*
X118015692Y-80869507D01*
X118017055Y-80868942D01*
X118020437Y-80868442D01*
X118315674Y-80794632D01*
X118317111Y-80794118D01*
X118317834Y-80794067D01*
X118325958Y-80790958D01*
X118334135Y-80788037D01*
X118334715Y-80787606D01*
X118336142Y-80787061D01*
X118483761Y-80713252D01*
X118492159Y-80707965D01*
X118494597Y-80706956D01*
X118497340Y-80704704D01*
X118500352Y-80702809D01*
X118502084Y-80700811D01*
X118509751Y-80694520D01*
X118583561Y-80620710D01*
X118589855Y-80613039D01*
X118591850Y-80611310D01*
X118593743Y-80608302D01*
X118595997Y-80605556D01*
X118597007Y-80603117D01*
X118602293Y-80594720D01*
X118676102Y-80447101D01*
X118679093Y-80439285D01*
X119432072Y-80439285D01*
X119432072Y-80586904D01*
X119433993Y-80606413D01*
X119435368Y-80609733D01*
X119435623Y-80613317D01*
X119442629Y-80631626D01*
X119516439Y-80779244D01*
X119521722Y-80787638D01*
X119522734Y-80790080D01*
X119524988Y-80792827D01*
X119526882Y-80795835D01*
X119528878Y-80797566D01*
X119535171Y-80805233D01*
X119608980Y-80879043D01*
X119616649Y-80885338D01*
X119618380Y-80887333D01*
X119621385Y-80889224D01*
X119624133Y-80891480D01*
X119626574Y-80892491D01*
X119634970Y-80897776D01*
X119782589Y-80971585D01*
X119784015Y-80972130D01*
X119784596Y-80972561D01*
X119792787Y-80975487D01*
X119800898Y-80978591D01*
X119801617Y-80978642D01*
X119803056Y-80979156D01*
X120098294Y-81052966D01*
X120101675Y-81053466D01*
X120103039Y-81054031D01*
X120110387Y-81054754D01*
X120117686Y-81055834D01*
X120119144Y-81055616D01*
X120122548Y-81055952D01*
X120491596Y-81055952D01*
X120494998Y-81055616D01*
X120496457Y-81055834D01*
X120503754Y-81054754D01*
X120511105Y-81054031D01*
X120512468Y-81053466D01*
X120515850Y-81052966D01*
X120811087Y-80979156D01*
X120812524Y-80978642D01*
X120813247Y-80978591D01*
X120821371Y-80975482D01*
X120829548Y-80972561D01*
X120830128Y-80972130D01*
X120831555Y-80971585D01*
X120979174Y-80897776D01*
X120987572Y-80892489D01*
X120990010Y-80891480D01*
X120992753Y-80889228D01*
X120995765Y-80887333D01*
X120997497Y-80885335D01*
X121005164Y-80879044D01*
X121078974Y-80805234D01*
X121085268Y-80797563D01*
X121087263Y-80795834D01*
X121089156Y-80792826D01*
X121091410Y-80790080D01*
X121092420Y-80787641D01*
X121097706Y-80779244D01*
X121171515Y-80631625D01*
X121178521Y-80613316D01*
X121178775Y-80609733D01*
X121180151Y-80606413D01*
X121182072Y-80586904D01*
X121182072Y-80439285D01*
X121180151Y-80419776D01*
X121178775Y-80416455D01*
X121178521Y-80412873D01*
X121171515Y-80394564D01*
X121097706Y-80246945D01*
X121092421Y-80238549D01*
X121091410Y-80236108D01*
X121089154Y-80233360D01*
X121087263Y-80230355D01*
X121085268Y-80228624D01*
X121078973Y-80220955D01*
X121026463Y-80168446D01*
X121928270Y-80168446D01*
X121931036Y-80207366D01*
X121948486Y-80242265D01*
X121977962Y-80267830D01*
X121995862Y-80275821D01*
X123261258Y-80697619D01*
X121995862Y-81119418D01*
X121977962Y-81127409D01*
X121948486Y-81152975D01*
X121931036Y-81187873D01*
X121928270Y-81226793D01*
X121940608Y-81263809D01*
X121966174Y-81293285D01*
X122001072Y-81310735D01*
X122039992Y-81313501D01*
X122059108Y-81309154D01*
X123609108Y-80792487D01*
X123627009Y-80784495D01*
X123632408Y-80779811D01*
X123638796Y-80776618D01*
X123647008Y-80767149D01*
X123656485Y-80758930D01*
X123659680Y-80752538D01*
X123664361Y-80747142D01*
X123668325Y-80735247D01*
X123673934Y-80724031D01*
X123674440Y-80716903D01*
X123676700Y-80710126D01*
X123675811Y-80697623D01*
X123676701Y-80685111D01*
X123674440Y-80678329D01*
X123673934Y-80671206D01*
X123668328Y-80659996D01*
X123664362Y-80648096D01*
X123659678Y-80642695D01*
X123656484Y-80636307D01*
X123647014Y-80628093D01*
X123638797Y-80618619D01*
X123632405Y-80615423D01*
X123627008Y-80610742D01*
X123609108Y-80602751D01*
X122059108Y-80086085D01*
X122039992Y-80081738D01*
X122001072Y-80084504D01*
X121966173Y-80101954D01*
X121940608Y-80131430D01*
X121928270Y-80168446D01*
X121026463Y-80168446D01*
X121005163Y-80147146D01*
X120997496Y-80140853D01*
X120995765Y-80138857D01*
X120992757Y-80136963D01*
X120990010Y-80134709D01*
X120987568Y-80133697D01*
X120979174Y-80128414D01*
X120831556Y-80054604D01*
X120830127Y-80054057D01*
X120829548Y-80053628D01*
X120821377Y-80050709D01*
X120813247Y-80047598D01*
X120812524Y-80047546D01*
X120811087Y-80047033D01*
X120515849Y-79973224D01*
X120512469Y-79972724D01*
X120511105Y-79972159D01*
X120503753Y-79971435D01*
X120496457Y-79970356D01*
X120494998Y-79970573D01*
X120491596Y-79970238D01*
X120122548Y-79970238D01*
X120119145Y-79970573D01*
X120117687Y-79970356D01*
X120110389Y-79971435D01*
X120103039Y-79972159D01*
X120101675Y-79972723D01*
X120098294Y-79973224D01*
X119803057Y-80047033D01*
X119801619Y-80047546D01*
X119800897Y-80047598D01*
X119792783Y-80050703D01*
X119784596Y-80053628D01*
X119784013Y-80054059D01*
X119782588Y-80054605D01*
X119634969Y-80128414D01*
X119626570Y-80133700D01*
X119624134Y-80134710D01*
X119621391Y-80136960D01*
X119618379Y-80138857D01*
X119616645Y-80140855D01*
X119608981Y-80147146D01*
X119535171Y-80220955D01*
X119528879Y-80228621D01*
X119526882Y-80230354D01*
X119524986Y-80233365D01*
X119522735Y-80236109D01*
X119521725Y-80238546D01*
X119516439Y-80246945D01*
X119442629Y-80394563D01*
X119435623Y-80412872D01*
X119435368Y-80416455D01*
X119433993Y-80419776D01*
X119432072Y-80439285D01*
X118679093Y-80439285D01*
X118683108Y-80428792D01*
X118683362Y-80425209D01*
X118684738Y-80421889D01*
X118686659Y-80402380D01*
X118686659Y-80254761D01*
X118684738Y-80235252D01*
X118683362Y-80231931D01*
X118683108Y-80228349D01*
X118676102Y-80210040D01*
X118602293Y-80062421D01*
X118597008Y-80054025D01*
X118595997Y-80051584D01*
X118593741Y-80048836D01*
X118591850Y-80045831D01*
X118589855Y-80044100D01*
X118583560Y-80036431D01*
X118509750Y-79962622D01*
X118502083Y-79956329D01*
X118500352Y-79954333D01*
X118497344Y-79952439D01*
X118494597Y-79950185D01*
X118492155Y-79949173D01*
X118483761Y-79943890D01*
X118367409Y-79885713D01*
X124422898Y-79885713D01*
X124422898Y-80180951D01*
X124424819Y-80200460D01*
X124426194Y-80203780D01*
X124426449Y-80207364D01*
X124433455Y-80225673D01*
X124507265Y-80373291D01*
X124512551Y-80381689D01*
X124513561Y-80384127D01*
X124515812Y-80386870D01*
X124517708Y-80389882D01*
X124519705Y-80391614D01*
X124525997Y-80399281D01*
X124673616Y-80546900D01*
X124688770Y-80559336D01*
X124695638Y-80562181D01*
X124701613Y-80566608D01*
X124720073Y-80573203D01*
X125015311Y-80647013D01*
X125018692Y-80647513D01*
X125020056Y-80648078D01*
X125027404Y-80648801D01*
X125034703Y-80649881D01*
X125036161Y-80649663D01*
X125039565Y-80649999D01*
X125556231Y-80649999D01*
X125559633Y-80649663D01*
X125561092Y-80649881D01*
X125568389Y-80648801D01*
X125575740Y-80648078D01*
X125577103Y-80647513D01*
X125580485Y-80647013D01*
X125875722Y-80573203D01*
X125894183Y-80566608D01*
X125900157Y-80562181D01*
X125907026Y-80559336D01*
X125922179Y-80546900D01*
X126069799Y-80399281D01*
X126076094Y-80391611D01*
X126078089Y-80389881D01*
X126079980Y-80386875D01*
X126082236Y-80384128D01*
X126083247Y-80381686D01*
X126088532Y-80373291D01*
X126162341Y-80225672D01*
X126169347Y-80207363D01*
X126169601Y-80203780D01*
X126170977Y-80200460D01*
X126172898Y-80180952D01*
X126918311Y-80180952D01*
X126918311Y-80550000D01*
X126919283Y-80559873D01*
X126919096Y-80562508D01*
X126919883Y-80565971D01*
X126920232Y-80569509D01*
X126921243Y-80571950D01*
X126923443Y-80581623D01*
X126997253Y-80803051D01*
X127005245Y-80820952D01*
X127007599Y-80823666D01*
X127008974Y-80826985D01*
X127021410Y-80842139D01*
X127169029Y-80989758D01*
X127176695Y-80996049D01*
X127178428Y-80998047D01*
X127181439Y-80999942D01*
X127184183Y-81002194D01*
X127186619Y-81003203D01*
X127195018Y-81008490D01*
X127342637Y-81082299D01*
X127344062Y-81082844D01*
X127344645Y-81083276D01*
X127352832Y-81086200D01*
X127360946Y-81089306D01*
X127361668Y-81089357D01*
X127363106Y-81089871D01*
X127658343Y-81163680D01*
X127661724Y-81164180D01*
X127663088Y-81164745D01*
X127670438Y-81165468D01*
X127677736Y-81166548D01*
X127679194Y-81166330D01*
X127682597Y-81166666D01*
X127904025Y-81166666D01*
X127907427Y-81166330D01*
X127908886Y-81166548D01*
X127916182Y-81165468D01*
X127923534Y-81164745D01*
X127924898Y-81164179D01*
X127928278Y-81163680D01*
X128223516Y-81089871D01*
X128224953Y-81089357D01*
X128225676Y-81089306D01*
X128233806Y-81086194D01*
X128241977Y-81083276D01*
X128242556Y-81082846D01*
X128243985Y-81082300D01*
X128391603Y-81008490D01*
X128400001Y-81003203D01*
X128402439Y-81002194D01*
X128405181Y-80999942D01*
X128408194Y-80998047D01*
X128409927Y-80996048D01*
X128417592Y-80989758D01*
X128565212Y-80842139D01*
X128577649Y-80826986D01*
X128579024Y-80823666D01*
X128581379Y-80820951D01*
X128589370Y-80803051D01*
X128663180Y-80581622D01*
X128665379Y-80571949D01*
X128666390Y-80569509D01*
X128666738Y-80565971D01*
X128667526Y-80562507D01*
X128667338Y-80559873D01*
X128668311Y-80550000D01*
X128668311Y-80180952D01*
X128666390Y-80161443D01*
X128651458Y-80125395D01*
X128623868Y-80097805D01*
X128587820Y-80082873D01*
X128568311Y-80080952D01*
X127018311Y-80080952D01*
X126998802Y-80082873D01*
X126962754Y-80097805D01*
X126935164Y-80125395D01*
X126920232Y-80161443D01*
X126918311Y-80180952D01*
X126172898Y-80180952D01*
X126172898Y-80180951D01*
X126172898Y-79885713D01*
X126170977Y-79866204D01*
X126169601Y-79862883D01*
X126169347Y-79859301D01*
X126162341Y-79840992D01*
X126088532Y-79693373D01*
X126083247Y-79684977D01*
X126082236Y-79682536D01*
X126079980Y-79679788D01*
X126078089Y-79676783D01*
X126076094Y-79675052D01*
X126069799Y-79667383D01*
X125922179Y-79519764D01*
X125907026Y-79507328D01*
X125900157Y-79504482D01*
X125894183Y-79500056D01*
X125875722Y-79493461D01*
X125580484Y-79419652D01*
X125577104Y-79419152D01*
X125575740Y-79418587D01*
X125568388Y-79417863D01*
X125561092Y-79416784D01*
X125559633Y-79417001D01*
X125556231Y-79416666D01*
X125039565Y-79416666D01*
X125036162Y-79417001D01*
X125034704Y-79416784D01*
X125027406Y-79417863D01*
X125020056Y-79418587D01*
X125018692Y-79419151D01*
X125015311Y-79419652D01*
X124720074Y-79493461D01*
X124701613Y-79500056D01*
X124695638Y-79504482D01*
X124688770Y-79507328D01*
X124673616Y-79519764D01*
X124525997Y-79667383D01*
X124519705Y-79675049D01*
X124517708Y-79676782D01*
X124515812Y-79679793D01*
X124513561Y-79682537D01*
X124512551Y-79684974D01*
X124507265Y-79693373D01*
X124433455Y-79840991D01*
X124426449Y-79859300D01*
X124426194Y-79862883D01*
X124424819Y-79866204D01*
X124422898Y-79885713D01*
X118367409Y-79885713D01*
X118336143Y-79870080D01*
X118334714Y-79869533D01*
X118334135Y-79869104D01*
X118325964Y-79866185D01*
X118317834Y-79863074D01*
X118317111Y-79863022D01*
X118315674Y-79862509D01*
X118020436Y-79788700D01*
X118017056Y-79788200D01*
X118015692Y-79787635D01*
X118008340Y-79786911D01*
X118001044Y-79785832D01*
X117999585Y-79786049D01*
X117996183Y-79785714D01*
X117627135Y-79785714D01*
X117623732Y-79786049D01*
X117622274Y-79785832D01*
X117614976Y-79786911D01*
X117607626Y-79787635D01*
X117606262Y-79788199D01*
X117602881Y-79788700D01*
X117307644Y-79862509D01*
X117306206Y-79863022D01*
X117305484Y-79863074D01*
X117297370Y-79866179D01*
X117289183Y-79869104D01*
X117288600Y-79869535D01*
X117287175Y-79870081D01*
X117139556Y-79943890D01*
X117131157Y-79949176D01*
X117128721Y-79950186D01*
X117125978Y-79952436D01*
X117122966Y-79954333D01*
X117121232Y-79956331D01*
X117113568Y-79962622D01*
X117039758Y-80036431D01*
X117033466Y-80044097D01*
X117031469Y-80045830D01*
X117029573Y-80048841D01*
X117027322Y-80051585D01*
X117026312Y-80054022D01*
X117021026Y-80062421D01*
X116947216Y-80210039D01*
X116940210Y-80228348D01*
X116939955Y-80231931D01*
X116938580Y-80235252D01*
X116936659Y-80254761D01*
X116191246Y-80254761D01*
X116189325Y-80235252D01*
X116187949Y-80231931D01*
X116187695Y-80228349D01*
X116180689Y-80210040D01*
X116106880Y-80062421D01*
X116101595Y-80054025D01*
X116100584Y-80051584D01*
X116098328Y-80048836D01*
X116096437Y-80045831D01*
X116094442Y-80044100D01*
X116088147Y-80036431D01*
X116014337Y-79962622D01*
X116006670Y-79956329D01*
X116004939Y-79954333D01*
X116001931Y-79952439D01*
X115999184Y-79950185D01*
X115996742Y-79949173D01*
X115988348Y-79943890D01*
X115840730Y-79870080D01*
X115839301Y-79869533D01*
X115838722Y-79869104D01*
X115830551Y-79866185D01*
X115822421Y-79863074D01*
X115821698Y-79863022D01*
X115820261Y-79862509D01*
X115525023Y-79788700D01*
X115521643Y-79788200D01*
X115520279Y-79787635D01*
X115512927Y-79786911D01*
X115505631Y-79785832D01*
X115504172Y-79786049D01*
X115500770Y-79785714D01*
X115131722Y-79785714D01*
X115128319Y-79786049D01*
X115126861Y-79785832D01*
X115119563Y-79786911D01*
X115112213Y-79787635D01*
X115110849Y-79788199D01*
X115107468Y-79788700D01*
X114812231Y-79862509D01*
X114810793Y-79863022D01*
X114810071Y-79863074D01*
X114801957Y-79866179D01*
X114793770Y-79869104D01*
X114793187Y-79869535D01*
X114791762Y-79870081D01*
X114644143Y-79943890D01*
X114635744Y-79949176D01*
X114633308Y-79950186D01*
X114630565Y-79952436D01*
X114627553Y-79954333D01*
X114625819Y-79956331D01*
X114618155Y-79962622D01*
X114544345Y-80036431D01*
X114538053Y-80044097D01*
X114536056Y-80045830D01*
X114534160Y-80048841D01*
X114531909Y-80051585D01*
X114530899Y-80054022D01*
X114525613Y-80062421D01*
X114451803Y-80210039D01*
X114444797Y-80228348D01*
X114444542Y-80231931D01*
X114443167Y-80235252D01*
X114441246Y-80254761D01*
X113695833Y-80254761D01*
X113695833Y-80070238D01*
X113693912Y-80050729D01*
X113678980Y-80014681D01*
X113651390Y-79987091D01*
X113615342Y-79972159D01*
X113576324Y-79972159D01*
X113540276Y-79987091D01*
X113512686Y-80014681D01*
X113497754Y-80050729D01*
X113495833Y-80070238D01*
X113495833Y-80413095D01*
X112361065Y-80413095D01*
X112485592Y-80288568D01*
X112491886Y-80280897D01*
X112493881Y-80279168D01*
X112495774Y-80276160D01*
X112498028Y-80273414D01*
X112499038Y-80270974D01*
X112504324Y-80262578D01*
X112578133Y-80114959D01*
X112585139Y-80096650D01*
X112587905Y-80057730D01*
X112575566Y-80020715D01*
X112550002Y-79991238D01*
X112515103Y-79973789D01*
X112476183Y-79971023D01*
X112439167Y-79983362D01*
X112409690Y-80008926D01*
X112399247Y-80025517D01*
X112332695Y-80158620D01*
X112203551Y-80287764D01*
X111990363Y-80429890D01*
X111990308Y-80429934D01*
X111990276Y-80429948D01*
X111990202Y-80430021D01*
X111975196Y-80442310D01*
X111969685Y-80450538D01*
X111962686Y-80457538D01*
X111958936Y-80466589D01*
X111953485Y-80474730D01*
X111951543Y-80484437D01*
X111947754Y-80493586D01*
X111947754Y-80503385D01*
X111945833Y-80512990D01*
X111200420Y-80512990D01*
X111200420Y-79885714D01*
X111198499Y-79866205D01*
X111183567Y-79830157D01*
X111155977Y-79802567D01*
X111119929Y-79787635D01*
X111080911Y-79787635D01*
X111044863Y-79802567D01*
X111017273Y-79830157D01*
X111002341Y-79866205D01*
X111000420Y-79885714D01*
X111000420Y-80228571D01*
X109865652Y-80228571D01*
X109990179Y-80104044D01*
X109996473Y-80096373D01*
X109998468Y-80094644D01*
X110000361Y-80091636D01*
X110002615Y-80088890D01*
X110003625Y-80086450D01*
X110008911Y-80078054D01*
X110082720Y-79930435D01*
X110089726Y-79912126D01*
X110092492Y-79873206D01*
X110080153Y-79836191D01*
X110054589Y-79806714D01*
X110019690Y-79789265D01*
X109980770Y-79786499D01*
X109943754Y-79798838D01*
X109914277Y-79824402D01*
X109903834Y-79840993D01*
X109837282Y-79974096D01*
X109708138Y-80103240D01*
X109494950Y-80245366D01*
X109494895Y-80245410D01*
X109494863Y-80245424D01*
X109494789Y-80245497D01*
X109479783Y-80257786D01*
X109474272Y-80266014D01*
X109467273Y-80273014D01*
X109463523Y-80282065D01*
X109458072Y-80290206D01*
X109456130Y-80299913D01*
X109452341Y-80309062D01*
X109452341Y-80318861D01*
X109450420Y-80328466D01*
X108705007Y-80328466D01*
X108705007Y-79885714D01*
X108703086Y-79866205D01*
X108688154Y-79830157D01*
X108660564Y-79802567D01*
X108624516Y-79787635D01*
X108585498Y-79787635D01*
X108549450Y-79802567D01*
X108521860Y-79830157D01*
X108506928Y-79866205D01*
X108505007Y-79885714D01*
X108505007Y-80228571D01*
X107370239Y-80228571D01*
X107494766Y-80104044D01*
X107501060Y-80096373D01*
X107503055Y-80094644D01*
X107504948Y-80091636D01*
X107507202Y-80088890D01*
X107508212Y-80086450D01*
X107513498Y-80078054D01*
X107587307Y-79930435D01*
X107594313Y-79912126D01*
X107597079Y-79873206D01*
X107584740Y-79836191D01*
X107559176Y-79806714D01*
X107524277Y-79789265D01*
X107485357Y-79786499D01*
X107448341Y-79798838D01*
X107418864Y-79824402D01*
X107408421Y-79840993D01*
X107341869Y-79974096D01*
X107212725Y-80103240D01*
X106999537Y-80245366D01*
X106999482Y-80245410D01*
X106999450Y-80245424D01*
X106999376Y-80245497D01*
X106984370Y-80257786D01*
X106978859Y-80266014D01*
X106971860Y-80273014D01*
X106968110Y-80282065D01*
X106962659Y-80290206D01*
X106960717Y-80299913D01*
X106956928Y-80309062D01*
X106956928Y-80318861D01*
X106955007Y-80328466D01*
X106782785Y-80328466D01*
X106782785Y-78409524D01*
X108652626Y-78409524D01*
X108652626Y-79590476D01*
X108654547Y-79609985D01*
X108669479Y-79646033D01*
X108697069Y-79673623D01*
X108733117Y-79688555D01*
X108772135Y-79688555D01*
X108808183Y-79673623D01*
X108835773Y-79646033D01*
X108850705Y-79609985D01*
X108852626Y-79590476D01*
X108852626Y-78409524D01*
X108850705Y-78390015D01*
X108835773Y-78353967D01*
X108817625Y-78335819D01*
X109450420Y-78335819D01*
X109458072Y-78374079D01*
X109479783Y-78406499D01*
X109494950Y-78418919D01*
X110145142Y-78852380D01*
X109494950Y-79285842D01*
X109479783Y-79298262D01*
X109458072Y-79330682D01*
X109450420Y-79368942D01*
X109457992Y-79407219D01*
X109479635Y-79439684D01*
X109512055Y-79461395D01*
X109550315Y-79469047D01*
X109588592Y-79461475D01*
X109605890Y-79452252D01*
X110325420Y-78972565D01*
X111044950Y-79452252D01*
X111062248Y-79461475D01*
X111100525Y-79469047D01*
X111138785Y-79461395D01*
X111171205Y-79439684D01*
X111192848Y-79407219D01*
X111200420Y-79368942D01*
X111192768Y-79330682D01*
X111171057Y-79298262D01*
X111155890Y-79285842D01*
X110505697Y-78852380D01*
X111003754Y-78520343D01*
X111945833Y-78520343D01*
X111953485Y-78558603D01*
X111975196Y-78591023D01*
X111990363Y-78603443D01*
X112640555Y-79036904D01*
X111990363Y-79470366D01*
X111975196Y-79482786D01*
X111953485Y-79515206D01*
X111945833Y-79553466D01*
X111953405Y-79591743D01*
X111975048Y-79624208D01*
X112007468Y-79645919D01*
X112045728Y-79653571D01*
X112084005Y-79645999D01*
X112101303Y-79636776D01*
X112820833Y-79157089D01*
X113540363Y-79636776D01*
X113557661Y-79645999D01*
X113595938Y-79653571D01*
X113634198Y-79645919D01*
X113666618Y-79624208D01*
X113688261Y-79591743D01*
X113695833Y-79553466D01*
X113688181Y-79515206D01*
X113666470Y-79482786D01*
X113651303Y-79470366D01*
X113001110Y-79036904D01*
X113651303Y-78603443D01*
X113666470Y-78591023D01*
X113688181Y-78558603D01*
X113695833Y-78520343D01*
X113688261Y-78482066D01*
X113666618Y-78449601D01*
X113634198Y-78427890D01*
X113595938Y-78420238D01*
X113557661Y-78427810D01*
X113540363Y-78437033D01*
X112820833Y-78916719D01*
X112101303Y-78437033D01*
X112084005Y-78427810D01*
X112045728Y-78420238D01*
X112007468Y-78427890D01*
X111975048Y-78449601D01*
X111953405Y-78482066D01*
X111945833Y-78520343D01*
X111003754Y-78520343D01*
X111155890Y-78418919D01*
X111167363Y-78409524D01*
X116138865Y-78409524D01*
X116138865Y-79590476D01*
X116140786Y-79609985D01*
X116155718Y-79646033D01*
X116183308Y-79673623D01*
X116219356Y-79688555D01*
X116258374Y-79688555D01*
X116294422Y-79673623D01*
X116322012Y-79646033D01*
X116336944Y-79609985D01*
X116338865Y-79590476D01*
X116338865Y-78409524D01*
X116336944Y-78390015D01*
X116322012Y-78353967D01*
X116303864Y-78335819D01*
X116936659Y-78335819D01*
X116944311Y-78374079D01*
X116966022Y-78406499D01*
X116981189Y-78418919D01*
X117631381Y-78852380D01*
X116981189Y-79285842D01*
X116966022Y-79298262D01*
X116944311Y-79330682D01*
X116936659Y-79368942D01*
X116944231Y-79407219D01*
X116965874Y-79439684D01*
X116998294Y-79461395D01*
X117036554Y-79469047D01*
X117074831Y-79461475D01*
X117092129Y-79452252D01*
X117811659Y-78972565D01*
X118531189Y-79452252D01*
X118548487Y-79461475D01*
X118586764Y-79469047D01*
X118625024Y-79461395D01*
X118657444Y-79439684D01*
X118679087Y-79407219D01*
X118686659Y-79368942D01*
X118679007Y-79330682D01*
X118657296Y-79298262D01*
X118642129Y-79285842D01*
X117991936Y-78852380D01*
X118489993Y-78520343D01*
X119432072Y-78520343D01*
X119439724Y-78558603D01*
X119461435Y-78591023D01*
X119476602Y-78603443D01*
X120126794Y-79036904D01*
X119476602Y-79470366D01*
X119461435Y-79482786D01*
X119439724Y-79515206D01*
X119432072Y-79553466D01*
X119439644Y-79591743D01*
X119461287Y-79624208D01*
X119493707Y-79645919D01*
X119531967Y-79653571D01*
X119570244Y-79645999D01*
X119587542Y-79636776D01*
X120307072Y-79157089D01*
X121026602Y-79636776D01*
X121043900Y-79645999D01*
X121082177Y-79653571D01*
X121120437Y-79645919D01*
X121152857Y-79624208D01*
X121174500Y-79591743D01*
X121182072Y-79553466D01*
X121174420Y-79515206D01*
X121152709Y-79482786D01*
X121137542Y-79470366D01*
X120487349Y-79036904D01*
X120653419Y-78926191D01*
X121927485Y-78926191D01*
X121927485Y-79664286D01*
X121929406Y-79683795D01*
X121944338Y-79719843D01*
X121971928Y-79747433D01*
X122007976Y-79762365D01*
X122046994Y-79762365D01*
X122083042Y-79747433D01*
X122110632Y-79719843D01*
X122125564Y-79683795D01*
X122127485Y-79664286D01*
X122127485Y-79016690D01*
X122556150Y-78973823D01*
X122528518Y-79029088D01*
X122521512Y-79047397D01*
X122521257Y-79050980D01*
X122519882Y-79054301D01*
X122517961Y-79073810D01*
X122517961Y-79442858D01*
X122519882Y-79462367D01*
X122521257Y-79465687D01*
X122521512Y-79469271D01*
X122528518Y-79487580D01*
X122602328Y-79635198D01*
X122607614Y-79643596D01*
X122608624Y-79646034D01*
X122610875Y-79648777D01*
X122612771Y-79651789D01*
X122614768Y-79653521D01*
X122621060Y-79661188D01*
X122694870Y-79734997D01*
X122702534Y-79741287D01*
X122704268Y-79743286D01*
X122707280Y-79745182D01*
X122710023Y-79747433D01*
X122712459Y-79748442D01*
X122720858Y-79753729D01*
X122868477Y-79827538D01*
X122886786Y-79834545D01*
X122890369Y-79834799D01*
X122893690Y-79836175D01*
X122913199Y-79838096D01*
X123282247Y-79838096D01*
X123301756Y-79836175D01*
X123305076Y-79834799D01*
X123308660Y-79834545D01*
X123326969Y-79827539D01*
X123474587Y-79753729D01*
X123482981Y-79748445D01*
X123485423Y-79747434D01*
X123488170Y-79745179D01*
X123491178Y-79743286D01*
X123492909Y-79741289D01*
X123500576Y-79734997D01*
X123574386Y-79661188D01*
X123580681Y-79653518D01*
X123582676Y-79651788D01*
X123584567Y-79648782D01*
X123586823Y-79646035D01*
X123587834Y-79643593D01*
X123593119Y-79635198D01*
X123666928Y-79487579D01*
X123673934Y-79469270D01*
X123674188Y-79465687D01*
X123675564Y-79462367D01*
X123677485Y-79442858D01*
X123677485Y-79073810D01*
X123675564Y-79054301D01*
X123674188Y-79050980D01*
X123673934Y-79047398D01*
X123666928Y-79029089D01*
X123593119Y-78881470D01*
X123587834Y-78873074D01*
X123586823Y-78870633D01*
X123584567Y-78867885D01*
X123582676Y-78864880D01*
X123580681Y-78863149D01*
X123574386Y-78855480D01*
X123551777Y-78832871D01*
X124424819Y-78832871D01*
X124424819Y-78871889D01*
X124439751Y-78907937D01*
X124467341Y-78935527D01*
X124503389Y-78950459D01*
X124522898Y-78952380D01*
X126072898Y-78952380D01*
X126092407Y-78950459D01*
X126128455Y-78935527D01*
X126156045Y-78907937D01*
X126170977Y-78871889D01*
X126170977Y-78832871D01*
X126156045Y-78796823D01*
X126128455Y-78769233D01*
X126092407Y-78754301D01*
X126072898Y-78752380D01*
X124522898Y-78752380D01*
X124503389Y-78754301D01*
X124467341Y-78769233D01*
X124439751Y-78796823D01*
X124424819Y-78832871D01*
X123551777Y-78832871D01*
X123500576Y-78781671D01*
X123485423Y-78769234D01*
X123449374Y-78754303D01*
X123410356Y-78754304D01*
X123374308Y-78769235D01*
X123346718Y-78796825D01*
X123331787Y-78832874D01*
X123331788Y-78871892D01*
X123346719Y-78907940D01*
X123359156Y-78923093D01*
X123421490Y-78985426D01*
X123477485Y-79097416D01*
X123477485Y-79419251D01*
X123421490Y-79531241D01*
X123370630Y-79582100D01*
X123258639Y-79638096D01*
X122936806Y-79638096D01*
X122824814Y-79582099D01*
X122773955Y-79531239D01*
X122717961Y-79419250D01*
X122717961Y-79097417D01*
X122773955Y-78985428D01*
X122836291Y-78923092D01*
X122848727Y-78907939D01*
X122850654Y-78903285D01*
X122853842Y-78899390D01*
X122858062Y-78885400D01*
X122863659Y-78871891D01*
X122863659Y-78866853D01*
X122865113Y-78862035D01*
X122863659Y-78847493D01*
X122863659Y-78832873D01*
X122861731Y-78828220D01*
X122861231Y-78823211D01*
X122854322Y-78810332D01*
X122848727Y-78796824D01*
X122845165Y-78793262D01*
X122842786Y-78788827D01*
X122831478Y-78779575D01*
X122821138Y-78769235D01*
X122816483Y-78767306D01*
X122812588Y-78764120D01*
X122798600Y-78759899D01*
X122785089Y-78754303D01*
X122780052Y-78754303D01*
X122775233Y-78752849D01*
X122755629Y-78752878D01*
X122017535Y-78826687D01*
X122010426Y-78828112D01*
X122007976Y-78828112D01*
X122005678Y-78829063D01*
X121998314Y-78830540D01*
X121985433Y-78837449D01*
X121971928Y-78843044D01*
X121968367Y-78846604D01*
X121963930Y-78848985D01*
X121954674Y-78860297D01*
X121944338Y-78870634D01*
X121942410Y-78875286D01*
X121939223Y-78879183D01*
X121935002Y-78893172D01*
X121929406Y-78906682D01*
X121928669Y-78914159D01*
X121927952Y-78916538D01*
X121928195Y-78918974D01*
X121927485Y-78926191D01*
X120653419Y-78926191D01*
X121137542Y-78603443D01*
X121152709Y-78591023D01*
X121170721Y-78564127D01*
X126918555Y-78564127D01*
X126920232Y-78570275D01*
X126920232Y-78576651D01*
X126925323Y-78588941D01*
X126928822Y-78601770D01*
X126932724Y-78606808D01*
X126935164Y-78612699D01*
X126944569Y-78622104D01*
X126952712Y-78632619D01*
X126960887Y-78638422D01*
X126962754Y-78640289D01*
X126964586Y-78641047D01*
X126968697Y-78643966D01*
X128191755Y-79342856D01*
X127018311Y-79342856D01*
X126998802Y-79344777D01*
X126962754Y-79359709D01*
X126935164Y-79387299D01*
X126920232Y-79423347D01*
X126920232Y-79462365D01*
X126935164Y-79498413D01*
X126962754Y-79526003D01*
X126998802Y-79540935D01*
X127018311Y-79542856D01*
X128568311Y-79542856D01*
X128573328Y-79542361D01*
X128575295Y-79542612D01*
X128577840Y-79541917D01*
X128587820Y-79540935D01*
X128600111Y-79535843D01*
X128612939Y-79532345D01*
X128617977Y-79528442D01*
X128623868Y-79526003D01*
X128633273Y-79516597D01*
X128643788Y-79508455D01*
X128646950Y-79502920D01*
X128651458Y-79498413D01*
X128656546Y-79486127D01*
X128663147Y-79474578D01*
X128663950Y-79468253D01*
X128666390Y-79462365D01*
X128666390Y-79449064D01*
X128668067Y-79435871D01*
X128666390Y-79429722D01*
X128666390Y-79423347D01*
X128661298Y-79411056D01*
X128657800Y-79398228D01*
X128653897Y-79393189D01*
X128651458Y-79387299D01*
X128642052Y-79377893D01*
X128633910Y-79367379D01*
X128625734Y-79361575D01*
X128623868Y-79359709D01*
X128622035Y-79358950D01*
X128617925Y-79356032D01*
X127394867Y-78657142D01*
X128568311Y-78657142D01*
X128587820Y-78655221D01*
X128623868Y-78640289D01*
X128651458Y-78612699D01*
X128666390Y-78576651D01*
X128666390Y-78537633D01*
X128651458Y-78501585D01*
X128623868Y-78473995D01*
X128587820Y-78459063D01*
X128568311Y-78457142D01*
X127018311Y-78457142D01*
X127013293Y-78457636D01*
X127011326Y-78457386D01*
X127008779Y-78458080D01*
X126998802Y-78459063D01*
X126986511Y-78464154D01*
X126973683Y-78467653D01*
X126968644Y-78471555D01*
X126962754Y-78473995D01*
X126953348Y-78483400D01*
X126942834Y-78491543D01*
X126939671Y-78497077D01*
X126935164Y-78501585D01*
X126930075Y-78513870D01*
X126923475Y-78525420D01*
X126922671Y-78531744D01*
X126920232Y-78537633D01*
X126920232Y-78550933D01*
X126918555Y-78564127D01*
X121170721Y-78564127D01*
X121174420Y-78558603D01*
X121182072Y-78520343D01*
X121174500Y-78482066D01*
X121152857Y-78449601D01*
X121120437Y-78427890D01*
X121082177Y-78420238D01*
X121043900Y-78427810D01*
X121026602Y-78437033D01*
X120307072Y-78916719D01*
X119587542Y-78437033D01*
X119570244Y-78427810D01*
X119531967Y-78420238D01*
X119493707Y-78427890D01*
X119461287Y-78449601D01*
X119439644Y-78482066D01*
X119432072Y-78520343D01*
X118489993Y-78520343D01*
X118642129Y-78418919D01*
X118657296Y-78406499D01*
X118679007Y-78374079D01*
X118686659Y-78335819D01*
X118679087Y-78297542D01*
X118657444Y-78265077D01*
X118625024Y-78243366D01*
X118586764Y-78235714D01*
X118548487Y-78243286D01*
X118531189Y-78252509D01*
X117811659Y-78732195D01*
X117092129Y-78252509D01*
X117074831Y-78243286D01*
X117036554Y-78235714D01*
X116998294Y-78243366D01*
X116965874Y-78265077D01*
X116944231Y-78297542D01*
X116936659Y-78335819D01*
X116303864Y-78335819D01*
X116294422Y-78326377D01*
X116258374Y-78311445D01*
X116219356Y-78311445D01*
X116183308Y-78326377D01*
X116155718Y-78353967D01*
X116140786Y-78390015D01*
X116138865Y-78409524D01*
X111167363Y-78409524D01*
X111171057Y-78406499D01*
X111192768Y-78374079D01*
X111200420Y-78335819D01*
X111192848Y-78297542D01*
X111171205Y-78265077D01*
X111138785Y-78243366D01*
X111100525Y-78235714D01*
X111062248Y-78243286D01*
X111044950Y-78252509D01*
X110325420Y-78732195D01*
X109605890Y-78252509D01*
X109588592Y-78243286D01*
X109550315Y-78235714D01*
X109512055Y-78243366D01*
X109479635Y-78265077D01*
X109457992Y-78297542D01*
X109450420Y-78335819D01*
X108817625Y-78335819D01*
X108808183Y-78326377D01*
X108772135Y-78311445D01*
X108733117Y-78311445D01*
X108697069Y-78326377D01*
X108669479Y-78353967D01*
X108654547Y-78390015D01*
X108652626Y-78409524D01*
X106782785Y-78409524D01*
X106782785Y-77523810D01*
X106955007Y-77523810D01*
X106955007Y-77892857D01*
X106955979Y-77902730D01*
X106955792Y-77905365D01*
X106956579Y-77908828D01*
X106956928Y-77912366D01*
X106957939Y-77914807D01*
X106960139Y-77924480D01*
X107033949Y-78145909D01*
X107041941Y-78163810D01*
X107067506Y-78193286D01*
X107102405Y-78210735D01*
X107141325Y-78213501D01*
X107178340Y-78201163D01*
X107207817Y-78175598D01*
X107225266Y-78140699D01*
X107228032Y-78101779D01*
X107223685Y-78082663D01*
X107155007Y-77876629D01*
X107155007Y-77547417D01*
X107211002Y-77435426D01*
X107261861Y-77384566D01*
X107373852Y-77328572D01*
X107474257Y-77328572D01*
X107586246Y-77384566D01*
X107637107Y-77435427D01*
X107698750Y-77558713D01*
X107769898Y-77843301D01*
X107770411Y-77844738D01*
X107770463Y-77845461D01*
X107773571Y-77853585D01*
X107776493Y-77861762D01*
X107776923Y-77862342D01*
X107777469Y-77863769D01*
X107851278Y-78011388D01*
X107856563Y-78019784D01*
X107857574Y-78022225D01*
X107859827Y-78024970D01*
X107861721Y-78027979D01*
X107863718Y-78029711D01*
X107870011Y-78037378D01*
X107943821Y-78111187D01*
X107951485Y-78117477D01*
X107953219Y-78119476D01*
X107956231Y-78121372D01*
X107958974Y-78123623D01*
X107961409Y-78124631D01*
X107969809Y-78129919D01*
X108117428Y-78203728D01*
X108135737Y-78210735D01*
X108139320Y-78210989D01*
X108142641Y-78212365D01*
X108162150Y-78214286D01*
X108309769Y-78214286D01*
X108329278Y-78212365D01*
X108332598Y-78210989D01*
X108336182Y-78210735D01*
X108354491Y-78203729D01*
X108502109Y-78129919D01*
X108510503Y-78124635D01*
X108512945Y-78123624D01*
X108515692Y-78121369D01*
X108518700Y-78119476D01*
X108520431Y-78117479D01*
X108528098Y-78111187D01*
X108601908Y-78037378D01*
X108608203Y-78029708D01*
X108610198Y-78027978D01*
X108612089Y-78024972D01*
X108614345Y-78022225D01*
X108615356Y-78019783D01*
X108620641Y-78011388D01*
X108694450Y-77863769D01*
X108701456Y-77845460D01*
X108701710Y-77841877D01*
X108703086Y-77838557D01*
X108705007Y-77819048D01*
X108705007Y-77450000D01*
X108704034Y-77440126D01*
X108704222Y-77437493D01*
X108703434Y-77434028D01*
X108703086Y-77430491D01*
X108702075Y-77428050D01*
X108699876Y-77418378D01*
X108626066Y-77196949D01*
X108618075Y-77179049D01*
X108592510Y-77149573D01*
X108557611Y-77132123D01*
X108518691Y-77129357D01*
X108481675Y-77141695D01*
X108452199Y-77167260D01*
X108434749Y-77202159D01*
X108431983Y-77241079D01*
X108436330Y-77260195D01*
X108505007Y-77466226D01*
X108505007Y-77795441D01*
X108449012Y-77907431D01*
X108398152Y-77958290D01*
X108286161Y-78014286D01*
X108185757Y-78014286D01*
X108073764Y-77958289D01*
X108022906Y-77907431D01*
X107961263Y-77784144D01*
X107890116Y-77499556D01*
X107889602Y-77498117D01*
X107889551Y-77497398D01*
X107886447Y-77489287D01*
X107883521Y-77481096D01*
X107883090Y-77480515D01*
X107882545Y-77479089D01*
X107808736Y-77331470D01*
X107803450Y-77323072D01*
X107802440Y-77320634D01*
X107800186Y-77317887D01*
X107798293Y-77314880D01*
X107796298Y-77313150D01*
X107790004Y-77305480D01*
X107716194Y-77231670D01*
X107708527Y-77225378D01*
X107706795Y-77223381D01*
X107703783Y-77221485D01*
X107701040Y-77219234D01*
X107698602Y-77218224D01*
X107690204Y-77212938D01*
X107542585Y-77139129D01*
X107524277Y-77132123D01*
X107520693Y-77131868D01*
X107517373Y-77130493D01*
X107497864Y-77128572D01*
X107350245Y-77128572D01*
X107330736Y-77130493D01*
X107327415Y-77131868D01*
X107323833Y-77132123D01*
X107305524Y-77139129D01*
X107157905Y-77212938D01*
X107149509Y-77218222D01*
X107147068Y-77219234D01*
X107144320Y-77221489D01*
X107141315Y-77223381D01*
X107139584Y-77225375D01*
X107131915Y-77231671D01*
X107058106Y-77305481D01*
X107051813Y-77313147D01*
X107049817Y-77314879D01*
X107047923Y-77317886D01*
X107045669Y-77320634D01*
X107044657Y-77323075D01*
X107039374Y-77331470D01*
X106965564Y-77479088D01*
X106958558Y-77497397D01*
X106958303Y-77500980D01*
X106956928Y-77504301D01*
X106955007Y-77523810D01*
X106782785Y-77523810D01*
X106782785Y-77080953D01*
X109450420Y-77080953D01*
X109450420Y-77966667D01*
X109452341Y-77986176D01*
X109467273Y-78022224D01*
X109494863Y-78049814D01*
X109530911Y-78064746D01*
X109569929Y-78064746D01*
X109605977Y-78049814D01*
X109633567Y-78022224D01*
X109648499Y-77986176D01*
X109650420Y-77966667D01*
X109650420Y-77623810D01*
X111100420Y-77623810D01*
X111119929Y-77621889D01*
X111155977Y-77606957D01*
X111183567Y-77579367D01*
X111198499Y-77543319D01*
X111198499Y-77504301D01*
X111183567Y-77468253D01*
X111155977Y-77440663D01*
X111119929Y-77425731D01*
X111100420Y-77423810D01*
X109650420Y-77423810D01*
X109650420Y-77117857D01*
X111945833Y-77117857D01*
X111945833Y-77708333D01*
X111947754Y-77727842D01*
X111949129Y-77731162D01*
X111949384Y-77734746D01*
X111956390Y-77753055D01*
X112030200Y-77900673D01*
X112035483Y-77909067D01*
X112036495Y-77911509D01*
X112038749Y-77914256D01*
X112040643Y-77917264D01*
X112042639Y-77918995D01*
X112048932Y-77926662D01*
X112122741Y-78000472D01*
X112130410Y-78006767D01*
X112132141Y-78008762D01*
X112135146Y-78010653D01*
X112137894Y-78012909D01*
X112140335Y-78013920D01*
X112148731Y-78019205D01*
X112296350Y-78093014D01*
X112314659Y-78100020D01*
X112318241Y-78100274D01*
X112321562Y-78101650D01*
X112341071Y-78103571D01*
X112562500Y-78103571D01*
X112582009Y-78101650D01*
X112585329Y-78100274D01*
X112588913Y-78100020D01*
X112607221Y-78093014D01*
X112754840Y-78019205D01*
X112763236Y-78013919D01*
X112765677Y-78012909D01*
X112768422Y-78010655D01*
X112771431Y-78008762D01*
X112773163Y-78006764D01*
X112780830Y-78000472D01*
X112854639Y-77926662D01*
X112860929Y-77918997D01*
X112862928Y-77917264D01*
X112864824Y-77914251D01*
X112867075Y-77911509D01*
X112868083Y-77909073D01*
X112873371Y-77900674D01*
X112947180Y-77753055D01*
X112954187Y-77734746D01*
X112954441Y-77731162D01*
X112955817Y-77727842D01*
X112957738Y-77708333D01*
X112957738Y-77678970D01*
X113538486Y-78085494D01*
X113555570Y-78095108D01*
X113593665Y-78103547D01*
X113632089Y-78096766D01*
X113664994Y-78075798D01*
X113687370Y-78043833D01*
X113695809Y-78005738D01*
X113689028Y-77967314D01*
X113668060Y-77934409D01*
X113653179Y-77921648D01*
X113084839Y-77523810D01*
X114441246Y-77523810D01*
X114441246Y-77892857D01*
X114442218Y-77902730D01*
X114442031Y-77905365D01*
X114442818Y-77908828D01*
X114443167Y-77912366D01*
X114444178Y-77914807D01*
X114446378Y-77924480D01*
X114520188Y-78145909D01*
X114528180Y-78163810D01*
X114553745Y-78193286D01*
X114588644Y-78210735D01*
X114627564Y-78213501D01*
X114664579Y-78201163D01*
X114694056Y-78175598D01*
X114711505Y-78140699D01*
X114714271Y-78101779D01*
X114709924Y-78082663D01*
X114641246Y-77876629D01*
X114641246Y-77547417D01*
X114697241Y-77435426D01*
X114748100Y-77384566D01*
X114860091Y-77328572D01*
X114960496Y-77328572D01*
X115072485Y-77384566D01*
X115123346Y-77435427D01*
X115184989Y-77558713D01*
X115256137Y-77843301D01*
X115256650Y-77844738D01*
X115256702Y-77845461D01*
X115259810Y-77853585D01*
X115262732Y-77861762D01*
X115263162Y-77862342D01*
X115263708Y-77863769D01*
X115337517Y-78011388D01*
X115342802Y-78019784D01*
X115343813Y-78022225D01*
X115346066Y-78024970D01*
X115347960Y-78027979D01*
X115349957Y-78029711D01*
X115356250Y-78037378D01*
X115430060Y-78111187D01*
X115437724Y-78117477D01*
X115439458Y-78119476D01*
X115442470Y-78121372D01*
X115445213Y-78123623D01*
X115447648Y-78124631D01*
X115456048Y-78129919D01*
X115603667Y-78203728D01*
X115621976Y-78210735D01*
X115625559Y-78210989D01*
X115628880Y-78212365D01*
X115648389Y-78214286D01*
X115796008Y-78214286D01*
X115815517Y-78212365D01*
X115818837Y-78210989D01*
X115822421Y-78210735D01*
X115840730Y-78203729D01*
X115988348Y-78129919D01*
X115996742Y-78124635D01*
X115999184Y-78123624D01*
X116001931Y-78121369D01*
X116004939Y-78119476D01*
X116006670Y-78117479D01*
X116014337Y-78111187D01*
X116088147Y-78037378D01*
X116094442Y-78029708D01*
X116096437Y-78027978D01*
X116098328Y-78024972D01*
X116100584Y-78022225D01*
X116101595Y-78019783D01*
X116106880Y-78011388D01*
X116180689Y-77863769D01*
X116187695Y-77845460D01*
X116187949Y-77841877D01*
X116189325Y-77838557D01*
X116191246Y-77819048D01*
X116191246Y-77450000D01*
X116190273Y-77440126D01*
X116190461Y-77437493D01*
X116189673Y-77434028D01*
X116189325Y-77430491D01*
X116188314Y-77428050D01*
X116186115Y-77418378D01*
X116112305Y-77196949D01*
X116104314Y-77179049D01*
X116078749Y-77149573D01*
X116043850Y-77132123D01*
X116004930Y-77129357D01*
X115967914Y-77141695D01*
X115938438Y-77167260D01*
X115920988Y-77202159D01*
X115918222Y-77241079D01*
X115922569Y-77260195D01*
X115991246Y-77466226D01*
X115991246Y-77795441D01*
X115935251Y-77907431D01*
X115884391Y-77958290D01*
X115772400Y-78014286D01*
X115671996Y-78014286D01*
X115560003Y-77958289D01*
X115509145Y-77907431D01*
X115447502Y-77784144D01*
X115376355Y-77499556D01*
X115375841Y-77498117D01*
X115375790Y-77497398D01*
X115372686Y-77489287D01*
X115369760Y-77481096D01*
X115369329Y-77480515D01*
X115368784Y-77479089D01*
X115294975Y-77331470D01*
X115289689Y-77323072D01*
X115288679Y-77320634D01*
X115286425Y-77317887D01*
X115284532Y-77314880D01*
X115282537Y-77313150D01*
X115276243Y-77305480D01*
X115202433Y-77231670D01*
X115194766Y-77225378D01*
X115193034Y-77223381D01*
X115190022Y-77221485D01*
X115187279Y-77219234D01*
X115184841Y-77218224D01*
X115176443Y-77212938D01*
X115028824Y-77139129D01*
X115010516Y-77132123D01*
X115006932Y-77131868D01*
X115003612Y-77130493D01*
X114984103Y-77128572D01*
X114836484Y-77128572D01*
X114816975Y-77130493D01*
X114813654Y-77131868D01*
X114810072Y-77132123D01*
X114791763Y-77139129D01*
X114644144Y-77212938D01*
X114635748Y-77218222D01*
X114633307Y-77219234D01*
X114630559Y-77221489D01*
X114627554Y-77223381D01*
X114625823Y-77225375D01*
X114618154Y-77231671D01*
X114544345Y-77305481D01*
X114538052Y-77313147D01*
X114536056Y-77314879D01*
X114534162Y-77317886D01*
X114531908Y-77320634D01*
X114530896Y-77323075D01*
X114525613Y-77331470D01*
X114451803Y-77479088D01*
X114444797Y-77497397D01*
X114444542Y-77500980D01*
X114443167Y-77504301D01*
X114441246Y-77523810D01*
X113084839Y-77523810D01*
X112957738Y-77434839D01*
X112957738Y-77217857D01*
X113595833Y-77217857D01*
X113615342Y-77215936D01*
X113651390Y-77201004D01*
X113678980Y-77173414D01*
X113693912Y-77137366D01*
X113693912Y-77098348D01*
X113686707Y-77080953D01*
X116936659Y-77080953D01*
X116936659Y-77966667D01*
X116938580Y-77986176D01*
X116953512Y-78022224D01*
X116981102Y-78049814D01*
X117017150Y-78064746D01*
X117056168Y-78064746D01*
X117092216Y-78049814D01*
X117119806Y-78022224D01*
X117134738Y-77986176D01*
X117136659Y-77966667D01*
X117136659Y-77623810D01*
X118586659Y-77623810D01*
X118606168Y-77621889D01*
X118642216Y-77606957D01*
X118669806Y-77579367D01*
X118684738Y-77543319D01*
X118684738Y-77504301D01*
X118669806Y-77468253D01*
X118642216Y-77440663D01*
X118606168Y-77425731D01*
X118586659Y-77423810D01*
X117136659Y-77423810D01*
X117136659Y-77117857D01*
X119432072Y-77117857D01*
X119432072Y-77708333D01*
X119433993Y-77727842D01*
X119435368Y-77731162D01*
X119435623Y-77734746D01*
X119442629Y-77753055D01*
X119516439Y-77900673D01*
X119521722Y-77909067D01*
X119522734Y-77911509D01*
X119524988Y-77914256D01*
X119526882Y-77917264D01*
X119528878Y-77918995D01*
X119535171Y-77926662D01*
X119608980Y-78000472D01*
X119616649Y-78006767D01*
X119618380Y-78008762D01*
X119621385Y-78010653D01*
X119624133Y-78012909D01*
X119626574Y-78013920D01*
X119634970Y-78019205D01*
X119782589Y-78093014D01*
X119800898Y-78100020D01*
X119804480Y-78100274D01*
X119807801Y-78101650D01*
X119827310Y-78103571D01*
X120048739Y-78103571D01*
X120068248Y-78101650D01*
X120071568Y-78100274D01*
X120075152Y-78100020D01*
X120093460Y-78093014D01*
X120241079Y-78019205D01*
X120249475Y-78013919D01*
X120251916Y-78012909D01*
X120254661Y-78010655D01*
X120257670Y-78008762D01*
X120259402Y-78006764D01*
X120267069Y-78000472D01*
X120340878Y-77926662D01*
X120347168Y-77918997D01*
X120349167Y-77917264D01*
X120351063Y-77914251D01*
X120353314Y-77911509D01*
X120354322Y-77909073D01*
X120359610Y-77900674D01*
X120433419Y-77753055D01*
X120440426Y-77734746D01*
X120440680Y-77731162D01*
X120442056Y-77727842D01*
X120443977Y-77708333D01*
X120443977Y-77678970D01*
X121024725Y-78085494D01*
X121041809Y-78095108D01*
X121079904Y-78103547D01*
X121118328Y-78096766D01*
X121151233Y-78075798D01*
X121173609Y-78043833D01*
X121182048Y-78005738D01*
X121175267Y-77967314D01*
X121154299Y-77934409D01*
X121139418Y-77921648D01*
X120648650Y-77578110D01*
X122298454Y-77578110D01*
X122298454Y-77617128D01*
X122313386Y-77653176D01*
X122340976Y-77680766D01*
X122377024Y-77695698D01*
X122396533Y-77697619D01*
X122887009Y-77697619D01*
X122887009Y-78188096D01*
X122888930Y-78207605D01*
X122903862Y-78243653D01*
X122931452Y-78271243D01*
X122967500Y-78286175D01*
X123006518Y-78286175D01*
X123042566Y-78271243D01*
X123070156Y-78243653D01*
X123085088Y-78207605D01*
X123087009Y-78188096D01*
X123087009Y-77697619D01*
X123577485Y-77697619D01*
X123596994Y-77695698D01*
X123633042Y-77680766D01*
X123660632Y-77653176D01*
X123675564Y-77617128D01*
X123675564Y-77578110D01*
X123660632Y-77542062D01*
X123633042Y-77514472D01*
X123596994Y-77499540D01*
X123577485Y-77497619D01*
X123087009Y-77497619D01*
X123087009Y-77289874D01*
X124423683Y-77289874D01*
X124426449Y-77328794D01*
X124443899Y-77363693D01*
X124473375Y-77389258D01*
X124491275Y-77397249D01*
X125756671Y-77819047D01*
X124491275Y-78240846D01*
X124473375Y-78248837D01*
X124443899Y-78274403D01*
X124426449Y-78309301D01*
X124423683Y-78348221D01*
X124436021Y-78385237D01*
X124461587Y-78414713D01*
X124496485Y-78432163D01*
X124535405Y-78434929D01*
X124554521Y-78430582D01*
X126104521Y-77913915D01*
X126122422Y-77905923D01*
X126127821Y-77901239D01*
X126134209Y-77898046D01*
X126142421Y-77888577D01*
X126151898Y-77880358D01*
X126155093Y-77873966D01*
X126159774Y-77868570D01*
X126163738Y-77856675D01*
X126169347Y-77845459D01*
X126169853Y-77838331D01*
X126172113Y-77831554D01*
X126171224Y-77819051D01*
X126172114Y-77806539D01*
X126169853Y-77799757D01*
X126169347Y-77792634D01*
X126163741Y-77781424D01*
X126159775Y-77769524D01*
X126155091Y-77764123D01*
X126151897Y-77757735D01*
X126142427Y-77749521D01*
X126134210Y-77740047D01*
X126127818Y-77736851D01*
X126122421Y-77732170D01*
X126104521Y-77724179D01*
X125281980Y-77449999D01*
X126918311Y-77449999D01*
X126918311Y-77671428D01*
X126920232Y-77690937D01*
X126921607Y-77694257D01*
X126921862Y-77697841D01*
X126928868Y-77716150D01*
X127002678Y-77863768D01*
X127013121Y-77880359D01*
X127042598Y-77905923D01*
X127079614Y-77918262D01*
X127118534Y-77915496D01*
X127153433Y-77898046D01*
X127178997Y-77868570D01*
X127191336Y-77831554D01*
X127188570Y-77792634D01*
X127181563Y-77774325D01*
X127118311Y-77647820D01*
X127118311Y-77466226D01*
X127179523Y-77282590D01*
X127298976Y-77163137D01*
X127422264Y-77101492D01*
X127694906Y-77033333D01*
X127891716Y-77033333D01*
X128164357Y-77101493D01*
X128287646Y-77163137D01*
X128407099Y-77282590D01*
X128468311Y-77466225D01*
X128468311Y-77581389D01*
X128407098Y-77765028D01*
X128379271Y-77792856D01*
X128004025Y-77792856D01*
X128004025Y-77597618D01*
X128002104Y-77578109D01*
X127987172Y-77542061D01*
X127959582Y-77514471D01*
X127923534Y-77499539D01*
X127884516Y-77499539D01*
X127848468Y-77514471D01*
X127820878Y-77542061D01*
X127805946Y-77578109D01*
X127804025Y-77597618D01*
X127804025Y-77892856D01*
X127805946Y-77912364D01*
X127805946Y-77912365D01*
X127820878Y-77948413D01*
X127848468Y-77976003D01*
X127884516Y-77990935D01*
X127904025Y-77992856D01*
X128420692Y-77992856D01*
X128440201Y-77990935D01*
X128450758Y-77986561D01*
X128476249Y-77976004D01*
X128491402Y-77963567D01*
X128565212Y-77889758D01*
X128577649Y-77874605D01*
X128579024Y-77871285D01*
X128581379Y-77868570D01*
X128589370Y-77850670D01*
X128663179Y-77629241D01*
X128665378Y-77619568D01*
X128666390Y-77617127D01*
X128666738Y-77613589D01*
X128667526Y-77610126D01*
X128667338Y-77607491D01*
X128668311Y-77597618D01*
X128668311Y-77449999D01*
X128667338Y-77440125D01*
X128667526Y-77437492D01*
X128666738Y-77434027D01*
X128666390Y-77430490D01*
X128665379Y-77428049D01*
X128663180Y-77418377D01*
X128589370Y-77196948D01*
X128581379Y-77179048D01*
X128579024Y-77176332D01*
X128577649Y-77173013D01*
X128565212Y-77157860D01*
X128417592Y-77010241D01*
X128409927Y-77003950D01*
X128408194Y-77001952D01*
X128405181Y-77000056D01*
X128402439Y-76997805D01*
X128400001Y-76996795D01*
X128391603Y-76991509D01*
X128243985Y-76917699D01*
X128242556Y-76917152D01*
X128241977Y-76916723D01*
X128233806Y-76913804D01*
X128225676Y-76910693D01*
X128224953Y-76910641D01*
X128223516Y-76910128D01*
X127928278Y-76836319D01*
X127924898Y-76835819D01*
X127923534Y-76835254D01*
X127916182Y-76834530D01*
X127908886Y-76833451D01*
X127907427Y-76833668D01*
X127904025Y-76833333D01*
X127682597Y-76833333D01*
X127679194Y-76833668D01*
X127677736Y-76833451D01*
X127670438Y-76834530D01*
X127663088Y-76835254D01*
X127661724Y-76835818D01*
X127658343Y-76836319D01*
X127363106Y-76910128D01*
X127361668Y-76910641D01*
X127360946Y-76910693D01*
X127352832Y-76913798D01*
X127344645Y-76916723D01*
X127344062Y-76917154D01*
X127342637Y-76917700D01*
X127195018Y-76991509D01*
X127186619Y-76996795D01*
X127184183Y-76997805D01*
X127181439Y-77000056D01*
X127178428Y-77001952D01*
X127176695Y-77003949D01*
X127169029Y-77010241D01*
X127021410Y-77157860D01*
X127008974Y-77173014D01*
X127007599Y-77176332D01*
X127005245Y-77179047D01*
X126997253Y-77196948D01*
X126923443Y-77418376D01*
X126921243Y-77428048D01*
X126920232Y-77430490D01*
X126919883Y-77434027D01*
X126919096Y-77437491D01*
X126919283Y-77440125D01*
X126918311Y-77449999D01*
X125281980Y-77449999D01*
X124554521Y-77207513D01*
X124535405Y-77203166D01*
X124496485Y-77205932D01*
X124461586Y-77223382D01*
X124436021Y-77252858D01*
X124423683Y-77289874D01*
X123087009Y-77289874D01*
X123087009Y-77007143D01*
X123085088Y-76987634D01*
X123070156Y-76951586D01*
X123042566Y-76923996D01*
X123006518Y-76909064D01*
X122967500Y-76909064D01*
X122931452Y-76923996D01*
X122903862Y-76951586D01*
X122888930Y-76987634D01*
X122887009Y-77007143D01*
X122887009Y-77497619D01*
X122396533Y-77497619D01*
X122377024Y-77499540D01*
X122340976Y-77514472D01*
X122313386Y-77542062D01*
X122298454Y-77578110D01*
X120648650Y-77578110D01*
X120443977Y-77434839D01*
X120443977Y-77217857D01*
X121082072Y-77217857D01*
X121101581Y-77215936D01*
X121137629Y-77201004D01*
X121165219Y-77173414D01*
X121180151Y-77137366D01*
X121180151Y-77098348D01*
X121165219Y-77062300D01*
X121137629Y-77034710D01*
X121101581Y-77019778D01*
X121082072Y-77017857D01*
X119532072Y-77017857D01*
X119512563Y-77019778D01*
X119476515Y-77034710D01*
X119448925Y-77062300D01*
X119433993Y-77098348D01*
X119432072Y-77117857D01*
X117136659Y-77117857D01*
X117136659Y-77080953D01*
X117134738Y-77061444D01*
X117119806Y-77025396D01*
X117092216Y-76997806D01*
X117056168Y-76982874D01*
X117017150Y-76982874D01*
X116981102Y-76997806D01*
X116953512Y-77025396D01*
X116938580Y-77061444D01*
X116936659Y-77080953D01*
X113686707Y-77080953D01*
X113678980Y-77062300D01*
X113651390Y-77034710D01*
X113615342Y-77019778D01*
X113595833Y-77017857D01*
X112045833Y-77017857D01*
X112026324Y-77019778D01*
X111990276Y-77034710D01*
X111962686Y-77062300D01*
X111947754Y-77098348D01*
X111945833Y-77117857D01*
X109650420Y-77117857D01*
X109650420Y-77080953D01*
X109648499Y-77061444D01*
X109633567Y-77025396D01*
X109605977Y-76997806D01*
X109569929Y-76982874D01*
X109530911Y-76982874D01*
X109494863Y-76997806D01*
X109467273Y-77025396D01*
X109452341Y-77061444D01*
X109450420Y-77080953D01*
X106782785Y-77080953D01*
X106782785Y-76661111D01*
X128840533Y-76661111D01*
X128840533Y-81485723D01*
G37*
D13*
G36*
X137930550Y-83303232D02*
G01*
X137885762Y-83286436D01*
X137863155Y-83244047D01*
X137863155Y-83065143D01*
X137895119Y-82997220D01*
X137959592Y-82956924D01*
X137999086Y-82951987D01*
X137930550Y-83303232D01*
G37*
G36*
X138423881Y-81076659D02*
G01*
X138446488Y-81119046D01*
X138446488Y-81357474D01*
X138428167Y-81396406D01*
X138220298Y-81422390D01*
X138220298Y-81175263D01*
X138252262Y-81107338D01*
X138316735Y-81067043D01*
X138377863Y-81059402D01*
X138423881Y-81076659D01*
G37*
G36*
X137930550Y-80386565D02*
G01*
X137885762Y-80369769D01*
X137863155Y-80327380D01*
X137863155Y-80148476D01*
X137895119Y-80080553D01*
X137959592Y-80040257D01*
X137999086Y-80035320D01*
X137930550Y-80386565D01*
G37*
G36*
X135779296Y-79385747D02*
G01*
X135739355Y-79470622D01*
X135703761Y-79510665D01*
X135623334Y-79560932D01*
X135562207Y-79568573D01*
X135493298Y-79542732D01*
X135468111Y-79520693D01*
X135434058Y-79456844D01*
X135434058Y-79181776D01*
X135779296Y-79138621D01*
X135779296Y-79385747D01*
G37*
G36*
X136434058Y-79363426D02*
G01*
X136394117Y-79448301D01*
X136358523Y-79488344D01*
X136278096Y-79538611D01*
X136157445Y-79553692D01*
X136088536Y-79527851D01*
X136071018Y-79512523D01*
X136029296Y-79392571D01*
X136029296Y-79107371D01*
X136434058Y-79056776D01*
X136434058Y-79363426D01*
G37*
G36*
X138446488Y-78916665D02*
G01*
X138446488Y-79095569D01*
X138406547Y-79180444D01*
X138370953Y-79220487D01*
X138290526Y-79270754D01*
X137991303Y-79308157D01*
X137922394Y-79282315D01*
X137897208Y-79260277D01*
X137863155Y-79196428D01*
X137863155Y-79017524D01*
X137881475Y-78978593D01*
X138442138Y-78908511D01*
X138446488Y-78916665D01*
G37*
G36*
X137930550Y-78184184D02*
G01*
X137885762Y-78167388D01*
X137863155Y-78124999D01*
X137863155Y-77946095D01*
X137895119Y-77878172D01*
X137959592Y-77837876D01*
X137999086Y-77832939D01*
X137930550Y-78184184D01*
G37*
G36*
X139251720Y-84608214D02*
G01*
X135045169Y-84608214D01*
X135045169Y-84227679D01*
X137613155Y-84227679D01*
X137613155Y-84346727D01*
X137615557Y-84371113D01*
X137634221Y-84416173D01*
X137668709Y-84450661D01*
X137713769Y-84469325D01*
X137762541Y-84469325D01*
X137807601Y-84450661D01*
X137842089Y-84416173D01*
X137860753Y-84371113D01*
X137863155Y-84346727D01*
X137863155Y-84255620D01*
X137903095Y-84170747D01*
X137938690Y-84130703D01*
X138019116Y-84080436D01*
X138586992Y-84009452D01*
X138610892Y-84004044D01*
X138653289Y-83979935D01*
X138683233Y-83941435D01*
X138696164Y-83894408D01*
X138690114Y-83846013D01*
X138666005Y-83803616D01*
X138627506Y-83773672D01*
X138580479Y-83760741D01*
X138555983Y-83761382D01*
X137722651Y-83865549D01*
X137698751Y-83870957D01*
X137656354Y-83895066D01*
X137626410Y-83933566D01*
X137613479Y-83980593D01*
X137619528Y-84028988D01*
X137643637Y-84071385D01*
X137665539Y-84088420D01*
X137625053Y-84174454D01*
X137616843Y-84197542D01*
X137616702Y-84200528D01*
X137615557Y-84203293D01*
X137613155Y-84227679D01*
X135045169Y-84227679D01*
X135045169Y-83037202D01*
X137613155Y-83037202D01*
X137613155Y-83275298D01*
X137615557Y-83299684D01*
X137617908Y-83305361D01*
X137618505Y-83311474D01*
X137627861Y-83334122D01*
X137687385Y-83445729D01*
X137694807Y-83456858D01*
X137696161Y-83459837D01*
X137697838Y-83461404D01*
X137700980Y-83466115D01*
X137716817Y-83479136D01*
X137731798Y-83493134D01*
X137736878Y-83495632D01*
X137738653Y-83497091D01*
X137741784Y-83498043D01*
X137753788Y-83503946D01*
X137872835Y-83548589D01*
X137896512Y-83554902D01*
X137902222Y-83554708D01*
X137907735Y-83556224D01*
X137932230Y-83555583D01*
X138051278Y-83540702D01*
X138075178Y-83535294D01*
X138079338Y-83532927D01*
X138084030Y-83531977D01*
X138100408Y-83520946D01*
X138117575Y-83511185D01*
X138120513Y-83507406D01*
X138124485Y-83504732D01*
X138135397Y-83488269D01*
X138147519Y-83472685D01*
X138148787Y-83468070D01*
X138151433Y-83464080D01*
X138158460Y-83440606D01*
X138260168Y-82919352D01*
X138377863Y-82904640D01*
X138423881Y-82921897D01*
X138446488Y-82964284D01*
X138446488Y-83143188D01*
X138398862Y-83244395D01*
X138390652Y-83267483D01*
X138388354Y-83316201D01*
X138404874Y-83362091D01*
X138437699Y-83398165D01*
X138481829Y-83418932D01*
X138530547Y-83421230D01*
X138576437Y-83404710D01*
X138612511Y-83371885D01*
X138625068Y-83350843D01*
X138684590Y-83224355D01*
X138692800Y-83201268D01*
X138692940Y-83198281D01*
X138694086Y-83195517D01*
X138696488Y-83171131D01*
X138696488Y-82933036D01*
X138694086Y-82908650D01*
X138691735Y-82902975D01*
X138691139Y-82896861D01*
X138681783Y-82874213D01*
X138622259Y-82762606D01*
X138614837Y-82751476D01*
X138613483Y-82748497D01*
X138611804Y-82746929D01*
X138608664Y-82742219D01*
X138592824Y-82729194D01*
X138577845Y-82715199D01*
X138572766Y-82712702D01*
X138570992Y-82711243D01*
X138567858Y-82710289D01*
X138555855Y-82704388D01*
X138436807Y-82659745D01*
X138413131Y-82653431D01*
X138407417Y-82653624D01*
X138401908Y-82652110D01*
X138377413Y-82652751D01*
X137901222Y-82712275D01*
X137877322Y-82717683D01*
X137875029Y-82718986D01*
X137872429Y-82719422D01*
X137850477Y-82730310D01*
X137731429Y-82804714D01*
X137712023Y-82819675D01*
X137705473Y-82828859D01*
X137697134Y-82836447D01*
X137684577Y-82857489D01*
X137625053Y-82983977D01*
X137616843Y-83007065D01*
X137616702Y-83010051D01*
X137615557Y-83012816D01*
X137613155Y-83037202D01*
X135045169Y-83037202D01*
X135045169Y-81809524D01*
X135184058Y-81809524D01*
X135184058Y-82107143D01*
X135185439Y-82121169D01*
X135185253Y-82124387D01*
X135186104Y-82127918D01*
X135186460Y-82131529D01*
X135187691Y-82134503D01*
X135190996Y-82148208D01*
X135250520Y-82319340D01*
X135260800Y-82341583D01*
X135293231Y-82378010D01*
X135337135Y-82399254D01*
X135385826Y-82402079D01*
X135431891Y-82386056D01*
X135468318Y-82353625D01*
X135489562Y-82309721D01*
X135492387Y-82261031D01*
X135486644Y-82237209D01*
X135434058Y-82086024D01*
X135434058Y-81837465D01*
X135473999Y-81752590D01*
X135509593Y-81712547D01*
X135590020Y-81662280D01*
X135651147Y-81654639D01*
X135720055Y-81680480D01*
X135745244Y-81702520D01*
X135786985Y-81780785D01*
X135842785Y-81997009D01*
X135844016Y-82000373D01*
X135844170Y-82001950D01*
X135847870Y-82010907D01*
X135851205Y-82020021D01*
X135852158Y-82021287D01*
X135853526Y-82024598D01*
X135913050Y-82136205D01*
X135923166Y-82151375D01*
X135924261Y-82153588D01*
X135925577Y-82154990D01*
X135926645Y-82156591D01*
X135928551Y-82158158D01*
X135941031Y-82171453D01*
X136000555Y-82223536D01*
X136015120Y-82233948D01*
X136016987Y-82235693D01*
X136018821Y-82236595D01*
X136020489Y-82237787D01*
X136022913Y-82238607D01*
X136038977Y-82246505D01*
X136158024Y-82291148D01*
X136181701Y-82297461D01*
X136187411Y-82297267D01*
X136192924Y-82298783D01*
X136217419Y-82298142D01*
X136336467Y-82283261D01*
X136360367Y-82277853D01*
X136362661Y-82276548D01*
X136365261Y-82276113D01*
X136387213Y-82265226D01*
X136416437Y-82246961D01*
X137196812Y-82246961D01*
X137202861Y-82295356D01*
X137226970Y-82337753D01*
X137265470Y-82367697D01*
X137312497Y-82380628D01*
X137336992Y-82379987D01*
X137613155Y-82345466D01*
X137613155Y-82501488D01*
X137615557Y-82525874D01*
X137634221Y-82570934D01*
X137668709Y-82605422D01*
X137713769Y-82624086D01*
X137762541Y-82624086D01*
X137807601Y-82605422D01*
X137842089Y-82570934D01*
X137860753Y-82525874D01*
X137863155Y-82501488D01*
X137863155Y-82314216D01*
X138377863Y-82249878D01*
X138423880Y-82267134D01*
X138446488Y-82309523D01*
X138446488Y-82397321D01*
X138448890Y-82421707D01*
X138467554Y-82466767D01*
X138502042Y-82501255D01*
X138547102Y-82519919D01*
X138595874Y-82519919D01*
X138640934Y-82501255D01*
X138675422Y-82466767D01*
X138694086Y-82421707D01*
X138696488Y-82397321D01*
X138696488Y-82278274D01*
X138694086Y-82253888D01*
X138691735Y-82248213D01*
X138691139Y-82242099D01*
X138681782Y-82219451D01*
X138622260Y-82107843D01*
X138614834Y-82096708D01*
X138613482Y-82093733D01*
X138611806Y-82092167D01*
X138608665Y-82087457D01*
X138592828Y-82074436D01*
X138577845Y-82060436D01*
X138572764Y-82057938D01*
X138570992Y-82056481D01*
X138567863Y-82055528D01*
X138555855Y-82049625D01*
X138436807Y-82004983D01*
X138413130Y-81998669D01*
X138407417Y-81998862D01*
X138401908Y-81997348D01*
X138377413Y-81997989D01*
X137863155Y-82062270D01*
X137863155Y-82025297D01*
X137860753Y-82000911D01*
X137842089Y-81955851D01*
X137807601Y-81921363D01*
X137762541Y-81902699D01*
X137713769Y-81902699D01*
X137668709Y-81921363D01*
X137634221Y-81955851D01*
X137615557Y-82000911D01*
X137613155Y-82025297D01*
X137613155Y-82093520D01*
X137305984Y-82131917D01*
X137282084Y-82137325D01*
X137239687Y-82161434D01*
X137209743Y-82199934D01*
X137196812Y-82246961D01*
X136416437Y-82246961D01*
X136506261Y-82190821D01*
X136512808Y-82185773D01*
X136515440Y-82184497D01*
X136520360Y-82179950D01*
X136525667Y-82175859D01*
X136527365Y-82173477D01*
X136533437Y-82167867D01*
X136592961Y-82100903D01*
X136597899Y-82094108D01*
X136600081Y-82092123D01*
X136603472Y-82086438D01*
X136607367Y-82081081D01*
X136608334Y-82078292D01*
X136612638Y-82071081D01*
X136672160Y-81944593D01*
X136680370Y-81921506D01*
X136680510Y-81918519D01*
X136681656Y-81915755D01*
X136684058Y-81891369D01*
X136684058Y-81593750D01*
X136682676Y-81579723D01*
X136682863Y-81576507D01*
X136682011Y-81572976D01*
X136681656Y-81569364D01*
X136680423Y-81566389D01*
X136677120Y-81552685D01*
X136617597Y-81381554D01*
X136607317Y-81359311D01*
X136574886Y-81322883D01*
X136530983Y-81301639D01*
X136482292Y-81298814D01*
X136436227Y-81314837D01*
X136399799Y-81347268D01*
X136378555Y-81391171D01*
X136375730Y-81439862D01*
X136381473Y-81463684D01*
X136434058Y-81614867D01*
X136434058Y-81863426D01*
X136394117Y-81948301D01*
X136358523Y-81988344D01*
X136278096Y-82038611D01*
X136216968Y-82046252D01*
X136148059Y-82020410D01*
X136122873Y-81998372D01*
X136081130Y-81920105D01*
X136025331Y-81703884D01*
X136024100Y-81700522D01*
X136023947Y-81698944D01*
X136020240Y-81689972D01*
X136016911Y-81680872D01*
X136015958Y-81679606D01*
X136014591Y-81676296D01*
X135955067Y-81564689D01*
X135944952Y-81549521D01*
X135943857Y-81547306D01*
X135942538Y-81545901D01*
X135941472Y-81544302D01*
X135939566Y-81542735D01*
X135927087Y-81529440D01*
X135867563Y-81477356D01*
X135852997Y-81466943D01*
X135851129Y-81465198D01*
X135849292Y-81464295D01*
X135847629Y-81463106D01*
X135845208Y-81462287D01*
X135829139Y-81454387D01*
X135710091Y-81409744D01*
X135686415Y-81403430D01*
X135680701Y-81403623D01*
X135675192Y-81402109D01*
X135650696Y-81402750D01*
X135531650Y-81417631D01*
X135507750Y-81423039D01*
X135505455Y-81424343D01*
X135502856Y-81424779D01*
X135480904Y-81435666D01*
X135361856Y-81510071D01*
X135355308Y-81515118D01*
X135352677Y-81516395D01*
X135347756Y-81520941D01*
X135342450Y-81525033D01*
X135340751Y-81527414D01*
X135334680Y-81533025D01*
X135275156Y-81599989D01*
X135270218Y-81606783D01*
X135268037Y-81608768D01*
X135264646Y-81614449D01*
X135260750Y-81619811D01*
X135259781Y-81622601D01*
X135255480Y-81629810D01*
X135195956Y-81756300D01*
X135187746Y-81779387D01*
X135187605Y-81782373D01*
X135186460Y-81785138D01*
X135184058Y-81809524D01*
X135045169Y-81809524D01*
X135045169Y-81191964D01*
X137613155Y-81191964D01*
X137613155Y-81430060D01*
X137615557Y-81454446D01*
X137617908Y-81460123D01*
X137618505Y-81466236D01*
X137627861Y-81488884D01*
X137687385Y-81600491D01*
X137694807Y-81611620D01*
X137696161Y-81614599D01*
X137697838Y-81616166D01*
X137700980Y-81620877D01*
X137716817Y-81633898D01*
X137731798Y-81647896D01*
X137736878Y-81650394D01*
X137738653Y-81651853D01*
X137741784Y-81652805D01*
X137753788Y-81658708D01*
X137872835Y-81703351D01*
X137896512Y-81709664D01*
X137902222Y-81709470D01*
X137907735Y-81710986D01*
X137932230Y-81710345D01*
X138586993Y-81628499D01*
X138610893Y-81623090D01*
X138653290Y-81598982D01*
X138683234Y-81560482D01*
X138696164Y-81513455D01*
X138690115Y-81465060D01*
X138680289Y-81447780D01*
X138684590Y-81438641D01*
X138692800Y-81415554D01*
X138692940Y-81412567D01*
X138694086Y-81409803D01*
X138696488Y-81385417D01*
X138696488Y-81087798D01*
X138694086Y-81063412D01*
X138691735Y-81057737D01*
X138691139Y-81051623D01*
X138681783Y-81028975D01*
X138622259Y-80917368D01*
X138614837Y-80906238D01*
X138613483Y-80903259D01*
X138611804Y-80901691D01*
X138608664Y-80896981D01*
X138592824Y-80883956D01*
X138577845Y-80869961D01*
X138572766Y-80867464D01*
X138570992Y-80866005D01*
X138567858Y-80865051D01*
X138555855Y-80859150D01*
X138436807Y-80814507D01*
X138413131Y-80808193D01*
X138407417Y-80808386D01*
X138401908Y-80806872D01*
X138377412Y-80807513D01*
X138258365Y-80822394D01*
X138234465Y-80827802D01*
X138232172Y-80829105D01*
X138229572Y-80829541D01*
X138207620Y-80840429D01*
X138088572Y-80914833D01*
X138069166Y-80929794D01*
X138062616Y-80938977D01*
X138054277Y-80946566D01*
X138041720Y-80967608D01*
X137982196Y-81094098D01*
X137973986Y-81117185D01*
X137973845Y-81120171D01*
X137972700Y-81122936D01*
X137970298Y-81147322D01*
X137970298Y-81416999D01*
X137951977Y-81455930D01*
X137931779Y-81458455D01*
X137885762Y-81441198D01*
X137863155Y-81398809D01*
X137863155Y-81219905D01*
X137910781Y-81118701D01*
X137918991Y-81095613D01*
X137921290Y-81046895D01*
X137904770Y-81001005D01*
X137871946Y-80964931D01*
X137827816Y-80944163D01*
X137779098Y-80941865D01*
X137733208Y-80958385D01*
X137697134Y-80991209D01*
X137684577Y-81012251D01*
X137625053Y-81138739D01*
X137616843Y-81161827D01*
X137616702Y-81164813D01*
X137615557Y-81167578D01*
X137613155Y-81191964D01*
X135045169Y-81191964D01*
X135045169Y-80312437D01*
X135184382Y-80312437D01*
X135190431Y-80360832D01*
X135214540Y-80403229D01*
X135253040Y-80433173D01*
X135300067Y-80446104D01*
X135324562Y-80445463D01*
X136305909Y-80322794D01*
X136374819Y-80348636D01*
X136400006Y-80370674D01*
X136434058Y-80434521D01*
X136434058Y-80613426D01*
X136394117Y-80698301D01*
X136358523Y-80738344D01*
X136278096Y-80788611D01*
X135293554Y-80911679D01*
X135269654Y-80917087D01*
X135227257Y-80941196D01*
X135197313Y-80979696D01*
X135184382Y-81026723D01*
X135190431Y-81075118D01*
X135214540Y-81117515D01*
X135253040Y-81147459D01*
X135300067Y-81160390D01*
X135324562Y-81159749D01*
X136336467Y-81033261D01*
X136360367Y-81027853D01*
X136362661Y-81026548D01*
X136365261Y-81026113D01*
X136387213Y-81015226D01*
X136506261Y-80940821D01*
X136512808Y-80935773D01*
X136515440Y-80934497D01*
X136520360Y-80929950D01*
X136525667Y-80925859D01*
X136527365Y-80923477D01*
X136533437Y-80917867D01*
X136592961Y-80850903D01*
X136597899Y-80844108D01*
X136600081Y-80842123D01*
X136603472Y-80836438D01*
X136607367Y-80831081D01*
X136608334Y-80828292D01*
X136612638Y-80821081D01*
X136672160Y-80694593D01*
X136680370Y-80671506D01*
X136680510Y-80668519D01*
X136681656Y-80665755D01*
X136684058Y-80641369D01*
X136684058Y-80403273D01*
X136681656Y-80378887D01*
X136679305Y-80373212D01*
X136678709Y-80367098D01*
X136669353Y-80344450D01*
X136609829Y-80232843D01*
X136599712Y-80217673D01*
X136598618Y-80215459D01*
X136597300Y-80214055D01*
X136596234Y-80212456D01*
X136594327Y-80210888D01*
X136581847Y-80197593D01*
X136522324Y-80145511D01*
X136507761Y-80135100D01*
X136505891Y-80133353D01*
X136504052Y-80132449D01*
X136502389Y-80131260D01*
X136499968Y-80130441D01*
X136483901Y-80122542D01*
X136478549Y-80120535D01*
X137613155Y-80120535D01*
X137613155Y-80358631D01*
X137615557Y-80383017D01*
X137617908Y-80388694D01*
X137618505Y-80394807D01*
X137627861Y-80417455D01*
X137687385Y-80529062D01*
X137694807Y-80540191D01*
X137696161Y-80543170D01*
X137697838Y-80544737D01*
X137700980Y-80549448D01*
X137716817Y-80562469D01*
X137731798Y-80576467D01*
X137736878Y-80578965D01*
X137738653Y-80580424D01*
X137741784Y-80581376D01*
X137753788Y-80587279D01*
X137872835Y-80631922D01*
X137896512Y-80638235D01*
X137902222Y-80638041D01*
X137907735Y-80639557D01*
X137932230Y-80638916D01*
X138051278Y-80624035D01*
X138075178Y-80618627D01*
X138079338Y-80616260D01*
X138084030Y-80615310D01*
X138100408Y-80604279D01*
X138117575Y-80594518D01*
X138120513Y-80590739D01*
X138124485Y-80588065D01*
X138135397Y-80571602D01*
X138147519Y-80556018D01*
X138148787Y-80551403D01*
X138151433Y-80547413D01*
X138158460Y-80523939D01*
X138260168Y-80002685D01*
X138377863Y-79987973D01*
X138423881Y-80005230D01*
X138446488Y-80047617D01*
X138446488Y-80226521D01*
X138398862Y-80327728D01*
X138390652Y-80350816D01*
X138388354Y-80399534D01*
X138404874Y-80445424D01*
X138437699Y-80481498D01*
X138481829Y-80502265D01*
X138530547Y-80504563D01*
X138576437Y-80488043D01*
X138612511Y-80455218D01*
X138625068Y-80434176D01*
X138684590Y-80307688D01*
X138692800Y-80284601D01*
X138692940Y-80281614D01*
X138694086Y-80278850D01*
X138696488Y-80254464D01*
X138696488Y-80016369D01*
X138694086Y-79991983D01*
X138691735Y-79986308D01*
X138691139Y-79980194D01*
X138681783Y-79957546D01*
X138622259Y-79845939D01*
X138614837Y-79834809D01*
X138613483Y-79831830D01*
X138611804Y-79830262D01*
X138608664Y-79825552D01*
X138592824Y-79812527D01*
X138577845Y-79798532D01*
X138572766Y-79796035D01*
X138570992Y-79794576D01*
X138567858Y-79793622D01*
X138555855Y-79787721D01*
X138436807Y-79743078D01*
X138413131Y-79736764D01*
X138407417Y-79736957D01*
X138401908Y-79735443D01*
X138377413Y-79736084D01*
X137901222Y-79795608D01*
X137877322Y-79801016D01*
X137875029Y-79802319D01*
X137872429Y-79802755D01*
X137850477Y-79813643D01*
X137731429Y-79888047D01*
X137712023Y-79903008D01*
X137705473Y-79912192D01*
X137697134Y-79919780D01*
X137684577Y-79940822D01*
X137625053Y-80067310D01*
X137616843Y-80090398D01*
X137616702Y-80093384D01*
X137615557Y-80096149D01*
X137613155Y-80120535D01*
X136478549Y-80120535D01*
X136364853Y-80077899D01*
X136341177Y-80071585D01*
X136335463Y-80071778D01*
X136329954Y-80070264D01*
X136305459Y-80070905D01*
X135293554Y-80197393D01*
X135269654Y-80202801D01*
X135227257Y-80226910D01*
X135197313Y-80265410D01*
X135184382Y-80312437D01*
X135045169Y-80312437D01*
X135045169Y-79071428D01*
X135184058Y-79071428D01*
X135184058Y-79488095D01*
X135186460Y-79512481D01*
X135188811Y-79518158D01*
X135189408Y-79524271D01*
X135198764Y-79546919D01*
X135258288Y-79658526D01*
X135268404Y-79673696D01*
X135269499Y-79675909D01*
X135270815Y-79677311D01*
X135271883Y-79678912D01*
X135273789Y-79680479D01*
X135286269Y-79693774D01*
X135345793Y-79745857D01*
X135360357Y-79756269D01*
X135362226Y-79758015D01*
X135364061Y-79758917D01*
X135365727Y-79760108D01*
X135368150Y-79760927D01*
X135384216Y-79768826D01*
X135503263Y-79813469D01*
X135526940Y-79819782D01*
X135532650Y-79819588D01*
X135538163Y-79821104D01*
X135562658Y-79820463D01*
X135681705Y-79805582D01*
X135705605Y-79800174D01*
X135707899Y-79798869D01*
X135710499Y-79798434D01*
X135732451Y-79787547D01*
X135851499Y-79713142D01*
X135858046Y-79708094D01*
X135860678Y-79706818D01*
X135865598Y-79702271D01*
X135870905Y-79698180D01*
X135872603Y-79695798D01*
X135878675Y-79690188D01*
X135885561Y-79682440D01*
X135941031Y-79730976D01*
X135955595Y-79741388D01*
X135957464Y-79743134D01*
X135959299Y-79744036D01*
X135960965Y-79745227D01*
X135963388Y-79746046D01*
X135979454Y-79753945D01*
X136098501Y-79798588D01*
X136122178Y-79804901D01*
X136127887Y-79804707D01*
X136133400Y-79806223D01*
X136157896Y-79805582D01*
X136336467Y-79783261D01*
X136360367Y-79777853D01*
X136362661Y-79776548D01*
X136365261Y-79776113D01*
X136387213Y-79765226D01*
X136506261Y-79690821D01*
X136512808Y-79685773D01*
X136515440Y-79684497D01*
X136520360Y-79679950D01*
X136525667Y-79675859D01*
X136527365Y-79673477D01*
X136533437Y-79667867D01*
X136592961Y-79600903D01*
X136597899Y-79594108D01*
X136600081Y-79592123D01*
X136603472Y-79586438D01*
X136607367Y-79581081D01*
X136608334Y-79578292D01*
X136612638Y-79571081D01*
X136672160Y-79444593D01*
X136680370Y-79421506D01*
X136680510Y-79418519D01*
X136681656Y-79415755D01*
X136684058Y-79391369D01*
X136684058Y-78989583D01*
X137613155Y-78989583D01*
X137613155Y-79227679D01*
X137615557Y-79252065D01*
X137617908Y-79257742D01*
X137618505Y-79263855D01*
X137627861Y-79286503D01*
X137687385Y-79398110D01*
X137697501Y-79413280D01*
X137698596Y-79415493D01*
X137699912Y-79416895D01*
X137700980Y-79418496D01*
X137702886Y-79420063D01*
X137715366Y-79433358D01*
X137774890Y-79485441D01*
X137789455Y-79495853D01*
X137791322Y-79497598D01*
X137793156Y-79498500D01*
X137794824Y-79499692D01*
X137797248Y-79500512D01*
X137813312Y-79508410D01*
X137932359Y-79553053D01*
X137956036Y-79559366D01*
X137961746Y-79559172D01*
X137967259Y-79560688D01*
X137991754Y-79560047D01*
X138348897Y-79515404D01*
X138372797Y-79509996D01*
X138375091Y-79508691D01*
X138377691Y-79508256D01*
X138399643Y-79497369D01*
X138518691Y-79422964D01*
X138525238Y-79417916D01*
X138527870Y-79416640D01*
X138532790Y-79412093D01*
X138538097Y-79408002D01*
X138539795Y-79405620D01*
X138545867Y-79400010D01*
X138605391Y-79333046D01*
X138610329Y-79326251D01*
X138612511Y-79324266D01*
X138615902Y-79318581D01*
X138619797Y-79313224D01*
X138620764Y-79310435D01*
X138625068Y-79303224D01*
X138684590Y-79176736D01*
X138692800Y-79153649D01*
X138692940Y-79150662D01*
X138694086Y-79147898D01*
X138696488Y-79123512D01*
X138696488Y-78885417D01*
X138695641Y-78876823D01*
X139003660Y-78838321D01*
X139027559Y-78832913D01*
X139069956Y-78808804D01*
X139099900Y-78770304D01*
X139112831Y-78723277D01*
X139106782Y-78674882D01*
X139082673Y-78632485D01*
X139044174Y-78602541D01*
X138997147Y-78589610D01*
X138972651Y-78590251D01*
X137722651Y-78746501D01*
X137698751Y-78751909D01*
X137656354Y-78776018D01*
X137626410Y-78814518D01*
X137613479Y-78861545D01*
X137619528Y-78909940D01*
X137629353Y-78927219D01*
X137625053Y-78936358D01*
X137616843Y-78959446D01*
X137616702Y-78962432D01*
X137615557Y-78965197D01*
X137613155Y-78989583D01*
X136684058Y-78989583D01*
X136684058Y-78915178D01*
X136681656Y-78890792D01*
X136678657Y-78883552D01*
X136677685Y-78875774D01*
X136669402Y-78861208D01*
X136662992Y-78845732D01*
X136657450Y-78840190D01*
X136653576Y-78833377D01*
X136640349Y-78823089D01*
X136628504Y-78811244D01*
X136621264Y-78808245D01*
X136615077Y-78803433D01*
X136598920Y-78798990D01*
X136583444Y-78792580D01*
X136575607Y-78792580D01*
X136568050Y-78790502D01*
X136543554Y-78791143D01*
X135293554Y-78947393D01*
X135287203Y-78948830D01*
X135284672Y-78948830D01*
X135281624Y-78950092D01*
X135269654Y-78952801D01*
X135255088Y-78961083D01*
X135239612Y-78967494D01*
X135234070Y-78973035D01*
X135227257Y-78976910D01*
X135216971Y-78990134D01*
X135205124Y-79001982D01*
X135202124Y-79009223D01*
X135197313Y-79015410D01*
X135192871Y-79031563D01*
X135186460Y-79047042D01*
X135185257Y-79059254D01*
X135184382Y-79062437D01*
X135184696Y-79064949D01*
X135184058Y-79071428D01*
X135045169Y-79071428D01*
X135045169Y-77918154D01*
X137613155Y-77918154D01*
X137613155Y-78156250D01*
X137615557Y-78180636D01*
X137617908Y-78186313D01*
X137618505Y-78192426D01*
X137627861Y-78215074D01*
X137687385Y-78326681D01*
X137694807Y-78337810D01*
X137696161Y-78340789D01*
X137697838Y-78342356D01*
X137700980Y-78347067D01*
X137716817Y-78360088D01*
X137731798Y-78374086D01*
X137736878Y-78376584D01*
X137738653Y-78378043D01*
X137741784Y-78378995D01*
X137753788Y-78384898D01*
X137872835Y-78429541D01*
X137896512Y-78435854D01*
X137902222Y-78435660D01*
X137907735Y-78437176D01*
X137932230Y-78436535D01*
X138051278Y-78421654D01*
X138075178Y-78416246D01*
X138079338Y-78413879D01*
X138084030Y-78412929D01*
X138100408Y-78401898D01*
X138117575Y-78392137D01*
X138120513Y-78388358D01*
X138124485Y-78385684D01*
X138135397Y-78369221D01*
X138147519Y-78353637D01*
X138148787Y-78349022D01*
X138151433Y-78345032D01*
X138158460Y-78321558D01*
X138260168Y-77800304D01*
X138377863Y-77785592D01*
X138423881Y-77802849D01*
X138446488Y-77845236D01*
X138446488Y-78024140D01*
X138398862Y-78125347D01*
X138390652Y-78148435D01*
X138388354Y-78197153D01*
X138404874Y-78243043D01*
X138437699Y-78279117D01*
X138481829Y-78299884D01*
X138530547Y-78302182D01*
X138576437Y-78285662D01*
X138612511Y-78252837D01*
X138625068Y-78231795D01*
X138684590Y-78105307D01*
X138692800Y-78082220D01*
X138692940Y-78079233D01*
X138694086Y-78076469D01*
X138696488Y-78052083D01*
X138696488Y-77813988D01*
X138694086Y-77789602D01*
X138691735Y-77783927D01*
X138691139Y-77777813D01*
X138681783Y-77755165D01*
X138622259Y-77643558D01*
X138614837Y-77632428D01*
X138613483Y-77629449D01*
X138611804Y-77627881D01*
X138608664Y-77623171D01*
X138592824Y-77610146D01*
X138577845Y-77596151D01*
X138572766Y-77593654D01*
X138570992Y-77592195D01*
X138567858Y-77591241D01*
X138555855Y-77585340D01*
X138436807Y-77540697D01*
X138413131Y-77534383D01*
X138407417Y-77534576D01*
X138401908Y-77533062D01*
X138377413Y-77533703D01*
X137901222Y-77593227D01*
X137877322Y-77598635D01*
X137875029Y-77599938D01*
X137872429Y-77600374D01*
X137850477Y-77611262D01*
X137731429Y-77685666D01*
X137712023Y-77700627D01*
X137705473Y-77709811D01*
X137697134Y-77717399D01*
X137684577Y-77738441D01*
X137625053Y-77864929D01*
X137616843Y-77888017D01*
X137616702Y-77891003D01*
X137615557Y-77893768D01*
X137613155Y-77918154D01*
X135045169Y-77918154D01*
X135045169Y-77263392D01*
X137613155Y-77263392D01*
X137613155Y-77382440D01*
X137615557Y-77406826D01*
X137634221Y-77451886D01*
X137668709Y-77486374D01*
X137713769Y-77505038D01*
X137762541Y-77505038D01*
X137807601Y-77486374D01*
X137842089Y-77451886D01*
X137860753Y-77406826D01*
X137863155Y-77382440D01*
X137863155Y-77291333D01*
X137903095Y-77206460D01*
X137938690Y-77166416D01*
X138019116Y-77116149D01*
X138586992Y-77045165D01*
X138610892Y-77039757D01*
X138653289Y-77015648D01*
X138683233Y-76977148D01*
X138696164Y-76930121D01*
X138690114Y-76881726D01*
X138666005Y-76839329D01*
X138627506Y-76809385D01*
X138580479Y-76796454D01*
X138555983Y-76797095D01*
X137722651Y-76901262D01*
X137698751Y-76906670D01*
X137656354Y-76930779D01*
X137626410Y-76969279D01*
X137613479Y-77016306D01*
X137619528Y-77064701D01*
X137643637Y-77107098D01*
X137665539Y-77124133D01*
X137625053Y-77210167D01*
X137616843Y-77233255D01*
X137616702Y-77236241D01*
X137615557Y-77239006D01*
X137613155Y-77263392D01*
X135045169Y-77263392D01*
X135045169Y-76657565D01*
X139251720Y-76657565D01*
X139251720Y-84608214D01*
G37*
D11*
X110988094Y-56704819D02*
X110988094Y-55704819D01*
X110988094Y-55704819D02*
X110749999Y-55704819D01*
X110749999Y-55704819D02*
X110607142Y-55752438D01*
X110607142Y-55752438D02*
X110511904Y-55847676D01*
X110511904Y-55847676D02*
X110464285Y-55942914D01*
X110464285Y-55942914D02*
X110416666Y-56133390D01*
X110416666Y-56133390D02*
X110416666Y-56276247D01*
X110416666Y-56276247D02*
X110464285Y-56466723D01*
X110464285Y-56466723D02*
X110511904Y-56561961D01*
X110511904Y-56561961D02*
X110607142Y-56657200D01*
X110607142Y-56657200D02*
X110749999Y-56704819D01*
X110749999Y-56704819D02*
X110988094Y-56704819D01*
X110083332Y-55704819D02*
X109464285Y-55704819D01*
X109464285Y-55704819D02*
X109797618Y-56085771D01*
X109797618Y-56085771D02*
X109654761Y-56085771D01*
X109654761Y-56085771D02*
X109559523Y-56133390D01*
X109559523Y-56133390D02*
X109511904Y-56181009D01*
X109511904Y-56181009D02*
X109464285Y-56276247D01*
X109464285Y-56276247D02*
X109464285Y-56514342D01*
X109464285Y-56514342D02*
X109511904Y-56609580D01*
X109511904Y-56609580D02*
X109559523Y-56657200D01*
X109559523Y-56657200D02*
X109654761Y-56704819D01*
X109654761Y-56704819D02*
X109940475Y-56704819D01*
X109940475Y-56704819D02*
X110035713Y-56657200D01*
X110035713Y-56657200D02*
X110083332Y-56609580D01*
X134988094Y-56704819D02*
X134988094Y-55704819D01*
X134988094Y-55704819D02*
X134749999Y-55704819D01*
X134749999Y-55704819D02*
X134607142Y-55752438D01*
X134607142Y-55752438D02*
X134511904Y-55847676D01*
X134511904Y-55847676D02*
X134464285Y-55942914D01*
X134464285Y-55942914D02*
X134416666Y-56133390D01*
X134416666Y-56133390D02*
X134416666Y-56276247D01*
X134416666Y-56276247D02*
X134464285Y-56466723D01*
X134464285Y-56466723D02*
X134511904Y-56561961D01*
X134511904Y-56561961D02*
X134607142Y-56657200D01*
X134607142Y-56657200D02*
X134749999Y-56704819D01*
X134749999Y-56704819D02*
X134988094Y-56704819D01*
X134035713Y-55800057D02*
X133988094Y-55752438D01*
X133988094Y-55752438D02*
X133892856Y-55704819D01*
X133892856Y-55704819D02*
X133654761Y-55704819D01*
X133654761Y-55704819D02*
X133559523Y-55752438D01*
X133559523Y-55752438D02*
X133511904Y-55800057D01*
X133511904Y-55800057D02*
X133464285Y-55895295D01*
X133464285Y-55895295D02*
X133464285Y-55990533D01*
X133464285Y-55990533D02*
X133511904Y-56133390D01*
X133511904Y-56133390D02*
X134083332Y-56704819D01*
X134083332Y-56704819D02*
X133464285Y-56704819D01*
X150988094Y-79524819D02*
X150988094Y-78524819D01*
X150988094Y-78524819D02*
X150749999Y-78524819D01*
X150749999Y-78524819D02*
X150607142Y-78572438D01*
X150607142Y-78572438D02*
X150511904Y-78667676D01*
X150511904Y-78667676D02*
X150464285Y-78762914D01*
X150464285Y-78762914D02*
X150416666Y-78953390D01*
X150416666Y-78953390D02*
X150416666Y-79096247D01*
X150416666Y-79096247D02*
X150464285Y-79286723D01*
X150464285Y-79286723D02*
X150511904Y-79381961D01*
X150511904Y-79381961D02*
X150607142Y-79477200D01*
X150607142Y-79477200D02*
X150749999Y-79524819D01*
X150749999Y-79524819D02*
X150988094Y-79524819D01*
X149559523Y-78858152D02*
X149559523Y-79524819D01*
X149797618Y-78477200D02*
X150035713Y-79191485D01*
X150035713Y-79191485D02*
X149416666Y-79191485D01*
X122083333Y-56704819D02*
X122083333Y-57419104D01*
X122083333Y-57419104D02*
X122130952Y-57561961D01*
X122130952Y-57561961D02*
X122226190Y-57657200D01*
X122226190Y-57657200D02*
X122369047Y-57704819D01*
X122369047Y-57704819D02*
X122464285Y-57704819D01*
X121607142Y-57704819D02*
X121607142Y-56704819D01*
X121607142Y-56704819D02*
X121226190Y-56704819D01*
X121226190Y-56704819D02*
X121130952Y-56752438D01*
X121130952Y-56752438D02*
X121083333Y-56800057D01*
X121083333Y-56800057D02*
X121035714Y-56895295D01*
X121035714Y-56895295D02*
X121035714Y-57038152D01*
X121035714Y-57038152D02*
X121083333Y-57133390D01*
X121083333Y-57133390D02*
X121130952Y-57181009D01*
X121130952Y-57181009D02*
X121226190Y-57228628D01*
X121226190Y-57228628D02*
X121607142Y-57228628D01*
X120702380Y-56704819D02*
X120083333Y-56704819D01*
X120083333Y-56704819D02*
X120416666Y-57085771D01*
X120416666Y-57085771D02*
X120273809Y-57085771D01*
X120273809Y-57085771D02*
X120178571Y-57133390D01*
X120178571Y-57133390D02*
X120130952Y-57181009D01*
X120130952Y-57181009D02*
X120083333Y-57276247D01*
X120083333Y-57276247D02*
X120083333Y-57514342D01*
X120083333Y-57514342D02*
X120130952Y-57609580D01*
X120130952Y-57609580D02*
X120178571Y-57657200D01*
X120178571Y-57657200D02*
X120273809Y-57704819D01*
X120273809Y-57704819D02*
X120559523Y-57704819D01*
X120559523Y-57704819D02*
X120654761Y-57657200D01*
X120654761Y-57657200D02*
X120702380Y-57609580D01*
X122083333Y-54204819D02*
X122083333Y-54919104D01*
X122083333Y-54919104D02*
X122130952Y-55061961D01*
X122130952Y-55061961D02*
X122226190Y-55157200D01*
X122226190Y-55157200D02*
X122369047Y-55204819D01*
X122369047Y-55204819D02*
X122464285Y-55204819D01*
X121607142Y-55204819D02*
X121607142Y-54204819D01*
X121607142Y-54204819D02*
X121226190Y-54204819D01*
X121226190Y-54204819D02*
X121130952Y-54252438D01*
X121130952Y-54252438D02*
X121083333Y-54300057D01*
X121083333Y-54300057D02*
X121035714Y-54395295D01*
X121035714Y-54395295D02*
X121035714Y-54538152D01*
X121035714Y-54538152D02*
X121083333Y-54633390D01*
X121083333Y-54633390D02*
X121130952Y-54681009D01*
X121130952Y-54681009D02*
X121226190Y-54728628D01*
X121226190Y-54728628D02*
X121607142Y-54728628D01*
X120654761Y-54300057D02*
X120607142Y-54252438D01*
X120607142Y-54252438D02*
X120511904Y-54204819D01*
X120511904Y-54204819D02*
X120273809Y-54204819D01*
X120273809Y-54204819D02*
X120178571Y-54252438D01*
X120178571Y-54252438D02*
X120130952Y-54300057D01*
X120130952Y-54300057D02*
X120083333Y-54395295D01*
X120083333Y-54395295D02*
X120083333Y-54490533D01*
X120083333Y-54490533D02*
X120130952Y-54633390D01*
X120130952Y-54633390D02*
X120702380Y-55204819D01*
X120702380Y-55204819D02*
X120083333Y-55204819D01*
X129874819Y-82666666D02*
X130589104Y-82666666D01*
X130589104Y-82666666D02*
X130731961Y-82619047D01*
X130731961Y-82619047D02*
X130827200Y-82523809D01*
X130827200Y-82523809D02*
X130874819Y-82380952D01*
X130874819Y-82380952D02*
X130874819Y-82285714D01*
X129874819Y-83571428D02*
X129874819Y-83380952D01*
X129874819Y-83380952D02*
X129922438Y-83285714D01*
X129922438Y-83285714D02*
X129970057Y-83238095D01*
X129970057Y-83238095D02*
X130112914Y-83142857D01*
X130112914Y-83142857D02*
X130303390Y-83095238D01*
X130303390Y-83095238D02*
X130684342Y-83095238D01*
X130684342Y-83095238D02*
X130779580Y-83142857D01*
X130779580Y-83142857D02*
X130827200Y-83190476D01*
X130827200Y-83190476D02*
X130874819Y-83285714D01*
X130874819Y-83285714D02*
X130874819Y-83476190D01*
X130874819Y-83476190D02*
X130827200Y-83571428D01*
X130827200Y-83571428D02*
X130779580Y-83619047D01*
X130779580Y-83619047D02*
X130684342Y-83666666D01*
X130684342Y-83666666D02*
X130446247Y-83666666D01*
X130446247Y-83666666D02*
X130351009Y-83619047D01*
X130351009Y-83619047D02*
X130303390Y-83571428D01*
X130303390Y-83571428D02*
X130255771Y-83476190D01*
X130255771Y-83476190D02*
X130255771Y-83285714D01*
X130255771Y-83285714D02*
X130303390Y-83190476D01*
X130303390Y-83190476D02*
X130351009Y-83142857D01*
X130351009Y-83142857D02*
X130446247Y-83095238D01*
X150916666Y-58059580D02*
X150964285Y-58107200D01*
X150964285Y-58107200D02*
X151107142Y-58154819D01*
X151107142Y-58154819D02*
X151202380Y-58154819D01*
X151202380Y-58154819D02*
X151345237Y-58107200D01*
X151345237Y-58107200D02*
X151440475Y-58011961D01*
X151440475Y-58011961D02*
X151488094Y-57916723D01*
X151488094Y-57916723D02*
X151535713Y-57726247D01*
X151535713Y-57726247D02*
X151535713Y-57583390D01*
X151535713Y-57583390D02*
X151488094Y-57392914D01*
X151488094Y-57392914D02*
X151440475Y-57297676D01*
X151440475Y-57297676D02*
X151345237Y-57202438D01*
X151345237Y-57202438D02*
X151202380Y-57154819D01*
X151202380Y-57154819D02*
X151107142Y-57154819D01*
X151107142Y-57154819D02*
X150964285Y-57202438D01*
X150964285Y-57202438D02*
X150916666Y-57250057D01*
X150583332Y-57154819D02*
X149964285Y-57154819D01*
X149964285Y-57154819D02*
X150297618Y-57535771D01*
X150297618Y-57535771D02*
X150154761Y-57535771D01*
X150154761Y-57535771D02*
X150059523Y-57583390D01*
X150059523Y-57583390D02*
X150011904Y-57631009D01*
X150011904Y-57631009D02*
X149964285Y-57726247D01*
X149964285Y-57726247D02*
X149964285Y-57964342D01*
X149964285Y-57964342D02*
X150011904Y-58059580D01*
X150011904Y-58059580D02*
X150059523Y-58107200D01*
X150059523Y-58107200D02*
X150154761Y-58154819D01*
X150154761Y-58154819D02*
X150440475Y-58154819D01*
X150440475Y-58154819D02*
X150535713Y-58107200D01*
X150535713Y-58107200D02*
X150583332Y-58059580D01*
X122261904Y-51454819D02*
X121690476Y-51454819D01*
X121976190Y-52454819D02*
X121976190Y-51454819D01*
X121357142Y-52454819D02*
X121357142Y-51454819D01*
X121357142Y-51454819D02*
X120976190Y-51454819D01*
X120976190Y-51454819D02*
X120880952Y-51502438D01*
X120880952Y-51502438D02*
X120833333Y-51550057D01*
X120833333Y-51550057D02*
X120785714Y-51645295D01*
X120785714Y-51645295D02*
X120785714Y-51788152D01*
X120785714Y-51788152D02*
X120833333Y-51883390D01*
X120833333Y-51883390D02*
X120880952Y-51931009D01*
X120880952Y-51931009D02*
X120976190Y-51978628D01*
X120976190Y-51978628D02*
X121357142Y-51978628D01*
X119833333Y-52454819D02*
X120404761Y-52454819D01*
X120119047Y-52454819D02*
X120119047Y-51454819D01*
X120119047Y-51454819D02*
X120214285Y-51597676D01*
X120214285Y-51597676D02*
X120309523Y-51692914D01*
X120309523Y-51692914D02*
X120404761Y-51740533D01*
X152454819Y-67166666D02*
X153169104Y-67166666D01*
X153169104Y-67166666D02*
X153311961Y-67119047D01*
X153311961Y-67119047D02*
X153407200Y-67023809D01*
X153407200Y-67023809D02*
X153454819Y-66880952D01*
X153454819Y-66880952D02*
X153454819Y-66785714D01*
X153454819Y-68166666D02*
X153454819Y-67595238D01*
X153454819Y-67880952D02*
X152454819Y-67880952D01*
X152454819Y-67880952D02*
X152597676Y-67785714D01*
X152597676Y-67785714D02*
X152692914Y-67690476D01*
X152692914Y-67690476D02*
X152740533Y-67595238D01*
X117333333Y-59204819D02*
X117333333Y-59919104D01*
X117333333Y-59919104D02*
X117380952Y-60061961D01*
X117380952Y-60061961D02*
X117476190Y-60157200D01*
X117476190Y-60157200D02*
X117619047Y-60204819D01*
X117619047Y-60204819D02*
X117714285Y-60204819D01*
X116952380Y-59204819D02*
X116333333Y-59204819D01*
X116333333Y-59204819D02*
X116666666Y-59585771D01*
X116666666Y-59585771D02*
X116523809Y-59585771D01*
X116523809Y-59585771D02*
X116428571Y-59633390D01*
X116428571Y-59633390D02*
X116380952Y-59681009D01*
X116380952Y-59681009D02*
X116333333Y-59776247D01*
X116333333Y-59776247D02*
X116333333Y-60014342D01*
X116333333Y-60014342D02*
X116380952Y-60109580D01*
X116380952Y-60109580D02*
X116428571Y-60157200D01*
X116428571Y-60157200D02*
X116523809Y-60204819D01*
X116523809Y-60204819D02*
X116809523Y-60204819D01*
X116809523Y-60204819D02*
X116904761Y-60157200D01*
X116904761Y-60157200D02*
X116952380Y-60109580D01*
X141333333Y-59204819D02*
X141333333Y-59919104D01*
X141333333Y-59919104D02*
X141380952Y-60061961D01*
X141380952Y-60061961D02*
X141476190Y-60157200D01*
X141476190Y-60157200D02*
X141619047Y-60204819D01*
X141619047Y-60204819D02*
X141714285Y-60204819D01*
X140428571Y-59538152D02*
X140428571Y-60204819D01*
X140666666Y-59157200D02*
X140904761Y-59871485D01*
X140904761Y-59871485D02*
X140285714Y-59871485D01*
X129333333Y-59204819D02*
X129333333Y-59919104D01*
X129333333Y-59919104D02*
X129380952Y-60061961D01*
X129380952Y-60061961D02*
X129476190Y-60157200D01*
X129476190Y-60157200D02*
X129619047Y-60204819D01*
X129619047Y-60204819D02*
X129714285Y-60204819D01*
X128904761Y-59300057D02*
X128857142Y-59252438D01*
X128857142Y-59252438D02*
X128761904Y-59204819D01*
X128761904Y-59204819D02*
X128523809Y-59204819D01*
X128523809Y-59204819D02*
X128428571Y-59252438D01*
X128428571Y-59252438D02*
X128380952Y-59300057D01*
X128380952Y-59300057D02*
X128333333Y-59395295D01*
X128333333Y-59395295D02*
X128333333Y-59490533D01*
X128333333Y-59490533D02*
X128380952Y-59633390D01*
X128380952Y-59633390D02*
X128952380Y-60204819D01*
X128952380Y-60204819D02*
X128333333Y-60204819D01*
X105333333Y-59204819D02*
X105333333Y-59919104D01*
X105333333Y-59919104D02*
X105380952Y-60061961D01*
X105380952Y-60061961D02*
X105476190Y-60157200D01*
X105476190Y-60157200D02*
X105619047Y-60204819D01*
X105619047Y-60204819D02*
X105714285Y-60204819D01*
X104380952Y-59204819D02*
X104857142Y-59204819D01*
X104857142Y-59204819D02*
X104904761Y-59681009D01*
X104904761Y-59681009D02*
X104857142Y-59633390D01*
X104857142Y-59633390D02*
X104761904Y-59585771D01*
X104761904Y-59585771D02*
X104523809Y-59585771D01*
X104523809Y-59585771D02*
X104428571Y-59633390D01*
X104428571Y-59633390D02*
X104380952Y-59681009D01*
X104380952Y-59681009D02*
X104333333Y-59776247D01*
X104333333Y-59776247D02*
X104333333Y-60014342D01*
X104333333Y-60014342D02*
X104380952Y-60109580D01*
X104380952Y-60109580D02*
X104428571Y-60157200D01*
X104428571Y-60157200D02*
X104523809Y-60204819D01*
X104523809Y-60204819D02*
X104761904Y-60204819D01*
X104761904Y-60204819D02*
X104857142Y-60157200D01*
X104857142Y-60157200D02*
X104904761Y-60109580D01*
D14*
%TO.C,D3*%
X111050000Y-55235000D02*
X108590000Y-55235000D01*
X108590000Y-53765000D02*
X111050000Y-53765000D01*
X108590000Y-55235000D02*
X108590000Y-53765000D01*
%TO.C,D2*%
X133450000Y-53765000D02*
X135910000Y-53765000D01*
X135910000Y-55235000D02*
X133450000Y-55235000D01*
X135910000Y-53765000D02*
X135910000Y-55235000D01*
%TO.C,D4*%
X151910000Y-79765000D02*
X151910000Y-81235000D01*
X151910000Y-81235000D02*
X149450000Y-81235000D01*
X149450000Y-79765000D02*
X151910000Y-79765000D01*
%TO.C,JP3*%
X124950000Y-56250000D02*
G75*
G02*
X125650000Y-56949999I0J-700000D01*
G01*
X125650000Y-57550001D02*
G75*
G02*
X124950000Y-58250000I-700000J1D01*
G01*
X122850000Y-56949999D02*
G75*
G02*
X123550000Y-56250000I699999J0D01*
G01*
X123550000Y-58250000D02*
G75*
G02*
X122850000Y-57550001I-1J699999D01*
G01*
X125650000Y-57550001D02*
X125650000Y-56949999D01*
X124950000Y-56250000D02*
X123550000Y-56250000D01*
X123550000Y-58250000D02*
X124950000Y-58250000D01*
X122850000Y-56949999D02*
X122850000Y-57550001D01*
%TO.C,JP2*%
X123550000Y-55750000D02*
G75*
G02*
X122850000Y-55050001I0J700000D01*
G01*
X122850000Y-54449999D02*
G75*
G02*
X123550000Y-53750000I700000J-1D01*
G01*
X125650000Y-55050001D02*
G75*
G02*
X124950000Y-55750000I-699999J0D01*
G01*
X124950000Y-53750000D02*
G75*
G02*
X125650000Y-54449999I1J-699999D01*
G01*
X122850000Y-54449999D02*
X122850000Y-55050001D01*
X123550000Y-55750000D02*
X124950000Y-55750000D01*
X124950000Y-53750000D02*
X123550000Y-53750000D01*
X125650000Y-55050001D02*
X125650000Y-54449999D01*
%TO.C,J6*%
X129420000Y-84380000D02*
X129419999Y-83000000D01*
X128040000Y-84379999D02*
X129420000Y-84380000D01*
X126770000Y-84380000D02*
X106340000Y-84380000D01*
X126770000Y-84380000D02*
X126770000Y-81620000D01*
X106340000Y-84380000D02*
X106340000Y-81620000D01*
X126770000Y-81620000D02*
X106340000Y-81620000D01*
%TO.C,C3*%
X151515000Y-58830000D02*
X149985000Y-58830000D01*
X149985000Y-60670000D02*
X151515000Y-60670000D01*
%TO.C,TP1*%
X125750000Y-52000000D02*
G75*
G02*
X122750000Y-52000000I-1500000J0D01*
G01*
X122750000Y-52000000D02*
G75*
G02*
X125750000Y-52000000I1500000J0D01*
G01*
%TO.C,J1*%
X158332500Y-61390000D02*
X158332500Y-73610000D01*
X158332500Y-64000000D02*
X158332500Y-66000000D01*
X158332500Y-66000000D02*
X156832499Y-65750000D01*
X158332500Y-69000001D02*
X158332500Y-71000000D01*
X158332500Y-71000000D02*
X156832499Y-70750000D01*
X158332500Y-73610000D02*
X146112500Y-73610000D01*
X156832500Y-61390000D02*
X155032500Y-61390000D01*
X156832500Y-69250000D02*
X158332500Y-69000001D01*
X156832500Y-73610000D02*
X156832500Y-61390000D01*
X156832499Y-64250000D02*
X158332500Y-64000000D01*
X156832499Y-65750000D02*
X156832499Y-64250000D01*
X156832499Y-70750000D02*
X156832500Y-69250000D01*
X155032500Y-61390000D02*
X155032500Y-73610000D01*
X155032500Y-73610000D02*
X156832500Y-73610000D01*
X146112500Y-61390000D02*
X158332500Y-61390000D01*
X146112500Y-73610000D02*
X146112500Y-61390000D01*
X145912500Y-65000000D02*
X145312500Y-64700000D01*
X145312500Y-64700000D02*
X145312500Y-65300000D01*
X145312500Y-65300000D02*
X145912500Y-65000000D01*
%TO.C,J3*%
X119142343Y-62552147D02*
G75*
G02*
X119142500Y-61052500I1700169J749646D01*
G01*
X119142344Y-66362147D02*
G75*
G02*
X119142500Y-64862500I1700156J749647D01*
G01*
X119142344Y-70172147D02*
G75*
G02*
X119142500Y-68672500I1700156J749647D01*
G01*
X119142344Y-73982147D02*
G75*
G02*
X119142500Y-72482500I1700156J749647D01*
G01*
X120002500Y-59092501D02*
X120002500Y-75942500D01*
X120002500Y-75942500D02*
X112532500Y-75942499D01*
X119142500Y-60302500D02*
X114842500Y-60302500D01*
X119142500Y-61052500D02*
X119142500Y-60302500D01*
X119142500Y-63302500D02*
X119142500Y-62552500D01*
X119142500Y-64112500D02*
X114842500Y-64112500D01*
X119142500Y-64862500D02*
X119142500Y-64112500D01*
X119142500Y-67112500D02*
X119142500Y-66362500D01*
X119142500Y-67922500D02*
X114842501Y-67922500D01*
X119142500Y-68672500D02*
X119142500Y-67922500D01*
X119142500Y-70922500D02*
X119142500Y-70172500D01*
X119142500Y-71732500D02*
X114842500Y-71732500D01*
X119142500Y-72482500D02*
X119142500Y-71732500D01*
X119142500Y-74732500D02*
X119142500Y-73982500D01*
X114842501Y-67922500D02*
X114842501Y-68672500D01*
X114842501Y-68672500D02*
X114492500Y-68672500D01*
X114842501Y-72482500D02*
X114492500Y-72482500D01*
X114842501Y-73982500D02*
X114842500Y-74732500D01*
X114842500Y-60302500D02*
X114842500Y-61052500D01*
X114842500Y-61052500D02*
X114492500Y-61052500D01*
X114842500Y-62552500D02*
X114842500Y-63302500D01*
X114842500Y-63302500D02*
X119142500Y-63302500D01*
X114842500Y-64112500D02*
X114842500Y-64862500D01*
X114842500Y-64862500D02*
X114492500Y-64862500D01*
X114842500Y-66362500D02*
X114842500Y-67112500D01*
X114842500Y-67112500D02*
X119142500Y-67112500D01*
X114842500Y-70172500D02*
X114842500Y-70922500D01*
X114842500Y-70922500D02*
X119142500Y-70922500D01*
X114842500Y-71732500D02*
X114842501Y-72482500D01*
X114842500Y-74732500D02*
X119142500Y-74732500D01*
X114492500Y-60552500D02*
X113492500Y-60302500D01*
X114492500Y-61052500D02*
X114492500Y-60552500D01*
X114492500Y-62552500D02*
X114842500Y-62552500D01*
X114492500Y-63052500D02*
X114492500Y-62552500D01*
X114492500Y-64362500D02*
X113492500Y-64112500D01*
X114492500Y-64862500D02*
X114492500Y-64362500D01*
X114492500Y-66362500D02*
X114842500Y-66362500D01*
X114492500Y-66862500D02*
X114492500Y-66362500D01*
X114492500Y-68172500D02*
X113492499Y-67922500D01*
X114492500Y-68672500D02*
X114492500Y-68172500D01*
X114492500Y-70172500D02*
X114842500Y-70172500D01*
X114492500Y-70672500D02*
X114492500Y-70172500D01*
X114492500Y-71982500D02*
X113492500Y-71732500D01*
X114492500Y-72482500D02*
X114492500Y-71982500D01*
X114492500Y-73982500D02*
X114842501Y-73982500D01*
X114492500Y-74482500D02*
X114492500Y-73982500D01*
X113492500Y-60302500D02*
X113492500Y-63302500D01*
X113492500Y-63302500D02*
X114492500Y-63052500D01*
X113492500Y-64112500D02*
X113492500Y-67112500D01*
X113492500Y-67112500D02*
X114492500Y-66862500D01*
X113492500Y-70922500D02*
X114492500Y-70672500D01*
X113492500Y-71732500D02*
X113492500Y-74732500D01*
X113492500Y-74732500D02*
X114492500Y-74482500D01*
X113492499Y-67922500D02*
X113492500Y-70922500D01*
X113392500Y-58702500D02*
X112142500Y-58702500D01*
X112532500Y-59092500D02*
X120002500Y-59092501D01*
X112532500Y-75942499D02*
X112532500Y-59092500D01*
X112142500Y-58702500D02*
X112142500Y-60702500D01*
%TO.C,J4*%
X136142500Y-58702500D02*
X136142500Y-60702500D01*
X136532500Y-75942499D02*
X136532500Y-59092500D01*
X136532500Y-59092500D02*
X144002500Y-59092501D01*
X137392500Y-58702500D02*
X136142500Y-58702500D01*
X137492499Y-67922500D02*
X137492500Y-70922500D01*
X137492500Y-74732500D02*
X138492500Y-74482500D01*
X137492500Y-71732500D02*
X137492500Y-74732500D01*
X137492500Y-70922500D02*
X138492500Y-70672500D01*
X137492500Y-67112500D02*
X138492500Y-66862500D01*
X137492500Y-64112500D02*
X137492500Y-67112500D01*
X137492500Y-63302500D02*
X138492500Y-63052500D01*
X137492500Y-60302500D02*
X137492500Y-63302500D01*
X138492500Y-74482500D02*
X138492500Y-73982500D01*
X138492500Y-73982500D02*
X138842501Y-73982500D01*
X138492500Y-72482500D02*
X138492500Y-71982500D01*
X138492500Y-71982500D02*
X137492500Y-71732500D01*
X138492500Y-70672500D02*
X138492500Y-70172500D01*
X138492500Y-70172500D02*
X138842500Y-70172500D01*
X138492500Y-68672500D02*
X138492500Y-68172500D01*
X138492500Y-68172500D02*
X137492499Y-67922500D01*
X138492500Y-66862500D02*
X138492500Y-66362500D01*
X138492500Y-66362500D02*
X138842500Y-66362500D01*
X138492500Y-64862500D02*
X138492500Y-64362500D01*
X138492500Y-64362500D02*
X137492500Y-64112500D01*
X138492500Y-63052500D02*
X138492500Y-62552500D01*
X138492500Y-62552500D02*
X138842500Y-62552500D01*
X138492500Y-61052500D02*
X138492500Y-60552500D01*
X138492500Y-60552500D02*
X137492500Y-60302500D01*
X138842500Y-74732500D02*
X143142500Y-74732500D01*
X138842500Y-71732500D02*
X138842501Y-72482500D01*
X138842500Y-70922500D02*
X143142500Y-70922500D01*
X138842500Y-70172500D02*
X138842500Y-70922500D01*
X138842500Y-67112500D02*
X143142500Y-67112500D01*
X138842500Y-66362500D02*
X138842500Y-67112500D01*
X138842500Y-64862500D02*
X138492500Y-64862500D01*
X138842500Y-64112500D02*
X138842500Y-64862500D01*
X138842500Y-63302500D02*
X143142500Y-63302500D01*
X138842500Y-62552500D02*
X138842500Y-63302500D01*
X138842500Y-61052500D02*
X138492500Y-61052500D01*
X138842500Y-60302500D02*
X138842500Y-61052500D01*
X138842501Y-73982500D02*
X138842500Y-74732500D01*
X138842501Y-72482500D02*
X138492500Y-72482500D01*
X138842501Y-68672500D02*
X138492500Y-68672500D01*
X138842501Y-67922500D02*
X138842501Y-68672500D01*
X143142500Y-74732500D02*
X143142500Y-73982500D01*
X143142500Y-72482500D02*
X143142500Y-71732500D01*
X143142500Y-71732500D02*
X138842500Y-71732500D01*
X143142500Y-70922500D02*
X143142500Y-70172500D01*
X143142500Y-68672500D02*
X143142500Y-67922500D01*
X143142500Y-67922500D02*
X138842501Y-67922500D01*
X143142500Y-67112500D02*
X143142500Y-66362500D01*
X143142500Y-64862500D02*
X143142500Y-64112500D01*
X143142500Y-64112500D02*
X138842500Y-64112500D01*
X143142500Y-63302500D02*
X143142500Y-62552500D01*
X143142500Y-61052500D02*
X143142500Y-60302500D01*
X143142500Y-60302500D02*
X138842500Y-60302500D01*
X144002500Y-75942500D02*
X136532500Y-75942499D01*
X144002500Y-59092501D02*
X144002500Y-75942500D01*
X143142344Y-73982147D02*
G75*
G02*
X143142500Y-72482500I1700156J749647D01*
G01*
X143142344Y-70172147D02*
G75*
G02*
X143142500Y-68672500I1700156J749647D01*
G01*
X143142344Y-66362147D02*
G75*
G02*
X143142500Y-64862500I1700156J749647D01*
G01*
X143142343Y-62552147D02*
G75*
G02*
X143142500Y-61052500I1700169J749646D01*
G01*
%TO.C,J2*%
X131142343Y-62552147D02*
G75*
G02*
X131142500Y-61052500I1700169J749646D01*
G01*
X131142344Y-66362147D02*
G75*
G02*
X131142500Y-64862500I1700156J749647D01*
G01*
X131142344Y-70172147D02*
G75*
G02*
X131142500Y-68672500I1700156J749647D01*
G01*
X131142344Y-73982147D02*
G75*
G02*
X131142500Y-72482500I1700156J749647D01*
G01*
X132002500Y-59092501D02*
X132002500Y-75942500D01*
X132002500Y-75942500D02*
X124532500Y-75942499D01*
X131142500Y-60302500D02*
X126842500Y-60302500D01*
X131142500Y-61052500D02*
X131142500Y-60302500D01*
X131142500Y-63302500D02*
X131142500Y-62552500D01*
X131142500Y-64112500D02*
X126842500Y-64112500D01*
X131142500Y-64862500D02*
X131142500Y-64112500D01*
X131142500Y-67112500D02*
X131142500Y-66362500D01*
X131142500Y-67922500D02*
X126842501Y-67922500D01*
X131142500Y-68672500D02*
X131142500Y-67922500D01*
X131142500Y-70922500D02*
X131142500Y-70172500D01*
X131142500Y-71732500D02*
X126842500Y-71732500D01*
X131142500Y-72482500D02*
X131142500Y-71732500D01*
X131142500Y-74732500D02*
X131142500Y-73982500D01*
X126842501Y-67922500D02*
X126842501Y-68672500D01*
X126842501Y-68672500D02*
X126492500Y-68672500D01*
X126842501Y-72482500D02*
X126492500Y-72482500D01*
X126842501Y-73982500D02*
X126842500Y-74732500D01*
X126842500Y-60302500D02*
X126842500Y-61052500D01*
X126842500Y-61052500D02*
X126492500Y-61052500D01*
X126842500Y-62552500D02*
X126842500Y-63302500D01*
X126842500Y-63302500D02*
X131142500Y-63302500D01*
X126842500Y-64112500D02*
X126842500Y-64862500D01*
X126842500Y-64862500D02*
X126492500Y-64862500D01*
X126842500Y-66362500D02*
X126842500Y-67112500D01*
X126842500Y-67112500D02*
X131142500Y-67112500D01*
X126842500Y-70172500D02*
X126842500Y-70922500D01*
X126842500Y-70922500D02*
X131142500Y-70922500D01*
X126842500Y-71732500D02*
X126842501Y-72482500D01*
X126842500Y-74732500D02*
X131142500Y-74732500D01*
X126492500Y-60552500D02*
X125492500Y-60302500D01*
X126492500Y-61052500D02*
X126492500Y-60552500D01*
X126492500Y-62552500D02*
X126842500Y-62552500D01*
X126492500Y-63052500D02*
X126492500Y-62552500D01*
X126492500Y-64362500D02*
X125492500Y-64112500D01*
X126492500Y-64862500D02*
X126492500Y-64362500D01*
X126492500Y-66362500D02*
X126842500Y-66362500D01*
X126492500Y-66862500D02*
X126492500Y-66362500D01*
X126492500Y-68172500D02*
X125492499Y-67922500D01*
X126492500Y-68672500D02*
X126492500Y-68172500D01*
X126492500Y-70172500D02*
X126842500Y-70172500D01*
X126492500Y-70672500D02*
X126492500Y-70172500D01*
X126492500Y-71982500D02*
X125492500Y-71732500D01*
X126492500Y-72482500D02*
X126492500Y-71982500D01*
X126492500Y-73982500D02*
X126842501Y-73982500D01*
X126492500Y-74482500D02*
X126492500Y-73982500D01*
X125492500Y-60302500D02*
X125492500Y-63302500D01*
X125492500Y-63302500D02*
X126492500Y-63052500D01*
X125492500Y-64112500D02*
X125492500Y-67112500D01*
X125492500Y-67112500D02*
X126492500Y-66862500D01*
X125492500Y-70922500D02*
X126492500Y-70672500D01*
X125492500Y-71732500D02*
X125492500Y-74732500D01*
X125492500Y-74732500D02*
X126492500Y-74482500D01*
X125492499Y-67922500D02*
X125492500Y-70922500D01*
X125392500Y-58702500D02*
X124142500Y-58702500D01*
X124532500Y-59092500D02*
X132002500Y-59092501D01*
X124532500Y-75942499D02*
X124532500Y-59092500D01*
X124142500Y-58702500D02*
X124142500Y-60702500D01*
%TO.C,J5*%
X100142500Y-58702500D02*
X100142500Y-60702500D01*
X100532500Y-75942499D02*
X100532500Y-59092500D01*
X100532500Y-59092500D02*
X108002500Y-59092501D01*
X101392500Y-58702500D02*
X100142500Y-58702500D01*
X101492499Y-67922500D02*
X101492500Y-70922500D01*
X101492500Y-74732500D02*
X102492500Y-74482500D01*
X101492500Y-71732500D02*
X101492500Y-74732500D01*
X101492500Y-70922500D02*
X102492500Y-70672500D01*
X101492500Y-67112500D02*
X102492500Y-66862500D01*
X101492500Y-64112500D02*
X101492500Y-67112500D01*
X101492500Y-63302500D02*
X102492500Y-63052500D01*
X101492500Y-60302500D02*
X101492500Y-63302500D01*
X102492500Y-74482500D02*
X102492500Y-73982500D01*
X102492500Y-73982500D02*
X102842501Y-73982500D01*
X102492500Y-72482500D02*
X102492500Y-71982500D01*
X102492500Y-71982500D02*
X101492500Y-71732500D01*
X102492500Y-70672500D02*
X102492500Y-70172500D01*
X102492500Y-70172500D02*
X102842500Y-70172500D01*
X102492500Y-68672500D02*
X102492500Y-68172500D01*
X102492500Y-68172500D02*
X101492499Y-67922500D01*
X102492500Y-66862500D02*
X102492500Y-66362500D01*
X102492500Y-66362500D02*
X102842500Y-66362500D01*
X102492500Y-64862500D02*
X102492500Y-64362500D01*
X102492500Y-64362500D02*
X101492500Y-64112500D01*
X102492500Y-63052500D02*
X102492500Y-62552500D01*
X102492500Y-62552500D02*
X102842500Y-62552500D01*
X102492500Y-61052500D02*
X102492500Y-60552500D01*
X102492500Y-60552500D02*
X101492500Y-60302500D01*
X102842500Y-74732500D02*
X107142500Y-74732500D01*
X102842500Y-71732500D02*
X102842501Y-72482500D01*
X102842500Y-70922500D02*
X107142500Y-70922500D01*
X102842500Y-70172500D02*
X102842500Y-70922500D01*
X102842500Y-67112500D02*
X107142500Y-67112500D01*
X102842500Y-66362500D02*
X102842500Y-67112500D01*
X102842500Y-64862500D02*
X102492500Y-64862500D01*
X102842500Y-64112500D02*
X102842500Y-64862500D01*
X102842500Y-63302500D02*
X107142500Y-63302500D01*
X102842500Y-62552500D02*
X102842500Y-63302500D01*
X102842500Y-61052500D02*
X102492500Y-61052500D01*
X102842500Y-60302500D02*
X102842500Y-61052500D01*
X102842501Y-73982500D02*
X102842500Y-74732500D01*
X102842501Y-72482500D02*
X102492500Y-72482500D01*
X102842501Y-68672500D02*
X102492500Y-68672500D01*
X102842501Y-67922500D02*
X102842501Y-68672500D01*
X107142500Y-74732500D02*
X107142500Y-73982500D01*
X107142500Y-72482500D02*
X107142500Y-71732500D01*
X107142500Y-71732500D02*
X102842500Y-71732500D01*
X107142500Y-70922500D02*
X107142500Y-70172500D01*
X107142500Y-68672500D02*
X107142500Y-67922500D01*
X107142500Y-67922500D02*
X102842501Y-67922500D01*
X107142500Y-67112500D02*
X107142500Y-66362500D01*
X107142500Y-64862500D02*
X107142500Y-64112500D01*
X107142500Y-64112500D02*
X102842500Y-64112500D01*
X107142500Y-63302500D02*
X107142500Y-62552500D01*
X107142500Y-61052500D02*
X107142500Y-60302500D01*
X107142500Y-60302500D02*
X102842500Y-60302500D01*
X108002500Y-75942500D02*
X100532500Y-75942499D01*
X108002500Y-59092501D02*
X108002500Y-75942500D01*
X107142344Y-73982147D02*
G75*
G02*
X107142500Y-72482500I1700156J749647D01*
G01*
X107142344Y-70172147D02*
G75*
G02*
X107142500Y-68672500I1700156J749647D01*
G01*
X107142344Y-66362147D02*
G75*
G02*
X107142500Y-64862500I1700156J749647D01*
G01*
X107142343Y-62552147D02*
G75*
G02*
X107142500Y-61052500I1700169J749646D01*
G01*
%TD*%
%LPC*%
D15*
X102750000Y-59750000D02*
X147750000Y-59750000D01*
X102750000Y-63750000D02*
X145250000Y-63750000D01*
D16*
X144500000Y-61802500D02*
X150250000Y-61802500D01*
X132500000Y-61802500D02*
X137250000Y-61802500D01*
X120500000Y-61802500D02*
X125250000Y-61802500D01*
X108500000Y-61802500D02*
X113250000Y-61802500D01*
X144500000Y-73250000D02*
X150250000Y-73250000D01*
X132500000Y-73250000D02*
X137250000Y-73250000D01*
X120500000Y-73250000D02*
X125250000Y-73250000D01*
X108500000Y-73250000D02*
X113250000Y-73250000D01*
D15*
X102750000Y-71250000D02*
X145250000Y-71250000D01*
X102750000Y-75250000D02*
X150750000Y-75250000D01*
D17*
%TO.C,JP3*%
G36*
X124400000Y-58000000D02*
G01*
X124100000Y-58000000D01*
X124100000Y-56500000D01*
X124400000Y-56500000D01*
X124400000Y-58000000D01*
G37*
%TO.C,JP2*%
G36*
X124400000Y-55500000D02*
G01*
X124100000Y-55500000D01*
X124100000Y-54000000D01*
X124400000Y-54000000D01*
X124400000Y-55500000D01*
G37*
%TD*%
D18*
%TO.C,D3*%
X111125000Y-54500000D03*
X109375000Y-54500000D03*
%TD*%
D19*
%TO.C,D2*%
X133375001Y-54500000D03*
X135124999Y-54500000D03*
%TD*%
%TO.C,D4*%
X151125000Y-80500000D03*
X149375000Y-80500000D03*
%TD*%
D20*
%TO.C,JP3*%
X124899999Y-57250000D03*
D21*
X123600001Y-57250000D03*
%TD*%
D22*
%TO.C,JP2*%
X123600001Y-54750000D03*
D23*
X124899999Y-54750000D03*
%TD*%
D24*
%TO.C,J6*%
X128040000Y-83000000D03*
D25*
X125500000Y-83000000D03*
X122960001Y-83000000D03*
X120420000Y-83000000D03*
X117880000Y-83000000D03*
X115340000Y-83000000D03*
X112800000Y-83000000D03*
X110259999Y-83000000D03*
X107720000Y-83000000D03*
%TD*%
D26*
%TO.C,H1*%
X101250000Y-83750000D03*
%TD*%
%TO.C,H2*%
X153750000Y-83750000D03*
%TD*%
%TO.C,H3*%
X101250000Y-51250000D03*
%TD*%
%TO.C,H4*%
X153750000Y-51250000D03*
%TD*%
D27*
%TO.C,C3*%
X152000000Y-59750000D03*
X149500000Y-59750000D03*
%TD*%
D28*
%TO.C,TP1*%
X124250000Y-52000000D03*
%TD*%
D29*
%TO.C,J1*%
X148222500Y-70000000D03*
D30*
X148222500Y-65000000D03*
%TD*%
D31*
%TO.C,J3*%
X116892500Y-73232501D03*
X116892500Y-69422500D03*
X116892500Y-65612500D03*
D32*
X116892500Y-61802500D03*
%TD*%
%TO.C,J4*%
X140892500Y-61802500D03*
D31*
X140892500Y-65612500D03*
X140892500Y-69422500D03*
X140892500Y-73232501D03*
%TD*%
%TO.C,J2*%
X128892500Y-73232501D03*
X128892500Y-69422500D03*
X128892500Y-65612500D03*
D32*
X128892500Y-61802500D03*
%TD*%
%TO.C,J5*%
X104892500Y-61802500D03*
D31*
X104892500Y-65612500D03*
X104892500Y-69422500D03*
X104892500Y-73232501D03*
%TD*%
%LPD*%
M02*
