%TF.GenerationSoftware,KiCad,Pcbnew,7.0.8*%
%TF.CreationDate,2023-12-17T14:45:35+01:00*%
%TF.ProjectId,night_light,6e696768-745f-46c6-9967-68742e6b6963,rev?*%
%TF.SameCoordinates,Original*%
%TF.FileFunction,Copper,L2,Bot*%
%TF.FilePolarity,Positive*%
%FSLAX46Y46*%
G04 Gerber Fmt 4.6, Leading zero omitted, Abs format (unit mm)*
G04 Created by KiCad (PCBNEW 7.0.8) date 2023-12-17 14:45:35*
%MOMM*%
%LPD*%
G01*
G04 APERTURE LIST*
G04 Aperture macros list*
%AMRoundRect*
0 Rectangle with rounded corners*
0 $1 Rounding radius*
0 $2 $3 $4 $5 $6 $7 $8 $9 X,Y pos of 4 corners*
0 Add a 4 corners polygon primitive as box body*
4,1,4,$2,$3,$4,$5,$6,$7,$8,$9,$2,$3,0*
0 Add four circle primitives for the rounded corners*
1,1,$1+$1,$2,$3*
1,1,$1+$1,$4,$5*
1,1,$1+$1,$6,$7*
1,1,$1+$1,$8,$9*
0 Add four rect primitives between the rounded corners*
20,1,$1+$1,$2,$3,$4,$5,0*
20,1,$1+$1,$4,$5,$6,$7,0*
20,1,$1+$1,$6,$7,$8,$9,0*
20,1,$1+$1,$8,$9,$2,$3,0*%
G04 Aperture macros list end*
%TA.AperFunction,ComponentPad*%
%ADD10RoundRect,0.250000X1.550000X-0.650000X1.550000X0.650000X-1.550000X0.650000X-1.550000X-0.650000X0*%
%TD*%
%TA.AperFunction,ComponentPad*%
%ADD11O,3.600000X1.800000*%
%TD*%
%TA.AperFunction,ComponentPad*%
%ADD12RoundRect,0.250000X-0.625000X0.350000X-0.625000X-0.350000X0.625000X-0.350000X0.625000X0.350000X0*%
%TD*%
%TA.AperFunction,ComponentPad*%
%ADD13O,1.750000X1.200000*%
%TD*%
%TA.AperFunction,ComponentPad*%
%ADD14R,1.000000X1.000000*%
%TD*%
%TA.AperFunction,ComponentPad*%
%ADD15O,1.000000X1.000000*%
%TD*%
%TA.AperFunction,ComponentPad*%
%ADD16C,1.000000*%
%TD*%
%TA.AperFunction,SMDPad,CuDef*%
%ADD17R,2.500000X2.200000*%
%TD*%
%TA.AperFunction,SMDPad,CuDef*%
%ADD18R,1.550000X2.200000*%
%TD*%
%TA.AperFunction,ComponentPad*%
%ADD19R,1.800000X1.800000*%
%TD*%
%TA.AperFunction,ComponentPad*%
%ADD20C,1.800000*%
%TD*%
%TA.AperFunction,ComponentPad*%
%ADD21O,1.600000X1.200000*%
%TD*%
%TA.AperFunction,ComponentPad*%
%ADD22O,1.200000X1.200000*%
%TD*%
%TA.AperFunction,SMDPad,CuDef*%
%ADD23RoundRect,0.237500X-0.287500X-0.237500X0.287500X-0.237500X0.287500X0.237500X-0.287500X0.237500X0*%
%TD*%
%TA.AperFunction,ViaPad*%
%ADD24C,0.600000*%
%TD*%
%TA.AperFunction,ViaPad*%
%ADD25C,0.800000*%
%TD*%
%TA.AperFunction,ViaPad*%
%ADD26C,0.500000*%
%TD*%
%TA.AperFunction,Conductor*%
%ADD27C,0.200000*%
%TD*%
%TA.AperFunction,Conductor*%
%ADD28C,0.400000*%
%TD*%
G04 APERTURE END LIST*
D10*
%TO.P,J2,1,Pin_1*%
%TO.N,GND*%
X114392500Y-118387500D03*
D11*
%TO.P,J2,2,Pin_2*%
%TO.N,/Input/Vin*%
X114392500Y-114577500D03*
%TD*%
D12*
%TO.P,J3,1,+*%
%TO.N,+BATT*%
X112925000Y-124000000D03*
D13*
%TO.P,J3,2,-*%
%TO.N,GND*%
X112925000Y-126000000D03*
%TD*%
D14*
%TO.P,J4,1,MISO*%
%TO.N,/MCU/PB1*%
X129365000Y-112605000D03*
D15*
%TO.P,J4,2,VCC*%
%TO.N,VCC*%
X130635000Y-112605000D03*
%TO.P,J4,3,SCK*%
%TO.N,/MCU/PB2*%
X129365000Y-113875000D03*
%TO.P,J4,4,MOSI*%
%TO.N,/EN*%
X130635000Y-113875000D03*
%TO.P,J4,5,~{RST}*%
%TO.N,/MCU/PB5*%
X129365000Y-115145000D03*
%TO.P,J4,6,GND*%
%TO.N,GND*%
X130635000Y-115145000D03*
%TD*%
D16*
%TO.P,TP4,1,1*%
%TO.N,/LED/LED+*%
X116625000Y-135625000D03*
%TD*%
%TO.P,TP5,1,1*%
%TO.N,/LED/LED-*%
X125875000Y-135625000D03*
%TD*%
%TO.P,TP7,1,1*%
%TO.N,/sensors/PTout*%
X124125000Y-115625000D03*
%TD*%
D17*
%TO.P,D2,1,K*%
%TO.N,/LED/LED-*%
X122050000Y-131000000D03*
D18*
%TO.P,D2,2,A*%
%TO.N,/LED/LED+*%
X119475000Y-131000000D03*
%TD*%
D16*
%TO.P,TP1,1,1*%
%TO.N,/Input/Vin*%
X110625000Y-106750000D03*
%TD*%
D19*
%TO.P,D6,1,K*%
%TO.N,/sensors/PT-*%
X119725000Y-120000000D03*
D20*
%TO.P,D6,2,A*%
%TO.N,GND*%
X122265000Y-120000000D03*
%TD*%
D21*
%TO.P,J1,1,Pin_1*%
%TO.N,VCC*%
X123540000Y-109000000D03*
D22*
%TO.P,J1,2,Pin_2*%
%TO.N,/PIR*%
X121000000Y-111540000D03*
%TO.P,J1,3,Pin_3*%
%TO.N,GND*%
X118460000Y-109000000D03*
%TD*%
D23*
%TO.P,D4,1,K*%
%TO.N,Net-(D4-K)*%
X120125000Y-128625000D03*
%TO.P,D4,2,A*%
%TO.N,+5V*%
X121875000Y-128625000D03*
%TD*%
D16*
%TO.P,TP3,1,1*%
%TO.N,+5V*%
X126375000Y-102250000D03*
%TD*%
%TO.P,TP2,1,1*%
%TO.N,+24V*%
X114875000Y-106750000D03*
%TD*%
%TO.P,TP6,1,1*%
%TO.N,VCC*%
X125750000Y-124625000D03*
%TD*%
D24*
%TO.N,GND*%
X131304199Y-113239737D03*
X118500000Y-107750000D03*
X117000000Y-106000000D03*
X117250000Y-108000000D03*
X124875000Y-126250000D03*
X124625000Y-125500000D03*
X126250000Y-108125000D03*
X131250000Y-122125000D03*
X127250000Y-114000000D03*
X126250000Y-106500000D03*
X126500000Y-117500000D03*
X128000000Y-120125000D03*
X127625000Y-112250000D03*
X128000000Y-133500000D03*
X119375000Y-117375000D03*
X125250000Y-139500000D03*
X111250000Y-108250000D03*
X123500000Y-107500000D03*
X127500000Y-126375000D03*
X125875000Y-137875000D03*
X113000000Y-111875000D03*
X115250000Y-139500000D03*
X124625000Y-137750000D03*
X131500000Y-126750000D03*
X120375000Y-114125000D03*
X119250000Y-107500000D03*
X116000000Y-126875000D03*
X120750000Y-100625000D03*
X115625000Y-132125000D03*
X126250000Y-109625000D03*
X126875000Y-134375000D03*
X112125000Y-111875000D03*
X126375000Y-100500000D03*
X131500000Y-125875000D03*
X124125000Y-119375000D03*
X111250000Y-111875000D03*
X126375000Y-101250000D03*
X124125000Y-117375000D03*
X124125000Y-120375000D03*
X128000000Y-132625000D03*
X114625000Y-134000000D03*
X120750000Y-102875000D03*
X131500000Y-127625000D03*
X126000000Y-139500000D03*
X124250000Y-110125000D03*
X115875000Y-139500000D03*
X126750000Y-103125000D03*
X116875000Y-126875000D03*
X124125000Y-112375000D03*
X131250000Y-121250000D03*
X116875000Y-124625000D03*
X119000000Y-122125000D03*
X122375000Y-117375000D03*
X126750000Y-104875000D03*
X115250000Y-102500000D03*
X120750000Y-101375000D03*
X125308546Y-129000000D03*
X112625000Y-120500000D03*
X117000000Y-114625000D03*
X126750000Y-104000000D03*
X115250000Y-101750000D03*
X120125000Y-113125000D03*
X111250000Y-111000000D03*
X126500000Y-119125000D03*
X116500000Y-139500000D03*
X126500000Y-114000000D03*
X127625000Y-120875000D03*
X122375000Y-137750000D03*
X117000000Y-118375000D03*
X110375000Y-111000000D03*
X128000000Y-111250000D03*
X116125000Y-120500000D03*
X129000000Y-126375000D03*
X120750000Y-102125000D03*
X111125000Y-127750000D03*
X110250000Y-108250000D03*
X126625000Y-137875000D03*
X122875000Y-101500000D03*
X123875000Y-137750000D03*
X116000000Y-101875000D03*
X124250000Y-114375000D03*
X121375000Y-114125000D03*
X123125000Y-137750000D03*
X125375000Y-128000000D03*
X110375000Y-111875000D03*
X118125000Y-110750000D03*
X126750000Y-139500000D03*
X124375000Y-128000000D03*
X126750000Y-112500000D03*
X128000000Y-114000000D03*
X120000000Y-122125000D03*
X112125000Y-111000000D03*
X118875000Y-112000000D03*
X124375000Y-129000000D03*
X123000000Y-111000000D03*
X115625000Y-133000000D03*
X113000000Y-111000000D03*
X129250000Y-132625000D03*
X118000000Y-120000000D03*
X124375000Y-101500000D03*
X111125000Y-129500000D03*
X117750000Y-126875000D03*
X131500000Y-125000000D03*
X111500000Y-118250000D03*
D25*
%TO.N,+5V*%
X116750000Y-127750000D03*
X125000000Y-122375000D03*
D24*
X126440208Y-130940208D03*
D25*
X124125000Y-106000000D03*
D24*
%TO.N,VCC*%
X128375000Y-131250000D03*
D25*
X125750000Y-115812500D03*
D26*
%TO.N,Net-(D4-K)*%
X118625000Y-128625000D03*
D24*
%TO.N,/LED/LED+*%
X119500000Y-132625000D03*
%TO.N,/EN*%
X131155000Y-120125000D03*
%TD*%
D27*
%TO.N,+5V*%
X126440208Y-130940208D02*
X125125000Y-129625000D01*
X125125000Y-129625000D02*
X122875000Y-129625000D01*
X122875000Y-129625000D02*
X121875000Y-128625000D01*
D28*
X125000000Y-106875000D02*
X124125000Y-106000000D01*
D27*
X121875000Y-128625000D02*
X120312500Y-127062500D01*
D28*
X120312500Y-127062500D02*
X125000000Y-122375000D01*
X119625000Y-127750000D02*
X120312500Y-127062500D01*
X116750000Y-127750000D02*
X119625000Y-127750000D01*
X125000000Y-122375000D02*
X125000000Y-106875000D01*
%TO.N,VCC*%
X131125000Y-112115000D02*
X131125000Y-110875000D01*
D27*
X128375000Y-131250000D02*
X128375000Y-129937500D01*
D28*
X127500000Y-110375000D02*
X125750000Y-112125000D01*
X125750000Y-112125000D02*
X125750000Y-115812500D01*
D27*
X128375000Y-129937500D02*
X125750000Y-127312500D01*
D28*
X125750000Y-124625000D02*
X125750000Y-115812500D01*
X130635000Y-112605000D02*
X131125000Y-112115000D01*
X131125000Y-110875000D02*
X130625000Y-110375000D01*
D27*
X125750000Y-127312500D02*
X125750000Y-124625000D01*
D28*
X130625000Y-110375000D02*
X127500000Y-110375000D01*
D27*
%TO.N,Net-(D4-K)*%
X120125000Y-128625000D02*
X118625000Y-128625000D01*
%TO.N,/EN*%
X131875000Y-115115000D02*
X131875000Y-119405000D01*
X131875000Y-119405000D02*
X131155000Y-120125000D01*
X130635000Y-113875000D02*
X131875000Y-115115000D01*
%TD*%
%TA.AperFunction,Conductor*%
%TO.N,GND*%
G36*
X127173066Y-100017813D02*
G01*
X127198376Y-100061650D01*
X127199500Y-100074500D01*
X127199500Y-104999500D01*
X127199500Y-105000000D01*
X127199500Y-105067660D01*
X127214505Y-105133401D01*
X127229610Y-105199586D01*
X127229613Y-105199593D01*
X127288324Y-105321506D01*
X127288325Y-105321507D01*
X127372695Y-105427305D01*
X127478493Y-105511675D01*
X127600412Y-105570389D01*
X127732340Y-105600500D01*
X127799901Y-105600500D01*
X131925500Y-105600500D01*
X131973066Y-105617813D01*
X131998376Y-105661650D01*
X131999500Y-105674500D01*
X131999500Y-114706587D01*
X131982187Y-114754153D01*
X131938350Y-114779463D01*
X131888500Y-114770673D01*
X131873174Y-114758913D01*
X131270653Y-114156393D01*
X131249261Y-114110517D01*
X131253788Y-114077826D01*
X131271237Y-114031817D01*
X131271238Y-114031813D01*
X131290278Y-113875003D01*
X131290278Y-113874996D01*
X131271238Y-113718191D01*
X131271237Y-113718182D01*
X131263213Y-113697025D01*
X131215221Y-113570478D01*
X131125483Y-113440470D01*
X131062745Y-113384890D01*
X131007240Y-113335717D01*
X130949709Y-113305522D01*
X130915639Y-113268089D01*
X130913601Y-113217511D01*
X130944551Y-113177456D01*
X130949693Y-113174486D01*
X131007240Y-113144283D01*
X131125483Y-113039530D01*
X131215220Y-112909523D01*
X131271237Y-112761818D01*
X131290278Y-112605000D01*
X131277340Y-112498451D01*
X131288792Y-112449146D01*
X131298469Y-112437211D01*
X131341715Y-112393965D01*
X131353561Y-112384346D01*
X131365669Y-112376437D01*
X131386817Y-112349263D01*
X131389843Y-112345838D01*
X131393376Y-112342306D01*
X131406047Y-112324558D01*
X131437517Y-112284126D01*
X131437519Y-112284118D01*
X131440435Y-112278732D01*
X131440754Y-112278904D01*
X131441870Y-112276738D01*
X131441545Y-112276579D01*
X131444240Y-112271066D01*
X131458861Y-112221954D01*
X131475500Y-112173487D01*
X131476510Y-112167438D01*
X131476862Y-112167496D01*
X131477214Y-112165085D01*
X131476858Y-112165041D01*
X131477615Y-112158959D01*
X131477617Y-112158954D01*
X131475500Y-112107758D01*
X131475500Y-110919025D01*
X131477075Y-110903839D01*
X131480043Y-110889685D01*
X131475784Y-110855518D01*
X131475500Y-110850938D01*
X131475500Y-110845966D01*
X131475500Y-110845960D01*
X131471912Y-110824459D01*
X131465573Y-110773607D01*
X131465568Y-110773598D01*
X131463823Y-110767733D01*
X131464168Y-110767630D01*
X131463422Y-110765300D01*
X131463082Y-110765417D01*
X131461092Y-110759619D01*
X131436704Y-110714555D01*
X131414198Y-110668516D01*
X131414193Y-110668511D01*
X131410632Y-110663522D01*
X131410923Y-110663313D01*
X131409465Y-110661358D01*
X131409183Y-110661579D01*
X131405418Y-110656742D01*
X131367724Y-110622042D01*
X130903970Y-110158288D01*
X130894345Y-110146436D01*
X130886437Y-110134331D01*
X130859269Y-110113186D01*
X130855838Y-110110156D01*
X130852307Y-110106625D01*
X130834561Y-110093955D01*
X130794126Y-110062483D01*
X130788736Y-110059566D01*
X130788905Y-110059252D01*
X130786730Y-110058132D01*
X130786574Y-110058453D01*
X130781062Y-110055758D01*
X130731954Y-110041138D01*
X130683489Y-110024499D01*
X130677443Y-110023491D01*
X130677501Y-110023138D01*
X130675083Y-110022786D01*
X130675039Y-110023142D01*
X130668955Y-110022383D01*
X130668954Y-110022383D01*
X130668952Y-110022383D01*
X130617769Y-110024500D01*
X127544025Y-110024500D01*
X127528840Y-110022925D01*
X127514685Y-110019957D01*
X127480518Y-110024216D01*
X127475939Y-110024500D01*
X127470960Y-110024500D01*
X127470957Y-110024500D01*
X127470950Y-110024501D01*
X127449459Y-110028087D01*
X127398607Y-110034426D01*
X127392730Y-110036176D01*
X127392629Y-110035836D01*
X127390307Y-110036580D01*
X127390422Y-110036915D01*
X127384621Y-110038906D01*
X127339550Y-110063297D01*
X127293516Y-110085802D01*
X127288526Y-110089365D01*
X127288320Y-110089077D01*
X127286365Y-110090535D01*
X127286582Y-110090814D01*
X127281742Y-110094581D01*
X127247031Y-110132287D01*
X125533286Y-111846030D01*
X125521438Y-111855652D01*
X125509333Y-111863561D01*
X125509325Y-111863568D01*
X125488185Y-111890728D01*
X125485154Y-111894161D01*
X125481624Y-111897691D01*
X125480965Y-111898471D01*
X125480688Y-111898629D01*
X125479470Y-111899848D01*
X125479136Y-111899515D01*
X125437010Y-111923576D01*
X125387202Y-111914554D01*
X125354846Y-111875626D01*
X125350500Y-111850641D01*
X125350500Y-108000005D01*
X127819532Y-108000005D01*
X127839364Y-108226688D01*
X127839365Y-108226696D01*
X127898258Y-108446488D01*
X127898260Y-108446492D01*
X127898261Y-108446496D01*
X127994432Y-108652734D01*
X127994434Y-108652736D01*
X127994435Y-108652739D01*
X128041518Y-108719981D01*
X128124953Y-108839139D01*
X128285861Y-109000047D01*
X128472266Y-109130568D01*
X128678504Y-109226739D01*
X128678510Y-109226740D01*
X128678511Y-109226741D01*
X128898303Y-109285634D01*
X128898305Y-109285634D01*
X128898308Y-109285635D01*
X129068216Y-109300500D01*
X129068218Y-109300500D01*
X129181782Y-109300500D01*
X129181784Y-109300500D01*
X129351692Y-109285635D01*
X129571496Y-109226739D01*
X129777734Y-109130568D01*
X129964139Y-109000047D01*
X130125047Y-108839139D01*
X130255568Y-108652734D01*
X130351739Y-108446496D01*
X130410635Y-108226692D01*
X130430468Y-108000000D01*
X130430468Y-107999994D01*
X130410635Y-107773311D01*
X130410634Y-107773303D01*
X130351741Y-107553511D01*
X130351740Y-107553510D01*
X130351739Y-107553504D01*
X130255568Y-107347266D01*
X130125047Y-107160861D01*
X129964139Y-106999953D01*
X129831133Y-106906822D01*
X129777739Y-106869435D01*
X129777736Y-106869434D01*
X129777734Y-106869432D01*
X129571496Y-106773261D01*
X129571492Y-106773260D01*
X129571488Y-106773258D01*
X129351696Y-106714365D01*
X129351689Y-106714364D01*
X129214362Y-106702350D01*
X129181784Y-106699500D01*
X129068216Y-106699500D01*
X129038488Y-106702100D01*
X128898310Y-106714364D01*
X128898303Y-106714365D01*
X128678511Y-106773258D01*
X128678504Y-106773260D01*
X128678504Y-106773261D01*
X128502105Y-106855518D01*
X128472260Y-106869435D01*
X128285860Y-106999953D01*
X128124953Y-107160860D01*
X127994435Y-107347260D01*
X127994432Y-107347265D01*
X127994432Y-107347266D01*
X127898263Y-107553500D01*
X127898258Y-107553511D01*
X127839365Y-107773303D01*
X127839364Y-107773311D01*
X127819532Y-107999994D01*
X127819532Y-108000005D01*
X125350500Y-108000005D01*
X125350500Y-106919025D01*
X125352075Y-106903839D01*
X125355043Y-106889685D01*
X125350784Y-106855518D01*
X125350500Y-106850938D01*
X125350500Y-106845966D01*
X125350500Y-106845960D01*
X125346912Y-106824459D01*
X125340573Y-106773607D01*
X125340568Y-106773598D01*
X125338823Y-106767733D01*
X125339168Y-106767630D01*
X125338422Y-106765300D01*
X125338082Y-106765417D01*
X125336092Y-106759619D01*
X125311704Y-106714555D01*
X125304344Y-106699500D01*
X125289198Y-106668516D01*
X125289193Y-106668511D01*
X125285632Y-106663522D01*
X125285923Y-106663313D01*
X125284465Y-106661358D01*
X125284183Y-106661579D01*
X125280418Y-106656742D01*
X125242724Y-106622042D01*
X124699124Y-106078442D01*
X124677732Y-106032565D01*
X124678083Y-106016456D01*
X124680250Y-106000000D01*
X124661330Y-105856291D01*
X124605861Y-105722375D01*
X124517621Y-105607379D01*
X124402625Y-105519139D01*
X124402623Y-105519138D01*
X124268708Y-105463669D01*
X124125000Y-105444750D01*
X123981291Y-105463669D01*
X123847376Y-105519138D01*
X123732379Y-105607379D01*
X123644138Y-105722376D01*
X123588669Y-105856291D01*
X123569750Y-106000000D01*
X123588669Y-106143708D01*
X123616425Y-106210717D01*
X123644139Y-106277625D01*
X123732379Y-106392621D01*
X123847375Y-106480861D01*
X123981291Y-106536330D01*
X124125000Y-106555250D01*
X124141454Y-106553083D01*
X124190872Y-106564035D01*
X124203442Y-106574123D01*
X124627826Y-106998507D01*
X124649218Y-107044383D01*
X124649500Y-107050833D01*
X124649500Y-115056186D01*
X124632187Y-115103752D01*
X124588350Y-115129062D01*
X124538500Y-115120272D01*
X124526430Y-115111577D01*
X124497240Y-115085717D01*
X124497238Y-115085716D01*
X124497237Y-115085715D01*
X124357366Y-115012304D01*
X124203987Y-114974500D01*
X124203985Y-114974500D01*
X124046015Y-114974500D01*
X124046012Y-114974500D01*
X123892633Y-115012304D01*
X123752761Y-115085716D01*
X123634516Y-115190470D01*
X123544779Y-115320478D01*
X123544778Y-115320478D01*
X123488764Y-115468177D01*
X123488761Y-115468191D01*
X123469722Y-115624996D01*
X123469722Y-115625003D01*
X123488761Y-115781808D01*
X123488764Y-115781822D01*
X123544778Y-115929521D01*
X123620731Y-116039558D01*
X123634517Y-116059530D01*
X123752760Y-116164283D01*
X123892635Y-116237696D01*
X124046015Y-116275500D01*
X124046019Y-116275500D01*
X124203981Y-116275500D01*
X124203985Y-116275500D01*
X124357365Y-116237696D01*
X124497240Y-116164283D01*
X124526431Y-116138422D01*
X124573513Y-116119840D01*
X124621527Y-116135869D01*
X124648004Y-116179011D01*
X124649500Y-116193813D01*
X124649500Y-121913565D01*
X124632187Y-121961131D01*
X124620550Y-121972272D01*
X124607381Y-121982376D01*
X124519138Y-122097376D01*
X124463669Y-122231291D01*
X124444750Y-122375000D01*
X124444750Y-122375002D01*
X124446916Y-122391458D01*
X124435959Y-122440877D01*
X124425875Y-122453441D01*
X120106016Y-126773302D01*
X119501492Y-127377826D01*
X119455616Y-127399218D01*
X119449166Y-127399500D01*
X117211435Y-127399500D01*
X117163869Y-127382187D01*
X117152728Y-127370550D01*
X117148372Y-127364874D01*
X117142621Y-127357379D01*
X117027625Y-127269139D01*
X117027623Y-127269138D01*
X116893708Y-127213669D01*
X116750000Y-127194750D01*
X116606291Y-127213669D01*
X116472376Y-127269138D01*
X116357379Y-127357379D01*
X116269138Y-127472376D01*
X116213669Y-127606291D01*
X116194750Y-127750000D01*
X116213669Y-127893708D01*
X116257489Y-127999500D01*
X116269139Y-128027625D01*
X116357379Y-128142621D01*
X116472375Y-128230861D01*
X116606291Y-128286330D01*
X116750000Y-128305250D01*
X116893709Y-128286330D01*
X117027625Y-128230861D01*
X117142621Y-128142621D01*
X117152728Y-128129450D01*
X117195420Y-128102254D01*
X117211435Y-128100500D01*
X118463981Y-128100500D01*
X118511547Y-128117813D01*
X118536857Y-128161650D01*
X118528067Y-128211500D01*
X118497576Y-128240434D01*
X118386659Y-128296948D01*
X118296951Y-128386656D01*
X118239353Y-128499698D01*
X118219508Y-128625000D01*
X118239353Y-128750301D01*
X118239353Y-128750302D01*
X118239354Y-128750304D01*
X118296950Y-128863342D01*
X118386658Y-128953050D01*
X118499696Y-129010646D01*
X118625000Y-129030492D01*
X118750304Y-129010646D01*
X118863342Y-128953050D01*
X118919218Y-128897174D01*
X118965094Y-128875782D01*
X118971544Y-128875500D01*
X119383522Y-128875500D01*
X119431088Y-128892813D01*
X119456398Y-128936650D01*
X119456608Y-128937910D01*
X119457424Y-128943065D01*
X119463890Y-128983893D01*
X119463892Y-128983897D01*
X119519687Y-129093401D01*
X119519689Y-129093403D01*
X119606597Y-129180311D01*
X119716107Y-129236109D01*
X119806967Y-129250500D01*
X120443032Y-129250499D01*
X120533893Y-129236109D01*
X120643403Y-129180311D01*
X120730311Y-129093403D01*
X120786109Y-128983893D01*
X120800500Y-128893033D01*
X120800499Y-128356968D01*
X120786109Y-128266107D01*
X120786108Y-128266105D01*
X120786107Y-128266102D01*
X120730312Y-128156598D01*
X120643403Y-128069689D01*
X120533893Y-128013891D01*
X120533891Y-128013890D01*
X120533890Y-128013890D01*
X120443035Y-127999500D01*
X120443033Y-127999500D01*
X120049833Y-127999500D01*
X120002267Y-127982187D01*
X119976957Y-127938350D01*
X119985747Y-127888500D01*
X119997507Y-127873174D01*
X120330884Y-127539796D01*
X120376760Y-127518404D01*
X120425655Y-127531505D01*
X120435536Y-127539796D01*
X121180113Y-128284374D01*
X121201505Y-128330251D01*
X121200876Y-128348273D01*
X121199500Y-128356960D01*
X121199500Y-128893032D01*
X121213891Y-128983894D01*
X121213892Y-128983897D01*
X121269687Y-129093401D01*
X121269689Y-129093403D01*
X121356597Y-129180311D01*
X121466107Y-129236109D01*
X121556967Y-129250500D01*
X122115586Y-129250499D01*
X122163152Y-129267812D01*
X122167912Y-129272173D01*
X122513913Y-129618174D01*
X122535305Y-129664050D01*
X122522204Y-129712945D01*
X122480740Y-129741979D01*
X122461587Y-129744500D01*
X121053470Y-129744500D01*
X121045844Y-129744875D01*
X121045834Y-129744875D01*
X121045833Y-129744876D01*
X121045834Y-129744876D01*
X121041905Y-129745262D01*
X121023826Y-129747043D01*
X121023824Y-129747043D01*
X121023811Y-129747045D01*
X121016267Y-129748164D01*
X121016264Y-129748164D01*
X121016682Y-129748081D01*
X121002262Y-129749500D01*
X120785180Y-129749500D01*
X120763229Y-129753866D01*
X120741277Y-129758233D01*
X120691496Y-129791495D01*
X120691495Y-129791496D01*
X120658233Y-129841277D01*
X120649500Y-129885180D01*
X120649500Y-130102259D01*
X120648081Y-130116680D01*
X120648165Y-130116260D01*
X120647045Y-130123810D01*
X120647043Y-130123825D01*
X120647043Y-130123826D01*
X120645262Y-130141905D01*
X120644875Y-130145844D01*
X120644500Y-130153470D01*
X120644500Y-130153475D01*
X120644500Y-135871524D01*
X120644876Y-135879166D01*
X120644876Y-135879165D01*
X120647043Y-135901177D01*
X120647044Y-135901179D01*
X120647045Y-135901189D01*
X120647046Y-135901193D01*
X120648163Y-135908730D01*
X120663643Y-135986559D01*
X120663646Y-135986570D01*
X120672489Y-136015726D01*
X120672498Y-136015750D01*
X120683542Y-136042411D01*
X120683541Y-136042411D01*
X120697916Y-136069305D01*
X120735747Y-136125922D01*
X120735752Y-136125929D01*
X120755090Y-136149492D01*
X120775507Y-136169909D01*
X120799070Y-136189247D01*
X120855698Y-136227085D01*
X120882583Y-136241456D01*
X120909258Y-136252505D01*
X120909264Y-136252506D01*
X120909267Y-136252508D01*
X120931135Y-136259141D01*
X120938428Y-136261353D01*
X120938432Y-136261353D01*
X120938433Y-136261354D01*
X121016263Y-136276836D01*
X121016265Y-136276836D01*
X121023807Y-136277955D01*
X121023806Y-136277955D01*
X121045835Y-136280124D01*
X121045845Y-136280125D01*
X121053470Y-136280500D01*
X121053476Y-136280500D01*
X125767971Y-136280500D01*
X125767977Y-136280500D01*
X125775602Y-136280125D01*
X125775611Y-136280124D01*
X125775612Y-136280124D01*
X125797642Y-136277955D01*
X125797641Y-136277955D01*
X125805183Y-136276836D01*
X125804769Y-136276919D01*
X125819189Y-136275500D01*
X125953981Y-136275500D01*
X125953985Y-136275500D01*
X126107365Y-136237696D01*
X126247240Y-136164283D01*
X126365483Y-136059530D01*
X126455220Y-135929523D01*
X126463104Y-135908736D01*
X126511235Y-135781822D01*
X126511237Y-135781818D01*
X126530278Y-135625000D01*
X126525136Y-135582653D01*
X126526019Y-135559293D01*
X126526835Y-135555188D01*
X126526835Y-135555187D01*
X126527955Y-135547640D01*
X126527955Y-135547641D01*
X126530124Y-135525611D01*
X126530125Y-135525601D01*
X126530500Y-135517976D01*
X126530500Y-131445975D01*
X126530499Y-131445973D01*
X126530365Y-131444144D01*
X126530500Y-131443666D01*
X126530500Y-131443258D01*
X126530616Y-131443258D01*
X126544137Y-131395434D01*
X126583317Y-131367706D01*
X126629277Y-131354212D01*
X126738257Y-131284175D01*
X126823090Y-131186271D01*
X126876905Y-131068434D01*
X126895341Y-130940208D01*
X126876905Y-130811982D01*
X126823090Y-130694145D01*
X126738257Y-130596241D01*
X126629277Y-130526204D01*
X126629276Y-130526203D01*
X126629275Y-130526203D01*
X126564169Y-130507087D01*
X126523406Y-130477075D01*
X126511472Y-130427883D01*
X126515478Y-130410779D01*
X126521122Y-130395273D01*
X126530500Y-130342088D01*
X126530500Y-130153470D01*
X126530125Y-130145845D01*
X126527957Y-130123826D01*
X126527955Y-130123806D01*
X126527955Y-130123807D01*
X126527954Y-130123806D01*
X126526836Y-130116265D01*
X126526836Y-130116263D01*
X126511354Y-130038433D01*
X126511352Y-130038427D01*
X126502507Y-130009266D01*
X126502505Y-130009259D01*
X126502505Y-130009258D01*
X126491456Y-129982583D01*
X126477085Y-129955698D01*
X126439247Y-129899070D01*
X126419909Y-129875507D01*
X126399492Y-129855090D01*
X126375929Y-129835752D01*
X126348571Y-129817472D01*
X126319304Y-129797916D01*
X126319305Y-129797916D01*
X126292411Y-129783541D01*
X126265735Y-129772492D01*
X126236571Y-129763646D01*
X126236560Y-129763643D01*
X126169197Y-129750245D01*
X126158740Y-129748165D01*
X126158736Y-129748164D01*
X126158729Y-129748163D01*
X126158731Y-129748163D01*
X126154358Y-129747515D01*
X126151190Y-129747045D01*
X126151180Y-129747044D01*
X126151178Y-129747043D01*
X126129166Y-129744876D01*
X126129167Y-129744876D01*
X126129165Y-129744875D01*
X126129156Y-129744875D01*
X126121530Y-129744500D01*
X125927823Y-129744500D01*
X125927820Y-129744500D01*
X125917664Y-129745166D01*
X125917663Y-129745166D01*
X125893467Y-129748350D01*
X125824569Y-129775143D01*
X125824562Y-129775146D01*
X125783109Y-129804173D01*
X125783108Y-129804174D01*
X125767259Y-129817472D01*
X125719693Y-129834783D01*
X125672127Y-129817469D01*
X125667369Y-129813109D01*
X125324732Y-129470472D01*
X125315531Y-129459260D01*
X125305601Y-129444399D01*
X125252536Y-129408942D01*
X125222741Y-129389034D01*
X125125000Y-129369592D01*
X125107475Y-129373078D01*
X125093038Y-129374500D01*
X123009413Y-129374500D01*
X122961847Y-129357187D01*
X122957087Y-129352826D01*
X122569886Y-128965625D01*
X122548494Y-128919749D01*
X122549123Y-128901721D01*
X122550500Y-128893033D01*
X122550499Y-128356968D01*
X122536109Y-128266107D01*
X122536108Y-128266105D01*
X122536107Y-128266102D01*
X122480312Y-128156598D01*
X122393403Y-128069689D01*
X122283893Y-128013891D01*
X122283891Y-128013890D01*
X122283890Y-128013890D01*
X122193035Y-127999500D01*
X122193033Y-127999500D01*
X121634413Y-127999500D01*
X121586847Y-127982187D01*
X121582087Y-127977826D01*
X120789797Y-127185536D01*
X120768405Y-127139660D01*
X120781506Y-127090765D01*
X120789797Y-127080884D01*
X122811152Y-125059529D01*
X124921558Y-122949122D01*
X124967433Y-122927731D01*
X124983541Y-122928082D01*
X124993954Y-122929453D01*
X124999998Y-122930250D01*
X124999999Y-122930250D01*
X124999999Y-122930249D01*
X125000000Y-122930250D01*
X125143709Y-122911330D01*
X125277625Y-122855861D01*
X125280452Y-122853691D01*
X125328727Y-122838470D01*
X125375493Y-122857841D01*
X125398867Y-122902740D01*
X125399500Y-122912400D01*
X125399500Y-124033152D01*
X125382187Y-124080718D01*
X125374571Y-124088542D01*
X125259516Y-124190470D01*
X125169779Y-124320478D01*
X125169778Y-124320478D01*
X125113764Y-124468177D01*
X125113761Y-124468191D01*
X125094722Y-124624996D01*
X125094722Y-124625003D01*
X125113761Y-124781808D01*
X125113764Y-124781822D01*
X125169778Y-124929521D01*
X125259516Y-125059529D01*
X125259517Y-125059530D01*
X125377760Y-125164283D01*
X125377761Y-125164283D01*
X125377763Y-125164285D01*
X125412872Y-125182711D01*
X125459889Y-125207388D01*
X125493961Y-125244821D01*
X125499500Y-125272911D01*
X125499500Y-127280537D01*
X125498078Y-127294973D01*
X125494592Y-127312498D01*
X125494592Y-127312500D01*
X125514034Y-127410242D01*
X125523135Y-127423862D01*
X125532237Y-127437483D01*
X125555551Y-127472375D01*
X125565636Y-127487470D01*
X125569399Y-127493101D01*
X125584260Y-127503031D01*
X125595472Y-127512232D01*
X128102826Y-130019586D01*
X128124218Y-130065462D01*
X128124500Y-130071912D01*
X128124500Y-130835067D01*
X128107187Y-130882633D01*
X128090511Y-130897318D01*
X128076953Y-130906031D01*
X128076950Y-130906034D01*
X127992119Y-131003935D01*
X127938302Y-131121776D01*
X127919867Y-131250000D01*
X127938302Y-131378223D01*
X127938302Y-131378224D01*
X127938303Y-131378226D01*
X127992118Y-131496063D01*
X128076951Y-131593967D01*
X128185931Y-131664004D01*
X128310228Y-131700500D01*
X128439772Y-131700500D01*
X128564069Y-131664004D01*
X128673049Y-131593967D01*
X128757882Y-131496063D01*
X128811697Y-131378226D01*
X128830133Y-131250000D01*
X128811697Y-131121774D01*
X128757882Y-131003937D01*
X128673049Y-130906033D01*
X128673046Y-130906031D01*
X128659489Y-130897318D01*
X128628836Y-130857035D01*
X128625500Y-130835067D01*
X128625500Y-129969466D01*
X128626922Y-129955028D01*
X128630409Y-129937500D01*
X128610966Y-129839760D01*
X128569578Y-129777817D01*
X128569577Y-129777816D01*
X128566019Y-129772491D01*
X128555603Y-129756901D01*
X128555601Y-129756900D01*
X128555601Y-129756899D01*
X128540738Y-129746968D01*
X128529530Y-129737769D01*
X126022174Y-127230413D01*
X126000782Y-127184537D01*
X126000500Y-127178087D01*
X126000500Y-125272911D01*
X126017813Y-125225345D01*
X126040108Y-125207388D01*
X126122240Y-125164283D01*
X126240483Y-125059530D01*
X126330220Y-124929523D01*
X126386237Y-124781818D01*
X126405278Y-124625000D01*
X126386237Y-124468182D01*
X126353370Y-124381518D01*
X126330221Y-124320478D01*
X126240483Y-124190470D01*
X126125429Y-124088542D01*
X126101306Y-124044041D01*
X126100500Y-124033152D01*
X126100500Y-116273934D01*
X126117813Y-116226368D01*
X126129453Y-116215225D01*
X126129917Y-116214868D01*
X126142621Y-116205121D01*
X126230861Y-116090125D01*
X126286330Y-115956209D01*
X126305250Y-115812500D01*
X126286330Y-115668791D01*
X126230861Y-115534875D01*
X126142621Y-115419879D01*
X126142619Y-115419877D01*
X126142618Y-115419876D01*
X126129450Y-115409772D01*
X126102254Y-115367080D01*
X126100500Y-115351065D01*
X126100500Y-112300833D01*
X126117813Y-112253267D01*
X126122174Y-112248507D01*
X127623507Y-110747174D01*
X127669383Y-110725782D01*
X127675833Y-110725500D01*
X129378150Y-110725500D01*
X129425716Y-110742813D01*
X129451026Y-110786650D01*
X129442236Y-110836500D01*
X129431975Y-110850282D01*
X129397706Y-110886603D01*
X129397704Y-110886607D01*
X129310533Y-111037592D01*
X129310531Y-111037596D01*
X129260532Y-111204605D01*
X129260531Y-111204613D01*
X129250393Y-111378661D01*
X129280668Y-111550354D01*
X129349720Y-111710437D01*
X129349721Y-111710438D01*
X129443430Y-111836311D01*
X129457948Y-111884802D01*
X129437899Y-111931282D01*
X129392664Y-111954000D01*
X129384073Y-111954500D01*
X128850180Y-111954500D01*
X128843273Y-111955874D01*
X128806277Y-111963233D01*
X128756496Y-111996495D01*
X128756495Y-111996496D01*
X128723233Y-112046277D01*
X128714500Y-112090180D01*
X128714500Y-113119819D01*
X128723233Y-113163722D01*
X128730418Y-113174476D01*
X128756496Y-113213504D01*
X128806278Y-113246767D01*
X128850180Y-113255500D01*
X128888184Y-113255500D01*
X128935750Y-113272813D01*
X128961060Y-113316650D01*
X128952270Y-113366500D01*
X128937255Y-113384890D01*
X128874516Y-113440470D01*
X128784779Y-113570478D01*
X128784778Y-113570478D01*
X128728764Y-113718177D01*
X128728761Y-113718191D01*
X128709722Y-113874996D01*
X128709722Y-113875003D01*
X128728761Y-114031808D01*
X128728764Y-114031822D01*
X128784778Y-114179521D01*
X128874516Y-114309529D01*
X128992761Y-114414284D01*
X129050288Y-114444477D01*
X129084360Y-114481912D01*
X129086398Y-114532490D01*
X129055448Y-114572545D01*
X129050288Y-114575523D01*
X128992761Y-114605715D01*
X128874516Y-114710470D01*
X128784779Y-114840478D01*
X128784778Y-114840478D01*
X128728764Y-114988177D01*
X128728761Y-114988191D01*
X128709722Y-115144996D01*
X128709722Y-115145003D01*
X128728761Y-115301808D01*
X128728764Y-115301822D01*
X128776937Y-115428843D01*
X128784780Y-115449523D01*
X128830780Y-115516166D01*
X128866831Y-115568395D01*
X128879603Y-115617376D01*
X128857903Y-115663108D01*
X128814529Y-115683931D01*
X128810840Y-115684362D01*
X128810831Y-115684364D01*
X128647009Y-115743990D01*
X128501347Y-115839793D01*
X128381703Y-115966608D01*
X128294533Y-116117592D01*
X128294531Y-116117596D01*
X128244532Y-116284605D01*
X128244531Y-116284613D01*
X128234393Y-116458661D01*
X128264668Y-116630354D01*
X128333720Y-116790437D01*
X128333721Y-116790438D01*
X128437832Y-116930283D01*
X128498573Y-116981251D01*
X128571383Y-117042347D01*
X128571384Y-117042347D01*
X128571386Y-117042349D01*
X128727185Y-117120594D01*
X128896829Y-117160800D01*
X129027436Y-117160800D01*
X129157164Y-117145637D01*
X129320993Y-117086008D01*
X129466654Y-116990205D01*
X129586296Y-116863393D01*
X129673467Y-116712407D01*
X129723469Y-116545388D01*
X129733607Y-116371340D01*
X129703332Y-116199646D01*
X129634279Y-116039562D01*
X129530168Y-115899717D01*
X129530165Y-115899714D01*
X129530163Y-115899712D01*
X129526226Y-115896409D01*
X129500916Y-115852573D01*
X129509704Y-115802722D01*
X129548480Y-115770184D01*
X129556079Y-115767871D01*
X129597365Y-115757696D01*
X129737240Y-115684283D01*
X129855483Y-115579530D01*
X129878988Y-115545476D01*
X129920255Y-115516166D01*
X129970710Y-115520238D01*
X130002545Y-115548143D01*
X130044915Y-115615574D01*
X130164425Y-115735084D01*
X130307527Y-115825002D01*
X130307532Y-115825004D01*
X130380342Y-115850482D01*
X130419521Y-115882533D01*
X130428931Y-115932269D01*
X130415262Y-115964513D01*
X130413707Y-115966601D01*
X130326533Y-116117592D01*
X130326531Y-116117596D01*
X130276532Y-116284605D01*
X130276531Y-116284613D01*
X130266393Y-116458661D01*
X130296668Y-116630354D01*
X130365720Y-116790437D01*
X130365721Y-116790438D01*
X130469832Y-116930283D01*
X130530573Y-116981251D01*
X130603383Y-117042347D01*
X130603384Y-117042347D01*
X130603386Y-117042349D01*
X130759185Y-117120594D01*
X130928829Y-117160800D01*
X131059436Y-117160800D01*
X131189164Y-117145637D01*
X131352993Y-117086008D01*
X131498654Y-116990205D01*
X131498654Y-116990204D01*
X131498658Y-116990202D01*
X131501954Y-116987437D01*
X131503263Y-116988997D01*
X131541896Y-116969587D01*
X131591152Y-116981251D01*
X131621387Y-117021849D01*
X131624500Y-117043085D01*
X131624500Y-119270587D01*
X131607187Y-119318153D01*
X131602826Y-119322913D01*
X131272913Y-119652826D01*
X131227037Y-119674218D01*
X131220587Y-119674500D01*
X131090228Y-119674500D01*
X130965931Y-119710995D01*
X130856954Y-119781031D01*
X130856950Y-119781034D01*
X130772119Y-119878935D01*
X130772118Y-119878936D01*
X130772118Y-119878937D01*
X130745210Y-119937855D01*
X130718302Y-119996776D01*
X130699867Y-120125000D01*
X130718302Y-120253223D01*
X130718302Y-120253224D01*
X130718303Y-120253226D01*
X130772118Y-120371063D01*
X130856951Y-120468967D01*
X130965931Y-120539004D01*
X131090228Y-120575500D01*
X131219772Y-120575500D01*
X131344069Y-120539004D01*
X131453049Y-120468967D01*
X131537882Y-120371063D01*
X131591697Y-120253226D01*
X131610133Y-120125000D01*
X131602723Y-120073469D01*
X131613090Y-120023927D01*
X131623639Y-120010619D01*
X131873175Y-119761084D01*
X131919051Y-119739693D01*
X131967945Y-119752794D01*
X131996979Y-119794259D01*
X131999500Y-119813411D01*
X131999500Y-134325500D01*
X131982187Y-134373066D01*
X131938350Y-134398376D01*
X131925500Y-134399500D01*
X127800500Y-134399500D01*
X127800000Y-134399500D01*
X127732340Y-134399500D01*
X127670320Y-134413655D01*
X127600413Y-134429610D01*
X127600406Y-134429613D01*
X127478493Y-134488324D01*
X127372695Y-134572695D01*
X127288324Y-134678493D01*
X127229613Y-134800406D01*
X127229610Y-134800413D01*
X127199500Y-134932342D01*
X127199500Y-139925500D01*
X127182187Y-139973066D01*
X127138350Y-139998376D01*
X127125500Y-139999500D01*
X114874500Y-139999500D01*
X114826934Y-139982187D01*
X114801624Y-139938350D01*
X114800500Y-139925500D01*
X114800500Y-135517971D01*
X115969500Y-135517971D01*
X115969876Y-135525613D01*
X115969876Y-135525612D01*
X115972043Y-135547624D01*
X115972045Y-135547636D01*
X115973165Y-135555186D01*
X115973166Y-135555192D01*
X115973165Y-135555190D01*
X115973982Y-135559294D01*
X115974863Y-135582645D01*
X115969723Y-135624998D01*
X115969722Y-135625003D01*
X115988761Y-135781808D01*
X115988764Y-135781822D01*
X116044778Y-135929521D01*
X116122704Y-136042416D01*
X116134517Y-136059530D01*
X116252760Y-136164283D01*
X116392635Y-136237696D01*
X116546015Y-136275500D01*
X116680811Y-136275500D01*
X116695231Y-136276919D01*
X116694820Y-136276836D01*
X116702359Y-136277955D01*
X116702358Y-136277955D01*
X116724388Y-136280124D01*
X116724398Y-136280125D01*
X116732023Y-136280500D01*
X116732029Y-136280500D01*
X119996524Y-136280500D01*
X119996530Y-136280500D01*
X120004155Y-136280125D01*
X120004164Y-136280124D01*
X120004165Y-136280124D01*
X120026195Y-136277955D01*
X120026194Y-136277955D01*
X120033736Y-136276836D01*
X120033738Y-136276836D01*
X120040459Y-136275499D01*
X120111572Y-136261353D01*
X120140741Y-136252505D01*
X120167416Y-136241456D01*
X120194301Y-136227085D01*
X120250929Y-136189247D01*
X120274492Y-136169909D01*
X120294909Y-136149492D01*
X120314247Y-136125929D01*
X120352085Y-136069301D01*
X120366456Y-136042416D01*
X120377505Y-136015741D01*
X120386353Y-135986571D01*
X120401835Y-135908741D01*
X120401924Y-135908138D01*
X120402955Y-135901192D01*
X120402955Y-135901193D01*
X120405124Y-135879164D01*
X120405125Y-135879154D01*
X120405500Y-135871529D01*
X120405500Y-130153470D01*
X120405125Y-130145845D01*
X120402957Y-130123826D01*
X120402955Y-130123808D01*
X120402454Y-130120436D01*
X120401835Y-130116258D01*
X120401919Y-130116676D01*
X120400500Y-130102255D01*
X120400500Y-129885180D01*
X120391767Y-129841278D01*
X120358504Y-129791496D01*
X120346601Y-129783543D01*
X120308722Y-129758233D01*
X120302016Y-129756899D01*
X120264820Y-129749500D01*
X120264819Y-129749500D01*
X120047738Y-129749500D01*
X120033318Y-129748081D01*
X120033728Y-129748163D01*
X120031368Y-129747813D01*
X120026190Y-129747045D01*
X120026180Y-129747044D01*
X120026178Y-129747043D01*
X120004166Y-129744876D01*
X120004167Y-129744876D01*
X120004165Y-129744875D01*
X120004156Y-129744875D01*
X119996530Y-129744500D01*
X116378470Y-129744500D01*
X116370844Y-129744875D01*
X116370834Y-129744875D01*
X116370833Y-129744876D01*
X116370834Y-129744876D01*
X116366905Y-129745262D01*
X116348826Y-129747043D01*
X116348825Y-129747043D01*
X116348812Y-129747044D01*
X116348811Y-129747045D01*
X116341260Y-129748165D01*
X116341255Y-129748165D01*
X116341248Y-129748167D01*
X116341249Y-129748167D01*
X116263429Y-129763644D01*
X116263427Y-129763644D01*
X116234266Y-129772491D01*
X116207585Y-129783542D01*
X116180696Y-129797914D01*
X116124076Y-129835747D01*
X116124055Y-129835763D01*
X116100525Y-129855073D01*
X116100515Y-129855081D01*
X116080091Y-129875504D01*
X116060751Y-129899069D01*
X116022905Y-129955710D01*
X116022904Y-129955713D01*
X116008544Y-129982580D01*
X115997491Y-130009266D01*
X115988644Y-130038427D01*
X115988644Y-130038429D01*
X115973167Y-130116248D01*
X115973165Y-130116260D01*
X115972045Y-130123810D01*
X115972043Y-130123825D01*
X115972043Y-130123826D01*
X115970262Y-130141905D01*
X115969875Y-130145844D01*
X115969500Y-130153470D01*
X115969500Y-130153475D01*
X115969500Y-135517971D01*
X114800500Y-135517971D01*
X114800500Y-134932342D01*
X114770389Y-134800413D01*
X114770386Y-134800406D01*
X114711675Y-134678493D01*
X114627305Y-134572695D01*
X114521507Y-134488325D01*
X114521506Y-134488324D01*
X114399593Y-134429613D01*
X114399586Y-134429610D01*
X114337898Y-134415531D01*
X114267660Y-134399500D01*
X114267657Y-134399500D01*
X110074500Y-134399500D01*
X110026934Y-134382187D01*
X110001624Y-134338350D01*
X110000500Y-134325500D01*
X110000500Y-132000005D01*
X111569532Y-132000005D01*
X111589364Y-132226688D01*
X111589365Y-132226696D01*
X111648258Y-132446488D01*
X111648260Y-132446492D01*
X111648261Y-132446496D01*
X111744432Y-132652734D01*
X111744434Y-132652736D01*
X111744435Y-132652739D01*
X111874953Y-132839139D01*
X112035861Y-133000047D01*
X112222266Y-133130568D01*
X112428504Y-133226739D01*
X112428510Y-133226740D01*
X112428511Y-133226741D01*
X112648303Y-133285634D01*
X112648305Y-133285634D01*
X112648308Y-133285635D01*
X112818216Y-133300500D01*
X112818218Y-133300500D01*
X112931782Y-133300500D01*
X112931784Y-133300500D01*
X113101692Y-133285635D01*
X113321496Y-133226739D01*
X113527734Y-133130568D01*
X113714139Y-133000047D01*
X113875047Y-132839139D01*
X114005568Y-132652734D01*
X114101739Y-132446496D01*
X114160635Y-132226692D01*
X114180468Y-132000000D01*
X114180468Y-131999994D01*
X114160635Y-131773311D01*
X114160634Y-131773303D01*
X114101741Y-131553511D01*
X114101740Y-131553510D01*
X114101739Y-131553504D01*
X114005568Y-131347266D01*
X113875047Y-131160861D01*
X113714139Y-130999953D01*
X113580008Y-130906034D01*
X113527739Y-130869435D01*
X113527736Y-130869434D01*
X113527734Y-130869432D01*
X113321496Y-130773261D01*
X113321492Y-130773260D01*
X113321488Y-130773258D01*
X113101696Y-130714365D01*
X113101689Y-130714364D01*
X112964362Y-130702350D01*
X112931784Y-130699500D01*
X112818216Y-130699500D01*
X112788488Y-130702100D01*
X112648310Y-130714364D01*
X112648303Y-130714365D01*
X112428511Y-130773258D01*
X112428504Y-130773260D01*
X112428504Y-130773261D01*
X112248852Y-130857035D01*
X112222260Y-130869435D01*
X112035860Y-130999953D01*
X111874953Y-131160860D01*
X111744435Y-131347260D01*
X111744432Y-131347265D01*
X111744432Y-131347266D01*
X111675046Y-131496064D01*
X111648263Y-131553500D01*
X111648258Y-131553511D01*
X111589365Y-131773303D01*
X111589364Y-131773311D01*
X111569532Y-131999994D01*
X111569532Y-132000005D01*
X110000500Y-132000005D01*
X110000500Y-126125000D01*
X111805529Y-126125000D01*
X111806250Y-126138323D01*
X111855714Y-126316473D01*
X111942315Y-126479821D01*
X111942316Y-126479822D01*
X112062005Y-126620732D01*
X112209193Y-126732621D01*
X112376990Y-126810253D01*
X112376995Y-126810254D01*
X112557558Y-126849999D01*
X112557562Y-126850000D01*
X112800000Y-126850000D01*
X112800000Y-126353569D01*
X112862424Y-126375000D01*
X112956073Y-126375000D01*
X113048446Y-126359586D01*
X113050000Y-126358745D01*
X113050000Y-126850000D01*
X113246075Y-126850000D01*
X113246097Y-126849998D01*
X113383796Y-126835022D01*
X113383807Y-126835019D01*
X113559010Y-126775987D01*
X113559012Y-126775987D01*
X113717427Y-126680671D01*
X113717429Y-126680670D01*
X113851656Y-126553524D01*
X113955413Y-126400494D01*
X114023846Y-126228740D01*
X114023847Y-126228739D01*
X114040854Y-126125000D01*
X113279659Y-126125000D01*
X113293551Y-126093330D01*
X113303886Y-125968605D01*
X113280182Y-125875000D01*
X114044471Y-125875000D01*
X114044471Y-125874999D01*
X114043749Y-125861676D01*
X113994285Y-125683526D01*
X113907684Y-125520178D01*
X113907683Y-125520177D01*
X113787994Y-125379267D01*
X113640806Y-125267378D01*
X113473009Y-125189746D01*
X113473004Y-125189745D01*
X113292441Y-125150000D01*
X113050000Y-125150000D01*
X113050000Y-125646430D01*
X112987576Y-125625000D01*
X112893927Y-125625000D01*
X112801554Y-125640414D01*
X112800000Y-125641254D01*
X112800000Y-125150000D01*
X112603925Y-125150000D01*
X112603902Y-125150001D01*
X112466203Y-125164977D01*
X112466192Y-125164980D01*
X112290989Y-125224012D01*
X112290987Y-125224012D01*
X112132572Y-125319328D01*
X112132570Y-125319329D01*
X111998343Y-125446475D01*
X111894586Y-125599505D01*
X111826153Y-125771259D01*
X111826152Y-125771260D01*
X111809145Y-125874999D01*
X111809146Y-125875000D01*
X112570341Y-125875000D01*
X112556449Y-125906670D01*
X112546114Y-126031395D01*
X112569818Y-126125000D01*
X111805529Y-126125000D01*
X110000500Y-126125000D01*
X110000500Y-124381519D01*
X111899500Y-124381519D01*
X111914353Y-124475304D01*
X111914354Y-124475306D01*
X111971950Y-124588342D01*
X112061658Y-124678050D01*
X112174696Y-124735646D01*
X112268481Y-124750500D01*
X113581518Y-124750499D01*
X113581519Y-124750499D01*
X113675304Y-124735646D01*
X113675306Y-124735645D01*
X113677419Y-124734568D01*
X113788342Y-124678050D01*
X113878050Y-124588342D01*
X113935646Y-124475304D01*
X113950500Y-124381519D01*
X113950499Y-123618482D01*
X113935646Y-123524696D01*
X113935646Y-123524695D01*
X113935645Y-123524693D01*
X113878049Y-123411657D01*
X113788343Y-123321951D01*
X113788342Y-123321950D01*
X113675304Y-123264354D01*
X113675302Y-123264353D01*
X113675301Y-123264353D01*
X113581519Y-123249500D01*
X112268480Y-123249500D01*
X112174695Y-123264353D01*
X112174693Y-123264354D01*
X112061657Y-123321950D01*
X111971951Y-123411656D01*
X111914353Y-123524698D01*
X111899500Y-123618480D01*
X111899500Y-124381519D01*
X110000500Y-124381519D01*
X110000500Y-120914820D01*
X118674500Y-120914820D01*
X118683233Y-120958722D01*
X118716496Y-121008504D01*
X118766278Y-121041767D01*
X118810180Y-121050500D01*
X118810181Y-121050500D01*
X120639819Y-121050500D01*
X120639820Y-121050500D01*
X120683722Y-121041767D01*
X120733504Y-121008504D01*
X120766767Y-120958722D01*
X120775500Y-120914820D01*
X120775500Y-120000003D01*
X121110073Y-120000003D01*
X121129736Y-120212211D01*
X121188061Y-120417202D01*
X121188064Y-120417212D01*
X121283059Y-120607988D01*
X121283063Y-120607994D01*
X121367894Y-120720328D01*
X121868010Y-120220212D01*
X121870887Y-120227541D01*
X121955465Y-120333599D01*
X122046267Y-120395507D01*
X121543431Y-120898343D01*
X121569000Y-120921651D01*
X121750200Y-121033844D01*
X121750210Y-121033849D01*
X121948935Y-121110836D01*
X122158433Y-121149999D01*
X122158437Y-121150000D01*
X122371563Y-121150000D01*
X122371566Y-121149999D01*
X122581064Y-121110836D01*
X122779789Y-121033849D01*
X122779799Y-121033844D01*
X122960999Y-120921651D01*
X122986566Y-120898343D01*
X122986566Y-120898342D01*
X122482799Y-120394575D01*
X122521357Y-120376007D01*
X122620798Y-120283740D01*
X122659127Y-120217351D01*
X123162103Y-120720327D01*
X123246940Y-120607989D01*
X123246940Y-120607988D01*
X123341935Y-120417212D01*
X123341938Y-120417202D01*
X123400263Y-120212211D01*
X123419927Y-120000003D01*
X123419927Y-119999996D01*
X123400263Y-119787788D01*
X123341938Y-119582797D01*
X123341935Y-119582787D01*
X123246940Y-119392011D01*
X123246936Y-119392005D01*
X123162104Y-119279670D01*
X122661988Y-119779786D01*
X122659113Y-119772459D01*
X122574535Y-119666401D01*
X122483730Y-119604491D01*
X122986567Y-119101655D01*
X122960999Y-119078348D01*
X122779799Y-118966155D01*
X122779789Y-118966150D01*
X122581064Y-118889163D01*
X122371566Y-118850000D01*
X122158433Y-118850000D01*
X121948935Y-118889163D01*
X121750210Y-118966150D01*
X121750200Y-118966155D01*
X121569001Y-119078348D01*
X121569000Y-119078348D01*
X121543432Y-119101656D01*
X122047200Y-119605424D01*
X122008643Y-119623993D01*
X121909202Y-119716260D01*
X121870872Y-119782648D01*
X121367894Y-119279670D01*
X121283063Y-119392005D01*
X121283059Y-119392011D01*
X121188064Y-119582787D01*
X121188061Y-119582797D01*
X121129736Y-119787788D01*
X121110073Y-119999996D01*
X121110073Y-120000003D01*
X120775500Y-120000003D01*
X120775500Y-119085180D01*
X120766767Y-119041278D01*
X120733504Y-118991496D01*
X120683722Y-118958233D01*
X120639820Y-118949500D01*
X118810180Y-118949500D01*
X118788229Y-118953866D01*
X118766277Y-118958233D01*
X118716496Y-118991495D01*
X118716495Y-118991496D01*
X118683233Y-119041277D01*
X118683233Y-119041278D01*
X118674500Y-119085180D01*
X118674500Y-120914820D01*
X110000500Y-120914820D01*
X110000500Y-119085328D01*
X112342500Y-119085328D01*
X112348902Y-119144875D01*
X112348903Y-119144880D01*
X112399145Y-119279587D01*
X112399146Y-119279588D01*
X112485311Y-119394688D01*
X112600411Y-119480853D01*
X112600412Y-119480854D01*
X112735119Y-119531096D01*
X112735124Y-119531097D01*
X112794671Y-119537500D01*
X114267500Y-119537500D01*
X114267500Y-118976220D01*
X114353177Y-118987500D01*
X114431823Y-118987500D01*
X114517500Y-118976220D01*
X114517500Y-119537500D01*
X115990329Y-119537500D01*
X116049875Y-119531097D01*
X116049880Y-119531096D01*
X116184587Y-119480854D01*
X116184588Y-119480853D01*
X116299688Y-119394688D01*
X116385853Y-119279588D01*
X116385854Y-119279587D01*
X116436096Y-119144880D01*
X116436097Y-119144875D01*
X116442500Y-119085328D01*
X116442500Y-118512500D01*
X114981220Y-118512500D01*
X114997677Y-118387500D01*
X114981220Y-118262500D01*
X116442500Y-118262500D01*
X116442500Y-117689671D01*
X116436097Y-117630124D01*
X116436096Y-117630119D01*
X116385854Y-117495412D01*
X116385853Y-117495411D01*
X116299688Y-117380311D01*
X116184588Y-117294146D01*
X116184587Y-117294145D01*
X116049880Y-117243903D01*
X116049875Y-117243902D01*
X115990329Y-117237500D01*
X114517500Y-117237500D01*
X114517500Y-117798779D01*
X114431823Y-117787500D01*
X114353177Y-117787500D01*
X114267500Y-117798779D01*
X114267500Y-117237500D01*
X112794671Y-117237500D01*
X112735124Y-117243902D01*
X112735119Y-117243903D01*
X112600412Y-117294145D01*
X112600411Y-117294146D01*
X112485311Y-117380311D01*
X112399146Y-117495411D01*
X112399145Y-117495412D01*
X112348903Y-117630119D01*
X112348902Y-117630124D01*
X112342500Y-117689671D01*
X112342500Y-118262500D01*
X113803780Y-118262500D01*
X113787323Y-118387500D01*
X113803780Y-118512500D01*
X112342500Y-118512500D01*
X112342500Y-119085328D01*
X110000500Y-119085328D01*
X110000500Y-114577500D01*
X112436917Y-114577500D01*
X112457200Y-114783435D01*
X112474504Y-114840478D01*
X112509339Y-114955316D01*
X112517269Y-114981456D01*
X112614815Y-115163950D01*
X112743272Y-115320477D01*
X112746090Y-115323910D01*
X112906050Y-115455185D01*
X113088546Y-115552732D01*
X113286566Y-115612800D01*
X113440892Y-115628000D01*
X113440894Y-115628000D01*
X115344106Y-115628000D01*
X115344108Y-115628000D01*
X115498434Y-115612800D01*
X115696454Y-115552732D01*
X115878950Y-115455185D01*
X116038910Y-115323910D01*
X116170185Y-115163950D01*
X116267732Y-114981454D01*
X116327800Y-114783434D01*
X116348083Y-114577500D01*
X116327800Y-114371566D01*
X116267732Y-114173546D01*
X116170185Y-113991050D01*
X116038910Y-113831090D01*
X115878950Y-113699815D01*
X115696454Y-113602268D01*
X115562418Y-113561609D01*
X115498435Y-113542200D01*
X115446992Y-113537133D01*
X115344108Y-113527000D01*
X113440892Y-113527000D01*
X113363729Y-113534600D01*
X113286564Y-113542200D01*
X113088543Y-113602269D01*
X112906049Y-113699815D01*
X112746090Y-113831089D01*
X112746089Y-113831090D01*
X112614815Y-113991049D01*
X112517269Y-114173543D01*
X112457200Y-114371564D01*
X112436917Y-114577500D01*
X110000500Y-114577500D01*
X110000500Y-111540000D01*
X120244751Y-111540000D01*
X120263687Y-111708059D01*
X120263689Y-111708067D01*
X120319544Y-111867691D01*
X120409519Y-112010885D01*
X120409521Y-112010887D01*
X120409523Y-112010890D01*
X120529110Y-112130477D01*
X120529112Y-112130478D01*
X120529114Y-112130480D01*
X120597561Y-112173488D01*
X120672310Y-112220456D01*
X120752476Y-112248507D01*
X120814416Y-112270181D01*
X120831941Y-112276313D01*
X121000000Y-112295249D01*
X121168059Y-112276313D01*
X121327690Y-112220456D01*
X121470890Y-112130477D01*
X121590477Y-112010890D01*
X121680456Y-111867690D01*
X121736313Y-111708059D01*
X121755249Y-111540000D01*
X121736313Y-111371941D01*
X121680456Y-111212310D01*
X121590477Y-111069110D01*
X121470890Y-110949523D01*
X121470887Y-110949521D01*
X121470885Y-110949519D01*
X121327691Y-110859544D01*
X121168067Y-110803689D01*
X121168059Y-110803687D01*
X121000000Y-110784751D01*
X120831940Y-110803687D01*
X120831932Y-110803689D01*
X120672308Y-110859544D01*
X120529114Y-110949519D01*
X120409519Y-111069114D01*
X120319544Y-111212308D01*
X120263689Y-111371932D01*
X120263687Y-111371940D01*
X120244751Y-111540000D01*
X110000500Y-111540000D01*
X110000500Y-109125000D01*
X117618456Y-109125000D01*
X117623996Y-109177704D01*
X117679207Y-109347626D01*
X117768547Y-109502368D01*
X117888103Y-109635150D01*
X118032662Y-109740177D01*
X118032661Y-109740177D01*
X118195887Y-109812850D01*
X118195889Y-109812851D01*
X118335000Y-109842419D01*
X118335000Y-109327137D01*
X118401595Y-109350000D01*
X118489005Y-109350000D01*
X118575216Y-109335614D01*
X118585000Y-109330319D01*
X118585000Y-109842418D01*
X118724110Y-109812851D01*
X118724112Y-109812850D01*
X118887337Y-109740177D01*
X119031896Y-109635150D01*
X119151452Y-109502368D01*
X119240792Y-109347626D01*
X119296003Y-109177704D01*
X119301544Y-109125000D01*
X118787361Y-109125000D01*
X118803982Y-109087108D01*
X118807559Y-109043936D01*
X122585669Y-109043936D01*
X122616135Y-109216711D01*
X122685622Y-109377803D01*
X122685623Y-109377804D01*
X122790390Y-109518530D01*
X122790396Y-109518535D01*
X122924784Y-109631301D01*
X122924783Y-109631301D01*
X123012268Y-109675237D01*
X123081567Y-109710040D01*
X123252279Y-109750500D01*
X123783709Y-109750500D01*
X123914255Y-109735241D01*
X124079117Y-109675237D01*
X124225696Y-109578830D01*
X124346092Y-109451218D01*
X124433812Y-109299281D01*
X124484130Y-109131210D01*
X124494331Y-108956065D01*
X124463865Y-108783289D01*
X124394377Y-108622196D01*
X124289610Y-108481470D01*
X124289603Y-108481464D01*
X124155215Y-108368698D01*
X124155216Y-108368698D01*
X123998434Y-108289960D01*
X123998430Y-108289959D01*
X123827721Y-108249500D01*
X123296291Y-108249500D01*
X123165745Y-108264759D01*
X123165740Y-108264760D01*
X123000884Y-108324762D01*
X122854305Y-108421168D01*
X122733907Y-108548783D01*
X122646187Y-108700720D01*
X122595871Y-108868786D01*
X122595870Y-108868791D01*
X122585669Y-109043936D01*
X118807559Y-109043936D01*
X118813628Y-108970698D01*
X118789394Y-108875000D01*
X119301544Y-108875000D01*
X119301543Y-108874999D01*
X119296003Y-108822295D01*
X119240792Y-108652373D01*
X119151452Y-108497631D01*
X119031896Y-108364849D01*
X118887337Y-108259822D01*
X118887338Y-108259822D01*
X118724117Y-108187151D01*
X118724115Y-108187150D01*
X118585000Y-108157579D01*
X118585000Y-108672862D01*
X118518405Y-108650000D01*
X118430995Y-108650000D01*
X118344784Y-108664386D01*
X118335000Y-108669680D01*
X118335000Y-108157579D01*
X118334999Y-108157579D01*
X118195884Y-108187150D01*
X118195882Y-108187151D01*
X118032662Y-108259822D01*
X117888103Y-108364849D01*
X117768547Y-108497631D01*
X117679207Y-108652373D01*
X117623996Y-108822295D01*
X117618456Y-108874999D01*
X117618456Y-108875000D01*
X118132639Y-108875000D01*
X118116018Y-108912892D01*
X118106372Y-109029302D01*
X118130606Y-109125000D01*
X117618456Y-109125000D01*
X110000500Y-109125000D01*
X110000500Y-107227847D01*
X110017813Y-107180281D01*
X110061650Y-107154971D01*
X110111500Y-107163761D01*
X110130950Y-107181706D01*
X110131547Y-107181178D01*
X110134515Y-107184528D01*
X110134516Y-107184529D01*
X110134517Y-107184530D01*
X110252760Y-107289283D01*
X110392635Y-107362696D01*
X110546015Y-107400500D01*
X110546019Y-107400500D01*
X110703981Y-107400500D01*
X110703985Y-107400500D01*
X110857365Y-107362696D01*
X110997240Y-107289283D01*
X111115483Y-107184530D01*
X111205220Y-107054523D01*
X111206620Y-107050833D01*
X111250500Y-106935129D01*
X111261237Y-106906818D01*
X111271237Y-106824458D01*
X111280278Y-106750003D01*
X114219722Y-106750003D01*
X114238761Y-106906808D01*
X114238764Y-106906822D01*
X114294778Y-107054521D01*
X114384516Y-107184529D01*
X114384517Y-107184530D01*
X114502760Y-107289283D01*
X114642635Y-107362696D01*
X114796015Y-107400500D01*
X114796019Y-107400500D01*
X114953981Y-107400500D01*
X114953985Y-107400500D01*
X115107365Y-107362696D01*
X115247240Y-107289283D01*
X115365483Y-107184530D01*
X115455220Y-107054523D01*
X115456620Y-107050833D01*
X115500500Y-106935129D01*
X115511237Y-106906818D01*
X115521237Y-106824458D01*
X115530278Y-106750003D01*
X115530278Y-106749996D01*
X115511238Y-106593191D01*
X115511237Y-106593182D01*
X115496851Y-106555249D01*
X115455221Y-106445478D01*
X115365483Y-106315470D01*
X115322762Y-106277623D01*
X115247240Y-106210717D01*
X115119569Y-106143709D01*
X115107366Y-106137304D01*
X114953987Y-106099500D01*
X114953985Y-106099500D01*
X114796015Y-106099500D01*
X114796012Y-106099500D01*
X114642633Y-106137304D01*
X114502761Y-106210716D01*
X114384516Y-106315470D01*
X114294779Y-106445478D01*
X114294778Y-106445478D01*
X114238764Y-106593177D01*
X114238761Y-106593191D01*
X114219722Y-106749996D01*
X114219722Y-106750003D01*
X111280278Y-106750003D01*
X111280278Y-106749996D01*
X111261238Y-106593191D01*
X111261237Y-106593182D01*
X111246851Y-106555249D01*
X111205221Y-106445478D01*
X111115483Y-106315470D01*
X111072762Y-106277623D01*
X110997240Y-106210717D01*
X110869569Y-106143709D01*
X110857366Y-106137304D01*
X110703987Y-106099500D01*
X110703985Y-106099500D01*
X110546015Y-106099500D01*
X110546012Y-106099500D01*
X110392633Y-106137304D01*
X110252761Y-106210716D01*
X110134515Y-106315471D01*
X110131547Y-106318822D01*
X110130360Y-106317770D01*
X110094125Y-106343502D01*
X110043671Y-106339424D01*
X110007642Y-106303869D01*
X110000500Y-106272152D01*
X110000500Y-105674500D01*
X110017813Y-105626934D01*
X110061650Y-105601624D01*
X110074500Y-105600500D01*
X114267657Y-105600500D01*
X114267660Y-105600500D01*
X114399588Y-105570389D01*
X114521507Y-105511675D01*
X114627305Y-105427305D01*
X114711675Y-105321507D01*
X114770389Y-105199588D01*
X114800500Y-105067660D01*
X114800500Y-105000000D01*
X114800500Y-104999500D01*
X114800500Y-102250003D01*
X125719722Y-102250003D01*
X125738761Y-102406808D01*
X125738764Y-102406822D01*
X125794778Y-102554521D01*
X125884516Y-102684529D01*
X125884517Y-102684530D01*
X126002760Y-102789283D01*
X126142635Y-102862696D01*
X126296015Y-102900500D01*
X126296019Y-102900500D01*
X126453981Y-102900500D01*
X126453985Y-102900500D01*
X126607365Y-102862696D01*
X126747240Y-102789283D01*
X126865483Y-102684530D01*
X126955220Y-102554523D01*
X127011237Y-102406818D01*
X127030278Y-102250000D01*
X127011237Y-102093182D01*
X127003213Y-102072025D01*
X126955221Y-101945478D01*
X126865483Y-101815470D01*
X126747240Y-101710717D01*
X126735139Y-101704366D01*
X126607366Y-101637304D01*
X126453987Y-101599500D01*
X126453985Y-101599500D01*
X126296015Y-101599500D01*
X126296012Y-101599500D01*
X126142633Y-101637304D01*
X126002761Y-101710716D01*
X125884516Y-101815470D01*
X125794779Y-101945478D01*
X125794778Y-101945478D01*
X125738764Y-102093177D01*
X125738761Y-102093191D01*
X125719722Y-102249996D01*
X125719722Y-102250003D01*
X114800500Y-102250003D01*
X114800500Y-100074500D01*
X114817813Y-100026934D01*
X114861650Y-100001624D01*
X114874500Y-100000500D01*
X127125500Y-100000500D01*
X127173066Y-100017813D01*
G37*
%TD.AperFunction*%
%TA.AperFunction,Conductor*%
G36*
X131442654Y-115037313D02*
G01*
X131447414Y-115041674D01*
X131602826Y-115197086D01*
X131624218Y-115242962D01*
X131624500Y-115249412D01*
X131624500Y-115793325D01*
X131607187Y-115840891D01*
X131563350Y-115866201D01*
X131513500Y-115857411D01*
X131502934Y-115850012D01*
X131428618Y-115787653D01*
X131272810Y-115709403D01*
X131272072Y-115709135D01*
X131271768Y-115708880D01*
X131268964Y-115707472D01*
X131269297Y-115706807D01*
X131233297Y-115676596D01*
X131224509Y-115626746D01*
X131234727Y-115600228D01*
X131315002Y-115472472D01*
X131315004Y-115472467D01*
X131370820Y-115312955D01*
X131370822Y-115312947D01*
X131375661Y-115270000D01*
X130935362Y-115270000D01*
X130960000Y-115202306D01*
X130960000Y-115087694D01*
X130935362Y-115020000D01*
X131395088Y-115020000D01*
X131442654Y-115037313D01*
G37*
%TD.AperFunction*%
%TD*%
%TA.AperFunction,Conductor*%
%TO.N,/LED/LED-*%
G36*
X125062654Y-129917313D02*
G01*
X125067414Y-129921674D01*
X125971562Y-130825822D01*
X125992954Y-130871698D01*
X125992483Y-130888678D01*
X125985075Y-130940207D01*
X126003510Y-131068431D01*
X126003510Y-131068432D01*
X126003511Y-131068434D01*
X126057326Y-131186271D01*
X126142159Y-131284175D01*
X126251139Y-131354212D01*
X126321848Y-131374973D01*
X126362609Y-131404983D01*
X126375000Y-131445975D01*
X126375000Y-135514158D01*
X126373578Y-135528595D01*
X126358841Y-135602680D01*
X126347792Y-135629355D01*
X126305826Y-135692162D01*
X126296623Y-135703376D01*
X125953376Y-136046623D01*
X125942162Y-136055826D01*
X125879355Y-136097792D01*
X125852680Y-136108841D01*
X125778596Y-136123578D01*
X125764159Y-136125000D01*
X121057288Y-136125000D01*
X121042851Y-136123578D01*
X120968765Y-136108841D01*
X120942090Y-136097792D01*
X120885462Y-136059954D01*
X120865045Y-136039537D01*
X120827207Y-135982909D01*
X120816158Y-135956233D01*
X120801422Y-135882147D01*
X120800000Y-135867711D01*
X120800000Y-130157288D01*
X120801422Y-130142852D01*
X120816158Y-130068766D01*
X120816159Y-130068765D01*
X120816158Y-130068764D01*
X120827205Y-130042093D01*
X120865045Y-129985461D01*
X120885462Y-129965045D01*
X120942093Y-129927205D01*
X120968764Y-129916158D01*
X121015905Y-129906781D01*
X121042852Y-129901422D01*
X121057288Y-129900000D01*
X125015088Y-129900000D01*
X125062654Y-129917313D01*
G37*
%TD.AperFunction*%
%TD*%
%TA.AperFunction,Conductor*%
%TO.N,/LED/LED+*%
G36*
X120007148Y-129901422D02*
G01*
X120051363Y-129910216D01*
X120081233Y-129916158D01*
X120107909Y-129927207D01*
X120164537Y-129965045D01*
X120184954Y-129985462D01*
X120222792Y-130042090D01*
X120233841Y-130068765D01*
X120248578Y-130142851D01*
X120250000Y-130157288D01*
X120250000Y-135867711D01*
X120248578Y-135882148D01*
X120233841Y-135956234D01*
X120222792Y-135982909D01*
X120184954Y-136039537D01*
X120164537Y-136059954D01*
X120107909Y-136097792D01*
X120081234Y-136108841D01*
X120007149Y-136123578D01*
X119992712Y-136125000D01*
X116735841Y-136125000D01*
X116721404Y-136123578D01*
X116647319Y-136108841D01*
X116620644Y-136097792D01*
X116557837Y-136055826D01*
X116546623Y-136046623D01*
X116203376Y-135703376D01*
X116194173Y-135692162D01*
X116152207Y-135629355D01*
X116141158Y-135602679D01*
X116126422Y-135528594D01*
X116125000Y-135514158D01*
X116125000Y-130157288D01*
X116126422Y-130142852D01*
X116141158Y-130068766D01*
X116141159Y-130068765D01*
X116141158Y-130068764D01*
X116152205Y-130042093D01*
X116190045Y-129985461D01*
X116210462Y-129965045D01*
X116267093Y-129927205D01*
X116293764Y-129916158D01*
X116340905Y-129906781D01*
X116367852Y-129901422D01*
X116382288Y-129900000D01*
X119992712Y-129900000D01*
X120007148Y-129901422D01*
G37*
%TD.AperFunction*%
%TD*%
M02*
