%TF.GenerationSoftware,KiCad,Pcbnew,8.0.1*%
%TF.CreationDate,2024-06-22T11:42:11+02:00*%
%TF.ProjectId,night_light,6e696768-745f-46c6-9967-68742e6b6963,rev?*%
%TF.SameCoordinates,Original*%
%TF.FileFunction,Paste,Top*%
%TF.FilePolarity,Positive*%
%FSLAX46Y46*%
G04 Gerber Fmt 4.6, Leading zero omitted, Abs format (unit mm)*
G04 Created by KiCad (PCBNEW 8.0.1) date 2024-06-22 11:42:11*
%MOMM*%
%LPD*%
G01*
G04 APERTURE LIST*
G04 Aperture macros list*
%AMRoundRect*
0 Rectangle with rounded corners*
0 $1 Rounding radius*
0 $2 $3 $4 $5 $6 $7 $8 $9 X,Y pos of 4 corners*
0 Add a 4 corners polygon primitive as box body*
4,1,4,$2,$3,$4,$5,$6,$7,$8,$9,$2,$3,0*
0 Add four circle primitives for the rounded corners*
1,1,$1+$1,$2,$3*
1,1,$1+$1,$4,$5*
1,1,$1+$1,$6,$7*
1,1,$1+$1,$8,$9*
0 Add four rect primitives between the rounded corners*
20,1,$1+$1,$2,$3,$4,$5,0*
20,1,$1+$1,$4,$5,$6,$7,0*
20,1,$1+$1,$6,$7,$8,$9,0*
20,1,$1+$1,$8,$9,$2,$3,0*%
G04 Aperture macros list end*
%ADD10RoundRect,0.250000X0.250000X0.475000X-0.250000X0.475000X-0.250000X-0.475000X0.250000X-0.475000X0*%
%ADD11RoundRect,0.200000X-0.275000X0.200000X-0.275000X-0.200000X0.275000X-0.200000X0.275000X0.200000X0*%
%ADD12RoundRect,0.250000X-1.075000X0.375000X-1.075000X-0.375000X1.075000X-0.375000X1.075000X0.375000X0*%
%ADD13RoundRect,0.225000X-0.250000X0.225000X-0.250000X-0.225000X0.250000X-0.225000X0.250000X0.225000X0*%
%ADD14RoundRect,0.200000X-0.200000X-0.275000X0.200000X-0.275000X0.200000X0.275000X-0.200000X0.275000X0*%
%ADD15RoundRect,0.250000X0.300000X-0.750000X0.300000X0.750000X-0.300000X0.750000X-0.300000X-0.750000X0*%
%ADD16RoundRect,0.200000X0.350000X-0.200000X0.350000X0.200000X-0.350000X0.200000X-0.350000X-0.200000X0*%
%ADD17RoundRect,0.250000X-0.300000X0.750000X-0.300000X-0.750000X0.300000X-0.750000X0.300000X0.750000X0*%
%ADD18RoundRect,0.200000X-0.350000X0.200000X-0.350000X-0.200000X0.350000X-0.200000X0.350000X0.200000X0*%
%ADD19RoundRect,0.250000X-0.450000X0.262500X-0.450000X-0.262500X0.450000X-0.262500X0.450000X0.262500X0*%
%ADD20RoundRect,0.200000X0.275000X-0.200000X0.275000X0.200000X-0.275000X0.200000X-0.275000X-0.200000X0*%
%ADD21RoundRect,0.250000X-1.000000X-0.650000X1.000000X-0.650000X1.000000X0.650000X-1.000000X0.650000X0*%
%ADD22RoundRect,0.200000X0.200000X0.275000X-0.200000X0.275000X-0.200000X-0.275000X0.200000X-0.275000X0*%
%ADD23RoundRect,0.150000X-0.587500X-0.150000X0.587500X-0.150000X0.587500X0.150000X-0.587500X0.150000X0*%
%ADD24RoundRect,0.225000X0.225000X0.250000X-0.225000X0.250000X-0.225000X-0.250000X0.225000X-0.250000X0*%
%ADD25RoundRect,0.250000X-0.375000X-1.075000X0.375000X-1.075000X0.375000X1.075000X-0.375000X1.075000X0*%
%ADD26RoundRect,0.250000X-0.650000X0.325000X-0.650000X-0.325000X0.650000X-0.325000X0.650000X0.325000X0*%
%ADD27RoundRect,0.250000X-0.475000X0.250000X-0.475000X-0.250000X0.475000X-0.250000X0.475000X0.250000X0*%
%ADD28RoundRect,0.150000X0.150000X-0.825000X0.150000X0.825000X-0.150000X0.825000X-0.150000X-0.825000X0*%
%ADD29RoundRect,0.225000X0.250000X-0.225000X0.250000X0.225000X-0.250000X0.225000X-0.250000X-0.225000X0*%
%ADD30RoundRect,0.150000X-0.150000X0.512500X-0.150000X-0.512500X0.150000X-0.512500X0.150000X0.512500X0*%
%ADD31RoundRect,0.150000X0.150000X-0.512500X0.150000X0.512500X-0.150000X0.512500X-0.150000X-0.512500X0*%
%ADD32RoundRect,0.200000X-0.200000X-0.800000X0.200000X-0.800000X0.200000X0.800000X-0.200000X0.800000X0*%
%ADD33RoundRect,0.250001X0.624999X-0.462499X0.624999X0.462499X-0.624999X0.462499X-0.624999X-0.462499X0*%
%ADD34RoundRect,0.250000X-0.412500X-0.925000X0.412500X-0.925000X0.412500X0.925000X-0.412500X0.925000X0*%
%ADD35RoundRect,0.150000X0.512500X0.150000X-0.512500X0.150000X-0.512500X-0.150000X0.512500X-0.150000X0*%
G04 APERTURE END LIST*
D10*
%TO.C,C3*%
X125950000Y-104000000D03*
X124050000Y-104000000D03*
%TD*%
D11*
%TO.C,R1*%
X117875000Y-100675000D03*
X117875000Y-102325000D03*
%TD*%
D12*
%TO.C,L2*%
X120125000Y-136350000D03*
X120125000Y-139150000D03*
%TD*%
D13*
%TO.C,C13*%
X124000000Y-116475000D03*
X124000000Y-118025000D03*
%TD*%
D10*
%TO.C,C5*%
X117575000Y-134125000D03*
X115675000Y-134125000D03*
%TD*%
D13*
%TO.C,C7*%
X115925000Y-129725000D03*
X115925000Y-131275000D03*
%TD*%
D11*
%TO.C,R10*%
X131250000Y-128550000D03*
X131250000Y-130200000D03*
%TD*%
D14*
%TO.C,R3*%
X123550000Y-100750000D03*
X125200000Y-100750000D03*
%TD*%
D15*
%TO.C,D3*%
X117625000Y-137350000D03*
D16*
X117625000Y-139250000D03*
%TD*%
D17*
%TO.C,D5*%
X121125000Y-124150000D03*
D18*
X121125000Y-122250000D03*
%TD*%
D19*
%TO.C,R4*%
X126250000Y-136837500D03*
X126250000Y-138662500D03*
%TD*%
D20*
%TO.C,R9*%
X129750000Y-130200000D03*
X129750000Y-128550000D03*
%TD*%
D21*
%TO.C,D1*%
X119500000Y-114000000D03*
X123500000Y-114000000D03*
%TD*%
D10*
%TO.C,C12*%
X125950000Y-106000000D03*
X124050000Y-106000000D03*
%TD*%
D13*
%TO.C,C15*%
X125750000Y-118650000D03*
X125750000Y-120200000D03*
%TD*%
D22*
%TO.C,R14*%
X121825000Y-109750000D03*
X120175000Y-109750000D03*
%TD*%
D13*
%TO.C,C17*%
X128250000Y-128600000D03*
X128250000Y-130150000D03*
%TD*%
D23*
%TO.C,Q1*%
X123062500Y-122550000D03*
X123062500Y-124450000D03*
X124937500Y-123500000D03*
%TD*%
D11*
%TO.C,R11*%
X122500000Y-116425000D03*
X122500000Y-118075000D03*
%TD*%
D24*
%TO.C,C10*%
X121775000Y-108250000D03*
X120225000Y-108250000D03*
%TD*%
D25*
%TO.C,L1*%
X119600000Y-105125000D03*
X122400000Y-105125000D03*
%TD*%
D11*
%TO.C,R5*%
X117825000Y-129675000D03*
X117825000Y-131325000D03*
%TD*%
D26*
%TO.C,C1*%
X116000000Y-100900000D03*
X116000000Y-103850000D03*
%TD*%
D11*
%TO.C,R13*%
X129750000Y-125550000D03*
X129750000Y-127200000D03*
%TD*%
D20*
%TO.C,R6*%
X117825000Y-124075000D03*
X117825000Y-122425000D03*
%TD*%
%TO.C,R8*%
X128250000Y-127200000D03*
X128250000Y-125550000D03*
%TD*%
D27*
%TO.C,C6*%
X115750000Y-136800000D03*
X115750000Y-138700000D03*
%TD*%
D28*
%TO.C,U5*%
X127345000Y-123600000D03*
X128615000Y-123600000D03*
X129885000Y-123600000D03*
X131155000Y-123600000D03*
X131155000Y-118650000D03*
X129885000Y-118650000D03*
X128615000Y-118650000D03*
X127345000Y-118650000D03*
%TD*%
D29*
%TO.C,C9*%
X119500000Y-124650000D03*
X119500000Y-123100000D03*
%TD*%
%TO.C,C8*%
X115925000Y-124000000D03*
X115925000Y-122450000D03*
%TD*%
D13*
%TO.C,C4*%
X118750000Y-116475000D03*
X118750000Y-118025000D03*
%TD*%
D29*
%TO.C,C14*%
X121000000Y-118025000D03*
X121000000Y-116475000D03*
%TD*%
D30*
%TO.C,U3*%
X117825000Y-125737500D03*
X116875000Y-125737500D03*
X115925000Y-125737500D03*
X115925000Y-128012500D03*
X117825000Y-128012500D03*
%TD*%
D31*
%TO.C,U2*%
X122550000Y-138887500D03*
X123500000Y-138887500D03*
X124450000Y-138887500D03*
X124450000Y-136612500D03*
X123500000Y-136612500D03*
X122550000Y-136612500D03*
%TD*%
D22*
%TO.C,R2*%
X125200000Y-102250000D03*
X123550000Y-102250000D03*
%TD*%
D29*
%TO.C,C16*%
X126750000Y-127150000D03*
X126750000Y-125600000D03*
%TD*%
D32*
%TO.C,SW1*%
X127150000Y-132625000D03*
X131350000Y-132625000D03*
%TD*%
D33*
%TO.C,F1*%
X111500000Y-109987500D03*
X111500000Y-107012500D03*
%TD*%
D34*
%TO.C,C18*%
X121712500Y-127250000D03*
X124787500Y-127250000D03*
%TD*%
D20*
%TO.C,R7*%
X126750000Y-130200000D03*
X126750000Y-128550000D03*
%TD*%
D29*
%TO.C,C2*%
X117875000Y-105275000D03*
X117875000Y-103725000D03*
%TD*%
D35*
%TO.C,U1*%
X121887500Y-102700000D03*
X121887500Y-101750000D03*
X121887500Y-100800000D03*
X119612500Y-100800000D03*
X119612500Y-101750000D03*
X119612500Y-102700000D03*
%TD*%
M02*
