%TF.GenerationSoftware,KiCad,Pcbnew,8.0.1*%
%TF.CreationDate,2024-06-22T11:42:11+02:00*%
%TF.ProjectId,night_light,6e696768-745f-46c6-9967-68742e6b6963,rev?*%
%TF.SameCoordinates,Original*%
%TF.FileFunction,Copper,L1,Top*%
%TF.FilePolarity,Positive*%
%FSLAX46Y46*%
G04 Gerber Fmt 4.6, Leading zero omitted, Abs format (unit mm)*
G04 Created by KiCad (PCBNEW 8.0.1) date 2024-06-22 11:42:11*
%MOMM*%
%LPD*%
G01*
G04 APERTURE LIST*
G04 Aperture macros list*
%AMRoundRect*
0 Rectangle with rounded corners*
0 $1 Rounding radius*
0 $2 $3 $4 $5 $6 $7 $8 $9 X,Y pos of 4 corners*
0 Add a 4 corners polygon primitive as box body*
4,1,4,$2,$3,$4,$5,$6,$7,$8,$9,$2,$3,0*
0 Add four circle primitives for the rounded corners*
1,1,$1+$1,$2,$3*
1,1,$1+$1,$4,$5*
1,1,$1+$1,$6,$7*
1,1,$1+$1,$8,$9*
0 Add four rect primitives between the rounded corners*
20,1,$1+$1,$2,$3,$4,$5,0*
20,1,$1+$1,$4,$5,$6,$7,0*
20,1,$1+$1,$6,$7,$8,$9,0*
20,1,$1+$1,$8,$9,$2,$3,0*%
G04 Aperture macros list end*
%TA.AperFunction,SMDPad,CuDef*%
%ADD10RoundRect,0.250000X0.250000X0.475000X-0.250000X0.475000X-0.250000X-0.475000X0.250000X-0.475000X0*%
%TD*%
%TA.AperFunction,SMDPad,CuDef*%
%ADD11RoundRect,0.200000X-0.275000X0.200000X-0.275000X-0.200000X0.275000X-0.200000X0.275000X0.200000X0*%
%TD*%
%TA.AperFunction,SMDPad,CuDef*%
%ADD12RoundRect,0.250000X-1.075000X0.375000X-1.075000X-0.375000X1.075000X-0.375000X1.075000X0.375000X0*%
%TD*%
%TA.AperFunction,SMDPad,CuDef*%
%ADD13RoundRect,0.225000X-0.250000X0.225000X-0.250000X-0.225000X0.250000X-0.225000X0.250000X0.225000X0*%
%TD*%
%TA.AperFunction,SMDPad,CuDef*%
%ADD14RoundRect,0.200000X-0.200000X-0.275000X0.200000X-0.275000X0.200000X0.275000X-0.200000X0.275000X0*%
%TD*%
%TA.AperFunction,SMDPad,CuDef*%
%ADD15RoundRect,0.250000X0.300000X-0.750000X0.300000X0.750000X-0.300000X0.750000X-0.300000X-0.750000X0*%
%TD*%
%TA.AperFunction,SMDPad,CuDef*%
%ADD16RoundRect,0.200000X0.350000X-0.200000X0.350000X0.200000X-0.350000X0.200000X-0.350000X-0.200000X0*%
%TD*%
%TA.AperFunction,SMDPad,CuDef*%
%ADD17RoundRect,0.250000X-0.300000X0.750000X-0.300000X-0.750000X0.300000X-0.750000X0.300000X0.750000X0*%
%TD*%
%TA.AperFunction,SMDPad,CuDef*%
%ADD18RoundRect,0.200000X-0.350000X0.200000X-0.350000X-0.200000X0.350000X-0.200000X0.350000X0.200000X0*%
%TD*%
%TA.AperFunction,SMDPad,CuDef*%
%ADD19RoundRect,0.250000X-0.450000X0.262500X-0.450000X-0.262500X0.450000X-0.262500X0.450000X0.262500X0*%
%TD*%
%TA.AperFunction,SMDPad,CuDef*%
%ADD20RoundRect,0.200000X0.275000X-0.200000X0.275000X0.200000X-0.275000X0.200000X-0.275000X-0.200000X0*%
%TD*%
%TA.AperFunction,SMDPad,CuDef*%
%ADD21RoundRect,0.250000X-1.000000X-0.650000X1.000000X-0.650000X1.000000X0.650000X-1.000000X0.650000X0*%
%TD*%
%TA.AperFunction,SMDPad,CuDef*%
%ADD22RoundRect,0.200000X0.200000X0.275000X-0.200000X0.275000X-0.200000X-0.275000X0.200000X-0.275000X0*%
%TD*%
%TA.AperFunction,ComponentPad*%
%ADD23RoundRect,0.250000X1.550000X-0.650000X1.550000X0.650000X-1.550000X0.650000X-1.550000X-0.650000X0*%
%TD*%
%TA.AperFunction,ComponentPad*%
%ADD24O,3.600000X1.800000*%
%TD*%
%TA.AperFunction,SMDPad,CuDef*%
%ADD25RoundRect,0.150000X-0.587500X-0.150000X0.587500X-0.150000X0.587500X0.150000X-0.587500X0.150000X0*%
%TD*%
%TA.AperFunction,SMDPad,CuDef*%
%ADD26RoundRect,0.225000X0.225000X0.250000X-0.225000X0.250000X-0.225000X-0.250000X0.225000X-0.250000X0*%
%TD*%
%TA.AperFunction,SMDPad,CuDef*%
%ADD27RoundRect,0.250000X-0.375000X-1.075000X0.375000X-1.075000X0.375000X1.075000X-0.375000X1.075000X0*%
%TD*%
%TA.AperFunction,SMDPad,CuDef*%
%ADD28RoundRect,0.250000X-0.650000X0.325000X-0.650000X-0.325000X0.650000X-0.325000X0.650000X0.325000X0*%
%TD*%
%TA.AperFunction,ComponentPad*%
%ADD29RoundRect,0.250000X-0.625000X0.350000X-0.625000X-0.350000X0.625000X-0.350000X0.625000X0.350000X0*%
%TD*%
%TA.AperFunction,ComponentPad*%
%ADD30O,1.750000X1.200000*%
%TD*%
%TA.AperFunction,SMDPad,CuDef*%
%ADD31RoundRect,0.250000X-0.475000X0.250000X-0.475000X-0.250000X0.475000X-0.250000X0.475000X0.250000X0*%
%TD*%
%TA.AperFunction,SMDPad,CuDef*%
%ADD32RoundRect,0.150000X0.150000X-0.825000X0.150000X0.825000X-0.150000X0.825000X-0.150000X-0.825000X0*%
%TD*%
%TA.AperFunction,ComponentPad*%
%ADD33R,1.000000X1.000000*%
%TD*%
%TA.AperFunction,ComponentPad*%
%ADD34O,1.000000X1.000000*%
%TD*%
%TA.AperFunction,SMDPad,CuDef*%
%ADD35RoundRect,0.225000X0.250000X-0.225000X0.250000X0.225000X-0.250000X0.225000X-0.250000X-0.225000X0*%
%TD*%
%TA.AperFunction,SMDPad,CuDef*%
%ADD36RoundRect,0.150000X-0.150000X0.512500X-0.150000X-0.512500X0.150000X-0.512500X0.150000X0.512500X0*%
%TD*%
%TA.AperFunction,SMDPad,CuDef*%
%ADD37RoundRect,0.150000X0.150000X-0.512500X0.150000X0.512500X-0.150000X0.512500X-0.150000X-0.512500X0*%
%TD*%
%TA.AperFunction,SMDPad,CuDef*%
%ADD38RoundRect,0.200000X-0.200000X-0.800000X0.200000X-0.800000X0.200000X0.800000X-0.200000X0.800000X0*%
%TD*%
%TA.AperFunction,ComponentPad*%
%ADD39C,1.600000*%
%TD*%
%TA.AperFunction,SMDPad,CuDef*%
%ADD40RoundRect,0.250001X0.624999X-0.462499X0.624999X0.462499X-0.624999X0.462499X-0.624999X-0.462499X0*%
%TD*%
%TA.AperFunction,SMDPad,CuDef*%
%ADD41RoundRect,0.250000X-0.412500X-0.925000X0.412500X-0.925000X0.412500X0.925000X-0.412500X0.925000X0*%
%TD*%
%TA.AperFunction,SMDPad,CuDef*%
%ADD42RoundRect,0.150000X0.512500X0.150000X-0.512500X0.150000X-0.512500X-0.150000X0.512500X-0.150000X0*%
%TD*%
%TA.AperFunction,ComponentPad*%
%ADD43C,1.000000*%
%TD*%
%TA.AperFunction,ComponentPad*%
%ADD44R,1.800000X1.800000*%
%TD*%
%TA.AperFunction,ComponentPad*%
%ADD45C,1.800000*%
%TD*%
%TA.AperFunction,ComponentPad*%
%ADD46O,1.600000X1.200000*%
%TD*%
%TA.AperFunction,ComponentPad*%
%ADD47O,1.200000X1.200000*%
%TD*%
%TA.AperFunction,ViaPad*%
%ADD48C,0.600000*%
%TD*%
%TA.AperFunction,ViaPad*%
%ADD49C,0.500000*%
%TD*%
%TA.AperFunction,ViaPad*%
%ADD50C,0.800000*%
%TD*%
%TA.AperFunction,Conductor*%
%ADD51C,0.200000*%
%TD*%
%TA.AperFunction,Conductor*%
%ADD52C,0.500000*%
%TD*%
%TA.AperFunction,Conductor*%
%ADD53C,0.250000*%
%TD*%
%TA.AperFunction,Conductor*%
%ADD54C,0.400000*%
%TD*%
%TA.AperFunction,Conductor*%
%ADD55C,1.000000*%
%TD*%
G04 APERTURE END LIST*
D10*
%TO.P,C3,1*%
%TO.N,GND*%
X125950000Y-104000000D03*
%TO.P,C3,2*%
%TO.N,+5V*%
X124050000Y-104000000D03*
%TD*%
D11*
%TO.P,R1,1*%
%TO.N,/voltage regulator/EN*%
X117875000Y-100675000D03*
%TO.P,R1,2*%
%TO.N,+24V*%
X117875000Y-102325000D03*
%TD*%
D12*
%TO.P,L2,1,1*%
%TO.N,VCC*%
X120125000Y-136350000D03*
%TO.P,L2,2,2*%
%TO.N,/LED/SW*%
X120125000Y-139150000D03*
%TD*%
D13*
%TO.P,C13,1*%
%TO.N,GND*%
X124000000Y-116475000D03*
%TO.P,C13,2*%
%TO.N,/ALS*%
X124000000Y-118025000D03*
%TD*%
D10*
%TO.P,C5,1*%
%TO.N,VCC*%
X117575000Y-134125000D03*
%TO.P,C5,2*%
%TO.N,GND*%
X115675000Y-134125000D03*
%TD*%
D13*
%TO.P,C7,1*%
%TO.N,+5V*%
X115925000Y-129725000D03*
%TO.P,C7,2*%
%TO.N,GND*%
X115925000Y-131275000D03*
%TD*%
D11*
%TO.P,R10,1*%
%TO.N,VCC*%
X131250000Y-128550000D03*
%TO.P,R10,2*%
%TO.N,Net-(R10-Pad2)*%
X131250000Y-130200000D03*
%TD*%
D14*
%TO.P,R3,1*%
%TO.N,/voltage regulator/FB*%
X123550000Y-100750000D03*
%TO.P,R3,2*%
%TO.N,GND*%
X125200000Y-100750000D03*
%TD*%
D15*
%TO.P,D3,1,K*%
%TO.N,/LED/LED+*%
X117625000Y-137350000D03*
D16*
%TO.P,D3,2,A*%
%TO.N,/LED/SW*%
X117625000Y-139250000D03*
%TD*%
D17*
%TO.P,D5,1,K*%
%TO.N,VCC*%
X121125000Y-124150000D03*
D18*
%TO.P,D5,2,A*%
%TO.N,+5V*%
X121125000Y-122250000D03*
%TD*%
D19*
%TO.P,R4,1*%
%TO.N,/LED/LED-*%
X126250000Y-136837500D03*
%TO.P,R4,2*%
%TO.N,GND*%
X126250000Y-138662500D03*
%TD*%
D20*
%TO.P,R9,1*%
%TO.N,Net-(R10-Pad2)*%
X129750000Y-130200000D03*
%TO.P,R9,2*%
%TO.N,/MCU/PB4*%
X129750000Y-128550000D03*
%TD*%
D21*
%TO.P,D1,1,K*%
%TO.N,/Input/Vin*%
X119500000Y-114000000D03*
%TO.P,D1,2,A*%
%TO.N,GND*%
X123500000Y-114000000D03*
%TD*%
D10*
%TO.P,C12,1*%
%TO.N,GND*%
X125950000Y-106000000D03*
%TO.P,C12,2*%
%TO.N,+5V*%
X124050000Y-106000000D03*
%TD*%
D13*
%TO.P,C15,1*%
%TO.N,VCC*%
X125750000Y-118650000D03*
%TO.P,C15,2*%
%TO.N,GND*%
X125750000Y-120200000D03*
%TD*%
D22*
%TO.P,R14,1*%
%TO.N,/MCU/PB1*%
X121825000Y-109750000D03*
%TO.P,R14,2*%
%TO.N,/PIR*%
X120175000Y-109750000D03*
%TD*%
D13*
%TO.P,C17,1*%
%TO.N,/MCU/PB4*%
X128250000Y-128600000D03*
%TO.P,C17,2*%
%TO.N,GND*%
X128250000Y-130150000D03*
%TD*%
D23*
%TO.P,J2,1,Pin_1*%
%TO.N,GND*%
X114392500Y-118387500D03*
D24*
%TO.P,J2,2,Pin_2*%
%TO.N,/Input/Vin*%
X114392500Y-114577500D03*
%TD*%
D25*
%TO.P,Q1,1,G*%
%TO.N,+5V*%
X123062500Y-122550000D03*
%TO.P,Q1,2,S*%
%TO.N,VCC*%
X123062500Y-124450000D03*
%TO.P,Q1,3,D*%
%TO.N,+BATT*%
X124937500Y-123500000D03*
%TD*%
D11*
%TO.P,R11,1*%
%TO.N,GND*%
X122500000Y-116425000D03*
%TO.P,R11,2*%
%TO.N,/ALS*%
X122500000Y-118075000D03*
%TD*%
D26*
%TO.P,C10,1*%
%TO.N,VCC*%
X121775000Y-108250000D03*
%TO.P,C10,2*%
%TO.N,GND*%
X120225000Y-108250000D03*
%TD*%
D27*
%TO.P,L1,1,1*%
%TO.N,/voltage regulator/SW*%
X119600000Y-105125000D03*
%TO.P,L1,2,2*%
%TO.N,+5V*%
X122400000Y-105125000D03*
%TD*%
D11*
%TO.P,R5,1*%
%TO.N,/battery/PROG*%
X117825000Y-129675000D03*
%TO.P,R5,2*%
%TO.N,GND*%
X117825000Y-131325000D03*
%TD*%
D28*
%TO.P,C1,1*%
%TO.N,GND*%
X116000000Y-100900000D03*
%TO.P,C1,2*%
%TO.N,+24V*%
X116000000Y-103850000D03*
%TD*%
D11*
%TO.P,R13,1*%
%TO.N,/MCU/PB2*%
X129750000Y-125550000D03*
%TO.P,R13,2*%
%TO.N,/V_{SEN}*%
X129750000Y-127200000D03*
%TD*%
D20*
%TO.P,R6,1*%
%TO.N,/STAT*%
X117825000Y-124075000D03*
%TO.P,R6,2*%
%TO.N,Net-(D4-K)*%
X117825000Y-122425000D03*
%TD*%
D29*
%TO.P,J3,1,+*%
%TO.N,+BATT*%
X112925000Y-124000000D03*
D30*
%TO.P,J3,2,-*%
%TO.N,GND*%
X112925000Y-126000000D03*
%TD*%
D20*
%TO.P,R8,1*%
%TO.N,/V_{SEN}*%
X128250000Y-127200000D03*
%TO.P,R8,2*%
%TO.N,GND*%
X128250000Y-125550000D03*
%TD*%
D31*
%TO.P,C6,1*%
%TO.N,/LED/LED+*%
X115750000Y-136800000D03*
%TO.P,C6,2*%
%TO.N,GND*%
X115750000Y-138700000D03*
%TD*%
D32*
%TO.P,U5,1,~{RESET}/PB5*%
%TO.N,/MCU/PB5*%
X127345000Y-123600000D03*
%TO.P,U5,2,PB3*%
%TO.N,/ALS*%
X128615000Y-123600000D03*
%TO.P,U5,3,PB4*%
%TO.N,/MCU/PB4*%
X129885000Y-123600000D03*
%TO.P,U5,4,GND*%
%TO.N,GND*%
X131155000Y-123600000D03*
%TO.P,U5,5,PB0*%
%TO.N,/EN*%
X131155000Y-118650000D03*
%TO.P,U5,6,PB1*%
%TO.N,/MCU/PB1*%
X129885000Y-118650000D03*
%TO.P,U5,7,PB2*%
%TO.N,/MCU/PB2*%
X128615000Y-118650000D03*
%TO.P,U5,8,VCC*%
%TO.N,VCC*%
X127345000Y-118650000D03*
%TD*%
D33*
%TO.P,J4,1,MISO*%
%TO.N,/MCU/PB1*%
X129365000Y-112605000D03*
D34*
%TO.P,J4,2,VCC*%
%TO.N,VCC*%
X130635000Y-112605000D03*
%TO.P,J4,3,SCK*%
%TO.N,/MCU/PB2*%
X129365000Y-113875000D03*
%TO.P,J4,4,MOSI*%
%TO.N,/EN*%
X130635000Y-113875000D03*
%TO.P,J4,5,~{RST}*%
%TO.N,/MCU/PB5*%
X129365000Y-115145000D03*
%TO.P,J4,6,GND*%
%TO.N,GND*%
X130635000Y-115145000D03*
%TD*%
D35*
%TO.P,C9,1*%
%TO.N,VCC*%
X119500000Y-124650000D03*
%TO.P,C9,2*%
%TO.N,GND*%
X119500000Y-123100000D03*
%TD*%
%TO.P,C8,1*%
%TO.N,+BATT*%
X115925000Y-124000000D03*
%TO.P,C8,2*%
%TO.N,GND*%
X115925000Y-122450000D03*
%TD*%
D13*
%TO.P,C4,1*%
%TO.N,/Input/Vin*%
X118750000Y-116475000D03*
%TO.P,C4,2*%
%TO.N,GND*%
X118750000Y-118025000D03*
%TD*%
D35*
%TO.P,C14,1*%
%TO.N,VCC*%
X121000000Y-118025000D03*
%TO.P,C14,2*%
%TO.N,GND*%
X121000000Y-116475000D03*
%TD*%
D36*
%TO.P,U3,1,STAT*%
%TO.N,/STAT*%
X117825000Y-125737500D03*
%TO.P,U3,2,VSS*%
%TO.N,GND*%
X116875000Y-125737500D03*
%TO.P,U3,3,VBAT*%
%TO.N,+BATT*%
X115925000Y-125737500D03*
%TO.P,U3,4,VDD*%
%TO.N,+5V*%
X115925000Y-128012500D03*
%TO.P,U3,5,PROG*%
%TO.N,/battery/PROG*%
X117825000Y-128012500D03*
%TD*%
D37*
%TO.P,U2,1,SW*%
%TO.N,/LED/SW*%
X122550000Y-138887500D03*
%TO.P,U2,2,GND*%
%TO.N,GND*%
X123500000Y-138887500D03*
%TO.P,U2,3,FB*%
%TO.N,/LED/LED-*%
X124450000Y-138887500D03*
%TO.P,U2,4,EN*%
%TO.N,/EN*%
X124450000Y-136612500D03*
%TO.P,U2,5,OV*%
%TO.N,/LED/LED+*%
X123500000Y-136612500D03*
%TO.P,U2,6,VIN*%
%TO.N,VCC*%
X122550000Y-136612500D03*
%TD*%
D22*
%TO.P,R2,1*%
%TO.N,+5V*%
X125200000Y-102250000D03*
%TO.P,R2,2*%
%TO.N,/voltage regulator/FB*%
X123550000Y-102250000D03*
%TD*%
D35*
%TO.P,C16,1*%
%TO.N,/V_{SEN}*%
X126750000Y-127150000D03*
%TO.P,C16,2*%
%TO.N,GND*%
X126750000Y-125600000D03*
%TD*%
D38*
%TO.P,SW1,1,1*%
%TO.N,GND*%
X127150000Y-132625000D03*
%TO.P,SW1,2,2*%
%TO.N,Net-(R10-Pad2)*%
X131350000Y-132625000D03*
%TD*%
D39*
%TO.P,C11,1*%
%TO.N,+24V*%
X113750000Y-107012500D03*
%TO.P,C11,2*%
%TO.N,GND*%
X113750000Y-109512500D03*
%TD*%
D40*
%TO.P,F1,1*%
%TO.N,/Input/Vin*%
X111500000Y-109987500D03*
%TO.P,F1,2*%
%TO.N,+24V*%
X111500000Y-107012500D03*
%TD*%
D41*
%TO.P,C18,1*%
%TO.N,VCC*%
X121712500Y-127250000D03*
%TO.P,C18,2*%
%TO.N,GND*%
X124787500Y-127250000D03*
%TD*%
D20*
%TO.P,R7,1*%
%TO.N,+5V*%
X126750000Y-130200000D03*
%TO.P,R7,2*%
%TO.N,/V_{SEN}*%
X126750000Y-128550000D03*
%TD*%
D35*
%TO.P,C2,1*%
%TO.N,/voltage regulator/BST*%
X117875000Y-105275000D03*
%TO.P,C2,2*%
%TO.N,/voltage regulator/SW*%
X117875000Y-103725000D03*
%TD*%
D42*
%TO.P,U1,1,BOOST*%
%TO.N,/voltage regulator/BST*%
X121887500Y-102700000D03*
%TO.P,U1,2,GND*%
%TO.N,GND*%
X121887500Y-101750000D03*
%TO.P,U1,3,VFB*%
%TO.N,/voltage regulator/FB*%
X121887500Y-100800000D03*
%TO.P,U1,4,EN*%
%TO.N,/voltage regulator/EN*%
X119612500Y-100800000D03*
%TO.P,U1,5,VIN*%
%TO.N,+24V*%
X119612500Y-101750000D03*
%TO.P,U1,6,SW*%
%TO.N,/voltage regulator/SW*%
X119612500Y-102700000D03*
%TD*%
D43*
%TO.P,TP4,1,1*%
%TO.N,/LED/LED+*%
X116625000Y-135625000D03*
%TD*%
%TO.P,TP5,1,1*%
%TO.N,/LED/LED-*%
X125875000Y-135625000D03*
%TD*%
D44*
%TO.P,D6,1,K*%
%TO.N,VCC*%
X119725000Y-120000000D03*
D45*
%TO.P,D6,2,A*%
%TO.N,/ALS*%
X122265000Y-120000000D03*
%TD*%
D46*
%TO.P,J1,1,Pin_1*%
%TO.N,VCC*%
X123540000Y-109000000D03*
D47*
%TO.P,J1,2,Pin_2*%
%TO.N,/PIR*%
X121000000Y-111540000D03*
%TO.P,J1,3,Pin_3*%
%TO.N,GND*%
X118460000Y-109000000D03*
%TD*%
D43*
%TO.P,TP3,1,1*%
%TO.N,+5V*%
X126375000Y-102250000D03*
%TD*%
%TO.P,TP6,1,1*%
%TO.N,VCC*%
X125750000Y-124625000D03*
%TD*%
D48*
%TO.N,GND*%
X125000000Y-125500000D03*
X126250000Y-108125000D03*
X131250000Y-122125000D03*
X126500000Y-119500000D03*
X126750000Y-105750000D03*
X121750000Y-115750000D03*
X128000000Y-133500000D03*
X125250000Y-139500000D03*
X121000000Y-107400000D03*
X117250000Y-108000000D03*
X118500000Y-107750000D03*
X127500000Y-126375000D03*
X125875000Y-137875000D03*
X115250000Y-139500000D03*
X124625000Y-137750000D03*
X131500000Y-126750000D03*
X119250000Y-107500000D03*
X116000000Y-126875000D03*
X120750000Y-100625000D03*
X115625000Y-132125000D03*
X126250000Y-109625000D03*
X120250000Y-117250000D03*
X126875000Y-134375000D03*
X126375000Y-100500000D03*
X131500000Y-125875000D03*
X126000000Y-107250000D03*
X123250000Y-115750000D03*
D49*
X131304199Y-113239737D03*
D48*
X126375000Y-101250000D03*
X128000000Y-132625000D03*
X114625000Y-134000000D03*
X120750000Y-102875000D03*
X131500000Y-127625000D03*
X117000000Y-106000000D03*
X126000000Y-139500000D03*
X121750000Y-114000000D03*
X118000000Y-118750000D03*
X115875000Y-139500000D03*
X126750000Y-103125000D03*
X116875000Y-126875000D03*
X123750000Y-126250000D03*
X131250000Y-121250000D03*
X122500000Y-115250000D03*
X116875000Y-124625000D03*
X119000000Y-122125000D03*
X126750000Y-104875000D03*
X115250000Y-102500000D03*
X125000000Y-129000000D03*
X120750000Y-101375000D03*
X112625000Y-120500000D03*
X126750000Y-104000000D03*
X115250000Y-101750000D03*
X127250000Y-121454169D03*
X119750000Y-118000000D03*
X116500000Y-139500000D03*
X127250000Y-120250000D03*
X122375000Y-137750000D03*
X124250000Y-125500000D03*
X117000000Y-118375000D03*
X128000000Y-111250000D03*
X116125000Y-120500000D03*
X119500000Y-117250000D03*
X124250000Y-129000000D03*
X121750000Y-114750000D03*
X129000000Y-126375000D03*
X120750000Y-102125000D03*
X111125000Y-127750000D03*
X126625000Y-137875000D03*
X122875000Y-101500000D03*
X123875000Y-137750000D03*
X116000000Y-101875000D03*
X123125000Y-137750000D03*
X122500000Y-112750000D03*
X117750000Y-118000000D03*
X126750000Y-139500000D03*
X126500000Y-120750000D03*
X120000000Y-122125000D03*
X123750000Y-127250000D03*
X121750000Y-113250000D03*
X123750000Y-128250000D03*
X115625000Y-133000000D03*
X125000000Y-107000000D03*
X128000000Y-131750000D03*
X118000000Y-120000000D03*
X124375000Y-101500000D03*
X125750000Y-129000000D03*
X111125000Y-129500000D03*
X117750000Y-126875000D03*
X131500000Y-125000000D03*
X111500000Y-118250000D03*
X126750000Y-106750000D03*
D50*
%TO.N,+5V*%
X116750000Y-127750000D03*
X125000000Y-122375000D03*
D48*
X126000000Y-130200000D03*
D50*
X124050000Y-107200000D03*
D48*
%TO.N,VCC*%
X130686726Y-129436727D03*
D50*
X125750000Y-117750000D03*
D49*
%TO.N,Net-(D4-K)*%
X118625000Y-128625000D03*
D48*
%TO.N,/LED/LED+*%
X119750000Y-132750000D03*
X116750000Y-133000000D03*
X116750000Y-132250000D03*
X117750000Y-135500000D03*
X119000000Y-132750000D03*
%TO.N,/LED/LED-*%
X123750000Y-134750000D03*
X122250000Y-132500000D03*
X123000000Y-133250000D03*
X123000000Y-134000000D03*
X123750000Y-133250000D03*
X121500000Y-132500000D03*
X123750000Y-132500000D03*
X123000000Y-132500000D03*
X123000000Y-134750000D03*
X125250000Y-131750000D03*
X123750000Y-134000000D03*
X124500000Y-130250000D03*
X121500000Y-133250000D03*
X123750000Y-130250000D03*
X122250000Y-133250000D03*
X123750000Y-131000000D03*
X124500000Y-131750000D03*
X125250000Y-134000000D03*
X124500000Y-131000000D03*
X124500000Y-134750000D03*
X125250000Y-133250000D03*
X125250000Y-131000000D03*
X124500000Y-132500000D03*
X123750000Y-131750000D03*
X124500000Y-134000000D03*
X125250000Y-132500000D03*
X125250000Y-130250000D03*
X124500000Y-133250000D03*
X122250000Y-134000000D03*
%TO.N,/EN*%
X131155000Y-120125000D03*
%TO.N,/MCU/PB5*%
X127983740Y-117354760D03*
%TD*%
D51*
%TO.N,GND*%
X117825000Y-131325000D02*
X115975000Y-131325000D01*
X115975000Y-131325000D02*
X115925000Y-131275000D01*
D52*
%TO.N,+24V*%
X111500000Y-107012500D02*
X113750000Y-107012500D01*
X113750000Y-107012500D02*
X116000000Y-104762500D01*
X116000000Y-104762500D02*
X116000000Y-103850000D01*
D53*
%TO.N,/voltage regulator/BST*%
X117875000Y-105875000D02*
X117875000Y-105275000D01*
X121000000Y-104000000D02*
X121000000Y-106500000D01*
X121887500Y-102700000D02*
X121887500Y-103112500D01*
X118750000Y-106750000D02*
X117875000Y-105875000D01*
X120750000Y-106750000D02*
X118750000Y-106750000D01*
X121887500Y-103112500D02*
X121000000Y-104000000D01*
X121000000Y-106500000D02*
X120750000Y-106750000D01*
D52*
%TO.N,+5V*%
X121875000Y-122250000D02*
X121125000Y-122250000D01*
X122175000Y-122550000D02*
X121875000Y-122250000D01*
X124050000Y-104000000D02*
X124050000Y-103612500D01*
X115925000Y-128012500D02*
X115925000Y-129725000D01*
X124050000Y-103612500D02*
X125200000Y-102462500D01*
X125200000Y-102462500D02*
X125200000Y-102250000D01*
D51*
X126000000Y-130200000D02*
X126750000Y-130200000D01*
D52*
X126375000Y-102250000D02*
X125200000Y-102250000D01*
D54*
X124050000Y-107200000D02*
X124050000Y-106000000D01*
D52*
X124050000Y-104000000D02*
X124050000Y-103825000D01*
X123062500Y-122550000D02*
X122175000Y-122550000D01*
D53*
%TO.N,VCC*%
X121000000Y-118025000D02*
X121000000Y-118725000D01*
D52*
X118677000Y-131823000D02*
X118677000Y-130073000D01*
X123062500Y-124450000D02*
X122200000Y-124450000D01*
X117575000Y-132925000D02*
X118677000Y-131823000D01*
D54*
X125750000Y-117750000D02*
X125750000Y-113500000D01*
D51*
X130686726Y-129436727D02*
X130813273Y-129436727D01*
D52*
X122525000Y-109000000D02*
X121775000Y-108250000D01*
D53*
X120125000Y-136350000D02*
X121725000Y-136350000D01*
D52*
X118677000Y-130073000D02*
X119500000Y-129250000D01*
D54*
X121000000Y-109025000D02*
X121775000Y-108250000D01*
D52*
X121600000Y-124625000D02*
X121125000Y-124150000D01*
D53*
X124500000Y-117250000D02*
X121775000Y-117250000D01*
D54*
X121000000Y-110145291D02*
X121000000Y-109025000D01*
D53*
X121000000Y-118725000D02*
X119725000Y-120000000D01*
X121987500Y-136612500D02*
X122550000Y-136612500D01*
D54*
X125750000Y-118650000D02*
X127345000Y-118650000D01*
D53*
X121725000Y-136350000D02*
X121987500Y-136612500D01*
D54*
X125750000Y-113500000D02*
X124627000Y-112377000D01*
D52*
X121900000Y-124150000D02*
X121125000Y-124150000D01*
D54*
X125750000Y-117750000D02*
X125750000Y-118650000D01*
D52*
X123540000Y-109000000D02*
X122525000Y-109000000D01*
D54*
X124627000Y-112377000D02*
X123231709Y-112377000D01*
D53*
X121775000Y-117250000D02*
X121000000Y-118025000D01*
D52*
X119500000Y-129250000D02*
X119500000Y-124650000D01*
X125750000Y-124625000D02*
X121600000Y-124625000D01*
D53*
X125000000Y-117750000D02*
X124500000Y-117250000D01*
D52*
X117575000Y-134125000D02*
X117575000Y-132925000D01*
D51*
X130813273Y-129436727D02*
X131250000Y-129000000D01*
D52*
X122200000Y-124450000D02*
X121900000Y-124150000D01*
D51*
X131250000Y-129000000D02*
X131250000Y-128550000D01*
D54*
X123231709Y-112377000D02*
X121000000Y-110145291D01*
D53*
X125750000Y-117750000D02*
X125000000Y-117750000D01*
D52*
%TO.N,+BATT*%
X116875000Y-123050000D02*
X115925000Y-124000000D01*
X125625000Y-121375000D02*
X117500000Y-121375000D01*
X115925000Y-125737500D02*
X115925000Y-124000000D01*
X112925000Y-124000000D02*
X115925000Y-124000000D01*
X126250000Y-122000000D02*
X125625000Y-121375000D01*
X116875000Y-122000000D02*
X116875000Y-123050000D01*
X126250000Y-123125000D02*
X126250000Y-122000000D01*
X117500000Y-121375000D02*
X116875000Y-122000000D01*
X125875000Y-123500000D02*
X126250000Y-123125000D01*
X124937500Y-123500000D02*
X125875000Y-123500000D01*
D51*
%TO.N,/voltage regulator/EN*%
X119612500Y-100800000D02*
X118675000Y-100800000D01*
X118550000Y-100675000D02*
X117875000Y-100675000D01*
X118675000Y-100800000D02*
X118550000Y-100675000D01*
%TO.N,/voltage regulator/FB*%
X122700000Y-100800000D02*
X122750000Y-100750000D01*
X123550000Y-100750000D02*
X123550000Y-102250000D01*
X121887500Y-100800000D02*
X122700000Y-100800000D01*
X122750000Y-100750000D02*
X123550000Y-100750000D01*
%TO.N,Net-(D4-K)*%
X118625000Y-123225000D02*
X117825000Y-122425000D01*
X118625000Y-128625000D02*
X118625000Y-123225000D01*
%TO.N,/LED/LED+*%
X123500000Y-135750000D02*
X123500000Y-136612500D01*
X122500000Y-135500000D02*
X123250000Y-135500000D01*
X119750000Y-132750000D02*
X122500000Y-135500000D01*
X123250000Y-135500000D02*
X123500000Y-135750000D01*
D53*
%TO.N,/LED/LED-*%
X124450000Y-138887500D02*
X124987500Y-138887500D01*
X125412500Y-136837500D02*
X126250000Y-136837500D01*
X124987500Y-138887500D02*
X125250000Y-138625000D01*
X125250000Y-138625000D02*
X125250000Y-137000000D01*
X125250000Y-137000000D02*
X125412500Y-136837500D01*
D55*
X126250000Y-136837500D02*
X126250000Y-136000000D01*
X126250000Y-136000000D02*
X125875000Y-135625000D01*
D51*
%TO.N,/battery/PROG*%
X117825000Y-129675000D02*
X117825000Y-128012500D01*
%TO.N,Net-(R10-Pad2)*%
X131350000Y-131100000D02*
X131250000Y-131000000D01*
X131250000Y-131000000D02*
X131250000Y-130200000D01*
X131350000Y-132625000D02*
X131350000Y-131100000D01*
X131250000Y-130200000D02*
X129750000Y-130200000D01*
%TO.N,/ALS*%
X124000000Y-118625000D02*
X124000000Y-118000000D01*
D53*
X122265000Y-120000000D02*
X122500000Y-119765000D01*
D51*
X128375000Y-124875000D02*
X127111841Y-124875000D01*
D53*
X122500000Y-119765000D02*
X122500000Y-118735000D01*
X122500000Y-118025000D02*
X123975000Y-118025000D01*
D51*
X128615000Y-124635000D02*
X128375000Y-124875000D01*
X125148000Y-120898000D02*
X124777000Y-120527000D01*
X126750000Y-121825420D02*
X125822580Y-120898000D01*
D53*
X122500000Y-118075000D02*
X123950000Y-118075000D01*
D51*
X128615000Y-123600000D02*
X128615000Y-124635000D01*
X124777000Y-120527000D02*
X124777000Y-119402000D01*
X126750000Y-124513159D02*
X126750000Y-121825420D01*
X127111841Y-124875000D02*
X126750000Y-124513159D01*
X124777000Y-119402000D02*
X124000000Y-118625000D01*
D53*
X123950000Y-118075000D02*
X124000000Y-118025000D01*
X122500000Y-118735000D02*
X122500000Y-118075000D01*
D51*
X125822580Y-120898000D02*
X125148000Y-120898000D01*
%TO.N,/V_{SEN}*%
X126750000Y-128550000D02*
X126750000Y-127150000D01*
X126800000Y-127200000D02*
X126750000Y-127150000D01*
X129750000Y-127200000D02*
X126800000Y-127200000D01*
D53*
%TO.N,/PIR*%
X120175000Y-109750000D02*
X120175000Y-110715000D01*
X120175000Y-110715000D02*
X121000000Y-111540000D01*
D51*
%TO.N,/STAT*%
X117825000Y-125737500D02*
X117825000Y-124075000D01*
%TO.N,/EN*%
X127500000Y-129750000D02*
X127875000Y-129375000D01*
X126500000Y-133750000D02*
X126500000Y-131585565D01*
X130500000Y-124625000D02*
X130500000Y-120780000D01*
X124450000Y-136612500D02*
X124450000Y-135800000D01*
X131155000Y-118650000D02*
X131155000Y-120125000D01*
X130500000Y-128221131D02*
X130875000Y-127846131D01*
X130875000Y-125000000D02*
X130500000Y-124625000D01*
X130500000Y-120780000D02*
X131155000Y-120125000D01*
X127875000Y-129375000D02*
X130003869Y-129375000D01*
X130500000Y-128878869D02*
X130500000Y-128221131D01*
X130875000Y-127846131D02*
X130875000Y-125000000D01*
X124450000Y-135800000D02*
X126500000Y-133750000D01*
X127500000Y-130585565D02*
X127500000Y-129750000D01*
X130003869Y-129375000D02*
X130500000Y-128878869D01*
X126500000Y-131585565D02*
X127500000Y-130585565D01*
%TO.N,/MCU/PB4*%
X129885000Y-124760000D02*
X130000000Y-124875000D01*
X129885000Y-123600000D02*
X129885000Y-124760000D01*
X130187500Y-124875000D02*
X130500000Y-125187500D01*
X130500000Y-125187500D02*
X130500000Y-127625000D01*
X129750000Y-128550000D02*
X128300000Y-128550000D01*
X129750000Y-128375000D02*
X129750000Y-128550000D01*
X128300000Y-128550000D02*
X128250000Y-128600000D01*
X130000000Y-124875000D02*
X130187500Y-124875000D01*
X130500000Y-127625000D02*
X129750000Y-128375000D01*
%TO.N,/MCU/PB5*%
X127345000Y-123600000D02*
X127345000Y-122405000D01*
X127345000Y-122405000D02*
X127983740Y-121766260D01*
X127983740Y-121766260D02*
X127983740Y-117354760D01*
%TO.N,/MCU/PB2*%
X129250000Y-125050000D02*
X129750000Y-125550000D01*
X128615000Y-117241435D02*
X128138700Y-116765135D01*
X128138700Y-115101300D02*
X129365000Y-113875000D01*
X128615000Y-118650000D02*
X128615000Y-121615000D01*
X128615000Y-118650000D02*
X128615000Y-117241435D01*
X128615000Y-121615000D02*
X129250000Y-122250000D01*
X129250000Y-122250000D02*
X129250000Y-125050000D01*
X128138700Y-116765135D02*
X128138700Y-115101300D01*
%TO.N,/MCU/PB1*%
X125458870Y-112605000D02*
X129365000Y-112605000D01*
X130125000Y-117375000D02*
X131300000Y-117375000D01*
X129885000Y-118650000D02*
X129885000Y-117615000D01*
X130739700Y-110489700D02*
X129649865Y-110489700D01*
X129154700Y-110984865D02*
X129154700Y-111685135D01*
X129154700Y-111685135D02*
X129365000Y-111895435D01*
X131861301Y-111611301D02*
X130739700Y-110489700D01*
X123450000Y-111950000D02*
X124803870Y-111950000D01*
X129649865Y-110489700D02*
X129154700Y-110984865D01*
X121825000Y-109750000D02*
X121825000Y-110325000D01*
X121825000Y-110325000D02*
X123450000Y-111950000D01*
X129365000Y-111895435D02*
X129365000Y-112605000D01*
X124803870Y-111950000D02*
X125458870Y-112605000D01*
X129885000Y-117615000D02*
X130125000Y-117375000D01*
X131300000Y-117375000D02*
X131861301Y-116813699D01*
X131861301Y-116813699D02*
X131861301Y-111611301D01*
D52*
%TO.N,/Input/Vin*%
X119500000Y-114000000D02*
X119500000Y-112500000D01*
X111500000Y-111000000D02*
X111500000Y-109987500D01*
X112250000Y-111750000D02*
X111500000Y-111000000D01*
X119500000Y-112500000D02*
X118750000Y-111750000D01*
X118750000Y-111750000D02*
X112250000Y-111750000D01*
%TD*%
%TA.AperFunction,Conductor*%
%TO.N,+5V*%
G36*
X125382148Y-121851422D02*
G01*
X125426363Y-121860216D01*
X125456233Y-121866158D01*
X125482909Y-121877207D01*
X125539537Y-121915045D01*
X125559954Y-121935462D01*
X125597792Y-121992090D01*
X125608841Y-122018765D01*
X125623578Y-122092851D01*
X125625000Y-122107288D01*
X125625000Y-122592711D01*
X125623578Y-122607148D01*
X125608841Y-122681234D01*
X125597792Y-122707909D01*
X125559954Y-122764537D01*
X125539537Y-122784954D01*
X125482909Y-122822792D01*
X125456234Y-122833841D01*
X125382149Y-122848578D01*
X125367712Y-122850000D01*
X120832288Y-122850000D01*
X120817851Y-122848578D01*
X120743765Y-122833841D01*
X120717090Y-122822792D01*
X120660462Y-122784954D01*
X120640045Y-122764537D01*
X120602207Y-122707909D01*
X120591158Y-122681233D01*
X120576422Y-122607147D01*
X120575000Y-122592711D01*
X120575000Y-122107288D01*
X120576422Y-122092852D01*
X120591158Y-122018766D01*
X120591159Y-122018765D01*
X120591158Y-122018764D01*
X120602205Y-121992093D01*
X120640045Y-121935461D01*
X120660462Y-121915045D01*
X120717093Y-121877205D01*
X120743764Y-121866158D01*
X120790905Y-121856781D01*
X120817852Y-121851422D01*
X120832288Y-121850000D01*
X125367712Y-121850000D01*
X125382148Y-121851422D01*
G37*
%TD.AperFunction*%
%TD*%
%TA.AperFunction,Conductor*%
%TO.N,/Input/Vin*%
G36*
X120511980Y-113102383D02*
G01*
X120571480Y-113114218D01*
X120616175Y-113132730D01*
X120656272Y-113159522D01*
X120690477Y-113193727D01*
X120717267Y-113233822D01*
X120735781Y-113278517D01*
X120747617Y-113338022D01*
X120750000Y-113362210D01*
X120750000Y-114806366D01*
X120748389Y-114826289D01*
X120740336Y-114875759D01*
X120727698Y-114913549D01*
X120704369Y-114957913D01*
X120693671Y-114974796D01*
X119361753Y-116743408D01*
X119305699Y-116785118D01*
X119297641Y-116787787D01*
X119289953Y-116790044D01*
X119289945Y-116790048D01*
X119168872Y-116867856D01*
X119168870Y-116867858D01*
X119156441Y-116882203D01*
X119097663Y-116919977D01*
X119062728Y-116925000D01*
X118325623Y-116925000D01*
X118314578Y-116924507D01*
X118297419Y-116922972D01*
X118286763Y-116922019D01*
X118265016Y-116918096D01*
X118238092Y-116910712D01*
X118227570Y-116907316D01*
X114566955Y-115542541D01*
X114544495Y-115531468D01*
X114491558Y-115498339D01*
X114455491Y-115463956D01*
X114427198Y-115423214D01*
X114407577Y-115377400D01*
X114395029Y-115316224D01*
X114392500Y-115291309D01*
X114392500Y-113903911D01*
X114394454Y-113881984D01*
X114404196Y-113827760D01*
X114419461Y-113786649D01*
X114441762Y-113748875D01*
X114470383Y-113715652D01*
X114504438Y-113688003D01*
X114542836Y-113666819D01*
X114555465Y-113662544D01*
X114595022Y-113649156D01*
X114616418Y-113643977D01*
X115538732Y-113505898D01*
X118229315Y-113103095D01*
X118233876Y-113102499D01*
X118234913Y-113102383D01*
X118245493Y-113101199D01*
X118254627Y-113100519D01*
X118266342Y-113100084D01*
X118270904Y-113100000D01*
X120487789Y-113100000D01*
X120511980Y-113102383D01*
G37*
%TD.AperFunction*%
%TD*%
%TA.AperFunction,Conductor*%
%TO.N,VCC*%
G36*
X123557148Y-123151422D02*
G01*
X123601363Y-123160216D01*
X123631233Y-123166158D01*
X123657909Y-123177207D01*
X123714537Y-123215045D01*
X123734954Y-123235462D01*
X123772792Y-123292090D01*
X123783841Y-123318765D01*
X123798578Y-123392851D01*
X123800000Y-123407288D01*
X123800000Y-124881676D01*
X123798401Y-124896975D01*
X123781862Y-124975244D01*
X123769484Y-125003226D01*
X123722690Y-125068120D01*
X123712445Y-125079595D01*
X123331831Y-125425607D01*
X123331828Y-125425610D01*
X123250000Y-125500000D01*
X123250000Y-125610592D01*
X123250000Y-125610597D01*
X123250000Y-129492711D01*
X123248578Y-129507148D01*
X123233841Y-129581234D01*
X123222792Y-129607909D01*
X123184954Y-129664537D01*
X123164537Y-129684954D01*
X123107909Y-129722792D01*
X123081235Y-129733841D01*
X123052599Y-129739537D01*
X123034798Y-129743078D01*
X123020363Y-129744500D01*
X121057288Y-129744500D01*
X121048462Y-129744933D01*
X121042036Y-129745249D01*
X121027597Y-129746672D01*
X121012540Y-129748905D01*
X121012530Y-129748906D01*
X121012517Y-129748909D01*
X121012512Y-129748909D01*
X121011621Y-129749042D01*
X121011612Y-129748987D01*
X120999859Y-129750000D01*
X120050138Y-129750000D01*
X120038391Y-129748986D01*
X120038383Y-129749043D01*
X120022390Y-129746670D01*
X120007963Y-129745249D01*
X120002027Y-129744957D01*
X119992712Y-129744500D01*
X119447044Y-129744500D01*
X119426542Y-129748578D01*
X119412106Y-129750000D01*
X119282288Y-129750000D01*
X119267851Y-129748578D01*
X119193765Y-129733841D01*
X119167090Y-129722792D01*
X119110462Y-129684954D01*
X119090045Y-129664537D01*
X119052207Y-129607909D01*
X119041158Y-129581233D01*
X119026422Y-129507147D01*
X119025000Y-129492711D01*
X119025000Y-128665499D01*
X119025911Y-128653923D01*
X119030492Y-128624999D01*
X119025911Y-128596075D01*
X119025000Y-128584499D01*
X119025000Y-123751519D01*
X119046674Y-123699193D01*
X119099000Y-123677519D01*
X119131500Y-123685038D01*
X119141375Y-123689866D01*
X119214364Y-123700500D01*
X119214370Y-123700500D01*
X119785630Y-123700500D01*
X119785636Y-123700500D01*
X119858625Y-123689866D01*
X119971211Y-123634826D01*
X120059826Y-123546211D01*
X120114866Y-123433625D01*
X120125500Y-123360636D01*
X120125500Y-123224000D01*
X120147174Y-123171674D01*
X120199500Y-123150000D01*
X123542712Y-123150000D01*
X123557148Y-123151422D01*
G37*
%TD.AperFunction*%
%TD*%
%TA.AperFunction,Conductor*%
%TO.N,/LED/LED+*%
G36*
X115390563Y-135000477D02*
G01*
X115390580Y-135000272D01*
X115393471Y-135000498D01*
X115393481Y-135000500D01*
X115956518Y-135000499D01*
X115956519Y-135000499D01*
X115959670Y-135000000D01*
X117290324Y-135000000D01*
X117293481Y-135000500D01*
X117528074Y-135000499D01*
X117538926Y-135001299D01*
X117552608Y-135003329D01*
X117567045Y-135004751D01*
X117582288Y-135005500D01*
X118143557Y-135005500D01*
X118195883Y-135027174D01*
X118200048Y-135031700D01*
X118390930Y-135257288D01*
X118625000Y-135533915D01*
X118625000Y-136375000D01*
X118625000Y-137495500D01*
X118603326Y-137547826D01*
X118551000Y-137569500D01*
X118399500Y-137569500D01*
X118382631Y-137572855D01*
X118339998Y-137581335D01*
X118339988Y-137581338D01*
X118287673Y-137603008D01*
X118287656Y-137603016D01*
X118252513Y-137623305D01*
X118252511Y-137623307D01*
X118203512Y-137687164D01*
X118203510Y-137687168D01*
X118181838Y-137739488D01*
X118181835Y-137739498D01*
X118170000Y-137799001D01*
X118170000Y-138113452D01*
X118169089Y-138125030D01*
X118162745Y-138165078D01*
X118155591Y-138187095D01*
X118131000Y-138235358D01*
X118117391Y-138254089D01*
X118079089Y-138292391D01*
X118060358Y-138306000D01*
X118012097Y-138330590D01*
X117990080Y-138337744D01*
X117966912Y-138341414D01*
X117950027Y-138344088D01*
X117938454Y-138344999D01*
X117311545Y-138344999D01*
X117299969Y-138344088D01*
X117252312Y-138336540D01*
X117238277Y-138332878D01*
X117218890Y-138325726D01*
X117218884Y-138325724D01*
X117185309Y-138317664D01*
X117185301Y-138317662D01*
X117185299Y-138317662D01*
X117169297Y-138314696D01*
X117169295Y-138314696D01*
X117089494Y-138325202D01*
X117089490Y-138325203D01*
X117043226Y-138344367D01*
X117014908Y-138350000D01*
X116668887Y-138350000D01*
X116616561Y-138328326D01*
X116602953Y-138309596D01*
X116553049Y-138211657D01*
X116463343Y-138121951D01*
X116463342Y-138121950D01*
X116350304Y-138064354D01*
X116350302Y-138064353D01*
X116350301Y-138064353D01*
X116256519Y-138049500D01*
X115243480Y-138049500D01*
X115149695Y-138064353D01*
X115149693Y-138064354D01*
X115036657Y-138121950D01*
X115003356Y-138155251D01*
X114951030Y-138176924D01*
X114898704Y-138155249D01*
X114878452Y-138117357D01*
X114877675Y-138113452D01*
X114876420Y-138107143D01*
X114875000Y-138092711D01*
X114875000Y-135257288D01*
X114876422Y-135242852D01*
X114891158Y-135168766D01*
X114902205Y-135142093D01*
X114940045Y-135085461D01*
X114960462Y-135065045D01*
X115017093Y-135027205D01*
X115043764Y-135016158D01*
X115090905Y-135006781D01*
X115117852Y-135001422D01*
X115132288Y-135000000D01*
X115384499Y-135000000D01*
X115390563Y-135000477D01*
G37*
%TD.AperFunction*%
%TD*%
%TA.AperFunction,Conductor*%
%TO.N,+5V*%
G36*
X116907148Y-127351422D02*
G01*
X116951363Y-127360216D01*
X116981233Y-127366158D01*
X117007909Y-127377207D01*
X117064537Y-127415045D01*
X117084954Y-127435462D01*
X117122792Y-127492090D01*
X117133841Y-127518765D01*
X117148578Y-127592851D01*
X117150000Y-127607288D01*
X117150000Y-130242711D01*
X117148578Y-130257148D01*
X117133841Y-130331234D01*
X117122792Y-130357909D01*
X117084954Y-130414537D01*
X117064537Y-130434954D01*
X117007909Y-130472792D01*
X116981234Y-130483841D01*
X116907149Y-130498578D01*
X116892712Y-130500000D01*
X114860841Y-130500000D01*
X114846404Y-130498578D01*
X114772319Y-130483841D01*
X114745644Y-130472792D01*
X114682837Y-130430826D01*
X114671623Y-130421623D01*
X114512561Y-130262561D01*
X114500000Y-130250000D01*
X114000000Y-129875000D01*
X113625000Y-129750000D01*
X113288488Y-129637829D01*
X113288484Y-129637828D01*
X113250000Y-129625000D01*
X113209431Y-129625000D01*
X113209423Y-129625000D01*
X112307288Y-129625000D01*
X112292851Y-129623578D01*
X112218765Y-129608841D01*
X112192090Y-129597792D01*
X112135462Y-129559954D01*
X112115045Y-129539537D01*
X112077207Y-129482909D01*
X112066158Y-129456233D01*
X112051422Y-129382147D01*
X112050000Y-129367711D01*
X112050000Y-127607288D01*
X112051422Y-127592852D01*
X112066158Y-127518766D01*
X112066159Y-127518765D01*
X112066158Y-127518764D01*
X112077205Y-127492093D01*
X112115045Y-127435461D01*
X112135462Y-127415045D01*
X112192093Y-127377205D01*
X112218764Y-127366158D01*
X112265905Y-127356781D01*
X112292852Y-127351422D01*
X112307288Y-127350000D01*
X116892712Y-127350000D01*
X116907148Y-127351422D01*
G37*
%TD.AperFunction*%
%TD*%
%TA.AperFunction,Conductor*%
%TO.N,/voltage regulator/SW*%
G36*
X120028595Y-102401422D02*
G01*
X120102679Y-102416158D01*
X120129354Y-102427206D01*
X120188115Y-102466469D01*
X120208531Y-102486885D01*
X120247792Y-102545644D01*
X120258841Y-102572319D01*
X120273578Y-102646404D01*
X120275000Y-102660841D01*
X120275000Y-102850000D01*
X120275000Y-103625000D01*
X120500000Y-103800000D01*
X120673895Y-103800000D01*
X120726221Y-103821674D01*
X120747895Y-103874000D01*
X120742262Y-103902318D01*
X120724500Y-103945198D01*
X120724500Y-106355232D01*
X120702826Y-106407558D01*
X120702824Y-106407559D01*
X120685041Y-106425341D01*
X120647158Y-106445591D01*
X120632151Y-106448577D01*
X120617710Y-106450000D01*
X119033770Y-106450000D01*
X119025806Y-106449570D01*
X119013673Y-106448256D01*
X118984234Y-106445069D01*
X118968672Y-106441659D01*
X118929027Y-106428364D01*
X118921612Y-106425424D01*
X118736162Y-106340058D01*
X118714779Y-106325164D01*
X118320919Y-105931304D01*
X118299245Y-105878978D01*
X118320919Y-105826652D01*
X118340745Y-105812497D01*
X118346211Y-105809826D01*
X118434826Y-105721211D01*
X118489866Y-105608625D01*
X118500500Y-105535636D01*
X118500500Y-105014364D01*
X118489866Y-104941375D01*
X118434826Y-104828789D01*
X118346211Y-104740174D01*
X118346210Y-104740173D01*
X118233626Y-104685134D01*
X118160640Y-104674500D01*
X118160636Y-104674500D01*
X117589364Y-104674500D01*
X117589359Y-104674500D01*
X117516374Y-104685134D01*
X117516372Y-104685135D01*
X117506498Y-104689962D01*
X117449970Y-104693470D01*
X117407518Y-104655978D01*
X117400000Y-104623480D01*
X117400000Y-104225140D01*
X117401012Y-104213394D01*
X117400957Y-104213386D01*
X117402237Y-104204749D01*
X117403329Y-104197391D01*
X117404751Y-104182954D01*
X117405500Y-104167711D01*
X117405500Y-103994432D01*
X117405500Y-103994421D01*
X117405049Y-103981990D01*
X117405000Y-103979307D01*
X117405000Y-103585704D01*
X117406422Y-103571268D01*
X117416158Y-103522320D01*
X117427205Y-103495647D01*
X117469177Y-103432831D01*
X117478371Y-103421628D01*
X117546628Y-103353371D01*
X117557831Y-103344177D01*
X117620647Y-103302205D01*
X117647318Y-103291158D01*
X117696268Y-103281422D01*
X117710704Y-103280000D01*
X118154268Y-103280000D01*
X118156942Y-103280048D01*
X118158176Y-103280092D01*
X118158195Y-103280094D01*
X118169431Y-103280500D01*
X118169441Y-103280500D01*
X118293855Y-103280500D01*
X118293856Y-103280500D01*
X118305275Y-103280080D01*
X118316113Y-103279282D01*
X118327472Y-103278025D01*
X118342512Y-103275798D01*
X118353350Y-103275000D01*
X118533422Y-103275000D01*
X118533423Y-103275000D01*
X118625000Y-103275000D01*
X118694906Y-103215848D01*
X118694909Y-103215847D01*
X118861486Y-103074897D01*
X118861487Y-103074895D01*
X118950000Y-103000000D01*
X118950000Y-102660841D01*
X118951422Y-102646405D01*
X118966158Y-102572320D01*
X118977205Y-102545647D01*
X119016471Y-102486881D01*
X119036881Y-102466471D01*
X119095647Y-102427205D01*
X119122318Y-102416158D01*
X119169225Y-102406828D01*
X119196405Y-102401422D01*
X119210841Y-102400000D01*
X120014159Y-102400000D01*
X120028595Y-102401422D01*
G37*
%TD.AperFunction*%
%TD*%
%TA.AperFunction,Conductor*%
%TO.N,+24V*%
G36*
X119882148Y-101451422D02*
G01*
X119926363Y-101460216D01*
X119956233Y-101466158D01*
X119982909Y-101477207D01*
X120039537Y-101515045D01*
X120059954Y-101535462D01*
X120097792Y-101592090D01*
X120108841Y-101618765D01*
X120123578Y-101692851D01*
X120125000Y-101707288D01*
X120125000Y-101792711D01*
X120123578Y-101807148D01*
X120108841Y-101881234D01*
X120097792Y-101907909D01*
X120059954Y-101964537D01*
X120039537Y-101984954D01*
X119982909Y-102022792D01*
X119956234Y-102033841D01*
X119882149Y-102048578D01*
X119867712Y-102050000D01*
X118950000Y-102050000D01*
X118876780Y-102123219D01*
X118876777Y-102123222D01*
X118876776Y-102123224D01*
X118823224Y-102176776D01*
X118823222Y-102176777D01*
X118823219Y-102176780D01*
X118750000Y-102250000D01*
X118750000Y-102353553D01*
X118750000Y-102353554D01*
X118750000Y-102732066D01*
X118747778Y-102750066D01*
X118724932Y-102841170D01*
X118707945Y-102872909D01*
X118644816Y-102942451D01*
X118631073Y-102954284D01*
X118442511Y-103079992D01*
X118433049Y-103085340D01*
X118381661Y-103109595D01*
X118360915Y-103115877D01*
X118311891Y-103123136D01*
X118304694Y-103124202D01*
X118293856Y-103125000D01*
X118169431Y-103125000D01*
X118163316Y-103124557D01*
X118163307Y-103124694D01*
X118160641Y-103124500D01*
X118160636Y-103124500D01*
X117589364Y-103124500D01*
X117589359Y-103124500D01*
X117516374Y-103135134D01*
X117516373Y-103135134D01*
X117403789Y-103190173D01*
X117315173Y-103278789D01*
X117260134Y-103391373D01*
X117260134Y-103391374D01*
X117249500Y-103464359D01*
X117249500Y-103985632D01*
X117249694Y-103988311D01*
X117249556Y-103988320D01*
X117250000Y-103994432D01*
X117250000Y-104167711D01*
X117248578Y-104182148D01*
X117233841Y-104256234D01*
X117222792Y-104282909D01*
X117184954Y-104339537D01*
X117164537Y-104359954D01*
X117107909Y-104397792D01*
X117081234Y-104408841D01*
X117007149Y-104423578D01*
X116992712Y-104425000D01*
X116650000Y-104425000D01*
X115460841Y-104425000D01*
X115446404Y-104423578D01*
X115372319Y-104408841D01*
X115345644Y-104397792D01*
X115282837Y-104355826D01*
X115271623Y-104346623D01*
X115178376Y-104253376D01*
X115169173Y-104242162D01*
X115127207Y-104179355D01*
X115116158Y-104152679D01*
X115101422Y-104078594D01*
X115100000Y-104064158D01*
X115100000Y-103403259D01*
X115101842Y-103386851D01*
X115120869Y-103303211D01*
X115135066Y-103273624D01*
X115188402Y-103206444D01*
X115200041Y-103194746D01*
X115618365Y-102859169D01*
X117301559Y-101508913D01*
X117311927Y-101501948D01*
X117368933Y-101470281D01*
X117392419Y-101462024D01*
X117456706Y-101451053D01*
X117469154Y-101450000D01*
X119867712Y-101450000D01*
X119882148Y-101451422D01*
G37*
%TD.AperFunction*%
%TD*%
%TA.AperFunction,Conductor*%
%TO.N,+5V*%
G36*
X124203595Y-103276422D02*
G01*
X124277679Y-103291158D01*
X124304355Y-103302207D01*
X124367162Y-103344173D01*
X124378376Y-103353376D01*
X124471623Y-103446623D01*
X124480826Y-103457837D01*
X124522792Y-103520644D01*
X124533841Y-103547319D01*
X124548578Y-103621404D01*
X124550000Y-103635841D01*
X124550000Y-106467711D01*
X124548578Y-106482148D01*
X124533841Y-106556234D01*
X124522792Y-106582909D01*
X124484954Y-106639537D01*
X124464537Y-106659954D01*
X124407909Y-106697792D01*
X124381234Y-106708841D01*
X124307149Y-106723578D01*
X124292712Y-106725000D01*
X123615977Y-106725000D01*
X123607074Y-106724462D01*
X123595106Y-106723011D01*
X123560687Y-106718839D01*
X123543393Y-106714584D01*
X123499691Y-106698040D01*
X123491554Y-106694385D01*
X123079482Y-106478538D01*
X123079479Y-106478537D01*
X123025000Y-106450000D01*
X122963488Y-106450000D01*
X122963481Y-106450000D01*
X121349500Y-106450000D01*
X121297174Y-106428326D01*
X121275500Y-106376000D01*
X121275500Y-104144767D01*
X121297174Y-104092441D01*
X122092942Y-103296674D01*
X122145268Y-103275000D01*
X124189159Y-103275000D01*
X124203595Y-103276422D01*
G37*
%TD.AperFunction*%
%TD*%
%TA.AperFunction,Conductor*%
%TO.N,+BATT*%
G36*
X116157148Y-123401422D02*
G01*
X116201363Y-123410216D01*
X116231233Y-123416158D01*
X116257909Y-123427207D01*
X116314537Y-123465045D01*
X116334954Y-123485462D01*
X116372792Y-123542090D01*
X116383841Y-123568765D01*
X116398578Y-123642851D01*
X116400000Y-123657288D01*
X116400000Y-125001000D01*
X116378326Y-125053326D01*
X116326000Y-125075000D01*
X116225000Y-125075000D01*
X116225000Y-126219348D01*
X116203326Y-126271674D01*
X116096674Y-126378326D01*
X116044348Y-126400000D01*
X113957398Y-126400000D01*
X113905072Y-126378326D01*
X113883398Y-126326000D01*
X113889031Y-126297682D01*
X113908781Y-126250000D01*
X113921658Y-126218913D01*
X113950500Y-126073918D01*
X113950500Y-125926082D01*
X113921658Y-125781087D01*
X113865084Y-125644505D01*
X113782951Y-125521584D01*
X113678416Y-125417049D01*
X113555495Y-125334916D01*
X113555496Y-125334916D01*
X113555494Y-125334915D01*
X113418917Y-125278343D01*
X113418907Y-125278340D01*
X113321811Y-125259026D01*
X113273918Y-125249500D01*
X112576082Y-125249500D01*
X112534977Y-125257676D01*
X112431092Y-125278340D01*
X112431082Y-125278343D01*
X112294505Y-125334915D01*
X112171580Y-125417051D01*
X112170940Y-125417577D01*
X112170672Y-125417658D01*
X112168561Y-125419069D01*
X112168132Y-125418428D01*
X112116740Y-125434013D01*
X112066793Y-125407310D01*
X112050000Y-125360370D01*
X112050000Y-123657288D01*
X112051422Y-123642852D01*
X112066158Y-123568766D01*
X112066159Y-123568765D01*
X112066158Y-123568764D01*
X112077205Y-123542093D01*
X112115045Y-123485461D01*
X112135462Y-123465045D01*
X112192093Y-123427205D01*
X112218764Y-123416158D01*
X112265905Y-123406781D01*
X112292852Y-123401422D01*
X112307288Y-123400000D01*
X116142712Y-123400000D01*
X116157148Y-123401422D01*
G37*
%TD.AperFunction*%
%TD*%
%TA.AperFunction,Conductor*%
%TO.N,VCC*%
G36*
X120067413Y-133421674D02*
G01*
X121428326Y-134782587D01*
X121450000Y-134834913D01*
X121450000Y-136614158D01*
X121448578Y-136628595D01*
X121433841Y-136702680D01*
X121422792Y-136729355D01*
X121380826Y-136792162D01*
X121371623Y-136803376D01*
X121278376Y-136896623D01*
X121267162Y-136905826D01*
X121204355Y-136947792D01*
X121177680Y-136958841D01*
X121103596Y-136973578D01*
X121089159Y-136975000D01*
X119160841Y-136975000D01*
X119146404Y-136973578D01*
X119072319Y-136958841D01*
X119045644Y-136947792D01*
X118982837Y-136905826D01*
X118971623Y-136896623D01*
X118878376Y-136803376D01*
X118869173Y-136792162D01*
X118827207Y-136729355D01*
X118816158Y-136702679D01*
X118801422Y-136628594D01*
X118800000Y-136614158D01*
X118800000Y-135591578D01*
X118800000Y-135591577D01*
X118800000Y-135500000D01*
X118740848Y-135430093D01*
X118740847Y-135430091D01*
X118324897Y-134938514D01*
X118324895Y-134938512D01*
X118250000Y-134850000D01*
X118134057Y-134850000D01*
X117582288Y-134850000D01*
X117567851Y-134848578D01*
X117493765Y-134833841D01*
X117467090Y-134822792D01*
X117410462Y-134784954D01*
X117390045Y-134764537D01*
X117352207Y-134707909D01*
X117341158Y-134681233D01*
X117326422Y-134607147D01*
X117325000Y-134592711D01*
X117325000Y-133657288D01*
X117326422Y-133642852D01*
X117341158Y-133568766D01*
X117352205Y-133542093D01*
X117390045Y-133485461D01*
X117410462Y-133465045D01*
X117467093Y-133427205D01*
X117493764Y-133416158D01*
X117540905Y-133406781D01*
X117567852Y-133401422D01*
X117582288Y-133400000D01*
X120015087Y-133400000D01*
X120067413Y-133421674D01*
G37*
%TD.AperFunction*%
%TD*%
%TA.AperFunction,Conductor*%
%TO.N,/LED/SW*%
G36*
X121528595Y-137726422D02*
G01*
X121602679Y-137741158D01*
X121629355Y-137752207D01*
X121692162Y-137794173D01*
X121703376Y-137803376D01*
X122125000Y-138225000D01*
X122589159Y-138225000D01*
X122603595Y-138226422D01*
X122677679Y-138241158D01*
X122704354Y-138252206D01*
X122763115Y-138291469D01*
X122783531Y-138311885D01*
X122822792Y-138370644D01*
X122833841Y-138397319D01*
X122848578Y-138471404D01*
X122850000Y-138485841D01*
X122850000Y-139617711D01*
X122848578Y-139632148D01*
X122833841Y-139706234D01*
X122822792Y-139732909D01*
X122784954Y-139789537D01*
X122764537Y-139809954D01*
X122707909Y-139847792D01*
X122681234Y-139858841D01*
X122607149Y-139873578D01*
X122592712Y-139875000D01*
X117332288Y-139875000D01*
X117317851Y-139873578D01*
X117243765Y-139858841D01*
X117217090Y-139847792D01*
X117160462Y-139809954D01*
X117140045Y-139789537D01*
X117102207Y-139732909D01*
X117091158Y-139706233D01*
X117076422Y-139632147D01*
X117075000Y-139617711D01*
X117075000Y-138542866D01*
X117096674Y-138490540D01*
X117149000Y-138468866D01*
X117182591Y-138476930D01*
X117199696Y-138485646D01*
X117293481Y-138500500D01*
X117956518Y-138500499D01*
X117956519Y-138500499D01*
X118050304Y-138485646D01*
X118050306Y-138485645D01*
X118083236Y-138468866D01*
X118163342Y-138428050D01*
X118253050Y-138338342D01*
X118310646Y-138225304D01*
X118325500Y-138131519D01*
X118325500Y-137799000D01*
X118347174Y-137746674D01*
X118399500Y-137725000D01*
X121514159Y-137725000D01*
X121528595Y-137726422D01*
G37*
%TD.AperFunction*%
%TD*%
%TA.AperFunction,Conductor*%
%TO.N,/LED/LED-*%
G36*
X126353326Y-134355585D02*
G01*
X126375000Y-134407911D01*
X126375000Y-135514158D01*
X126373578Y-135528595D01*
X126358841Y-135602680D01*
X126347792Y-135629355D01*
X126305826Y-135692162D01*
X126296623Y-135703376D01*
X125953376Y-136046623D01*
X125942162Y-136055826D01*
X125879355Y-136097792D01*
X125852680Y-136108841D01*
X125778596Y-136123578D01*
X125764159Y-136125000D01*
X124974383Y-136125000D01*
X124922057Y-136103326D01*
X124901364Y-136057186D01*
X124900745Y-136057258D01*
X124900517Y-136055296D01*
X124900506Y-136055271D01*
X124900499Y-136055155D01*
X124900499Y-136055136D01*
X124897585Y-136030009D01*
X124852206Y-135927235D01*
X124816941Y-135891970D01*
X124795267Y-135839644D01*
X124816941Y-135787318D01*
X126248674Y-134355585D01*
X126301000Y-134333911D01*
X126353326Y-134355585D01*
G37*
%TD.AperFunction*%
%TA.AperFunction,Conductor*%
G36*
X125578930Y-129921674D02*
G01*
X125600604Y-129974000D01*
X125593917Y-130004738D01*
X125576858Y-130042093D01*
X125563302Y-130071776D01*
X125544867Y-130200000D01*
X125563302Y-130328223D01*
X125563302Y-130328224D01*
X125563303Y-130328226D01*
X125617118Y-130446063D01*
X125701951Y-130543967D01*
X125810931Y-130614004D01*
X125935228Y-130650500D01*
X126064774Y-130650500D01*
X126116226Y-130635392D01*
X126150229Y-130625408D01*
X126206541Y-130631462D01*
X126223403Y-130644084D01*
X126268517Y-130689198D01*
X126333500Y-130720966D01*
X126370990Y-130763419D01*
X126375000Y-130787447D01*
X126375000Y-131325651D01*
X126353326Y-131377977D01*
X126287637Y-131443666D01*
X126287634Y-131443670D01*
X126249500Y-131535735D01*
X126249500Y-133615586D01*
X126227826Y-133667912D01*
X124237637Y-135658101D01*
X124237634Y-135658105D01*
X124199500Y-135750170D01*
X124199500Y-135767667D01*
X124177826Y-135819993D01*
X124155391Y-135835361D01*
X124127239Y-135847791D01*
X124127236Y-135847793D01*
X124047793Y-135927235D01*
X124042694Y-135938784D01*
X124001731Y-135977896D01*
X123945109Y-135976587D01*
X123907306Y-135938784D01*
X123902206Y-135927235D01*
X123866941Y-135891970D01*
X123822765Y-135847794D01*
X123822763Y-135847793D01*
X123822760Y-135847791D01*
X123794609Y-135835361D01*
X123755497Y-135794398D01*
X123750500Y-135767667D01*
X123750500Y-135700172D01*
X123750499Y-135700170D01*
X123712365Y-135608105D01*
X123712363Y-135608102D01*
X123391898Y-135287637D01*
X123391894Y-135287634D01*
X123299828Y-135249500D01*
X122634413Y-135249500D01*
X122582087Y-135227826D01*
X120821674Y-133467413D01*
X120800000Y-133415087D01*
X120800000Y-130157288D01*
X120801422Y-130142852D01*
X120806781Y-130115905D01*
X120816158Y-130068764D01*
X120827205Y-130042093D01*
X120865045Y-129985461D01*
X120885462Y-129965045D01*
X120942093Y-129927205D01*
X120968764Y-129916158D01*
X121015905Y-129906781D01*
X121042852Y-129901422D01*
X121057288Y-129900000D01*
X125526604Y-129900000D01*
X125578930Y-129921674D01*
G37*
%TD.AperFunction*%
%TD*%
%TA.AperFunction,Conductor*%
%TO.N,/LED/LED+*%
G36*
X117191441Y-131597174D02*
G01*
X117206162Y-131621592D01*
X117206903Y-131621230D01*
X117260801Y-131731482D01*
X117260802Y-131731483D01*
X117343517Y-131814198D01*
X117448607Y-131865573D01*
X117516740Y-131875500D01*
X117879455Y-131875500D01*
X117931781Y-131897174D01*
X117953455Y-131949500D01*
X117931781Y-132001826D01*
X117254517Y-132679090D01*
X117201792Y-132770412D01*
X117201793Y-132770413D01*
X117174500Y-132872273D01*
X117174500Y-133231845D01*
X117152826Y-133284171D01*
X117134096Y-133297779D01*
X117086657Y-133321950D01*
X116996951Y-133411656D01*
X116939353Y-133524698D01*
X116924500Y-133618480D01*
X116924500Y-134631519D01*
X116939353Y-134725304D01*
X116939354Y-134725306D01*
X116964882Y-134775406D01*
X116996950Y-134838342D01*
X117086658Y-134928050D01*
X117199696Y-134985646D01*
X117293481Y-135000500D01*
X117528074Y-135000499D01*
X117538926Y-135001299D01*
X117552608Y-135003329D01*
X117567045Y-135004751D01*
X117582288Y-135005500D01*
X118143557Y-135005500D01*
X118195883Y-135027174D01*
X118200048Y-135031700D01*
X118626991Y-135536268D01*
X118644500Y-135584068D01*
X118644500Y-136125000D01*
X116625000Y-136125000D01*
X116125000Y-135625000D01*
X116125000Y-134947586D01*
X116163342Y-134928050D01*
X116253050Y-134838342D01*
X116310646Y-134725304D01*
X116325500Y-134631519D01*
X116325499Y-133618482D01*
X116310646Y-133524696D01*
X116310646Y-133524695D01*
X116310645Y-133524693D01*
X116253049Y-133411657D01*
X116163341Y-133321949D01*
X116158632Y-133318528D01*
X116159987Y-133316662D01*
X116128618Y-133279921D01*
X116125000Y-133257066D01*
X116125000Y-131949500D01*
X116146674Y-131897174D01*
X116199000Y-131875500D01*
X116210630Y-131875500D01*
X116210636Y-131875500D01*
X116283625Y-131864866D01*
X116396211Y-131809826D01*
X116484826Y-131721211D01*
X116535772Y-131616998D01*
X116578225Y-131579509D01*
X116602253Y-131575500D01*
X117139115Y-131575500D01*
X117191441Y-131597174D01*
G37*
%TD.AperFunction*%
%TA.AperFunction,Conductor*%
G36*
X120007148Y-129901422D02*
G01*
X120051363Y-129910216D01*
X120081233Y-129916158D01*
X120107909Y-129927207D01*
X120164537Y-129965045D01*
X120184954Y-129985462D01*
X120222792Y-130042090D01*
X120233841Y-130068765D01*
X120248578Y-130142851D01*
X120250000Y-130157288D01*
X120250000Y-133221805D01*
X120228326Y-133274131D01*
X120176000Y-133295805D01*
X120134891Y-133283336D01*
X120126920Y-133278010D01*
X120074598Y-133256338D01*
X120074588Y-133256335D01*
X120034741Y-133248409D01*
X120015087Y-133244500D01*
X120015085Y-133244500D01*
X118049500Y-133244500D01*
X117997174Y-133222826D01*
X117975500Y-133170500D01*
X117975500Y-133121545D01*
X117997174Y-133069219D01*
X118480397Y-132585996D01*
X118997480Y-132068913D01*
X119050206Y-131977588D01*
X119050207Y-131977587D01*
X119077500Y-131875727D01*
X119077500Y-130269544D01*
X119099174Y-130217218D01*
X119394718Y-129921674D01*
X119447044Y-129900000D01*
X119992712Y-129900000D01*
X120007148Y-129901422D01*
G37*
%TD.AperFunction*%
%TD*%
%TA.AperFunction,Conductor*%
%TO.N,GND*%
G36*
X116250031Y-138205911D02*
G01*
X116290072Y-138212252D01*
X116312091Y-138219406D01*
X116360360Y-138244000D01*
X116379091Y-138257609D01*
X116417391Y-138295909D01*
X116430997Y-138314636D01*
X116439383Y-138331093D01*
X116464406Y-138380200D01*
X116477146Y-138400990D01*
X116477164Y-138401017D01*
X116490738Y-138419700D01*
X116493195Y-138422989D01*
X116557054Y-138471989D01*
X116609380Y-138493663D01*
X116668887Y-138505500D01*
X116845500Y-138505500D01*
X116897826Y-138527174D01*
X116919500Y-138579500D01*
X116919500Y-139617711D01*
X116919631Y-139620368D01*
X116920249Y-139632962D01*
X116921671Y-139647391D01*
X116923907Y-139662471D01*
X116938642Y-139736552D01*
X116938648Y-139736578D01*
X116947488Y-139765720D01*
X116947498Y-139765750D01*
X116958542Y-139792411D01*
X116958541Y-139792411D01*
X116972916Y-139819305D01*
X117010747Y-139875922D01*
X117010752Y-139875929D01*
X117013316Y-139879053D01*
X117029759Y-139933250D01*
X117003063Y-139983201D01*
X116956115Y-140000000D01*
X114874000Y-140000000D01*
X114821674Y-139978326D01*
X114800000Y-139926000D01*
X114800000Y-138392501D01*
X114821674Y-138340175D01*
X114874000Y-138318501D01*
X114893147Y-138321021D01*
X114930730Y-138331093D01*
X115010535Y-138320588D01*
X115062861Y-138298915D01*
X115113311Y-138265206D01*
X115120909Y-138257606D01*
X115139634Y-138244001D01*
X115187904Y-138219406D01*
X115209918Y-138212253D01*
X115233420Y-138208531D01*
X115249970Y-138205911D01*
X115261544Y-138205000D01*
X116238456Y-138205000D01*
X116250031Y-138205911D01*
G37*
%TD.AperFunction*%
%TA.AperFunction,Conductor*%
G36*
X127159595Y-137243167D02*
G01*
X127196378Y-137286234D01*
X127200000Y-137309102D01*
X127200000Y-139926000D01*
X127178326Y-139978326D01*
X127126000Y-140000000D01*
X122968884Y-140000000D01*
X122916558Y-139978326D01*
X122894884Y-139926000D01*
X122911682Y-139879054D01*
X122914247Y-139875929D01*
X122952085Y-139819301D01*
X122966456Y-139792416D01*
X122977505Y-139765741D01*
X122986353Y-139736571D01*
X123001090Y-139662485D01*
X123003329Y-139647391D01*
X123004751Y-139632954D01*
X123005369Y-139620366D01*
X123029585Y-139569169D01*
X123079280Y-139550000D01*
X123200000Y-139550000D01*
X123200000Y-139474000D01*
X123221674Y-139421674D01*
X123274000Y-139400000D01*
X123726000Y-139400000D01*
X123778326Y-139421674D01*
X123800000Y-139474000D01*
X123800000Y-139550000D01*
X123994378Y-139550000D01*
X124046704Y-139571674D01*
X124047793Y-139572763D01*
X124047794Y-139572765D01*
X124127235Y-139652206D01*
X124230009Y-139697585D01*
X124255135Y-139700500D01*
X124644864Y-139700499D01*
X124669991Y-139697585D01*
X124772765Y-139652206D01*
X124852206Y-139572765D01*
X124897585Y-139469991D01*
X124900500Y-139444865D01*
X124900500Y-139237000D01*
X124922174Y-139184674D01*
X124974500Y-139163000D01*
X125042298Y-139163000D01*
X125042300Y-139163000D01*
X125143558Y-139121057D01*
X125221057Y-139043558D01*
X125221056Y-139043558D01*
X125483557Y-138781059D01*
X125504109Y-138731442D01*
X125525500Y-138679800D01*
X125525500Y-137530383D01*
X125547174Y-137478057D01*
X125599500Y-137456383D01*
X125633093Y-137464448D01*
X125674696Y-137485646D01*
X125768481Y-137500500D01*
X126731518Y-137500499D01*
X126731519Y-137500499D01*
X126825304Y-137485646D01*
X126825306Y-137485645D01*
X126866905Y-137464449D01*
X126938342Y-137428050D01*
X127028050Y-137338342D01*
X127060067Y-137275505D01*
X127103132Y-137238724D01*
X127159595Y-137243167D01*
G37*
%TD.AperFunction*%
%TA.AperFunction,Conductor*%
G36*
X121722527Y-136737143D02*
G01*
X121831441Y-136846057D01*
X121831440Y-136846057D01*
X121861099Y-136858341D01*
X121932700Y-136888000D01*
X122025501Y-136888000D01*
X122077827Y-136909674D01*
X122099501Y-136962000D01*
X122099501Y-137169863D01*
X122102414Y-137194986D01*
X122102415Y-137194992D01*
X122126002Y-137248411D01*
X122147794Y-137297765D01*
X122227235Y-137377206D01*
X122330009Y-137422585D01*
X122355135Y-137425500D01*
X122744864Y-137425499D01*
X122769991Y-137422585D01*
X122872765Y-137377206D01*
X122952206Y-137297765D01*
X122957305Y-137286215D01*
X122998268Y-137247103D01*
X123054890Y-137248411D01*
X123092694Y-137286215D01*
X123097794Y-137297765D01*
X123177235Y-137377206D01*
X123280009Y-137422585D01*
X123305135Y-137425500D01*
X123694864Y-137425499D01*
X123719991Y-137422585D01*
X123822765Y-137377206D01*
X123902206Y-137297765D01*
X123907305Y-137286215D01*
X123948268Y-137247103D01*
X124004890Y-137248411D01*
X124042694Y-137286215D01*
X124047794Y-137297765D01*
X124127235Y-137377206D01*
X124230009Y-137422585D01*
X124255135Y-137425500D01*
X124644864Y-137425499D01*
X124669991Y-137422585D01*
X124772765Y-137377206D01*
X124848174Y-137301797D01*
X124900500Y-137280123D01*
X124952826Y-137301797D01*
X124974500Y-137354123D01*
X124974500Y-138145877D01*
X124952826Y-138198203D01*
X124900500Y-138219877D01*
X124848174Y-138198203D01*
X124772765Y-138122794D01*
X124704633Y-138092711D01*
X124669991Y-138077415D01*
X124669990Y-138077414D01*
X124669988Y-138077414D01*
X124648659Y-138074940D01*
X124644865Y-138074500D01*
X124644864Y-138074500D01*
X124255136Y-138074500D01*
X124230013Y-138077414D01*
X124230007Y-138077415D01*
X124127234Y-138122794D01*
X124104152Y-138145877D01*
X124047794Y-138202235D01*
X124047793Y-138202236D01*
X124046704Y-138203326D01*
X123994378Y-138225000D01*
X123800000Y-138225000D01*
X123800000Y-138301000D01*
X123778326Y-138353326D01*
X123726000Y-138375000D01*
X123274000Y-138375000D01*
X123221674Y-138353326D01*
X123200000Y-138301000D01*
X123200000Y-138225000D01*
X123005622Y-138225000D01*
X122953296Y-138203326D01*
X122952206Y-138202236D01*
X122952206Y-138202235D01*
X122872765Y-138122794D01*
X122769991Y-138077415D01*
X122769990Y-138077414D01*
X122769988Y-138077414D01*
X122744865Y-138074500D01*
X122643368Y-138074500D01*
X122632510Y-138073699D01*
X122618836Y-138071670D01*
X122604410Y-138070249D01*
X122598474Y-138069957D01*
X122589159Y-138069500D01*
X122589148Y-138069500D01*
X122220062Y-138069500D01*
X122167736Y-138047826D01*
X121813331Y-137693421D01*
X121802024Y-137683172D01*
X121790810Y-137673969D01*
X121790796Y-137673958D01*
X121778560Y-137664884D01*
X121778524Y-137664858D01*
X121715747Y-137622913D01*
X121715734Y-137622906D01*
X121688866Y-137608546D01*
X121688863Y-137608544D01*
X121688860Y-137608543D01*
X121682386Y-137605861D01*
X121662181Y-137597492D01*
X121633017Y-137588646D01*
X121633006Y-137588643D01*
X121558946Y-137573913D01*
X121558931Y-137573910D01*
X121558919Y-137573908D01*
X121558901Y-137573905D01*
X121543837Y-137571670D01*
X121529410Y-137570249D01*
X121523474Y-137569957D01*
X121514159Y-137569500D01*
X121514148Y-137569500D01*
X118854500Y-137569500D01*
X118802174Y-137547826D01*
X118780500Y-137495500D01*
X118780500Y-137157930D01*
X118802174Y-137105604D01*
X118854500Y-137083930D01*
X118888091Y-137091994D01*
X118924696Y-137110646D01*
X119018481Y-137125500D01*
X119106623Y-137125499D01*
X119117480Y-137126300D01*
X119120842Y-137126798D01*
X119131161Y-137128329D01*
X119145598Y-137129751D01*
X119160841Y-137130500D01*
X119160851Y-137130500D01*
X121089149Y-137130500D01*
X121089159Y-137130500D01*
X121104402Y-137129751D01*
X121118839Y-137128329D01*
X121132525Y-137126298D01*
X121143378Y-137125499D01*
X121231519Y-137125499D01*
X121325304Y-137110646D01*
X121325306Y-137110645D01*
X121335199Y-137105604D01*
X121438342Y-137053050D01*
X121528050Y-136963342D01*
X121585646Y-136850304D01*
X121597114Y-136777892D01*
X121626706Y-136729603D01*
X121681779Y-136716381D01*
X121722527Y-136737143D01*
G37*
%TD.AperFunction*%
%TA.AperFunction,Conductor*%
G36*
X129227493Y-129647174D02*
G01*
X129249167Y-129699500D01*
X129227493Y-129751826D01*
X129185801Y-129793517D01*
X129134427Y-129898605D01*
X129134427Y-129898606D01*
X129124500Y-129966735D01*
X129124500Y-130433264D01*
X129134427Y-130501393D01*
X129134427Y-130501394D01*
X129185801Y-130606482D01*
X129185802Y-130606483D01*
X129268517Y-130689198D01*
X129373607Y-130740573D01*
X129441740Y-130750500D01*
X129441746Y-130750500D01*
X130058254Y-130750500D01*
X130058260Y-130750500D01*
X130126393Y-130740573D01*
X130231483Y-130689198D01*
X130314198Y-130606483D01*
X130365573Y-130501393D01*
X130365573Y-130501392D01*
X130368097Y-130496230D01*
X130369814Y-130497069D01*
X130401338Y-130459059D01*
X130435885Y-130450500D01*
X130564115Y-130450500D01*
X130616441Y-130472174D01*
X130631162Y-130496592D01*
X130631903Y-130496230D01*
X130685801Y-130606482D01*
X130685802Y-130606483D01*
X130768517Y-130689198D01*
X130873607Y-130740573D01*
X130936169Y-130749688D01*
X130984823Y-130778680D01*
X130999500Y-130822915D01*
X130999500Y-131049829D01*
X131037634Y-131141894D01*
X131037637Y-131141898D01*
X131077826Y-131182087D01*
X131099500Y-131234413D01*
X131099500Y-131414114D01*
X131077826Y-131466440D01*
X131053407Y-131481163D01*
X131053769Y-131481903D01*
X130943517Y-131535801D01*
X130860801Y-131618517D01*
X130809427Y-131723605D01*
X130809427Y-131723606D01*
X130799500Y-131791735D01*
X130799500Y-133458264D01*
X130809427Y-133526393D01*
X130809427Y-133526394D01*
X130860801Y-133631482D01*
X130860802Y-133631483D01*
X130943517Y-133714198D01*
X131048607Y-133765573D01*
X131116740Y-133775500D01*
X131116746Y-133775500D01*
X131583254Y-133775500D01*
X131583260Y-133775500D01*
X131651393Y-133765573D01*
X131756483Y-133714198D01*
X131839198Y-133631483D01*
X131859519Y-133589914D01*
X131901972Y-133552425D01*
X131958500Y-133555934D01*
X131995990Y-133598387D01*
X132000000Y-133622415D01*
X132000000Y-134326000D01*
X131978326Y-134378326D01*
X131926000Y-134400000D01*
X127800000Y-134400000D01*
X127737076Y-134402053D01*
X127721343Y-134402567D01*
X127721340Y-134402568D01*
X127569403Y-134443279D01*
X127569397Y-134443282D01*
X127433166Y-134521934D01*
X127321934Y-134633166D01*
X127243282Y-134769397D01*
X127243279Y-134769403D01*
X127202568Y-134921340D01*
X127202567Y-134921343D01*
X127200000Y-135000012D01*
X127200000Y-136365896D01*
X127178326Y-136418222D01*
X127126000Y-136439896D01*
X127073674Y-136418222D01*
X127060066Y-136399492D01*
X127047138Y-136374121D01*
X127028050Y-136336658D01*
X126938342Y-136246950D01*
X126938341Y-136246949D01*
X126933632Y-136243528D01*
X126935117Y-136241483D01*
X126904119Y-136205178D01*
X126900500Y-136182321D01*
X126900500Y-135935932D01*
X126875502Y-135810260D01*
X126875501Y-135810257D01*
X126872253Y-135802415D01*
X126826465Y-135691873D01*
X126816770Y-135677363D01*
X126755277Y-135585331D01*
X126552174Y-135382228D01*
X126530500Y-135329902D01*
X126530500Y-134407912D01*
X126518664Y-134348409D01*
X126518663Y-134348408D01*
X126518663Y-134348404D01*
X126496989Y-134296078D01*
X126496983Y-134296067D01*
X126476694Y-134260924D01*
X126476693Y-134260923D01*
X126468178Y-134254389D01*
X126439861Y-134205338D01*
X126454521Y-134150632D01*
X126460894Y-134143364D01*
X126631488Y-133972771D01*
X126631491Y-133972769D01*
X126641896Y-133962364D01*
X126641897Y-133962364D01*
X126712364Y-133891897D01*
X126750500Y-133799828D01*
X126750500Y-131719976D01*
X126772173Y-131667651D01*
X127631488Y-130808335D01*
X127631491Y-130808334D01*
X127641896Y-130797929D01*
X127641897Y-130797929D01*
X127712364Y-130727462D01*
X127735358Y-130671950D01*
X127750501Y-130635392D01*
X127750501Y-130535737D01*
X127750501Y-130529779D01*
X127750500Y-130529765D01*
X127750500Y-129884413D01*
X127772174Y-129832087D01*
X127957087Y-129647174D01*
X128009413Y-129625500D01*
X129175167Y-129625500D01*
X129227493Y-129647174D01*
G37*
%TD.AperFunction*%
%TA.AperFunction,Conductor*%
G36*
X127178326Y-100021674D02*
G01*
X127200000Y-100074000D01*
X127200000Y-104999987D01*
X127202567Y-105078656D01*
X127202568Y-105078659D01*
X127243279Y-105230596D01*
X127243280Y-105230598D01*
X127243281Y-105230601D01*
X127321934Y-105366833D01*
X127433167Y-105478066D01*
X127569399Y-105556719D01*
X127721346Y-105597433D01*
X127800000Y-105600000D01*
X131926000Y-105600000D01*
X131978326Y-105621674D01*
X132000000Y-105674000D01*
X132000000Y-111217087D01*
X131978326Y-111269413D01*
X131926000Y-111291087D01*
X131873674Y-111269413D01*
X130881598Y-110277337D01*
X130881594Y-110277334D01*
X130789528Y-110239200D01*
X129699693Y-110239200D01*
X129600037Y-110239200D01*
X129507970Y-110277334D01*
X128942334Y-110842970D01*
X128904200Y-110935035D01*
X128904200Y-111734964D01*
X128942334Y-111827029D01*
X128942337Y-111827033D01*
X128943478Y-111828174D01*
X128944095Y-111829665D01*
X128946386Y-111833093D01*
X128945704Y-111833548D01*
X128965152Y-111880500D01*
X128943478Y-111932826D01*
X128891152Y-111954500D01*
X128850180Y-111954500D01*
X128828229Y-111958866D01*
X128806277Y-111963233D01*
X128756496Y-111996495D01*
X128756495Y-111996496D01*
X128723233Y-112046277D01*
X128714500Y-112090180D01*
X128714500Y-112280500D01*
X128692826Y-112332826D01*
X128640500Y-112354500D01*
X125593282Y-112354500D01*
X125540956Y-112332826D01*
X124945767Y-111737636D01*
X124945764Y-111737634D01*
X124853698Y-111699500D01*
X123584413Y-111699500D01*
X123532087Y-111677826D01*
X122252297Y-110398036D01*
X122230623Y-110345710D01*
X122252297Y-110293384D01*
X122268347Y-110277334D01*
X122314198Y-110231483D01*
X122365573Y-110126393D01*
X122375500Y-110058260D01*
X122375500Y-109471008D01*
X122397174Y-109418682D01*
X122449500Y-109397008D01*
X122468649Y-109399529D01*
X122472273Y-109400500D01*
X122665433Y-109400500D01*
X122717759Y-109422174D01*
X122726959Y-109433383D01*
X122757049Y-109478416D01*
X122861584Y-109582951D01*
X122984505Y-109665084D01*
X123121087Y-109721658D01*
X123266082Y-109750500D01*
X123266084Y-109750500D01*
X123813916Y-109750500D01*
X123813918Y-109750500D01*
X123958913Y-109721658D01*
X124095495Y-109665084D01*
X124218416Y-109582951D01*
X124322951Y-109478416D01*
X124405084Y-109355495D01*
X124461658Y-109218913D01*
X124490500Y-109073918D01*
X124490500Y-108926082D01*
X124461658Y-108781087D01*
X124405084Y-108644505D01*
X124322951Y-108521584D01*
X124218416Y-108417049D01*
X124157719Y-108376492D01*
X124095494Y-108334915D01*
X123958917Y-108278343D01*
X123958907Y-108278340D01*
X123861811Y-108259026D01*
X123813918Y-108249500D01*
X123266082Y-108249500D01*
X123224977Y-108257676D01*
X123121092Y-108278340D01*
X123121082Y-108278343D01*
X122984505Y-108334915D01*
X122861584Y-108417048D01*
X122861583Y-108417049D01*
X122757047Y-108521586D01*
X122757045Y-108521588D01*
X122749435Y-108532978D01*
X122702342Y-108564442D01*
X122646793Y-108553390D01*
X122635582Y-108544189D01*
X122397174Y-108305781D01*
X122375500Y-108253455D01*
X122375500Y-108102353D01*
X127824500Y-108102353D01*
X127856522Y-108304531D01*
X127856525Y-108304544D01*
X127919777Y-108499213D01*
X128012712Y-108681610D01*
X128084983Y-108781082D01*
X128133034Y-108847219D01*
X128277781Y-108991966D01*
X128358347Y-109050500D01*
X128443389Y-109112287D01*
X128522966Y-109152833D01*
X128625781Y-109205220D01*
X128625783Y-109205220D01*
X128625786Y-109205222D01*
X128820455Y-109268474D01*
X128820461Y-109268475D01*
X128820466Y-109268477D01*
X128921557Y-109284488D01*
X129022646Y-109300500D01*
X129022648Y-109300500D01*
X129227354Y-109300500D01*
X129308224Y-109287690D01*
X129429534Y-109268477D01*
X129429541Y-109268474D01*
X129429544Y-109268474D01*
X129624213Y-109205222D01*
X129624213Y-109205221D01*
X129624219Y-109205220D01*
X129806610Y-109112287D01*
X129972219Y-108991966D01*
X130116966Y-108847219D01*
X130237287Y-108681610D01*
X130330220Y-108499219D01*
X130356919Y-108417048D01*
X130393474Y-108304544D01*
X130393474Y-108304541D01*
X130393477Y-108304534D01*
X130425500Y-108102352D01*
X130425500Y-107897648D01*
X130424506Y-107891375D01*
X130393477Y-107695468D01*
X130393474Y-107695455D01*
X130330222Y-107500786D01*
X130330220Y-107500783D01*
X130330220Y-107500781D01*
X130282079Y-107406300D01*
X130237287Y-107318389D01*
X130151272Y-107200000D01*
X130116966Y-107152781D01*
X129972219Y-107008034D01*
X129903292Y-106957956D01*
X129806610Y-106887712D01*
X129624213Y-106794777D01*
X129429544Y-106731525D01*
X129429531Y-106731522D01*
X129227354Y-106699500D01*
X129227352Y-106699500D01*
X129022648Y-106699500D01*
X129022646Y-106699500D01*
X128820468Y-106731522D01*
X128820455Y-106731525D01*
X128625786Y-106794777D01*
X128443389Y-106887712D01*
X128277785Y-107008031D01*
X128277781Y-107008034D01*
X128133034Y-107152781D01*
X128133031Y-107152784D01*
X128133031Y-107152785D01*
X128012712Y-107318389D01*
X127919777Y-107500786D01*
X127856525Y-107695455D01*
X127856522Y-107695468D01*
X127824500Y-107897646D01*
X127824500Y-108102353D01*
X122375500Y-108102353D01*
X122375500Y-107964370D01*
X122375500Y-107964364D01*
X122364866Y-107891375D01*
X122309826Y-107778789D01*
X122221211Y-107690174D01*
X122221210Y-107690173D01*
X122108626Y-107635134D01*
X122035640Y-107624500D01*
X122035636Y-107624500D01*
X121514364Y-107624500D01*
X121514359Y-107624500D01*
X121441374Y-107635134D01*
X121441373Y-107635134D01*
X121328789Y-107690173D01*
X121240173Y-107778789D01*
X121185134Y-107891373D01*
X121185134Y-107891374D01*
X121174500Y-107964359D01*
X121174500Y-108324166D01*
X121152826Y-108376492D01*
X120719530Y-108809787D01*
X120687731Y-108864866D01*
X120673386Y-108889710D01*
X120673384Y-108889715D01*
X120649500Y-108978853D01*
X120649500Y-109100507D01*
X120627826Y-109152833D01*
X120575500Y-109174507D01*
X120543000Y-109166988D01*
X120476395Y-109134428D01*
X120476393Y-109134427D01*
X120408264Y-109124500D01*
X120408260Y-109124500D01*
X119941740Y-109124500D01*
X119941735Y-109124500D01*
X119873606Y-109134427D01*
X119873605Y-109134427D01*
X119768517Y-109185801D01*
X119685801Y-109268517D01*
X119634427Y-109373605D01*
X119634427Y-109373606D01*
X119624500Y-109441735D01*
X119624500Y-110058264D01*
X119634427Y-110126393D01*
X119634427Y-110126394D01*
X119685801Y-110231482D01*
X119685802Y-110231483D01*
X119768517Y-110314198D01*
X119858000Y-110357943D01*
X119895490Y-110400396D01*
X119899500Y-110424424D01*
X119899500Y-110769800D01*
X119936674Y-110859544D01*
X119941443Y-110871058D01*
X119941444Y-110871059D01*
X120277113Y-111206728D01*
X120298787Y-111259054D01*
X120294635Y-111283494D01*
X120263688Y-111371937D01*
X120263687Y-111371940D01*
X120244751Y-111540000D01*
X120263687Y-111708059D01*
X120263689Y-111708067D01*
X120319544Y-111867691D01*
X120409519Y-112010885D01*
X120409521Y-112010887D01*
X120409523Y-112010890D01*
X120529110Y-112130477D01*
X120529112Y-112130478D01*
X120529114Y-112130480D01*
X120672308Y-112220455D01*
X120672310Y-112220456D01*
X120831941Y-112276313D01*
X121000000Y-112295249D01*
X121168059Y-112276313D01*
X121327690Y-112220456D01*
X121470890Y-112130477D01*
X121590477Y-112010890D01*
X121680456Y-111867690D01*
X121736313Y-111708059D01*
X121752603Y-111563475D01*
X121780000Y-111513907D01*
X121834424Y-111498228D01*
X121878464Y-111519437D01*
X123016497Y-112657470D01*
X123096421Y-112703614D01*
X123096422Y-112703614D01*
X123096424Y-112703615D01*
X123140993Y-112715557D01*
X123185562Y-112727499D01*
X123185563Y-112727500D01*
X123185565Y-112727500D01*
X124451166Y-112727500D01*
X124503492Y-112749174D01*
X125377826Y-113623508D01*
X125399500Y-113675834D01*
X125399500Y-117288565D01*
X125377826Y-117340891D01*
X125370550Y-117347272D01*
X125357381Y-117357376D01*
X125334151Y-117387649D01*
X125289722Y-117445549D01*
X125240675Y-117473867D01*
X125231016Y-117474500D01*
X125144768Y-117474500D01*
X125092442Y-117452826D01*
X124656059Y-117016444D01*
X124656055Y-117016441D01*
X124640083Y-117009826D01*
X124608807Y-116996871D01*
X124554800Y-116974500D01*
X121829800Y-116974500D01*
X121720200Y-116974500D01*
X121618944Y-117016440D01*
X121232558Y-117402826D01*
X121180232Y-117424500D01*
X120714359Y-117424500D01*
X120641374Y-117435134D01*
X120641373Y-117435134D01*
X120528789Y-117490173D01*
X120440173Y-117578789D01*
X120385134Y-117691373D01*
X120385134Y-117691374D01*
X120374500Y-117764359D01*
X120374500Y-118285640D01*
X120385134Y-118358625D01*
X120385134Y-118358626D01*
X120440173Y-118471210D01*
X120528789Y-118559826D01*
X120601418Y-118595332D01*
X120638908Y-118637785D01*
X120635399Y-118694313D01*
X120621244Y-118714139D01*
X120407558Y-118927826D01*
X120355232Y-118949500D01*
X118810180Y-118949500D01*
X118788229Y-118953866D01*
X118766277Y-118958233D01*
X118716496Y-118991495D01*
X118716495Y-118991496D01*
X118683233Y-119041277D01*
X118674500Y-119085180D01*
X118674500Y-120900500D01*
X118652826Y-120952826D01*
X118600500Y-120974500D01*
X117447271Y-120974500D01*
X117345417Y-121001791D01*
X117345408Y-121001795D01*
X117295691Y-121030500D01*
X117254086Y-121054520D01*
X116554517Y-121754090D01*
X116501792Y-121845412D01*
X116501793Y-121845413D01*
X116474500Y-121947273D01*
X116474500Y-122853455D01*
X116452826Y-122905781D01*
X116135781Y-123222826D01*
X116083455Y-123244500D01*
X112307288Y-123244500D01*
X112298462Y-123244933D01*
X112292036Y-123245249D01*
X112277597Y-123246672D01*
X112262514Y-123248909D01*
X112226014Y-123256168D01*
X112223158Y-123256678D01*
X112174695Y-123264354D01*
X112158972Y-123272365D01*
X112153697Y-123274797D01*
X112132582Y-123283543D01*
X112105707Y-123297908D01*
X112105691Y-123297917D01*
X112099261Y-123302214D01*
X112091750Y-123306616D01*
X112061657Y-123321950D01*
X112061652Y-123321954D01*
X112044865Y-123338740D01*
X112039490Y-123343612D01*
X112025517Y-123355079D01*
X112025509Y-123355087D01*
X112005093Y-123375502D01*
X111993610Y-123389493D01*
X111988739Y-123394866D01*
X111971953Y-123411652D01*
X111971947Y-123411661D01*
X111956614Y-123441753D01*
X111952215Y-123449258D01*
X111949619Y-123453145D01*
X111947910Y-123455703D01*
X111933539Y-123482590D01*
X111924797Y-123503697D01*
X111922365Y-123508972D01*
X111914354Y-123524695D01*
X111906675Y-123573173D01*
X111906165Y-123576028D01*
X111898913Y-123612494D01*
X111898907Y-123612528D01*
X111896672Y-123627597D01*
X111895249Y-123642036D01*
X111895249Y-123642044D01*
X111894500Y-123657288D01*
X111894500Y-125360370D01*
X111903588Y-125412750D01*
X111915602Y-125446334D01*
X111920380Y-125459688D01*
X111920387Y-125459704D01*
X111930655Y-125480966D01*
X111933893Y-125537510D01*
X111925548Y-125554257D01*
X111896741Y-125597370D01*
X111832665Y-125752063D01*
X111832663Y-125752070D01*
X111808211Y-125874999D01*
X111808212Y-125875000D01*
X112570265Y-125875000D01*
X112550000Y-125950630D01*
X112550000Y-126049370D01*
X112570265Y-126125000D01*
X111808211Y-126125000D01*
X111832663Y-126247929D01*
X111832665Y-126247936D01*
X111896740Y-126402626D01*
X111989761Y-126541843D01*
X112108156Y-126660238D01*
X112247373Y-126753259D01*
X112402063Y-126817334D01*
X112402069Y-126817336D01*
X112566284Y-126850000D01*
X112800000Y-126850000D01*
X112800000Y-126354734D01*
X112875630Y-126375000D01*
X112974370Y-126375000D01*
X113050000Y-126354734D01*
X113050000Y-126850000D01*
X113283716Y-126850000D01*
X113447930Y-126817336D01*
X113447936Y-126817334D01*
X113602626Y-126753259D01*
X113741843Y-126660238D01*
X113836998Y-126565083D01*
X113889324Y-126543409D01*
X113903760Y-126544831D01*
X113957398Y-126555500D01*
X116044347Y-126555500D01*
X116044348Y-126555500D01*
X116062340Y-126551921D01*
X116076777Y-126550499D01*
X116119863Y-126550499D01*
X116119864Y-126550499D01*
X116144991Y-126547585D01*
X116247765Y-126502206D01*
X116327206Y-126422765D01*
X116327206Y-126422763D01*
X116328296Y-126421674D01*
X116380622Y-126400000D01*
X116575000Y-126400000D01*
X116575000Y-126324000D01*
X116596674Y-126271674D01*
X116649000Y-126250000D01*
X117101000Y-126250000D01*
X117153326Y-126271674D01*
X117175000Y-126324000D01*
X117175000Y-126400000D01*
X117369378Y-126400000D01*
X117421704Y-126421674D01*
X117422793Y-126422763D01*
X117422794Y-126422765D01*
X117502235Y-126502206D01*
X117605009Y-126547585D01*
X117630135Y-126550500D01*
X118019864Y-126550499D01*
X118044991Y-126547585D01*
X118147765Y-126502206D01*
X118227206Y-126422765D01*
X118232805Y-126410083D01*
X118273767Y-126370971D01*
X118330389Y-126372278D01*
X118369502Y-126413240D01*
X118374500Y-126439973D01*
X118374500Y-127310026D01*
X118352826Y-127362352D01*
X118300500Y-127384026D01*
X118248174Y-127362352D01*
X118232805Y-127339916D01*
X118227206Y-127327235D01*
X118147765Y-127247794D01*
X118044991Y-127202415D01*
X118044990Y-127202414D01*
X118044988Y-127202414D01*
X118023659Y-127199940D01*
X118019865Y-127199500D01*
X118019864Y-127199500D01*
X117630136Y-127199500D01*
X117605013Y-127202414D01*
X117605007Y-127202415D01*
X117502234Y-127247794D01*
X117422794Y-127327234D01*
X117387951Y-127406147D01*
X117346988Y-127445260D01*
X117290366Y-127443952D01*
X117254996Y-127411144D01*
X117252085Y-127405698D01*
X117214247Y-127349070D01*
X117194909Y-127325507D01*
X117174492Y-127305090D01*
X117150929Y-127285752D01*
X117094304Y-127247916D01*
X117094305Y-127247916D01*
X117067411Y-127233541D01*
X117040735Y-127222492D01*
X117011571Y-127213646D01*
X117011560Y-127213643D01*
X116937499Y-127198913D01*
X116937484Y-127198910D01*
X116937472Y-127198908D01*
X116937454Y-127198905D01*
X116922390Y-127196670D01*
X116907963Y-127195249D01*
X116902027Y-127194957D01*
X116892712Y-127194500D01*
X112307288Y-127194500D01*
X112298462Y-127194933D01*
X112292036Y-127195249D01*
X112277597Y-127196672D01*
X112262516Y-127198909D01*
X112262484Y-127198914D01*
X112188430Y-127213644D01*
X112188427Y-127213644D01*
X112159266Y-127222491D01*
X112132585Y-127233542D01*
X112105696Y-127247914D01*
X112049076Y-127285747D01*
X112049055Y-127285763D01*
X112025525Y-127305073D01*
X112025515Y-127305081D01*
X112005091Y-127325504D01*
X111985751Y-127349069D01*
X111947905Y-127405710D01*
X111947904Y-127405713D01*
X111933544Y-127432580D01*
X111922491Y-127459266D01*
X111913644Y-127488427D01*
X111913644Y-127488430D01*
X111898914Y-127562484D01*
X111898909Y-127562516D01*
X111896672Y-127577597D01*
X111895249Y-127592036D01*
X111895249Y-127592044D01*
X111894500Y-127607288D01*
X111894500Y-129367711D01*
X111894790Y-129373605D01*
X111895249Y-129382962D01*
X111896671Y-129397391D01*
X111898907Y-129412471D01*
X111913642Y-129486552D01*
X111913648Y-129486578D01*
X111922488Y-129515720D01*
X111922498Y-129515750D01*
X111933542Y-129542411D01*
X111933541Y-129542411D01*
X111947916Y-129569305D01*
X111985465Y-129625500D01*
X111985752Y-129625929D01*
X112005090Y-129649492D01*
X112025507Y-129669909D01*
X112049070Y-129689247D01*
X112105698Y-129727085D01*
X112132583Y-129741456D01*
X112159258Y-129752505D01*
X112159264Y-129752506D01*
X112159267Y-129752508D01*
X112181135Y-129759141D01*
X112188428Y-129761353D01*
X112262514Y-129776090D01*
X112277608Y-129778329D01*
X112292045Y-129779751D01*
X112307288Y-129780500D01*
X113212757Y-129780500D01*
X113236158Y-129784297D01*
X113750374Y-129955702D01*
X113915495Y-130010742D01*
X113936494Y-130021745D01*
X114393652Y-130364614D01*
X114401578Y-130371488D01*
X114561668Y-130531578D01*
X114572975Y-130541827D01*
X114584189Y-130551030D01*
X114596446Y-130560120D01*
X114659253Y-130602086D01*
X114686137Y-130616456D01*
X114712812Y-130627505D01*
X114741981Y-130636353D01*
X114816066Y-130651090D01*
X114826848Y-130652689D01*
X114831147Y-130653327D01*
X114831148Y-130653327D01*
X114831161Y-130653329D01*
X114845598Y-130654751D01*
X114860841Y-130655500D01*
X116190053Y-130655500D01*
X116242379Y-130677174D01*
X116263420Y-130719841D01*
X116272525Y-130789005D01*
X116272526Y-130789009D01*
X116294199Y-130841332D01*
X116327907Y-130891780D01*
X116347790Y-130911663D01*
X116361945Y-130931488D01*
X116384414Y-130977449D01*
X116391160Y-130999282D01*
X116396157Y-131033585D01*
X116411047Y-131080903D01*
X116411048Y-131080907D01*
X116431949Y-131122562D01*
X116431952Y-131122567D01*
X116447569Y-131147489D01*
X116511428Y-131196489D01*
X116563754Y-131218163D01*
X116623261Y-131230000D01*
X116623263Y-131230000D01*
X117139114Y-131230000D01*
X117139115Y-131230000D01*
X117176509Y-131225437D01*
X117211056Y-131216878D01*
X117227689Y-131211754D01*
X117293357Y-131165205D01*
X117324880Y-131127194D01*
X117324879Y-131127193D01*
X117342109Y-131106419D01*
X117344100Y-131099972D01*
X117345273Y-131098592D01*
X117346602Y-131097066D01*
X117346601Y-131097066D01*
X117346604Y-131097064D01*
X117383685Y-131021209D01*
X117397833Y-131001393D01*
X117426393Y-130972833D01*
X117446210Y-130958683D01*
X117484686Y-130939874D01*
X117506515Y-130933130D01*
X117513241Y-130932150D01*
X117522700Y-130930773D01*
X117533365Y-130930000D01*
X118116630Y-130930000D01*
X118127299Y-130930773D01*
X118169414Y-130936909D01*
X118180594Y-130938127D01*
X118180604Y-130938127D01*
X118180616Y-130938129D01*
X118191254Y-130938900D01*
X118191258Y-130938899D01*
X118191261Y-130938900D01*
X118191263Y-130938899D01*
X118195564Y-130938711D01*
X118195627Y-130940160D01*
X118245808Y-130952040D01*
X118275552Y-131000238D01*
X118276500Y-131012044D01*
X118276500Y-131626454D01*
X118254826Y-131678780D01*
X118144008Y-131789597D01*
X118091682Y-131811271D01*
X118046634Y-131795979D01*
X117991290Y-131753512D01*
X117991286Y-131753510D01*
X117938966Y-131731838D01*
X117938956Y-131731835D01*
X117897578Y-131723605D01*
X117879455Y-131720000D01*
X117879453Y-131720000D01*
X117533372Y-131720000D01*
X117522702Y-131719227D01*
X117512407Y-131717727D01*
X117506513Y-131716868D01*
X117484683Y-131710122D01*
X117446215Y-131691316D01*
X117426390Y-131677161D01*
X117397837Y-131648608D01*
X117383682Y-131628782D01*
X117351687Y-131563334D01*
X117351489Y-131561471D01*
X117349398Y-131558003D01*
X117346801Y-131553234D01*
X117344618Y-131549942D01*
X117342914Y-131547248D01*
X117339332Y-131541307D01*
X117339333Y-131541307D01*
X117324612Y-131516889D01*
X117314807Y-131502511D01*
X117314805Y-131502509D01*
X117250950Y-131453512D01*
X117250946Y-131453510D01*
X117198626Y-131431838D01*
X117198616Y-131431835D01*
X117158769Y-131423909D01*
X117139115Y-131420000D01*
X116602253Y-131420000D01*
X116602245Y-131420000D01*
X116576665Y-131422119D01*
X116576659Y-131422120D01*
X116552649Y-131426126D01*
X116547364Y-131427102D01*
X116475296Y-131462950D01*
X116432841Y-131500441D01*
X116432840Y-131500443D01*
X116396070Y-131548706D01*
X116396068Y-131548708D01*
X116361944Y-131618510D01*
X116347790Y-131638335D01*
X116313335Y-131672790D01*
X116293510Y-131686945D01*
X116265778Y-131700502D01*
X116247546Y-131709415D01*
X116225717Y-131716161D01*
X116201841Y-131719640D01*
X116198851Y-131720004D01*
X116196136Y-131720470D01*
X116164068Y-131725145D01*
X116159896Y-131727778D01*
X116139494Y-131731836D01*
X116139490Y-131731837D01*
X116087173Y-131753508D01*
X116087156Y-131753516D01*
X116052013Y-131773805D01*
X116052011Y-131773807D01*
X116003012Y-131837664D01*
X116003010Y-131837668D01*
X115981338Y-131889988D01*
X115981335Y-131889998D01*
X115969500Y-131949501D01*
X115969500Y-133257065D01*
X115971412Y-133281376D01*
X115975037Y-133304270D01*
X115975717Y-133308236D01*
X116010355Y-133380886D01*
X116010356Y-133380887D01*
X116010357Y-133380888D01*
X116010358Y-133380890D01*
X116035668Y-133410534D01*
X116037802Y-133416319D01*
X116053386Y-133431903D01*
X116053386Y-133431904D01*
X116054937Y-133433455D01*
X116057762Y-133436512D01*
X116058192Y-133436710D01*
X116117390Y-133495909D01*
X116130998Y-133514638D01*
X116155589Y-133562899D01*
X116162744Y-133584918D01*
X116169088Y-133624968D01*
X116169999Y-133636545D01*
X116169999Y-134613454D01*
X116169088Y-134625030D01*
X116162745Y-134665077D01*
X116155590Y-134687097D01*
X116130999Y-134735359D01*
X116117391Y-134754089D01*
X116079089Y-134792391D01*
X116060366Y-134805995D01*
X116054418Y-134809026D01*
X116047255Y-134812916D01*
X116047250Y-134812919D01*
X116037342Y-134822826D01*
X115985018Y-134844500D01*
X115959670Y-134844500D01*
X115956226Y-134844771D01*
X115950421Y-134844999D01*
X115398655Y-134844999D01*
X115395752Y-134844942D01*
X115384499Y-134844500D01*
X115132288Y-134844500D01*
X115123462Y-134844933D01*
X115117036Y-134845249D01*
X115102597Y-134846672D01*
X115087516Y-134848909D01*
X115087484Y-134848914D01*
X115013430Y-134863644D01*
X115013427Y-134863644D01*
X114984266Y-134872491D01*
X114957585Y-134883542D01*
X114930704Y-134897910D01*
X114930701Y-134897911D01*
X114930701Y-134897912D01*
X114898206Y-134919624D01*
X114842659Y-134930673D01*
X114795566Y-134899208D01*
X114785618Y-134877253D01*
X114756719Y-134769399D01*
X114678066Y-134633167D01*
X114566833Y-134521934D01*
X114430601Y-134443281D01*
X114430598Y-134443280D01*
X114430596Y-134443279D01*
X114278659Y-134402568D01*
X114278656Y-134402567D01*
X114267417Y-134402200D01*
X114200000Y-134400000D01*
X114199988Y-134400000D01*
X110074000Y-134400000D01*
X110021674Y-134378326D01*
X110000000Y-134326000D01*
X110000000Y-132102353D01*
X111574500Y-132102353D01*
X111606522Y-132304531D01*
X111606525Y-132304544D01*
X111669777Y-132499213D01*
X111762712Y-132681610D01*
X111836406Y-132783040D01*
X111883034Y-132847219D01*
X112027781Y-132991966D01*
X112067175Y-133020587D01*
X112193389Y-133112287D01*
X112281300Y-133157079D01*
X112375781Y-133205220D01*
X112375783Y-133205220D01*
X112375786Y-133205222D01*
X112570455Y-133268474D01*
X112570461Y-133268475D01*
X112570466Y-133268477D01*
X112651906Y-133281376D01*
X112772646Y-133300500D01*
X112772648Y-133300500D01*
X112977354Y-133300500D01*
X113058224Y-133287690D01*
X113179534Y-133268477D01*
X113179541Y-133268474D01*
X113179544Y-133268474D01*
X113374213Y-133205222D01*
X113374213Y-133205221D01*
X113374219Y-133205220D01*
X113556610Y-133112287D01*
X113722219Y-132991966D01*
X113866966Y-132847219D01*
X113987287Y-132681610D01*
X114080220Y-132499219D01*
X114143477Y-132304534D01*
X114175500Y-132102352D01*
X114175500Y-131897648D01*
X114174288Y-131889998D01*
X114152671Y-131753512D01*
X114143477Y-131695466D01*
X114143475Y-131695461D01*
X114143474Y-131695455D01*
X114080222Y-131500786D01*
X114080220Y-131500783D01*
X114080220Y-131500781D01*
X114032079Y-131406300D01*
X113987287Y-131318389D01*
X113919753Y-131225437D01*
X113866966Y-131152781D01*
X113722219Y-131008034D01*
X113628407Y-130939876D01*
X113556610Y-130887712D01*
X113374213Y-130794777D01*
X113179544Y-130731525D01*
X113179531Y-130731522D01*
X112977354Y-130699500D01*
X112977352Y-130699500D01*
X112772648Y-130699500D01*
X112772646Y-130699500D01*
X112570468Y-130731522D01*
X112570455Y-130731525D01*
X112375786Y-130794777D01*
X112193389Y-130887712D01*
X112039827Y-130999282D01*
X112027781Y-131008034D01*
X111883034Y-131152781D01*
X111883031Y-131152784D01*
X111883031Y-131152785D01*
X111762712Y-131318389D01*
X111669777Y-131500786D01*
X111606525Y-131695455D01*
X111606522Y-131695468D01*
X111574500Y-131897646D01*
X111574500Y-132102353D01*
X110000000Y-132102353D01*
X110000000Y-119085328D01*
X112342500Y-119085328D01*
X112348902Y-119144875D01*
X112348903Y-119144880D01*
X112399145Y-119279587D01*
X112399146Y-119279588D01*
X112485311Y-119394688D01*
X112600411Y-119480853D01*
X112600412Y-119480854D01*
X112735119Y-119531096D01*
X112735124Y-119531097D01*
X112794671Y-119537500D01*
X114267500Y-119537500D01*
X114267500Y-118975171D01*
X114313509Y-118987500D01*
X114471491Y-118987500D01*
X114517500Y-118975171D01*
X114517500Y-119537500D01*
X115990329Y-119537500D01*
X116049875Y-119531097D01*
X116049880Y-119531096D01*
X116184587Y-119480854D01*
X116184588Y-119480853D01*
X116299688Y-119394688D01*
X116385853Y-119279588D01*
X116385854Y-119279587D01*
X116436096Y-119144880D01*
X116436097Y-119144875D01*
X116442500Y-119085328D01*
X116442500Y-118512500D01*
X114980172Y-118512500D01*
X114992500Y-118466491D01*
X114992500Y-118308509D01*
X114980172Y-118262500D01*
X116442500Y-118262500D01*
X116442500Y-117689671D01*
X116436097Y-117630124D01*
X116436096Y-117630119D01*
X116385854Y-117495412D01*
X116385853Y-117495411D01*
X116299688Y-117380311D01*
X116184588Y-117294146D01*
X116184587Y-117294145D01*
X116049880Y-117243903D01*
X116049875Y-117243902D01*
X115990329Y-117237500D01*
X114517500Y-117237500D01*
X114517500Y-117799828D01*
X114471491Y-117787500D01*
X114313509Y-117787500D01*
X114267500Y-117799828D01*
X114267500Y-117237500D01*
X112794671Y-117237500D01*
X112735124Y-117243902D01*
X112735119Y-117243903D01*
X112600412Y-117294145D01*
X112600411Y-117294146D01*
X112485311Y-117380311D01*
X112399146Y-117495411D01*
X112399145Y-117495412D01*
X112348903Y-117630119D01*
X112348902Y-117630124D01*
X112342500Y-117689671D01*
X112342500Y-118262500D01*
X113804828Y-118262500D01*
X113792500Y-118308509D01*
X113792500Y-118466491D01*
X113804828Y-118512500D01*
X112342500Y-118512500D01*
X112342500Y-119085328D01*
X110000000Y-119085328D01*
X110000000Y-110481518D01*
X110474500Y-110481518D01*
X110489353Y-110575303D01*
X110533291Y-110661535D01*
X110546950Y-110688342D01*
X110636658Y-110778050D01*
X110649810Y-110784751D01*
X110749696Y-110835646D01*
X110843481Y-110850500D01*
X110843482Y-110850500D01*
X111025500Y-110850500D01*
X111077826Y-110872174D01*
X111099500Y-110924500D01*
X111099500Y-110947273D01*
X111099500Y-111052727D01*
X111116843Y-111117453D01*
X111126793Y-111154588D01*
X111126795Y-111154592D01*
X111179517Y-111245909D01*
X111179518Y-111245910D01*
X111179520Y-111245913D01*
X112004087Y-112070480D01*
X112004089Y-112070481D01*
X112004090Y-112070482D01*
X112038208Y-112090180D01*
X112095412Y-112123207D01*
X112197273Y-112150500D01*
X118553455Y-112150500D01*
X118605781Y-112172174D01*
X119077826Y-112644219D01*
X119099500Y-112696545D01*
X119099500Y-112820500D01*
X119077826Y-112872826D01*
X119025500Y-112894500D01*
X118270904Y-112894500D01*
X118270263Y-112894505D01*
X118267067Y-112894535D01*
X118262552Y-112894618D01*
X118258753Y-112894724D01*
X118246989Y-112895161D01*
X118239387Y-112895584D01*
X118230219Y-112896266D01*
X118222636Y-112896974D01*
X118211104Y-112898263D01*
X118208483Y-112898581D01*
X118207249Y-112898731D01*
X118206570Y-112898819D01*
X118202665Y-112899329D01*
X118198860Y-112899863D01*
X114585993Y-113440741D01*
X114568084Y-113444242D01*
X114546673Y-113449424D01*
X114529129Y-113454506D01*
X114476968Y-113472159D01*
X114443560Y-113486889D01*
X114443557Y-113486891D01*
X114405173Y-113508068D01*
X114405169Y-113508070D01*
X114395830Y-113514365D01*
X114354473Y-113527000D01*
X113389035Y-113527000D01*
X113348885Y-113534986D01*
X113186086Y-113567368D01*
X113186079Y-113567370D01*
X112994901Y-113646559D01*
X112822845Y-113761522D01*
X112822844Y-113761524D01*
X112676524Y-113907844D01*
X112676522Y-113907845D01*
X112561559Y-114079901D01*
X112482370Y-114271079D01*
X112482368Y-114271086D01*
X112442000Y-114474035D01*
X112442000Y-114680964D01*
X112482368Y-114883913D01*
X112482370Y-114883920D01*
X112561559Y-115075098D01*
X112642342Y-115196000D01*
X112676523Y-115247155D01*
X112822845Y-115393477D01*
X112994902Y-115508441D01*
X113186080Y-115587630D01*
X113389035Y-115628000D01*
X114300133Y-115628000D01*
X114348422Y-115645927D01*
X114349754Y-115647074D01*
X114349761Y-115647080D01*
X114382541Y-115672538D01*
X114435478Y-115705667D01*
X114453625Y-115715785D01*
X114476083Y-115726857D01*
X114495168Y-115735095D01*
X115043630Y-115939576D01*
X118155781Y-117099869D01*
X118164451Y-117102882D01*
X118174973Y-117106278D01*
X118183740Y-117108894D01*
X118210664Y-117116278D01*
X118210682Y-117116282D01*
X118228529Y-117120331D01*
X118228531Y-117120331D01*
X118228534Y-117120332D01*
X118250281Y-117124255D01*
X118259824Y-117125540D01*
X118268451Y-117126702D01*
X118277726Y-117127531D01*
X118296270Y-117129190D01*
X118305415Y-117129803D01*
X118316460Y-117130296D01*
X118325623Y-117130500D01*
X118325640Y-117130500D01*
X119062736Y-117130500D01*
X119082225Y-117129105D01*
X119091974Y-117128408D01*
X119126909Y-117123385D01*
X119208764Y-117092855D01*
X119267542Y-117055081D01*
X119291939Y-117033939D01*
X119300373Y-117027623D01*
X119387774Y-116971454D01*
X119393587Y-116968083D01*
X119428376Y-116949983D01*
X119484430Y-116908273D01*
X119525909Y-116867032D01*
X120857827Y-115098420D01*
X120867256Y-115084789D01*
X120877954Y-115067906D01*
X120886254Y-115053558D01*
X120909583Y-115009194D01*
X120922588Y-114978726D01*
X120935226Y-114940936D01*
X120943166Y-114908777D01*
X120951219Y-114859307D01*
X120953220Y-114842852D01*
X120954831Y-114822929D01*
X120955500Y-114806366D01*
X120955500Y-113362210D01*
X120954510Y-113342062D01*
X120952127Y-113317874D01*
X120949169Y-113297932D01*
X120937333Y-113238427D01*
X120929772Y-113213503D01*
X120925638Y-113199875D01*
X120907124Y-113155180D01*
X120907123Y-113155179D01*
X120907123Y-113155178D01*
X120888135Y-113119654D01*
X120861345Y-113079559D01*
X120835787Y-113048417D01*
X120801582Y-113014212D01*
X120801580Y-113014210D01*
X120801577Y-113014207D01*
X120770449Y-112988660D01*
X120770446Y-112988657D01*
X120730348Y-112961865D01*
X120730349Y-112961865D01*
X120723736Y-112958330D01*
X120694812Y-112942871D01*
X120679913Y-112936700D01*
X120650123Y-112924361D01*
X120650118Y-112924359D01*
X120650117Y-112924359D01*
X120611570Y-112912666D01*
X120611569Y-112912665D01*
X120611560Y-112912663D01*
X120611561Y-112912663D01*
X120560870Y-112902581D01*
X120552070Y-112900831D01*
X120552053Y-112900828D01*
X120552033Y-112900825D01*
X120532127Y-112897873D01*
X120507944Y-112895490D01*
X120499301Y-112895065D01*
X120487789Y-112894500D01*
X120487777Y-112894500D01*
X119974500Y-112894500D01*
X119922174Y-112872826D01*
X119900500Y-112820500D01*
X119900500Y-112447273D01*
X119873207Y-112345413D01*
X119873207Y-112345412D01*
X119820482Y-112254090D01*
X119820481Y-112254089D01*
X119820480Y-112254087D01*
X118995913Y-111429520D01*
X118995910Y-111429518D01*
X118995909Y-111429517D01*
X118904592Y-111376795D01*
X118904588Y-111376793D01*
X118886465Y-111371937D01*
X118802727Y-111349500D01*
X118802726Y-111349500D01*
X112446545Y-111349500D01*
X112394219Y-111327826D01*
X112043219Y-110976826D01*
X112021545Y-110924500D01*
X112043219Y-110872174D01*
X112095545Y-110850500D01*
X112156519Y-110850500D01*
X112250303Y-110835646D01*
X112286676Y-110817113D01*
X112363342Y-110778050D01*
X112453050Y-110688342D01*
X112510646Y-110575303D01*
X112525500Y-110481518D01*
X112525500Y-109512500D01*
X112694919Y-109512500D01*
X112715192Y-109718337D01*
X112775233Y-109916266D01*
X112872727Y-110098664D01*
X112872733Y-110098673D01*
X112924260Y-110161460D01*
X113392473Y-109693246D01*
X113429920Y-109758106D01*
X113504394Y-109832580D01*
X113569251Y-109870025D01*
X113101038Y-110338238D01*
X113163826Y-110389766D01*
X113163835Y-110389772D01*
X113346233Y-110487266D01*
X113544162Y-110547307D01*
X113750000Y-110567580D01*
X113955837Y-110547307D01*
X114153766Y-110487266D01*
X114336171Y-110389768D01*
X114398960Y-110338238D01*
X113930748Y-109870025D01*
X113995606Y-109832580D01*
X114070080Y-109758106D01*
X114107525Y-109693247D01*
X114575738Y-110161460D01*
X114627268Y-110098671D01*
X114724766Y-109916266D01*
X114784807Y-109718337D01*
X114805080Y-109512500D01*
X114784807Y-109306662D01*
X114729701Y-109125000D01*
X117618456Y-109125000D01*
X117623996Y-109177704D01*
X117679207Y-109347626D01*
X117768547Y-109502368D01*
X117888103Y-109635150D01*
X118032662Y-109740177D01*
X118032661Y-109740177D01*
X118195887Y-109812850D01*
X118195889Y-109812851D01*
X118335000Y-109842419D01*
X118335000Y-109328852D01*
X118413922Y-109350000D01*
X118506078Y-109350000D01*
X118585000Y-109328852D01*
X118585000Y-109842418D01*
X118724110Y-109812851D01*
X118724112Y-109812850D01*
X118887337Y-109740177D01*
X119031896Y-109635150D01*
X119151452Y-109502368D01*
X119240792Y-109347626D01*
X119296003Y-109177704D01*
X119301544Y-109125000D01*
X118788853Y-109125000D01*
X118810000Y-109046078D01*
X118810000Y-108953922D01*
X118788853Y-108875000D01*
X119301544Y-108875000D01*
X119301543Y-108874999D01*
X119296003Y-108822295D01*
X119240792Y-108652373D01*
X119151452Y-108497631D01*
X119031896Y-108364849D01*
X118887337Y-108259822D01*
X118887338Y-108259822D01*
X118724117Y-108187151D01*
X118724115Y-108187150D01*
X118585000Y-108157579D01*
X118585000Y-108671147D01*
X118506078Y-108650000D01*
X118413922Y-108650000D01*
X118335000Y-108671147D01*
X118335000Y-108157579D01*
X118334999Y-108157579D01*
X118195884Y-108187150D01*
X118195882Y-108187151D01*
X118032662Y-108259822D01*
X117888103Y-108364849D01*
X117768547Y-108497631D01*
X117679207Y-108652373D01*
X117623996Y-108822295D01*
X117618456Y-108874999D01*
X117618456Y-108875000D01*
X118131147Y-108875000D01*
X118110000Y-108953922D01*
X118110000Y-109046078D01*
X118131147Y-109125000D01*
X117618456Y-109125000D01*
X114729701Y-109125000D01*
X114724766Y-109108733D01*
X114627272Y-108926335D01*
X114627266Y-108926326D01*
X114575738Y-108863538D01*
X114107525Y-109331750D01*
X114070080Y-109266894D01*
X113995606Y-109192420D01*
X113930746Y-109154973D01*
X114398960Y-108686760D01*
X114336173Y-108635233D01*
X114336164Y-108635227D01*
X114153766Y-108537733D01*
X113955837Y-108477692D01*
X113750000Y-108457419D01*
X113544162Y-108477692D01*
X113346233Y-108537733D01*
X113163835Y-108635227D01*
X113163832Y-108635229D01*
X113101038Y-108686761D01*
X113569251Y-109154974D01*
X113504394Y-109192420D01*
X113429920Y-109266894D01*
X113392474Y-109331751D01*
X112924261Y-108863538D01*
X112872729Y-108926332D01*
X112872727Y-108926335D01*
X112775233Y-109108733D01*
X112715192Y-109306662D01*
X112694919Y-109512500D01*
X112525500Y-109512500D01*
X112525500Y-109493482D01*
X112521941Y-109471008D01*
X112510646Y-109399696D01*
X112473171Y-109326148D01*
X112453050Y-109286658D01*
X112363342Y-109196950D01*
X112341461Y-109185801D01*
X112250303Y-109139353D01*
X112156519Y-109124500D01*
X112156518Y-109124500D01*
X110843482Y-109124500D01*
X110843481Y-109124500D01*
X110749696Y-109139353D01*
X110636657Y-109196950D01*
X110546950Y-109286657D01*
X110489353Y-109399696D01*
X110474500Y-109493481D01*
X110474500Y-110481518D01*
X110000000Y-110481518D01*
X110000000Y-105674000D01*
X110021674Y-105621674D01*
X110074000Y-105600000D01*
X114199988Y-105600000D01*
X114200000Y-105600000D01*
X114278654Y-105597433D01*
X114430601Y-105556719D01*
X114437815Y-105552553D01*
X114493966Y-105545161D01*
X114538900Y-105579639D01*
X114546293Y-105635792D01*
X114527140Y-105668966D01*
X114108886Y-106087219D01*
X114056560Y-106108893D01*
X114035080Y-106105707D01*
X113936334Y-106075753D01*
X113750000Y-106057401D01*
X113563667Y-106075753D01*
X113384494Y-106130105D01*
X113219382Y-106218359D01*
X113219373Y-106218365D01*
X113074643Y-106337143D01*
X112955869Y-106481868D01*
X112955861Y-106481880D01*
X112947569Y-106497394D01*
X112907218Y-106572883D01*
X112863439Y-106608814D01*
X112841958Y-106612000D01*
X112599500Y-106612000D01*
X112547174Y-106590326D01*
X112525500Y-106538000D01*
X112525500Y-106518481D01*
X112510646Y-106424696D01*
X112453049Y-106311657D01*
X112363342Y-106221950D01*
X112250303Y-106164353D01*
X112156519Y-106149500D01*
X112156518Y-106149500D01*
X110843482Y-106149500D01*
X110843481Y-106149500D01*
X110749696Y-106164353D01*
X110636657Y-106221950D01*
X110546950Y-106311657D01*
X110489353Y-106424696D01*
X110474500Y-106518481D01*
X110474500Y-107506518D01*
X110489353Y-107600303D01*
X110507101Y-107635134D01*
X110546950Y-107713342D01*
X110636658Y-107803050D01*
X110692100Y-107831298D01*
X110749696Y-107860646D01*
X110843481Y-107875500D01*
X110843482Y-107875500D01*
X112156519Y-107875500D01*
X112250303Y-107860646D01*
X112363342Y-107803050D01*
X112453050Y-107713342D01*
X112510646Y-107600303D01*
X112525500Y-107506518D01*
X112525500Y-107487000D01*
X112547174Y-107434674D01*
X112599500Y-107413000D01*
X112841958Y-107413000D01*
X112894284Y-107434674D01*
X112907217Y-107452114D01*
X112955864Y-107543125D01*
X113074643Y-107687857D01*
X113219375Y-107806636D01*
X113219380Y-107806638D01*
X113219382Y-107806640D01*
X113384494Y-107894894D01*
X113384496Y-107894894D01*
X113384499Y-107894896D01*
X113563669Y-107949247D01*
X113750000Y-107967599D01*
X113936331Y-107949247D01*
X114115501Y-107894896D01*
X114122089Y-107891375D01*
X114179579Y-107860646D01*
X114280625Y-107806636D01*
X114425357Y-107687857D01*
X114544136Y-107543125D01*
X114632396Y-107378001D01*
X114686747Y-107198831D01*
X114705099Y-107012500D01*
X114686747Y-106826169D01*
X114656791Y-106727418D01*
X114662343Y-106671055D01*
X114675276Y-106653615D01*
X116245910Y-105082981D01*
X116245913Y-105082980D01*
X116320480Y-105008413D01*
X116373207Y-104917087D01*
X116384350Y-104875500D01*
X116400501Y-104815226D01*
X116400501Y-104709773D01*
X116400501Y-104705244D01*
X116400500Y-104705226D01*
X116400500Y-104654500D01*
X116422174Y-104602174D01*
X116474500Y-104580500D01*
X116992702Y-104580500D01*
X116992712Y-104580500D01*
X117007955Y-104579751D01*
X117022392Y-104578329D01*
X117037487Y-104576090D01*
X117111572Y-104561353D01*
X117140741Y-104552505D01*
X117142182Y-104551907D01*
X117142407Y-104551907D01*
X117142452Y-104551892D01*
X117142457Y-104551907D01*
X117198817Y-104551907D01*
X117238867Y-104591955D01*
X117244500Y-104620275D01*
X117244500Y-104623471D01*
X117244501Y-104623497D01*
X117248499Y-104658521D01*
X117256016Y-104691014D01*
X117260097Y-104705448D01*
X117260097Y-104705450D01*
X117303087Y-104770275D01*
X117313943Y-104825862D01*
X117307897Y-104843673D01*
X117260134Y-104941373D01*
X117260134Y-104941374D01*
X117249500Y-105014359D01*
X117249500Y-105535640D01*
X117260134Y-105608625D01*
X117260134Y-105608626D01*
X117315173Y-105721210D01*
X117315174Y-105721211D01*
X117403789Y-105809826D01*
X117516375Y-105864866D01*
X117536965Y-105867865D01*
X117585618Y-105896856D01*
X117598873Y-105926651D01*
X117599498Y-105929796D01*
X117599500Y-105929800D01*
X117624772Y-105990811D01*
X117641443Y-106031058D01*
X118516443Y-106906058D01*
X118593942Y-106983557D01*
X118695200Y-107025500D01*
X118695201Y-107025500D01*
X120804798Y-107025500D01*
X120804800Y-107025500D01*
X120906058Y-106983557D01*
X120983557Y-106906058D01*
X120983556Y-106906058D01*
X121233557Y-106656059D01*
X121238490Y-106644148D01*
X121278537Y-106604101D01*
X121321292Y-106599889D01*
X121349500Y-106605500D01*
X122968531Y-106605500D01*
X123002867Y-106613948D01*
X123419401Y-106832132D01*
X123427839Y-106836232D01*
X123435976Y-106839887D01*
X123444637Y-106843468D01*
X123488339Y-106860012D01*
X123488352Y-106860016D01*
X123488363Y-106860020D01*
X123505388Y-106865316D01*
X123548915Y-106901554D01*
X123554068Y-106957956D01*
X123551775Y-106964294D01*
X123513669Y-107056291D01*
X123494750Y-107200000D01*
X123513669Y-107343708D01*
X123551348Y-107434674D01*
X123569139Y-107477625D01*
X123657379Y-107592621D01*
X123772375Y-107680861D01*
X123906291Y-107736330D01*
X124050000Y-107755250D01*
X124193709Y-107736330D01*
X124327625Y-107680861D01*
X124442621Y-107592621D01*
X124530861Y-107477625D01*
X124586330Y-107343709D01*
X124605250Y-107200000D01*
X124586330Y-107056291D01*
X124530861Y-106922375D01*
X124530859Y-106922373D01*
X124530857Y-106922368D01*
X124520995Y-106909516D01*
X124506336Y-106854809D01*
X124534655Y-106805760D01*
X124536209Y-106804599D01*
X124538336Y-106803052D01*
X124538342Y-106803050D01*
X124555138Y-106786252D01*
X124560522Y-106781373D01*
X124574492Y-106769909D01*
X124594909Y-106749492D01*
X124606376Y-106735517D01*
X124611254Y-106730137D01*
X124628049Y-106713343D01*
X124628050Y-106713342D01*
X124643390Y-106683233D01*
X124647788Y-106675731D01*
X124652085Y-106669301D01*
X124666456Y-106642416D01*
X124675195Y-106621318D01*
X124677628Y-106616040D01*
X124685645Y-106600305D01*
X124685646Y-106600304D01*
X124693330Y-106551780D01*
X124693833Y-106548964D01*
X124701090Y-106512485D01*
X124703329Y-106497391D01*
X124704751Y-106482954D01*
X124705500Y-106467711D01*
X124705500Y-103635841D01*
X124704751Y-103620598D01*
X124703329Y-103606161D01*
X124701298Y-103592474D01*
X124700499Y-103581622D01*
X124700499Y-103559045D01*
X124722173Y-103506719D01*
X125331718Y-102897174D01*
X125384044Y-102875500D01*
X125433254Y-102875500D01*
X125433260Y-102875500D01*
X125501393Y-102865573D01*
X125606483Y-102814198D01*
X125689198Y-102731483D01*
X125708500Y-102692000D01*
X125750953Y-102654510D01*
X125774981Y-102650500D01*
X125822189Y-102650500D01*
X125874515Y-102672174D01*
X125883088Y-102682461D01*
X125884514Y-102684527D01*
X125884515Y-102684528D01*
X125884516Y-102684529D01*
X125884517Y-102684530D01*
X126002760Y-102789283D01*
X126142635Y-102862696D01*
X126296015Y-102900500D01*
X126296019Y-102900500D01*
X126453981Y-102900500D01*
X126453985Y-102900500D01*
X126607365Y-102862696D01*
X126747240Y-102789283D01*
X126865483Y-102684530D01*
X126955220Y-102554523D01*
X127011237Y-102406818D01*
X127025094Y-102292695D01*
X127030278Y-102250003D01*
X127030278Y-102249996D01*
X127011238Y-102093191D01*
X127011237Y-102093182D01*
X126994860Y-102050000D01*
X126955221Y-101945478D01*
X126865483Y-101815470D01*
X126812483Y-101768517D01*
X126747240Y-101710717D01*
X126699767Y-101685801D01*
X126607366Y-101637304D01*
X126453987Y-101599500D01*
X126453985Y-101599500D01*
X126296015Y-101599500D01*
X126296012Y-101599500D01*
X126142633Y-101637304D01*
X126002761Y-101710716D01*
X125884515Y-101815471D01*
X125884514Y-101815472D01*
X125883088Y-101817539D01*
X125882141Y-101818150D01*
X125881547Y-101818822D01*
X125881359Y-101818656D01*
X125835525Y-101848288D01*
X125822189Y-101849500D01*
X125774981Y-101849500D01*
X125722655Y-101827826D01*
X125708500Y-101808000D01*
X125689198Y-101768517D01*
X125606482Y-101685801D01*
X125501394Y-101634427D01*
X125433264Y-101624500D01*
X125433260Y-101624500D01*
X124966740Y-101624500D01*
X124966735Y-101624500D01*
X124898606Y-101634427D01*
X124898605Y-101634427D01*
X124793517Y-101685801D01*
X124710801Y-101768517D01*
X124659427Y-101873605D01*
X124659427Y-101873606D01*
X124649500Y-101941735D01*
X124649500Y-102415955D01*
X124627826Y-102468281D01*
X123998281Y-103097826D01*
X123945955Y-103119500D01*
X122723060Y-103119500D01*
X122670734Y-103097826D01*
X122649060Y-103045500D01*
X122655365Y-103015610D01*
X122697585Y-102919991D01*
X122700500Y-102894865D01*
X122700499Y-102505136D01*
X122697585Y-102480009D01*
X122652206Y-102377235D01*
X122572765Y-102297794D01*
X122571674Y-102296703D01*
X122550000Y-102244377D01*
X122550000Y-102050000D01*
X122474000Y-102050000D01*
X122421674Y-102028326D01*
X122400000Y-101976000D01*
X122400000Y-101524000D01*
X122421674Y-101471674D01*
X122474000Y-101450000D01*
X122550000Y-101450000D01*
X122550000Y-101255623D01*
X122571674Y-101203297D01*
X122610774Y-101164197D01*
X122652206Y-101122765D01*
X122664637Y-101094610D01*
X122705599Y-101055497D01*
X122732332Y-101050500D01*
X122749827Y-101050500D01*
X122749828Y-101050500D01*
X122827639Y-101018270D01*
X122848631Y-101009575D01*
X122849027Y-101010531D01*
X122882101Y-101000500D01*
X122927085Y-101000500D01*
X122979411Y-101022174D01*
X123000311Y-101063830D01*
X123008898Y-101122764D01*
X123009427Y-101126393D01*
X123009427Y-101126394D01*
X123060801Y-101231482D01*
X123143517Y-101314198D01*
X123253770Y-101368097D01*
X123252930Y-101369814D01*
X123290941Y-101401338D01*
X123299500Y-101435885D01*
X123299500Y-101564114D01*
X123277826Y-101616440D01*
X123253407Y-101631163D01*
X123253769Y-101631903D01*
X123143517Y-101685801D01*
X123060801Y-101768517D01*
X123009427Y-101873605D01*
X123009427Y-101873606D01*
X122999500Y-101941735D01*
X122999500Y-102558264D01*
X123009427Y-102626393D01*
X123009427Y-102626394D01*
X123060801Y-102731482D01*
X123060802Y-102731483D01*
X123143517Y-102814198D01*
X123248607Y-102865573D01*
X123316740Y-102875500D01*
X123316746Y-102875500D01*
X123783254Y-102875500D01*
X123783260Y-102875500D01*
X123851393Y-102865573D01*
X123956483Y-102814198D01*
X124039198Y-102731483D01*
X124090573Y-102626393D01*
X124100500Y-102558260D01*
X124100500Y-101941740D01*
X124090573Y-101873607D01*
X124039198Y-101768517D01*
X123956483Y-101685802D01*
X123956482Y-101685801D01*
X123846231Y-101631903D01*
X123847069Y-101630188D01*
X123809054Y-101598651D01*
X123800500Y-101564114D01*
X123800500Y-101435885D01*
X123822174Y-101383559D01*
X123846592Y-101368837D01*
X123846230Y-101368097D01*
X123851393Y-101365573D01*
X123956483Y-101314198D01*
X124039198Y-101231483D01*
X124090573Y-101126393D01*
X124100500Y-101058260D01*
X124100500Y-100441740D01*
X124090573Y-100373607D01*
X124039198Y-100268517D01*
X123956483Y-100185802D01*
X123956482Y-100185801D01*
X123863777Y-100140481D01*
X123826287Y-100098028D01*
X123829796Y-100041500D01*
X123872249Y-100004010D01*
X123896277Y-100000000D01*
X127126000Y-100000000D01*
X127178326Y-100021674D01*
G37*
%TD.AperFunction*%
%TA.AperFunction,Conductor*%
G36*
X126530199Y-124644205D02*
G01*
X126533162Y-124649281D01*
X126533588Y-124648997D01*
X126537637Y-124655057D01*
X126969943Y-125087363D01*
X126969946Y-125087365D01*
X127000035Y-125099828D01*
X127062013Y-125125500D01*
X127062014Y-125125500D01*
X128424827Y-125125500D01*
X128424828Y-125125500D01*
X128516897Y-125087364D01*
X128827364Y-124776897D01*
X128841840Y-124741947D01*
X128880313Y-124702572D01*
X128895611Y-124695817D01*
X128952230Y-124694508D01*
X128993194Y-124733620D01*
X128999500Y-124763512D01*
X128999500Y-125099829D01*
X129037634Y-125191894D01*
X129037637Y-125191898D01*
X129103140Y-125257401D01*
X129124814Y-125309727D01*
X129124621Y-125315072D01*
X129124500Y-125316742D01*
X129124500Y-125783264D01*
X129134427Y-125851393D01*
X129134427Y-125851394D01*
X129185801Y-125956482D01*
X129185802Y-125956483D01*
X129268517Y-126039198D01*
X129373607Y-126090573D01*
X129441740Y-126100500D01*
X129441746Y-126100500D01*
X130058254Y-126100500D01*
X130058260Y-126100500D01*
X130126393Y-126090573D01*
X130143001Y-126082453D01*
X130199527Y-126078944D01*
X130241981Y-126116434D01*
X130249500Y-126148935D01*
X130249500Y-126601064D01*
X130227826Y-126653390D01*
X130175500Y-126675064D01*
X130143001Y-126667546D01*
X130140229Y-126666191D01*
X130126393Y-126659427D01*
X130058264Y-126649500D01*
X130058260Y-126649500D01*
X129441740Y-126649500D01*
X129441735Y-126649500D01*
X129373606Y-126659427D01*
X129373605Y-126659427D01*
X129268517Y-126710801D01*
X129185801Y-126793517D01*
X129131903Y-126903770D01*
X129130185Y-126902930D01*
X129098662Y-126940941D01*
X129064115Y-126949500D01*
X128935885Y-126949500D01*
X128883559Y-126927826D01*
X128868837Y-126903407D01*
X128868097Y-126903770D01*
X128814198Y-126793517D01*
X128731482Y-126710801D01*
X128626394Y-126659427D01*
X128558264Y-126649500D01*
X128558260Y-126649500D01*
X127941740Y-126649500D01*
X127941735Y-126649500D01*
X127873606Y-126659427D01*
X127873605Y-126659427D01*
X127768517Y-126710801D01*
X127685801Y-126793517D01*
X127631903Y-126903770D01*
X127630185Y-126902930D01*
X127598662Y-126940941D01*
X127564115Y-126949500D01*
X127448261Y-126949500D01*
X127395935Y-126927826D01*
X127375034Y-126886170D01*
X127364866Y-126816375D01*
X127309826Y-126703789D01*
X127221211Y-126615174D01*
X127221210Y-126615173D01*
X127108626Y-126560134D01*
X127035640Y-126549500D01*
X127035636Y-126549500D01*
X126464364Y-126549500D01*
X126464359Y-126549500D01*
X126391374Y-126560134D01*
X126391373Y-126560134D01*
X126278789Y-126615173D01*
X126190173Y-126703789D01*
X126135134Y-126816373D01*
X126135134Y-126816374D01*
X126124500Y-126889359D01*
X126124500Y-127410640D01*
X126135134Y-127483625D01*
X126135134Y-127483626D01*
X126190173Y-127596210D01*
X126190174Y-127596211D01*
X126278789Y-127684826D01*
X126391375Y-127739866D01*
X126436170Y-127746392D01*
X126484822Y-127775382D01*
X126499500Y-127819618D01*
X126499500Y-127927084D01*
X126477826Y-127979410D01*
X126436170Y-128000311D01*
X126373606Y-128009427D01*
X126373605Y-128009427D01*
X126268517Y-128060801D01*
X126185801Y-128143517D01*
X126134427Y-128248605D01*
X126134427Y-128248606D01*
X126124500Y-128316735D01*
X126124500Y-128783264D01*
X126134427Y-128851393D01*
X126134427Y-128851394D01*
X126185801Y-128956482D01*
X126185802Y-128956483D01*
X126268517Y-129039198D01*
X126373607Y-129090573D01*
X126441740Y-129100500D01*
X126441746Y-129100500D01*
X127058254Y-129100500D01*
X127058260Y-129100500D01*
X127126393Y-129090573D01*
X127231483Y-129039198D01*
X127314198Y-128956483D01*
X127365573Y-128851393D01*
X127375500Y-128783260D01*
X127375500Y-128316740D01*
X127365573Y-128248607D01*
X127314198Y-128143517D01*
X127231483Y-128060802D01*
X127231482Y-128060801D01*
X127126394Y-128009427D01*
X127063830Y-128000311D01*
X127015176Y-127971318D01*
X127000500Y-127927084D01*
X127000500Y-127819618D01*
X127022174Y-127767292D01*
X127063829Y-127746392D01*
X127108625Y-127739866D01*
X127221211Y-127684826D01*
X127309826Y-127596211D01*
X127360772Y-127491998D01*
X127403225Y-127454509D01*
X127427253Y-127450500D01*
X127564115Y-127450500D01*
X127616441Y-127472174D01*
X127631162Y-127496592D01*
X127631903Y-127496230D01*
X127685801Y-127606482D01*
X127685802Y-127606483D01*
X127768517Y-127689198D01*
X127873607Y-127740573D01*
X127941740Y-127750500D01*
X127941746Y-127750500D01*
X128558254Y-127750500D01*
X128558260Y-127750500D01*
X128626393Y-127740573D01*
X128731483Y-127689198D01*
X128814198Y-127606483D01*
X128865573Y-127501393D01*
X128865573Y-127501392D01*
X128868097Y-127496230D01*
X128869814Y-127497069D01*
X128901338Y-127459059D01*
X128935885Y-127450500D01*
X129064115Y-127450500D01*
X129116441Y-127472174D01*
X129131162Y-127496592D01*
X129131903Y-127496230D01*
X129185801Y-127606482D01*
X129185802Y-127606483D01*
X129268517Y-127689198D01*
X129373607Y-127740573D01*
X129441740Y-127750500D01*
X129841587Y-127750500D01*
X129893913Y-127772174D01*
X129915587Y-127824500D01*
X129893913Y-127876826D01*
X129792913Y-127977826D01*
X129740587Y-127999500D01*
X129441735Y-127999500D01*
X129373606Y-128009427D01*
X129373605Y-128009427D01*
X129268517Y-128060801D01*
X129185801Y-128143517D01*
X129131903Y-128253770D01*
X129130185Y-128252930D01*
X129098662Y-128290941D01*
X129064115Y-128299500D01*
X128927253Y-128299500D01*
X128874927Y-128277826D01*
X128860772Y-128258001D01*
X128856179Y-128248605D01*
X128809826Y-128153789D01*
X128721211Y-128065174D01*
X128721210Y-128065173D01*
X128608626Y-128010134D01*
X128535640Y-127999500D01*
X128535636Y-127999500D01*
X127964364Y-127999500D01*
X127964359Y-127999500D01*
X127891374Y-128010134D01*
X127891373Y-128010134D01*
X127778789Y-128065173D01*
X127690173Y-128153789D01*
X127635134Y-128266373D01*
X127635134Y-128266374D01*
X127624500Y-128339359D01*
X127624500Y-128860640D01*
X127635134Y-128933625D01*
X127635134Y-128933626D01*
X127690173Y-129046210D01*
X127717525Y-129073562D01*
X127739199Y-129125888D01*
X127717525Y-129178214D01*
X127287635Y-129608104D01*
X127272935Y-129643594D01*
X127232886Y-129683642D01*
X127176249Y-129683642D01*
X127172068Y-129681756D01*
X127126394Y-129659427D01*
X127058264Y-129649500D01*
X127058260Y-129649500D01*
X126441740Y-129649500D01*
X126441735Y-129649500D01*
X126373606Y-129659427D01*
X126373605Y-129659427D01*
X126268517Y-129710801D01*
X126268513Y-129710804D01*
X126223402Y-129755915D01*
X126171076Y-129777589D01*
X126150230Y-129774592D01*
X126064772Y-129749500D01*
X125935228Y-129749500D01*
X125810932Y-129785995D01*
X125766494Y-129814553D01*
X125710757Y-129824608D01*
X125681440Y-129811008D01*
X125658645Y-129793517D01*
X125638437Y-129778011D01*
X125638435Y-129778010D01*
X125586115Y-129756338D01*
X125586105Y-129756335D01*
X125546258Y-129748409D01*
X125526604Y-129744500D01*
X125526602Y-129744500D01*
X123445275Y-129744500D01*
X123392949Y-129722826D01*
X123371275Y-129670500D01*
X123376907Y-129642184D01*
X123377505Y-129640741D01*
X123386353Y-129611571D01*
X123401090Y-129537485D01*
X123403329Y-129522391D01*
X123404751Y-129507954D01*
X123405500Y-129492711D01*
X123405500Y-125601524D01*
X123427174Y-125549198D01*
X123429699Y-125546789D01*
X123817046Y-125194656D01*
X123828441Y-125183157D01*
X123838686Y-125171682D01*
X123848819Y-125159069D01*
X123895613Y-125094175D01*
X123911692Y-125066132D01*
X123911696Y-125066121D01*
X123911712Y-125066093D01*
X123911717Y-125066088D01*
X123912651Y-125064460D01*
X123913227Y-125064790D01*
X123954674Y-125029187D01*
X123977742Y-125025500D01*
X125197189Y-125025500D01*
X125249515Y-125047174D01*
X125258088Y-125057461D01*
X125259514Y-125059527D01*
X125259515Y-125059528D01*
X125259516Y-125059529D01*
X125259517Y-125059530D01*
X125377760Y-125164283D01*
X125517635Y-125237696D01*
X125671015Y-125275500D01*
X125671019Y-125275500D01*
X125828981Y-125275500D01*
X125828985Y-125275500D01*
X125982365Y-125237696D01*
X126122240Y-125164283D01*
X126240483Y-125059530D01*
X126330220Y-124929523D01*
X126386237Y-124781818D01*
X126398488Y-124680923D01*
X126426311Y-124631591D01*
X126480867Y-124616382D01*
X126530199Y-124644205D01*
G37*
%TD.AperFunction*%
%TA.AperFunction,Conductor*%
G36*
X131978326Y-117155586D02*
G01*
X132000000Y-117207912D01*
X132000000Y-128203723D01*
X131978326Y-128256049D01*
X131926000Y-128277723D01*
X131873674Y-128256049D01*
X131859519Y-128236223D01*
X131814198Y-128143517D01*
X131731482Y-128060801D01*
X131626394Y-128009427D01*
X131558264Y-127999500D01*
X131558260Y-127999500D01*
X131193361Y-127999500D01*
X131141035Y-127977826D01*
X131119361Y-127925500D01*
X131124992Y-127897185D01*
X131125500Y-127895958D01*
X131125500Y-124950172D01*
X131125499Y-124950170D01*
X131087365Y-124858105D01*
X131087363Y-124858102D01*
X130772174Y-124542913D01*
X130750500Y-124490587D01*
X130750500Y-120914411D01*
X130772173Y-120862086D01*
X131037085Y-120597173D01*
X131089411Y-120575500D01*
X131219772Y-120575500D01*
X131344069Y-120539004D01*
X131453049Y-120468967D01*
X131537882Y-120371063D01*
X131591697Y-120253226D01*
X131610133Y-120125000D01*
X131591697Y-119996774D01*
X131537882Y-119878937D01*
X131484650Y-119817503D01*
X131466766Y-119763766D01*
X131488250Y-119716720D01*
X131557206Y-119647765D01*
X131602585Y-119544991D01*
X131605500Y-119519865D01*
X131605499Y-117780136D01*
X131602585Y-117755009D01*
X131557206Y-117652235D01*
X131519441Y-117614470D01*
X131497767Y-117562144D01*
X131519440Y-117509819D01*
X131873675Y-117155585D01*
X131926000Y-117133912D01*
X131978326Y-117155586D01*
G37*
%TD.AperFunction*%
%TA.AperFunction,Conductor*%
G36*
X117381999Y-122933010D02*
G01*
X117448607Y-122965573D01*
X117516740Y-122975500D01*
X117990587Y-122975500D01*
X118042913Y-122997174D01*
X118352826Y-123307086D01*
X118374500Y-123359412D01*
X118374500Y-123500507D01*
X118352826Y-123552833D01*
X118300500Y-123574507D01*
X118268000Y-123566988D01*
X118201395Y-123534428D01*
X118201393Y-123534427D01*
X118133264Y-123524500D01*
X118133260Y-123524500D01*
X117516740Y-123524500D01*
X117516735Y-123524500D01*
X117448606Y-123534427D01*
X117448605Y-123534427D01*
X117343517Y-123585801D01*
X117260801Y-123668517D01*
X117209427Y-123773605D01*
X117209427Y-123773606D01*
X117199500Y-123841735D01*
X117199500Y-124308264D01*
X117209427Y-124376393D01*
X117209427Y-124376394D01*
X117260801Y-124481482D01*
X117260802Y-124481483D01*
X117343517Y-124564198D01*
X117448607Y-124615573D01*
X117511169Y-124624688D01*
X117559823Y-124653680D01*
X117574500Y-124697915D01*
X117574500Y-124892667D01*
X117552826Y-124944993D01*
X117530391Y-124960361D01*
X117502239Y-124972791D01*
X117502236Y-124972793D01*
X117502235Y-124972793D01*
X117502235Y-124972794D01*
X117422794Y-125052235D01*
X117422793Y-125052236D01*
X117421704Y-125053326D01*
X117369378Y-125075000D01*
X117175000Y-125075000D01*
X117175000Y-125151000D01*
X117153326Y-125203326D01*
X117101000Y-125225000D01*
X116649000Y-125225000D01*
X116596674Y-125203326D01*
X116575000Y-125151000D01*
X116575000Y-125075000D01*
X116574426Y-125074426D01*
X116552752Y-125022100D01*
X116554173Y-125007671D01*
X116555500Y-125001000D01*
X116555500Y-123966544D01*
X116577173Y-123914219D01*
X117195480Y-123295913D01*
X117248207Y-123204588D01*
X117275500Y-123102727D01*
X117275500Y-122999492D01*
X117297174Y-122947166D01*
X117349500Y-122925492D01*
X117381999Y-122933010D01*
G37*
%TD.AperFunction*%
%TA.AperFunction,Conductor*%
G36*
X120452834Y-121797174D02*
G01*
X120474508Y-121849500D01*
X120466989Y-121882000D01*
X120434427Y-121948605D01*
X120434427Y-121948606D01*
X120424500Y-122016735D01*
X120424500Y-122053076D01*
X120423699Y-122063935D01*
X120421671Y-122077600D01*
X120420249Y-122092036D01*
X120420249Y-122092044D01*
X120419500Y-122107288D01*
X120419500Y-122592711D01*
X120419968Y-122602234D01*
X120420249Y-122607962D01*
X120421671Y-122622391D01*
X120423907Y-122637471D01*
X120438642Y-122711552D01*
X120438648Y-122711578D01*
X120447488Y-122740720D01*
X120447498Y-122740750D01*
X120458542Y-122767411D01*
X120458541Y-122767411D01*
X120472916Y-122794305D01*
X120486027Y-122813926D01*
X120510752Y-122850929D01*
X120514125Y-122855039D01*
X120529321Y-122873555D01*
X120545762Y-122927753D01*
X120519063Y-122977703D01*
X120472118Y-122994500D01*
X120199500Y-122994500D01*
X120185560Y-122997273D01*
X120139998Y-123006335D01*
X120139988Y-123006338D01*
X120087673Y-123028008D01*
X120087656Y-123028016D01*
X120052513Y-123048305D01*
X120052511Y-123048307D01*
X120003512Y-123112164D01*
X120003510Y-123112168D01*
X119981838Y-123164488D01*
X119981835Y-123164498D01*
X119970000Y-123224001D01*
X119970000Y-123344005D01*
X119969226Y-123354678D01*
X119966159Y-123375720D01*
X119959414Y-123397547D01*
X119936945Y-123443509D01*
X119922790Y-123463335D01*
X119888335Y-123497790D01*
X119868510Y-123511945D01*
X119845183Y-123523349D01*
X119822546Y-123534415D01*
X119800717Y-123541161D01*
X119779676Y-123544227D01*
X119769006Y-123545000D01*
X119231002Y-123545000D01*
X119220334Y-123544227D01*
X119202357Y-123541608D01*
X119187389Y-123539427D01*
X119173311Y-123535939D01*
X119166555Y-123533541D01*
X119166551Y-123533540D01*
X119134028Y-123526016D01*
X119119305Y-123523349D01*
X119119295Y-123523349D01*
X119039494Y-123533855D01*
X119039493Y-123533855D01*
X118987168Y-123555529D01*
X118987167Y-123555530D01*
X118986493Y-123555919D01*
X118986337Y-123555939D01*
X118984992Y-123556603D01*
X118984766Y-123556146D01*
X118930340Y-123563306D01*
X118885410Y-123528823D01*
X118875500Y-123491829D01*
X118875500Y-123175172D01*
X118875499Y-123175170D01*
X118871074Y-123164488D01*
X118846471Y-123105090D01*
X118837365Y-123083105D01*
X118837363Y-123083102D01*
X118762682Y-123008421D01*
X118762675Y-123008415D01*
X118607715Y-122853455D01*
X118471858Y-122717597D01*
X118450185Y-122665273D01*
X118450380Y-122659910D01*
X118450500Y-122658258D01*
X118450500Y-122191746D01*
X118450500Y-122191740D01*
X118440573Y-122123607D01*
X118389198Y-122018517D01*
X118306483Y-121935802D01*
X118306482Y-121935801D01*
X118265938Y-121915981D01*
X118228448Y-121873528D01*
X118231957Y-121817000D01*
X118274410Y-121779510D01*
X118298438Y-121775500D01*
X120400508Y-121775500D01*
X120452834Y-121797174D01*
G37*
%TD.AperFunction*%
%TA.AperFunction,Conductor*%
G36*
X124751825Y-117891440D02*
G01*
X124843942Y-117983558D01*
X124945200Y-118025500D01*
X125189812Y-118025500D01*
X125242138Y-118047174D01*
X125263812Y-118099500D01*
X125242138Y-118151824D01*
X125242137Y-118151826D01*
X125190176Y-118203786D01*
X125190173Y-118203789D01*
X125135134Y-118316373D01*
X125135134Y-118316374D01*
X125124500Y-118389359D01*
X125124500Y-118910640D01*
X125135134Y-118983625D01*
X125135134Y-118983626D01*
X125190173Y-119096210D01*
X125190174Y-119096211D01*
X125278789Y-119184826D01*
X125391375Y-119239866D01*
X125464364Y-119250500D01*
X125464370Y-119250500D01*
X126035630Y-119250500D01*
X126035636Y-119250500D01*
X126108625Y-119239866D01*
X126221211Y-119184826D01*
X126309826Y-119096211D01*
X126336328Y-119042000D01*
X126378781Y-119004510D01*
X126402809Y-119000500D01*
X126820501Y-119000500D01*
X126872827Y-119022174D01*
X126894501Y-119074500D01*
X126894501Y-119519863D01*
X126897414Y-119544986D01*
X126897415Y-119544992D01*
X126919958Y-119596046D01*
X126942794Y-119647765D01*
X127022235Y-119727206D01*
X127125009Y-119772585D01*
X127150135Y-119775500D01*
X127539864Y-119775499D01*
X127564991Y-119772585D01*
X127629351Y-119744166D01*
X127685972Y-119742859D01*
X127726935Y-119781972D01*
X127733240Y-119811862D01*
X127733240Y-121631846D01*
X127711566Y-121684172D01*
X127192694Y-122203044D01*
X127127482Y-122268257D01*
X127124775Y-122265550D01*
X127088910Y-122289495D01*
X127033365Y-122278426D01*
X127001917Y-122231322D01*
X127000500Y-122216912D01*
X127000500Y-121775592D01*
X127000499Y-121775590D01*
X126962365Y-121683525D01*
X126962363Y-121683522D01*
X126887682Y-121608841D01*
X126887675Y-121608835D01*
X125964477Y-120685636D01*
X125964474Y-120685634D01*
X125872408Y-120647500D01*
X125282413Y-120647500D01*
X125230087Y-120625826D01*
X125049174Y-120444913D01*
X125027500Y-120392587D01*
X125027500Y-119352172D01*
X125027499Y-119352170D01*
X124989365Y-119260105D01*
X124989363Y-119260102D01*
X124914682Y-119185421D01*
X124914675Y-119185415D01*
X124422174Y-118692913D01*
X124400500Y-118640587D01*
X124422174Y-118588261D01*
X124441998Y-118574107D01*
X124471211Y-118559826D01*
X124559826Y-118471211D01*
X124614866Y-118358625D01*
X124625500Y-118285636D01*
X124625500Y-117943767D01*
X124647174Y-117891441D01*
X124699500Y-117869767D01*
X124751825Y-117891440D01*
G37*
%TD.AperFunction*%
%TA.AperFunction,Conductor*%
G36*
X130756133Y-110860394D02*
G01*
X131589127Y-111693388D01*
X131610801Y-111745714D01*
X131610801Y-115777212D01*
X131589127Y-115829538D01*
X131536801Y-115851212D01*
X131495336Y-115836382D01*
X131494443Y-115837719D01*
X131369268Y-115754079D01*
X131266767Y-115711622D01*
X131226719Y-115671573D01*
X131226719Y-115614936D01*
X131232429Y-115603884D01*
X131315002Y-115472471D01*
X131315004Y-115472467D01*
X131370820Y-115312955D01*
X131370822Y-115312947D01*
X131375661Y-115270000D01*
X130937970Y-115270000D01*
X130960000Y-115187787D01*
X130960000Y-115102213D01*
X130937970Y-115020000D01*
X131375661Y-115020000D01*
X131370822Y-114977052D01*
X131370820Y-114977044D01*
X131315004Y-114817532D01*
X131315002Y-114817527D01*
X131225084Y-114674425D01*
X131105574Y-114554915D01*
X131038803Y-114512960D01*
X131006029Y-114466769D01*
X131015517Y-114410932D01*
X131029104Y-114394913D01*
X131125481Y-114309532D01*
X131125481Y-114309531D01*
X131125483Y-114309530D01*
X131215220Y-114179523D01*
X131223993Y-114156392D01*
X131253001Y-114079902D01*
X131271237Y-114031818D01*
X131290278Y-113875000D01*
X131271237Y-113718182D01*
X131235332Y-113623508D01*
X131215221Y-113570478D01*
X131125483Y-113440470D01*
X131062745Y-113384890D01*
X131007240Y-113335717D01*
X130949709Y-113305522D01*
X130913452Y-113262015D01*
X130918577Y-113205610D01*
X130949709Y-113174477D01*
X131007240Y-113144283D01*
X131125483Y-113039530D01*
X131215220Y-112909523D01*
X131218517Y-112900831D01*
X131271235Y-112761822D01*
X131271237Y-112761818D01*
X131290278Y-112605000D01*
X131271237Y-112448182D01*
X131254500Y-112404050D01*
X131215221Y-112300478D01*
X131125483Y-112170470D01*
X131080343Y-112130480D01*
X131007240Y-112065717D01*
X130970201Y-112046277D01*
X130867366Y-111992304D01*
X130713987Y-111954500D01*
X130713985Y-111954500D01*
X130613872Y-111954500D01*
X130561546Y-111932826D01*
X130539872Y-111880500D01*
X130561545Y-111828175D01*
X130579301Y-111810420D01*
X130660920Y-111688269D01*
X130717140Y-111552542D01*
X130745800Y-111408455D01*
X130745800Y-111261545D01*
X130717140Y-111117458D01*
X130660920Y-110981731D01*
X130642277Y-110953830D01*
X130631229Y-110898284D01*
X130662694Y-110851191D01*
X130718243Y-110840142D01*
X130756133Y-110860394D01*
G37*
%TD.AperFunction*%
%TA.AperFunction,Conductor*%
G36*
X123256049Y-100021674D02*
G01*
X123277723Y-100074000D01*
X123256049Y-100126326D01*
X123236223Y-100140481D01*
X123143517Y-100185801D01*
X123060801Y-100268517D01*
X123009427Y-100373605D01*
X123009427Y-100373606D01*
X123000312Y-100436169D01*
X122971320Y-100484823D01*
X122927085Y-100499500D01*
X122808448Y-100499500D01*
X122808440Y-100499499D01*
X122799828Y-100499499D01*
X122705122Y-100499499D01*
X122652796Y-100477825D01*
X122572765Y-100397794D01*
X122469991Y-100352415D01*
X122469990Y-100352414D01*
X122469988Y-100352414D01*
X122448659Y-100349940D01*
X122444865Y-100349500D01*
X122444864Y-100349500D01*
X121330136Y-100349500D01*
X121305013Y-100352414D01*
X121305007Y-100352415D01*
X121202234Y-100397794D01*
X121122794Y-100477234D01*
X121077414Y-100580011D01*
X121074500Y-100605135D01*
X121074500Y-100994863D01*
X121077414Y-101019986D01*
X121077415Y-101019992D01*
X121122794Y-101122765D01*
X121203326Y-101203297D01*
X121225000Y-101255623D01*
X121225000Y-101450000D01*
X121301000Y-101450000D01*
X121353326Y-101471674D01*
X121375000Y-101524000D01*
X121375000Y-101976000D01*
X121353326Y-102028326D01*
X121301000Y-102050000D01*
X121225000Y-102050000D01*
X121225000Y-102244377D01*
X121203326Y-102296703D01*
X121122794Y-102377234D01*
X121077414Y-102480011D01*
X121074500Y-102505135D01*
X121074500Y-102894863D01*
X121077414Y-102919986D01*
X121077415Y-102919991D01*
X121122794Y-103022765D01*
X121202235Y-103102206D01*
X121305009Y-103147585D01*
X121305015Y-103147585D01*
X121305918Y-103147832D01*
X121306382Y-103148190D01*
X121310101Y-103149833D01*
X121309694Y-103150752D01*
X121350720Y-103182482D01*
X121357898Y-103238662D01*
X121338819Y-103271563D01*
X120914592Y-103695791D01*
X120862266Y-103717465D01*
X120817218Y-103702174D01*
X120785728Y-103678011D01*
X120785726Y-103678010D01*
X120733406Y-103656338D01*
X120733396Y-103656335D01*
X120693549Y-103648409D01*
X120673895Y-103644500D01*
X120673893Y-103644500D01*
X120578743Y-103644500D01*
X120533311Y-103628912D01*
X120459068Y-103571166D01*
X120431071Y-103521932D01*
X120430500Y-103512754D01*
X120430500Y-102660851D01*
X120430500Y-102660841D01*
X120429751Y-102645598D01*
X120428329Y-102631161D01*
X120426298Y-102617474D01*
X120425499Y-102606622D01*
X120425499Y-102505136D01*
X120422585Y-102480013D01*
X120422585Y-102480011D01*
X120422585Y-102480009D01*
X120377206Y-102377235D01*
X120297765Y-102297794D01*
X120286215Y-102292694D01*
X120247103Y-102251732D01*
X120248411Y-102195110D01*
X120286215Y-102157305D01*
X120297765Y-102152206D01*
X120377206Y-102072765D01*
X120422585Y-101969991D01*
X120425500Y-101944865D01*
X120425499Y-101555136D01*
X120422585Y-101530009D01*
X120377206Y-101427235D01*
X120297765Y-101347794D01*
X120286215Y-101342694D01*
X120247103Y-101301732D01*
X120248411Y-101245110D01*
X120286215Y-101207305D01*
X120297765Y-101202206D01*
X120377206Y-101122765D01*
X120422585Y-101019991D01*
X120425500Y-100994865D01*
X120425499Y-100605136D01*
X120422585Y-100580009D01*
X120377206Y-100477235D01*
X120297765Y-100397794D01*
X120194991Y-100352415D01*
X120194990Y-100352414D01*
X120194988Y-100352414D01*
X120173659Y-100349940D01*
X120169865Y-100349500D01*
X120169864Y-100349500D01*
X119055136Y-100349500D01*
X119030013Y-100352414D01*
X119030007Y-100352415D01*
X118927234Y-100397794D01*
X118847791Y-100477237D01*
X118843919Y-100482891D01*
X118842443Y-100481879D01*
X118807184Y-100515545D01*
X118750562Y-100514235D01*
X118728128Y-100498867D01*
X118691898Y-100462637D01*
X118691894Y-100462634D01*
X118599828Y-100424500D01*
X118560885Y-100424500D01*
X118508559Y-100402826D01*
X118493837Y-100378407D01*
X118493097Y-100378770D01*
X118490572Y-100373606D01*
X118439198Y-100268517D01*
X118356483Y-100185802D01*
X118356482Y-100185801D01*
X118263777Y-100140481D01*
X118226287Y-100098028D01*
X118229796Y-100041500D01*
X118272249Y-100004010D01*
X118296277Y-100000000D01*
X123203723Y-100000000D01*
X123256049Y-100021674D01*
G37*
%TD.AperFunction*%
%TA.AperFunction,Conductor*%
G36*
X117506049Y-100021674D02*
G01*
X117527723Y-100074000D01*
X117506049Y-100126326D01*
X117486223Y-100140481D01*
X117393517Y-100185801D01*
X117310801Y-100268517D01*
X117259427Y-100373605D01*
X117259427Y-100373606D01*
X117249500Y-100441735D01*
X117249500Y-100908264D01*
X117259427Y-100976393D01*
X117259427Y-100976394D01*
X117310801Y-101081482D01*
X117310802Y-101081483D01*
X117393517Y-101164198D01*
X117399407Y-101167077D01*
X117436898Y-101209528D01*
X117433391Y-101266057D01*
X117390940Y-101303548D01*
X117379361Y-101306504D01*
X117366259Y-101308740D01*
X117366250Y-101308742D01*
X117340860Y-101315321D01*
X117340843Y-101315326D01*
X117317352Y-101323584D01*
X117317351Y-101323584D01*
X117293418Y-101334348D01*
X117236417Y-101366012D01*
X117225217Y-101372868D01*
X117214852Y-101379831D01*
X117204242Y-101387627D01*
X115102750Y-103073440D01*
X115089795Y-103085081D01*
X115078193Y-103096742D01*
X115078166Y-103096770D01*
X115066617Y-103109755D01*
X115066607Y-103109768D01*
X115013278Y-103176939D01*
X114994872Y-103206349D01*
X114994861Y-103206369D01*
X114980675Y-103235933D01*
X114980673Y-103235939D01*
X114969242Y-103268721D01*
X114950219Y-103352340D01*
X114950213Y-103352373D01*
X114947312Y-103369506D01*
X114947275Y-103369774D01*
X114947264Y-103369791D01*
X114947141Y-103370521D01*
X114946862Y-103370473D01*
X114918504Y-103418560D01*
X114863664Y-103432713D01*
X114814878Y-103403942D01*
X114800000Y-103359438D01*
X114800000Y-100074000D01*
X114821674Y-100021674D01*
X114874000Y-100000000D01*
X117453723Y-100000000D01*
X117506049Y-100021674D01*
G37*
%TD.AperFunction*%
%TD*%
M02*
