%TF.GenerationSoftware,KiCad,Pcbnew,7.0.8*%
%TF.CreationDate,2023-12-17T14:45:35+01:00*%
%TF.ProjectId,night_light,6e696768-745f-46c6-9967-68742e6b6963,rev?*%
%TF.SameCoordinates,Original*%
%TF.FileFunction,Legend,Top*%
%TF.FilePolarity,Positive*%
%FSLAX46Y46*%
G04 Gerber Fmt 4.6, Leading zero omitted, Abs format (unit mm)*
G04 Created by KiCad (PCBNEW 7.0.8) date 2023-12-17 14:45:35*
%MOMM*%
%LPD*%
G01*
G04 APERTURE LIST*
G04 Aperture macros list*
%AMRoundRect*
0 Rectangle with rounded corners*
0 $1 Rounding radius*
0 $2 $3 $4 $5 $6 $7 $8 $9 X,Y pos of 4 corners*
0 Add a 4 corners polygon primitive as box body*
4,1,4,$2,$3,$4,$5,$6,$7,$8,$9,$2,$3,0*
0 Add four circle primitives for the rounded corners*
1,1,$1+$1,$2,$3*
1,1,$1+$1,$4,$5*
1,1,$1+$1,$6,$7*
1,1,$1+$1,$8,$9*
0 Add four rect primitives between the rounded corners*
20,1,$1+$1,$2,$3,$4,$5,0*
20,1,$1+$1,$4,$5,$6,$7,0*
20,1,$1+$1,$6,$7,$8,$9,0*
20,1,$1+$1,$8,$9,$2,$3,0*%
G04 Aperture macros list end*
%ADD10C,0.150000*%
%ADD11C,0.120000*%
%ADD12RoundRect,0.225000X-0.225000X-0.250000X0.225000X-0.250000X0.225000X0.250000X-0.225000X0.250000X0*%
%ADD13RoundRect,0.250000X0.250000X0.475000X-0.250000X0.475000X-0.250000X-0.475000X0.250000X-0.475000X0*%
%ADD14RoundRect,0.200000X-0.275000X0.200000X-0.275000X-0.200000X0.275000X-0.200000X0.275000X0.200000X0*%
%ADD15RoundRect,0.250000X-1.075000X0.375000X-1.075000X-0.375000X1.075000X-0.375000X1.075000X0.375000X0*%
%ADD16RoundRect,0.150000X-0.512500X-0.150000X0.512500X-0.150000X0.512500X0.150000X-0.512500X0.150000X0*%
%ADD17RoundRect,0.225000X-0.250000X0.225000X-0.250000X-0.225000X0.250000X-0.225000X0.250000X0.225000X0*%
%ADD18RoundRect,0.200000X-0.200000X-0.275000X0.200000X-0.275000X0.200000X0.275000X-0.200000X0.275000X0*%
%ADD19RoundRect,0.250000X0.300000X-0.750000X0.300000X0.750000X-0.300000X0.750000X-0.300000X-0.750000X0*%
%ADD20RoundRect,0.200000X0.350000X-0.200000X0.350000X0.200000X-0.350000X0.200000X-0.350000X-0.200000X0*%
%ADD21RoundRect,0.250000X-0.300000X0.750000X-0.300000X-0.750000X0.300000X-0.750000X0.300000X0.750000X0*%
%ADD22RoundRect,0.200000X-0.350000X0.200000X-0.350000X-0.200000X0.350000X-0.200000X0.350000X0.200000X0*%
%ADD23RoundRect,0.250000X-0.450000X0.262500X-0.450000X-0.262500X0.450000X-0.262500X0.450000X0.262500X0*%
%ADD24RoundRect,0.200000X0.275000X-0.200000X0.275000X0.200000X-0.275000X0.200000X-0.275000X-0.200000X0*%
%ADD25RoundRect,0.250000X1.000000X0.650000X-1.000000X0.650000X-1.000000X-0.650000X1.000000X-0.650000X0*%
%ADD26RoundRect,0.225000X0.250000X-0.225000X0.250000X0.225000X-0.250000X0.225000X-0.250000X-0.225000X0*%
%ADD27RoundRect,0.200000X0.200000X0.275000X-0.200000X0.275000X-0.200000X-0.275000X0.200000X-0.275000X0*%
%ADD28RoundRect,0.250000X1.550000X-0.650000X1.550000X0.650000X-1.550000X0.650000X-1.550000X-0.650000X0*%
%ADD29O,3.600000X1.800000*%
%ADD30RoundRect,0.150000X-0.587500X-0.150000X0.587500X-0.150000X0.587500X0.150000X-0.587500X0.150000X0*%
%ADD31RoundRect,0.225000X0.225000X0.250000X-0.225000X0.250000X-0.225000X-0.250000X0.225000X-0.250000X0*%
%ADD32C,2.100000*%
%ADD33RoundRect,0.250000X-0.375000X-1.075000X0.375000X-1.075000X0.375000X1.075000X-0.375000X1.075000X0*%
%ADD34RoundRect,0.250000X-0.650000X0.325000X-0.650000X-0.325000X0.650000X-0.325000X0.650000X0.325000X0*%
%ADD35RoundRect,0.250000X-0.625000X0.350000X-0.625000X-0.350000X0.625000X-0.350000X0.625000X0.350000X0*%
%ADD36O,1.750000X1.200000*%
%ADD37RoundRect,0.250000X-0.475000X0.250000X-0.475000X-0.250000X0.475000X-0.250000X0.475000X0.250000X0*%
%ADD38RoundRect,0.150000X0.150000X-0.825000X0.150000X0.825000X-0.150000X0.825000X-0.150000X-0.825000X0*%
%ADD39C,0.990600*%
%ADD40R,1.000000X1.000000*%
%ADD41O,1.000000X1.000000*%
%ADD42RoundRect,0.150000X-0.150000X0.512500X-0.150000X-0.512500X0.150000X-0.512500X0.150000X0.512500X0*%
%ADD43RoundRect,0.150000X0.150000X-0.512500X0.150000X0.512500X-0.150000X0.512500X-0.150000X-0.512500X0*%
%ADD44RoundRect,0.200000X-0.200000X-0.800000X0.200000X-0.800000X0.200000X0.800000X-0.200000X0.800000X0*%
%ADD45RoundRect,0.250000X-0.550000X1.500000X-0.550000X-1.500000X0.550000X-1.500000X0.550000X1.500000X0*%
%ADD46RoundRect,0.250001X-0.462499X-0.624999X0.462499X-0.624999X0.462499X0.624999X-0.462499X0.624999X0*%
%ADD47RoundRect,0.150000X0.512500X0.150000X-0.512500X0.150000X-0.512500X-0.150000X0.512500X-0.150000X0*%
%ADD48C,1.000000*%
%ADD49R,1.800000X1.800000*%
%ADD50C,1.800000*%
%ADD51O,1.600000X1.200000*%
%ADD52O,1.200000X1.200000*%
G04 APERTURE END LIST*
D10*
X124296428Y-110891927D02*
X124296428Y-110041927D01*
X124296428Y-110041927D02*
X124579762Y-110649070D01*
X124579762Y-110649070D02*
X124863095Y-110041927D01*
X124863095Y-110041927D02*
X124863095Y-110891927D01*
X125267857Y-110891927D02*
X125267857Y-110041927D01*
X126239286Y-110041927D02*
X126765477Y-110041927D01*
X126765477Y-110041927D02*
X126482143Y-110365736D01*
X126482143Y-110365736D02*
X126603572Y-110365736D01*
X126603572Y-110365736D02*
X126684524Y-110406212D01*
X126684524Y-110406212D02*
X126725000Y-110446689D01*
X126725000Y-110446689D02*
X126765477Y-110527641D01*
X126765477Y-110527641D02*
X126765477Y-110730022D01*
X126765477Y-110730022D02*
X126725000Y-110810974D01*
X126725000Y-110810974D02*
X126684524Y-110851451D01*
X126684524Y-110851451D02*
X126603572Y-110891927D01*
X126603572Y-110891927D02*
X126360715Y-110891927D01*
X126360715Y-110891927D02*
X126279762Y-110851451D01*
X126279762Y-110851451D02*
X126239286Y-110810974D01*
X127008334Y-110041927D02*
X127291667Y-110891927D01*
X127291667Y-110891927D02*
X127575001Y-110041927D01*
X124458333Y-112179474D02*
X124417857Y-112219951D01*
X124417857Y-112219951D02*
X124296428Y-112260427D01*
X124296428Y-112260427D02*
X124215476Y-112260427D01*
X124215476Y-112260427D02*
X124094047Y-112219951D01*
X124094047Y-112219951D02*
X124013095Y-112138998D01*
X124013095Y-112138998D02*
X123972618Y-112058046D01*
X123972618Y-112058046D02*
X123932142Y-111896141D01*
X123932142Y-111896141D02*
X123932142Y-111774712D01*
X123932142Y-111774712D02*
X123972618Y-111612808D01*
X123972618Y-111612808D02*
X124013095Y-111531855D01*
X124013095Y-111531855D02*
X124094047Y-111450903D01*
X124094047Y-111450903D02*
X124215476Y-111410427D01*
X124215476Y-111410427D02*
X124296428Y-111410427D01*
X124296428Y-111410427D02*
X124417857Y-111450903D01*
X124417857Y-111450903D02*
X124458333Y-111491379D01*
X124822618Y-112260427D02*
X124822618Y-111410427D01*
X125308333Y-112260427D02*
X124944047Y-111774712D01*
X125308333Y-111410427D02*
X124822618Y-111896141D01*
X126320237Y-112260427D02*
X126320237Y-111410427D01*
X126320237Y-111410427D02*
X126603571Y-112017570D01*
X126603571Y-112017570D02*
X126886904Y-111410427D01*
X126886904Y-111410427D02*
X126886904Y-112260427D01*
X127453571Y-111410427D02*
X127615476Y-111410427D01*
X127615476Y-111410427D02*
X127696428Y-111450903D01*
X127696428Y-111450903D02*
X127777381Y-111531855D01*
X127777381Y-111531855D02*
X127817857Y-111693760D01*
X127817857Y-111693760D02*
X127817857Y-111977093D01*
X127817857Y-111977093D02*
X127777381Y-112138998D01*
X127777381Y-112138998D02*
X127696428Y-112219951D01*
X127696428Y-112219951D02*
X127615476Y-112260427D01*
X127615476Y-112260427D02*
X127453571Y-112260427D01*
X127453571Y-112260427D02*
X127372619Y-112219951D01*
X127372619Y-112219951D02*
X127291666Y-112138998D01*
X127291666Y-112138998D02*
X127251190Y-111977093D01*
X127251190Y-111977093D02*
X127251190Y-111693760D01*
X127251190Y-111693760D02*
X127291666Y-111531855D01*
X127291666Y-111531855D02*
X127372619Y-111450903D01*
X127372619Y-111450903D02*
X127453571Y-111410427D01*
X124519048Y-113628927D02*
X124235714Y-113224165D01*
X124033333Y-113628927D02*
X124033333Y-112778927D01*
X124033333Y-112778927D02*
X124357143Y-112778927D01*
X124357143Y-112778927D02*
X124438095Y-112819403D01*
X124438095Y-112819403D02*
X124478572Y-112859879D01*
X124478572Y-112859879D02*
X124519048Y-112940831D01*
X124519048Y-112940831D02*
X124519048Y-113062260D01*
X124519048Y-113062260D02*
X124478572Y-113143212D01*
X124478572Y-113143212D02*
X124438095Y-113183689D01*
X124438095Y-113183689D02*
X124357143Y-113224165D01*
X124357143Y-113224165D02*
X124033333Y-113224165D01*
X124842857Y-113588451D02*
X124964286Y-113628927D01*
X124964286Y-113628927D02*
X125166667Y-113628927D01*
X125166667Y-113628927D02*
X125247619Y-113588451D01*
X125247619Y-113588451D02*
X125288095Y-113547974D01*
X125288095Y-113547974D02*
X125328572Y-113467022D01*
X125328572Y-113467022D02*
X125328572Y-113386070D01*
X125328572Y-113386070D02*
X125288095Y-113305117D01*
X125288095Y-113305117D02*
X125247619Y-113264641D01*
X125247619Y-113264641D02*
X125166667Y-113224165D01*
X125166667Y-113224165D02*
X125004762Y-113183689D01*
X125004762Y-113183689D02*
X124923810Y-113143212D01*
X124923810Y-113143212D02*
X124883333Y-113102736D01*
X124883333Y-113102736D02*
X124842857Y-113021784D01*
X124842857Y-113021784D02*
X124842857Y-112940831D01*
X124842857Y-112940831D02*
X124883333Y-112859879D01*
X124883333Y-112859879D02*
X124923810Y-112819403D01*
X124923810Y-112819403D02*
X125004762Y-112778927D01*
X125004762Y-112778927D02*
X125207143Y-112778927D01*
X125207143Y-112778927D02*
X125328572Y-112819403D01*
X126219048Y-112778927D02*
X126502381Y-113628927D01*
X126502381Y-113628927D02*
X126785715Y-112778927D01*
X127069047Y-113305117D02*
X127716667Y-113305117D01*
D11*
%TO.C,C4*%
X116859420Y-107510000D02*
X117140580Y-107510000D01*
X116859420Y-106490000D02*
X117140580Y-106490000D01*
%TO.C,C3*%
X125261252Y-103265000D02*
X124738748Y-103265000D01*
X125261252Y-104735000D02*
X124738748Y-104735000D01*
%TO.C,R1*%
X117352500Y-101262742D02*
X117352500Y-101737258D01*
X118397500Y-101262742D02*
X118397500Y-101737258D01*
%TO.C,L2*%
X118765000Y-137147936D02*
X118765000Y-138352064D01*
X121485000Y-137147936D02*
X121485000Y-138352064D01*
%TO.C,C13*%
X122234420Y-118635000D02*
X122515580Y-118635000D01*
X122234420Y-117615000D02*
X122515580Y-117615000D01*
%TO.C,C5*%
X116886252Y-133390000D02*
X116363748Y-133390000D01*
X116886252Y-134860000D02*
X116363748Y-134860000D01*
%TO.C,U4*%
X120125000Y-115685000D02*
X119325000Y-115685000D01*
X120125000Y-112565000D02*
X118325000Y-112565000D01*
X120125000Y-112565000D02*
X120925000Y-112565000D01*
X120125000Y-115685000D02*
X120925000Y-115685000D01*
%TO.C,C7*%
X115415000Y-130359420D02*
X115415000Y-130640580D01*
X116435000Y-130359420D02*
X116435000Y-130640580D01*
%TO.C,R10*%
X130727500Y-129137742D02*
X130727500Y-129612258D01*
X131772500Y-129137742D02*
X131772500Y-129612258D01*
%TO.C,R3*%
X124137742Y-101272500D02*
X124612258Y-101272500D01*
X124137742Y-100227500D02*
X124612258Y-100227500D01*
%TO.C,D3*%
X118425000Y-136090000D02*
X118425000Y-139250000D01*
X116825000Y-136090000D02*
X118425000Y-136090000D01*
X116825000Y-139250000D02*
X116825000Y-136090000D01*
%TO.C,D5*%
X120325000Y-125410000D02*
X120325000Y-122250000D01*
X121925000Y-125410000D02*
X120325000Y-125410000D01*
X121925000Y-122250000D02*
X121925000Y-125410000D01*
%TO.C,R4*%
X126985000Y-137522936D02*
X126985000Y-137977064D01*
X125515000Y-137522936D02*
X125515000Y-137977064D01*
%TO.C,R9*%
X130272500Y-129612258D02*
X130272500Y-129137742D01*
X129227500Y-129612258D02*
X129227500Y-129137742D01*
%TO.C,D1*%
X117010000Y-107975000D02*
X111500000Y-107975000D01*
X117010000Y-111275000D02*
X117010000Y-107975000D01*
X117010000Y-111275000D02*
X111500000Y-111275000D01*
%TO.C,C15*%
X127760000Y-116015580D02*
X127760000Y-115734420D01*
X126740000Y-116015580D02*
X126740000Y-115734420D01*
%TO.C,R14*%
X121237258Y-109227500D02*
X120762742Y-109227500D01*
X121237258Y-110272500D02*
X120762742Y-110272500D01*
%TO.C,C17*%
X127740000Y-129234420D02*
X127740000Y-129515580D01*
X128760000Y-129234420D02*
X128760000Y-129515580D01*
%TO.C,J2*%
X117502500Y-111867500D02*
X110032500Y-111867500D01*
X111992500Y-119137500D02*
X111992500Y-119637500D01*
X116642500Y-119137500D02*
X116642500Y-119887500D01*
X116642500Y-115327500D02*
X116642500Y-116077500D01*
X116642500Y-113077500D02*
X116642500Y-113827500D01*
X110992500Y-113077500D02*
X111992500Y-113327500D01*
X110032500Y-111867500D02*
X110032500Y-121097500D01*
X112342500Y-117637500D02*
X112342500Y-116887500D01*
X111992500Y-115327500D02*
X111992500Y-115827500D01*
X112342500Y-116887500D02*
X116642500Y-116887500D01*
X112342500Y-119887500D02*
X112342500Y-119137500D01*
X111992500Y-115827500D02*
X110992500Y-116077500D01*
X112342500Y-116077500D02*
X112342500Y-115327500D01*
X110892500Y-121487500D02*
X109642500Y-121487500D01*
X116642500Y-116077500D02*
X112342500Y-116077500D01*
X110032500Y-121097500D02*
X117502500Y-121097500D01*
X111992500Y-113827500D02*
X112342500Y-113827500D01*
X110992500Y-116887500D02*
X111992500Y-117137500D01*
X112342500Y-113077500D02*
X116642500Y-113077500D01*
X111992500Y-117637500D02*
X112342500Y-117637500D01*
X110992500Y-119887500D02*
X110992500Y-116887500D01*
X111992500Y-117137500D02*
X111992500Y-117637500D01*
X116642500Y-119887500D02*
X112342500Y-119887500D01*
X111992500Y-113327500D02*
X111992500Y-113827500D01*
X109642500Y-121487500D02*
X109642500Y-119487500D01*
X111992500Y-119637500D02*
X110992500Y-119887500D01*
X112342500Y-113827500D02*
X112342500Y-113077500D01*
X110992500Y-116077500D02*
X110992500Y-113077500D01*
X112342500Y-119137500D02*
X111992500Y-119137500D01*
X116642500Y-116887500D02*
X116642500Y-117637500D01*
X117502500Y-121097500D02*
X117502500Y-111867500D01*
X112342500Y-115327500D02*
X111992500Y-115327500D01*
X116642345Y-113827853D02*
G75*
G03*
X116642500Y-115327500I1700155J-749647D01*
G01*
X116642345Y-117637853D02*
G75*
G03*
X116642500Y-119137500I1700155J-749647D01*
G01*
%TO.C,Q1*%
X124000000Y-121940000D02*
X124650000Y-121940000D01*
X124000000Y-125060000D02*
X124650000Y-125060000D01*
X124000000Y-121940000D02*
X122325000Y-121940000D01*
X124000000Y-125060000D02*
X123350000Y-125060000D01*
%TO.C,R11*%
X119137742Y-118647500D02*
X119612258Y-118647500D01*
X119137742Y-117602500D02*
X119612258Y-117602500D01*
%TO.C,C10*%
X121140580Y-107740000D02*
X120859420Y-107740000D01*
X121140580Y-108760000D02*
X120859420Y-108760000D01*
%TO.C,L1*%
X120397936Y-106485000D02*
X121602064Y-106485000D01*
X120397936Y-103765000D02*
X121602064Y-103765000D01*
%TO.C,R5*%
X117302500Y-130262742D02*
X117302500Y-130737258D01*
X118347500Y-130262742D02*
X118347500Y-130737258D01*
%TO.C,C1*%
X116910000Y-101663748D02*
X116910000Y-103086252D01*
X115090000Y-101663748D02*
X115090000Y-103086252D01*
%TO.C,R12*%
X122137742Y-117147500D02*
X122612258Y-117147500D01*
X122137742Y-116102500D02*
X122612258Y-116102500D01*
%TO.C,R13*%
X129227500Y-126137742D02*
X129227500Y-126612258D01*
X130272500Y-126137742D02*
X130272500Y-126612258D01*
%TO.C,R6*%
X118347500Y-123487258D02*
X118347500Y-123012742D01*
X117302500Y-123487258D02*
X117302500Y-123012742D01*
%TO.C,J3*%
X114935000Y-123400000D02*
X114735000Y-123400000D01*
X110625000Y-122550000D02*
X110625000Y-127450000D01*
X110625000Y-127450000D02*
X114125000Y-127450000D01*
X112125000Y-121940000D02*
X112125000Y-122550000D01*
X111125000Y-125100000D02*
X110625000Y-125100000D01*
X114735000Y-124500000D02*
X114125000Y-124500000D01*
X114125000Y-122550000D02*
X110625000Y-122550000D01*
X114735000Y-123700000D02*
X114935000Y-123700000D01*
X114735000Y-121940000D02*
X110015000Y-121940000D01*
X114735000Y-128060000D02*
X114735000Y-121940000D01*
X114125000Y-124500000D02*
X114125000Y-122550000D01*
X112125000Y-128060000D02*
X112125000Y-127450000D01*
X114125000Y-127450000D02*
X114125000Y-125500000D01*
X113425000Y-121940000D02*
X113425000Y-122550000D01*
X110625000Y-125000000D02*
X111125000Y-125000000D01*
X111125000Y-124900000D02*
X111125000Y-125100000D01*
X110015000Y-128060000D02*
X114735000Y-128060000D01*
X114835000Y-123700000D02*
X114835000Y-123400000D01*
X114125000Y-125500000D02*
X114735000Y-125500000D01*
X115035000Y-121640000D02*
X113785000Y-121640000D01*
X115035000Y-122890000D02*
X115035000Y-121640000D01*
X110015000Y-121940000D02*
X110015000Y-128060000D01*
X113425000Y-128060000D02*
X113425000Y-127450000D01*
X114935000Y-123700000D02*
X114935000Y-123400000D01*
X110625000Y-124900000D02*
X111125000Y-124900000D01*
%TO.C,R8*%
X128772500Y-126612258D02*
X128772500Y-126137742D01*
X127727500Y-126612258D02*
X127727500Y-126137742D01*
%TO.C,C6*%
X115015000Y-137488748D02*
X115015000Y-138011252D01*
X116485000Y-137488748D02*
X116485000Y-138011252D01*
%TO.C,C12*%
X119234420Y-117135000D02*
X119515580Y-117135000D01*
X119234420Y-116115000D02*
X119515580Y-116115000D01*
%TO.C,U5*%
X126690000Y-121125000D02*
X126690000Y-119175000D01*
X131810000Y-121125000D02*
X131810000Y-119175000D01*
X126690000Y-121125000D02*
X126690000Y-124575000D01*
X131810000Y-121125000D02*
X131810000Y-123075000D01*
%TO.C,J4*%
X128730000Y-111970000D02*
X129365000Y-111970000D01*
X128730000Y-112605000D02*
X128730000Y-111970000D01*
%TO.C,C9*%
X120010000Y-124015580D02*
X120010000Y-123734420D01*
X118990000Y-124015580D02*
X118990000Y-123734420D01*
%TO.C,C8*%
X116435000Y-123365580D02*
X116435000Y-123084420D01*
X115415000Y-123365580D02*
X115415000Y-123084420D01*
%TO.C,C14*%
X122490000Y-113984420D02*
X122490000Y-114265580D01*
X123510000Y-113984420D02*
X123510000Y-114265580D01*
%TO.C,U3*%
X115315000Y-126875000D02*
X115315000Y-126075000D01*
X118435000Y-126875000D02*
X118435000Y-125075000D01*
X118435000Y-126875000D02*
X118435000Y-127675000D01*
X115315000Y-126875000D02*
X115315000Y-127675000D01*
%TO.C,U2*%
X121940000Y-137750000D02*
X121940000Y-136950000D01*
X125060000Y-137750000D02*
X125060000Y-136950000D01*
X125060000Y-137750000D02*
X125060000Y-138550000D01*
X121940000Y-137750000D02*
X121940000Y-139550000D01*
%TO.C,R2*%
X124612258Y-101727500D02*
X124137742Y-101727500D01*
X124612258Y-102772500D02*
X124137742Y-102772500D01*
%TO.C,C16*%
X127260000Y-126515580D02*
X127260000Y-126234420D01*
X126240000Y-126515580D02*
X126240000Y-126234420D01*
%TO.C,SW1*%
X127180000Y-131055000D02*
X131320000Y-131055000D01*
X131320000Y-131055000D02*
X131320000Y-131355000D01*
X131320000Y-133895000D02*
X131320000Y-134195000D01*
X127180000Y-134195000D02*
X127180000Y-133895000D01*
X131320000Y-134195000D02*
X127180000Y-134195000D01*
X127180000Y-131355000D02*
X127180000Y-131055000D01*
%TO.C,C11*%
X125785000Y-128279437D02*
X125785000Y-134035000D01*
X124222500Y-126187500D02*
X124222500Y-126975000D01*
X120029437Y-127215000D02*
X121315000Y-127215000D01*
X120029437Y-127215000D02*
X118965000Y-128279437D01*
X124720563Y-127215000D02*
X125785000Y-128279437D01*
X118965000Y-134035000D02*
X121315000Y-134035000D01*
X124616250Y-126581250D02*
X123828750Y-126581250D01*
X124720563Y-127215000D02*
X123435000Y-127215000D01*
X118965000Y-128279437D02*
X118965000Y-134035000D01*
X125785000Y-134035000D02*
X123435000Y-134035000D01*
%TO.C,F1*%
X112147936Y-107660000D02*
X113352064Y-107660000D01*
X112147936Y-105840000D02*
X113352064Y-105840000D01*
%TO.C,R7*%
X127272500Y-129612258D02*
X127272500Y-129137742D01*
X126227500Y-129612258D02*
X126227500Y-129137742D01*
%TO.C,C2*%
X118385000Y-104640580D02*
X118385000Y-104359420D01*
X117365000Y-104640580D02*
X117365000Y-104359420D01*
%TO.C,U1*%
X120750000Y-100190000D02*
X121550000Y-100190000D01*
X120750000Y-103310000D02*
X119950000Y-103310000D01*
X120750000Y-100190000D02*
X119950000Y-100190000D01*
X120750000Y-103310000D02*
X122550000Y-103310000D01*
%TD*%
%LPC*%
D12*
%TO.C,C4*%
X116225000Y-107000000D03*
X117775000Y-107000000D03*
%TD*%
D13*
%TO.C,C3*%
X125950000Y-104000000D03*
X124050000Y-104000000D03*
%TD*%
D14*
%TO.C,R1*%
X117875000Y-100675000D03*
X117875000Y-102325000D03*
%TD*%
D15*
%TO.C,L2*%
X120125000Y-136350000D03*
X120125000Y-139150000D03*
%TD*%
D12*
%TO.C,C13*%
X121600000Y-118125000D03*
X123150000Y-118125000D03*
%TD*%
D13*
%TO.C,C5*%
X117575000Y-134125000D03*
X115675000Y-134125000D03*
%TD*%
D16*
%TO.C,U4*%
X118987500Y-113175000D03*
X118987500Y-114125000D03*
X118987500Y-115075000D03*
X121262500Y-115075000D03*
X121262500Y-113175000D03*
%TD*%
D17*
%TO.C,C7*%
X115925000Y-129725000D03*
X115925000Y-131275000D03*
%TD*%
D14*
%TO.C,R10*%
X131250000Y-128550000D03*
X131250000Y-130200000D03*
%TD*%
D18*
%TO.C,R3*%
X123550000Y-100750000D03*
X125200000Y-100750000D03*
%TD*%
D19*
%TO.C,D3*%
X117625000Y-137350000D03*
D20*
X117625000Y-139250000D03*
%TD*%
D21*
%TO.C,D5*%
X121125000Y-124150000D03*
D22*
X121125000Y-122250000D03*
%TD*%
D23*
%TO.C,R4*%
X126250000Y-136837500D03*
X126250000Y-138662500D03*
%TD*%
D24*
%TO.C,R9*%
X129750000Y-130200000D03*
X129750000Y-128550000D03*
%TD*%
D25*
%TO.C,D1*%
X115500000Y-109625000D03*
X111500000Y-109625000D03*
%TD*%
D26*
%TO.C,C15*%
X127250000Y-116650000D03*
X127250000Y-115100000D03*
%TD*%
D27*
%TO.C,R14*%
X121825000Y-109750000D03*
X120175000Y-109750000D03*
%TD*%
D17*
%TO.C,C17*%
X128250000Y-128600000D03*
X128250000Y-130150000D03*
%TD*%
D28*
%TO.C,J2*%
X114392500Y-118387500D03*
D29*
X114392500Y-114577500D03*
%TD*%
D30*
%TO.C,Q1*%
X123062500Y-122550000D03*
X123062500Y-124450000D03*
X124937500Y-123500000D03*
%TD*%
D18*
%TO.C,R11*%
X118550000Y-118125000D03*
X120200000Y-118125000D03*
%TD*%
D31*
%TO.C,C10*%
X121775000Y-108250000D03*
X120225000Y-108250000D03*
%TD*%
D32*
%TO.C,H2*%
X129125000Y-108000000D03*
%TD*%
D33*
%TO.C,L1*%
X119600000Y-105125000D03*
X122400000Y-105125000D03*
%TD*%
D14*
%TO.C,R5*%
X117825000Y-129675000D03*
X117825000Y-131325000D03*
%TD*%
D34*
%TO.C,C1*%
X116000000Y-100900000D03*
X116000000Y-103850000D03*
%TD*%
D32*
%TO.C,H1*%
X112875000Y-132000000D03*
%TD*%
D18*
%TO.C,R12*%
X121550000Y-116625000D03*
X123200000Y-116625000D03*
%TD*%
D14*
%TO.C,R13*%
X129750000Y-125550000D03*
X129750000Y-127200000D03*
%TD*%
D24*
%TO.C,R6*%
X117825000Y-124075000D03*
X117825000Y-122425000D03*
%TD*%
D35*
%TO.C,J3*%
X112925000Y-124000000D03*
D36*
X112925000Y-126000000D03*
%TD*%
D24*
%TO.C,R8*%
X128250000Y-127200000D03*
X128250000Y-125550000D03*
%TD*%
D37*
%TO.C,C6*%
X115750000Y-136800000D03*
X115750000Y-138700000D03*
%TD*%
D12*
%TO.C,C12*%
X118600000Y-116625000D03*
X120150000Y-116625000D03*
%TD*%
D38*
%TO.C,U5*%
X127345000Y-123600000D03*
X128615000Y-123600000D03*
X129885000Y-123600000D03*
X131155000Y-123600000D03*
X131155000Y-118650000D03*
X129885000Y-118650000D03*
X128615000Y-118650000D03*
X127345000Y-118650000D03*
%TD*%
D39*
%TO.C,J4*%
X128984000Y-116415000D03*
X131016000Y-116415000D03*
X130000000Y-111335000D03*
D40*
X129365000Y-112605000D03*
D41*
X130635000Y-112605000D03*
X129365000Y-113875000D03*
X130635000Y-113875000D03*
X129365000Y-115145000D03*
X130635000Y-115145000D03*
%TD*%
D26*
%TO.C,C9*%
X119500000Y-124650000D03*
X119500000Y-123100000D03*
%TD*%
%TO.C,C8*%
X115925000Y-124000000D03*
X115925000Y-122450000D03*
%TD*%
D17*
%TO.C,C14*%
X123000000Y-113350000D03*
X123000000Y-114900000D03*
%TD*%
D42*
%TO.C,U3*%
X117825000Y-125737500D03*
X116875000Y-125737500D03*
X115925000Y-125737500D03*
X115925000Y-128012500D03*
X117825000Y-128012500D03*
%TD*%
D43*
%TO.C,U2*%
X122550000Y-138887500D03*
X123500000Y-138887500D03*
X124450000Y-138887500D03*
X124450000Y-136612500D03*
X123500000Y-136612500D03*
X122550000Y-136612500D03*
%TD*%
D27*
%TO.C,R2*%
X125200000Y-102250000D03*
X123550000Y-102250000D03*
%TD*%
D26*
%TO.C,C16*%
X126750000Y-127150000D03*
X126750000Y-125600000D03*
%TD*%
D44*
%TO.C,SW1*%
X127150000Y-132625000D03*
X131350000Y-132625000D03*
%TD*%
D45*
%TO.C,C11*%
X122375000Y-127925000D03*
X122375000Y-133325000D03*
%TD*%
D46*
%TO.C,F1*%
X111262500Y-106750000D03*
X114237500Y-106750000D03*
%TD*%
D24*
%TO.C,R7*%
X126750000Y-130200000D03*
X126750000Y-128550000D03*
%TD*%
D26*
%TO.C,C2*%
X117875000Y-105275000D03*
X117875000Y-103725000D03*
%TD*%
D47*
%TO.C,U1*%
X121887500Y-102700000D03*
X121887500Y-101750000D03*
X121887500Y-100800000D03*
X119612500Y-100800000D03*
X119612500Y-101750000D03*
X119612500Y-102700000D03*
%TD*%
D48*
%TO.C,TP4*%
X116625000Y-135625000D03*
%TD*%
%TO.C,TP5*%
X125875000Y-135625000D03*
%TD*%
%TO.C,TP7*%
X124125000Y-115625000D03*
%TD*%
%TO.C,TP1*%
X110625000Y-106750000D03*
%TD*%
D49*
%TO.C,D6*%
X119725000Y-120000000D03*
D50*
X122265000Y-120000000D03*
%TD*%
D51*
%TO.C,J1*%
X123540000Y-109000000D03*
D52*
X121000000Y-111540000D03*
X118460000Y-109000000D03*
%TD*%
D48*
%TO.C,TP3*%
X126375000Y-102250000D03*
%TD*%
%TO.C,TP2*%
X114875000Y-106750000D03*
%TD*%
%TO.C,TP6*%
X125750000Y-124625000D03*
%TD*%
%LPD*%
M02*
