M48
; DRILL file {KiCad 8.0.1} date 2024-06-22T11:42:11+0200
; FORMAT={-:-/ absolute / inch / decimal}
; #@! TF.CreationDate,2024-06-22T11:42:11+02:00
; #@! TF.GenerationSoftware,Kicad,Pcbnew,8.0.1
; #@! TF.FileFunction,Plated,1,2,PTH
FMAT,2
INCH
; #@! TA.AperFunction,Plated,PTH,ViaDrill
T1C0.0118
; #@! TA.AperFunction,Plated,PTH,ViaDrill
T2C0.0197
; #@! TA.AperFunction,Plated,PTH,ComponentDrill
T3C0.0197
; #@! TA.AperFunction,Plated,PTH,ComponentDrill
T4C0.0256
; #@! TA.AperFunction,Plated,PTH,ComponentDrill
T5C0.0276
; #@! TA.AperFunction,Plated,PTH,ComponentDrill
T6C0.0295
; #@! TA.AperFunction,Plated,PTH,ComponentDrill
T7C0.0315
; #@! TA.AperFunction,Plated,PTH,ComponentDrill
T8C0.0354
; #@! TA.AperFunction,Plated,PTH,ComponentDrill
T9C0.0472
%
G90
G05
T1
X4.375Y-5.0295
X4.375Y-5.0984
X4.3898Y-4.6555
X4.4341Y-4.7441
X4.5128Y-5.2756
X4.5374Y-4.0059
X4.5374Y-4.0354
X4.5374Y-5.4921
X4.5522Y-5.2018
X4.5522Y-5.2362
X4.562Y-5.4921
X4.5669Y-4.0108
X4.5669Y-4.9951
X4.5719Y-4.7441
X4.5866Y-5.4921
X4.5965Y-5.2067
X4.5965Y-5.2362
X4.6014Y-4.9065
X4.6014Y-4.9951
X4.6063Y-4.1732
X4.6063Y-4.6604
X4.6161Y-4.252
X4.6358Y-4.6457
X4.6358Y-4.9951
X4.6358Y-5.3346
X4.6457Y-4.6752
X4.6457Y-4.7244
X4.6654Y-4.2421
X4.6703Y-5.064
X4.685Y-4.8081
X4.685Y-5.2264
X4.6949Y-4.2323
X4.7047Y-4.6161
X4.7146Y-4.6457
X4.7146Y-5.2264
X4.7244Y-4.8081
X4.7343Y-4.6161
X4.7539Y-3.9616
X4.7539Y-3.9911
X4.7539Y-4.0207
X4.7539Y-4.0502
X4.7638Y-4.2283
X4.7835Y-5.2165
X4.7835Y-5.2461
X4.7933Y-4.4587
X4.7933Y-4.4882
X4.7933Y-4.5177
X4.7933Y-4.5571
X4.813Y-5.2165
X4.813Y-5.2461
X4.813Y-5.2756
X4.8179Y-5.4232
X4.8228Y-4.439
X4.8228Y-4.5374
X4.8376Y-3.9961
X4.8425Y-5.2165
X4.8425Y-5.2461
X4.8425Y-5.2756
X4.8425Y-5.3051
X4.8474Y-5.4232
X4.8524Y-4.5571
X4.872Y-4.9705
X4.872Y-5.0098
X4.872Y-5.0492
X4.872Y-5.128
X4.872Y-5.1575
X4.872Y-5.187
X4.872Y-5.2165
X4.872Y-5.2461
X4.872Y-5.2756
X4.872Y-5.3051
X4.877Y-5.4232
X4.8917Y-4.9409
X4.8917Y-5.0787
X4.8967Y-3.9961
X4.9016Y-5.128
X4.9016Y-5.1575
X4.9016Y-5.187
X4.9016Y-5.2165
X4.9016Y-5.2461
X4.9016Y-5.2756
X4.9016Y-5.3051
X4.9065Y-5.4232
X4.9213Y-4.2126
X4.9213Y-4.9409
X4.9213Y-5.0787
X4.9311Y-5.128
X4.9311Y-5.1575
X4.9311Y-5.187
X4.9311Y-5.2165
X4.9311Y-5.2461
X4.9311Y-5.2756
X4.9311Y-5.4921
X4.9508Y-5.0787
X4.9557Y-5.4281
X4.9606Y-4.2224
X4.9606Y-5.126
X4.9606Y-5.4921
X4.9705Y-4.2569
X4.9705Y-4.3159
X4.9754Y-3.9567
X4.9754Y-3.9862
X4.9803Y-4.7047
X4.9803Y-4.7539
X4.9852Y-5.4281
X4.9902Y-4.06
X4.9902Y-4.0945
X4.9902Y-4.1289
X4.9902Y-4.1634
X4.9902Y-4.2028
X4.9902Y-5.4921
X4.9951Y-5.2904
X5.0098Y-4.7343
X5.0098Y-4.7817
X5.0197Y-4.9754
X5.0387Y-4.6203
X5.0394Y-4.3799
X5.0394Y-5.187
X5.0394Y-5.2215
X5.0394Y-5.2559
X5.0787Y-4.9754
X5.1451Y-5.0959
X5.1636Y-4.7293
X5.1673Y-4.7736
X5.1673Y-4.8081
X5.1695Y-4.4583
X5.1772Y-4.9213
X5.1772Y-4.9557
X5.1772Y-4.9902
X5.1772Y-5.0246
T2
X4.5965Y-5.0295
X4.8839Y-4.2205
X4.9213Y-4.8179
X4.9508Y-4.6358
T3
X4.5915Y-5.3396
X4.9508Y-4.9065
X4.9557Y-5.3396
X4.9754Y-4.0256
T4
X5.0931Y-4.4333
X5.0931Y-4.4833
X5.0931Y-4.5333
X5.1431Y-4.4333
X5.1431Y-4.4833
X5.1431Y-4.5333
T5
X4.6638Y-4.2913
X4.7638Y-4.3913
X4.8638Y-4.2913
T6
X4.4459Y-4.8819
X4.4459Y-4.9606
T7
X4.4783Y-4.2131
X4.4783Y-4.3115
T8
X4.7136Y-4.7244
X4.8136Y-4.7244
T9
X4.5036Y-4.5109
X4.5036Y-4.6609
M30
