M48
; DRILL file {KiCad 7.0.8} date dom 17 dic 2023, 14:45:35
; FORMAT={-:-/ absolute / inch / decimal}
; #@! TF.CreationDate,2023-12-17T14:45:35+01:00
; #@! TF.GenerationSoftware,Kicad,Pcbnew,7.0.8
; #@! TF.FileFunction,Plated,1,2,PTH
FMAT,2
INCH
; #@! TA.AperFunction,Plated,PTH,ViaDrill
T1C0.0118
; #@! TA.AperFunction,Plated,PTH,ViaDrill
T2C0.0197
; #@! TA.AperFunction,Plated,PTH,ComponentDrill
T3C0.0197
; #@! TA.AperFunction,Plated,PTH,ComponentDrill
T4C0.0256
; #@! TA.AperFunction,Plated,PTH,ComponentDrill
T5C0.0276
; #@! TA.AperFunction,Plated,PTH,ComponentDrill
T6C0.0295
; #@! TA.AperFunction,Plated,PTH,ComponentDrill
T7C0.0354
; #@! TA.AperFunction,Plated,PTH,ComponentDrill
T8C0.0472
%
G90
G05
T1
X4.3406Y-4.2618
X4.3455Y-4.3701
X4.3455Y-4.4045
X4.375Y-5.0295
X4.375Y-5.0984
X4.3799Y-4.2618
X4.3799Y-4.3701
X4.3799Y-4.4045
X4.3898Y-4.6555
X4.4144Y-4.3701
X4.4144Y-4.4045
X4.4341Y-4.7441
X4.4488Y-4.3701
X4.4488Y-4.4045
X4.5128Y-5.2756
X4.5374Y-4.0059
X4.5374Y-4.0354
X4.5374Y-5.4921
X4.5522Y-5.2018
X4.5522Y-5.2362
X4.562Y-5.4921
X4.5669Y-4.0108
X4.5669Y-4.9951
X4.5719Y-4.7441
X4.5866Y-5.4921
X4.6014Y-4.9065
X4.6014Y-4.9951
X4.6063Y-4.1732
X4.6063Y-4.5128
X4.6063Y-4.6604
X4.6161Y-4.252
X4.6358Y-4.9951
X4.6457Y-4.7244
X4.6506Y-4.3602
X4.6654Y-4.2421
X4.6703Y-5.064
X4.6801Y-4.4094
X4.685Y-4.8081
X4.6949Y-4.2323
X4.6998Y-4.6211
X4.7047Y-5.2215
X4.7244Y-4.8081
X4.7293Y-4.4537
X4.7392Y-4.4931
X4.7539Y-3.9616
X4.7539Y-3.9911
X4.7539Y-4.0207
X4.7539Y-4.0502
X4.7785Y-4.4931
X4.8179Y-4.6211
X4.8179Y-5.4232
X4.8376Y-3.9961
X4.8425Y-4.3701
X4.8474Y-5.4232
X4.8622Y-4.2323
X4.877Y-5.4232
X4.8868Y-4.4242
X4.8868Y-4.6211
X4.8868Y-4.6998
X4.8868Y-4.7392
X4.8917Y-4.3356
X4.8917Y-4.503
X4.8967Y-3.9961
X4.8967Y-5.0394
X4.8967Y-5.0787
X4.9065Y-4.9409
X4.9065Y-5.4232
X4.9163Y-4.9705
X4.9311Y-5.4921
X4.9334Y-5.0787
X4.936Y-5.0394
X4.9557Y-5.4281
X4.9606Y-5.4921
X4.9705Y-4.1929
X4.9705Y-4.2569
X4.9705Y-4.3159
X4.9754Y-3.9567
X4.9754Y-3.9862
X4.978Y-5.1551
X4.9803Y-4.4882
X4.9803Y-4.626
X4.9803Y-4.69
X4.9852Y-5.4281
X4.9902Y-4.06
X4.9902Y-4.0945
X4.9902Y-4.1289
X4.9902Y-4.4291
X4.9902Y-5.4921
X4.9951Y-5.2904
X5.0098Y-4.4882
X5.0197Y-4.9754
X5.0246Y-4.4193
X5.0246Y-4.7589
X5.0394Y-4.3799
X5.0394Y-4.4882
X5.0394Y-4.7293
X5.0394Y-5.2215
X5.0394Y-5.2559
X5.0541Y-5.1673
X5.0787Y-4.9754
X5.0886Y-5.2215
X5.1636Y-4.7293
X5.1673Y-4.7736
X5.1673Y-4.8081
X5.1695Y-4.4583
X5.1772Y-4.9213
X5.1772Y-4.9557
X5.1772Y-4.9902
X5.1772Y-5.0246
T2
X4.5965Y-5.0295
X4.8868Y-4.1732
X4.9213Y-4.8179
X4.9508Y-4.5595
T3
X4.3553Y-4.2028
X4.5226Y-4.2028
X4.5915Y-5.3396
X4.8868Y-4.5522
X4.9508Y-4.9065
X4.9557Y-5.3396
X4.9754Y-4.0256
T4
X5.0931Y-4.4333
X5.0931Y-4.4833
X5.0931Y-4.5333
X5.1431Y-4.4333
X5.1431Y-4.4833
X5.1431Y-4.5333
T5
X4.6638Y-4.2913
X4.7638Y-4.3913
X4.8638Y-4.2913
T6
X4.4459Y-4.8819
X4.4459Y-4.9606
T7
X4.7136Y-4.7244
X4.8136Y-4.7244
T8
X4.5036Y-4.5109
X4.5036Y-4.6609
T0
M30
