%TF.GenerationSoftware,KiCad,Pcbnew,7.0.8*%
%TF.CreationDate,2023-12-17T14:45:35+01:00*%
%TF.ProjectId,night_light,6e696768-745f-46c6-9967-68742e6b6963,rev?*%
%TF.SameCoordinates,Original*%
%TF.FileFunction,Copper,L1,Top*%
%TF.FilePolarity,Positive*%
%FSLAX46Y46*%
G04 Gerber Fmt 4.6, Leading zero omitted, Abs format (unit mm)*
G04 Created by KiCad (PCBNEW 7.0.8) date 2023-12-17 14:45:35*
%MOMM*%
%LPD*%
G01*
G04 APERTURE LIST*
G04 Aperture macros list*
%AMRoundRect*
0 Rectangle with rounded corners*
0 $1 Rounding radius*
0 $2 $3 $4 $5 $6 $7 $8 $9 X,Y pos of 4 corners*
0 Add a 4 corners polygon primitive as box body*
4,1,4,$2,$3,$4,$5,$6,$7,$8,$9,$2,$3,0*
0 Add four circle primitives for the rounded corners*
1,1,$1+$1,$2,$3*
1,1,$1+$1,$4,$5*
1,1,$1+$1,$6,$7*
1,1,$1+$1,$8,$9*
0 Add four rect primitives between the rounded corners*
20,1,$1+$1,$2,$3,$4,$5,0*
20,1,$1+$1,$4,$5,$6,$7,0*
20,1,$1+$1,$6,$7,$8,$9,0*
20,1,$1+$1,$8,$9,$2,$3,0*%
G04 Aperture macros list end*
%TA.AperFunction,SMDPad,CuDef*%
%ADD10RoundRect,0.225000X-0.225000X-0.250000X0.225000X-0.250000X0.225000X0.250000X-0.225000X0.250000X0*%
%TD*%
%TA.AperFunction,SMDPad,CuDef*%
%ADD11RoundRect,0.250000X0.250000X0.475000X-0.250000X0.475000X-0.250000X-0.475000X0.250000X-0.475000X0*%
%TD*%
%TA.AperFunction,SMDPad,CuDef*%
%ADD12RoundRect,0.200000X-0.275000X0.200000X-0.275000X-0.200000X0.275000X-0.200000X0.275000X0.200000X0*%
%TD*%
%TA.AperFunction,SMDPad,CuDef*%
%ADD13RoundRect,0.250000X-1.075000X0.375000X-1.075000X-0.375000X1.075000X-0.375000X1.075000X0.375000X0*%
%TD*%
%TA.AperFunction,SMDPad,CuDef*%
%ADD14RoundRect,0.150000X-0.512500X-0.150000X0.512500X-0.150000X0.512500X0.150000X-0.512500X0.150000X0*%
%TD*%
%TA.AperFunction,SMDPad,CuDef*%
%ADD15RoundRect,0.225000X-0.250000X0.225000X-0.250000X-0.225000X0.250000X-0.225000X0.250000X0.225000X0*%
%TD*%
%TA.AperFunction,SMDPad,CuDef*%
%ADD16RoundRect,0.200000X-0.200000X-0.275000X0.200000X-0.275000X0.200000X0.275000X-0.200000X0.275000X0*%
%TD*%
%TA.AperFunction,SMDPad,CuDef*%
%ADD17RoundRect,0.250000X0.300000X-0.750000X0.300000X0.750000X-0.300000X0.750000X-0.300000X-0.750000X0*%
%TD*%
%TA.AperFunction,SMDPad,CuDef*%
%ADD18RoundRect,0.200000X0.350000X-0.200000X0.350000X0.200000X-0.350000X0.200000X-0.350000X-0.200000X0*%
%TD*%
%TA.AperFunction,SMDPad,CuDef*%
%ADD19RoundRect,0.250000X-0.300000X0.750000X-0.300000X-0.750000X0.300000X-0.750000X0.300000X0.750000X0*%
%TD*%
%TA.AperFunction,SMDPad,CuDef*%
%ADD20RoundRect,0.200000X-0.350000X0.200000X-0.350000X-0.200000X0.350000X-0.200000X0.350000X0.200000X0*%
%TD*%
%TA.AperFunction,SMDPad,CuDef*%
%ADD21RoundRect,0.250000X-0.450000X0.262500X-0.450000X-0.262500X0.450000X-0.262500X0.450000X0.262500X0*%
%TD*%
%TA.AperFunction,SMDPad,CuDef*%
%ADD22RoundRect,0.200000X0.275000X-0.200000X0.275000X0.200000X-0.275000X0.200000X-0.275000X-0.200000X0*%
%TD*%
%TA.AperFunction,SMDPad,CuDef*%
%ADD23RoundRect,0.250000X1.000000X0.650000X-1.000000X0.650000X-1.000000X-0.650000X1.000000X-0.650000X0*%
%TD*%
%TA.AperFunction,SMDPad,CuDef*%
%ADD24RoundRect,0.225000X0.250000X-0.225000X0.250000X0.225000X-0.250000X0.225000X-0.250000X-0.225000X0*%
%TD*%
%TA.AperFunction,SMDPad,CuDef*%
%ADD25RoundRect,0.200000X0.200000X0.275000X-0.200000X0.275000X-0.200000X-0.275000X0.200000X-0.275000X0*%
%TD*%
%TA.AperFunction,ComponentPad*%
%ADD26RoundRect,0.250000X1.550000X-0.650000X1.550000X0.650000X-1.550000X0.650000X-1.550000X-0.650000X0*%
%TD*%
%TA.AperFunction,ComponentPad*%
%ADD27O,3.600000X1.800000*%
%TD*%
%TA.AperFunction,SMDPad,CuDef*%
%ADD28RoundRect,0.150000X-0.587500X-0.150000X0.587500X-0.150000X0.587500X0.150000X-0.587500X0.150000X0*%
%TD*%
%TA.AperFunction,SMDPad,CuDef*%
%ADD29RoundRect,0.225000X0.225000X0.250000X-0.225000X0.250000X-0.225000X-0.250000X0.225000X-0.250000X0*%
%TD*%
%TA.AperFunction,SMDPad,CuDef*%
%ADD30RoundRect,0.250000X-0.375000X-1.075000X0.375000X-1.075000X0.375000X1.075000X-0.375000X1.075000X0*%
%TD*%
%TA.AperFunction,SMDPad,CuDef*%
%ADD31RoundRect,0.250000X-0.650000X0.325000X-0.650000X-0.325000X0.650000X-0.325000X0.650000X0.325000X0*%
%TD*%
%TA.AperFunction,ComponentPad*%
%ADD32RoundRect,0.250000X-0.625000X0.350000X-0.625000X-0.350000X0.625000X-0.350000X0.625000X0.350000X0*%
%TD*%
%TA.AperFunction,ComponentPad*%
%ADD33O,1.750000X1.200000*%
%TD*%
%TA.AperFunction,SMDPad,CuDef*%
%ADD34RoundRect,0.250000X-0.475000X0.250000X-0.475000X-0.250000X0.475000X-0.250000X0.475000X0.250000X0*%
%TD*%
%TA.AperFunction,SMDPad,CuDef*%
%ADD35RoundRect,0.150000X0.150000X-0.825000X0.150000X0.825000X-0.150000X0.825000X-0.150000X-0.825000X0*%
%TD*%
%TA.AperFunction,ComponentPad*%
%ADD36R,1.000000X1.000000*%
%TD*%
%TA.AperFunction,ComponentPad*%
%ADD37O,1.000000X1.000000*%
%TD*%
%TA.AperFunction,SMDPad,CuDef*%
%ADD38RoundRect,0.150000X-0.150000X0.512500X-0.150000X-0.512500X0.150000X-0.512500X0.150000X0.512500X0*%
%TD*%
%TA.AperFunction,SMDPad,CuDef*%
%ADD39RoundRect,0.150000X0.150000X-0.512500X0.150000X0.512500X-0.150000X0.512500X-0.150000X-0.512500X0*%
%TD*%
%TA.AperFunction,SMDPad,CuDef*%
%ADD40RoundRect,0.200000X-0.200000X-0.800000X0.200000X-0.800000X0.200000X0.800000X-0.200000X0.800000X0*%
%TD*%
%TA.AperFunction,SMDPad,CuDef*%
%ADD41RoundRect,0.250000X-0.550000X1.500000X-0.550000X-1.500000X0.550000X-1.500000X0.550000X1.500000X0*%
%TD*%
%TA.AperFunction,SMDPad,CuDef*%
%ADD42RoundRect,0.250001X-0.462499X-0.624999X0.462499X-0.624999X0.462499X0.624999X-0.462499X0.624999X0*%
%TD*%
%TA.AperFunction,SMDPad,CuDef*%
%ADD43RoundRect,0.150000X0.512500X0.150000X-0.512500X0.150000X-0.512500X-0.150000X0.512500X-0.150000X0*%
%TD*%
%TA.AperFunction,ComponentPad*%
%ADD44C,1.000000*%
%TD*%
%TA.AperFunction,ComponentPad*%
%ADD45R,1.800000X1.800000*%
%TD*%
%TA.AperFunction,ComponentPad*%
%ADD46C,1.800000*%
%TD*%
%TA.AperFunction,ComponentPad*%
%ADD47O,1.600000X1.200000*%
%TD*%
%TA.AperFunction,ComponentPad*%
%ADD48O,1.200000X1.200000*%
%TD*%
%TA.AperFunction,ViaPad*%
%ADD49C,0.600000*%
%TD*%
%TA.AperFunction,ViaPad*%
%ADD50C,0.800000*%
%TD*%
%TA.AperFunction,ViaPad*%
%ADD51C,0.500000*%
%TD*%
%TA.AperFunction,Conductor*%
%ADD52C,1.000000*%
%TD*%
%TA.AperFunction,Conductor*%
%ADD53C,0.250000*%
%TD*%
%TA.AperFunction,Conductor*%
%ADD54C,0.200000*%
%TD*%
%TA.AperFunction,Conductor*%
%ADD55C,0.500000*%
%TD*%
%TA.AperFunction,Conductor*%
%ADD56C,0.400000*%
%TD*%
G04 APERTURE END LIST*
D10*
%TO.P,C4,1*%
%TO.N,/Input/Vin*%
X116225000Y-107000000D03*
%TO.P,C4,2*%
%TO.N,GND*%
X117775000Y-107000000D03*
%TD*%
D11*
%TO.P,C3,1*%
%TO.N,GND*%
X125950000Y-104000000D03*
%TO.P,C3,2*%
%TO.N,+5V*%
X124050000Y-104000000D03*
%TD*%
D12*
%TO.P,R1,1*%
%TO.N,/voltage regulator/EN*%
X117875000Y-100675000D03*
%TO.P,R1,2*%
%TO.N,+24V*%
X117875000Y-102325000D03*
%TD*%
D13*
%TO.P,L2,1,1*%
%TO.N,VCC*%
X120125000Y-136350000D03*
%TO.P,L2,2,2*%
%TO.N,/LED/SW*%
X120125000Y-139150000D03*
%TD*%
D10*
%TO.P,C13,1*%
%TO.N,GND*%
X121600000Y-118125000D03*
%TO.P,C13,2*%
%TO.N,/ALS*%
X123150000Y-118125000D03*
%TD*%
D11*
%TO.P,C5,1*%
%TO.N,VCC*%
X117575000Y-134125000D03*
%TO.P,C5,2*%
%TO.N,GND*%
X115675000Y-134125000D03*
%TD*%
D14*
%TO.P,U4,1,+*%
%TO.N,GND*%
X118987500Y-113175000D03*
%TO.P,U4,2,V-*%
X118987500Y-114125000D03*
%TO.P,U4,3,-*%
%TO.N,/sensors/PT-*%
X118987500Y-115075000D03*
%TO.P,U4,4*%
%TO.N,/sensors/PTout*%
X121262500Y-115075000D03*
%TO.P,U4,5,V+*%
%TO.N,VCC*%
X121262500Y-113175000D03*
%TD*%
D15*
%TO.P,C7,1*%
%TO.N,+5V*%
X115925000Y-129725000D03*
%TO.P,C7,2*%
%TO.N,GND*%
X115925000Y-131275000D03*
%TD*%
D12*
%TO.P,R10,1*%
%TO.N,VCC*%
X131250000Y-128550000D03*
%TO.P,R10,2*%
%TO.N,Net-(R10-Pad2)*%
X131250000Y-130200000D03*
%TD*%
D16*
%TO.P,R3,1*%
%TO.N,/voltage regulator/FB*%
X123550000Y-100750000D03*
%TO.P,R3,2*%
%TO.N,GND*%
X125200000Y-100750000D03*
%TD*%
D17*
%TO.P,D3,1,K*%
%TO.N,/LED/LED+*%
X117625000Y-137350000D03*
D18*
%TO.P,D3,2,A*%
%TO.N,/LED/SW*%
X117625000Y-139250000D03*
%TD*%
D19*
%TO.P,D5,1,K*%
%TO.N,VCC*%
X121125000Y-124150000D03*
D20*
%TO.P,D5,2,A*%
%TO.N,+5V*%
X121125000Y-122250000D03*
%TD*%
D21*
%TO.P,R4,1*%
%TO.N,/LED/LED-*%
X126250000Y-136837500D03*
%TO.P,R4,2*%
%TO.N,GND*%
X126250000Y-138662500D03*
%TD*%
D22*
%TO.P,R9,1*%
%TO.N,Net-(R10-Pad2)*%
X129750000Y-130200000D03*
%TO.P,R9,2*%
%TO.N,/MCU/PB4*%
X129750000Y-128550000D03*
%TD*%
D23*
%TO.P,D1,1,K*%
%TO.N,/Input/Vin*%
X115500000Y-109625000D03*
%TO.P,D1,2,A*%
%TO.N,GND*%
X111500000Y-109625000D03*
%TD*%
D24*
%TO.P,C15,1*%
%TO.N,VCC*%
X127250000Y-116650000D03*
%TO.P,C15,2*%
%TO.N,GND*%
X127250000Y-115100000D03*
%TD*%
D25*
%TO.P,R14,1*%
%TO.N,/MCU/PB2*%
X121825000Y-109750000D03*
%TO.P,R14,2*%
%TO.N,/PIR*%
X120175000Y-109750000D03*
%TD*%
D15*
%TO.P,C17,1*%
%TO.N,/MCU/PB4*%
X128250000Y-128600000D03*
%TO.P,C17,2*%
%TO.N,GND*%
X128250000Y-130150000D03*
%TD*%
D26*
%TO.P,J2,1,Pin_1*%
%TO.N,GND*%
X114392500Y-118387500D03*
D27*
%TO.P,J2,2,Pin_2*%
%TO.N,/Input/Vin*%
X114392500Y-114577500D03*
%TD*%
D28*
%TO.P,Q1,1,G*%
%TO.N,+5V*%
X123062500Y-122550000D03*
%TO.P,Q1,2,S*%
%TO.N,VCC*%
X123062500Y-124450000D03*
%TO.P,Q1,3,D*%
%TO.N,+BATT*%
X124937500Y-123500000D03*
%TD*%
D16*
%TO.P,R11,1*%
%TO.N,/sensors/PT-*%
X118550000Y-118125000D03*
%TO.P,R11,2*%
%TO.N,/sensors/PTout*%
X120200000Y-118125000D03*
%TD*%
D29*
%TO.P,C10,1*%
%TO.N,VCC*%
X121775000Y-108250000D03*
%TO.P,C10,2*%
%TO.N,GND*%
X120225000Y-108250000D03*
%TD*%
D30*
%TO.P,L1,1,1*%
%TO.N,/voltage regulator/SW*%
X119600000Y-105125000D03*
%TO.P,L1,2,2*%
%TO.N,+5V*%
X122400000Y-105125000D03*
%TD*%
D12*
%TO.P,R5,1*%
%TO.N,/battery/PROG*%
X117825000Y-129675000D03*
%TO.P,R5,2*%
%TO.N,GND*%
X117825000Y-131325000D03*
%TD*%
D31*
%TO.P,C1,1*%
%TO.N,GND*%
X116000000Y-100900000D03*
%TO.P,C1,2*%
%TO.N,+24V*%
X116000000Y-103850000D03*
%TD*%
D16*
%TO.P,R12,1*%
%TO.N,/sensors/PTout*%
X121550000Y-116625000D03*
%TO.P,R12,2*%
%TO.N,/ALS*%
X123200000Y-116625000D03*
%TD*%
D12*
%TO.P,R13,1*%
%TO.N,/MCU/PB1*%
X129750000Y-125550000D03*
%TO.P,R13,2*%
%TO.N,/V_{SEN}*%
X129750000Y-127200000D03*
%TD*%
D22*
%TO.P,R6,1*%
%TO.N,/STAT*%
X117825000Y-124075000D03*
%TO.P,R6,2*%
%TO.N,Net-(D4-K)*%
X117825000Y-122425000D03*
%TD*%
D32*
%TO.P,J3,1,+*%
%TO.N,+BATT*%
X112925000Y-124000000D03*
D33*
%TO.P,J3,2,-*%
%TO.N,GND*%
X112925000Y-126000000D03*
%TD*%
D22*
%TO.P,R8,1*%
%TO.N,/V_{SEN}*%
X128250000Y-127200000D03*
%TO.P,R8,2*%
%TO.N,GND*%
X128250000Y-125550000D03*
%TD*%
D34*
%TO.P,C6,1*%
%TO.N,/LED/LED+*%
X115750000Y-136800000D03*
%TO.P,C6,2*%
%TO.N,GND*%
X115750000Y-138700000D03*
%TD*%
D10*
%TO.P,C12,1*%
%TO.N,/sensors/PT-*%
X118600000Y-116625000D03*
%TO.P,C12,2*%
%TO.N,/sensors/PTout*%
X120150000Y-116625000D03*
%TD*%
D35*
%TO.P,U5,1,~{RESET}/PB5*%
%TO.N,/MCU/PB5*%
X127345000Y-123600000D03*
%TO.P,U5,2,PB3*%
%TO.N,/ALS*%
X128615000Y-123600000D03*
%TO.P,U5,3,PB4*%
%TO.N,/MCU/PB4*%
X129885000Y-123600000D03*
%TO.P,U5,4,GND*%
%TO.N,GND*%
X131155000Y-123600000D03*
%TO.P,U5,5,PB0*%
%TO.N,/EN*%
X131155000Y-118650000D03*
%TO.P,U5,6,PB1*%
%TO.N,/MCU/PB1*%
X129885000Y-118650000D03*
%TO.P,U5,7,PB2*%
%TO.N,/MCU/PB2*%
X128615000Y-118650000D03*
%TO.P,U5,8,VCC*%
%TO.N,VCC*%
X127345000Y-118650000D03*
%TD*%
D36*
%TO.P,J4,1,MISO*%
%TO.N,/MCU/PB1*%
X129365000Y-112605000D03*
D37*
%TO.P,J4,2,VCC*%
%TO.N,VCC*%
X130635000Y-112605000D03*
%TO.P,J4,3,SCK*%
%TO.N,/MCU/PB2*%
X129365000Y-113875000D03*
%TO.P,J4,4,MOSI*%
%TO.N,/EN*%
X130635000Y-113875000D03*
%TO.P,J4,5,~{RST}*%
%TO.N,/MCU/PB5*%
X129365000Y-115145000D03*
%TO.P,J4,6,GND*%
%TO.N,GND*%
X130635000Y-115145000D03*
%TD*%
D24*
%TO.P,C9,1*%
%TO.N,VCC*%
X119500000Y-124650000D03*
%TO.P,C9,2*%
%TO.N,GND*%
X119500000Y-123100000D03*
%TD*%
%TO.P,C8,1*%
%TO.N,+BATT*%
X115925000Y-124000000D03*
%TO.P,C8,2*%
%TO.N,GND*%
X115925000Y-122450000D03*
%TD*%
D15*
%TO.P,C14,1*%
%TO.N,VCC*%
X123000000Y-113350000D03*
%TO.P,C14,2*%
%TO.N,GND*%
X123000000Y-114900000D03*
%TD*%
D38*
%TO.P,U3,1,STAT*%
%TO.N,/STAT*%
X117825000Y-125737500D03*
%TO.P,U3,2,VSS*%
%TO.N,GND*%
X116875000Y-125737500D03*
%TO.P,U3,3,VBAT*%
%TO.N,+BATT*%
X115925000Y-125737500D03*
%TO.P,U3,4,VDD*%
%TO.N,+5V*%
X115925000Y-128012500D03*
%TO.P,U3,5,PROG*%
%TO.N,/battery/PROG*%
X117825000Y-128012500D03*
%TD*%
D39*
%TO.P,U2,1,SW*%
%TO.N,/LED/SW*%
X122550000Y-138887500D03*
%TO.P,U2,2,GND*%
%TO.N,GND*%
X123500000Y-138887500D03*
%TO.P,U2,3,FB*%
%TO.N,/LED/LED-*%
X124450000Y-138887500D03*
%TO.P,U2,4,EN*%
%TO.N,/EN*%
X124450000Y-136612500D03*
%TO.P,U2,5,OV*%
%TO.N,/LED/LED+*%
X123500000Y-136612500D03*
%TO.P,U2,6,VIN*%
%TO.N,VCC*%
X122550000Y-136612500D03*
%TD*%
D25*
%TO.P,R2,1*%
%TO.N,+5V*%
X125200000Y-102250000D03*
%TO.P,R2,2*%
%TO.N,/voltage regulator/FB*%
X123550000Y-102250000D03*
%TD*%
D24*
%TO.P,C16,1*%
%TO.N,/V_{SEN}*%
X126750000Y-127150000D03*
%TO.P,C16,2*%
%TO.N,GND*%
X126750000Y-125600000D03*
%TD*%
D40*
%TO.P,SW1,1,1*%
%TO.N,GND*%
X127150000Y-132625000D03*
%TO.P,SW1,2,2*%
%TO.N,Net-(R10-Pad2)*%
X131350000Y-132625000D03*
%TD*%
D41*
%TO.P,C11,1*%
%TO.N,VCC*%
X122375000Y-127925000D03*
%TO.P,C11,2*%
%TO.N,GND*%
X122375000Y-133325000D03*
%TD*%
D42*
%TO.P,F1,1*%
%TO.N,/Input/Vin*%
X111262500Y-106750000D03*
%TO.P,F1,2*%
%TO.N,+24V*%
X114237500Y-106750000D03*
%TD*%
D22*
%TO.P,R7,1*%
%TO.N,+5V*%
X126750000Y-130200000D03*
%TO.P,R7,2*%
%TO.N,/V_{SEN}*%
X126750000Y-128550000D03*
%TD*%
D24*
%TO.P,C2,1*%
%TO.N,/voltage regulator/BST*%
X117875000Y-105275000D03*
%TO.P,C2,2*%
%TO.N,/voltage regulator/SW*%
X117875000Y-103725000D03*
%TD*%
D43*
%TO.P,U1,1,BOOST*%
%TO.N,/voltage regulator/BST*%
X121887500Y-102700000D03*
%TO.P,U1,2,GND*%
%TO.N,GND*%
X121887500Y-101750000D03*
%TO.P,U1,3,VFB*%
%TO.N,/voltage regulator/FB*%
X121887500Y-100800000D03*
%TO.P,U1,4,EN*%
%TO.N,/voltage regulator/EN*%
X119612500Y-100800000D03*
%TO.P,U1,5,VIN*%
%TO.N,+24V*%
X119612500Y-101750000D03*
%TO.P,U1,6,SW*%
%TO.N,/voltage regulator/SW*%
X119612500Y-102700000D03*
%TD*%
D44*
%TO.P,TP4,1,1*%
%TO.N,/LED/LED+*%
X116625000Y-135625000D03*
%TD*%
%TO.P,TP5,1,1*%
%TO.N,/LED/LED-*%
X125875000Y-135625000D03*
%TD*%
%TO.P,TP7,1,1*%
%TO.N,/sensors/PTout*%
X124125000Y-115625000D03*
%TD*%
%TO.P,TP1,1,1*%
%TO.N,/Input/Vin*%
X110625000Y-106750000D03*
%TD*%
D45*
%TO.P,D6,1,K*%
%TO.N,/sensors/PT-*%
X119725000Y-120000000D03*
D46*
%TO.P,D6,2,A*%
%TO.N,GND*%
X122265000Y-120000000D03*
%TD*%
D47*
%TO.P,J1,1,Pin_1*%
%TO.N,VCC*%
X123540000Y-109000000D03*
D48*
%TO.P,J1,2,Pin_2*%
%TO.N,/PIR*%
X121000000Y-111540000D03*
%TO.P,J1,3,Pin_3*%
%TO.N,GND*%
X118460000Y-109000000D03*
%TD*%
D44*
%TO.P,TP3,1,1*%
%TO.N,+5V*%
X126375000Y-102250000D03*
%TD*%
%TO.P,TP2,1,1*%
%TO.N,+24V*%
X114875000Y-106750000D03*
%TD*%
%TO.P,TP6,1,1*%
%TO.N,VCC*%
X125750000Y-124625000D03*
%TD*%
D49*
%TO.N,GND*%
X131304199Y-113239737D03*
X118500000Y-107750000D03*
X117000000Y-106000000D03*
X117250000Y-108000000D03*
X124875000Y-126250000D03*
X124625000Y-125500000D03*
X126250000Y-108125000D03*
X131250000Y-122125000D03*
X127250000Y-114000000D03*
X126250000Y-106500000D03*
X126500000Y-117500000D03*
X128000000Y-120125000D03*
X127625000Y-112250000D03*
X128000000Y-133500000D03*
X119375000Y-117375000D03*
X125250000Y-139500000D03*
X111250000Y-108250000D03*
X123500000Y-107500000D03*
X127500000Y-126375000D03*
X125875000Y-137875000D03*
X113000000Y-111875000D03*
X115250000Y-139500000D03*
X124625000Y-137750000D03*
X131500000Y-126750000D03*
X120375000Y-114125000D03*
X119250000Y-107500000D03*
X116000000Y-126875000D03*
X120750000Y-100625000D03*
X115625000Y-132125000D03*
X126250000Y-109625000D03*
X126875000Y-134375000D03*
X112125000Y-111875000D03*
X126375000Y-100500000D03*
X131500000Y-125875000D03*
X124125000Y-119375000D03*
X111250000Y-111875000D03*
X126375000Y-101250000D03*
X124125000Y-117375000D03*
X124125000Y-120375000D03*
X128000000Y-132625000D03*
X114625000Y-134000000D03*
X120750000Y-102875000D03*
X131500000Y-127625000D03*
X126000000Y-139500000D03*
X124250000Y-110125000D03*
X115875000Y-139500000D03*
X126750000Y-103125000D03*
X116875000Y-126875000D03*
X124125000Y-112375000D03*
X131250000Y-121250000D03*
X116875000Y-124625000D03*
X119000000Y-122125000D03*
X122375000Y-117375000D03*
X126750000Y-104875000D03*
X115250000Y-102500000D03*
X120750000Y-101375000D03*
X125308546Y-129000000D03*
X112625000Y-120500000D03*
X117000000Y-114625000D03*
X126750000Y-104000000D03*
X115250000Y-101750000D03*
X120125000Y-113125000D03*
X111250000Y-111000000D03*
X126500000Y-119125000D03*
X116500000Y-139500000D03*
X126500000Y-114000000D03*
X127625000Y-120875000D03*
X122375000Y-137750000D03*
X117000000Y-118375000D03*
X110375000Y-111000000D03*
X128000000Y-111250000D03*
X116125000Y-120500000D03*
X129000000Y-126375000D03*
X120750000Y-102125000D03*
X111125000Y-127750000D03*
X110250000Y-108250000D03*
X126625000Y-137875000D03*
X122875000Y-101500000D03*
X123875000Y-137750000D03*
X116000000Y-101875000D03*
X124250000Y-114375000D03*
X121375000Y-114125000D03*
X123125000Y-137750000D03*
X125375000Y-128000000D03*
X110375000Y-111875000D03*
X118125000Y-110750000D03*
X126750000Y-139500000D03*
X124375000Y-128000000D03*
X126750000Y-112500000D03*
X128000000Y-114000000D03*
X120000000Y-122125000D03*
X112125000Y-111000000D03*
X118875000Y-112000000D03*
X124375000Y-129000000D03*
X123000000Y-111000000D03*
X115625000Y-133000000D03*
X113000000Y-111000000D03*
X129250000Y-132625000D03*
X118000000Y-120000000D03*
X124375000Y-101500000D03*
X111125000Y-129500000D03*
X117750000Y-126875000D03*
X131500000Y-125000000D03*
X111500000Y-118250000D03*
D50*
%TO.N,+5V*%
X116750000Y-127750000D03*
X125000000Y-122375000D03*
D49*
X126440208Y-130940208D03*
D50*
X124125000Y-106000000D03*
D49*
%TO.N,VCC*%
X128375000Y-131250000D03*
D50*
X125750000Y-115812500D03*
D51*
%TO.N,Net-(D4-K)*%
X118625000Y-128625000D03*
D49*
%TO.N,/LED/LED+*%
X119500000Y-132625000D03*
%TO.N,/EN*%
X131155000Y-120125000D03*
%TD*%
D52*
%TO.N,/Input/Vin*%
X114392500Y-114577500D02*
X114392500Y-112857500D01*
X115500000Y-111750000D02*
X115500000Y-109625000D01*
X114392500Y-112857500D02*
X115500000Y-111750000D01*
%TO.N,+24V*%
X116000000Y-103850000D02*
X116000000Y-104910740D01*
X116000000Y-104910740D02*
X114875000Y-106035740D01*
X114875000Y-106035740D02*
X114875000Y-106750000D01*
D53*
%TO.N,/voltage regulator/BST*%
X121887500Y-102700000D02*
X121887500Y-103112500D01*
X121887500Y-103112500D02*
X121000000Y-104000000D01*
X121000000Y-104000000D02*
X121000000Y-106500000D01*
X121000000Y-106500000D02*
X120750000Y-106750000D01*
X120750000Y-106750000D02*
X118750000Y-106750000D01*
X118750000Y-106750000D02*
X117875000Y-105875000D01*
X117875000Y-105875000D02*
X117875000Y-105275000D01*
D54*
%TO.N,+5V*%
X126440208Y-130940208D02*
X126750000Y-130630416D01*
X126750000Y-130630416D02*
X126750000Y-130200000D01*
D52*
%TO.N,+24V*%
X114875000Y-106750000D02*
X114237500Y-106750000D01*
D55*
%TO.N,+5V*%
X121875000Y-122250000D02*
X121125000Y-122250000D01*
X122175000Y-122550000D02*
X121875000Y-122250000D01*
X124050000Y-104000000D02*
X124050000Y-103612500D01*
X115925000Y-128012500D02*
X115925000Y-129725000D01*
X124050000Y-103612500D02*
X125200000Y-102462500D01*
X125200000Y-102462500D02*
X125200000Y-102250000D01*
X126375000Y-102250000D02*
X125200000Y-102250000D01*
X124050000Y-104000000D02*
X124050000Y-103825000D01*
X123062500Y-122550000D02*
X122175000Y-122550000D01*
D56*
%TO.N,VCC*%
X123000000Y-113350000D02*
X124725000Y-113350000D01*
X123000000Y-113350000D02*
X122350000Y-113350000D01*
D54*
X131000000Y-129500000D02*
X130927000Y-129573000D01*
D55*
X123062500Y-124450000D02*
X122200000Y-124450000D01*
D54*
X129000000Y-130625000D02*
X128375000Y-131250000D01*
X131250000Y-129250000D02*
X131000000Y-129500000D01*
X129000000Y-129871131D02*
X129000000Y-130625000D01*
D55*
X122525000Y-109000000D02*
X121775000Y-108250000D01*
D53*
X120125000Y-136350000D02*
X121725000Y-136350000D01*
D56*
X127345000Y-118650000D02*
X127345000Y-117470000D01*
D55*
X121600000Y-124625000D02*
X121125000Y-124150000D01*
D56*
X121000000Y-109025000D02*
X121000000Y-110145291D01*
X121000000Y-110145291D02*
X123000000Y-112145291D01*
D53*
X121987500Y-136612500D02*
X122550000Y-136612500D01*
D56*
X127345000Y-117470000D02*
X127250000Y-117375000D01*
D53*
X121725000Y-136350000D02*
X121987500Y-136612500D01*
D55*
X121900000Y-124150000D02*
X121125000Y-124150000D01*
D56*
X124725000Y-113350000D02*
X125750000Y-114375000D01*
X125750000Y-114375000D02*
X125750000Y-115812500D01*
D54*
X130927000Y-129573000D02*
X129298131Y-129573000D01*
D55*
X119500000Y-131250000D02*
X119500000Y-124650000D01*
X123540000Y-109000000D02*
X122525000Y-109000000D01*
D56*
X123000000Y-112145291D02*
X123000000Y-113350000D01*
D54*
X131250000Y-128550000D02*
X131250000Y-129250000D01*
D56*
X126587500Y-116650000D02*
X127250000Y-116650000D01*
X125750000Y-115812500D02*
X126587500Y-116650000D01*
X122350000Y-113350000D02*
X122175000Y-113175000D01*
X121775000Y-108250000D02*
X121000000Y-109025000D01*
D55*
X125750000Y-124625000D02*
X121600000Y-124625000D01*
X117575000Y-133175000D02*
X119500000Y-131250000D01*
D54*
X129298131Y-129573000D02*
X129000000Y-129871131D01*
D56*
X127250000Y-117375000D02*
X127250000Y-116650000D01*
D55*
X122200000Y-124450000D02*
X121900000Y-124150000D01*
D56*
X122175000Y-113175000D02*
X121262500Y-113175000D01*
D55*
X117575000Y-134125000D02*
X117575000Y-133175000D01*
%TO.N,+BATT*%
X116875000Y-123050000D02*
X115925000Y-124000000D01*
X125625000Y-121375000D02*
X117500000Y-121375000D01*
X115925000Y-125737500D02*
X115925000Y-124000000D01*
X112925000Y-124000000D02*
X115925000Y-124000000D01*
X126250000Y-122000000D02*
X125625000Y-121375000D01*
X116875000Y-122000000D02*
X116875000Y-123050000D01*
X126250000Y-123125000D02*
X126250000Y-122000000D01*
X117500000Y-121375000D02*
X116875000Y-122000000D01*
X125875000Y-123500000D02*
X126250000Y-123125000D01*
X124937500Y-123500000D02*
X125875000Y-123500000D01*
D54*
%TO.N,/voltage regulator/EN*%
X119612500Y-100800000D02*
X118675000Y-100800000D01*
X118550000Y-100675000D02*
X117875000Y-100675000D01*
X118675000Y-100800000D02*
X118550000Y-100675000D01*
%TO.N,/voltage regulator/FB*%
X122700000Y-100800000D02*
X122750000Y-100750000D01*
X123550000Y-100750000D02*
X123550000Y-102250000D01*
X121887500Y-100800000D02*
X122700000Y-100800000D01*
X122750000Y-100750000D02*
X123550000Y-100750000D01*
%TO.N,Net-(D4-K)*%
X118625000Y-123225000D02*
X117825000Y-122425000D01*
X118625000Y-128625000D02*
X118625000Y-123225000D01*
D52*
%TO.N,/Input/Vin*%
X110625000Y-106750000D02*
X111262500Y-106750000D01*
D54*
%TO.N,/LED/LED+*%
X123125000Y-135375000D02*
X121500000Y-135375000D01*
X120625000Y-132625000D02*
X119500000Y-132625000D01*
X121250000Y-133250000D02*
X121000000Y-133000000D01*
X121250000Y-135125000D02*
X121250000Y-134125000D01*
X121000000Y-133000000D02*
X120625000Y-132625000D01*
X121250000Y-134125000D02*
X121250000Y-133250000D01*
X123500000Y-135750000D02*
X123125000Y-135375000D01*
X123500000Y-136612500D02*
X123500000Y-135750000D01*
X121500000Y-135375000D02*
X121250000Y-135125000D01*
D53*
%TO.N,/LED/LED-*%
X124450000Y-138887500D02*
X124987500Y-138887500D01*
X125412500Y-136837500D02*
X126250000Y-136837500D01*
X124987500Y-138887500D02*
X125250000Y-138625000D01*
X125250000Y-138625000D02*
X125250000Y-137000000D01*
X125250000Y-137000000D02*
X125412500Y-136837500D01*
D52*
X126250000Y-136837500D02*
X126250000Y-136000000D01*
X126250000Y-136000000D02*
X125875000Y-135625000D01*
D54*
%TO.N,/battery/PROG*%
X117825000Y-129675000D02*
X117825000Y-128012500D01*
D53*
%TO.N,/sensors/PT-*%
X118987500Y-115637500D02*
X118987500Y-115075000D01*
X118550000Y-118825000D02*
X119725000Y-120000000D01*
X118550000Y-116675000D02*
X118600000Y-116625000D01*
X118550000Y-118125000D02*
X118550000Y-116675000D01*
X118600000Y-116625000D02*
X118600000Y-116025000D01*
X118550000Y-118125000D02*
X118550000Y-118825000D01*
X118600000Y-116025000D02*
X118987500Y-115637500D01*
%TO.N,/sensors/PTout*%
X120150000Y-115350000D02*
X120425000Y-115075000D01*
X121550000Y-116625000D02*
X121550000Y-115950000D01*
X120150000Y-116625000D02*
X121550000Y-116625000D01*
X120150000Y-116625000D02*
X120150000Y-115350000D01*
X121550000Y-115950000D02*
X121875000Y-115625000D01*
X120200000Y-118125000D02*
X120200000Y-116675000D01*
X121875000Y-115625000D02*
X124125000Y-115625000D01*
X120200000Y-116675000D02*
X120150000Y-116625000D01*
X120425000Y-115075000D02*
X121262500Y-115075000D01*
D54*
%TO.N,Net-(R10-Pad2)*%
X131350000Y-131100000D02*
X131250000Y-131000000D01*
X131250000Y-131000000D02*
X131250000Y-130200000D01*
X131350000Y-132625000D02*
X131350000Y-131100000D01*
X131250000Y-130200000D02*
X129750000Y-130200000D01*
%TO.N,/ALS*%
X128615000Y-124635000D02*
X128615000Y-123600000D01*
D53*
X123200000Y-118075000D02*
X123150000Y-118125000D01*
X123200000Y-116625000D02*
X123200000Y-118075000D01*
D54*
X127111841Y-124875000D02*
X128375000Y-124875000D01*
X128375000Y-124875000D02*
X128615000Y-124635000D01*
X123150000Y-118125000D02*
X124375000Y-118125000D01*
X124375000Y-118125000D02*
X126750000Y-120500000D01*
X126750000Y-124513159D02*
X127111841Y-124875000D01*
X126750000Y-120500000D02*
X126750000Y-124513159D01*
%TO.N,/V_{SEN}*%
X126750000Y-128550000D02*
X126750000Y-127150000D01*
X126800000Y-127200000D02*
X126750000Y-127150000D01*
X129750000Y-127200000D02*
X126800000Y-127200000D01*
D53*
%TO.N,/PIR*%
X120175000Y-109750000D02*
X120175000Y-110715000D01*
X120175000Y-110715000D02*
X121000000Y-111540000D01*
D54*
%TO.N,/STAT*%
X117825000Y-125737500D02*
X117825000Y-124075000D01*
%TO.N,/EN*%
X130875000Y-125000000D02*
X130500000Y-124625000D01*
X130253869Y-129125000D02*
X130500000Y-128878869D01*
X127500000Y-130625000D02*
X127500000Y-129750000D01*
X131155000Y-118650000D02*
X131155000Y-120125000D01*
X130500000Y-128878869D02*
X130500000Y-128221131D01*
X124450000Y-136612500D02*
X124450000Y-135800000D01*
X130500000Y-128221131D02*
X130875000Y-127846131D01*
X130875000Y-127846131D02*
X130875000Y-125000000D01*
X128975000Y-129176500D02*
X130202369Y-129176500D01*
X126500000Y-133750000D02*
X126500000Y-131625000D01*
X124450000Y-135800000D02*
X126500000Y-133750000D01*
X127875000Y-129375000D02*
X128776500Y-129375000D01*
X127500000Y-129750000D02*
X127875000Y-129375000D01*
X130253162Y-129125000D02*
X130253869Y-129125000D01*
X130500000Y-124625000D02*
X130500000Y-120780000D01*
X128776500Y-129375000D02*
X128975000Y-129176500D01*
X126500000Y-131625000D02*
X127500000Y-130625000D01*
X130202369Y-129176500D02*
X130253869Y-129125000D01*
X130500000Y-120780000D02*
X131155000Y-120125000D01*
%TO.N,/MCU/PB4*%
X129885000Y-124760000D02*
X130000000Y-124875000D01*
X129885000Y-123600000D02*
X129885000Y-124760000D01*
X130187500Y-124875000D02*
X130500000Y-125187500D01*
X130500000Y-125187500D02*
X130500000Y-127625000D01*
X129750000Y-128550000D02*
X128300000Y-128550000D01*
X129750000Y-128375000D02*
X129750000Y-128550000D01*
X128300000Y-128550000D02*
X128250000Y-128600000D01*
X130000000Y-124875000D02*
X130187500Y-124875000D01*
X130500000Y-127625000D02*
X129750000Y-128375000D01*
%TO.N,/MCU/PB5*%
X130000000Y-115780000D02*
X130000000Y-116750000D01*
X130000000Y-116750000D02*
X129250000Y-117500000D01*
X127345000Y-122405000D02*
X127345000Y-123600000D01*
X129250000Y-117500000D02*
X129250000Y-120500000D01*
X129250000Y-120500000D02*
X127345000Y-122405000D01*
X129365000Y-115145000D02*
X130000000Y-115780000D01*
%TO.N,/MCU/PB2*%
X128000000Y-115240000D02*
X129365000Y-113875000D01*
X128000000Y-116875000D02*
X128000000Y-115240000D01*
X128615000Y-117490000D02*
X128000000Y-116875000D01*
X126375000Y-113375000D02*
X122750000Y-109750000D01*
X128865000Y-113375000D02*
X126375000Y-113375000D01*
X129365000Y-113875000D02*
X128865000Y-113375000D01*
X128615000Y-118650000D02*
X128615000Y-117490000D01*
X122750000Y-109750000D02*
X121825000Y-109750000D01*
%TO.N,/MCU/PB1*%
X129885000Y-118650000D02*
X129885000Y-117615000D01*
X129250000Y-121625000D02*
X129885000Y-120990000D01*
X129125000Y-110375000D02*
X128750000Y-110750000D01*
X129750000Y-125550000D02*
X129250000Y-125050000D01*
X129885000Y-117615000D02*
X130125000Y-117375000D01*
X128750000Y-111990000D02*
X129365000Y-112605000D01*
X128750000Y-110750000D02*
X128750000Y-111990000D01*
X131375000Y-110375000D02*
X129125000Y-110375000D01*
X130125000Y-117375000D02*
X131300000Y-117375000D01*
X131861301Y-116813699D02*
X131861301Y-110861301D01*
X131300000Y-117375000D02*
X131861301Y-116813699D01*
X129250000Y-125050000D02*
X129250000Y-121625000D01*
X131861301Y-110861301D02*
X131375000Y-110375000D01*
X129885000Y-120990000D02*
X129885000Y-118650000D01*
%TD*%
%TA.AperFunction,Conductor*%
%TO.N,+5V*%
G36*
X125382148Y-121851422D02*
G01*
X125426363Y-121860216D01*
X125456233Y-121866158D01*
X125482909Y-121877207D01*
X125539537Y-121915045D01*
X125559954Y-121935462D01*
X125597792Y-121992090D01*
X125608841Y-122018765D01*
X125623578Y-122092851D01*
X125625000Y-122107288D01*
X125625000Y-122592711D01*
X125623578Y-122607148D01*
X125608841Y-122681234D01*
X125597792Y-122707909D01*
X125559954Y-122764537D01*
X125539537Y-122784954D01*
X125482909Y-122822792D01*
X125456234Y-122833841D01*
X125382149Y-122848578D01*
X125367712Y-122850000D01*
X120832288Y-122850000D01*
X120817851Y-122848578D01*
X120743765Y-122833841D01*
X120717090Y-122822792D01*
X120660462Y-122784954D01*
X120640045Y-122764537D01*
X120602207Y-122707909D01*
X120591158Y-122681233D01*
X120576422Y-122607147D01*
X120575000Y-122592711D01*
X120575000Y-122107288D01*
X120576422Y-122092852D01*
X120591158Y-122018766D01*
X120591159Y-122018765D01*
X120591158Y-122018764D01*
X120602205Y-121992093D01*
X120640045Y-121935461D01*
X120660462Y-121915045D01*
X120717093Y-121877205D01*
X120743764Y-121866158D01*
X120790905Y-121856781D01*
X120817852Y-121851422D01*
X120832288Y-121850000D01*
X125367712Y-121850000D01*
X125382148Y-121851422D01*
G37*
%TD.AperFunction*%
%TD*%
%TA.AperFunction,Conductor*%
%TO.N,VCC*%
G36*
X123557148Y-123151422D02*
G01*
X123601363Y-123160216D01*
X123631233Y-123166158D01*
X123657909Y-123177207D01*
X123714537Y-123215045D01*
X123734954Y-123235462D01*
X123772792Y-123292090D01*
X123783841Y-123318765D01*
X123798578Y-123392851D01*
X123800000Y-123407288D01*
X123800000Y-129417711D01*
X123798578Y-129432148D01*
X123783841Y-129506234D01*
X123772792Y-129532909D01*
X123734954Y-129589537D01*
X123714537Y-129609954D01*
X123657909Y-129647792D01*
X123631234Y-129658841D01*
X123557149Y-129673578D01*
X123542712Y-129675000D01*
X119282288Y-129675000D01*
X119267851Y-129673578D01*
X119193765Y-129658841D01*
X119167090Y-129647792D01*
X119110462Y-129609954D01*
X119090045Y-129589537D01*
X119052207Y-129532909D01*
X119041158Y-129506233D01*
X119026422Y-129432147D01*
X119025000Y-129417711D01*
X119025000Y-128665499D01*
X119025911Y-128653923D01*
X119030492Y-128624999D01*
X119025911Y-128596075D01*
X119025000Y-128584499D01*
X119025000Y-123751519D01*
X119042313Y-123703953D01*
X119086150Y-123678643D01*
X119131500Y-123685038D01*
X119141375Y-123689866D01*
X119214364Y-123700500D01*
X119214370Y-123700500D01*
X119785630Y-123700500D01*
X119785636Y-123700500D01*
X119858625Y-123689866D01*
X119971211Y-123634826D01*
X120059826Y-123546211D01*
X120114866Y-123433625D01*
X120125500Y-123360636D01*
X120125500Y-123224000D01*
X120142813Y-123176434D01*
X120186650Y-123151124D01*
X120199500Y-123150000D01*
X123542712Y-123150000D01*
X123557148Y-123151422D01*
G37*
%TD.AperFunction*%
%TD*%
%TA.AperFunction,Conductor*%
%TO.N,/LED/LED+*%
G36*
X115390563Y-135000477D02*
G01*
X115390580Y-135000272D01*
X115393471Y-135000498D01*
X115393481Y-135000500D01*
X115956518Y-135000499D01*
X115959417Y-135000271D01*
X115959433Y-135000477D01*
X115965492Y-135000000D01*
X117284499Y-135000000D01*
X117290563Y-135000477D01*
X117290580Y-135000272D01*
X117293471Y-135000498D01*
X117293481Y-135000500D01*
X117527251Y-135000499D01*
X117541672Y-135001918D01*
X117541245Y-135001833D01*
X117541256Y-135001835D01*
X117548807Y-135002955D01*
X117548806Y-135002955D01*
X117570835Y-135005124D01*
X117570845Y-135005125D01*
X117578470Y-135005500D01*
X118395363Y-135005500D01*
X118409799Y-135006922D01*
X118430572Y-135011053D01*
X118456233Y-135016158D01*
X118482909Y-135027207D01*
X118539537Y-135065045D01*
X118559954Y-135085462D01*
X118597792Y-135142090D01*
X118608841Y-135168765D01*
X118623578Y-135242851D01*
X118625000Y-135257288D01*
X118625000Y-137495500D01*
X118607687Y-137543066D01*
X118563850Y-137568376D01*
X118551000Y-137569500D01*
X118396108Y-137569500D01*
X118389329Y-137569796D01*
X118373104Y-137571214D01*
X118373097Y-137571215D01*
X118308896Y-137591458D01*
X118308895Y-137591458D01*
X118275412Y-137610791D01*
X118265061Y-137616768D01*
X118265055Y-137616772D01*
X118265055Y-137616771D01*
X118242861Y-137632311D01*
X118242859Y-137632313D01*
X118196693Y-137698245D01*
X118196689Y-137698252D01*
X118179377Y-137745815D01*
X118170000Y-137798996D01*
X118170000Y-138113452D01*
X118169089Y-138125030D01*
X118162745Y-138165078D01*
X118155591Y-138187095D01*
X118131000Y-138235358D01*
X118117391Y-138254089D01*
X118079089Y-138292391D01*
X118060358Y-138306000D01*
X118012097Y-138330590D01*
X117990080Y-138337744D01*
X117966912Y-138341414D01*
X117950027Y-138344088D01*
X117938454Y-138344999D01*
X117311544Y-138344999D01*
X117299969Y-138344088D01*
X117285106Y-138341734D01*
X117248264Y-138335899D01*
X117237280Y-138333287D01*
X117205579Y-138323139D01*
X117174615Y-138318511D01*
X117159135Y-138316198D01*
X117136148Y-138314490D01*
X117136147Y-138314490D01*
X117136143Y-138314490D01*
X117058401Y-138335322D01*
X117058399Y-138335323D01*
X117057402Y-138335899D01*
X117050149Y-138340086D01*
X117013150Y-138350000D01*
X116668887Y-138350000D01*
X116621321Y-138332687D01*
X116602953Y-138309596D01*
X116553049Y-138211657D01*
X116463343Y-138121951D01*
X116463342Y-138121950D01*
X116350304Y-138064354D01*
X116350302Y-138064353D01*
X116350301Y-138064353D01*
X116256519Y-138049500D01*
X115243480Y-138049500D01*
X115149695Y-138064353D01*
X115149693Y-138064354D01*
X115036657Y-138121950D01*
X115003356Y-138155251D01*
X114957480Y-138176642D01*
X114908586Y-138163541D01*
X114879552Y-138122076D01*
X114878452Y-138117357D01*
X114877675Y-138113452D01*
X114876420Y-138107143D01*
X114875000Y-138092711D01*
X114875000Y-135257288D01*
X114876422Y-135242852D01*
X114891158Y-135168766D01*
X114891159Y-135168765D01*
X114891158Y-135168764D01*
X114902205Y-135142093D01*
X114940045Y-135085461D01*
X114960462Y-135065045D01*
X115017093Y-135027205D01*
X115043764Y-135016158D01*
X115090905Y-135006781D01*
X115117852Y-135001422D01*
X115132288Y-135000000D01*
X115384499Y-135000000D01*
X115390563Y-135000477D01*
G37*
%TD.AperFunction*%
%TD*%
%TA.AperFunction,Conductor*%
%TO.N,+5V*%
G36*
X116907148Y-127351422D02*
G01*
X116951363Y-127360216D01*
X116981233Y-127366158D01*
X117007909Y-127377207D01*
X117064537Y-127415045D01*
X117084954Y-127435462D01*
X117122792Y-127492090D01*
X117133841Y-127518765D01*
X117148578Y-127592851D01*
X117150000Y-127607288D01*
X117150000Y-130242711D01*
X117148578Y-130257148D01*
X117133841Y-130331234D01*
X117122792Y-130357909D01*
X117084954Y-130414537D01*
X117064537Y-130434954D01*
X117007909Y-130472792D01*
X116981234Y-130483841D01*
X116907149Y-130498578D01*
X116892712Y-130500000D01*
X114860841Y-130500000D01*
X114846404Y-130498578D01*
X114772319Y-130483841D01*
X114745644Y-130472792D01*
X114682837Y-130430826D01*
X114671623Y-130421623D01*
X114512563Y-130262563D01*
X114500000Y-130250000D01*
X114000000Y-129875000D01*
X113625000Y-129750000D01*
X113288489Y-129637829D01*
X113288481Y-129637827D01*
X113250000Y-129625000D01*
X113209431Y-129625000D01*
X113209426Y-129625000D01*
X112307288Y-129625000D01*
X112292851Y-129623578D01*
X112218765Y-129608841D01*
X112192090Y-129597792D01*
X112135462Y-129559954D01*
X112115045Y-129539537D01*
X112077207Y-129482909D01*
X112066158Y-129456233D01*
X112051422Y-129382147D01*
X112050000Y-129367711D01*
X112050000Y-127607288D01*
X112051422Y-127592852D01*
X112066158Y-127518766D01*
X112066159Y-127518765D01*
X112066158Y-127518764D01*
X112077205Y-127492093D01*
X112115045Y-127435461D01*
X112135462Y-127415045D01*
X112192093Y-127377205D01*
X112218764Y-127366158D01*
X112265905Y-127356781D01*
X112292852Y-127351422D01*
X112307288Y-127350000D01*
X116892712Y-127350000D01*
X116907148Y-127351422D01*
G37*
%TD.AperFunction*%
%TD*%
%TA.AperFunction,Conductor*%
%TO.N,/voltage regulator/SW*%
G36*
X120028595Y-102401422D02*
G01*
X120102679Y-102416158D01*
X120129354Y-102427206D01*
X120188115Y-102466469D01*
X120208531Y-102486885D01*
X120247792Y-102545644D01*
X120258841Y-102572319D01*
X120273578Y-102646404D01*
X120275000Y-102660841D01*
X120275000Y-102850000D01*
X120275000Y-103625000D01*
X120500000Y-103800000D01*
X120668769Y-103800000D01*
X120716335Y-103817313D01*
X120741645Y-103861150D01*
X120740421Y-103881528D01*
X120740485Y-103881528D01*
X120740485Y-103885217D01*
X120739751Y-103892663D01*
X120739582Y-103895485D01*
X120739421Y-103896013D01*
X120739063Y-103899654D01*
X120719103Y-104000000D01*
X120723078Y-104019983D01*
X120724500Y-104034420D01*
X120724500Y-106355232D01*
X120707187Y-106402798D01*
X120702826Y-106407558D01*
X120685043Y-106425341D01*
X120647155Y-106445593D01*
X120641458Y-106446726D01*
X120632147Y-106448578D01*
X120617712Y-106450000D01*
X119031774Y-106450000D01*
X119027794Y-106449785D01*
X119005575Y-106447379D01*
X118984234Y-106445069D01*
X118968672Y-106441659D01*
X118927135Y-106427730D01*
X118923425Y-106426259D01*
X118736164Y-106340059D01*
X118714781Y-106325165D01*
X118320920Y-105931304D01*
X118299528Y-105885428D01*
X118312629Y-105836533D01*
X118340748Y-105812496D01*
X118346211Y-105809826D01*
X118434826Y-105721211D01*
X118489866Y-105608625D01*
X118500500Y-105535636D01*
X118500500Y-105014364D01*
X118489866Y-104941375D01*
X118434826Y-104828789D01*
X118346211Y-104740174D01*
X118346210Y-104740173D01*
X118233626Y-104685134D01*
X118160640Y-104674500D01*
X118160636Y-104674500D01*
X117589364Y-104674500D01*
X117589359Y-104674500D01*
X117516374Y-104685134D01*
X117516372Y-104685135D01*
X117506498Y-104689962D01*
X117456161Y-104695298D01*
X117414171Y-104667029D01*
X117400000Y-104623480D01*
X117400000Y-104225254D01*
X117401422Y-104210817D01*
X117401835Y-104208741D01*
X117401836Y-104208738D01*
X117402955Y-104201192D01*
X117402955Y-104201193D01*
X117405124Y-104179164D01*
X117405125Y-104179154D01*
X117405500Y-104171529D01*
X117405500Y-103991613D01*
X117405296Y-103985978D01*
X117405098Y-103983250D01*
X117405000Y-103980564D01*
X117405000Y-103585704D01*
X117406422Y-103571268D01*
X117416158Y-103522320D01*
X117427205Y-103495647D01*
X117469177Y-103432831D01*
X117478371Y-103421628D01*
X117546628Y-103353371D01*
X117557831Y-103344177D01*
X117620647Y-103302205D01*
X117647318Y-103291158D01*
X117696268Y-103281422D01*
X117710704Y-103280000D01*
X118155559Y-103280000D01*
X118158220Y-103280095D01*
X118159878Y-103280215D01*
X118160997Y-103280297D01*
X118164371Y-103280418D01*
X118166619Y-103280500D01*
X118166621Y-103280500D01*
X118296714Y-103280500D01*
X118302425Y-103280290D01*
X118318964Y-103279072D01*
X118324644Y-103278443D01*
X118342508Y-103275797D01*
X118353346Y-103275000D01*
X118533422Y-103275000D01*
X118533423Y-103275000D01*
X118625000Y-103275000D01*
X118694906Y-103215848D01*
X118694909Y-103215847D01*
X118861486Y-103074897D01*
X118861487Y-103074895D01*
X118950000Y-103000000D01*
X118950000Y-102660841D01*
X118951422Y-102646405D01*
X118966158Y-102572320D01*
X118977205Y-102545647D01*
X119016471Y-102486881D01*
X119036881Y-102466471D01*
X119095647Y-102427205D01*
X119122318Y-102416158D01*
X119169225Y-102406828D01*
X119196405Y-102401422D01*
X119210841Y-102400000D01*
X120014159Y-102400000D01*
X120028595Y-102401422D01*
G37*
%TD.AperFunction*%
%TD*%
%TA.AperFunction,Conductor*%
%TO.N,+24V*%
G36*
X119882148Y-101451422D02*
G01*
X119926363Y-101460216D01*
X119956233Y-101466158D01*
X119982909Y-101477207D01*
X120039537Y-101515045D01*
X120059954Y-101535462D01*
X120097792Y-101592090D01*
X120108841Y-101618765D01*
X120123578Y-101692851D01*
X120125000Y-101707288D01*
X120125000Y-101792711D01*
X120123578Y-101807148D01*
X120108841Y-101881234D01*
X120097792Y-101907909D01*
X120059954Y-101964537D01*
X120039537Y-101984954D01*
X119982909Y-102022792D01*
X119956234Y-102033841D01*
X119882149Y-102048578D01*
X119867712Y-102050000D01*
X118950000Y-102050000D01*
X118876780Y-102123219D01*
X118876777Y-102123222D01*
X118876776Y-102123224D01*
X118823224Y-102176776D01*
X118823222Y-102176777D01*
X118823219Y-102176780D01*
X118750000Y-102250000D01*
X118750000Y-102353553D01*
X118750000Y-102353554D01*
X118750000Y-102732066D01*
X118747778Y-102750066D01*
X118724932Y-102841170D01*
X118707945Y-102872909D01*
X118644816Y-102942451D01*
X118631073Y-102954284D01*
X118442511Y-103079992D01*
X118433049Y-103085340D01*
X118381661Y-103109595D01*
X118360915Y-103115877D01*
X118311891Y-103123136D01*
X118304694Y-103124202D01*
X118293856Y-103125000D01*
X118169431Y-103125000D01*
X118163316Y-103124557D01*
X118163307Y-103124694D01*
X118160641Y-103124500D01*
X118160636Y-103124500D01*
X117589364Y-103124500D01*
X117589359Y-103124500D01*
X117516374Y-103135134D01*
X117516373Y-103135134D01*
X117403789Y-103190173D01*
X117315173Y-103278789D01*
X117260134Y-103391373D01*
X117260134Y-103391374D01*
X117249500Y-103464359D01*
X117249500Y-103985632D01*
X117249694Y-103988311D01*
X117249556Y-103988320D01*
X117250000Y-103994432D01*
X117250000Y-104167711D01*
X117248578Y-104182148D01*
X117233841Y-104256234D01*
X117222792Y-104282909D01*
X117184954Y-104339537D01*
X117164537Y-104359954D01*
X117107909Y-104397792D01*
X117081234Y-104408841D01*
X117007149Y-104423578D01*
X116992712Y-104425000D01*
X116650000Y-104425000D01*
X115460841Y-104425000D01*
X115446404Y-104423578D01*
X115372319Y-104408841D01*
X115345644Y-104397792D01*
X115282837Y-104355826D01*
X115271623Y-104346623D01*
X115178376Y-104253376D01*
X115169173Y-104242162D01*
X115127207Y-104179355D01*
X115116158Y-104152679D01*
X115101422Y-104078594D01*
X115100000Y-104064158D01*
X115100000Y-103403259D01*
X115101842Y-103386851D01*
X115120869Y-103303211D01*
X115135066Y-103273624D01*
X115188402Y-103206444D01*
X115200041Y-103194746D01*
X115618365Y-102859169D01*
X117301559Y-101508913D01*
X117311927Y-101501948D01*
X117368933Y-101470281D01*
X117392419Y-101462024D01*
X117456706Y-101451053D01*
X117469154Y-101450000D01*
X119867712Y-101450000D01*
X119882148Y-101451422D01*
G37*
%TD.AperFunction*%
%TD*%
%TA.AperFunction,Conductor*%
%TO.N,+5V*%
G36*
X124203595Y-103276422D02*
G01*
X124277679Y-103291158D01*
X124304355Y-103302207D01*
X124367162Y-103344173D01*
X124378376Y-103353376D01*
X124471623Y-103446623D01*
X124480826Y-103457837D01*
X124522792Y-103520644D01*
X124533841Y-103547319D01*
X124548578Y-103621404D01*
X124550000Y-103635841D01*
X124550000Y-106192711D01*
X124548578Y-106207148D01*
X124533841Y-106281234D01*
X124522792Y-106307909D01*
X124484954Y-106364537D01*
X124464537Y-106384954D01*
X124407909Y-106422792D01*
X124381234Y-106433841D01*
X124307149Y-106448578D01*
X124292712Y-106450000D01*
X123025000Y-106450000D01*
X121349500Y-106450000D01*
X121301934Y-106432687D01*
X121276624Y-106388850D01*
X121275500Y-106376000D01*
X121275500Y-104144767D01*
X121292813Y-104097201D01*
X121297163Y-104092452D01*
X122057972Y-103331642D01*
X122069176Y-103322447D01*
X122086124Y-103311124D01*
X122088286Y-103307887D01*
X122129107Y-103277956D01*
X122149815Y-103275000D01*
X124189159Y-103275000D01*
X124203595Y-103276422D01*
G37*
%TD.AperFunction*%
%TD*%
%TA.AperFunction,Conductor*%
%TO.N,+BATT*%
G36*
X116157148Y-123401422D02*
G01*
X116201363Y-123410216D01*
X116231233Y-123416158D01*
X116257909Y-123427207D01*
X116314537Y-123465045D01*
X116334954Y-123485462D01*
X116372792Y-123542090D01*
X116383841Y-123568765D01*
X116398578Y-123642851D01*
X116400000Y-123657288D01*
X116400000Y-125001000D01*
X116382687Y-125048566D01*
X116338850Y-125073876D01*
X116326000Y-125075000D01*
X116225000Y-125075000D01*
X116225000Y-126219348D01*
X116207687Y-126266914D01*
X116203326Y-126271674D01*
X116096674Y-126378326D01*
X116050798Y-126399718D01*
X116044348Y-126400000D01*
X113962878Y-126400000D01*
X113915312Y-126382687D01*
X113890002Y-126338850D01*
X113894089Y-126303863D01*
X113892576Y-126303410D01*
X113908566Y-126250000D01*
X113944130Y-126131210D01*
X113954331Y-125956065D01*
X113923865Y-125783289D01*
X113854377Y-125622196D01*
X113749610Y-125481470D01*
X113749603Y-125481464D01*
X113615215Y-125368698D01*
X113615216Y-125368698D01*
X113458434Y-125289960D01*
X113458430Y-125289959D01*
X113287721Y-125249500D01*
X112606291Y-125249500D01*
X112475745Y-125264759D01*
X112475740Y-125264760D01*
X112310883Y-125324762D01*
X112310881Y-125324763D01*
X112164663Y-125420932D01*
X112115409Y-125432606D01*
X112070174Y-125409888D01*
X112050125Y-125363408D01*
X112050000Y-125359106D01*
X112050000Y-123657288D01*
X112051422Y-123642852D01*
X112066158Y-123568766D01*
X112066159Y-123568765D01*
X112066158Y-123568764D01*
X112077205Y-123542093D01*
X112115045Y-123485461D01*
X112135462Y-123465045D01*
X112192093Y-123427205D01*
X112218764Y-123416158D01*
X112265905Y-123406781D01*
X112292852Y-123401422D01*
X112307288Y-123400000D01*
X116142712Y-123400000D01*
X116157148Y-123401422D01*
G37*
%TD.AperFunction*%
%TD*%
%TA.AperFunction,Conductor*%
%TO.N,VCC*%
G36*
X120973066Y-133417313D02*
G01*
X120998376Y-133461150D01*
X120999500Y-133474000D01*
X120999500Y-135093037D01*
X120998078Y-135107473D01*
X120994592Y-135124998D01*
X120994592Y-135125000D01*
X121014033Y-135222739D01*
X121014033Y-135222740D01*
X121014034Y-135222741D01*
X121015877Y-135225499D01*
X121069399Y-135305601D01*
X121084260Y-135315531D01*
X121095472Y-135324732D01*
X121300267Y-135529527D01*
X121309466Y-135540735D01*
X121319399Y-135555601D01*
X121402260Y-135610966D01*
X121402262Y-135610966D01*
X121404313Y-135611816D01*
X121406416Y-135613742D01*
X121408320Y-135615015D01*
X121408124Y-135615307D01*
X121441636Y-135646011D01*
X121450000Y-135680185D01*
X121450000Y-136614158D01*
X121448578Y-136628595D01*
X121433841Y-136702680D01*
X121422792Y-136729355D01*
X121380826Y-136792162D01*
X121371623Y-136803376D01*
X121278376Y-136896623D01*
X121267162Y-136905826D01*
X121204355Y-136947792D01*
X121177680Y-136958841D01*
X121103596Y-136973578D01*
X121089159Y-136975000D01*
X119160841Y-136975000D01*
X119146404Y-136973578D01*
X119072319Y-136958841D01*
X119045644Y-136947792D01*
X118982837Y-136905826D01*
X118971623Y-136896623D01*
X118878376Y-136803376D01*
X118869173Y-136792162D01*
X118827207Y-136729355D01*
X118816158Y-136702679D01*
X118801422Y-136628594D01*
X118800000Y-136614158D01*
X118800000Y-135114987D01*
X118800000Y-135114984D01*
X118800000Y-135000000D01*
X118625000Y-134850000D01*
X118532519Y-134850000D01*
X117582288Y-134850000D01*
X117567851Y-134848578D01*
X117493765Y-134833841D01*
X117467090Y-134822792D01*
X117410462Y-134784954D01*
X117390045Y-134764537D01*
X117352207Y-134707909D01*
X117341158Y-134681233D01*
X117326422Y-134607147D01*
X117325000Y-134592711D01*
X117325000Y-133657288D01*
X117326422Y-133642852D01*
X117341158Y-133568766D01*
X117352205Y-133542093D01*
X117390045Y-133485461D01*
X117410462Y-133465045D01*
X117467093Y-133427205D01*
X117493764Y-133416158D01*
X117540905Y-133406781D01*
X117567852Y-133401422D01*
X117582288Y-133400000D01*
X120925500Y-133400000D01*
X120973066Y-133417313D01*
G37*
%TD.AperFunction*%
%TD*%
%TA.AperFunction,Conductor*%
%TO.N,/LED/SW*%
G36*
X121528595Y-137726422D02*
G01*
X121602679Y-137741158D01*
X121629355Y-137752207D01*
X121692162Y-137794173D01*
X121703376Y-137803376D01*
X122125000Y-138225000D01*
X122589159Y-138225000D01*
X122603595Y-138226422D01*
X122677679Y-138241158D01*
X122704354Y-138252206D01*
X122763115Y-138291469D01*
X122783531Y-138311885D01*
X122822792Y-138370644D01*
X122833841Y-138397319D01*
X122848578Y-138471404D01*
X122850000Y-138485841D01*
X122850000Y-139617711D01*
X122848578Y-139632148D01*
X122833841Y-139706234D01*
X122822792Y-139732909D01*
X122784954Y-139789537D01*
X122764537Y-139809954D01*
X122707909Y-139847792D01*
X122681234Y-139858841D01*
X122607149Y-139873578D01*
X122592712Y-139875000D01*
X117332288Y-139875000D01*
X117317851Y-139873578D01*
X117243765Y-139858841D01*
X117217090Y-139847792D01*
X117160462Y-139809954D01*
X117140045Y-139789537D01*
X117102207Y-139732909D01*
X117091158Y-139706233D01*
X117076422Y-139632147D01*
X117075000Y-139617711D01*
X117075000Y-138542866D01*
X117092313Y-138495300D01*
X117136150Y-138469990D01*
X117182592Y-138476931D01*
X117199696Y-138485646D01*
X117293481Y-138500500D01*
X117956518Y-138500499D01*
X117956519Y-138500499D01*
X118050304Y-138485646D01*
X118050306Y-138485645D01*
X118081030Y-138469990D01*
X118163342Y-138428050D01*
X118253050Y-138338342D01*
X118310646Y-138225304D01*
X118325500Y-138131519D01*
X118325500Y-137799000D01*
X118342813Y-137751434D01*
X118386650Y-137726124D01*
X118399500Y-137725000D01*
X121514159Y-137725000D01*
X121528595Y-137726422D01*
G37*
%TD.AperFunction*%
%TD*%
%TA.AperFunction,Conductor*%
%TO.N,GND*%
G36*
X116250031Y-138205911D02*
G01*
X116290072Y-138212252D01*
X116312091Y-138219406D01*
X116360360Y-138244000D01*
X116379091Y-138257609D01*
X116417391Y-138295909D01*
X116430999Y-138314639D01*
X116464400Y-138380190D01*
X116464402Y-138380194D01*
X116481259Y-138406399D01*
X116499627Y-138429490D01*
X116502200Y-138432640D01*
X116568136Y-138478809D01*
X116615702Y-138496122D01*
X116668887Y-138505500D01*
X116845500Y-138505500D01*
X116893066Y-138522813D01*
X116918376Y-138566650D01*
X116919500Y-138579500D01*
X116919500Y-139621529D01*
X116919536Y-139622266D01*
X116919876Y-139629166D01*
X116919876Y-139629165D01*
X116922043Y-139651177D01*
X116922044Y-139651179D01*
X116922045Y-139651189D01*
X116922046Y-139651193D01*
X116923163Y-139658730D01*
X116938643Y-139736559D01*
X116938646Y-139736570D01*
X116947489Y-139765726D01*
X116947498Y-139765750D01*
X116958542Y-139792411D01*
X116958541Y-139792411D01*
X116972916Y-139819305D01*
X117010747Y-139875922D01*
X117010760Y-139875939D01*
X117012909Y-139878558D01*
X117029700Y-139926311D01*
X117011867Y-139973685D01*
X116967755Y-139998512D01*
X116955704Y-139999500D01*
X114874500Y-139999500D01*
X114826934Y-139982187D01*
X114801624Y-139938350D01*
X114800500Y-139925500D01*
X114800500Y-138392003D01*
X114817813Y-138344437D01*
X114861650Y-138319127D01*
X114893650Y-138320524D01*
X114917234Y-138326844D01*
X114943924Y-138331550D01*
X115023194Y-138317574D01*
X115069070Y-138296183D01*
X115113311Y-138265206D01*
X115120909Y-138257606D01*
X115139634Y-138244001D01*
X115187904Y-138219406D01*
X115209918Y-138212253D01*
X115233420Y-138208531D01*
X115249970Y-138205911D01*
X115261544Y-138205000D01*
X116238456Y-138205000D01*
X116250031Y-138205911D01*
G37*
%TD.AperFunction*%
%TA.AperFunction,Conductor*%
G36*
X127187562Y-137269781D02*
G01*
X127199500Y-137310084D01*
X127199500Y-139925500D01*
X127182187Y-139973066D01*
X127138350Y-139998376D01*
X127125500Y-139999500D01*
X122969295Y-139999500D01*
X122921729Y-139982187D01*
X122896419Y-139938350D01*
X122905209Y-139888500D01*
X122912090Y-139878558D01*
X122913017Y-139877426D01*
X122914247Y-139875929D01*
X122952085Y-139819301D01*
X122966456Y-139792416D01*
X122977505Y-139765741D01*
X122986353Y-139736571D01*
X123001835Y-139658741D01*
X123001924Y-139658138D01*
X123002955Y-139651192D01*
X123002955Y-139651193D01*
X123005124Y-139629164D01*
X123005125Y-139629154D01*
X123005498Y-139621572D01*
X123005481Y-139622266D01*
X123023904Y-139575119D01*
X123068322Y-139550843D01*
X123079461Y-139550000D01*
X123200000Y-139550000D01*
X123200000Y-139474000D01*
X123217313Y-139426434D01*
X123261150Y-139401124D01*
X123274000Y-139400000D01*
X123726000Y-139400000D01*
X123773566Y-139417313D01*
X123798876Y-139461150D01*
X123800000Y-139474000D01*
X123800000Y-139550000D01*
X123994378Y-139550000D01*
X124041944Y-139567313D01*
X124046704Y-139571674D01*
X124047793Y-139572763D01*
X124047794Y-139572765D01*
X124127235Y-139652206D01*
X124230009Y-139697585D01*
X124255135Y-139700500D01*
X124644864Y-139700499D01*
X124669991Y-139697585D01*
X124772765Y-139652206D01*
X124852206Y-139572765D01*
X124897585Y-139469991D01*
X124900500Y-139444865D01*
X124900500Y-139241260D01*
X124917813Y-139193694D01*
X124961650Y-139168384D01*
X124980211Y-139168587D01*
X124980211Y-139168397D01*
X124987501Y-139168397D01*
X124992122Y-139167477D01*
X125014632Y-139163000D01*
X125014633Y-139163000D01*
X125094995Y-139147015D01*
X125136965Y-139118971D01*
X125163122Y-139101494D01*
X125163122Y-139101493D01*
X125171136Y-139096139D01*
X125171139Y-139096136D01*
X125186124Y-139086124D01*
X125197448Y-139069174D01*
X125206641Y-139057973D01*
X125420473Y-138844141D01*
X125431676Y-138834947D01*
X125448624Y-138823624D01*
X125509515Y-138732495D01*
X125525500Y-138652133D01*
X125525500Y-138652132D01*
X125530897Y-138625000D01*
X125526922Y-138605015D01*
X125525500Y-138590579D01*
X125525500Y-137530383D01*
X125542813Y-137482817D01*
X125586650Y-137457507D01*
X125633094Y-137464448D01*
X125674696Y-137485646D01*
X125768481Y-137500500D01*
X126731518Y-137500499D01*
X126731519Y-137500499D01*
X126825304Y-137485646D01*
X126825306Y-137485645D01*
X126866905Y-137464449D01*
X126938342Y-137428050D01*
X127028050Y-137338342D01*
X127059566Y-137276487D01*
X127096586Y-137241967D01*
X127147135Y-137239317D01*
X127187562Y-137269781D01*
G37*
%TD.AperFunction*%
%TA.AperFunction,Conductor*%
G36*
X121716772Y-136731962D02*
G01*
X121722529Y-136737145D01*
X121768354Y-136782970D01*
X121777556Y-136794183D01*
X121782362Y-136801376D01*
X121788876Y-136811124D01*
X121811876Y-136826492D01*
X121811878Y-136826494D01*
X121828350Y-136837500D01*
X121880005Y-136872015D01*
X121960367Y-136888000D01*
X121960368Y-136888000D01*
X121987499Y-136893397D01*
X121987500Y-136893397D01*
X122007483Y-136889421D01*
X122021920Y-136888000D01*
X122025501Y-136888000D01*
X122073067Y-136905313D01*
X122098377Y-136949150D01*
X122099501Y-136962000D01*
X122099501Y-137169863D01*
X122102414Y-137194986D01*
X122102415Y-137194992D01*
X122135438Y-137269781D01*
X122147794Y-137297765D01*
X122227235Y-137377206D01*
X122330009Y-137422585D01*
X122355135Y-137425500D01*
X122744864Y-137425499D01*
X122769991Y-137422585D01*
X122872765Y-137377206D01*
X122952206Y-137297765D01*
X122957305Y-137286215D01*
X122992355Y-137249696D01*
X123042680Y-137244249D01*
X123084733Y-137272425D01*
X123092693Y-137286213D01*
X123097794Y-137297765D01*
X123177235Y-137377206D01*
X123280009Y-137422585D01*
X123305135Y-137425500D01*
X123694864Y-137425499D01*
X123719991Y-137422585D01*
X123822765Y-137377206D01*
X123902206Y-137297765D01*
X123907305Y-137286215D01*
X123942355Y-137249696D01*
X123992680Y-137244249D01*
X124034733Y-137272425D01*
X124042693Y-137286213D01*
X124047794Y-137297765D01*
X124127235Y-137377206D01*
X124230009Y-137422585D01*
X124255135Y-137425500D01*
X124644864Y-137425499D01*
X124669991Y-137422585D01*
X124772765Y-137377206D01*
X124848174Y-137301797D01*
X124894050Y-137280405D01*
X124942945Y-137293506D01*
X124971979Y-137334970D01*
X124974500Y-137354123D01*
X124974500Y-138145877D01*
X124957187Y-138193443D01*
X124913350Y-138218753D01*
X124863500Y-138209963D01*
X124848174Y-138198203D01*
X124772765Y-138122794D01*
X124730522Y-138104142D01*
X124669991Y-138077415D01*
X124669990Y-138077414D01*
X124669988Y-138077414D01*
X124648659Y-138074940D01*
X124644865Y-138074500D01*
X124644864Y-138074500D01*
X124255136Y-138074500D01*
X124230013Y-138077414D01*
X124230007Y-138077415D01*
X124127234Y-138122794D01*
X124104152Y-138145877D01*
X124047794Y-138202235D01*
X124047793Y-138202236D01*
X124046704Y-138203326D01*
X124000828Y-138224718D01*
X123994378Y-138225000D01*
X123800000Y-138225000D01*
X123800000Y-138301000D01*
X123782687Y-138348566D01*
X123738850Y-138373876D01*
X123726000Y-138375000D01*
X123274000Y-138375000D01*
X123226434Y-138357687D01*
X123201124Y-138313850D01*
X123200000Y-138301000D01*
X123200000Y-138225000D01*
X123005622Y-138225000D01*
X122958056Y-138207687D01*
X122953296Y-138203326D01*
X122952206Y-138202236D01*
X122952206Y-138202235D01*
X122872765Y-138122794D01*
X122769991Y-138077415D01*
X122769990Y-138077414D01*
X122769988Y-138077414D01*
X122744865Y-138074500D01*
X122644186Y-138074500D01*
X122629766Y-138073081D01*
X122630184Y-138073164D01*
X122630181Y-138073164D01*
X122622637Y-138072045D01*
X122622625Y-138072043D01*
X122622623Y-138072043D01*
X122604015Y-138070211D01*
X122600613Y-138069876D01*
X122600614Y-138069876D01*
X122600612Y-138069875D01*
X122600603Y-138069875D01*
X122592977Y-138069500D01*
X122592972Y-138069500D01*
X122220062Y-138069500D01*
X122172496Y-138052187D01*
X122167736Y-138047826D01*
X121810634Y-137690723D01*
X121810633Y-137690723D01*
X121810632Y-137690722D01*
X121804975Y-137685594D01*
X121804972Y-137685591D01*
X121787858Y-137671547D01*
X121787859Y-137671548D01*
X121781727Y-137667000D01*
X121715746Y-137622913D01*
X121715745Y-137622912D01*
X121715737Y-137622907D01*
X121715734Y-137622906D01*
X121688866Y-137608546D01*
X121688863Y-137608544D01*
X121688860Y-137608543D01*
X121682386Y-137605861D01*
X121662181Y-137597492D01*
X121633017Y-137588646D01*
X121633006Y-137588643D01*
X121580731Y-137578245D01*
X121555188Y-137573165D01*
X121555181Y-137573164D01*
X121555182Y-137573164D01*
X121554060Y-137572997D01*
X121547637Y-137572045D01*
X121547625Y-137572043D01*
X121547623Y-137572043D01*
X121529015Y-137570211D01*
X121525613Y-137569876D01*
X121525614Y-137569876D01*
X121525612Y-137569875D01*
X121525603Y-137569875D01*
X121517977Y-137569500D01*
X121517972Y-137569500D01*
X118854500Y-137569500D01*
X118806934Y-137552187D01*
X118781624Y-137508350D01*
X118780500Y-137495500D01*
X118780500Y-137157930D01*
X118797813Y-137110364D01*
X118841650Y-137085054D01*
X118888092Y-137091995D01*
X118924696Y-137110646D01*
X119018481Y-137125500D01*
X119105805Y-137125499D01*
X119120257Y-137126924D01*
X119119827Y-137126838D01*
X119127358Y-137127955D01*
X119149388Y-137130124D01*
X119149398Y-137130125D01*
X119157023Y-137130500D01*
X119157029Y-137130500D01*
X121092971Y-137130500D01*
X121092977Y-137130500D01*
X121100602Y-137130125D01*
X121100611Y-137130124D01*
X121100612Y-137130124D01*
X121122642Y-137127955D01*
X121122641Y-137127955D01*
X121127169Y-137127283D01*
X121130182Y-137126836D01*
X121129743Y-137126924D01*
X121144195Y-137125499D01*
X121231519Y-137125499D01*
X121325304Y-137110646D01*
X121325306Y-137110645D01*
X121327419Y-137109568D01*
X121438342Y-137053050D01*
X121528050Y-136963342D01*
X121585646Y-136850304D01*
X121597114Y-136777894D01*
X121621654Y-136733623D01*
X121668911Y-136715482D01*
X121716772Y-136731962D01*
G37*
%TD.AperFunction*%
%TA.AperFunction,Conductor*%
G36*
X128771973Y-129642813D02*
G01*
X128797283Y-129686650D01*
X128788493Y-129736500D01*
X128785935Y-129740613D01*
X128764034Y-129773388D01*
X128744592Y-129871131D01*
X128748078Y-129888656D01*
X128749500Y-129903093D01*
X128749500Y-130490587D01*
X128732187Y-130538153D01*
X128727826Y-130542913D01*
X128492913Y-130777826D01*
X128447037Y-130799218D01*
X128440587Y-130799500D01*
X128310228Y-130799500D01*
X128185931Y-130835995D01*
X128076954Y-130906031D01*
X128076950Y-130906034D01*
X127992119Y-131003935D01*
X127938302Y-131121776D01*
X127919867Y-131250000D01*
X127938302Y-131378223D01*
X127938302Y-131378224D01*
X127938303Y-131378226D01*
X127992118Y-131496063D01*
X128076951Y-131593967D01*
X128185931Y-131664004D01*
X128310228Y-131700500D01*
X128439772Y-131700500D01*
X128564069Y-131664004D01*
X128673049Y-131593967D01*
X128757882Y-131496063D01*
X128811697Y-131378226D01*
X128830133Y-131250000D01*
X128822723Y-131198469D01*
X128833090Y-131148927D01*
X128843640Y-131135618D01*
X129154531Y-130824727D01*
X129165734Y-130815533D01*
X129180601Y-130805601D01*
X129224945Y-130739233D01*
X129265765Y-130709302D01*
X129316276Y-130712611D01*
X129318924Y-130713840D01*
X129373607Y-130740573D01*
X129441740Y-130750500D01*
X129441746Y-130750500D01*
X130058254Y-130750500D01*
X130058260Y-130750500D01*
X130126393Y-130740573D01*
X130231483Y-130689198D01*
X130314198Y-130606483D01*
X130365573Y-130501393D01*
X130365573Y-130501392D01*
X130368097Y-130496230D01*
X130369524Y-130496927D01*
X130395766Y-130462319D01*
X130435885Y-130450500D01*
X130564115Y-130450500D01*
X130611681Y-130467813D01*
X130630882Y-130496728D01*
X130631903Y-130496230D01*
X130685801Y-130606482D01*
X130685802Y-130606483D01*
X130768517Y-130689198D01*
X130873607Y-130740573D01*
X130936169Y-130749688D01*
X130980742Y-130773678D01*
X130999467Y-130820706D01*
X130999500Y-130822915D01*
X130999500Y-130968037D01*
X130998078Y-130982473D01*
X130994592Y-130999998D01*
X130994592Y-131000000D01*
X131014034Y-131097741D01*
X131029447Y-131120808D01*
X131069398Y-131180600D01*
X131074553Y-131185755D01*
X131072937Y-131187370D01*
X131096540Y-131219545D01*
X131099500Y-131240267D01*
X131099500Y-131414114D01*
X131082187Y-131461680D01*
X131053271Y-131480884D01*
X131053769Y-131481903D01*
X130943517Y-131535801D01*
X130860801Y-131618517D01*
X130809427Y-131723605D01*
X130809427Y-131723606D01*
X130799500Y-131791735D01*
X130799500Y-133458264D01*
X130809427Y-133526393D01*
X130809427Y-133526394D01*
X130860801Y-133631482D01*
X130860802Y-133631483D01*
X130943517Y-133714198D01*
X131048607Y-133765573D01*
X131116740Y-133775500D01*
X131116746Y-133775500D01*
X131583254Y-133775500D01*
X131583260Y-133775500D01*
X131651393Y-133765573D01*
X131756483Y-133714198D01*
X131839198Y-133631483D01*
X131859019Y-133590937D01*
X131895463Y-133555808D01*
X131945962Y-133552323D01*
X131986886Y-133582114D01*
X131999500Y-133623438D01*
X131999500Y-134325500D01*
X131982187Y-134373066D01*
X131938350Y-134398376D01*
X131925500Y-134399500D01*
X127800500Y-134399500D01*
X127800000Y-134399500D01*
X127732340Y-134399500D01*
X127670320Y-134413655D01*
X127600413Y-134429610D01*
X127600406Y-134429613D01*
X127478493Y-134488324D01*
X127372695Y-134572695D01*
X127288324Y-134678493D01*
X127229613Y-134800406D01*
X127229610Y-134800413D01*
X127213160Y-134872491D01*
X127203835Y-134913350D01*
X127199500Y-134932342D01*
X127199500Y-136364914D01*
X127182187Y-136412480D01*
X127138350Y-136437790D01*
X127088500Y-136429000D01*
X127059566Y-136398510D01*
X127028049Y-136336657D01*
X126938341Y-136246949D01*
X126933632Y-136243528D01*
X126934884Y-136241803D01*
X126906378Y-136211225D01*
X126900500Y-136182321D01*
X126900500Y-136079983D01*
X126902282Y-136063842D01*
X126902760Y-136061702D01*
X126902760Y-136061698D01*
X126900500Y-135989796D01*
X126900500Y-135959070D01*
X126899434Y-135950640D01*
X126899159Y-135947159D01*
X126897597Y-135897432D01*
X126897596Y-135897425D01*
X126890579Y-135873275D01*
X126888224Y-135861910D01*
X126885071Y-135836942D01*
X126866753Y-135790678D01*
X126865626Y-135787385D01*
X126858343Y-135762318D01*
X126851744Y-135739602D01*
X126838935Y-135717944D01*
X126833828Y-135707519D01*
X126824568Y-135684129D01*
X126818796Y-135676185D01*
X126816092Y-135672463D01*
X126795318Y-135643869D01*
X126793410Y-135640963D01*
X126768081Y-135598135D01*
X126750291Y-135580345D01*
X126742750Y-135571516D01*
X126736778Y-135563296D01*
X126727963Y-135551163D01*
X126716414Y-135541609D01*
X126689630Y-135519451D01*
X126687050Y-135517104D01*
X126381528Y-135211582D01*
X126372954Y-135201293D01*
X126365486Y-135190475D01*
X126365483Y-135190470D01*
X126321897Y-135151856D01*
X126320279Y-135150332D01*
X126306036Y-135136090D01*
X126306035Y-135136089D01*
X126291402Y-135124738D01*
X126289576Y-135123223D01*
X126247240Y-135085717D01*
X126247238Y-135085716D01*
X126247236Y-135085714D01*
X126234029Y-135078782D01*
X126223067Y-135071732D01*
X126208765Y-135060638D01*
X126157006Y-135038239D01*
X126154505Y-135037044D01*
X126107366Y-135012304D01*
X126089451Y-135007888D01*
X126077776Y-135003954D01*
X126057929Y-134995366D01*
X126057927Y-134995365D01*
X126057926Y-134995365D01*
X126027769Y-134990588D01*
X126005499Y-134987060D01*
X126002433Y-134986440D01*
X125953985Y-134974500D01*
X125932021Y-134974500D01*
X125920445Y-134973589D01*
X125912183Y-134972280D01*
X125895595Y-134969653D01*
X125895594Y-134969653D01*
X125846056Y-134974336D01*
X125842572Y-134974500D01*
X125808411Y-134974500D01*
X125760845Y-134957187D01*
X125735535Y-134913350D01*
X125744325Y-134863500D01*
X125756085Y-134848174D01*
X126072967Y-134531292D01*
X126654534Y-133949725D01*
X126665737Y-133940531D01*
X126680601Y-133930601D01*
X126735966Y-133847740D01*
X126750336Y-133775500D01*
X126755409Y-133750000D01*
X126751922Y-133732470D01*
X126750500Y-133718033D01*
X126750500Y-131759412D01*
X126767813Y-131711846D01*
X126772174Y-131707086D01*
X127195087Y-131284173D01*
X127654534Y-130824725D01*
X127665737Y-130815531D01*
X127680601Y-130805601D01*
X127735966Y-130722740D01*
X127742638Y-130689198D01*
X127755409Y-130625000D01*
X127753709Y-130616456D01*
X127751922Y-130607470D01*
X127750500Y-130593033D01*
X127750500Y-129884412D01*
X127767813Y-129836846D01*
X127772174Y-129832086D01*
X127957086Y-129647174D01*
X128002962Y-129625782D01*
X128009412Y-129625500D01*
X128724407Y-129625500D01*
X128771973Y-129642813D01*
G37*
%TD.AperFunction*%
%TA.AperFunction,Conductor*%
G36*
X126517300Y-124623293D02*
G01*
X126534374Y-124641341D01*
X126569396Y-124693757D01*
X126569397Y-124693758D01*
X126569398Y-124693758D01*
X126569399Y-124693760D01*
X126584260Y-124703690D01*
X126595472Y-124712891D01*
X126912108Y-125029527D01*
X126921307Y-125040735D01*
X126928991Y-125052235D01*
X126931241Y-125055602D01*
X126937120Y-125059530D01*
X127014101Y-125110966D01*
X127087167Y-125125500D01*
X127087168Y-125125500D01*
X127111841Y-125130408D01*
X127127682Y-125127256D01*
X127129366Y-125126922D01*
X127143803Y-125125500D01*
X128343038Y-125125500D01*
X128357474Y-125126921D01*
X128375000Y-125130408D01*
X128472741Y-125110966D01*
X128504478Y-125089760D01*
X128555601Y-125055601D01*
X128565533Y-125040734D01*
X128574727Y-125029531D01*
X128769531Y-124834727D01*
X128780734Y-124825533D01*
X128795601Y-124815601D01*
X128835769Y-124755484D01*
X128850966Y-124732741D01*
X128850965Y-124732741D01*
X128855016Y-124726680D01*
X128857938Y-124728632D01*
X128882418Y-124701819D01*
X128886798Y-124699709D01*
X128895612Y-124695817D01*
X128946116Y-124692443D01*
X128986976Y-124722322D01*
X128999500Y-124763513D01*
X128999500Y-125018037D01*
X128998078Y-125032473D01*
X128994592Y-125049998D01*
X128994592Y-125050000D01*
X129009609Y-125125499D01*
X129014034Y-125147741D01*
X129024114Y-125162826D01*
X129025088Y-125164283D01*
X129069396Y-125230598D01*
X129069398Y-125230600D01*
X129069399Y-125230601D01*
X129084258Y-125240530D01*
X129095470Y-125249731D01*
X129103140Y-125257401D01*
X129124532Y-125303277D01*
X129124621Y-125315072D01*
X129124500Y-125316742D01*
X129124500Y-125783264D01*
X129134427Y-125851393D01*
X129134427Y-125851394D01*
X129185801Y-125956482D01*
X129185802Y-125956483D01*
X129268517Y-126039198D01*
X129373607Y-126090573D01*
X129441740Y-126100500D01*
X129441746Y-126100500D01*
X130058254Y-126100500D01*
X130058260Y-126100500D01*
X130126393Y-126090573D01*
X130143001Y-126082453D01*
X130193335Y-126077117D01*
X130235327Y-126105383D01*
X130249500Y-126148935D01*
X130249500Y-126601064D01*
X130232187Y-126648630D01*
X130188350Y-126673940D01*
X130143001Y-126667546D01*
X130140229Y-126666191D01*
X130126393Y-126659427D01*
X130058264Y-126649500D01*
X130058260Y-126649500D01*
X129441740Y-126649500D01*
X129441735Y-126649500D01*
X129373606Y-126659427D01*
X129373605Y-126659427D01*
X129268517Y-126710801D01*
X129185801Y-126793517D01*
X129131903Y-126903770D01*
X129130475Y-126903072D01*
X129104234Y-126937681D01*
X129064115Y-126949500D01*
X128935885Y-126949500D01*
X128888319Y-126932187D01*
X128869117Y-126903271D01*
X128868097Y-126903770D01*
X128814198Y-126793517D01*
X128731482Y-126710801D01*
X128626394Y-126659427D01*
X128558264Y-126649500D01*
X128558260Y-126649500D01*
X127941740Y-126649500D01*
X127941735Y-126649500D01*
X127873606Y-126659427D01*
X127873605Y-126659427D01*
X127768517Y-126710801D01*
X127685801Y-126793517D01*
X127631903Y-126903770D01*
X127630475Y-126903072D01*
X127604234Y-126937681D01*
X127564115Y-126949500D01*
X127448261Y-126949500D01*
X127400695Y-126932187D01*
X127375385Y-126888350D01*
X127375039Y-126886202D01*
X127364866Y-126816375D01*
X127309826Y-126703789D01*
X127221211Y-126615174D01*
X127221210Y-126615173D01*
X127108626Y-126560134D01*
X127035640Y-126549500D01*
X127035636Y-126549500D01*
X126464364Y-126549500D01*
X126464359Y-126549500D01*
X126391374Y-126560134D01*
X126391373Y-126560134D01*
X126278789Y-126615173D01*
X126190173Y-126703789D01*
X126135134Y-126816373D01*
X126135134Y-126816374D01*
X126124500Y-126889359D01*
X126124500Y-127410640D01*
X126135134Y-127483625D01*
X126135134Y-127483626D01*
X126190173Y-127596210D01*
X126190174Y-127596211D01*
X126278789Y-127684826D01*
X126391375Y-127739866D01*
X126436170Y-127746392D01*
X126480741Y-127770380D01*
X126499467Y-127817408D01*
X126499500Y-127819618D01*
X126499500Y-127927084D01*
X126482187Y-127974650D01*
X126438350Y-127999960D01*
X126436170Y-128000311D01*
X126373606Y-128009427D01*
X126373605Y-128009427D01*
X126268517Y-128060801D01*
X126185801Y-128143517D01*
X126134427Y-128248605D01*
X126134427Y-128248606D01*
X126124500Y-128316735D01*
X126124500Y-128783264D01*
X126134427Y-128851393D01*
X126134427Y-128851394D01*
X126185801Y-128956482D01*
X126185802Y-128956483D01*
X126268517Y-129039198D01*
X126373607Y-129090573D01*
X126441740Y-129100500D01*
X126441746Y-129100500D01*
X127058254Y-129100500D01*
X127058260Y-129100500D01*
X127126393Y-129090573D01*
X127231483Y-129039198D01*
X127314198Y-128956483D01*
X127365573Y-128851393D01*
X127375500Y-128783260D01*
X127375500Y-128316740D01*
X127365573Y-128248607D01*
X127314198Y-128143517D01*
X127231483Y-128060802D01*
X127231482Y-128060801D01*
X127126394Y-128009427D01*
X127063830Y-128000311D01*
X127019257Y-127976320D01*
X127000533Y-127929291D01*
X127000500Y-127927084D01*
X127000500Y-127819618D01*
X127017813Y-127772052D01*
X127061650Y-127746742D01*
X127063763Y-127746401D01*
X127108625Y-127739866D01*
X127221211Y-127684826D01*
X127309826Y-127596211D01*
X127360772Y-127491998D01*
X127397217Y-127456870D01*
X127427253Y-127450500D01*
X127564115Y-127450500D01*
X127611681Y-127467813D01*
X127630882Y-127496728D01*
X127631903Y-127496230D01*
X127685801Y-127606482D01*
X127685802Y-127606483D01*
X127768517Y-127689198D01*
X127873607Y-127740573D01*
X127941740Y-127750500D01*
X127941746Y-127750500D01*
X128558254Y-127750500D01*
X128558260Y-127750500D01*
X128626393Y-127740573D01*
X128731483Y-127689198D01*
X128814198Y-127606483D01*
X128865573Y-127501393D01*
X128865573Y-127501392D01*
X128868097Y-127496230D01*
X128869524Y-127496927D01*
X128895766Y-127462319D01*
X128935885Y-127450500D01*
X129064115Y-127450500D01*
X129111681Y-127467813D01*
X129130882Y-127496728D01*
X129131903Y-127496230D01*
X129185801Y-127606482D01*
X129185802Y-127606483D01*
X129268517Y-127689198D01*
X129373607Y-127740573D01*
X129441740Y-127750500D01*
X129841588Y-127750500D01*
X129889154Y-127767813D01*
X129914464Y-127811650D01*
X129905674Y-127861500D01*
X129893914Y-127876826D01*
X129792914Y-127977826D01*
X129747038Y-127999218D01*
X129740588Y-127999500D01*
X129441735Y-127999500D01*
X129373606Y-128009427D01*
X129373605Y-128009427D01*
X129268517Y-128060801D01*
X129185801Y-128143517D01*
X129131903Y-128253770D01*
X129130475Y-128253072D01*
X129104234Y-128287681D01*
X129064115Y-128299500D01*
X128927253Y-128299500D01*
X128879687Y-128282187D01*
X128860772Y-128258001D01*
X128858704Y-128253770D01*
X128809826Y-128153789D01*
X128721211Y-128065174D01*
X128721210Y-128065173D01*
X128608626Y-128010134D01*
X128535640Y-127999500D01*
X128535636Y-127999500D01*
X127964364Y-127999500D01*
X127964359Y-127999500D01*
X127891374Y-128010134D01*
X127891373Y-128010134D01*
X127778789Y-128065173D01*
X127690173Y-128153789D01*
X127635134Y-128266373D01*
X127635134Y-128266374D01*
X127624500Y-128339359D01*
X127624500Y-128860640D01*
X127635134Y-128933625D01*
X127635134Y-128933626D01*
X127690173Y-129046210D01*
X127716939Y-129072976D01*
X127738331Y-129118852D01*
X127725230Y-129167747D01*
X127705728Y-129186829D01*
X127694397Y-129194400D01*
X127684466Y-129209262D01*
X127675266Y-129220472D01*
X127345472Y-129550266D01*
X127334262Y-129559466D01*
X127319400Y-129569397D01*
X127288446Y-129615724D01*
X127262461Y-129654612D01*
X127221638Y-129684542D01*
X127171128Y-129681230D01*
X127168433Y-129679979D01*
X127126394Y-129659427D01*
X127058264Y-129649500D01*
X127058260Y-129649500D01*
X126441740Y-129649500D01*
X126441735Y-129649500D01*
X126373606Y-129659427D01*
X126373605Y-129659427D01*
X126268517Y-129710801D01*
X126185801Y-129793517D01*
X126134427Y-129898605D01*
X126134427Y-129898606D01*
X126124500Y-129966735D01*
X126124500Y-130433264D01*
X126134427Y-130501393D01*
X126134428Y-130501398D01*
X126145363Y-130523765D01*
X126150700Y-130574101D01*
X126134808Y-130604723D01*
X126057329Y-130694140D01*
X126057327Y-130694142D01*
X126003510Y-130811984D01*
X125985075Y-130940208D01*
X126003510Y-131068431D01*
X126003510Y-131068432D01*
X126003511Y-131068434D01*
X126057326Y-131186271D01*
X126142159Y-131284175D01*
X126251139Y-131354212D01*
X126258296Y-131356313D01*
X126261945Y-131357385D01*
X126302708Y-131387397D01*
X126314642Y-131436589D01*
X126302628Y-131469498D01*
X126290038Y-131488342D01*
X126264034Y-131527257D01*
X126244592Y-131625000D01*
X126248078Y-131642525D01*
X126249500Y-131656962D01*
X126249500Y-133615587D01*
X126232187Y-133663153D01*
X126227826Y-133667913D01*
X124295472Y-135600266D01*
X124284262Y-135609466D01*
X124269400Y-135619397D01*
X124233942Y-135672463D01*
X124214036Y-135702254D01*
X124214034Y-135702258D01*
X124198158Y-135782069D01*
X124171898Y-135825343D01*
X124155472Y-135835325D01*
X124127235Y-135847793D01*
X124047793Y-135927235D01*
X124042694Y-135938784D01*
X124007643Y-135975304D01*
X123957318Y-135980749D01*
X123915266Y-135952573D01*
X123907306Y-135938784D01*
X123902206Y-135927235D01*
X123866941Y-135891970D01*
X123822765Y-135847794D01*
X123797220Y-135836514D01*
X123760702Y-135801465D01*
X123754536Y-135754380D01*
X123755408Y-135750000D01*
X123735966Y-135652259D01*
X123714009Y-135619399D01*
X123701225Y-135600266D01*
X123680603Y-135569401D01*
X123680601Y-135569400D01*
X123680601Y-135569399D01*
X123665735Y-135559466D01*
X123654527Y-135550267D01*
X123324732Y-135220472D01*
X123315531Y-135209260D01*
X123305601Y-135194399D01*
X123252536Y-135158942D01*
X123222741Y-135139034D01*
X123125000Y-135119592D01*
X123107475Y-135123078D01*
X123093038Y-135124500D01*
X121634412Y-135124500D01*
X121586846Y-135107187D01*
X121582086Y-135102826D01*
X121522174Y-135042914D01*
X121500782Y-134997038D01*
X121500500Y-134990588D01*
X121500500Y-133281961D01*
X121501922Y-133267523D01*
X121505408Y-133250000D01*
X121500500Y-133225326D01*
X121485966Y-133152260D01*
X121438496Y-133081215D01*
X121430602Y-133069400D01*
X121430601Y-133069399D01*
X121415735Y-133059466D01*
X121404527Y-133050267D01*
X120824732Y-132470472D01*
X120815531Y-132459260D01*
X120805601Y-132444399D01*
X120752536Y-132408942D01*
X120722741Y-132389034D01*
X120625000Y-132369592D01*
X120607475Y-132373078D01*
X120593038Y-132374500D01*
X119912832Y-132374500D01*
X119865266Y-132357187D01*
X119856906Y-132348959D01*
X119798052Y-132281036D01*
X119798050Y-132281035D01*
X119798049Y-132281033D01*
X119713493Y-132226692D01*
X119689068Y-132210995D01*
X119564772Y-132174500D01*
X119435228Y-132174500D01*
X119310928Y-132210996D01*
X119306120Y-132213193D01*
X119304997Y-132210734D01*
X119265383Y-132219667D01*
X119220400Y-132196456D01*
X119200861Y-132149760D01*
X119215908Y-132101429D01*
X119222452Y-132093940D01*
X119524657Y-131791735D01*
X119805483Y-131510909D01*
X119828050Y-131488342D01*
X119839893Y-131465097D01*
X119845964Y-131455190D01*
X119853805Y-131444399D01*
X119861296Y-131434090D01*
X119869361Y-131409265D01*
X119873798Y-131398553D01*
X119885646Y-131375304D01*
X119889727Y-131349532D01*
X119892434Y-131338253D01*
X119900500Y-131313433D01*
X119900500Y-131186567D01*
X119900500Y-129904500D01*
X119917813Y-129856934D01*
X119961650Y-129831624D01*
X119974500Y-129830500D01*
X123546524Y-129830500D01*
X123546530Y-129830500D01*
X123554155Y-129830125D01*
X123554164Y-129830124D01*
X123554165Y-129830124D01*
X123576195Y-129827955D01*
X123576194Y-129827955D01*
X123583736Y-129826836D01*
X123583738Y-129826836D01*
X123600508Y-129823500D01*
X123661572Y-129811353D01*
X123690741Y-129802505D01*
X123717416Y-129791456D01*
X123744301Y-129777085D01*
X123800929Y-129739247D01*
X123824492Y-129719909D01*
X123844909Y-129699492D01*
X123864247Y-129675929D01*
X123902085Y-129619301D01*
X123916456Y-129592416D01*
X123927505Y-129565741D01*
X123936353Y-129536571D01*
X123951835Y-129458741D01*
X123951924Y-129458138D01*
X123952955Y-129451192D01*
X123952955Y-129451193D01*
X123955124Y-129429164D01*
X123955125Y-129429154D01*
X123955500Y-129421529D01*
X123955500Y-125099500D01*
X123972813Y-125051934D01*
X124016650Y-125026624D01*
X124029500Y-125025500D01*
X125197189Y-125025500D01*
X125244755Y-125042813D01*
X125258088Y-125057461D01*
X125259514Y-125059527D01*
X125259515Y-125059528D01*
X125259516Y-125059529D01*
X125259517Y-125059530D01*
X125377760Y-125164283D01*
X125517635Y-125237696D01*
X125671015Y-125275500D01*
X125671019Y-125275500D01*
X125828981Y-125275500D01*
X125828985Y-125275500D01*
X125982365Y-125237696D01*
X126122240Y-125164283D01*
X126240483Y-125059530D01*
X126330220Y-124929523D01*
X126386237Y-124781818D01*
X126399385Y-124673530D01*
X126422304Y-124628400D01*
X126468872Y-124608559D01*
X126517300Y-124623293D01*
G37*
%TD.AperFunction*%
%TA.AperFunction,Conductor*%
G36*
X127173066Y-100017813D02*
G01*
X127198376Y-100061650D01*
X127199500Y-100074500D01*
X127199500Y-104999500D01*
X127199500Y-105000000D01*
X127199500Y-105067660D01*
X127205436Y-105093667D01*
X127229610Y-105199586D01*
X127229613Y-105199593D01*
X127288324Y-105321506D01*
X127288325Y-105321507D01*
X127372695Y-105427305D01*
X127478493Y-105511675D01*
X127600412Y-105570389D01*
X127732340Y-105600500D01*
X127799901Y-105600500D01*
X131925500Y-105600500D01*
X131973066Y-105617813D01*
X131998376Y-105661650D01*
X131999500Y-105674500D01*
X131999500Y-110466588D01*
X131982187Y-110514154D01*
X131938350Y-110539464D01*
X131888500Y-110530674D01*
X131873174Y-110518914D01*
X131574732Y-110220472D01*
X131565531Y-110209260D01*
X131555601Y-110194399D01*
X131502536Y-110158942D01*
X131472741Y-110139034D01*
X131375000Y-110119592D01*
X131357475Y-110123078D01*
X131343038Y-110124500D01*
X129156962Y-110124500D01*
X129142525Y-110123078D01*
X129125000Y-110119592D01*
X129027259Y-110139034D01*
X129027254Y-110139036D01*
X128997463Y-110158942D01*
X128944397Y-110194400D01*
X128934466Y-110209262D01*
X128925266Y-110220472D01*
X128595472Y-110550266D01*
X128584262Y-110559466D01*
X128569400Y-110569397D01*
X128533942Y-110622463D01*
X128514036Y-110652254D01*
X128514034Y-110652259D01*
X128494592Y-110750000D01*
X128498078Y-110767525D01*
X128499500Y-110781962D01*
X128499500Y-111958037D01*
X128498078Y-111972473D01*
X128494592Y-111989998D01*
X128494592Y-111990000D01*
X128514033Y-112087741D01*
X128515663Y-112090179D01*
X128562300Y-112159976D01*
X128569399Y-112170601D01*
X128584260Y-112180531D01*
X128595472Y-112189732D01*
X128692826Y-112287086D01*
X128714218Y-112332962D01*
X128714500Y-112339412D01*
X128714500Y-113050500D01*
X128697187Y-113098066D01*
X128653350Y-113123376D01*
X128640500Y-113124500D01*
X126509412Y-113124500D01*
X126461846Y-113107187D01*
X126457086Y-113102826D01*
X123231086Y-109876826D01*
X123209694Y-109830950D01*
X123222795Y-109782055D01*
X123264259Y-109753021D01*
X123283412Y-109750500D01*
X123783709Y-109750500D01*
X123914255Y-109735241D01*
X124079117Y-109675237D01*
X124225696Y-109578830D01*
X124346092Y-109451218D01*
X124433812Y-109299281D01*
X124484130Y-109131210D01*
X124494331Y-108956065D01*
X124463865Y-108783289D01*
X124394377Y-108622196D01*
X124289610Y-108481470D01*
X124289603Y-108481464D01*
X124155215Y-108368698D01*
X124155216Y-108368698D01*
X123998434Y-108289960D01*
X123998430Y-108289959D01*
X123827721Y-108249500D01*
X123296291Y-108249500D01*
X123165745Y-108264759D01*
X123165740Y-108264760D01*
X123000884Y-108324762D01*
X122854305Y-108421168D01*
X122740686Y-108541598D01*
X122695451Y-108564316D01*
X122646196Y-108552642D01*
X122634534Y-108543142D01*
X122397174Y-108305781D01*
X122375782Y-108259904D01*
X122375500Y-108253455D01*
X122375500Y-108000005D01*
X127819532Y-108000005D01*
X127839364Y-108226688D01*
X127839365Y-108226696D01*
X127898258Y-108446488D01*
X127898260Y-108446492D01*
X127898261Y-108446496D01*
X127994432Y-108652734D01*
X127994434Y-108652736D01*
X127994435Y-108652739D01*
X128113159Y-108822295D01*
X128124953Y-108839139D01*
X128285861Y-109000047D01*
X128393886Y-109075686D01*
X128459999Y-109121979D01*
X128472266Y-109130568D01*
X128678504Y-109226739D01*
X128678510Y-109226740D01*
X128678511Y-109226741D01*
X128898303Y-109285634D01*
X128898305Y-109285634D01*
X128898308Y-109285635D01*
X129068216Y-109300500D01*
X129068218Y-109300500D01*
X129181782Y-109300500D01*
X129181784Y-109300500D01*
X129351692Y-109285635D01*
X129571496Y-109226739D01*
X129777734Y-109130568D01*
X129964139Y-109000047D01*
X130125047Y-108839139D01*
X130255568Y-108652734D01*
X130351739Y-108446496D01*
X130410635Y-108226692D01*
X130430468Y-108000000D01*
X130430468Y-107999994D01*
X130413026Y-107800637D01*
X130410635Y-107773308D01*
X130407242Y-107760646D01*
X130351741Y-107553511D01*
X130351740Y-107553510D01*
X130351739Y-107553504D01*
X130255568Y-107347266D01*
X130125047Y-107160861D01*
X129964139Y-106999953D01*
X129890833Y-106948624D01*
X129777739Y-106869435D01*
X129777736Y-106869434D01*
X129777734Y-106869432D01*
X129571496Y-106773261D01*
X129571492Y-106773260D01*
X129571488Y-106773258D01*
X129351696Y-106714365D01*
X129351689Y-106714364D01*
X129214362Y-106702350D01*
X129181784Y-106699500D01*
X129068216Y-106699500D01*
X129038488Y-106702100D01*
X128898310Y-106714364D01*
X128898303Y-106714365D01*
X128678511Y-106773258D01*
X128678504Y-106773260D01*
X128678504Y-106773261D01*
X128600383Y-106809690D01*
X128472260Y-106869435D01*
X128285860Y-106999953D01*
X128124953Y-107160860D01*
X127994435Y-107347260D01*
X127994432Y-107347265D01*
X127994432Y-107347266D01*
X127966889Y-107406332D01*
X127898263Y-107553500D01*
X127898258Y-107553511D01*
X127839365Y-107773303D01*
X127839364Y-107773311D01*
X127819532Y-107999994D01*
X127819532Y-108000005D01*
X122375500Y-108000005D01*
X122375500Y-107964370D01*
X122375500Y-107964364D01*
X122364866Y-107891375D01*
X122309826Y-107778789D01*
X122221211Y-107690174D01*
X122221210Y-107690173D01*
X122108626Y-107635134D01*
X122035640Y-107624500D01*
X122035636Y-107624500D01*
X121514364Y-107624500D01*
X121514359Y-107624500D01*
X121441374Y-107635134D01*
X121441373Y-107635134D01*
X121328789Y-107690173D01*
X121240173Y-107778789D01*
X121185134Y-107891373D01*
X121185134Y-107891374D01*
X121174500Y-107964359D01*
X121174500Y-108324165D01*
X121157187Y-108371731D01*
X121152826Y-108376491D01*
X120783286Y-108746030D01*
X120771438Y-108755652D01*
X120759333Y-108763561D01*
X120759325Y-108763568D01*
X120738185Y-108790728D01*
X120735154Y-108794161D01*
X120731630Y-108797686D01*
X120731625Y-108797692D01*
X120718955Y-108815438D01*
X120687483Y-108855873D01*
X120684567Y-108861262D01*
X120684255Y-108861093D01*
X120683133Y-108863272D01*
X120683452Y-108863428D01*
X120680758Y-108868937D01*
X120666138Y-108918045D01*
X120649499Y-108966513D01*
X120648491Y-108972558D01*
X120648139Y-108972499D01*
X120647787Y-108974916D01*
X120648142Y-108974961D01*
X120647383Y-108981047D01*
X120649500Y-109032231D01*
X120649500Y-109100507D01*
X120632187Y-109148073D01*
X120588350Y-109173383D01*
X120543000Y-109166988D01*
X120476395Y-109134428D01*
X120476393Y-109134427D01*
X120408264Y-109124500D01*
X120408260Y-109124500D01*
X119941740Y-109124500D01*
X119941735Y-109124500D01*
X119873606Y-109134427D01*
X119873605Y-109134427D01*
X119768517Y-109185801D01*
X119685801Y-109268517D01*
X119634427Y-109373605D01*
X119634427Y-109373606D01*
X119624500Y-109441735D01*
X119624500Y-110058264D01*
X119634427Y-110126393D01*
X119634427Y-110126394D01*
X119685801Y-110231482D01*
X119685802Y-110231483D01*
X119768517Y-110314198D01*
X119858000Y-110357943D01*
X119893130Y-110394387D01*
X119899500Y-110424424D01*
X119899500Y-110680579D01*
X119898078Y-110695015D01*
X119894634Y-110712332D01*
X119894103Y-110715000D01*
X119899500Y-110742132D01*
X119899500Y-110742133D01*
X119908503Y-110787396D01*
X119915485Y-110822495D01*
X119923174Y-110834003D01*
X119924928Y-110836627D01*
X119958323Y-110886607D01*
X119971877Y-110906892D01*
X119976375Y-110913623D01*
X119976378Y-110913626D01*
X119993314Y-110924942D01*
X120004529Y-110934145D01*
X120277113Y-111206729D01*
X120298505Y-111252605D01*
X120294635Y-111283495D01*
X120263688Y-111371937D01*
X120263687Y-111371940D01*
X120244751Y-111540000D01*
X120263687Y-111708059D01*
X120263689Y-111708067D01*
X120319544Y-111867691D01*
X120409519Y-112010885D01*
X120409521Y-112010887D01*
X120409523Y-112010890D01*
X120529110Y-112130477D01*
X120529112Y-112130478D01*
X120529114Y-112130480D01*
X120610530Y-112181637D01*
X120672310Y-112220456D01*
X120771609Y-112255202D01*
X120803982Y-112266530D01*
X120831941Y-112276313D01*
X121000000Y-112295249D01*
X121168059Y-112276313D01*
X121327690Y-112220456D01*
X121470890Y-112130477D01*
X121590477Y-112010890D01*
X121680456Y-111867690D01*
X121736313Y-111708059D01*
X121752603Y-111563475D01*
X121775133Y-111518149D01*
X121821528Y-111497907D01*
X121870081Y-111512223D01*
X121878464Y-111519437D01*
X122627826Y-112268799D01*
X122649218Y-112314675D01*
X122649500Y-112321125D01*
X122649500Y-112709968D01*
X122632187Y-112757534D01*
X122608001Y-112776449D01*
X122528788Y-112815174D01*
X122467572Y-112876391D01*
X122421696Y-112897783D01*
X122372801Y-112884682D01*
X122369794Y-112882461D01*
X122344127Y-112862483D01*
X122338736Y-112859566D01*
X122338905Y-112859252D01*
X122336730Y-112858132D01*
X122336574Y-112858453D01*
X122331062Y-112855758D01*
X122281954Y-112841138D01*
X122233489Y-112824499D01*
X122227443Y-112823491D01*
X122227501Y-112823138D01*
X122225083Y-112822786D01*
X122225039Y-112823142D01*
X122218955Y-112822383D01*
X122218954Y-112822383D01*
X122218952Y-112822383D01*
X122167769Y-112824500D01*
X122030123Y-112824500D01*
X121982557Y-112807187D01*
X121977797Y-112802826D01*
X121947765Y-112772794D01*
X121922916Y-112761822D01*
X121844991Y-112727415D01*
X121844990Y-112727414D01*
X121844988Y-112727414D01*
X121823659Y-112724940D01*
X121819865Y-112724500D01*
X121819864Y-112724500D01*
X120705136Y-112724500D01*
X120680013Y-112727414D01*
X120680007Y-112727415D01*
X120577234Y-112772794D01*
X120497794Y-112852234D01*
X120452414Y-112955011D01*
X120449500Y-112980135D01*
X120449500Y-113369863D01*
X120452414Y-113394986D01*
X120452415Y-113394991D01*
X120497794Y-113497765D01*
X120577235Y-113577206D01*
X120680009Y-113622585D01*
X120705135Y-113625500D01*
X121819864Y-113625499D01*
X121844991Y-113622585D01*
X121947765Y-113577206D01*
X121962318Y-113562652D01*
X122008193Y-113541260D01*
X122057087Y-113554360D01*
X122066970Y-113562652D01*
X122071030Y-113566712D01*
X122080652Y-113578561D01*
X122088563Y-113590669D01*
X122115731Y-113611814D01*
X122119166Y-113614848D01*
X122122693Y-113618375D01*
X122140437Y-113631044D01*
X122180874Y-113662517D01*
X122180875Y-113662517D01*
X122186266Y-113665434D01*
X122186094Y-113665750D01*
X122188269Y-113666869D01*
X122188427Y-113666547D01*
X122193932Y-113669239D01*
X122243037Y-113683858D01*
X122291512Y-113700500D01*
X122297562Y-113701510D01*
X122297503Y-113701861D01*
X122299916Y-113702213D01*
X122299961Y-113701858D01*
X122306040Y-113702615D01*
X122306046Y-113702617D01*
X122344362Y-113701032D01*
X122392603Y-113716365D01*
X122413900Y-113742467D01*
X122440174Y-113796211D01*
X122528789Y-113884826D01*
X122641375Y-113939866D01*
X122714364Y-113950500D01*
X122714370Y-113950500D01*
X123285630Y-113950500D01*
X123285636Y-113950500D01*
X123358625Y-113939866D01*
X123471211Y-113884826D01*
X123559826Y-113796211D01*
X123586328Y-113742000D01*
X123622772Y-113706870D01*
X123652809Y-113700500D01*
X124549166Y-113700500D01*
X124596732Y-113717813D01*
X124601492Y-113722174D01*
X125377826Y-114498507D01*
X125399218Y-114544383D01*
X125399500Y-114550833D01*
X125399500Y-115351065D01*
X125382187Y-115398631D01*
X125370550Y-115409772D01*
X125357381Y-115419876D01*
X125269138Y-115534876D01*
X125213669Y-115668791D01*
X125194750Y-115812500D01*
X125213669Y-115956208D01*
X125263677Y-116076939D01*
X125269139Y-116090125D01*
X125357379Y-116205121D01*
X125472375Y-116293361D01*
X125606291Y-116348830D01*
X125750000Y-116367750D01*
X125766454Y-116365583D01*
X125815872Y-116376535D01*
X125828442Y-116386623D01*
X126308528Y-116866709D01*
X126318152Y-116878560D01*
X126326064Y-116890670D01*
X126353230Y-116911814D01*
X126356671Y-116914852D01*
X126360194Y-116918375D01*
X126377930Y-116931038D01*
X126417260Y-116961650D01*
X126418374Y-116962517D01*
X126423768Y-116965436D01*
X126423596Y-116965752D01*
X126425765Y-116966869D01*
X126425923Y-116966546D01*
X126431432Y-116969239D01*
X126431433Y-116969239D01*
X126431434Y-116969240D01*
X126480545Y-116983861D01*
X126529012Y-117000500D01*
X126529017Y-117000500D01*
X126535063Y-117001510D01*
X126535004Y-117001861D01*
X126537416Y-117002213D01*
X126537461Y-117001858D01*
X126543539Y-117002615D01*
X126543546Y-117002617D01*
X126594731Y-117000500D01*
X126597191Y-117000500D01*
X126644757Y-117017813D01*
X126663672Y-117042000D01*
X126690173Y-117096210D01*
X126778789Y-117184826D01*
X126858000Y-117223550D01*
X126893130Y-117259995D01*
X126899500Y-117290031D01*
X126899500Y-117330974D01*
X126897925Y-117346159D01*
X126894957Y-117360311D01*
X126894957Y-117360315D01*
X126899216Y-117394479D01*
X126899500Y-117399060D01*
X126899500Y-117404047D01*
X126902233Y-117420420D01*
X126903087Y-117425540D01*
X126909427Y-117476393D01*
X126909429Y-117476397D01*
X126911176Y-117482265D01*
X126910834Y-117482366D01*
X126911580Y-117484695D01*
X126911916Y-117484580D01*
X126913907Y-117490380D01*
X126938295Y-117535445D01*
X126954915Y-117569442D01*
X126960252Y-117619779D01*
X126945544Y-117645806D01*
X126946669Y-117646577D01*
X126942795Y-117652231D01*
X126897414Y-117755011D01*
X126894500Y-117780135D01*
X126894500Y-119519863D01*
X126897414Y-119544986D01*
X126897415Y-119544992D01*
X126914108Y-119582797D01*
X126942794Y-119647765D01*
X127022235Y-119727206D01*
X127125009Y-119772585D01*
X127150135Y-119775500D01*
X127539864Y-119775499D01*
X127564991Y-119772585D01*
X127667765Y-119727206D01*
X127747206Y-119647765D01*
X127792585Y-119544991D01*
X127795500Y-119519865D01*
X127795499Y-117780136D01*
X127792585Y-117755009D01*
X127747206Y-117652235D01*
X127717174Y-117622203D01*
X127695782Y-117576327D01*
X127695500Y-117569877D01*
X127695500Y-117514020D01*
X127697075Y-117498834D01*
X127697220Y-117498141D01*
X127700042Y-117484685D01*
X127695783Y-117450523D01*
X127695500Y-117445945D01*
X127695500Y-117440964D01*
X127695499Y-117440953D01*
X127691910Y-117419449D01*
X127689767Y-117402256D01*
X127685573Y-117368607D01*
X127685571Y-117368604D01*
X127683822Y-117362725D01*
X127684166Y-117362622D01*
X127683422Y-117360300D01*
X127683082Y-117360417D01*
X127681092Y-117354619D01*
X127656704Y-117309555D01*
X127652433Y-117300818D01*
X127647096Y-117250481D01*
X127675363Y-117208490D01*
X127686414Y-117201837D01*
X127721211Y-117184826D01*
X127786063Y-117119973D01*
X127831938Y-117098582D01*
X127880832Y-117111682D01*
X127890714Y-117119974D01*
X128265558Y-117494818D01*
X128286950Y-117540694D01*
X128273849Y-117589589D01*
X128265558Y-117599469D01*
X128212795Y-117652232D01*
X128167414Y-117755011D01*
X128164500Y-117780135D01*
X128164500Y-119519863D01*
X128167414Y-119544986D01*
X128167415Y-119544992D01*
X128184108Y-119582797D01*
X128212794Y-119647765D01*
X128292235Y-119727206D01*
X128395009Y-119772585D01*
X128420135Y-119775500D01*
X128809864Y-119775499D01*
X128834991Y-119772585D01*
X128895610Y-119745818D01*
X128946115Y-119742443D01*
X128986976Y-119772321D01*
X128999500Y-119813513D01*
X128999500Y-120365587D01*
X128982187Y-120413153D01*
X128977826Y-120417913D01*
X127190472Y-122205266D01*
X127179262Y-122214466D01*
X127164401Y-122224396D01*
X127136028Y-122266858D01*
X127095205Y-122296788D01*
X127044695Y-122293476D01*
X127008130Y-122258471D01*
X127000500Y-122225744D01*
X127000500Y-120531961D01*
X127001922Y-120517523D01*
X127005408Y-120500000D01*
X126985966Y-120402259D01*
X126981943Y-120396239D01*
X126959962Y-120363342D01*
X126930603Y-120319401D01*
X126930601Y-120319400D01*
X126930601Y-120319399D01*
X126915735Y-120309466D01*
X126904527Y-120300267D01*
X124574732Y-117970472D01*
X124565531Y-117959260D01*
X124555601Y-117944399D01*
X124502536Y-117908942D01*
X124472741Y-117889034D01*
X124375000Y-117869592D01*
X124357475Y-117873078D01*
X124343038Y-117874500D01*
X123819619Y-117874500D01*
X123772053Y-117857187D01*
X123746743Y-117813350D01*
X123746392Y-117811169D01*
X123745194Y-117802944D01*
X123739866Y-117766375D01*
X123684826Y-117653789D01*
X123596211Y-117565174D01*
X123576629Y-117555601D01*
X123516999Y-117526449D01*
X123481870Y-117490004D01*
X123475500Y-117459968D01*
X123475500Y-117299424D01*
X123492813Y-117251858D01*
X123516999Y-117232943D01*
X123606483Y-117189198D01*
X123689198Y-117106483D01*
X123740573Y-117001393D01*
X123750500Y-116933260D01*
X123750500Y-116316740D01*
X123747191Y-116294033D01*
X123757464Y-116244472D01*
X123797193Y-116213105D01*
X123847790Y-116214614D01*
X123854808Y-116217843D01*
X123892633Y-116237695D01*
X123892635Y-116237696D01*
X124046015Y-116275500D01*
X124046019Y-116275500D01*
X124203981Y-116275500D01*
X124203985Y-116275500D01*
X124357365Y-116237696D01*
X124497240Y-116164283D01*
X124615483Y-116059530D01*
X124705220Y-115929523D01*
X124708008Y-115922173D01*
X124737250Y-115845066D01*
X124761237Y-115781818D01*
X124773123Y-115683931D01*
X124780278Y-115625003D01*
X124780278Y-115624996D01*
X124761238Y-115468191D01*
X124761237Y-115468182D01*
X124748641Y-115434970D01*
X124705221Y-115320478D01*
X124615483Y-115190470D01*
X124597316Y-115174376D01*
X124497240Y-115085717D01*
X124485139Y-115079366D01*
X124357366Y-115012304D01*
X124203987Y-114974500D01*
X124203985Y-114974500D01*
X124046015Y-114974500D01*
X124046012Y-114974500D01*
X123892633Y-115012304D01*
X123752761Y-115085716D01*
X123634516Y-115190470D01*
X123546809Y-115317537D01*
X123505540Y-115346848D01*
X123485908Y-115349500D01*
X122149298Y-115349500D01*
X122101732Y-115332187D01*
X122076422Y-115288350D01*
X122075421Y-115271234D01*
X122075498Y-115269880D01*
X122075500Y-115269865D01*
X122075499Y-114880136D01*
X122072585Y-114855009D01*
X122027206Y-114752235D01*
X121947765Y-114672794D01*
X121844991Y-114627415D01*
X121844990Y-114627414D01*
X121844988Y-114627414D01*
X121823659Y-114624940D01*
X121819865Y-114624500D01*
X121819864Y-114624500D01*
X120705136Y-114624500D01*
X120680013Y-114627414D01*
X120680007Y-114627415D01*
X120577234Y-114672794D01*
X120497791Y-114752237D01*
X120493919Y-114757891D01*
X120492281Y-114756769D01*
X120463731Y-114786514D01*
X120431089Y-114794103D01*
X120424999Y-114794103D01*
X120397868Y-114799500D01*
X120397867Y-114799500D01*
X120357686Y-114807492D01*
X120317504Y-114815485D01*
X120280102Y-114840477D01*
X120251309Y-114859714D01*
X120251305Y-114859718D01*
X120226376Y-114876375D01*
X120226374Y-114876377D01*
X120215053Y-114893319D01*
X120205853Y-114904529D01*
X119979529Y-115130853D01*
X119968319Y-115140053D01*
X119951377Y-115151374D01*
X119951373Y-115151378D01*
X119936026Y-115174346D01*
X119895204Y-115204276D01*
X119844693Y-115200964D01*
X119808129Y-115165959D01*
X119800499Y-115133234D01*
X119800499Y-114880136D01*
X119797585Y-114855009D01*
X119752206Y-114752235D01*
X119672765Y-114672794D01*
X119671674Y-114671703D01*
X119650282Y-114625827D01*
X119650000Y-114619377D01*
X119650000Y-114425000D01*
X119574000Y-114425000D01*
X119526434Y-114407687D01*
X119501124Y-114363850D01*
X119500000Y-114351000D01*
X119500000Y-113899000D01*
X119517313Y-113851434D01*
X119561150Y-113826124D01*
X119574000Y-113825000D01*
X119650000Y-113825000D01*
X119650000Y-113475000D01*
X118325000Y-113475000D01*
X118325000Y-113825000D01*
X118401000Y-113825000D01*
X118448566Y-113842313D01*
X118473876Y-113886150D01*
X118475000Y-113899000D01*
X118475000Y-114351000D01*
X118457687Y-114398566D01*
X118413850Y-114423876D01*
X118401000Y-114425000D01*
X118325000Y-114425000D01*
X118325000Y-114619377D01*
X118307687Y-114666943D01*
X118303326Y-114671703D01*
X118222794Y-114752234D01*
X118177414Y-114855011D01*
X118174500Y-114880135D01*
X118174500Y-115269863D01*
X118177414Y-115294986D01*
X118177415Y-115294992D01*
X118200312Y-115346848D01*
X118222794Y-115397765D01*
X118302235Y-115477206D01*
X118405009Y-115522585D01*
X118430135Y-115525500D01*
X118531231Y-115525499D01*
X118578797Y-115542811D01*
X118604107Y-115586648D01*
X118595317Y-115636498D01*
X118583557Y-115651825D01*
X118429529Y-115805853D01*
X118418319Y-115815053D01*
X118401377Y-115826374D01*
X118401375Y-115826376D01*
X118340485Y-115917504D01*
X118333917Y-115950524D01*
X118307657Y-115993798D01*
X118272012Y-116009312D01*
X118266377Y-116010133D01*
X118266375Y-116010134D01*
X118153788Y-116065174D01*
X118065173Y-116153789D01*
X118010134Y-116266373D01*
X118010134Y-116266374D01*
X117999500Y-116339359D01*
X117999500Y-116910640D01*
X118010134Y-116983625D01*
X118010134Y-116983626D01*
X118065173Y-117096210D01*
X118153789Y-117184826D01*
X118233000Y-117223550D01*
X118268130Y-117259995D01*
X118274500Y-117290031D01*
X118274500Y-117450575D01*
X118257187Y-117498141D01*
X118233001Y-117517056D01*
X118143516Y-117560802D01*
X118060801Y-117643517D01*
X118009427Y-117748605D01*
X118009427Y-117748606D01*
X117999500Y-117816735D01*
X117999500Y-118433264D01*
X118009427Y-118501393D01*
X118009427Y-118501394D01*
X118060801Y-118606482D01*
X118143517Y-118689198D01*
X118231396Y-118732159D01*
X118266526Y-118768603D01*
X118271475Y-118813074D01*
X118269103Y-118825000D01*
X118274500Y-118852132D01*
X118290485Y-118932496D01*
X118307683Y-118958233D01*
X118331897Y-118994473D01*
X118351376Y-119023624D01*
X118351378Y-119023626D01*
X118368314Y-119034942D01*
X118379529Y-119044145D01*
X118652826Y-119317442D01*
X118674218Y-119363318D01*
X118674500Y-119369768D01*
X118674500Y-120900500D01*
X118657187Y-120948066D01*
X118613350Y-120973376D01*
X118600500Y-120974500D01*
X117466974Y-120974500D01*
X117466950Y-120974501D01*
X117436567Y-120974501D01*
X117411758Y-120982561D01*
X117400471Y-120985271D01*
X117374696Y-120989354D01*
X117351449Y-121001198D01*
X117340727Y-121005639D01*
X117315910Y-121013703D01*
X117315908Y-121013704D01*
X117294804Y-121029038D01*
X117284904Y-121035105D01*
X117261658Y-121046949D01*
X117239091Y-121069517D01*
X116569520Y-121739086D01*
X116569516Y-121739090D01*
X116569516Y-121739091D01*
X116569513Y-121739094D01*
X116549196Y-121759412D01*
X116546949Y-121761659D01*
X116535107Y-121784900D01*
X116529043Y-121794796D01*
X116513703Y-121815911D01*
X116513702Y-121815912D01*
X116505641Y-121840722D01*
X116501200Y-121851446D01*
X116489352Y-121874699D01*
X116489351Y-121874702D01*
X116485270Y-121900467D01*
X116482562Y-121911751D01*
X116474500Y-121936568D01*
X116474500Y-122853455D01*
X116457187Y-122901021D01*
X116452826Y-122905781D01*
X116135781Y-123222826D01*
X116089905Y-123244218D01*
X116083455Y-123244500D01*
X112303470Y-123244500D01*
X112295844Y-123244875D01*
X112295834Y-123244875D01*
X112295833Y-123244876D01*
X112295834Y-123244876D01*
X112291905Y-123245262D01*
X112273826Y-123247043D01*
X112273825Y-123247043D01*
X112273812Y-123247044D01*
X112273811Y-123247045D01*
X112272415Y-123247251D01*
X112266251Y-123248166D01*
X112266252Y-123248166D01*
X112224605Y-123256449D01*
X112174695Y-123264354D01*
X112157677Y-123273025D01*
X112155039Y-123274241D01*
X112132582Y-123283543D01*
X112105707Y-123297908D01*
X112105690Y-123297918D01*
X112097449Y-123303424D01*
X112093691Y-123305627D01*
X112061657Y-123321950D01*
X112061652Y-123321953D01*
X112043582Y-123340024D01*
X112040893Y-123342461D01*
X112025517Y-123355080D01*
X112025509Y-123355087D01*
X112005093Y-123375502D01*
X111992459Y-123390895D01*
X111990022Y-123393584D01*
X111971953Y-123411653D01*
X111971947Y-123411661D01*
X111955625Y-123443694D01*
X111953422Y-123447453D01*
X111947910Y-123455702D01*
X111933539Y-123482590D01*
X111924241Y-123505039D01*
X111923025Y-123507677D01*
X111914353Y-123524695D01*
X111906446Y-123574620D01*
X111898166Y-123616252D01*
X111898166Y-123616251D01*
X111897043Y-123623825D01*
X111897043Y-123623826D01*
X111895262Y-123641905D01*
X111894875Y-123645844D01*
X111894633Y-123650768D01*
X111894500Y-123653475D01*
X111894500Y-125361366D01*
X111894691Y-125367927D01*
X111907340Y-125424994D01*
X111907343Y-125425001D01*
X111927390Y-125471476D01*
X111930011Y-125476336D01*
X111937349Y-125526420D01*
X111926127Y-125552984D01*
X111894588Y-125599502D01*
X111894586Y-125599506D01*
X111826153Y-125771259D01*
X111826152Y-125771260D01*
X111809145Y-125874999D01*
X111809146Y-125875000D01*
X112570341Y-125875000D01*
X112556449Y-125906670D01*
X112546114Y-126031395D01*
X112569818Y-126125000D01*
X111805529Y-126125000D01*
X111806250Y-126138323D01*
X111855714Y-126316473D01*
X111942315Y-126479821D01*
X111942316Y-126479822D01*
X112062005Y-126620732D01*
X112209193Y-126732621D01*
X112376990Y-126810253D01*
X112376995Y-126810254D01*
X112557558Y-126849999D01*
X112557562Y-126850000D01*
X112800000Y-126850000D01*
X112800000Y-126353569D01*
X112862424Y-126375000D01*
X112956073Y-126375000D01*
X113048446Y-126359586D01*
X113050000Y-126358745D01*
X113050000Y-126850000D01*
X113246075Y-126850000D01*
X113246097Y-126849998D01*
X113383796Y-126835022D01*
X113383807Y-126835019D01*
X113559010Y-126775987D01*
X113559012Y-126775987D01*
X113717427Y-126680671D01*
X113717434Y-126680666D01*
X113840489Y-126564102D01*
X113886928Y-126543959D01*
X113906444Y-126545935D01*
X113906511Y-126545561D01*
X113909693Y-126546122D01*
X113962878Y-126555500D01*
X113962882Y-126555500D01*
X116047746Y-126555500D01*
X116057590Y-126555070D01*
X116067597Y-126552620D01*
X116085189Y-126550499D01*
X116119863Y-126550499D01*
X116119864Y-126550499D01*
X116144991Y-126547585D01*
X116247765Y-126502206D01*
X116327206Y-126422765D01*
X116327206Y-126422763D01*
X116328296Y-126421674D01*
X116374172Y-126400282D01*
X116380622Y-126400000D01*
X116575000Y-126400000D01*
X116575000Y-126324000D01*
X116592313Y-126276434D01*
X116636150Y-126251124D01*
X116649000Y-126250000D01*
X117101000Y-126250000D01*
X117148566Y-126267313D01*
X117173876Y-126311150D01*
X117175000Y-126324000D01*
X117175000Y-126400000D01*
X117369378Y-126400000D01*
X117416944Y-126417313D01*
X117421704Y-126421674D01*
X117422793Y-126422763D01*
X117422794Y-126422765D01*
X117502235Y-126502206D01*
X117605009Y-126547585D01*
X117630135Y-126550500D01*
X118019864Y-126550499D01*
X118044991Y-126547585D01*
X118147765Y-126502206D01*
X118227206Y-126422765D01*
X118232805Y-126410083D01*
X118267855Y-126373563D01*
X118318180Y-126368116D01*
X118360232Y-126396292D01*
X118374500Y-126439973D01*
X118374500Y-127310026D01*
X118357187Y-127357592D01*
X118313350Y-127382902D01*
X118263500Y-127374112D01*
X118232805Y-127339916D01*
X118227206Y-127327235D01*
X118147765Y-127247794D01*
X118044991Y-127202415D01*
X118044990Y-127202414D01*
X118044988Y-127202414D01*
X118023659Y-127199940D01*
X118019865Y-127199500D01*
X118019864Y-127199500D01*
X117630136Y-127199500D01*
X117605013Y-127202414D01*
X117605007Y-127202415D01*
X117502234Y-127247794D01*
X117422794Y-127327234D01*
X117387951Y-127406147D01*
X117352900Y-127442668D01*
X117302575Y-127448114D01*
X117260523Y-127419937D01*
X117254998Y-127411148D01*
X117252085Y-127405698D01*
X117214247Y-127349070D01*
X117194909Y-127325507D01*
X117174492Y-127305090D01*
X117150929Y-127285752D01*
X117094304Y-127247916D01*
X117094305Y-127247916D01*
X117067411Y-127233541D01*
X117040735Y-127222492D01*
X117011571Y-127213646D01*
X117011560Y-127213643D01*
X116944197Y-127200245D01*
X116933740Y-127198165D01*
X116933736Y-127198164D01*
X116933729Y-127198163D01*
X116933731Y-127198163D01*
X116929358Y-127197515D01*
X116926190Y-127197045D01*
X116926180Y-127197044D01*
X116926178Y-127197043D01*
X116904166Y-127194876D01*
X116904167Y-127194876D01*
X116904165Y-127194875D01*
X116904156Y-127194875D01*
X116896530Y-127194500D01*
X112303470Y-127194500D01*
X112295844Y-127194875D01*
X112295834Y-127194875D01*
X112295833Y-127194876D01*
X112295834Y-127194876D01*
X112291905Y-127195262D01*
X112273826Y-127197043D01*
X112273825Y-127197043D01*
X112273812Y-127197044D01*
X112273811Y-127197045D01*
X112266260Y-127198165D01*
X112266255Y-127198165D01*
X112266248Y-127198167D01*
X112266249Y-127198167D01*
X112188429Y-127213644D01*
X112188427Y-127213644D01*
X112159266Y-127222491D01*
X112132585Y-127233542D01*
X112105696Y-127247914D01*
X112049076Y-127285747D01*
X112049055Y-127285763D01*
X112025525Y-127305073D01*
X112025515Y-127305081D01*
X112005091Y-127325504D01*
X111985751Y-127349069D01*
X111947905Y-127405710D01*
X111947904Y-127405713D01*
X111933544Y-127432580D01*
X111922491Y-127459266D01*
X111913644Y-127488427D01*
X111913644Y-127488429D01*
X111898167Y-127566248D01*
X111898166Y-127566258D01*
X111897043Y-127573825D01*
X111897043Y-127573826D01*
X111895262Y-127591905D01*
X111894875Y-127595844D01*
X111894857Y-127596211D01*
X111894500Y-127603475D01*
X111894500Y-129371524D01*
X111894876Y-129379166D01*
X111894876Y-129379165D01*
X111897043Y-129401177D01*
X111897044Y-129401179D01*
X111898163Y-129408730D01*
X111913643Y-129486559D01*
X111913646Y-129486570D01*
X111922489Y-129515726D01*
X111922498Y-129515750D01*
X111933542Y-129542411D01*
X111933541Y-129542411D01*
X111947916Y-129569305D01*
X111985747Y-129625922D01*
X111985752Y-129625929D01*
X112005090Y-129649492D01*
X112025507Y-129669909D01*
X112049070Y-129689247D01*
X112105698Y-129727085D01*
X112132583Y-129741456D01*
X112159258Y-129752505D01*
X112159264Y-129752506D01*
X112159267Y-129752508D01*
X112181135Y-129759141D01*
X112188428Y-129761353D01*
X112188432Y-129761353D01*
X112188433Y-129761354D01*
X112266263Y-129776836D01*
X112266265Y-129776836D01*
X112273807Y-129777955D01*
X112273806Y-129777955D01*
X112295835Y-129780124D01*
X112295845Y-129780125D01*
X112303470Y-129780500D01*
X113212757Y-129780500D01*
X113236158Y-129784297D01*
X113915495Y-130010742D01*
X113936493Y-130021744D01*
X114389597Y-130361573D01*
X114393651Y-130364613D01*
X114401577Y-130371487D01*
X114564365Y-130534276D01*
X114564366Y-130534276D01*
X114570027Y-130539408D01*
X114587141Y-130553452D01*
X114587140Y-130553451D01*
X114593272Y-130557999D01*
X114593273Y-130558000D01*
X114617370Y-130574101D01*
X114659253Y-130602086D01*
X114686137Y-130616456D01*
X114712812Y-130627505D01*
X114741981Y-130636353D01*
X114817650Y-130651405D01*
X114819815Y-130651836D01*
X114819817Y-130651836D01*
X114827359Y-130652955D01*
X114827358Y-130652955D01*
X114849388Y-130655124D01*
X114849398Y-130655125D01*
X114857023Y-130655500D01*
X114857029Y-130655500D01*
X116896524Y-130655500D01*
X116896530Y-130655500D01*
X116904155Y-130655125D01*
X116904164Y-130655124D01*
X116904165Y-130655124D01*
X116926195Y-130652955D01*
X116926194Y-130652955D01*
X116933736Y-130651836D01*
X116933738Y-130651836D01*
X116934805Y-130651623D01*
X117011572Y-130636353D01*
X117040741Y-130627505D01*
X117067416Y-130616456D01*
X117094301Y-130602085D01*
X117150929Y-130564247D01*
X117174492Y-130544909D01*
X117194909Y-130524492D01*
X117214247Y-130500929D01*
X117252085Y-130444301D01*
X117266456Y-130417416D01*
X117277505Y-130390741D01*
X117286353Y-130361571D01*
X117301835Y-130283741D01*
X117301890Y-130283365D01*
X117302955Y-130276194D01*
X117304900Y-130256438D01*
X117326791Y-130210797D01*
X117372898Y-130189906D01*
X117411041Y-130197208D01*
X117448607Y-130215573D01*
X117516740Y-130225500D01*
X117516746Y-130225500D01*
X118133254Y-130225500D01*
X118133260Y-130225500D01*
X118201393Y-130215573D01*
X118306483Y-130164198D01*
X118389198Y-130081483D01*
X118440573Y-129976393D01*
X118450500Y-129908260D01*
X118450500Y-129441740D01*
X118440573Y-129373607D01*
X118389198Y-129268517D01*
X118306483Y-129185802D01*
X118306482Y-129185801D01*
X118201394Y-129134427D01*
X118138830Y-129125311D01*
X118094257Y-129101320D01*
X118075533Y-129054291D01*
X118075500Y-129052084D01*
X118075500Y-128857332D01*
X118092813Y-128809766D01*
X118119611Y-128789637D01*
X118134070Y-128783253D01*
X118147765Y-128777206D01*
X118147765Y-128777205D01*
X118147767Y-128777205D01*
X118153423Y-128773331D01*
X118154694Y-128775186D01*
X118191361Y-128758080D01*
X118240258Y-128771172D01*
X118263759Y-128798202D01*
X118296948Y-128863340D01*
X118296950Y-128863342D01*
X118386658Y-128953050D01*
X118499696Y-129010646D01*
X118625000Y-129030492D01*
X118750304Y-129010646D01*
X118761905Y-129004734D01*
X118812146Y-128998566D01*
X118854599Y-129026134D01*
X118869500Y-129070669D01*
X118869500Y-129421524D01*
X118869876Y-129429166D01*
X118869876Y-129429165D01*
X118872043Y-129451177D01*
X118872044Y-129451179D01*
X118872045Y-129451189D01*
X118872046Y-129451193D01*
X118873163Y-129458730D01*
X118888643Y-129536559D01*
X118888646Y-129536570D01*
X118897489Y-129565726D01*
X118897498Y-129565750D01*
X118899010Y-129569399D01*
X118907674Y-129590317D01*
X118908542Y-129592411D01*
X118908541Y-129592411D01*
X118922916Y-129619305D01*
X118956732Y-129669913D01*
X118960752Y-129675929D01*
X118980090Y-129699492D01*
X119000507Y-129719909D01*
X119024070Y-129739247D01*
X119066613Y-129767673D01*
X119096544Y-129808493D01*
X119099500Y-129829201D01*
X119099500Y-131053455D01*
X119082187Y-131101021D01*
X119077826Y-131105781D01*
X117269520Y-132914086D01*
X117269517Y-132914090D01*
X117269516Y-132914091D01*
X117269513Y-132914094D01*
X117246950Y-132936658D01*
X117246949Y-132936659D01*
X117235107Y-132959900D01*
X117229043Y-132969796D01*
X117213703Y-132990911D01*
X117213702Y-132990912D01*
X117205641Y-133015722D01*
X117201200Y-133026446D01*
X117189352Y-133049699D01*
X117189351Y-133049702D01*
X117185270Y-133075467D01*
X117182562Y-133086751D01*
X117174500Y-133111568D01*
X117174500Y-133231845D01*
X117157187Y-133279411D01*
X117134096Y-133297779D01*
X117086657Y-133321950D01*
X116996951Y-133411656D01*
X116939353Y-133524698D01*
X116924500Y-133618480D01*
X116924500Y-134631519D01*
X116939353Y-134725304D01*
X116939354Y-134725306D01*
X116945264Y-134736904D01*
X116951433Y-134787146D01*
X116923865Y-134829599D01*
X116879330Y-134844500D01*
X115962436Y-134844500D01*
X115956331Y-134844740D01*
X115954489Y-134844885D01*
X115951584Y-134844999D01*
X115398404Y-134844999D01*
X115395517Y-134844886D01*
X115393652Y-134844740D01*
X115389584Y-134844580D01*
X115387551Y-134844500D01*
X115128470Y-134844500D01*
X115120844Y-134844875D01*
X115120834Y-134844875D01*
X115120833Y-134844876D01*
X115120834Y-134844876D01*
X115116905Y-134845262D01*
X115098826Y-134847043D01*
X115098825Y-134847043D01*
X115098812Y-134847044D01*
X115098811Y-134847045D01*
X115091260Y-134848165D01*
X115091255Y-134848165D01*
X115091248Y-134848167D01*
X115091249Y-134848167D01*
X115013429Y-134863644D01*
X115013427Y-134863644D01*
X114984266Y-134872491D01*
X114957585Y-134883542D01*
X114930696Y-134897914D01*
X114930691Y-134897917D01*
X114900255Y-134918254D01*
X114851087Y-134930285D01*
X114805688Y-134907896D01*
X114787000Y-134873194D01*
X114770389Y-134800412D01*
X114711675Y-134678493D01*
X114627305Y-134572695D01*
X114521507Y-134488325D01*
X114521506Y-134488324D01*
X114399593Y-134429613D01*
X114399586Y-134429610D01*
X114337898Y-134415531D01*
X114267660Y-134399500D01*
X114267657Y-134399500D01*
X110074500Y-134399500D01*
X110026934Y-134382187D01*
X110001624Y-134338350D01*
X110000500Y-134325500D01*
X110000500Y-132000005D01*
X111569532Y-132000005D01*
X111589364Y-132226688D01*
X111589365Y-132226696D01*
X111648258Y-132446488D01*
X111648260Y-132446492D01*
X111648261Y-132446496D01*
X111744432Y-132652734D01*
X111744434Y-132652736D01*
X111744435Y-132652739D01*
X111851345Y-132805423D01*
X111874953Y-132839139D01*
X112035861Y-133000047D01*
X112066158Y-133021261D01*
X112195129Y-133111567D01*
X112222266Y-133130568D01*
X112428504Y-133226739D01*
X112428510Y-133226740D01*
X112428511Y-133226741D01*
X112648303Y-133285634D01*
X112648305Y-133285634D01*
X112648308Y-133285635D01*
X112818216Y-133300500D01*
X112818218Y-133300500D01*
X112931782Y-133300500D01*
X112931784Y-133300500D01*
X113101692Y-133285635D01*
X113124921Y-133279411D01*
X113234688Y-133249999D01*
X113321496Y-133226739D01*
X113527734Y-133130568D01*
X113714139Y-133000047D01*
X113875047Y-132839139D01*
X114005568Y-132652734D01*
X114101739Y-132446496D01*
X114160635Y-132226692D01*
X114180468Y-132000000D01*
X114180468Y-131999994D01*
X114167246Y-131848872D01*
X114160635Y-131773308D01*
X114148698Y-131728760D01*
X114101741Y-131553511D01*
X114101740Y-131553510D01*
X114101739Y-131553504D01*
X114005568Y-131347266D01*
X113981877Y-131313432D01*
X113930647Y-131240267D01*
X113875047Y-131160861D01*
X113714139Y-130999953D01*
X113668558Y-130968037D01*
X113527739Y-130869435D01*
X113527736Y-130869434D01*
X113527734Y-130869432D01*
X113321496Y-130773261D01*
X113321492Y-130773260D01*
X113321488Y-130773258D01*
X113101696Y-130714365D01*
X113101689Y-130714364D01*
X112964362Y-130702350D01*
X112931784Y-130699500D01*
X112818216Y-130699500D01*
X112788488Y-130702100D01*
X112648310Y-130714364D01*
X112648303Y-130714365D01*
X112428511Y-130773258D01*
X112428504Y-130773260D01*
X112428504Y-130773261D01*
X112293970Y-130835996D01*
X112222260Y-130869435D01*
X112035860Y-130999953D01*
X111874953Y-131160860D01*
X111744435Y-131347260D01*
X111744432Y-131347265D01*
X111744432Y-131347266D01*
X111675046Y-131496064D01*
X111648263Y-131553500D01*
X111648258Y-131553511D01*
X111589365Y-131773303D01*
X111589364Y-131773311D01*
X111569532Y-131999994D01*
X111569532Y-132000005D01*
X110000500Y-132000005D01*
X110000500Y-119085328D01*
X112342500Y-119085328D01*
X112348902Y-119144875D01*
X112348903Y-119144880D01*
X112399145Y-119279587D01*
X112399146Y-119279588D01*
X112485311Y-119394688D01*
X112600411Y-119480853D01*
X112600412Y-119480854D01*
X112735119Y-119531096D01*
X112735124Y-119531097D01*
X112794671Y-119537500D01*
X114267500Y-119537500D01*
X114267500Y-118976220D01*
X114353177Y-118987500D01*
X114431823Y-118987500D01*
X114517500Y-118976220D01*
X114517500Y-119537500D01*
X115990329Y-119537500D01*
X116049875Y-119531097D01*
X116049880Y-119531096D01*
X116184587Y-119480854D01*
X116184588Y-119480853D01*
X116299688Y-119394688D01*
X116385853Y-119279588D01*
X116385854Y-119279587D01*
X116436096Y-119144880D01*
X116436097Y-119144875D01*
X116442500Y-119085328D01*
X116442500Y-118512500D01*
X114981220Y-118512500D01*
X114997677Y-118387500D01*
X114981220Y-118262500D01*
X116442500Y-118262500D01*
X116442500Y-117689671D01*
X116436097Y-117630124D01*
X116436096Y-117630119D01*
X116385854Y-117495412D01*
X116385853Y-117495411D01*
X116299688Y-117380311D01*
X116184588Y-117294146D01*
X116184587Y-117294145D01*
X116049880Y-117243903D01*
X116049875Y-117243902D01*
X115990329Y-117237500D01*
X114517500Y-117237500D01*
X114517500Y-117798779D01*
X114431823Y-117787500D01*
X114353177Y-117787500D01*
X114267500Y-117798779D01*
X114267500Y-117237500D01*
X112794671Y-117237500D01*
X112735124Y-117243902D01*
X112735119Y-117243903D01*
X112600412Y-117294145D01*
X112600411Y-117294146D01*
X112485311Y-117380311D01*
X112399146Y-117495411D01*
X112399145Y-117495412D01*
X112348903Y-117630119D01*
X112348902Y-117630124D01*
X112342500Y-117689671D01*
X112342500Y-118262500D01*
X113803780Y-118262500D01*
X113787323Y-118387500D01*
X113803780Y-118512500D01*
X112342500Y-118512500D01*
X112342500Y-119085328D01*
X110000500Y-119085328D01*
X110000500Y-107227847D01*
X110017813Y-107180281D01*
X110061650Y-107154971D01*
X110111500Y-107163761D01*
X110130950Y-107181706D01*
X110131547Y-107181178D01*
X110134515Y-107184528D01*
X110186596Y-107230668D01*
X110239602Y-107280444D01*
X110239603Y-107280444D01*
X110239607Y-107280448D01*
X110240747Y-107281075D01*
X110248982Y-107286877D01*
X110249077Y-107286740D01*
X110252754Y-107289278D01*
X110252760Y-107289283D01*
X110317148Y-107323077D01*
X110361372Y-107347389D01*
X110394713Y-107385475D01*
X110398864Y-107403674D01*
X110399045Y-107403646D01*
X110399470Y-107406332D01*
X110399493Y-107406431D01*
X110399499Y-107406517D01*
X110414353Y-107500303D01*
X110471950Y-107613342D01*
X110561658Y-107703050D01*
X110617100Y-107731298D01*
X110674696Y-107760646D01*
X110768481Y-107775500D01*
X110768482Y-107775500D01*
X111287055Y-107775500D01*
X111315783Y-107781950D01*
X111315999Y-107781429D01*
X111362360Y-107800632D01*
X111362362Y-107800632D01*
X111362375Y-107800638D01*
X111400926Y-107812332D01*
X111465372Y-107825151D01*
X111465373Y-107825152D01*
X111473424Y-107826346D01*
X111475354Y-107826633D01*
X111497759Y-107828840D01*
X111509572Y-107830004D01*
X111509580Y-107830004D01*
X111509586Y-107830005D01*
X111519665Y-107830500D01*
X111839022Y-107830500D01*
X111886588Y-107847813D01*
X111897244Y-107858826D01*
X112185826Y-108226688D01*
X112547660Y-108687928D01*
X112557414Y-108700361D01*
X112557413Y-108700359D01*
X112566681Y-108710660D01*
X112566684Y-108710663D01*
X112566686Y-108710665D01*
X112566687Y-108710666D01*
X112600555Y-108743551D01*
X112611131Y-108752518D01*
X112666223Y-108793178D01*
X112681817Y-108808771D01*
X112712434Y-108850255D01*
X112722736Y-108869749D01*
X112730814Y-108892831D01*
X112730817Y-108892837D01*
X112730817Y-108892838D01*
X112744526Y-108923642D01*
X112752379Y-108937988D01*
X112764003Y-108959221D01*
X112782581Y-108987388D01*
X113383207Y-109753021D01*
X114008136Y-110549634D01*
X114015825Y-110558369D01*
X114043663Y-110586597D01*
X114047471Y-110590045D01*
X114052284Y-110594403D01*
X114052283Y-110594402D01*
X114110950Y-110641764D01*
X114116422Y-110645240D01*
X114150134Y-110666657D01*
X114200190Y-110691009D01*
X114200193Y-110691010D01*
X114200195Y-110691011D01*
X114211529Y-110695015D01*
X114243960Y-110706473D01*
X114292938Y-110717755D01*
X114317430Y-110723397D01*
X114317429Y-110723397D01*
X114328888Y-110725361D01*
X114328889Y-110725362D01*
X114368275Y-110729841D01*
X114368276Y-110729841D01*
X114368284Y-110729841D01*
X114368289Y-110729842D01*
X114376410Y-110730301D01*
X114379905Y-110730500D01*
X114379907Y-110730500D01*
X114775500Y-110730500D01*
X114823066Y-110747813D01*
X114848376Y-110791650D01*
X114849500Y-110804500D01*
X114849500Y-111449901D01*
X114832187Y-111497467D01*
X114827826Y-111502227D01*
X113989081Y-112340971D01*
X113976416Y-112351119D01*
X113974563Y-112352295D01*
X113974559Y-112352298D01*
X113925309Y-112404744D01*
X113903588Y-112426465D01*
X113898370Y-112433191D01*
X113896109Y-112435837D01*
X113862051Y-112472107D01*
X113849928Y-112494157D01*
X113843557Y-112503856D01*
X113828138Y-112523735D01*
X113808380Y-112569392D01*
X113806846Y-112572523D01*
X113782873Y-112616129D01*
X113782873Y-112616130D01*
X113776612Y-112640510D01*
X113772854Y-112651486D01*
X113762864Y-112674575D01*
X113755081Y-112723713D01*
X113754374Y-112727127D01*
X113742000Y-112775321D01*
X113742000Y-112800478D01*
X113741089Y-112812054D01*
X113737153Y-112836905D01*
X113741836Y-112886444D01*
X113742000Y-112889928D01*
X113742000Y-113453000D01*
X113724687Y-113500566D01*
X113680850Y-113525876D01*
X113668000Y-113527000D01*
X113440892Y-113527000D01*
X113363729Y-113534600D01*
X113286564Y-113542200D01*
X113088543Y-113602269D01*
X112906049Y-113699815D01*
X112746090Y-113831089D01*
X112746089Y-113831090D01*
X112614815Y-113991049D01*
X112517269Y-114173543D01*
X112457200Y-114371564D01*
X112436917Y-114577500D01*
X112457200Y-114783435D01*
X112478911Y-114855007D01*
X112515930Y-114977044D01*
X112517269Y-114981456D01*
X112614815Y-115163950D01*
X112743272Y-115320477D01*
X112746090Y-115323910D01*
X112906050Y-115455185D01*
X113088546Y-115552732D01*
X113286566Y-115612800D01*
X113440892Y-115628000D01*
X113440894Y-115628000D01*
X115344106Y-115628000D01*
X115344108Y-115628000D01*
X115498434Y-115612800D01*
X115696454Y-115552732D01*
X115878950Y-115455185D01*
X116038910Y-115323910D01*
X116170185Y-115163950D01*
X116267732Y-114981454D01*
X116327800Y-114783434D01*
X116348083Y-114577500D01*
X116327800Y-114371566D01*
X116267732Y-114173546D01*
X116170185Y-113991050D01*
X116038910Y-113831090D01*
X115996408Y-113796210D01*
X115878950Y-113699815D01*
X115696456Y-113602269D01*
X115696455Y-113602268D01*
X115696454Y-113602268D01*
X115579240Y-113566712D01*
X115498435Y-113542200D01*
X115422083Y-113534680D01*
X115344108Y-113527000D01*
X115344106Y-113527000D01*
X115117000Y-113527000D01*
X115069434Y-113509687D01*
X115044124Y-113465850D01*
X115043000Y-113453000D01*
X115043000Y-113157597D01*
X115060313Y-113110031D01*
X115064663Y-113105282D01*
X115903419Y-112266525D01*
X115916088Y-112256377D01*
X115917940Y-112255202D01*
X115967190Y-112202755D01*
X115988912Y-112181034D01*
X115994133Y-112174301D01*
X115996377Y-112171674D01*
X116030448Y-112135393D01*
X116042569Y-112113341D01*
X116048935Y-112103649D01*
X116064363Y-112083763D01*
X116084132Y-112038076D01*
X116085646Y-112034986D01*
X116109627Y-111991368D01*
X116115882Y-111967001D01*
X116119642Y-111956016D01*
X116129636Y-111932926D01*
X116129636Y-111932924D01*
X116129637Y-111932923D01*
X116129637Y-111932922D01*
X116133597Y-111907914D01*
X116137420Y-111883774D01*
X116138120Y-111880391D01*
X116150500Y-111832177D01*
X116150500Y-111807021D01*
X116151411Y-111795445D01*
X116155347Y-111770595D01*
X116150664Y-111721052D01*
X116150500Y-111717568D01*
X116150500Y-110804500D01*
X116167813Y-110756934D01*
X116211650Y-110731624D01*
X116224500Y-110730500D01*
X116492826Y-110730500D01*
X116492835Y-110730500D01*
X116502915Y-110730005D01*
X116502920Y-110730004D01*
X116502929Y-110730004D01*
X116521352Y-110728188D01*
X116537145Y-110726633D01*
X116537151Y-110726632D01*
X116537162Y-110726631D01*
X116537161Y-110726631D01*
X116545714Y-110725361D01*
X116547122Y-110725152D01*
X116611573Y-110712332D01*
X116650123Y-110700638D01*
X116694820Y-110682124D01*
X116730351Y-110663133D01*
X116770441Y-110636345D01*
X116801577Y-110610792D01*
X116835789Y-110576581D01*
X116861349Y-110545436D01*
X116888135Y-110505347D01*
X116907124Y-110469820D01*
X116925638Y-110425123D01*
X116937332Y-110386575D01*
X116950152Y-110322127D01*
X116951329Y-110314199D01*
X116951634Y-110312140D01*
X116955004Y-110277926D01*
X116955500Y-110267825D01*
X116955500Y-109125000D01*
X117618456Y-109125000D01*
X117623996Y-109177704D01*
X117679207Y-109347626D01*
X117768547Y-109502368D01*
X117888103Y-109635150D01*
X118032662Y-109740177D01*
X118032661Y-109740177D01*
X118195887Y-109812850D01*
X118195889Y-109812851D01*
X118335000Y-109842419D01*
X118335000Y-109327137D01*
X118401595Y-109350000D01*
X118489005Y-109350000D01*
X118575216Y-109335614D01*
X118585000Y-109330319D01*
X118585000Y-109842418D01*
X118724110Y-109812851D01*
X118724112Y-109812850D01*
X118887337Y-109740177D01*
X119031896Y-109635150D01*
X119151452Y-109502368D01*
X119240792Y-109347626D01*
X119296003Y-109177704D01*
X119301544Y-109125000D01*
X118787361Y-109125000D01*
X118803982Y-109087108D01*
X118813628Y-108970698D01*
X118789394Y-108875000D01*
X119301544Y-108875000D01*
X119301543Y-108874999D01*
X119296003Y-108822295D01*
X119240792Y-108652373D01*
X119151452Y-108497631D01*
X119031896Y-108364849D01*
X118887337Y-108259822D01*
X118887338Y-108259822D01*
X118724117Y-108187151D01*
X118724115Y-108187150D01*
X118585000Y-108157579D01*
X118585000Y-108672862D01*
X118518405Y-108650000D01*
X118430995Y-108650000D01*
X118344784Y-108664386D01*
X118335000Y-108669680D01*
X118335000Y-108157579D01*
X118334999Y-108157579D01*
X118195884Y-108187150D01*
X118195882Y-108187151D01*
X118032662Y-108259822D01*
X117888103Y-108364849D01*
X117768547Y-108497631D01*
X117679207Y-108652373D01*
X117623996Y-108822295D01*
X117618456Y-108874999D01*
X117618456Y-108875000D01*
X118132639Y-108875000D01*
X118116018Y-108912892D01*
X118106372Y-109029302D01*
X118130606Y-109125000D01*
X117618456Y-109125000D01*
X116955500Y-109125000D01*
X116955500Y-108730962D01*
X116955319Y-108718828D01*
X116954772Y-108706724D01*
X116944957Y-108543142D01*
X116880565Y-107469933D01*
X116880500Y-107467735D01*
X116880500Y-106757173D01*
X116880004Y-106747070D01*
X116880004Y-106747071D01*
X116876633Y-106712853D01*
X116875152Y-106702875D01*
X116864236Y-106647997D01*
X116852544Y-106609450D01*
X116851734Y-106607495D01*
X116842168Y-106584399D01*
X116834030Y-106564751D01*
X116815036Y-106529217D01*
X116793665Y-106497234D01*
X116793662Y-106497230D01*
X116793661Y-106497228D01*
X116768112Y-106466098D01*
X116733900Y-106431886D01*
X116702770Y-106406337D01*
X116702768Y-106406336D01*
X116684749Y-106394296D01*
X116670779Y-106384961D01*
X116635245Y-106365967D01*
X116590551Y-106347454D01*
X116552007Y-106335763D01*
X116551993Y-106335760D01*
X116507671Y-106326945D01*
X116497113Y-106324845D01*
X116497109Y-106324844D01*
X116497102Y-106324843D01*
X116497103Y-106324843D01*
X116487124Y-106323363D01*
X116487122Y-106323363D01*
X116470018Y-106321679D01*
X116452906Y-106319995D01*
X116442832Y-106319500D01*
X115908481Y-106319500D01*
X115908478Y-106319500D01*
X115896600Y-106320189D01*
X115896594Y-106320189D01*
X115896588Y-106320190D01*
X115856267Y-106324885D01*
X115844536Y-106326945D01*
X115844532Y-106326946D01*
X115844531Y-106326946D01*
X115769474Y-106344664D01*
X115769472Y-106344664D01*
X115724789Y-106360858D01*
X115724783Y-106360861D01*
X115673839Y-106386331D01*
X115673813Y-106386346D01*
X115640026Y-106408462D01*
X115590746Y-106420026D01*
X115545562Y-106397208D01*
X115525616Y-106350685D01*
X115525500Y-106346546D01*
X115525500Y-106335837D01*
X115542813Y-106288271D01*
X115547163Y-106283522D01*
X116403419Y-105427265D01*
X116416088Y-105417117D01*
X116417940Y-105415942D01*
X116467190Y-105363495D01*
X116488911Y-105341775D01*
X116494135Y-105335039D01*
X116496374Y-105332416D01*
X116530448Y-105296133D01*
X116542571Y-105274078D01*
X116548939Y-105264385D01*
X116564362Y-105244504D01*
X116584129Y-105198820D01*
X116585643Y-105195731D01*
X116609627Y-105152108D01*
X116615884Y-105127734D01*
X116619643Y-105116752D01*
X116629635Y-105093667D01*
X116637417Y-105044532D01*
X116638124Y-105041116D01*
X116650500Y-104992917D01*
X116650500Y-104967754D01*
X116651411Y-104956178D01*
X116655346Y-104931335D01*
X116650664Y-104881803D01*
X116650500Y-104878319D01*
X116650500Y-104654500D01*
X116667813Y-104606934D01*
X116711650Y-104581624D01*
X116724500Y-104580500D01*
X116996524Y-104580500D01*
X116996530Y-104580500D01*
X117004155Y-104580125D01*
X117004164Y-104580124D01*
X117004165Y-104580124D01*
X117026195Y-104577955D01*
X117026194Y-104577955D01*
X117033736Y-104576836D01*
X117033738Y-104576836D01*
X117040459Y-104575499D01*
X117111572Y-104561353D01*
X117140741Y-104552505D01*
X117142182Y-104551907D01*
X117142438Y-104551896D01*
X117142452Y-104551892D01*
X117142453Y-104551896D01*
X117192751Y-104549700D01*
X117232910Y-104580514D01*
X117244500Y-104620275D01*
X117244500Y-104623485D01*
X117252130Y-104671588D01*
X117252133Y-104671602D01*
X117266305Y-104715151D01*
X117274468Y-104735318D01*
X117274468Y-104735319D01*
X117297575Y-104761853D01*
X117315757Y-104809094D01*
X117308250Y-104842950D01*
X117260134Y-104941372D01*
X117260134Y-104941374D01*
X117249500Y-105014359D01*
X117249500Y-105535640D01*
X117260134Y-105608625D01*
X117260134Y-105608626D01*
X117315173Y-105721210D01*
X117315174Y-105721211D01*
X117403789Y-105809826D01*
X117516375Y-105864866D01*
X117542633Y-105868691D01*
X117587206Y-105892680D01*
X117604542Y-105927481D01*
X117615485Y-105982495D01*
X117626978Y-105999696D01*
X117676377Y-106073625D01*
X117693314Y-106084942D01*
X117704529Y-106094145D01*
X118530854Y-106920470D01*
X118540056Y-106931683D01*
X118551375Y-106948623D01*
X118551376Y-106948624D01*
X118572192Y-106962533D01*
X118572211Y-106962547D01*
X118576983Y-106965734D01*
X118576984Y-106965735D01*
X118642505Y-107009515D01*
X118722867Y-107025500D01*
X118722868Y-107025500D01*
X118749999Y-107030897D01*
X118750000Y-107030897D01*
X118769983Y-107026921D01*
X118784420Y-107025500D01*
X120715580Y-107025500D01*
X120730016Y-107026921D01*
X120750000Y-107030897D01*
X120750001Y-107030897D01*
X120754622Y-107029977D01*
X120777132Y-107025500D01*
X120777133Y-107025500D01*
X120857495Y-107009515D01*
X120922648Y-106965981D01*
X120923018Y-106965734D01*
X120933629Y-106958645D01*
X120933637Y-106958637D01*
X120948624Y-106948624D01*
X120959948Y-106931674D01*
X120969141Y-106920473D01*
X121170472Y-106719142D01*
X121181676Y-106709947D01*
X121198624Y-106698624D01*
X121229345Y-106652648D01*
X121243365Y-106631665D01*
X121284184Y-106601733D01*
X121317741Y-106599900D01*
X121349500Y-106605500D01*
X121349504Y-106605500D01*
X124296524Y-106605500D01*
X124296530Y-106605500D01*
X124304155Y-106605125D01*
X124304164Y-106605124D01*
X124304165Y-106605124D01*
X124326195Y-106602955D01*
X124326194Y-106602955D01*
X124333736Y-106601836D01*
X124333738Y-106601836D01*
X124346919Y-106599214D01*
X124411572Y-106586353D01*
X124440741Y-106577505D01*
X124467416Y-106566456D01*
X124494301Y-106552085D01*
X124550929Y-106514247D01*
X124574492Y-106494909D01*
X124594909Y-106474492D01*
X124614247Y-106450929D01*
X124652085Y-106394301D01*
X124666456Y-106367416D01*
X124677505Y-106340741D01*
X124686353Y-106311571D01*
X124701835Y-106233741D01*
X124701924Y-106233138D01*
X124702955Y-106226192D01*
X124702955Y-106226193D01*
X124705124Y-106204164D01*
X124705125Y-106204154D01*
X124705500Y-106196529D01*
X124705500Y-103632023D01*
X124705125Y-103624398D01*
X124702955Y-103602362D01*
X124702955Y-103602359D01*
X124702954Y-103602358D01*
X124701836Y-103594817D01*
X124701918Y-103595227D01*
X124700499Y-103580806D01*
X124700499Y-103559045D01*
X124717812Y-103511479D01*
X124722173Y-103506719D01*
X125331719Y-102897174D01*
X125377596Y-102875782D01*
X125384045Y-102875500D01*
X125433254Y-102875500D01*
X125433260Y-102875500D01*
X125501393Y-102865573D01*
X125606483Y-102814198D01*
X125689198Y-102731483D01*
X125708500Y-102692000D01*
X125744944Y-102656870D01*
X125774981Y-102650500D01*
X125822189Y-102650500D01*
X125869755Y-102667813D01*
X125883088Y-102682461D01*
X125884514Y-102684527D01*
X125884515Y-102684528D01*
X125884516Y-102684529D01*
X125884517Y-102684530D01*
X126002760Y-102789283D01*
X126142635Y-102862696D01*
X126296015Y-102900500D01*
X126296019Y-102900500D01*
X126453981Y-102900500D01*
X126453985Y-102900500D01*
X126607365Y-102862696D01*
X126747240Y-102789283D01*
X126865483Y-102684530D01*
X126955220Y-102554523D01*
X127011237Y-102406818D01*
X127025185Y-102291943D01*
X127030278Y-102250003D01*
X127030278Y-102249996D01*
X127011238Y-102093191D01*
X127011237Y-102093182D01*
X126994434Y-102048876D01*
X126955221Y-101945478D01*
X126865483Y-101815470D01*
X126812483Y-101768517D01*
X126747240Y-101710717D01*
X126699767Y-101685801D01*
X126607366Y-101637304D01*
X126453987Y-101599500D01*
X126453985Y-101599500D01*
X126296015Y-101599500D01*
X126296012Y-101599500D01*
X126142633Y-101637304D01*
X126002761Y-101710716D01*
X125884515Y-101815471D01*
X125884514Y-101815472D01*
X125883088Y-101817539D01*
X125881997Y-101818313D01*
X125881547Y-101818822D01*
X125881428Y-101818717D01*
X125841818Y-101846849D01*
X125822189Y-101849500D01*
X125774981Y-101849500D01*
X125727415Y-101832187D01*
X125708500Y-101808000D01*
X125689198Y-101768517D01*
X125606482Y-101685801D01*
X125501394Y-101634427D01*
X125433264Y-101624500D01*
X125433260Y-101624500D01*
X124966740Y-101624500D01*
X124966735Y-101624500D01*
X124898606Y-101634427D01*
X124898605Y-101634427D01*
X124793517Y-101685801D01*
X124710801Y-101768517D01*
X124659427Y-101873605D01*
X124659427Y-101873606D01*
X124649500Y-101941735D01*
X124649500Y-102415955D01*
X124632187Y-102463521D01*
X124627826Y-102468281D01*
X123998281Y-103097826D01*
X123952405Y-103119218D01*
X123945955Y-103119500D01*
X122723060Y-103119500D01*
X122675494Y-103102187D01*
X122650184Y-103058350D01*
X122655365Y-103015610D01*
X122697585Y-102919991D01*
X122700500Y-102894865D01*
X122700499Y-102505136D01*
X122697585Y-102480009D01*
X122652206Y-102377235D01*
X122572765Y-102297794D01*
X122571674Y-102296703D01*
X122550282Y-102250827D01*
X122550000Y-102244377D01*
X122550000Y-102050000D01*
X122474000Y-102050000D01*
X122426434Y-102032687D01*
X122401124Y-101988850D01*
X122400000Y-101976000D01*
X122400000Y-101524000D01*
X122417313Y-101476434D01*
X122461150Y-101451124D01*
X122474000Y-101450000D01*
X122550000Y-101450000D01*
X122550000Y-101255623D01*
X122567313Y-101208057D01*
X122571674Y-101203297D01*
X122610773Y-101164198D01*
X122652206Y-101122765D01*
X122664673Y-101094528D01*
X122699722Y-101058009D01*
X122717926Y-101051842D01*
X122797741Y-101035966D01*
X122815602Y-101024031D01*
X122827537Y-101016057D01*
X122832158Y-101012969D01*
X122873267Y-101000500D01*
X122927085Y-101000500D01*
X122974651Y-101017813D01*
X122999961Y-101061650D01*
X123000308Y-101063811D01*
X123008898Y-101122764D01*
X123009427Y-101126393D01*
X123009427Y-101126394D01*
X123060801Y-101231482D01*
X123143517Y-101314198D01*
X123253770Y-101368097D01*
X123253072Y-101369524D01*
X123287681Y-101395766D01*
X123299500Y-101435885D01*
X123299500Y-101564114D01*
X123282187Y-101611680D01*
X123253271Y-101630884D01*
X123253769Y-101631903D01*
X123143517Y-101685801D01*
X123060801Y-101768517D01*
X123009427Y-101873605D01*
X123009427Y-101873606D01*
X122999500Y-101941735D01*
X122999500Y-102558264D01*
X123009427Y-102626393D01*
X123009427Y-102626394D01*
X123060801Y-102731482D01*
X123060802Y-102731483D01*
X123143517Y-102814198D01*
X123248607Y-102865573D01*
X123316740Y-102875500D01*
X123316746Y-102875500D01*
X123783254Y-102875500D01*
X123783260Y-102875500D01*
X123851393Y-102865573D01*
X123956483Y-102814198D01*
X124039198Y-102731483D01*
X124090573Y-102626393D01*
X124100500Y-102558260D01*
X124100500Y-101941740D01*
X124090573Y-101873607D01*
X124039198Y-101768517D01*
X123956483Y-101685802D01*
X123956482Y-101685801D01*
X123846231Y-101631903D01*
X123846927Y-101630477D01*
X123812313Y-101604223D01*
X123800500Y-101564114D01*
X123800500Y-101435885D01*
X123817813Y-101388319D01*
X123846728Y-101369117D01*
X123846230Y-101368097D01*
X123851393Y-101365573D01*
X123956483Y-101314198D01*
X124039198Y-101231483D01*
X124090573Y-101126393D01*
X124100500Y-101058260D01*
X124100500Y-100441740D01*
X124090573Y-100373607D01*
X124039198Y-100268517D01*
X123956483Y-100185802D01*
X123956482Y-100185801D01*
X123864800Y-100140981D01*
X123829670Y-100104537D01*
X123826185Y-100054038D01*
X123855976Y-100013113D01*
X123897300Y-100000500D01*
X127125500Y-100000500D01*
X127173066Y-100017813D01*
G37*
%TD.AperFunction*%
%TA.AperFunction,Conductor*%
G36*
X131967945Y-117147794D02*
G01*
X131996979Y-117189258D01*
X131999500Y-117208411D01*
X131999500Y-128202700D01*
X131982187Y-128250266D01*
X131938350Y-128275576D01*
X131888500Y-128266786D01*
X131859019Y-128235200D01*
X131814198Y-128143517D01*
X131731482Y-128060801D01*
X131626394Y-128009427D01*
X131558264Y-127999500D01*
X131558260Y-127999500D01*
X131190070Y-127999500D01*
X131142504Y-127982187D01*
X131117194Y-127938350D01*
X131117492Y-127911063D01*
X131130408Y-127846130D01*
X131130408Y-127846129D01*
X131126922Y-127828604D01*
X131125500Y-127814168D01*
X131125500Y-125031961D01*
X131126922Y-125017523D01*
X131130408Y-125000000D01*
X131110966Y-124902259D01*
X131084962Y-124863342D01*
X131059695Y-124825526D01*
X131055603Y-124819401D01*
X131055601Y-124819400D01*
X131055601Y-124819399D01*
X131040735Y-124809466D01*
X131029527Y-124800267D01*
X130772174Y-124542914D01*
X130750782Y-124497038D01*
X130750500Y-124490588D01*
X130750500Y-120914411D01*
X130767813Y-120866845D01*
X130772163Y-120862096D01*
X131037085Y-120597173D01*
X131082961Y-120575782D01*
X131089411Y-120575500D01*
X131219772Y-120575500D01*
X131344069Y-120539004D01*
X131453049Y-120468967D01*
X131537882Y-120371063D01*
X131591697Y-120253226D01*
X131610133Y-120125000D01*
X131591697Y-119996774D01*
X131537882Y-119878937D01*
X131484650Y-119817503D01*
X131466586Y-119770219D01*
X131483142Y-119722384D01*
X131488241Y-119716729D01*
X131557206Y-119647765D01*
X131602585Y-119544991D01*
X131605500Y-119519865D01*
X131605499Y-117780136D01*
X131602585Y-117755009D01*
X131557206Y-117652235D01*
X131519441Y-117614470D01*
X131498049Y-117568594D01*
X131511150Y-117519699D01*
X131519441Y-117509818D01*
X131745381Y-117283878D01*
X131873175Y-117156084D01*
X131919050Y-117134693D01*
X131967945Y-117147794D01*
G37*
%TD.AperFunction*%
%TA.AperFunction,Conductor*%
G36*
X117381999Y-122933010D02*
G01*
X117448607Y-122965573D01*
X117516740Y-122975500D01*
X117990588Y-122975500D01*
X118038154Y-122992813D01*
X118042914Y-122997174D01*
X118352826Y-123307086D01*
X118374218Y-123352962D01*
X118374500Y-123359412D01*
X118374500Y-123500507D01*
X118357187Y-123548073D01*
X118313350Y-123573383D01*
X118268000Y-123566988D01*
X118201395Y-123534428D01*
X118201393Y-123534427D01*
X118133264Y-123524500D01*
X118133260Y-123524500D01*
X117516740Y-123524500D01*
X117516735Y-123524500D01*
X117448606Y-123534427D01*
X117448605Y-123534427D01*
X117343517Y-123585801D01*
X117260801Y-123668517D01*
X117209427Y-123773605D01*
X117209427Y-123773606D01*
X117199500Y-123841735D01*
X117199500Y-124308264D01*
X117209427Y-124376393D01*
X117209427Y-124376394D01*
X117260801Y-124481482D01*
X117260802Y-124481483D01*
X117343517Y-124564198D01*
X117448607Y-124615573D01*
X117511169Y-124624688D01*
X117555742Y-124648678D01*
X117574467Y-124695706D01*
X117574500Y-124697915D01*
X117574500Y-124892667D01*
X117557187Y-124940233D01*
X117530391Y-124960361D01*
X117502239Y-124972791D01*
X117502236Y-124972793D01*
X117502235Y-124972793D01*
X117502235Y-124972794D01*
X117422794Y-125052235D01*
X117422793Y-125052236D01*
X117421704Y-125053326D01*
X117375828Y-125074718D01*
X117369378Y-125075000D01*
X117175000Y-125075000D01*
X117175000Y-125151000D01*
X117157687Y-125198566D01*
X117113850Y-125223876D01*
X117101000Y-125225000D01*
X116649000Y-125225000D01*
X116601434Y-125207687D01*
X116576124Y-125163850D01*
X116575000Y-125151000D01*
X116575000Y-125075000D01*
X116574569Y-125074569D01*
X116553177Y-125028693D01*
X116554019Y-125009395D01*
X116555500Y-125001000D01*
X116555500Y-123966545D01*
X116572813Y-123918979D01*
X116577174Y-123914219D01*
X116875142Y-123616251D01*
X117180484Y-123310909D01*
X117180484Y-123310907D01*
X117184698Y-123306694D01*
X117184702Y-123306689D01*
X117203050Y-123288342D01*
X117214892Y-123265098D01*
X117220961Y-123255196D01*
X117226069Y-123248166D01*
X117236296Y-123234090D01*
X117244359Y-123209272D01*
X117248798Y-123198553D01*
X117260646Y-123175304D01*
X117264727Y-123149532D01*
X117267434Y-123138253D01*
X117275500Y-123113433D01*
X117275500Y-122999492D01*
X117292813Y-122951926D01*
X117336650Y-122926616D01*
X117381999Y-122933010D01*
G37*
%TD.AperFunction*%
%TA.AperFunction,Conductor*%
G36*
X120448074Y-121792813D02*
G01*
X120473384Y-121836650D01*
X120466989Y-121882000D01*
X120434427Y-121948605D01*
X120434427Y-121948606D01*
X120424500Y-122016735D01*
X120424500Y-122052259D01*
X120423081Y-122066680D01*
X120423166Y-122066255D01*
X120422043Y-122073825D01*
X120422043Y-122073826D01*
X120420262Y-122091905D01*
X120419875Y-122095844D01*
X120419500Y-122103470D01*
X120419500Y-122103475D01*
X120419500Y-122596524D01*
X120419876Y-122604166D01*
X120419876Y-122604165D01*
X120422043Y-122626177D01*
X120422044Y-122626179D01*
X120423163Y-122633730D01*
X120438643Y-122711559D01*
X120438646Y-122711570D01*
X120447489Y-122740726D01*
X120447498Y-122740750D01*
X120458542Y-122767411D01*
X120458541Y-122767411D01*
X120472916Y-122794305D01*
X120486027Y-122813926D01*
X120510752Y-122850929D01*
X120514125Y-122855039D01*
X120529321Y-122873555D01*
X120546114Y-122921307D01*
X120528283Y-122968682D01*
X120484172Y-122993512D01*
X120472118Y-122994500D01*
X120196108Y-122994500D01*
X120189329Y-122994796D01*
X120173104Y-122996214D01*
X120173097Y-122996215D01*
X120108896Y-123016458D01*
X120108895Y-123016458D01*
X120077699Y-123034471D01*
X120065061Y-123041768D01*
X120065055Y-123041772D01*
X120065055Y-123041771D01*
X120042861Y-123057311D01*
X120042859Y-123057313D01*
X119996693Y-123123245D01*
X119996689Y-123123252D01*
X119979377Y-123170815D01*
X119970000Y-123223996D01*
X119970000Y-123344005D01*
X119969226Y-123354678D01*
X119966159Y-123375720D01*
X119959414Y-123397547D01*
X119936945Y-123443509D01*
X119922790Y-123463335D01*
X119888335Y-123497790D01*
X119868510Y-123511945D01*
X119845605Y-123523143D01*
X119822546Y-123534415D01*
X119800717Y-123541161D01*
X119779676Y-123544227D01*
X119769006Y-123545000D01*
X119231002Y-123545000D01*
X119220333Y-123544227D01*
X119218610Y-123543976D01*
X119211028Y-123542871D01*
X119179880Y-123538333D01*
X119168866Y-123535858D01*
X119153216Y-123531061D01*
X119130538Y-123527863D01*
X119107863Y-123524666D01*
X119086148Y-123523143D01*
X119086147Y-123523143D01*
X119086146Y-123523143D01*
X119008400Y-123543976D01*
X119008398Y-123543976D01*
X119008398Y-123543977D01*
X118986499Y-123556620D01*
X118936651Y-123565410D01*
X118892813Y-123540101D01*
X118875500Y-123492535D01*
X118875500Y-123256962D01*
X118876922Y-123242525D01*
X118880408Y-123224999D01*
X118870907Y-123177235D01*
X118860966Y-123127260D01*
X118819578Y-123065317D01*
X118819577Y-123065316D01*
X118816068Y-123060065D01*
X118809009Y-123049500D01*
X118805601Y-123044399D01*
X118790738Y-123034468D01*
X118779530Y-123025269D01*
X118471859Y-122717598D01*
X118450467Y-122671722D01*
X118450380Y-122659908D01*
X118450500Y-122658256D01*
X118450500Y-122191746D01*
X118450500Y-122191740D01*
X118440573Y-122123607D01*
X118389198Y-122018517D01*
X118306483Y-121935802D01*
X118306482Y-121935801D01*
X118265938Y-121915981D01*
X118230808Y-121879537D01*
X118227323Y-121829038D01*
X118257114Y-121788114D01*
X118298438Y-121775500D01*
X120400508Y-121775500D01*
X120448074Y-121792813D01*
G37*
%TD.AperFunction*%
%TA.AperFunction,Conductor*%
G36*
X119842945Y-115393506D02*
G01*
X119871979Y-115434970D01*
X119874500Y-115454123D01*
X119874500Y-115937665D01*
X119857187Y-115985231D01*
X119821125Y-116006051D01*
X119821863Y-116008438D01*
X119816377Y-116010132D01*
X119703788Y-116065174D01*
X119615173Y-116153789D01*
X119560134Y-116266373D01*
X119560134Y-116266374D01*
X119549500Y-116339359D01*
X119549500Y-116910640D01*
X119560134Y-116983625D01*
X119560134Y-116983626D01*
X119615173Y-117096210D01*
X119615174Y-117096211D01*
X119703789Y-117184826D01*
X119816375Y-117239866D01*
X119861170Y-117246392D01*
X119905741Y-117270380D01*
X119924467Y-117317408D01*
X119924500Y-117319618D01*
X119924500Y-117450575D01*
X119907187Y-117498141D01*
X119883001Y-117517056D01*
X119793516Y-117560802D01*
X119710801Y-117643517D01*
X119659427Y-117748605D01*
X119659427Y-117748606D01*
X119649500Y-117816735D01*
X119649500Y-118433264D01*
X119659427Y-118501393D01*
X119659427Y-118501394D01*
X119710801Y-118606482D01*
X119710802Y-118606483D01*
X119793517Y-118689198D01*
X119898607Y-118740573D01*
X119966740Y-118750500D01*
X119966746Y-118750500D01*
X120433254Y-118750500D01*
X120433260Y-118750500D01*
X120501393Y-118740573D01*
X120606483Y-118689198D01*
X120689198Y-118606483D01*
X120740573Y-118501393D01*
X120750500Y-118433260D01*
X120750500Y-117816740D01*
X120740573Y-117748607D01*
X120689198Y-117643517D01*
X120606483Y-117560802D01*
X120554612Y-117535444D01*
X120516999Y-117517056D01*
X120481870Y-117480611D01*
X120475500Y-117450575D01*
X120475500Y-117290031D01*
X120492813Y-117242465D01*
X120517000Y-117223550D01*
X120544048Y-117210327D01*
X120596211Y-117184826D01*
X120684826Y-117096211D01*
X120739866Y-116983625D01*
X120742750Y-116963830D01*
X120766741Y-116919257D01*
X120813770Y-116900533D01*
X120815977Y-116900500D01*
X120930727Y-116900500D01*
X120978293Y-116917813D01*
X121003603Y-116961650D01*
X121003954Y-116963830D01*
X121009427Y-117001393D01*
X121009427Y-117001394D01*
X121060801Y-117106482D01*
X121060802Y-117106483D01*
X121143517Y-117189198D01*
X121248607Y-117240573D01*
X121316740Y-117250500D01*
X121316746Y-117250500D01*
X121783254Y-117250500D01*
X121783260Y-117250500D01*
X121851393Y-117240573D01*
X121956483Y-117189198D01*
X122039198Y-117106483D01*
X122090573Y-117001393D01*
X122100500Y-116933260D01*
X122100500Y-116316740D01*
X122090573Y-116248607D01*
X122039198Y-116143517D01*
X121956483Y-116060802D01*
X121956481Y-116060800D01*
X121953104Y-116058389D01*
X121924452Y-116016660D01*
X121929326Y-115966276D01*
X121943776Y-115945839D01*
X121967443Y-115922173D01*
X122013320Y-115900781D01*
X122019768Y-115900500D01*
X122801562Y-115900500D01*
X122849128Y-115917813D01*
X122874438Y-115961650D01*
X122865648Y-116011500D01*
X122834062Y-116040981D01*
X122793517Y-116060801D01*
X122710801Y-116143517D01*
X122659427Y-116248605D01*
X122659427Y-116248606D01*
X122649500Y-116316735D01*
X122649500Y-116933264D01*
X122659427Y-117001393D01*
X122659427Y-117001394D01*
X122710801Y-117106482D01*
X122710802Y-117106483D01*
X122793517Y-117189198D01*
X122883000Y-117232943D01*
X122918130Y-117269387D01*
X122924500Y-117299424D01*
X122924500Y-117430381D01*
X122907187Y-117477947D01*
X122863350Y-117503257D01*
X122861180Y-117503606D01*
X122847125Y-117505654D01*
X122816374Y-117510134D01*
X122816373Y-117510134D01*
X122703789Y-117565173D01*
X122615173Y-117653789D01*
X122560134Y-117766373D01*
X122560134Y-117766374D01*
X122549500Y-117839359D01*
X122549500Y-118410640D01*
X122560134Y-118483625D01*
X122560134Y-118483626D01*
X122615173Y-118596210D01*
X122615174Y-118596211D01*
X122703789Y-118684826D01*
X122816375Y-118739866D01*
X122889364Y-118750500D01*
X122889370Y-118750500D01*
X123410630Y-118750500D01*
X123410636Y-118750500D01*
X123483625Y-118739866D01*
X123596211Y-118684826D01*
X123684826Y-118596211D01*
X123739866Y-118483625D01*
X123746392Y-118438830D01*
X123770382Y-118394258D01*
X123817410Y-118375533D01*
X123819619Y-118375500D01*
X124240588Y-118375500D01*
X124288154Y-118392813D01*
X124292914Y-118397174D01*
X126477826Y-120582086D01*
X126499218Y-120627962D01*
X126499500Y-120634412D01*
X126499500Y-121504455D01*
X126482187Y-121552021D01*
X126438350Y-121577331D01*
X126388500Y-121568541D01*
X126373174Y-121556781D01*
X125884930Y-121068537D01*
X125884915Y-121068523D01*
X125863341Y-121046949D01*
X125840094Y-121035103D01*
X125830197Y-121029038D01*
X125809089Y-121013703D01*
X125809088Y-121013702D01*
X125784277Y-121005641D01*
X125773549Y-121001198D01*
X125750302Y-120989353D01*
X125750296Y-120989351D01*
X125724533Y-120985270D01*
X125713249Y-120982562D01*
X125696409Y-120977091D01*
X125688433Y-120974500D01*
X125688432Y-120974500D01*
X123060537Y-120974500D01*
X123012971Y-120957187D01*
X122987661Y-120913350D01*
X122986557Y-120898792D01*
X122986567Y-120898343D01*
X122482799Y-120394575D01*
X122521357Y-120376007D01*
X122620798Y-120283740D01*
X122659127Y-120217351D01*
X123162103Y-120720327D01*
X123246940Y-120607989D01*
X123246940Y-120607988D01*
X123341935Y-120417212D01*
X123341938Y-120417202D01*
X123400263Y-120212211D01*
X123419927Y-120000003D01*
X123419927Y-119999996D01*
X123400263Y-119787788D01*
X123341938Y-119582797D01*
X123341935Y-119582787D01*
X123246940Y-119392011D01*
X123246936Y-119392005D01*
X123162104Y-119279670D01*
X122661988Y-119779786D01*
X122659113Y-119772459D01*
X122574535Y-119666401D01*
X122483730Y-119604491D01*
X122986567Y-119101655D01*
X122960999Y-119078348D01*
X122779799Y-118966155D01*
X122779789Y-118966150D01*
X122581064Y-118889163D01*
X122371566Y-118850000D01*
X122158433Y-118850000D01*
X121948935Y-118889163D01*
X121750210Y-118966150D01*
X121750200Y-118966155D01*
X121569001Y-119078348D01*
X121569000Y-119078348D01*
X121543432Y-119101656D01*
X122047200Y-119605424D01*
X122008643Y-119623993D01*
X121909202Y-119716260D01*
X121870872Y-119782648D01*
X121367894Y-119279670D01*
X121283063Y-119392005D01*
X121283059Y-119392011D01*
X121188064Y-119582787D01*
X121188061Y-119582797D01*
X121129736Y-119787788D01*
X121110073Y-119999996D01*
X121110073Y-120000003D01*
X121129736Y-120212211D01*
X121188061Y-120417202D01*
X121188064Y-120417212D01*
X121283059Y-120607988D01*
X121283063Y-120607994D01*
X121367894Y-120720328D01*
X121868010Y-120220212D01*
X121870887Y-120227541D01*
X121955465Y-120333599D01*
X122046267Y-120395507D01*
X121543431Y-120898343D01*
X121543442Y-120898790D01*
X121527233Y-120946743D01*
X121483993Y-120973059D01*
X121469462Y-120974500D01*
X120849500Y-120974500D01*
X120801934Y-120957187D01*
X120776624Y-120913350D01*
X120775500Y-120900500D01*
X120775500Y-119085180D01*
X120767337Y-119044145D01*
X120766767Y-119041278D01*
X120733504Y-118991496D01*
X120683722Y-118958233D01*
X120639820Y-118949500D01*
X120639819Y-118949500D01*
X119094768Y-118949500D01*
X119047202Y-118932187D01*
X119042442Y-118927826D01*
X118927229Y-118812613D01*
X118905837Y-118766737D01*
X118918938Y-118717842D01*
X118947056Y-118693806D01*
X118956483Y-118689198D01*
X119039198Y-118606483D01*
X119090573Y-118501393D01*
X119100500Y-118433260D01*
X119100500Y-117816740D01*
X119090573Y-117748607D01*
X119039198Y-117643517D01*
X118956483Y-117560802D01*
X118904612Y-117535444D01*
X118866999Y-117517056D01*
X118831870Y-117480611D01*
X118825500Y-117450575D01*
X118825500Y-117319618D01*
X118842813Y-117272052D01*
X118886650Y-117246742D01*
X118888763Y-117246401D01*
X118933625Y-117239866D01*
X119046211Y-117184826D01*
X119134826Y-117096211D01*
X119189866Y-116983625D01*
X119200500Y-116910636D01*
X119200500Y-116339364D01*
X119189866Y-116266375D01*
X119134826Y-116153789D01*
X119050152Y-116069115D01*
X119028760Y-116023239D01*
X119041861Y-115974344D01*
X119050152Y-115964463D01*
X119100203Y-115914412D01*
X119157972Y-115856642D01*
X119169176Y-115847447D01*
X119186124Y-115836124D01*
X119201910Y-115812500D01*
X119238528Y-115757696D01*
X119247015Y-115744995D01*
X119263000Y-115664633D01*
X119263000Y-115664632D01*
X119268397Y-115637500D01*
X119266507Y-115628000D01*
X119264422Y-115617515D01*
X119263000Y-115603079D01*
X119263000Y-115599499D01*
X119280313Y-115551933D01*
X119324150Y-115526623D01*
X119337000Y-115525499D01*
X119544863Y-115525499D01*
X119544864Y-115525499D01*
X119569991Y-115522585D01*
X119672765Y-115477206D01*
X119748174Y-115401797D01*
X119794050Y-115380405D01*
X119842945Y-115393506D01*
G37*
%TD.AperFunction*%
%TA.AperFunction,Conductor*%
G36*
X122663154Y-110017813D02*
G01*
X122667914Y-110022174D01*
X126175267Y-113529527D01*
X126184466Y-113540735D01*
X126194399Y-113555601D01*
X126194400Y-113555601D01*
X126194401Y-113555603D01*
X126219149Y-113572138D01*
X126238050Y-113584767D01*
X126277259Y-113610966D01*
X126375000Y-113630408D01*
X126392525Y-113626921D01*
X126406962Y-113625500D01*
X128657153Y-113625500D01*
X128704719Y-113642813D01*
X128730029Y-113686650D01*
X128729120Y-113713716D01*
X128729302Y-113713739D01*
X128729049Y-113715816D01*
X128729003Y-113717209D01*
X128728761Y-113718187D01*
X128709722Y-113874996D01*
X128709722Y-113875003D01*
X128728762Y-114031815D01*
X128746211Y-114077826D01*
X128746889Y-114128441D01*
X128729345Y-114156392D01*
X127845472Y-115040266D01*
X127834262Y-115049466D01*
X127819400Y-115059397D01*
X127783942Y-115112463D01*
X127764036Y-115142254D01*
X127764034Y-115142259D01*
X127744592Y-115240000D01*
X127748078Y-115257525D01*
X127749500Y-115271962D01*
X127749500Y-116010457D01*
X127732187Y-116058023D01*
X127688350Y-116083333D01*
X127643001Y-116076939D01*
X127618934Y-116065174D01*
X127608625Y-116060134D01*
X127535640Y-116049500D01*
X127535636Y-116049500D01*
X126964364Y-116049500D01*
X126964359Y-116049500D01*
X126891374Y-116060134D01*
X126891373Y-116060134D01*
X126778789Y-116115173D01*
X126715898Y-116178064D01*
X126670021Y-116199456D01*
X126621127Y-116186355D01*
X126611246Y-116178064D01*
X126324124Y-115890942D01*
X126302732Y-115845066D01*
X126303083Y-115828956D01*
X126303423Y-115826374D01*
X126305250Y-115812500D01*
X126286330Y-115668791D01*
X126230861Y-115534875D01*
X126142621Y-115419879D01*
X126142619Y-115419877D01*
X126142618Y-115419876D01*
X126129450Y-115409772D01*
X126102254Y-115367080D01*
X126100500Y-115351065D01*
X126100500Y-114419025D01*
X126102075Y-114403839D01*
X126105043Y-114389685D01*
X126100784Y-114355518D01*
X126100500Y-114350938D01*
X126100500Y-114345966D01*
X126100500Y-114345960D01*
X126096912Y-114324459D01*
X126090573Y-114273607D01*
X126090568Y-114273598D01*
X126088823Y-114267733D01*
X126089168Y-114267630D01*
X126088422Y-114265300D01*
X126088082Y-114265417D01*
X126086092Y-114259619D01*
X126061704Y-114214555D01*
X126039198Y-114168516D01*
X126039193Y-114168511D01*
X126035632Y-114163522D01*
X126035923Y-114163313D01*
X126034465Y-114161358D01*
X126034183Y-114161579D01*
X126030418Y-114156742D01*
X126030038Y-114156392D01*
X125992724Y-114122042D01*
X125003970Y-113133288D01*
X124994345Y-113121436D01*
X124986437Y-113109331D01*
X124959269Y-113088186D01*
X124955838Y-113085156D01*
X124952307Y-113081625D01*
X124934561Y-113068955D01*
X124894126Y-113037483D01*
X124888736Y-113034566D01*
X124888905Y-113034252D01*
X124886730Y-113033132D01*
X124886574Y-113033453D01*
X124881062Y-113030758D01*
X124831954Y-113016138D01*
X124783489Y-112999499D01*
X124777443Y-112998491D01*
X124777501Y-112998138D01*
X124775083Y-112997786D01*
X124775039Y-112998142D01*
X124768955Y-112997383D01*
X124768954Y-112997383D01*
X124768952Y-112997383D01*
X124717769Y-112999500D01*
X123652809Y-112999500D01*
X123605243Y-112982187D01*
X123586328Y-112958000D01*
X123559826Y-112903789D01*
X123471211Y-112815174D01*
X123391999Y-112776449D01*
X123356870Y-112740004D01*
X123350500Y-112709968D01*
X123350500Y-112189311D01*
X123352075Y-112174125D01*
X123352814Y-112170600D01*
X123355042Y-112159976D01*
X123350783Y-112125814D01*
X123350500Y-112121236D01*
X123350500Y-112116255D01*
X123350499Y-112116244D01*
X123346910Y-112094740D01*
X123346342Y-112090180D01*
X123340573Y-112043898D01*
X123340571Y-112043895D01*
X123338822Y-112038016D01*
X123339166Y-112037913D01*
X123338422Y-112035591D01*
X123338082Y-112035708D01*
X123336092Y-112029910D01*
X123311704Y-111984846D01*
X123289198Y-111938807D01*
X123289193Y-111938802D01*
X123285632Y-111933813D01*
X123285923Y-111933604D01*
X123284465Y-111931649D01*
X123284183Y-111931870D01*
X123280418Y-111927033D01*
X123259649Y-111907914D01*
X123242724Y-111892333D01*
X121852217Y-110501826D01*
X121830825Y-110455949D01*
X121843926Y-110407055D01*
X121885390Y-110378021D01*
X121904543Y-110375500D01*
X122058254Y-110375500D01*
X122058260Y-110375500D01*
X122126393Y-110365573D01*
X122231483Y-110314198D01*
X122314198Y-110231483D01*
X122365573Y-110126393D01*
X122374688Y-110063830D01*
X122398678Y-110019258D01*
X122445706Y-110000533D01*
X122447915Y-110000500D01*
X122615588Y-110000500D01*
X122663154Y-110017813D01*
G37*
%TD.AperFunction*%
%TA.AperFunction,Conductor*%
G36*
X131288154Y-110642813D02*
G01*
X131292914Y-110647174D01*
X131589127Y-110943387D01*
X131610519Y-110989263D01*
X131610801Y-110995713D01*
X131610801Y-115781830D01*
X131593488Y-115829396D01*
X131549651Y-115854706D01*
X131499801Y-115845916D01*
X131489235Y-115838517D01*
X131428618Y-115787653D01*
X131272810Y-115709403D01*
X131272072Y-115709135D01*
X131271768Y-115708880D01*
X131268964Y-115707472D01*
X131269297Y-115706807D01*
X131233297Y-115676596D01*
X131224509Y-115626746D01*
X131234727Y-115600228D01*
X131315002Y-115472472D01*
X131315004Y-115472467D01*
X131370820Y-115312955D01*
X131370822Y-115312947D01*
X131375661Y-115270000D01*
X130935362Y-115270000D01*
X130960000Y-115202306D01*
X130960000Y-115087694D01*
X130935362Y-115020000D01*
X131375661Y-115020000D01*
X131370822Y-114977052D01*
X131370820Y-114977044D01*
X131315004Y-114817532D01*
X131315002Y-114817527D01*
X131225084Y-114674425D01*
X131105574Y-114554915D01*
X131038803Y-114512960D01*
X131007739Y-114472995D01*
X131009632Y-114422411D01*
X131029104Y-114394913D01*
X131035005Y-114389686D01*
X131090483Y-114340536D01*
X131125481Y-114309532D01*
X131125481Y-114309531D01*
X131125483Y-114309530D01*
X131215220Y-114179523D01*
X131219395Y-114168516D01*
X131237020Y-114122042D01*
X131271237Y-114031818D01*
X131290278Y-113875000D01*
X131284946Y-113831090D01*
X131271238Y-113718191D01*
X131271237Y-113718182D01*
X131258220Y-113683858D01*
X131215221Y-113570478D01*
X131125483Y-113440470D01*
X131074147Y-113394991D01*
X131007240Y-113335717D01*
X130949709Y-113305522D01*
X130915639Y-113268089D01*
X130913601Y-113217511D01*
X130944551Y-113177456D01*
X130949693Y-113174486D01*
X131007240Y-113144283D01*
X131125483Y-113039530D01*
X131215220Y-112909523D01*
X131219673Y-112897783D01*
X131247465Y-112824499D01*
X131271237Y-112761818D01*
X131285282Y-112646146D01*
X131290278Y-112605003D01*
X131290278Y-112604996D01*
X131271238Y-112448191D01*
X131271237Y-112448182D01*
X131234426Y-112351119D01*
X131215221Y-112300478D01*
X131125483Y-112170470D01*
X131085889Y-112135393D01*
X131007240Y-112065717D01*
X130954265Y-112037913D01*
X130867366Y-111992304D01*
X130713987Y-111954500D01*
X130713985Y-111954500D01*
X130612416Y-111954500D01*
X130564850Y-111937187D01*
X130539540Y-111893350D01*
X130548330Y-111843500D01*
X130558590Y-111829718D01*
X130602296Y-111783393D01*
X130689467Y-111632407D01*
X130739469Y-111465388D01*
X130749607Y-111291340D01*
X130719332Y-111119646D01*
X130650279Y-110959562D01*
X130546168Y-110819717D01*
X130546165Y-110819715D01*
X130546165Y-110819714D01*
X130470457Y-110756187D01*
X130445148Y-110712349D01*
X130453938Y-110662499D01*
X130492715Y-110629963D01*
X130518024Y-110625500D01*
X131240588Y-110625500D01*
X131288154Y-110642813D01*
G37*
%TD.AperFunction*%
%TA.AperFunction,Conductor*%
G36*
X123250266Y-100017813D02*
G01*
X123275576Y-100061650D01*
X123266786Y-100111500D01*
X123235200Y-100140981D01*
X123143517Y-100185801D01*
X123060801Y-100268517D01*
X123009427Y-100373605D01*
X123009427Y-100373606D01*
X123009427Y-100373607D01*
X123002872Y-100418601D01*
X123000312Y-100436169D01*
X122976322Y-100480742D01*
X122929294Y-100499467D01*
X122927085Y-100499500D01*
X122781967Y-100499500D01*
X122767530Y-100498078D01*
X122750001Y-100494591D01*
X122750000Y-100494591D01*
X122742239Y-100496134D01*
X122721699Y-100500220D01*
X122671669Y-100492518D01*
X122654938Y-100479967D01*
X122572765Y-100397794D01*
X122517982Y-100373605D01*
X122469991Y-100352415D01*
X122469990Y-100352414D01*
X122469988Y-100352414D01*
X122448659Y-100349940D01*
X122444865Y-100349500D01*
X122444864Y-100349500D01*
X121330136Y-100349500D01*
X121305013Y-100352414D01*
X121305007Y-100352415D01*
X121202234Y-100397794D01*
X121122794Y-100477234D01*
X121077414Y-100580011D01*
X121074500Y-100605135D01*
X121074500Y-100994863D01*
X121077414Y-101019986D01*
X121077415Y-101019992D01*
X121122794Y-101122765D01*
X121203326Y-101203297D01*
X121224718Y-101249173D01*
X121225000Y-101255623D01*
X121225000Y-101450000D01*
X121301000Y-101450000D01*
X121348566Y-101467313D01*
X121373876Y-101511150D01*
X121375000Y-101524000D01*
X121375000Y-101976000D01*
X121357687Y-102023566D01*
X121313850Y-102048876D01*
X121301000Y-102050000D01*
X121225000Y-102050000D01*
X121225000Y-102244377D01*
X121207687Y-102291943D01*
X121203326Y-102296703D01*
X121122794Y-102377234D01*
X121077414Y-102480011D01*
X121074500Y-102505135D01*
X121074500Y-102894863D01*
X121077414Y-102919986D01*
X121077415Y-102919991D01*
X121122794Y-103022765D01*
X121202235Y-103102206D01*
X121305009Y-103147585D01*
X121305015Y-103147585D01*
X121305918Y-103147832D01*
X121306500Y-103148243D01*
X121310101Y-103149833D01*
X121309780Y-103150558D01*
X121347272Y-103177024D01*
X121360186Y-103225968D01*
X121338819Y-103271563D01*
X120913221Y-103697161D01*
X120867345Y-103718553D01*
X120818450Y-103705452D01*
X120769523Y-103671193D01*
X120769522Y-103671192D01*
X120769520Y-103671191D01*
X120769518Y-103671190D01*
X120769516Y-103671189D01*
X120721953Y-103653877D01*
X120668772Y-103644500D01*
X120668769Y-103644500D01*
X120578743Y-103644500D01*
X120533311Y-103628912D01*
X120527507Y-103624398D01*
X120499171Y-103602358D01*
X120459068Y-103571166D01*
X120432151Y-103528296D01*
X120430500Y-103512754D01*
X120430500Y-102657029D01*
X120430124Y-102649387D01*
X120430124Y-102649388D01*
X120427955Y-102627358D01*
X120427955Y-102627359D01*
X120427954Y-102627358D01*
X120427283Y-102622830D01*
X120426835Y-102619810D01*
X120426834Y-102619808D01*
X120426834Y-102619801D01*
X120426918Y-102620225D01*
X120425499Y-102605804D01*
X120425499Y-102505136D01*
X120422585Y-102480013D01*
X120422585Y-102480011D01*
X120422585Y-102480009D01*
X120377206Y-102377235D01*
X120297765Y-102297794D01*
X120286215Y-102292694D01*
X120249696Y-102257645D01*
X120244249Y-102207320D01*
X120272425Y-102165267D01*
X120286213Y-102157306D01*
X120297765Y-102152206D01*
X120377206Y-102072765D01*
X120422585Y-101969991D01*
X120425500Y-101944865D01*
X120425499Y-101555136D01*
X120422585Y-101530009D01*
X120377206Y-101427235D01*
X120297765Y-101347794D01*
X120286215Y-101342694D01*
X120249696Y-101307645D01*
X120244249Y-101257320D01*
X120272425Y-101215267D01*
X120286213Y-101207306D01*
X120297765Y-101202206D01*
X120377206Y-101122765D01*
X120422585Y-101019991D01*
X120425500Y-100994865D01*
X120425499Y-100605136D01*
X120422585Y-100580009D01*
X120377206Y-100477235D01*
X120297765Y-100397794D01*
X120194991Y-100352415D01*
X120194990Y-100352414D01*
X120194988Y-100352414D01*
X120173659Y-100349940D01*
X120169865Y-100349500D01*
X120169864Y-100349500D01*
X119055136Y-100349500D01*
X119030013Y-100352414D01*
X119030007Y-100352415D01*
X118927234Y-100397794D01*
X118847791Y-100477237D01*
X118843919Y-100482891D01*
X118841227Y-100481047D01*
X118815205Y-100508146D01*
X118764878Y-100513577D01*
X118737042Y-100497879D01*
X118736662Y-100498449D01*
X118677536Y-100458942D01*
X118647741Y-100439034D01*
X118545020Y-100418601D01*
X118501745Y-100392341D01*
X118492976Y-100378523D01*
X118490572Y-100373606D01*
X118439198Y-100268517D01*
X118356483Y-100185802D01*
X118356482Y-100185801D01*
X118264800Y-100140981D01*
X118229670Y-100104537D01*
X118226185Y-100054038D01*
X118255976Y-100013113D01*
X118297300Y-100000500D01*
X123202700Y-100000500D01*
X123250266Y-100017813D01*
G37*
%TD.AperFunction*%
%TA.AperFunction,Conductor*%
G36*
X117500266Y-100017813D02*
G01*
X117525576Y-100061650D01*
X117516786Y-100111500D01*
X117485200Y-100140981D01*
X117393517Y-100185801D01*
X117310801Y-100268517D01*
X117259427Y-100373605D01*
X117259427Y-100373606D01*
X117249500Y-100441735D01*
X117249500Y-100908264D01*
X117259427Y-100976393D01*
X117259427Y-100976394D01*
X117310801Y-101081482D01*
X117393517Y-101164198D01*
X117399408Y-101167078D01*
X117434538Y-101203522D01*
X117438023Y-101254021D01*
X117408232Y-101294945D01*
X117379360Y-101306504D01*
X117372991Y-101307591D01*
X117366260Y-101308740D01*
X117340846Y-101315325D01*
X117317357Y-101323583D01*
X117317359Y-101323582D01*
X117293421Y-101334347D01*
X117263482Y-101350977D01*
X117233545Y-101367607D01*
X117232745Y-101368097D01*
X117227941Y-101371038D01*
X117212118Y-101381668D01*
X117206821Y-101385561D01*
X115099346Y-103076172D01*
X115099336Y-103076181D01*
X115092879Y-103081983D01*
X115092878Y-103081984D01*
X115075101Y-103099851D01*
X115075102Y-103099850D01*
X115069323Y-103106346D01*
X115069323Y-103106347D01*
X115013278Y-103176938D01*
X115013278Y-103176939D01*
X114994872Y-103206349D01*
X114994861Y-103206369D01*
X114980675Y-103235933D01*
X114980673Y-103235939D01*
X114969242Y-103268721D01*
X114956487Y-103324790D01*
X114949251Y-103356600D01*
X114947798Y-103365180D01*
X114947796Y-103365193D01*
X114947775Y-103365341D01*
X114923990Y-103410024D01*
X114877048Y-103428964D01*
X114828914Y-103413300D01*
X114802110Y-103370360D01*
X114800500Y-103355008D01*
X114800500Y-100074500D01*
X114817813Y-100026934D01*
X114861650Y-100001624D01*
X114874500Y-100000500D01*
X117452700Y-100000500D01*
X117500266Y-100017813D01*
G37*
%TD.AperFunction*%
%TD*%
%TA.AperFunction,Conductor*%
%TO.N,/Input/Vin*%
G36*
X111875327Y-105877761D02*
G01*
X111939059Y-105891443D01*
X111986524Y-105912810D01*
X112039014Y-105951440D01*
X112058339Y-105969092D01*
X112750000Y-106750000D01*
X113068829Y-107109969D01*
X113294436Y-107364686D01*
X113324150Y-107427922D01*
X113325067Y-107435310D01*
X113326115Y-107446480D01*
X113327354Y-107459698D01*
X113327354Y-107459699D01*
X113372206Y-107587881D01*
X113372207Y-107587882D01*
X113452850Y-107697150D01*
X113562118Y-107777793D01*
X113690302Y-107822646D01*
X113690301Y-107822646D01*
X113694271Y-107823018D01*
X113720735Y-107825500D01*
X114754264Y-107825499D01*
X114784698Y-107822646D01*
X114912882Y-107777793D01*
X115022150Y-107697150D01*
X115102793Y-107587882D01*
X115147646Y-107459698D01*
X115147646Y-107459696D01*
X115149221Y-107452487D01*
X115182754Y-107391190D01*
X115199923Y-107376893D01*
X115202927Y-107374818D01*
X115202930Y-107374818D01*
X115234985Y-107352690D01*
X115241374Y-107348828D01*
X115275852Y-107330734D01*
X115305002Y-107304908D01*
X115310871Y-107300310D01*
X115342929Y-107278183D01*
X115368748Y-107249037D01*
X115374037Y-107243748D01*
X115403183Y-107217929D01*
X115425310Y-107185871D01*
X115429908Y-107180002D01*
X115455734Y-107150852D01*
X115473825Y-107116379D01*
X115477693Y-107109981D01*
X115499818Y-107077930D01*
X115513630Y-107041507D01*
X115516691Y-107034707D01*
X115534790Y-107000225D01*
X115544106Y-106962427D01*
X115546335Y-106955271D01*
X115560140Y-106918872D01*
X115564834Y-106880206D01*
X115566177Y-106872875D01*
X115575500Y-106835056D01*
X115575500Y-106832332D01*
X115576064Y-106830409D01*
X115576404Y-106827613D01*
X115576869Y-106827669D01*
X115595185Y-106765293D01*
X115600287Y-106757950D01*
X115691342Y-106636542D01*
X115711077Y-106615755D01*
X115765726Y-106570146D01*
X115816685Y-106544667D01*
X115860709Y-106534275D01*
X115885950Y-106528317D01*
X115914438Y-106525000D01*
X116437789Y-106525000D01*
X116461972Y-106527381D01*
X116511915Y-106537315D01*
X116556607Y-106555826D01*
X116588593Y-106577199D01*
X116622800Y-106611406D01*
X116639600Y-106636548D01*
X116644171Y-106643389D01*
X116662685Y-106688088D01*
X116672617Y-106738019D01*
X116675000Y-106762210D01*
X116675000Y-107475000D01*
X116682678Y-107602969D01*
X116688329Y-107697149D01*
X116749550Y-108717514D01*
X116749888Y-108725000D01*
X116750000Y-108732497D01*
X116750000Y-110262789D01*
X116747617Y-110286982D01*
X116735781Y-110346482D01*
X116717267Y-110391179D01*
X116690481Y-110431268D01*
X116656269Y-110465479D01*
X116631747Y-110481865D01*
X116616179Y-110492267D01*
X116571482Y-110510781D01*
X116537857Y-110517469D01*
X116511978Y-110522617D01*
X116487789Y-110525000D01*
X114385725Y-110525000D01*
X114357890Y-110521835D01*
X114290090Y-110506217D01*
X114240034Y-110481865D01*
X114185898Y-110438161D01*
X114166230Y-110418217D01*
X112944262Y-108860543D01*
X112924782Y-108824960D01*
X112902794Y-108762120D01*
X112902793Y-108762118D01*
X112880932Y-108732497D01*
X112822150Y-108652850D01*
X112738739Y-108591290D01*
X112714812Y-108568057D01*
X112674010Y-108516046D01*
X112050071Y-107720694D01*
X112050069Y-107720692D01*
X111975000Y-107625000D01*
X111853373Y-107625000D01*
X111853372Y-107625000D01*
X111524711Y-107625000D01*
X111500520Y-107622617D01*
X111485689Y-107619667D01*
X111441018Y-107610781D01*
X111396322Y-107592267D01*
X111356227Y-107565477D01*
X111322022Y-107531272D01*
X111295230Y-107491175D01*
X111276718Y-107446480D01*
X111264883Y-107386980D01*
X111262500Y-107362789D01*
X111262500Y-106137210D01*
X111264883Y-106113019D01*
X111276718Y-106053519D01*
X111295229Y-106008826D01*
X111322024Y-105968724D01*
X111356224Y-105934524D01*
X111396326Y-105907729D01*
X111441014Y-105889219D01*
X111500528Y-105877381D01*
X111524711Y-105875000D01*
X111849308Y-105875000D01*
X111875327Y-105877761D01*
G37*
%TD.AperFunction*%
%TD*%
M02*
