%TF.GenerationSoftware,KiCad,Pcbnew,7.0.8*%
%TF.CreationDate,2023-12-17T14:45:35+01:00*%
%TF.ProjectId,night_light,6e696768-745f-46c6-9967-68742e6b6963,rev?*%
%TF.SameCoordinates,Original*%
%TF.FileFunction,Legend,Bot*%
%TF.FilePolarity,Positive*%
%FSLAX46Y46*%
G04 Gerber Fmt 4.6, Leading zero omitted, Abs format (unit mm)*
G04 Created by KiCad (PCBNEW 7.0.8) date 2023-12-17 14:45:35*
%MOMM*%
%LPD*%
G01*
G04 APERTURE LIST*
G04 Aperture macros list*
%AMRoundRect*
0 Rectangle with rounded corners*
0 $1 Rounding radius*
0 $2 $3 $4 $5 $6 $7 $8 $9 X,Y pos of 4 corners*
0 Add a 4 corners polygon primitive as box body*
4,1,4,$2,$3,$4,$5,$6,$7,$8,$9,$2,$3,0*
0 Add four circle primitives for the rounded corners*
1,1,$1+$1,$2,$3*
1,1,$1+$1,$4,$5*
1,1,$1+$1,$6,$7*
1,1,$1+$1,$8,$9*
0 Add four rect primitives between the rounded corners*
20,1,$1+$1,$2,$3,$4,$5,0*
20,1,$1+$1,$4,$5,$6,$7,0*
20,1,$1+$1,$6,$7,$8,$9,0*
20,1,$1+$1,$8,$9,$2,$3,0*%
G04 Aperture macros list end*
%ADD10C,0.150000*%
%ADD11C,0.120000*%
%ADD12RoundRect,0.250000X1.550000X-0.650000X1.550000X0.650000X-1.550000X0.650000X-1.550000X-0.650000X0*%
%ADD13O,3.600000X1.800000*%
%ADD14C,2.100000*%
%ADD15RoundRect,0.250000X-0.625000X0.350000X-0.625000X-0.350000X0.625000X-0.350000X0.625000X0.350000X0*%
%ADD16O,1.750000X1.200000*%
%ADD17C,0.990600*%
%ADD18R,1.000000X1.000000*%
%ADD19O,1.000000X1.000000*%
%ADD20C,1.000000*%
%ADD21R,2.500000X2.200000*%
%ADD22R,1.550000X2.200000*%
%ADD23R,1.800000X1.800000*%
%ADD24C,1.800000*%
%ADD25O,1.600000X1.200000*%
%ADD26O,1.200000X1.200000*%
%ADD27RoundRect,0.237500X-0.287500X-0.237500X0.287500X-0.237500X0.287500X0.237500X-0.287500X0.237500X0*%
G04 APERTURE END LIST*
D10*
X127000000Y-109000000D02*
G75*
G03*
X127000000Y-109000000I-6000000J0D01*
G01*
X126750000Y-131000000D02*
G75*
G03*
X126750000Y-131000000I-5750000J0D01*
G01*
X117079819Y-136861904D02*
X117079819Y-136385714D01*
X117079819Y-136385714D02*
X116079819Y-136385714D01*
X116556009Y-137195238D02*
X116556009Y-137528571D01*
X117079819Y-137671428D02*
X117079819Y-137195238D01*
X117079819Y-137195238D02*
X116079819Y-137195238D01*
X116079819Y-137195238D02*
X116079819Y-137671428D01*
X117079819Y-138100000D02*
X116079819Y-138100000D01*
X116079819Y-138100000D02*
X116079819Y-138338095D01*
X116079819Y-138338095D02*
X116127438Y-138480952D01*
X116127438Y-138480952D02*
X116222676Y-138576190D01*
X116222676Y-138576190D02*
X116317914Y-138623809D01*
X116317914Y-138623809D02*
X116508390Y-138671428D01*
X116508390Y-138671428D02*
X116651247Y-138671428D01*
X116651247Y-138671428D02*
X116841723Y-138623809D01*
X116841723Y-138623809D02*
X116936961Y-138576190D01*
X116936961Y-138576190D02*
X117032200Y-138480952D01*
X117032200Y-138480952D02*
X117079819Y-138338095D01*
X117079819Y-138338095D02*
X117079819Y-138100000D01*
X116885533Y-139052381D02*
X116885533Y-139661905D01*
X117190295Y-139357143D02*
X116580771Y-139357143D01*
X126329819Y-136861904D02*
X126329819Y-136385714D01*
X126329819Y-136385714D02*
X125329819Y-136385714D01*
X125806009Y-137195238D02*
X125806009Y-137528571D01*
X126329819Y-137671428D02*
X126329819Y-137195238D01*
X126329819Y-137195238D02*
X125329819Y-137195238D01*
X125329819Y-137195238D02*
X125329819Y-137671428D01*
X126329819Y-138100000D02*
X125329819Y-138100000D01*
X125329819Y-138100000D02*
X125329819Y-138338095D01*
X125329819Y-138338095D02*
X125377438Y-138480952D01*
X125377438Y-138480952D02*
X125472676Y-138576190D01*
X125472676Y-138576190D02*
X125567914Y-138623809D01*
X125567914Y-138623809D02*
X125758390Y-138671428D01*
X125758390Y-138671428D02*
X125901247Y-138671428D01*
X125901247Y-138671428D02*
X126091723Y-138623809D01*
X126091723Y-138623809D02*
X126186961Y-138576190D01*
X126186961Y-138576190D02*
X126282200Y-138480952D01*
X126282200Y-138480952D02*
X126329819Y-138338095D01*
X126329819Y-138338095D02*
X126329819Y-138100000D01*
X126135533Y-139052381D02*
X126135533Y-139661905D01*
X125910713Y-117629819D02*
X125910713Y-116629819D01*
X125910713Y-116629819D02*
X125529761Y-116629819D01*
X125529761Y-116629819D02*
X125434523Y-116677438D01*
X125434523Y-116677438D02*
X125386904Y-116725057D01*
X125386904Y-116725057D02*
X125339285Y-116820295D01*
X125339285Y-116820295D02*
X125339285Y-116963152D01*
X125339285Y-116963152D02*
X125386904Y-117058390D01*
X125386904Y-117058390D02*
X125434523Y-117106009D01*
X125434523Y-117106009D02*
X125529761Y-117153628D01*
X125529761Y-117153628D02*
X125910713Y-117153628D01*
X125053570Y-116629819D02*
X124482142Y-116629819D01*
X124767856Y-117629819D02*
X124767856Y-116629819D01*
X124044046Y-116940295D02*
X123891665Y-116940295D01*
X123891665Y-116940295D02*
X123815475Y-116978390D01*
X123815475Y-116978390D02*
X123739284Y-117054580D01*
X123739284Y-117054580D02*
X123701189Y-117206961D01*
X123701189Y-117206961D02*
X123701189Y-117473628D01*
X123701189Y-117473628D02*
X123739284Y-117626009D01*
X123739284Y-117626009D02*
X123815475Y-117702200D01*
X123815475Y-117702200D02*
X123891665Y-117740295D01*
X123891665Y-117740295D02*
X124044046Y-117740295D01*
X124044046Y-117740295D02*
X124120237Y-117702200D01*
X124120237Y-117702200D02*
X124196427Y-117626009D01*
X124196427Y-117626009D02*
X124234523Y-117473628D01*
X124234523Y-117473628D02*
X124234523Y-117206961D01*
X124234523Y-117206961D02*
X124196427Y-117054580D01*
X124196427Y-117054580D02*
X124120237Y-116978390D01*
X124120237Y-116978390D02*
X124044046Y-116940295D01*
X123358332Y-116940295D02*
X123358332Y-117587914D01*
X123358332Y-117587914D02*
X123320237Y-117664104D01*
X123320237Y-117664104D02*
X123282142Y-117702200D01*
X123282142Y-117702200D02*
X123205951Y-117740295D01*
X123205951Y-117740295D02*
X123053570Y-117740295D01*
X123053570Y-117740295D02*
X122977380Y-117702200D01*
X122977380Y-117702200D02*
X122939285Y-117664104D01*
X122939285Y-117664104D02*
X122901189Y-117587914D01*
X122901189Y-117587914D02*
X122901189Y-116940295D01*
X122634523Y-116940295D02*
X122177380Y-116940295D01*
X122405952Y-117740295D02*
X122405952Y-116940295D01*
X111454819Y-105807143D02*
X112454819Y-106140476D01*
X112454819Y-106140476D02*
X111454819Y-106473809D01*
X112565295Y-106759524D02*
X111765295Y-106759524D01*
X112565295Y-107140476D02*
X111765295Y-107140476D01*
X111765295Y-107140476D02*
X112565295Y-107597619D01*
X112565295Y-107597619D02*
X111765295Y-107597619D01*
X124454819Y-100754762D02*
X125454819Y-101088095D01*
X125454819Y-101088095D02*
X124454819Y-101421428D01*
X125565295Y-102164286D02*
X125184342Y-101897619D01*
X125565295Y-101707143D02*
X124765295Y-101707143D01*
X124765295Y-101707143D02*
X124765295Y-102011905D01*
X124765295Y-102011905D02*
X124803390Y-102088095D01*
X124803390Y-102088095D02*
X124841485Y-102126190D01*
X124841485Y-102126190D02*
X124917676Y-102164286D01*
X124917676Y-102164286D02*
X125031961Y-102164286D01*
X125031961Y-102164286D02*
X125108152Y-102126190D01*
X125108152Y-102126190D02*
X125146247Y-102088095D01*
X125146247Y-102088095D02*
X125184342Y-102011905D01*
X125184342Y-102011905D02*
X125184342Y-101707143D01*
X125146247Y-102507143D02*
X125146247Y-102773809D01*
X125565295Y-102888095D02*
X125565295Y-102507143D01*
X125565295Y-102507143D02*
X124765295Y-102507143D01*
X124765295Y-102507143D02*
X124765295Y-102888095D01*
X124803390Y-103650000D02*
X124765295Y-103573810D01*
X124765295Y-103573810D02*
X124765295Y-103459524D01*
X124765295Y-103459524D02*
X124803390Y-103345238D01*
X124803390Y-103345238D02*
X124879580Y-103269048D01*
X124879580Y-103269048D02*
X124955771Y-103230953D01*
X124955771Y-103230953D02*
X125108152Y-103192857D01*
X125108152Y-103192857D02*
X125222438Y-103192857D01*
X125222438Y-103192857D02*
X125374819Y-103230953D01*
X125374819Y-103230953D02*
X125451009Y-103269048D01*
X125451009Y-103269048D02*
X125527200Y-103345238D01*
X125527200Y-103345238D02*
X125565295Y-103459524D01*
X125565295Y-103459524D02*
X125565295Y-103535715D01*
X125565295Y-103535715D02*
X125527200Y-103650000D01*
X125527200Y-103650000D02*
X125489104Y-103688096D01*
X125489104Y-103688096D02*
X125222438Y-103688096D01*
X125222438Y-103688096D02*
X125222438Y-103535715D01*
X112954819Y-105692857D02*
X113954819Y-106026190D01*
X113954819Y-106026190D02*
X112954819Y-106359523D01*
X113646247Y-106911904D02*
X113646247Y-106645238D01*
X114065295Y-106645238D02*
X113265295Y-106645238D01*
X113265295Y-106645238D02*
X113265295Y-107026190D01*
X114027200Y-107292856D02*
X114065295Y-107407142D01*
X114065295Y-107407142D02*
X114065295Y-107597618D01*
X114065295Y-107597618D02*
X114027200Y-107673809D01*
X114027200Y-107673809D02*
X113989104Y-107711904D01*
X113989104Y-107711904D02*
X113912914Y-107749999D01*
X113912914Y-107749999D02*
X113836723Y-107749999D01*
X113836723Y-107749999D02*
X113760533Y-107711904D01*
X113760533Y-107711904D02*
X113722438Y-107673809D01*
X113722438Y-107673809D02*
X113684342Y-107597618D01*
X113684342Y-107597618D02*
X113646247Y-107445237D01*
X113646247Y-107445237D02*
X113608152Y-107369047D01*
X113608152Y-107369047D02*
X113570057Y-107330952D01*
X113570057Y-107330952D02*
X113493866Y-107292856D01*
X113493866Y-107292856D02*
X113417676Y-107292856D01*
X113417676Y-107292856D02*
X113341485Y-107330952D01*
X113341485Y-107330952D02*
X113303390Y-107369047D01*
X113303390Y-107369047D02*
X113265295Y-107445237D01*
X113265295Y-107445237D02*
X113265295Y-107635714D01*
X113265295Y-107635714D02*
X113303390Y-107749999D01*
X126883332Y-122704819D02*
X126549999Y-123704819D01*
X126549999Y-123704819D02*
X126216666Y-122704819D01*
X125473808Y-123739104D02*
X125511904Y-123777200D01*
X125511904Y-123777200D02*
X125626189Y-123815295D01*
X125626189Y-123815295D02*
X125702380Y-123815295D01*
X125702380Y-123815295D02*
X125816666Y-123777200D01*
X125816666Y-123777200D02*
X125892856Y-123701009D01*
X125892856Y-123701009D02*
X125930951Y-123624819D01*
X125930951Y-123624819D02*
X125969047Y-123472438D01*
X125969047Y-123472438D02*
X125969047Y-123358152D01*
X125969047Y-123358152D02*
X125930951Y-123205771D01*
X125930951Y-123205771D02*
X125892856Y-123129580D01*
X125892856Y-123129580D02*
X125816666Y-123053390D01*
X125816666Y-123053390D02*
X125702380Y-123015295D01*
X125702380Y-123015295D02*
X125626189Y-123015295D01*
X125626189Y-123015295D02*
X125511904Y-123053390D01*
X125511904Y-123053390D02*
X125473808Y-123091485D01*
X124673808Y-123739104D02*
X124711904Y-123777200D01*
X124711904Y-123777200D02*
X124826189Y-123815295D01*
X124826189Y-123815295D02*
X124902380Y-123815295D01*
X124902380Y-123815295D02*
X125016666Y-123777200D01*
X125016666Y-123777200D02*
X125092856Y-123701009D01*
X125092856Y-123701009D02*
X125130951Y-123624819D01*
X125130951Y-123624819D02*
X125169047Y-123472438D01*
X125169047Y-123472438D02*
X125169047Y-123358152D01*
X125169047Y-123358152D02*
X125130951Y-123205771D01*
X125130951Y-123205771D02*
X125092856Y-123129580D01*
X125092856Y-123129580D02*
X125016666Y-123053390D01*
X125016666Y-123053390D02*
X124902380Y-123015295D01*
X124902380Y-123015295D02*
X124826189Y-123015295D01*
X124826189Y-123015295D02*
X124711904Y-123053390D01*
X124711904Y-123053390D02*
X124673808Y-123091485D01*
D11*
%TO.C,D2*%
X119600000Y-129400000D02*
X123500000Y-129400000D01*
X123500000Y-129400000D02*
X123500000Y-132600000D01*
X119600000Y-132600000D02*
X123500000Y-132600000D01*
%TO.C,D6*%
X119435000Y-118920000D02*
X119435000Y-118764000D01*
X119435000Y-121236000D02*
X119435000Y-121080000D01*
X122036129Y-118920164D02*
G75*
G03*
X119954040Y-118920001I-1041129J-1079836D01*
G01*
X119435001Y-121235515D02*
G75*
G03*
X122667334Y-121078608I1559999J1235515D01*
G01*
X122667334Y-118921392D02*
G75*
G03*
X119435001Y-118764485I-1672334J-1078608D01*
G01*
X119954040Y-121079999D02*
G75*
G03*
X122036129Y-121079836I1040960J1079999D01*
G01*
%TO.C,J1*%
X125665856Y-105111961D02*
X124774902Y-106002916D01*
X124888039Y-104334144D02*
X125665856Y-105111961D01*
X123997084Y-105225098D02*
X124888039Y-104334144D01*
X123997084Y-105225099D02*
G75*
G03*
X124774673Y-106002629I-2997084J-3774901D01*
G01*
%TO.C,D4*%
X121800000Y-129360000D02*
X119340000Y-129360000D01*
X119340000Y-127890000D02*
X121800000Y-127890000D01*
X119340000Y-129360000D02*
X119340000Y-127890000D01*
%TD*%
%LPC*%
D12*
%TO.C,J2*%
X114392500Y-118387500D03*
D13*
X114392500Y-114577500D03*
%TD*%
D14*
%TO.C,H2*%
X129125000Y-108000000D03*
%TD*%
%TO.C,H1*%
X112875000Y-132000000D03*
%TD*%
D15*
%TO.C,J3*%
X112925000Y-124000000D03*
D16*
X112925000Y-126000000D03*
%TD*%
D17*
%TO.C,J4*%
X128984000Y-116415000D03*
X131016000Y-116415000D03*
X130000000Y-111335000D03*
D18*
X129365000Y-112605000D03*
D19*
X130635000Y-112605000D03*
X129365000Y-113875000D03*
X130635000Y-113875000D03*
X129365000Y-115145000D03*
X130635000Y-115145000D03*
%TD*%
D20*
%TO.C,TP4*%
X116625000Y-135625000D03*
%TD*%
%TO.C,TP5*%
X125875000Y-135625000D03*
%TD*%
%TO.C,TP7*%
X124125000Y-115625000D03*
%TD*%
D21*
%TO.C,D2*%
X122050000Y-131000000D03*
D22*
X119475000Y-131000000D03*
%TD*%
D20*
%TO.C,TP1*%
X110625000Y-106750000D03*
%TD*%
D23*
%TO.C,D6*%
X119725000Y-120000000D03*
D24*
X122265000Y-120000000D03*
%TD*%
D25*
%TO.C,J1*%
X123540000Y-109000000D03*
D26*
X121000000Y-111540000D03*
X118460000Y-109000000D03*
%TD*%
D27*
%TO.C,D4*%
X120125000Y-128625000D03*
X121875000Y-128625000D03*
%TD*%
D20*
%TO.C,TP3*%
X126375000Y-102250000D03*
%TD*%
%TO.C,TP2*%
X114875000Y-106750000D03*
%TD*%
%TO.C,TP6*%
X125750000Y-124625000D03*
%TD*%
%LPD*%
M02*
